<svg width="366" height="48" viewBox="0 0 366 48" fill="#ff0000" xmlns="http://www.w3.org/2000/svg">
<g clip-path="url(#clip0_4840_9143)">
<path d="M10.046 0H37.954C43.5021 0 48 4.49793 48 10.046V37.9545C48 43.5026 43.5021 48.0005 37.954 48.0005H10.046C4.49793 48 0 43.5026 0 37.9545V10.046C0 4.49793 4.49793 0 10.046 0Z" fill="#874ECF"/>
<path d="M19.2807 22.7102C19.9294 21.7821 20.248 20.649 20.1792 19.5039C20.1051 18.2624 19.5686 17.0865 18.6696 16.1933C17.6674 15.1979 16.4514 14.6931 15.056 14.6931H6.07739C5.995 14.6931 5.92773 14.7599 5.92773 14.8428V33.2078C5.92773 33.2902 5.99448 33.3575 6.07739 33.3575C8.81859 33.3575 10.7265 33.358 12.0625 33.3585L13.7634 33.3591C15.1947 33.3591 15.2307 33.3575 15.3835 33.3502C15.4377 33.3476 15.5071 33.3445 15.663 33.3403C15.6849 33.3398 15.7063 33.3345 15.7245 33.3252C17.1335 33.1844 18.3745 32.5894 19.4132 31.5564C20.406 30.5688 21.0192 29.3236 21.1866 27.9554C21.3409 26.6919 21.0964 25.3972 20.4983 24.3105C20.1677 23.7083 19.7584 23.1712 19.2807 22.7102ZM15.273 18.606C15.9696 18.7181 16.2736 19.2964 16.2653 19.8267C16.2569 20.3685 15.9248 20.9493 15.2031 21.0291C15.0524 21.0291 12.8258 21.0333 10.6765 21.0333C10.4079 21.0333 10.1399 21.0333 9.87659 21.0333V18.607H15.2568C15.2625 18.607 15.2677 18.6065 15.273 18.606ZM9.87711 24.9639H15.056C16.5927 24.9639 17.293 26.1131 17.293 27.1816C17.293 27.7677 17.0912 28.3121 16.7246 28.7146C16.3111 29.1688 15.7162 29.4086 15.0034 29.4086H9.87711V24.9639Z" fill="white"/>
<path d="M26.3017 14.6702H22.6704C22.588 14.6702 22.5208 14.7369 22.5208 14.8193L22.5015 33.1739C22.5015 33.2136 22.5171 33.2516 22.5453 33.2798C22.5734 33.308 22.6115 33.3236 22.6511 33.3236H26.3022C26.3846 33.3236 26.4519 33.2569 26.4519 33.1739V14.8193C26.4508 14.7369 26.3841 14.6702 26.3017 14.6702Z" fill="white"/>
<path d="M35.5748 18.5726H41.9228C42.0052 18.5726 42.0725 18.5059 42.0725 18.423V14.7911C42.0725 14.7087 42.0057 14.6415 41.9228 14.6415H35.5748C34.7911 14.6415 34.0178 14.7588 33.2779 14.9898C31.6875 15.4867 30.2827 16.5108 29.3222 17.8739C27.9336 19.8434 27.9342 21.6517 27.9342 23.105V23.1451C27.9342 23.458 27.9279 23.7802 27.9217 24.092C27.8982 25.2554 27.8742 26.4578 28.1631 27.6003C28.5729 29.2204 29.5219 30.6835 30.8355 31.7207C32.1719 32.7766 33.8546 33.358 35.5748 33.358H41.9228C42.0052 33.358 42.0725 33.2913 42.0725 33.2083V29.5765C42.0725 29.4941 42.0057 29.4269 41.9228 29.4269H35.5748C33.7159 29.4269 32.1662 28.0951 31.8898 26.2576C31.8465 25.9974 31.8231 22.1408 31.8919 21.7299C32.1698 19.9007 33.719 18.5726 35.5748 18.5726Z" fill="white"/>
</g>
<path d="M75.2916 42.8278C67.7929 42.8278 61.7144 36.7482 61.7144 29.2505V5.49182H68.503V29.2515C68.503 33.0004 71.5417 36.0402 75.2916 36.0402C79.0415 36.0402 82.0803 33.0004 82.0803 29.2515C82.0803 25.5016 79.0405 22.4629 75.2916 22.4629C74.054 22.4629 72.8959 22.8004 71.8978 23.3784V16.1016C72.9826 15.8229 74.1191 15.6743 75.2916 15.6743C82.7904 15.6743 88.8679 21.7528 88.8679 29.2515C88.8679 36.7482 82.7894 42.8278 75.2916 42.8278Z" fill="#874ECF"/>
<path d="M117.907 8.88496C117.907 6.81854 119.582 5.14331 121.649 5.14331C123.716 5.14331 125.391 6.81854 125.391 8.88496C125.391 10.9514 123.715 12.6276 121.649 12.6276C119.582 12.6276 117.907 10.9524 117.907 8.88496ZM118.255 42.8281V15.6746H125.044V42.8281H118.255Z" fill="#874ECF"/>
<path d="M178.561 38.851C176.103 41.3086 172.709 42.8279 168.961 42.8279C161.462 42.8279 155.383 36.7495 155.383 29.2517C155.383 21.7529 161.462 15.6744 168.961 15.6744C172.709 15.6744 176.104 17.1938 178.561 19.6514L173.76 24.4521C172.531 23.2238 170.834 22.4641 168.96 22.4641C165.211 22.4641 162.171 25.5039 162.171 29.2527C162.171 33.0016 165.211 36.0414 168.96 36.0414C170.834 36.0414 172.531 35.2817 173.76 34.0534L178.561 38.851Z" fill="#874ECF"/>
<path d="M192.463 42.8286C184.964 42.8286 178.886 36.7501 178.886 29.2513C178.886 21.7526 184.964 15.6741 192.463 15.6741C199.961 15.6741 206.039 21.7536 206.039 29.2513C206.039 36.7491 199.961 42.8286 192.463 42.8286ZM199.251 29.2524C199.251 25.4509 196.136 22.4637 192.462 22.4637C188.714 22.4637 185.673 25.5025 185.673 29.2524C185.673 33.0105 188.743 36.041 192.462 36.041C196.204 36.04 199.251 33.0064 199.251 29.2524Z" fill="#874ECF"/>
<path d="M249.269 42.8279H242.481C242.481 28.811 242.895 26.2408 241.079 24.2044C240.091 23.0958 238.746 22.5549 237.402 22.5508C236.057 22.5549 234.713 23.0948 233.726 24.2044C231.911 26.2408 232.325 28.812 232.325 42.8279H225.462C225.462 28.811 225.876 26.2408 224.061 24.2044C223.074 23.0958 221.73 22.5549 220.385 22.5508C219.04 22.5549 217.696 23.0948 216.708 24.2044C214.894 26.2408 215.308 28.812 215.308 42.8279H208.519C208.519 27.6725 208.329 26.8085 208.805 24.9042C210.165 18.8938 215.277 15.7054 220.385 15.6744C223.506 15.693 226.626 16.8934 228.894 19.1931C231.162 16.8934 234.282 15.693 237.402 15.6744C242.512 15.7054 247.623 18.8938 248.982 24.9042C249.457 26.8075 249.268 27.6714 249.269 42.8279Z" fill="#874ECF"/>
<path d="M108.995 16.8126C108.926 16.7827 108.857 16.7517 108.787 16.7228C108.731 16.7001 108.675 16.6784 108.619 16.6557C108.047 16.4307 107.461 16.2429 106.866 16.0973C106.855 16.0953 106.846 16.0922 106.836 16.0901C104.946 15.6329 102.964 15.5812 101.035 15.9559C101.006 15.9621 100.977 15.9683 100.948 15.9745C100.772 16.0096 100.596 16.0488 100.422 16.0911C100.351 16.1087 100.28 16.1283 100.21 16.1469C100.077 16.182 99.945 16.2171 99.8128 16.2553C99.7096 16.2852 99.6074 16.3193 99.5042 16.3512C99.4041 16.3832 99.305 16.4142 99.2059 16.4493C99.0831 16.4916 98.9623 16.537 98.8416 16.5825C98.7611 16.6124 98.6805 16.6423 98.6 16.6743C98.472 16.7259 98.3441 16.7806 98.2181 16.8353C98.1438 16.8673 98.0695 16.8993 97.9962 16.9334C97.8724 16.9902 97.7495 17.05 97.6277 17.1099C97.5493 17.1491 97.4708 17.1873 97.3934 17.2276C97.282 17.2854 97.1715 17.3463 97.0611 17.4072C96.9713 17.4567 96.8815 17.5073 96.7927 17.5589C96.6967 17.6146 96.6028 17.6724 96.5078 17.7302C96.4046 17.7942 96.3014 17.8603 96.1982 17.9274C96.1197 17.979 96.0413 18.0316 95.9628 18.0853C95.8472 18.1648 95.7327 18.2463 95.6191 18.3289C95.5531 18.3774 95.487 18.4259 95.4209 18.4755C95.3022 18.5653 95.1877 18.6571 95.0731 18.75C95.0112 18.8006 94.9482 18.8512 94.8873 18.9028C94.7789 18.9936 94.6736 19.0876 94.5694 19.1815C94.5033 19.2403 94.4373 19.2981 94.3733 19.358C94.2814 19.4437 94.1916 19.5324 94.1018 19.6202C94.0285 19.6924 93.9552 19.7636 93.884 19.8369C93.8097 19.9133 93.7395 19.9907 93.6673 20.0681C93.5847 20.1569 93.5021 20.2457 93.4216 20.3375C93.3669 20.3995 93.3153 20.4634 93.2616 20.5274C93.1687 20.6369 93.0769 20.7463 92.9871 20.8588C92.9499 20.9052 92.9158 20.9527 92.8797 21.0002C92.7786 21.1313 92.6774 21.2634 92.5814 21.3996C92.5597 21.4306 92.5391 21.4616 92.5174 21.4925C92.4101 21.6463 92.3048 21.8001 92.2036 21.9591C92.1923 21.9766 92.182 21.9942 92.1716 22.0117C92.0622 22.1841 91.9559 22.3596 91.8537 22.5381C91.8496 22.5443 91.8465 22.5515 91.8424 22.5577C91.2912 23.5259 90.8515 24.5777 90.5439 25.7017C90.484 25.9226 90.4293 26.1425 90.3808 26.3634C90.3777 26.3758 90.3756 26.3881 90.3725 26.4005C90.3282 26.6049 90.2889 26.8093 90.2538 27.0136C90.2487 27.0426 90.2435 27.0725 90.2394 27.1014C90.2084 27.2892 90.1826 27.4771 90.1599 27.665C90.1548 27.7073 90.1496 27.7486 90.1444 27.7909C90.1248 27.9694 90.1093 28.147 90.0959 28.3255C90.0928 28.373 90.0887 28.4195 90.0856 28.467C90.0743 28.6466 90.0681 28.8262 90.0639 29.0047C90.0629 29.046 90.0619 29.0873 90.0608 29.1286C90.0588 29.3237 90.0608 29.5177 90.067 29.7118C90.0681 29.7334 90.0681 29.7551 90.0681 29.7768C90.2797 35.557 94.203 40.7757 100.059 42.3766C100.483 42.4922 100.907 42.5861 101.332 42.6594C101.362 42.6646 101.392 42.6697 101.422 42.6749C101.806 42.7389 102.189 42.7853 102.571 42.8153C102.643 42.8215 102.716 42.8266 102.789 42.8307C102.896 42.838 103.002 42.8442 103.11 42.8483C103.189 42.8514 103.268 42.8524 103.347 42.8535C103.528 42.8576 103.708 42.8586 103.889 42.8545C103.947 42.8535 104.006 42.8524 104.063 42.8504C105.041 42.8194 106.004 42.6831 106.936 42.4488L106.929 42.4303C109.027 41.9039 110.172 41.1545 110.965 40.6425L106.943 35.2091C104.035 36.8317 100.266 36.1123 98.1996 33.3502C96.4614 31.0268 96.4366 27.955 97.9044 25.6439C97.9095 25.6357 97.9147 25.6264 97.9209 25.6171C97.9694 25.5418 98.02 25.4674 98.0716 25.3931C98.085 25.3745 98.0974 25.3549 98.1108 25.3353C98.1541 25.2744 98.2006 25.2146 98.246 25.1547C98.2687 25.1248 98.2914 25.0938 98.3152 25.0639C98.3523 25.0164 98.3915 24.9699 98.4308 24.9235C98.4648 24.8822 98.4989 24.8419 98.534 24.8017C98.5649 24.7666 98.598 24.7315 98.63 24.6964C98.6754 24.6469 98.7208 24.5973 98.7673 24.5488C98.792 24.523 98.8189 24.4982 98.8447 24.4724C98.9004 24.4167 98.9572 24.361 99.015 24.3073C99.0356 24.2887 99.0563 24.2701 99.0769 24.2515C99.1419 24.1927 99.208 24.1339 99.2761 24.0781C99.2937 24.0637 99.3112 24.0492 99.3288 24.0358C99.401 23.977 99.4733 23.9192 99.5476 23.8624C99.5548 23.8572 99.561 23.8511 99.5682 23.8459C99.5785 23.8387 99.5889 23.8314 99.5992 23.8242C99.6735 23.7695 99.7478 23.7158 99.8242 23.6642C99.8407 23.6529 99.8583 23.6415 99.8748 23.6302C99.9543 23.5775 100.035 23.5259 100.116 23.4764C100.128 23.4691 100.139 23.463 100.15 23.4557C101.682 22.5381 103.57 22.2212 105.428 22.7291C106.29 22.9644 107.106 23.4041 107.524 23.7189C107.604 23.7788 107.67 23.8345 107.718 23.882L101.83 28.2977L105.827 33.7847C108.48 31.7947 109.363 31.1331 110.325 30.4105C111.426 29.5848 112.631 28.6806 116.709 25.6233C116.691 25.5603 116.676 25.4963 116.657 25.4334C116.646 25.3962 116.635 25.3601 116.624 25.3229C116.566 25.1351 116.506 24.9472 116.44 24.7604C116.437 24.7501 116.433 24.7408 116.43 24.7305C116.368 24.5571 116.301 24.3847 116.232 24.2123C116.203 24.1411 116.174 24.0709 116.144 24.0018C116.098 23.8934 116.05 23.785 116 23.6766C115.935 23.5352 115.869 23.3948 115.8 23.2555C115.765 23.1853 115.73 23.1141 115.694 23.0439C115.635 22.9304 115.574 22.8178 115.512 22.7064C115.499 22.6826 115.485 22.6589 115.472 22.6351C113.975 19.9948 111.647 17.9656 108.995 16.8126Z" fill="#874ECF"/>
<path d="M152.731 24.9038C151.371 18.8934 146.259 15.7061 141.151 15.6741C141.132 15.6741 141.115 15.6751 141.096 15.6751C141.078 15.6751 141.06 15.6741 141.042 15.6741C135.933 15.7061 130.822 18.8934 129.462 24.9038C128.986 26.8082 129.175 27.6721 129.175 42.8276H135.964C135.964 28.8116 135.549 26.2405 137.365 24.203C137.869 23.6384 138.464 23.2214 139.106 22.9478C139.133 22.9354 139.161 22.9231 139.189 22.9127C139.781 22.6712 140.412 22.5515 141.043 22.5494C141.061 22.5494 141.079 22.5504 141.097 22.5504C141.116 22.5504 141.134 22.5494 141.152 22.5494C141.783 22.5515 142.412 22.6712 143.006 22.9127C143.034 22.9231 143.061 22.9354 143.088 22.9478C143.73 23.2214 144.326 23.6384 144.83 24.203C146.645 26.2405 146.23 28.8106 146.23 42.8276H153.02C153.018 27.6721 153.207 26.8082 152.731 24.9038Z" fill="#874ECF"/>
<rect x="257.143" y="15.4286" width="108" height="24" rx="4" fill="#F4EFFB"/>
<path d="M264.712 32.4286V22.0686H268.408C269.202 22.0686 269.86 22.2319 270.382 22.5586C270.914 22.8853 271.311 23.3099 271.572 23.8326C271.843 24.3459 271.978 24.8826 271.978 25.4426C271.978 26.0119 271.843 26.5579 271.572 27.0806C271.311 27.5939 270.914 28.0186 270.382 28.3546C269.86 28.6813 269.202 28.8446 268.408 28.8446H266.084V32.4286H264.712ZM268.408 23.2726H266.084V27.6406H268.408C268.903 27.6406 269.314 27.5333 269.64 27.3186C269.967 27.1039 270.21 26.8333 270.368 26.5066C270.536 26.1706 270.62 25.8206 270.62 25.4566C270.62 25.0926 270.536 24.7426 270.368 24.4066C270.21 24.0706 269.967 23.7999 269.64 23.5946C269.314 23.3799 268.903 23.2726 268.408 23.2726ZM278.384 32.5686C277.563 32.5686 276.839 32.4193 276.214 32.1206C275.589 31.8126 275.066 31.4066 274.646 30.9026C274.226 30.3893 273.909 29.8153 273.694 29.1806C273.479 28.5459 273.372 27.8973 273.372 27.2346C273.372 26.5719 273.479 25.9279 273.694 25.3026C273.909 24.6679 274.226 24.0986 274.646 23.5946C275.066 23.0906 275.589 22.6893 276.214 22.3906C276.839 22.0826 277.563 21.9286 278.384 21.9286C279.205 21.9286 279.929 22.0826 280.554 22.3906C281.179 22.6893 281.702 23.0906 282.122 23.5946C282.542 24.0986 282.859 24.6679 283.074 25.3026C283.289 25.9279 283.396 26.5719 283.396 27.2346C283.396 27.8973 283.289 28.5459 283.074 29.1806C282.859 29.8153 282.542 30.3893 282.122 30.9026C281.702 31.4066 281.179 31.8126 280.554 32.1206C279.929 32.4193 279.205 32.5686 278.384 32.5686ZM278.384 31.2946C278.972 31.2946 279.49 31.1826 279.938 30.9586C280.386 30.7346 280.759 30.4313 281.058 30.0486C281.366 29.6659 281.599 29.2319 281.758 28.7466C281.917 28.2613 281.996 27.7573 281.996 27.2346C281.996 26.7213 281.917 26.2266 281.758 25.7506C281.599 25.2653 281.366 24.8313 281.058 24.4486C280.759 24.0659 280.386 23.7626 279.938 23.5386C279.49 23.3146 278.972 23.2026 278.384 23.2026C277.796 23.2026 277.278 23.3146 276.83 23.5386C276.382 23.7626 276.004 24.0659 275.696 24.4486C275.397 24.8313 275.169 25.2653 275.01 25.7506C274.851 26.2266 274.772 26.7213 274.772 27.2346C274.772 27.7573 274.851 28.2613 275.01 28.7466C275.169 29.2319 275.397 29.6659 275.696 30.0486C276.004 30.4313 276.382 30.7346 276.83 30.9586C277.278 31.1826 277.796 31.2946 278.384 31.2946ZM288.76 32.5686C288.163 32.5686 287.65 32.4939 287.22 32.3446C286.8 32.1859 286.45 31.9853 286.17 31.7426C285.89 31.4906 285.666 31.2293 285.498 30.9586C285.33 30.6879 285.204 30.4313 285.12 30.1886C285.036 29.9366 284.98 29.7359 284.952 29.5866C284.934 29.4279 284.924 29.3486 284.924 29.3486H286.324C286.324 29.3486 286.338 29.4139 286.366 29.5446C286.394 29.6753 286.45 29.8386 286.534 30.0346C286.628 30.2306 286.763 30.4313 286.94 30.6366C287.118 30.8326 287.356 30.9959 287.654 31.1266C287.953 31.2573 288.331 31.3226 288.788 31.3226C289.479 31.3226 290.025 31.1593 290.426 30.8326C290.828 30.4966 291.028 30.0626 291.028 29.5306C291.028 29.0733 290.874 28.7186 290.566 28.4666C290.268 28.2146 289.838 28.0186 289.278 27.8786L287.906 27.5426C287.421 27.4213 286.968 27.2533 286.548 27.0386C286.138 26.8146 285.806 26.5253 285.554 26.1706C285.312 25.8066 285.19 25.3539 285.19 24.8126C285.19 24.2059 285.34 23.6879 285.638 23.2586C285.937 22.8293 286.343 22.5026 286.856 22.2786C287.37 22.0453 287.953 21.9286 288.606 21.9286C289.241 21.9286 289.768 22.0266 290.188 22.2226C290.608 22.4186 290.944 22.6613 291.196 22.9506C291.448 23.2306 291.635 23.5153 291.756 23.8046C291.878 24.0846 291.957 24.3226 291.994 24.5186C292.032 24.7146 292.05 24.8126 292.05 24.8126H290.706C290.706 24.8126 290.688 24.7286 290.65 24.5606C290.613 24.3926 290.524 24.2013 290.384 23.9866C290.244 23.7626 290.03 23.5666 289.74 23.3986C289.451 23.2306 289.059 23.1466 288.564 23.1466C287.892 23.1466 287.384 23.3053 287.038 23.6226C286.702 23.9399 286.534 24.3039 286.534 24.7146C286.534 25.0879 286.67 25.3913 286.94 25.6246C287.211 25.8486 287.584 26.0213 288.06 26.1426L289.544 26.5066C290.076 26.6373 290.557 26.8286 290.986 27.0806C291.416 27.3233 291.756 27.6406 292.008 28.0326C292.26 28.4153 292.386 28.8866 292.386 29.4466C292.386 30.0066 292.246 30.5246 291.966 31.0006C291.696 31.4766 291.29 31.8593 290.748 32.1486C290.216 32.4286 289.554 32.5686 288.76 32.5686ZM296.646 32.4286V23.2726H293.412V22.0686H301.252V23.2726H298.018V32.4286H296.646ZM303.539 28.6066V27.4866H308.747V28.6066H303.539ZM311.035 32.4286L314.689 22.0686H316.411L320.079 32.4286H318.623L317.755 29.9506H313.359L312.491 32.4286H311.035ZM313.779 28.7186H317.335L315.557 23.6366L313.779 28.7186ZM321.833 32.4286V22.0686H323.205V31.2246H328.539V32.4286H321.833ZM330.57 32.4286V22.0686H334.266C335.059 22.0686 335.717 22.2319 336.24 22.5586C336.772 22.8853 337.168 23.3099 337.43 23.8326C337.7 24.3459 337.836 24.8826 337.836 25.4426C337.836 26.0119 337.7 26.5579 337.43 27.0806C337.168 27.5939 336.772 28.0186 336.24 28.3546C335.717 28.6813 335.059 28.8446 334.266 28.8446H331.942V32.4286H330.57ZM334.266 23.2726H331.942V27.6406H334.266C334.76 27.6406 335.171 27.5333 335.498 27.3186C335.824 27.1039 336.067 26.8333 336.226 26.5066C336.394 26.1706 336.478 25.8206 336.478 25.4566C336.478 25.0926 336.394 24.7426 336.226 24.4066C336.067 24.0706 335.824 23.7999 335.498 23.5946C335.171 23.3799 334.76 23.2726 334.266 23.2726ZM339.579 32.4286V22.0686H340.951V26.5626H345.893V22.0686H347.265V32.4286H345.893V27.7946H340.951V32.4286H339.579ZM349.015 32.4286L352.669 22.0686H354.391L358.059 32.4286H356.603L355.735 29.9506H351.339L350.471 32.4286H349.015ZM351.759 28.7186H355.315L353.537 23.6366L351.759 28.7186Z" fill="#7335C0"/>
<defs>
<clipPath id="clip0_4840_9143">
<rect width="48" height="48" fill="white"/>
</clipPath>
</defs>
</svg>
