<svg width="105" height="18" viewBox="0 0 105 18" fill="none" xmlns="http://www.w3.org/2000/svg">
<path d="M69.0826 16.0574V6.94358C69.0825 6.73344 69.1228 6.52534 69.2012 6.33117C69.2795 6.13701 69.3945 5.96059 69.5394 5.81199C69.6843 5.6634 69.8563 5.54554 70.0456 5.46516C70.235 5.38477 70.4379 5.34344 70.6428 5.34352H70.9179C71.1228 5.34344 71.3257 5.38477 71.5151 5.46516C71.7044 5.54554 71.8764 5.6634 72.0213 5.81199C72.1662 5.96059 72.2812 6.13701 72.3595 6.33117C72.4379 6.52534 72.4782 6.73344 72.4782 6.94358C72.4782 6.96292 72.4856 6.98147 72.499 6.99515C72.5123 7.00882 72.5304 7.01651 72.5493 7.01651C72.5611 7.01617 72.5727 7.01275 72.5828 7.00658C72.593 7.00042 72.6015 6.9917 72.6075 6.98124C72.8605 6.54491 73.2337 6.12652 73.7272 5.72605C74.2323 5.31602 74.9251 5.11081 75.8056 5.11041C76.6993 5.11041 77.4181 5.32718 77.9621 5.76072C78.4921 6.17711 78.9047 6.73058 79.1575 7.36437H79.2023C79.4156 6.98045 79.6746 6.62527 79.9734 6.30703C80.3165 5.94182 80.7265 5.64972 81.1799 5.44752C81.6641 5.22358 82.2341 5.11121 82.89 5.11041C83.7094 5.11041 84.3875 5.30407 84.9241 5.69138C85.4554 6.07211 85.8701 6.60016 86.1195 7.21375C86.3817 7.84914 86.5148 8.53271 86.5105 9.22265V16.0569C86.5104 16.4812 86.346 16.8881 86.0534 17.1881C85.7608 17.4881 85.364 17.6568 84.9503 17.6569H84.6734C84.2597 17.6568 83.863 17.4881 83.5705 17.1881C83.2781 16.888 83.1138 16.4811 83.1138 16.0569V10.1085C83.1138 9.50477 82.9683 9.00528 82.6772 8.61C82.3862 8.21471 81.9522 8.01687 81.3752 8.01647C80.9279 8.01647 80.5664 8.13263 80.2905 8.36494C80.0127 8.60107 79.8039 8.91135 79.6873 9.2615C79.5609 9.62318 79.4966 10.0046 79.4973 10.3888V16.061C79.4971 16.4853 79.3327 16.8922 79.0401 17.1923C78.7475 17.4923 78.3508 17.6609 77.937 17.6611H77.6607C77.2469 17.6611 76.8501 17.4925 76.5575 17.1925C76.2649 16.8924 76.1005 16.4854 76.1005 16.061V10.1085C76.1005 9.50477 75.955 9.00528 75.6639 8.61C75.3729 8.21471 74.9371 8.01687 74.3566 8.01647C73.9094 8.01647 73.5479 8.13263 73.272 8.36494C72.9942 8.60107 72.7854 8.91135 72.6687 9.2615C72.5429 9.62329 72.4788 10.0046 72.4793 10.3888V16.061C72.4784 16.485 72.3134 16.8912 72.0207 17.1906C71.7279 17.4899 71.3313 17.6578 70.9179 17.6575H70.6411C70.2276 17.657 69.8311 17.4882 69.5389 17.1882C69.2467 16.8882 69.0825 16.4815 69.0826 16.0574Z" fill="#874ECF"/>
<path d="M87.5678 16.0574V6.94358C87.5678 6.73344 87.6081 6.52534 87.6864 6.33117C87.7648 6.13701 87.8797 5.96059 88.0246 5.81199C88.1695 5.6634 88.3416 5.54554 88.5309 5.46516C88.7202 5.38477 88.9232 5.34344 89.1281 5.34352H89.4049C89.61 5.34321 89.8132 5.38436 90.0027 5.46463C90.1923 5.5449 90.3646 5.66271 90.5097 5.81132C90.6548 5.95993 90.77 6.13643 90.8485 6.33071C90.9271 6.525 90.9675 6.73326 90.9675 6.94358C90.9675 6.96292 90.975 6.98147 90.9883 6.99515C91.0017 7.00882 91.0198 7.01651 91.0386 7.01651C91.0505 7.01617 91.062 7.01275 91.0722 7.00658C91.0824 7.00042 91.0909 6.9917 91.0969 6.98124C91.3499 6.54491 91.7231 6.12652 92.2165 5.72605C92.7217 5.31602 93.4145 5.11081 94.2949 5.11041C95.1886 5.11041 95.9075 5.32718 96.4514 5.76072C96.9815 6.17711 97.3941 6.73058 97.6468 7.36437H97.6917C97.9049 6.98045 98.164 6.62527 98.4628 6.30703C98.8058 5.94182 99.2158 5.64972 99.6693 5.44752C100.153 5.22358 100.723 5.11121 101.379 5.11041C102.199 5.11041 102.877 5.30407 103.413 5.69138C103.945 6.07211 104.359 6.60016 104.609 7.21375C104.871 7.84914 105.004 8.53271 105 9.22265V16.0569C105 16.4812 104.836 16.8881 104.543 17.1883C104.251 17.4884 103.854 17.6572 103.44 17.6575H103.163C102.75 17.6574 102.353 17.4887 102.06 17.1887C101.768 16.8887 101.603 16.4818 101.603 16.0574V10.1085C101.603 9.50477 101.458 9.00528 101.167 8.61C100.877 8.21471 100.441 8.01687 99.8599 8.01647C99.413 8.01647 99.0517 8.13263 98.7758 8.36494C98.498 8.60107 98.2892 8.91135 98.1726 9.2615C98.0462 9.62318 97.9819 10.0046 97.9825 10.3888V16.061C97.9824 16.4853 97.818 16.8922 97.5254 17.1923C97.2328 17.4923 96.836 17.6609 96.4223 17.6611H96.1454C95.7317 17.6609 95.335 17.4923 95.0426 17.1922C94.7501 16.8922 94.5858 16.4853 94.5858 16.061V10.1085C94.5858 9.50477 94.4403 9.00528 94.1492 8.61C93.8582 8.21471 93.4226 8.01687 92.8425 8.01647C92.3953 8.01647 92.0337 8.13263 91.7578 8.36494C91.48 8.60107 91.2713 8.91135 91.1546 9.2615C91.0287 9.62329 90.9646 10.0046 90.9652 10.3888V16.061C90.965 16.4853 90.8006 16.8922 90.508 17.1923C90.2155 17.4923 89.8187 17.6609 89.4049 17.6611H89.1281C88.9229 17.6611 88.7197 17.6196 88.5302 17.539C88.3407 17.4583 88.1685 17.3401 88.0236 17.1912C87.8786 17.0422 87.7638 16.8654 87.6856 16.6709C87.6074 16.4763 87.5674 16.2679 87.5678 16.0574Z" fill="#874ECF"/>
<path d="M20.2046 17.89C19.1621 17.89 18.2607 17.7079 17.5003 17.3437C16.7749 17.0071 16.1332 16.5067 15.6229 15.8799C15.1321 15.2713 14.7565 14.574 14.5156 13.8238C14.2709 13.067 14.1473 12.2745 14.1495 11.4772C14.1496 10.7006 14.2665 9.92861 14.4963 9.18859C14.7252 8.44044 15.089 7.74299 15.5687 7.13247C16.0682 6.50085 16.703 5.99602 17.4239 5.65733C18.1758 5.29352 19.0662 5.11142 20.0951 5.11102C21.183 5.11102 22.1476 5.35887 22.9888 5.85457C23.8301 6.35027 24.4893 7.08227 24.9664 8.05055C25.444 9.01884 25.6825 10.1921 25.6821 11.5705C25.6821 11.7984 25.5938 12.017 25.4367 12.1782C25.2795 12.3394 25.0663 12.43 24.844 12.43H17.5673C17.5995 13.1406 17.8629 13.8197 18.3157 14.3588C18.7703 14.9007 19.3999 15.1717 20.2046 15.1717C20.6662 15.1717 21.0424 15.0979 21.333 14.9505C21.5909 14.8281 21.8226 14.6546 22.0149 14.4401C22.0865 14.3549 22.151 14.2637 22.2078 14.1675C22.2999 14.0181 22.4276 13.8953 22.5788 13.8107C22.7301 13.7261 22.8999 13.6825 23.0722 13.684H24.1796C24.3487 13.6844 24.5148 13.7293 24.6622 13.8142C24.8097 13.8992 24.9334 14.0214 25.0218 14.1692C25.1101 14.3171 25.1601 14.4857 25.1669 14.659C25.1737 14.8322 25.1372 15.0044 25.0608 15.1591L25.0544 15.1717C24.8145 15.6334 24.5095 16.0563 24.1493 16.4268C23.7541 16.8456 23.2364 17.1943 22.596 17.4728C21.9557 17.7514 21.1585 17.8904 20.2046 17.89ZM17.5673 10.292H22.4171C22.372 9.44082 22.1261 8.80586 21.6792 8.38706C21.2324 7.96827 20.6812 7.75927 20.0257 7.76007C19.3694 7.76007 18.8109 7.98062 18.35 8.42173C17.8892 8.86284 17.6283 9.48625 17.5673 10.292Z" fill="#874ECF"/>
<path d="M28.4291 3.82118C27.9239 3.82118 27.516 3.65442 27.2051 3.3209C27.0531 3.16538 26.9331 2.98022 26.852 2.77635C26.7709 2.57247 26.7304 2.35401 26.733 2.13385C26.728 1.90755 26.7671 1.68249 26.8482 1.47195C26.9293 1.26141 27.0506 1.06965 27.2051 0.90795C27.5187 0.574428 27.9267 0.407668 28.4291 0.407668C28.653 0.402416 28.8755 0.444074 29.0832 0.530095C29.2908 0.616117 29.4792 0.744693 29.6367 0.90795C29.7961 1.06688 29.9219 1.25771 30.0063 1.4686C30.0907 1.67949 30.132 1.90593 30.1275 2.13385C30.1294 2.35564 30.0868 2.57547 30.0024 2.77967C29.9179 2.98388 29.7935 3.1681 29.6367 3.3209C29.4792 3.48416 29.2908 3.61273 29.0832 3.69875C28.8755 3.78477 28.653 3.82643 28.4291 3.82118Z" fill="#874ECF"/>
<path d="M30.1275 7.08523C30.1275 6.1233 29.3671 5.34351 28.4291 5.34351C27.4911 5.34351 26.7307 6.1233 26.7307 7.08523V15.9158C26.7307 16.8777 27.4911 17.6575 28.4291 17.6575C29.3671 17.6575 30.1275 16.8777 30.1275 15.9158V7.08523Z" fill="#874ECF"/>
<path d="M31.2337 15.9152V7.08524C31.2337 6.62331 31.4126 6.18029 31.7311 5.85366C32.0496 5.52702 32.4816 5.34352 32.9321 5.34352C33.3826 5.34352 33.8146 5.527 34.1332 5.85362C34.4518 6.18024 34.6309 6.62325 34.631 7.08524V7.10915H34.7424C34.912 6.81051 35.1106 6.53016 35.3351 6.27236C35.6306 5.93472 35.9868 5.65871 36.3842 5.45947C36.8237 5.22676 37.3871 5.11041 38.0744 5.11041C38.9976 5.11041 39.7499 5.33117 40.3312 5.77267C40.9039 6.20294 41.3459 6.79091 41.6058 7.46837C41.8739 8.15965 42.0104 8.89714 42.008 9.64104V15.917C42.008 16.1458 41.9641 16.3724 41.8787 16.5837C41.7933 16.7951 41.6681 16.9872 41.5104 17.149C41.3526 17.3108 41.1653 17.4391 40.9592 17.5267C40.7531 17.6142 40.5321 17.6593 40.309 17.6593C39.8585 17.6591 39.4265 17.4755 39.1081 17.1488C38.7896 16.822 38.6106 16.379 38.6106 15.917V10.2459C38.62 9.69155 38.4598 9.1481 38.1525 8.69188C37.846 8.24161 37.3574 8.01647 36.6867 8.01647C36.1816 8.01647 35.7794 8.1404 35.4802 8.38825C35.1814 8.63731 34.9569 8.96743 34.8321 9.34099C34.6964 9.73648 34.6284 10.153 34.631 10.5723V15.9164C34.631 16.3785 34.452 16.8216 34.1334 17.1484C33.8148 17.4751 33.3827 17.6587 32.9321 17.6587C32.7089 17.6586 32.4879 17.6135 32.2818 17.5258C32.0757 17.4381 31.8884 17.3097 31.7307 17.1478C31.573 16.9859 31.4479 16.7937 31.3626 16.5822C31.2773 16.3707 31.2335 16.144 31.2337 15.9152Z" fill="#874ECF"/>
<path d="M49.2807 17.89C48.2374 17.89 47.3285 17.7079 46.5541 17.3437C45.8174 17.0095 45.1609 16.5139 44.6308 15.8919C44.1247 15.2883 43.7375 14.5899 43.4908 13.8352C43.2402 13.0836 43.112 12.2948 43.1113 11.5005C43.1115 10.7099 43.2397 9.92475 43.4908 9.17721C43.7412 8.42376 44.1284 7.72571 44.632 7.1199C45.1596 6.49205 45.8165 5.99211 46.5553 5.65611C47.3297 5.2923 48.2386 5.1102 49.2818 5.1098C50.3391 5.1098 51.2108 5.26919 51.897 5.58797C52.5832 5.90675 53.1307 6.30143 53.5395 6.77203C53.9486 7.24542 54.2503 7.71801 54.4446 8.1898L54.4504 8.20414C54.7687 8.98834 54.1928 9.85083 53.3652 9.85083H52.53C52.3105 9.85101 52.0955 9.78744 51.9099 9.66749C51.7242 9.54753 51.5755 9.37609 51.4809 9.17302C51.4355 9.0747 51.3847 8.97911 51.3288 8.88672C51.1489 8.60841 50.9074 8.37761 50.6241 8.2131C50.3133 8.01945 49.8961 7.92262 49.3728 7.92262C48.732 7.92262 48.1995 8.08898 47.7752 8.42171C47.3458 8.76126 47.0169 9.21652 46.8252 9.73667C46.4078 10.8749 46.4078 12.1297 46.8252 13.2679C47.0166 13.7882 47.3456 14.2435 47.7752 14.5829C48.1995 14.9164 48.732 15.083 49.3728 15.0826C49.8946 15.0826 50.3117 14.9857 50.6241 14.7921C50.907 14.6257 51.1474 14.393 51.3258 14.1131C51.3819 14.0206 51.4327 13.9248 51.478 13.8262C51.5727 13.6233 51.7215 13.452 51.9071 13.3322C52.0928 13.2123 52.3077 13.1488 52.5271 13.149H53.3611C54.1893 13.149 54.7652 14.0121 54.4463 14.7957L54.4405 14.81C54.2462 15.2826 53.9445 15.755 53.5354 16.2272C53.1262 16.6994 52.5787 17.0945 51.8929 17.4124C51.2099 17.7308 50.3391 17.89 49.2807 17.89Z" fill="#874ECF"/>
<path d="M61.8017 17.89C60.476 17.89 59.3511 17.5912 58.4271 16.9935C57.5271 16.4239 56.7966 15.6123 56.3149 14.6469C55.8373 13.6696 55.5887 12.5915 55.5887 11.4984C55.5887 10.4053 55.8373 9.32726 56.3149 8.34999C56.7968 7.3848 57.5273 6.57344 58.4271 6.00398C59.3503 5.40628 60.4752 5.10742 61.8017 5.10742C63.1283 5.10742 64.2534 5.40628 65.177 6.00398C66.0764 6.57378 66.8066 7.38507 67.2886 8.34999C67.7665 9.32715 68.0154 10.4052 68.0154 11.4984C68.0154 12.5916 67.7665 13.6697 67.2886 14.6469C66.8068 15.6121 66.0765 16.4236 65.177 16.9935C64.2526 17.5912 63.1275 17.89 61.8017 17.89ZM61.8017 15.0091C62.3974 15.0091 62.9004 14.8463 63.3107 14.5207C63.7302 14.1821 64.0573 13.7379 64.2602 13.2315C64.7078 12.1192 64.7078 10.8705 64.2602 9.75819C64.0549 9.25612 63.7281 8.81607 63.3107 8.47969C62.9004 8.15534 62.3974 7.99296 61.8017 7.99256C61.2061 7.99216 60.6994 8.15454 60.2817 8.47969C59.86 8.8117 59.5323 9.25303 59.3323 9.75819C58.9002 10.8736 58.9002 12.1161 59.3323 13.2315C59.5299 13.741 59.8579 14.1864 60.2817 14.5207C60.699 14.8467 61.2057 15.0091 61.8017 15.0091Z" fill="#874ECF"/>
<path d="M6.99224 11.1288H8.79904C8.83619 11.1287 8.87291 11.1206 8.90676 11.1049C8.94061 11.0892 8.9708 11.0662 8.99534 11.0376C9.01987 11.009 9.03819 10.9754 9.04906 10.9389C9.05993 10.9025 9.06312 10.8641 9.0584 10.8263C8.99213 10.2968 8.75653 9.80472 8.38846 9.42715C8.0204 9.04958 7.54064 8.80783 7.0243 8.73972C6.98742 8.73489 6.94996 8.73815 6.9144 8.7493C6.87885 8.76045 6.84601 8.77922 6.81806 8.80437C6.79012 8.82952 6.76771 8.86048 6.75232 8.89519C6.73693 8.9299 6.72891 8.96757 6.7288 9.0057V10.8586C6.72849 10.8942 6.73509 10.9294 6.74822 10.9624C6.76135 10.9953 6.78074 11.0252 6.80527 11.0503C6.82979 11.0755 6.85896 11.0954 6.89106 11.1088C6.92316 11.1223 6.95756 11.1291 6.99224 11.1288Z" fill="#FFCE70"/>
<path d="M7.02612 13.8908C7.54241 13.8228 8.02215 13.5811 8.39023 13.2037C8.7583 12.8262 8.99393 12.3342 9.06022 11.8047C9.06503 11.7669 9.06191 11.7285 9.05108 11.6919C9.04024 11.6554 9.02194 11.6217 8.9974 11.593C8.97285 11.5644 8.94263 11.5414 8.90874 11.5256C8.87484 11.5099 8.83807 11.5017 8.80086 11.5017H6.99406C6.92476 11.5017 6.85828 11.5299 6.80922 11.5801C6.76016 11.6303 6.73252 11.6984 6.73237 11.7695V13.6224C6.73209 13.6606 6.73976 13.6984 6.75487 13.7333C6.76997 13.7682 6.79217 13.7994 6.81998 13.8248C6.84778 13.8502 6.88056 13.8692 6.9161 13.8806C6.95165 13.892 6.98916 13.8954 7.02612 13.8908Z" fill="#57EED8"/>
<path d="M6.07203 13.8908C6.10891 13.8956 6.14637 13.8924 6.18193 13.8812C6.21748 13.8701 6.25032 13.8513 6.27827 13.8261C6.30621 13.801 6.32862 13.77 6.34401 13.7353C6.3594 13.7006 6.36741 13.663 6.36753 13.6248V11.7719C6.36737 11.7009 6.33973 11.6327 6.29067 11.5825C6.24161 11.5323 6.17514 11.5042 6.10584 11.5042H4.29962C4.26244 11.5043 4.22571 11.5125 4.19186 11.5283C4.15802 11.5441 4.12783 11.567 4.1033 11.5957C4.07878 11.6243 4.06047 11.658 4.0496 11.6945C4.03874 11.731 4.03555 11.7694 4.04026 11.8072C4.10711 12.3358 4.34267 12.8269 4.7102 13.2038C5.07774 13.5807 5.55658 13.8223 6.07203 13.8908Z" fill="#FF5D88"/>
<path d="M7.52909 4.65137L7.50928 4.64838C7.46187 4.64121 7.41466 4.63463 7.36765 4.62866L7.32801 4.62387L7.20504 4.60953L7.14966 4.60475L7.04067 4.59519L6.97248 4.591L6.87457 4.58443L6.79821 4.58144H6.70671H6.62628H6.53827H6.41354H6.37682C6.32378 4.58144 6.27016 4.58502 6.21712 4.58801H6.16817L6.05801 4.59519L5.99332 4.60056L5.89948 4.60893L5.83012 4.6167L5.74211 4.62686L5.67101 4.63643L5.5865 4.64898L5.51306 4.66033L5.43146 4.67408L5.35802 4.68723L5.27817 4.70337L5.20415 4.71831L5.12605 4.73565L5.05145 4.75298L4.9751 4.7721L4.9005 4.79123L4.82589 4.81156L4.67902 4.85459L4.61141 4.87551L4.53156 4.90181L4.4657 4.92333L4.38702 4.95142L4.32174 4.97533L4.24364 5.00461C3.79036 5.17986 3.35755 5.40639 2.95324 5.68002L2.91943 5.70214V1.18107C2.84806 0.846475 2.66733 0.546937 2.40719 0.332125C2.14705 0.117314 1.82314 0.000130055 1.48915 0H1.43553C1.11837 3.21547e-05 0.809787 0.105638 0.556172 0.300945C0.302557 0.496252 0.117614 0.770706 0.0291419 1.08305C0.00997631 1.22526 0.000240004 1.36864 0 1.5122V10.9811H0.00699399V11.0451C0.00699399 11.0737 0.00699399 11.1048 0.00699399 11.1299C0.00699399 11.1843 0.00699399 11.2381 0.00699399 11.2919C0.00478956 11.7372 0.0453961 12.1817 0.128224 12.6188C0.298122 13.4877 0.634938 14.3132 1.11905 15.0473C1.14877 15.0921 1.17733 15.1364 1.2088 15.1806C1.36079 15.3997 1.52544 15.6093 1.70188 15.8082C1.77221 15.8879 1.84449 15.9656 1.9187 16.0413C1.956 16.0796 1.9933 16.1172 2.03119 16.1543L2.11745 16.2368C2.20448 16.3188 2.29327 16.3985 2.3838 16.4758C2.47473 16.5523 2.56798 16.6271 2.66298 16.6988C2.69446 16.7233 2.72651 16.7466 2.75857 16.7699C2.82967 16.8217 2.90175 16.8719 2.9748 16.9205C3.00627 16.9421 3.03833 16.963 3.07039 16.9803C3.16772 17.0401 3.26622 17.1034 3.36705 17.1596C3.40902 17.1835 3.45156 17.2068 3.49411 17.2302C3.61068 17.2941 3.73249 17.3551 3.8543 17.4095C3.90559 17.4334 3.95747 17.4561 4.00992 17.4788C4.75797 17.802 5.55838 17.9787 6.36983 18C6.42811 18 6.48931 18 6.54934 18C6.78571 18 7.0219 17.9871 7.25691 17.9611C7.3385 17.9522 7.4201 17.9414 7.50112 17.9295C7.59146 17.9157 7.68121 17.9002 7.77039 17.8834L7.91959 17.8524C8.01809 17.8309 8.11659 17.8069 8.21393 17.7812L8.35905 17.7406C8.4558 17.7119 8.55139 17.6812 8.64581 17.6485H8.64989C9.30019 17.4226 9.9117 17.0931 10.4619 16.6719L10.4678 16.6671C10.5295 16.6199 10.5907 16.5709 10.6514 16.5213C10.832 16.3711 11.0049 16.2115 11.1695 16.0431L11.18 16.0317C11.2284 15.9827 11.275 15.9325 11.3216 15.8817C11.3682 15.8309 11.4026 15.7921 11.4428 15.746C11.4831 15.7 11.5349 15.6384 11.5798 15.5829C11.6247 15.5273 11.662 15.4813 11.7016 15.4293C11.7914 15.3121 11.8773 15.1926 11.9592 15.0706C11.9662 15.0599 11.9732 15.0503 11.9796 15.0395C12.021 14.9798 12.0612 14.9128 12.1009 14.8489C12.1405 14.7849 12.1889 14.7024 12.2308 14.6277C12.3288 14.4524 12.4191 14.2731 12.5019 14.0898C12.5741 13.9284 12.6404 13.7636 12.7006 13.5955C12.7437 13.4759 12.7828 13.3564 12.8172 13.2321C12.8341 13.1723 12.851 13.1125 12.8667 13.0528C12.8859 12.9798 12.904 12.9063 12.9215 12.8322C12.9215 12.8215 12.9262 12.8113 12.9291 12.8005C12.9734 12.6013 13.0089 12.4005 13.0357 12.198C13.0456 12.1221 13.055 12.0468 13.0625 11.9703C13.0701 11.8938 13.076 11.8179 13.0812 11.7414C13.0853 11.6816 13.0882 11.6189 13.0905 11.5573C13.094 11.4748 13.0958 11.3917 13.0964 11.3081V11.2835C13.0936 9.67843 12.5307 8.12733 11.5096 6.91087C10.4884 5.6944 9.07645 4.89291 7.52909 4.65137ZM6.54876 15.0156C5.67306 15.0155 4.82689 14.6909 4.16617 14.1015C3.50545 13.5121 3.07468 12.6977 2.95324 11.8083C2.93006 11.6372 2.91838 11.4647 2.91827 11.2919C2.91827 11.2602 2.91827 11.228 2.91827 11.1963C2.93661 10.4641 3.1651 9.7537 3.57515 9.15401C3.9852 8.55432 4.5586 8.09196 5.2236 7.82478C5.8886 7.5576 6.61566 7.49747 7.31381 7.65192C8.01196 7.80636 8.6502 8.16852 9.14866 8.69308C9.64711 9.21763 9.98366 9.88129 10.1162 10.601C10.2487 11.3207 10.1713 12.0645 9.89367 12.7394C9.61605 13.4142 9.15053 13.9901 8.55536 14.395C7.96019 14.7999 7.26181 15.0157 6.54759 15.0156H6.54876Z" fill="#874ECF"/>
</svg>
