<svg width="146" height="28" viewBox="0 0 146 28" fill="none" xmlns="http://www.w3.org/2000/svg">
<g clip-path="url(#clip0_1596_1510)">
<path d="M5.86019 0H22.1398C25.3762 0 28 2.62379 28 5.86019V22.1401C28 25.3765 25.3762 28.0003 22.1398 28.0003H5.86019C2.62379 28 0 25.3765 0 22.1401V5.86019C0 2.62379 2.62379 0 5.86019 0Z" fill="#874ECF"/>
<path d="M11.247 13.2475C11.6254 12.706 11.8113 12.0451 11.7711 11.3771C11.7279 10.6529 11.4149 9.96695 10.8905 9.4459C10.3059 8.86524 9.59657 8.5708 8.78261 8.5708H3.54506C3.497 8.5708 3.45776 8.60973 3.45776 8.6581V19.3711C3.45776 19.4191 3.4967 19.4584 3.54506 19.4584C5.1441 19.4584 6.25706 19.4587 7.03635 19.459L8.02857 19.4593C8.86352 19.4593 8.88451 19.4584 8.97363 19.4541C9.00526 19.4526 9.04572 19.4508 9.13667 19.4483C9.14944 19.448 9.16191 19.445 9.17256 19.4395C9.99443 19.3574 10.7184 19.0103 11.3243 18.4077C11.9034 17.8316 12.2611 17.1053 12.3588 16.3071C12.4488 15.5701 12.3061 14.8149 11.9573 14.181C11.7644 13.8296 11.5256 13.5163 11.247 13.2475ZM8.90914 10.8533C9.31552 10.9187 9.49285 11.256 9.48799 11.5654C9.48312 11.8814 9.28936 12.2203 8.86839 12.2668C8.78048 12.2668 7.48166 12.2692 6.22786 12.2692C6.07121 12.2692 5.91487 12.2692 5.76126 12.2692V10.8539H8.89972C8.90306 10.8539 8.9061 10.8536 8.90914 10.8533ZM5.76157 14.5621H8.78261C9.67901 14.5621 10.0875 15.2325 10.0875 15.8557C10.0875 16.1976 9.96979 16.5152 9.75596 16.75C9.51475 17.0149 9.16769 17.1549 8.75189 17.1549H5.76157V14.5621Z" fill="white"/>
<path d="M15.3428 8.55762H13.2245C13.1765 8.55762 13.1372 8.59655 13.1372 8.64461L13.126 19.3515C13.126 19.3746 13.1351 19.3968 13.1515 19.4132C13.168 19.4297 13.1902 19.4388 13.2133 19.4388H15.3431C15.3912 19.4388 15.4304 19.3998 15.4304 19.3515V8.64461C15.4298 8.59655 15.3908 8.55762 15.3428 8.55762Z" fill="white"/>
<path d="M20.7517 10.8339H24.4547C24.5027 10.8339 24.542 10.795 24.542 10.7466V8.62807C24.542 8.58001 24.503 8.54077 24.4547 8.54077H20.7517C20.2945 8.54077 19.8434 8.60921 19.4118 8.74396C18.4841 9.03383 17.6646 9.63123 17.1044 10.4263C16.2943 11.5752 16.2946 12.6301 16.2946 13.4778V13.5012C16.2946 13.6837 16.291 13.8717 16.2873 14.0536C16.2737 14.7322 16.2597 15.4336 16.4282 16.1001C16.6673 17.0451 17.2209 17.8986 17.9871 18.5036C18.7667 19.1196 19.7482 19.4587 20.7517 19.4587H24.4547C24.5027 19.4587 24.542 19.4198 24.542 19.3714V17.2529C24.542 17.2048 24.503 17.1656 24.4547 17.1656H20.7517C19.6673 17.1656 18.7633 16.3887 18.6021 15.3168C18.5769 15.165 18.5632 12.9154 18.6033 12.6757C18.7654 11.6087 19.6691 10.8339 20.7517 10.8339Z" fill="white"/>
</g>
<path d="M43.9201 24.9829C39.5458 24.9829 36 21.4365 36 17.0628V3.20361H39.96V17.0634C39.96 19.2503 41.7326 21.0235 43.9201 21.0235C46.1075 21.0235 47.8801 19.2503 47.8801 17.0634C47.8801 14.876 46.1069 13.1034 43.9201 13.1034C43.1982 13.1034 42.5226 13.3003 41.9404 13.6375V9.39264C42.5732 9.23007 43.2361 9.14337 43.9201 9.14337C48.2944 9.14337 51.8395 12.6892 51.8395 17.0634C51.8395 21.4365 48.2938 24.9829 43.9201 24.9829Z" fill="#874ECF"/>
<path d="M68.7793 5.18287C68.7793 3.97746 69.7565 3.00024 70.9619 3.00024C72.1679 3.00024 73.1446 3.97746 73.1446 5.18287C73.1446 6.38828 72.1673 7.3661 70.9619 7.3661C69.7565 7.3661 68.7793 6.38888 68.7793 5.18287ZM68.9822 24.9831V9.14351H72.9422V24.9831H68.9822Z" fill="#874ECF"/>
<path d="M104.16 22.6632C102.727 24.0968 100.747 24.9831 98.5602 24.9831C94.1859 24.9831 90.6401 21.4373 90.6401 17.0636C90.6401 12.6893 94.1859 9.14355 98.5602 9.14355C100.747 9.14355 102.727 10.0299 104.16 11.4635L101.36 14.2638C100.643 13.5473 99.653 13.1042 98.5596 13.1042C96.3728 13.1042 94.5996 14.8774 94.5996 17.0642C94.5996 19.2511 96.3728 21.0243 98.5596 21.0243C99.653 21.0243 100.643 20.5811 101.36 19.8646L104.16 22.6632Z" fill="#874ECF"/>
<path d="M112.27 24.9832C107.896 24.9832 104.35 21.4374 104.35 17.0631C104.35 12.6889 107.896 9.14307 112.27 9.14307C116.644 9.14307 120.189 12.6895 120.189 17.0631C120.189 21.4368 116.644 24.9832 112.27 24.9832ZM116.229 17.0637C116.229 14.8462 114.412 13.1037 112.269 13.1037C110.083 13.1037 108.309 14.8763 108.309 17.0637C108.309 19.256 110.1 21.0238 112.269 21.0238C114.452 21.0232 116.229 19.2536 116.229 17.0637Z" fill="#874ECF"/>
<path d="M145.407 24.9831H141.447C141.447 16.8065 141.689 15.3073 140.629 14.1193C140.053 13.4727 139.269 13.1572 138.485 13.1548C137.7 13.1572 136.916 13.4721 136.34 14.1193C135.282 15.3073 135.523 16.8071 135.523 24.9831H131.52C131.52 16.8065 131.761 15.3073 130.703 14.1193C130.126 13.4727 129.342 13.1572 128.558 13.1548C127.773 13.1572 126.989 13.4721 126.413 14.1193C125.355 15.3073 125.596 16.8071 125.596 24.9831H121.636C121.636 16.1424 121.525 15.6384 121.803 14.5276C122.596 11.0215 125.578 9.16162 128.558 9.14355C130.379 9.15439 132.199 9.85464 133.522 11.1961C134.844 9.85464 136.665 9.15439 138.485 9.14355C141.465 9.16162 144.447 11.0215 145.24 14.5276C145.517 15.6378 145.407 16.1418 145.407 24.9831Z" fill="#874ECF"/>
<path d="M63.5804 9.80746C63.54 9.79 63.4997 9.77194 63.4587 9.75508C63.4262 9.74183 63.3937 9.72919 63.3612 9.71594C63.027 9.58468 62.6856 9.4751 62.3382 9.3902C62.3322 9.389 62.3268 9.38719 62.3208 9.38599C61.2183 9.11926 60.0623 9.08915 58.9369 9.30771C58.9201 9.31133 58.9032 9.31494 58.8864 9.31855C58.7834 9.33902 58.681 9.3619 58.5793 9.38659C58.5377 9.39683 58.4968 9.40827 58.4559 9.4191C58.3782 9.43957 58.3011 9.46005 58.224 9.48232C58.1638 9.49979 58.1042 9.51965 58.044 9.53832C57.9856 9.55698 57.9278 9.57505 57.87 9.59552C57.7984 9.62021 57.7279 9.6467 57.6575 9.67319C57.6105 9.69065 57.5635 9.70811 57.5166 9.72678C57.4419 9.75688 57.3672 9.78879 57.2938 9.82071C57.2504 9.83937 57.2071 9.85804 57.1643 9.87791C57.0921 9.91102 57.0204 9.94594 56.9494 9.98087C56.9036 10.0037 56.8579 10.026 56.8127 10.0495C56.7477 10.0832 56.6833 10.1187 56.6188 10.1543C56.5664 10.1832 56.5141 10.2127 56.4623 10.2428C56.4063 10.2753 56.3515 10.309 56.2961 10.3427C56.2359 10.3801 56.1757 10.4186 56.1155 10.4577C56.0697 10.4878 56.024 10.5185 55.9782 10.5499C55.9108 10.5962 55.8439 10.6438 55.7777 10.692C55.7392 10.7202 55.7006 10.7485 55.6621 10.7774C55.5928 10.8298 55.526 10.8834 55.4592 10.9376C55.4231 10.9671 55.3863 10.9966 55.3508 11.0267C55.2876 11.0797 55.2262 11.1345 55.1654 11.1893C55.1268 11.2236 55.0883 11.2573 55.051 11.2922C54.9974 11.3422 54.945 11.394 54.8926 11.4452C54.8499 11.4873 54.8071 11.5289 54.7656 11.5716C54.7222 11.6162 54.6813 11.6613 54.6391 11.7065C54.5909 11.7583 54.5428 11.8101 54.4958 11.8636C54.4639 11.8998 54.4338 11.9371 54.4025 11.9744C54.3483 12.0383 54.2947 12.1021 54.2423 12.1677C54.2207 12.1948 54.2008 12.2225 54.1797 12.2502C54.1207 12.3267 54.0617 12.4037 54.0057 12.4832C53.9931 12.5013 53.981 12.5193 53.9684 12.5374C53.9058 12.6271 53.8443 12.7168 53.7853 12.8096C53.7787 12.8198 53.7727 12.83 53.7667 12.8403C53.7028 12.9408 53.6408 13.0432 53.5812 13.1473C53.5788 13.1509 53.577 13.1552 53.5746 13.1588C53.2531 13.7235 52.9966 14.3371 52.8171 14.9928C52.7822 15.1216 52.7503 15.2499 52.722 15.3787C52.7202 15.386 52.719 15.3932 52.7172 15.4004C52.6913 15.5196 52.6684 15.6388 52.648 15.7581C52.6449 15.7749 52.6419 15.7924 52.6395 15.8092C52.6215 15.9188 52.6064 16.0284 52.5932 16.138C52.5902 16.1627 52.5871 16.1868 52.5841 16.2114C52.5727 16.3156 52.5637 16.4192 52.5558 16.5233C52.554 16.551 52.5516 16.5781 52.5498 16.6058C52.5432 16.7106 52.5396 16.8153 52.5372 16.9195C52.5366 16.9436 52.536 16.9677 52.5354 16.9918C52.5342 17.1056 52.5354 17.2188 52.539 17.332C52.5396 17.3446 52.5396 17.3572 52.5396 17.3699C52.663 20.7417 54.9516 23.7859 58.3673 24.7198C58.6148 24.7872 58.8623 24.842 59.1103 24.8847C59.1278 24.8878 59.1453 24.8908 59.1627 24.8938C59.3867 24.9311 59.6101 24.9582 59.8329 24.9757C59.875 24.9793 59.9178 24.9823 59.9599 24.9847C60.0225 24.9889 60.0845 24.9925 60.1472 24.9949C60.1935 24.9967 60.2393 24.9973 60.2856 24.9979C60.391 25.0003 60.4964 25.0009 60.6018 24.9985C60.6355 24.9979 60.6698 24.9973 60.7035 24.9961C61.2737 24.9781 61.8355 24.8986 62.3792 24.7619L62.3749 24.7511C63.599 24.444 64.2668 24.0069 64.7292 23.7082L62.3834 20.5388C60.6872 21.4853 58.4884 21.0656 57.283 19.4544C56.269 18.099 56.2546 16.3072 57.1108 14.9591C57.1138 14.9542 57.1168 14.9488 57.1204 14.9434C57.1487 14.8995 57.1782 14.8561 57.2083 14.8128C57.2161 14.8019 57.2233 14.7905 57.2312 14.779C57.2565 14.7435 57.2836 14.7086 57.31 14.6737C57.3233 14.6562 57.3365 14.6381 57.3504 14.6207C57.3721 14.593 57.3949 14.5659 57.4178 14.5388C57.4377 14.5147 57.4576 14.4912 57.478 14.4677C57.4961 14.4473 57.5154 14.4268 57.534 14.4063C57.5605 14.3774 57.587 14.3485 57.6141 14.3202C57.6286 14.3052 57.6442 14.2907 57.6593 14.2757C57.6918 14.2432 57.7249 14.2106 57.7586 14.1793C57.7707 14.1685 57.7827 14.1577 57.7947 14.1468C57.8327 14.1125 57.8712 14.0782 57.9109 14.0457C57.9212 14.0372 57.9314 14.0288 57.9417 14.021C57.9838 13.9867 58.0259 13.9529 58.0693 13.9198C58.0735 13.9168 58.0771 13.9132 58.0813 13.9102C58.0874 13.906 58.0934 13.9018 58.0994 13.8976C58.1428 13.8656 58.1861 13.8343 58.2307 13.8042C58.2403 13.7976 58.2505 13.791 58.2602 13.7844C58.3065 13.7536 58.3535 13.7235 58.4011 13.6946C58.4077 13.6904 58.4143 13.6868 58.4209 13.6826C59.3145 13.1473 60.4157 12.9625 61.4995 13.2587C62.0022 13.396 62.4785 13.6525 62.7224 13.8361C62.7687 13.8711 62.8073 13.9036 62.8356 13.9313L59.4006 16.5071L61.7325 19.7079C63.2799 18.547 63.7947 18.161 64.3559 17.7396C64.9983 17.2579 65.7016 16.7305 68.0799 14.947C68.0696 14.9103 68.0606 14.873 68.0498 14.8362C68.0432 14.8146 68.0371 14.7935 68.0305 14.7718C67.9968 14.6622 67.9619 14.5526 67.9233 14.4437C67.9215 14.4376 67.9191 14.4322 67.9173 14.4262C67.8812 14.325 67.842 14.2245 67.8017 14.1239C67.7848 14.0824 67.768 14.0415 67.7505 14.0011C67.7234 13.9379 67.6957 13.8747 67.6668 13.8115C67.6289 13.729 67.5904 13.6471 67.55 13.5658C67.5296 13.5248 67.5091 13.4833 67.488 13.4424C67.4537 13.3761 67.4182 13.3105 67.382 13.2455C67.3742 13.2316 67.3664 13.2178 67.3586 13.2039C66.4855 11.6637 65.1272 10.48 63.5804 9.80746Z" fill="#874ECF"/>
<path d="M89.0931 14.5271C88.2995 11.021 85.3179 9.16173 82.3381 9.14307C82.3273 9.14307 82.317 9.14367 82.3062 9.14367C82.2954 9.14367 82.2851 9.14307 82.2743 9.14307C79.2945 9.16173 76.3129 11.021 75.5193 14.5271C75.2417 15.638 75.3519 16.1419 75.3519 24.9826H79.3125C79.3125 16.8066 79.0705 15.3068 80.1296 14.1183C80.4234 13.7889 80.7708 13.5457 81.1453 13.3861C81.161 13.3789 81.1773 13.3716 81.1935 13.3656C81.5391 13.2247 81.907 13.1549 82.2749 13.1537C82.2857 13.1537 82.296 13.1543 82.3068 13.1543C82.3176 13.1543 82.3279 13.1537 82.3387 13.1537C82.7066 13.1549 83.0739 13.2247 83.4201 13.3656C83.4364 13.3716 83.452 13.3789 83.4683 13.3861C83.8428 13.5457 84.1902 13.7889 84.484 14.1183C85.5431 15.3068 85.3011 16.806 85.3011 24.9826H89.2617C89.2605 16.1419 89.3707 15.638 89.0931 14.5271Z" fill="#874ECF"/>
<defs>
<clipPath id="clip0_1596_1510">
<rect width="28" height="28" fill="white"/>
</clipPath>
</defs>
</svg>
