<svg width="251" height="200" viewBox="0 0 251 200" fill="none" xmlns="http://www.w3.org/2000/svg">
<path fill-rule="evenodd" clip-rule="evenodd" d="M63.5 134H154.5C155.015 134 155.517 133.944 156 133.839C156.483 133.944 156.985 134 157.5 134H209.5C213.366 134 216.5 130.866 216.5 127C216.5 123.134 213.366 120 209.5 120H203.5C199.634 120 196.5 116.866 196.5 113C196.5 109.134 199.634 106 203.5 106H222.5C226.366 106 229.5 102.866 229.5 99C229.5 95.134 226.366 92 222.5 92H200.5C204.366 92 207.5 88.866 207.5 85C207.5 81.134 204.366 78 200.5 78H136.5C140.366 78 143.5 74.866 143.5 71C143.5 67.134 140.366 64 136.5 64H79.5C75.634 64 72.5 67.134 72.5 71C72.5 74.866 75.634 78 79.5 78H39.5C35.634 78 32.5 81.134 32.5 85C32.5 88.866 35.634 92 39.5 92H64.5C68.366 92 71.5 95.134 71.5 99C71.5 102.866 68.366 106 64.5 106H24.5C20.634 106 17.5 109.134 17.5 113C17.5 116.866 20.634 120 24.5 120H63.5C59.634 120 56.5 123.134 56.5 127C56.5 130.866 59.634 134 63.5 134ZM226.5 134C230.366 134 233.5 130.866 233.5 127C233.5 123.134 230.366 120 226.5 120C222.634 120 219.5 123.134 219.5 127C219.5 130.866 222.634 134 226.5 134Z" fill="#FAFAFA"/>
<path fill-rule="evenodd" clip-rule="evenodd" d="M169.077 126.075C166.643 128.034 163.988 129.81 161.144 131.374L161.309 145.457C161.322 146.562 160.437 147.467 159.332 147.48C158.883 147.486 158.445 147.339 158.089 147.066L145.426 137.323C140.68 138.416 135.673 139 130.5 139C100.124 139 75.5 118.853 75.5 94C75.5 69.1472 100.124 49 130.5 49C160.876 49 185.5 69.1472 185.5 94C185.5 100.879 183.614 107.397 180.241 113.227C179.619 114.303 178.946 115.355 178.226 116.381M175.693 119.654C174.779 120.73 173.809 121.771 172.787 122.776L175.693 119.654Z" fill="white"/>
<path fill-rule="evenodd" clip-rule="evenodd" d="M130.5 50.25C100.568 50.25 76.75 70.0604 76.75 94C76.75 117.94 100.568 137.75 130.5 137.75C135.579 137.75 140.492 137.176 145.146 136.105L145.721 135.973L158.851 146.075C158.985 146.178 159.149 146.232 159.318 146.23C159.732 146.226 160.064 145.886 160.059 145.472L159.885 130.639L160.542 130.278C163.323 128.749 165.918 127.013 168.293 125.101C168.83 124.668 169.617 124.753 170.05 125.291C170.483 125.829 170.398 126.615 169.861 127.048C167.557 128.903 165.062 130.595 162.403 132.103L162.559 145.442C162.58 147.237 161.142 148.709 159.347 148.73C158.617 148.739 157.905 148.501 157.327 148.056L145.129 138.671C140.463 139.701 135.558 140.25 130.5 140.25C99.6802 140.25 74.25 119.766 74.25 94C74.25 68.234 99.6802 47.75 130.5 47.75C161.32 47.75 186.75 68.234 186.75 94C186.75 101.113 184.798 107.846 181.323 113.853C180.682 114.961 179.99 116.043 179.249 117.099C178.852 117.664 178.073 117.801 177.508 117.404C176.943 117.007 176.806 116.228 177.203 115.663C177.903 114.666 178.556 113.645 179.159 112.601C182.429 106.948 184.25 100.645 184.25 94C184.25 70.0604 160.432 50.25 130.5 50.25ZM176.502 118.702C177.028 119.148 177.093 119.937 176.646 120.463C175.707 121.568 174.712 122.637 173.663 123.667C173.171 124.151 172.379 124.144 171.896 123.652C171.412 123.159 171.419 122.368 171.911 121.884C172.907 120.905 173.851 119.891 174.74 118.845C175.187 118.319 175.976 118.255 176.502 118.702Z" fill="#BDBDBD"/>
<path fill-rule="evenodd" clip-rule="evenodd" d="M116.5 94C116.5 97.3137 113.814 100 110.5 100C107.186 100 104.5 97.3137 104.5 94C104.5 90.6863 107.186 88 110.5 88C113.814 88 116.5 90.6863 116.5 94ZM135.5 94C135.5 97.3137 132.814 100 129.5 100C126.186 100 123.5 97.3137 123.5 94C123.5 90.6863 126.186 88 129.5 88C132.814 88 135.5 90.6863 135.5 94ZM148.5 100C151.814 100 154.5 97.3137 154.5 94C154.5 90.6863 151.814 88 148.5 88C145.186 88 142.5 90.6863 142.5 94C142.5 97.3137 145.186 100 148.5 100Z" fill="#E0E0E0"/>
<path fill-rule="evenodd" clip-rule="evenodd" d="M103.25 94C103.25 89.9959 106.496 86.75 110.5 86.75C114.504 86.75 117.75 89.9959 117.75 94C117.75 98.0041 114.504 101.25 110.5 101.25C106.496 101.25 103.25 98.0041 103.25 94ZM110.5 89.25C107.877 89.25 105.75 91.3766 105.75 94C105.75 96.6234 107.877 98.75 110.5 98.75C113.123 98.75 115.25 96.6234 115.25 94C115.25 91.3766 113.123 89.25 110.5 89.25ZM122.25 94C122.25 89.9959 125.496 86.75 129.5 86.75C133.504 86.75 136.75 89.9959 136.75 94C136.75 98.0041 133.504 101.25 129.5 101.25C125.496 101.25 122.25 98.0041 122.25 94ZM129.5 89.25C126.877 89.25 124.75 91.3766 124.75 94C124.75 96.6234 126.877 98.75 129.5 98.75C132.123 98.75 134.25 96.6234 134.25 94C134.25 91.3766 132.123 89.25 129.5 89.25ZM148.5 89.25C145.877 89.25 143.75 91.3766 143.75 94C143.75 96.6234 145.877 98.75 148.5 98.75C151.123 98.75 153.25 96.6234 153.25 94C153.25 91.3766 151.123 89.25 148.5 89.25ZM141.25 94C141.25 89.9959 144.496 86.75 148.5 86.75C152.504 86.75 155.75 89.9959 155.75 94C155.75 98.0041 152.504 101.25 148.5 101.25C144.496 101.25 141.25 98.0041 141.25 94Z" fill="#BDBDBD"/>
<path fill-rule="evenodd" clip-rule="evenodd" d="M87.0351 79.4554C87.3104 78.8978 87.9255 78.0615 88.9869 78.0615C90.0484 78.0615 90.6635 78.8978 90.9388 79.4554C91.2533 80.0925 91.4121 80.8849 91.4121 81.692C91.4121 82.4992 91.2533 83.2916 90.9388 83.9286C90.6635 84.4863 90.0484 85.3225 88.9869 85.3225C87.9255 85.3225 87.3104 84.4863 87.0351 83.9286C86.7206 83.2916 86.5618 82.4992 86.5618 81.692C86.5618 80.8849 86.7206 80.0925 87.0351 79.4554Z" fill="#E0E0E0"/>
<path fill-rule="evenodd" clip-rule="evenodd" d="M100.481 64.3232C96.4533 64.3232 93.6893 66.8869 93.6893 69.4968C93.6893 72.1066 96.4533 74.6703 100.481 74.6703C104.508 74.6703 107.272 72.1066 107.272 69.4968C107.272 66.8869 104.508 64.3232 100.481 64.3232ZM91.1893 69.4968C91.1893 65.0114 95.6257 61.8232 100.481 61.8232C105.336 61.8232 109.772 65.0114 109.772 69.4968C109.772 73.9821 105.336 77.1703 100.481 77.1703C95.6257 77.1703 91.1893 73.9821 91.1893 69.4968Z" fill="#E0E0E0"/>
</svg>
