<svg width="200" height="200" viewBox="0 0 200 200" fill="none" xmlns="http://www.w3.org/2000/svg">
<path d="M16.6672 83.3333C16.6672 37.3096 53.9768 0 100.001 0V0C146.024 0 183.334 37.3096 183.334 83.3333V199.494H16.6672V83.3333Z" fill="#ECE7F8"/>
<g opacity="0.5" filter="url(#filter0_i)">
<path fill-rule="evenodd" clip-rule="evenodd" d="M61.2263 102.726C60.9076 93.589 37.0999 95.6486 27.9161 96.5301C18.7322 97.4116 17.8984 84.8941 25.8222 83.0335C33.746 81.1729 48.1151 82.1331 55.5602 80.4155C63.0052 78.698 53.5875 69.4867 63.7317 68.3765C73.8759 67.2662 94.8516 68.2942 101.105 68.0686C110.927 67.7143 115.966 79.5389 98.7584 80.0755C94.0129 80.2234 93.061 90.7281 109.079 87.8426C119.131 86.0318 138.853 85.99 142.956 90.6131C145.31 93.2657 144.494 100.392 140.447 104.327C137.441 107.25 127.88 107.82 124.135 108.496C115.349 110.082 117.086 118.589 120.082 120.341C127.171 124.486 146.629 116.663 147.151 128.046C147.381 133.075 129.677 133.887 122.418 133.826C104.613 133.675 92.9154 135.262 92.0944 129.188C91.2704 123.091 103.158 127.206 102.572 119.711C102.266 115.794 103.087 107.471 95.4598 107.908C105.902 107.31 61.6567 115.067 61.2263 102.726Z" fill="url(#paint0_linear)"/>
</g>
<g opacity="0.5" filter="url(#filter1_i)">
<path fill-rule="evenodd" clip-rule="evenodd" d="M90.9794 35.4057C91.003 26.2628 67.135 27.4296 57.9245 27.9666C48.714 28.5036 48.3495 15.9637 56.3374 14.4011C64.3254 12.8384 78.6485 14.3359 86.1525 12.8984C93.6566 11.4608 84.5905 1.90336 94.7692 1.17373C104.948 0.444093 125.87 2.25667 132.128 2.26541C141.956 2.27914 146.549 14.2841 129.333 14.176C124.586 14.1462 123.241 24.6078 139.356 22.3241C149.468 20.891 169.178 21.5876 173.105 26.3611C175.358 29.1 174.276 36.1907 170.085 39.9715C166.971 42.7803 157.396 42.9918 153.628 43.5269C144.788 44.7821 146.206 53.3488 149.134 55.2115C156.063 59.6192 175.801 52.5301 175.896 63.9243C175.938 68.9593 158.215 69.1079 150.963 68.7747C133.177 67.9575 121.428 69.1047 120.835 63.0048C120.24 56.8811 131.965 61.4387 131.66 53.9264C131.501 50.0008 132.633 41.7143 124.995 41.8652C135.452 41.6586 90.9474 47.7541 90.9794 35.4057Z" fill="url(#paint1_linear)"/>
</g>
<mask id="mask0" mask-type="alpha" maskUnits="userSpaceOnUse" x="16" y="0" width="168" height="200">
<path d="M16.6687 83.3333C16.6687 37.3096 53.9783 0 100.002 0V0C146.026 0 183.335 37.3096 183.335 83.3333V200H16.6687V83.3333Z" fill="#ECE7F8"/>
</mask>
<g mask="url(#mask0)">
<path fill-rule="evenodd" clip-rule="evenodd" d="M181.418 98.899C196.429 115.608 200.189 139.327 196.938 166.496C192.352 204.83 196.437 251.832 159.824 279.389C123.104 307.026 87.2813 284.88 56.929 271.874C34.7535 262.372 25.9869 241.087 17.3815 218.355C5.52692 187.038 -26.181 157.856 -0.597953 119.906C25.1368 81.7312 61.7559 138.888 100.742 134.388C129.581 131.06 165.511 81.1911 181.418 98.899Z" fill="url(#paint2_linear)"/>
</g>
<path d="M75.2908 41.8134L75.584 41.1751L75.9636 41.7617C76.2737 42.2303 76.7104 42.6012 77.223 42.8313L77.87 43.116L77.2834 43.5042C76.8107 43.8119 76.4364 44.2491 76.2051 44.7636L75.9205 45.4019L75.5323 44.8153C75.2237 44.3454 74.7865 43.9742 74.2728 43.7457L73.6345 43.461L74.2211 43.0728C74.6936 42.7672 75.0657 42.3292 75.2908 41.8134V41.8134Z" fill="#F9F7FD"/>
<path d="M56.046 37.018L56.2099 36.647L56.4341 36.9835C56.6118 37.2584 56.867 37.4745 57.1674 37.6045L57.5383 37.7771L57.1933 38.0013C56.9222 38.1797 56.7069 38.4308 56.5722 38.7259L56.4083 39.1055L56.184 38.7604C56.0063 38.4855 55.7512 38.2694 55.4508 38.1394L55.0798 37.9668L55.4163 37.7512C55.6896 37.5693 55.9075 37.3156 56.046 37.018Z" fill="#F9F7FD"/>
<path d="M116.661 69.8228L116.825 69.4519L117.05 69.797C117.234 70.0656 117.487 70.2801 117.783 70.418L118.154 70.5819L117.817 70.8062C117.542 70.9839 117.326 71.239 117.196 71.5394L117.024 71.9104L116.799 71.5739C116.622 71.2997 116.371 71.0814 116.075 70.9442L115.695 70.7803L116.04 70.5561C116.315 70.3784 116.531 70.1233 116.661 69.8228Z" fill="#F9F7FD"/>
<path d="M146.337 53.0019L146.621 52.3636L147.01 52.9502C147.318 53.4204 147.755 53.7918 148.269 54.0198L148.907 54.3045L148.321 54.6927C147.85 55.0006 147.479 55.4379 147.251 55.9521L146.958 56.5904L146.578 56.0038C146.266 55.5374 145.83 55.1671 145.319 54.9342L144.672 54.6495L145.258 54.2614C145.731 53.9536 146.105 53.5165 146.337 53.0019V53.0019Z" fill="#F9F7FD"/>
<path d="M142.48 29.4352L142.963 28.3569L143.61 29.3489C144.13 30.1377 144.863 30.7628 145.724 31.1518L146.802 31.6263L145.81 32.2732C145.022 32.7982 144.398 33.5333 144.007 34.3952L143.524 35.4735L142.877 34.4815C142.357 33.6928 141.624 33.0677 140.764 32.6786L139.685 32.1956L140.677 31.5486C141.466 31.0288 142.091 30.296 142.48 29.4352V29.4352Z" fill="#F9F7FD"/>
<path d="M69.3133 22.172L69.7964 21.0938L70.4434 22.0771C70.9606 22.8681 71.6942 23.4938 72.5568 23.88L73.6351 24.3631L72.6517 25.01C71.8584 25.5247 71.232 26.259 70.8488 27.1234L70.3657 28.2017L69.7188 27.2183C69.2003 26.4251 68.4633 25.799 67.5967 25.4155L66.5271 24.9324L67.5105 24.2854C68.3014 23.7682 68.9272 23.0346 69.3133 22.172V22.172Z" fill="#F9F7FD"/>
<path d="M96.1706 175.282H29.6999C29.1786 175.282 28.6787 175.075 28.3101 174.707C27.9415 174.338 27.7344 173.838 27.7344 173.317V42.964C27.7389 42.4457 27.948 41.9501 28.3161 41.5852C28.6842 41.2203 29.1816 41.0156 29.6999 41.0156H96.1706C96.4287 41.0156 96.6843 41.0665 96.9228 41.1652C97.1613 41.264 97.378 41.4088 97.5605 41.5913C97.743 41.7738 97.8878 41.9905 97.9865 42.229C98.0853 42.4675 98.1362 42.7231 98.1362 42.9812V173.317C98.1362 173.575 98.0853 173.83 97.9865 174.069C97.8878 174.307 97.743 174.524 97.5605 174.707C97.378 174.889 97.1613 175.034 96.9228 175.133C96.6843 175.231 96.4287 175.282 96.1706 175.282V175.282ZM29.6999 41.0845C29.2017 41.0854 28.7242 41.2837 28.3719 41.636C28.0197 41.9882 27.8213 42.4658 27.8204 42.964V173.317C27.8213 173.815 28.0197 174.292 28.3719 174.645C28.7242 174.997 29.2017 175.195 29.6999 175.196H96.1706C96.6688 175.195 97.1463 174.997 97.4986 174.645C97.8509 174.292 98.0492 173.815 98.0501 173.317V42.964C98.0492 42.4658 97.8509 41.9882 97.4986 41.636C97.1463 41.2837 96.6688 41.0854 96.1706 41.0845H29.6999Z" fill="#EBEBEB"/>
<path d="M170.627 175.282H104.157C103.635 175.282 103.135 175.075 102.767 174.707C102.398 174.338 102.191 173.838 102.191 173.317V42.964C102.196 42.4457 102.405 41.9501 102.773 41.5852C103.141 41.2203 103.638 41.0156 104.157 41.0156H170.627C171.149 41.0156 171.649 41.2227 172.017 41.5913C172.386 41.9599 172.593 42.4599 172.593 42.9812V173.317C172.593 173.575 172.542 173.83 172.443 174.069C172.345 174.307 172.2 174.524 172.017 174.707C171.835 174.889 171.618 175.034 171.38 175.133C171.141 175.231 170.886 175.282 170.627 175.282V175.282ZM104.157 41.0845C103.659 41.0854 103.181 41.2837 102.829 41.636C102.476 41.9882 102.278 42.4658 102.277 42.964V173.317C102.278 173.815 102.476 174.292 102.829 174.645C103.181 174.997 103.659 175.195 104.157 175.196H170.627C171.126 175.195 171.603 174.997 171.955 174.645C172.308 174.292 172.506 173.815 172.507 173.317V42.964C172.506 42.4658 172.308 41.9882 171.955 41.636C171.603 41.2837 171.126 41.0854 170.627 41.0845H104.157Z" fill="#EBEBEB"/>
<path d="M53.0215 79.9996L53.5792 81.1252L54.8253 81.3077L53.9234 82.1855L54.1368 83.4247L53.0215 82.8395L51.9096 83.4247L52.1231 82.1855L51.2212 81.3077L52.4673 81.1252L53.0215 79.9996Z" fill="#EBEBEB"/>
<path d="M164.431 133.09L164.989 134.219L166.235 134.402L165.333 135.276L165.546 136.519L164.431 135.933L163.319 136.519L163.533 135.276L162.631 134.402L163.877 134.219L164.431 133.09Z" fill="#F5F5F5"/>
<path d="M142.366 165.823L142.924 166.949L144.167 167.131L143.265 168.009L143.478 169.248L142.366 168.663L141.254 169.248L141.464 168.009L140.566 167.131L141.809 166.949L142.366 165.823Z" fill="#F5F5F5"/>
<path d="M91.8815 59.9999L92.088 60.4198L92.5527 60.4887C92.5787 60.4921 92.6031 60.5028 92.6231 60.5195C92.6432 60.5363 92.6581 60.5584 92.666 60.5834C92.674 60.6083 92.6747 60.6349 92.668 60.6602C92.6614 60.6855 92.6476 60.7084 92.6284 60.7262L92.2842 61.0532L92.3634 61.5145C92.3675 61.5401 92.3644 61.5664 92.3544 61.5905C92.3445 61.6145 92.3281 61.6353 92.3071 61.6506C92.2861 61.6659 92.2613 61.6751 92.2354 61.6772C92.2095 61.6793 92.1835 61.6742 92.1603 61.6625L91.7472 61.4422L91.3341 61.6625C91.311 61.6742 91.285 61.6793 91.2591 61.6772C91.2332 61.6751 91.2083 61.6659 91.1873 61.6506C91.1663 61.6353 91.1499 61.6145 91.14 61.5905C91.1301 61.5664 91.127 61.5401 91.131 61.5145L91.2068 61.0532L90.8626 60.7262C90.8433 60.7082 90.8296 60.685 90.8231 60.6595C90.8166 60.6339 90.8176 60.607 90.8259 60.582C90.8343 60.557 90.8496 60.5349 90.8701 60.5183C90.8907 60.5018 90.9155 60.4915 90.9417 60.4887L91.403 60.4198L91.6095 59.9999C91.6178 59.9701 91.6356 59.944 91.6601 59.9253C91.6847 59.9066 91.7147 59.8965 91.7455 59.8965C91.7763 59.8965 91.8063 59.9066 91.8309 59.9253C91.8554 59.944 91.8732 59.9701 91.8815 59.9999V59.9999Z" fill="#EBEBEB"/>
<path d="M35.0286 160.463L35.2352 160.88L35.6964 160.949C35.7226 160.952 35.7473 160.963 35.7676 160.98C35.7879 160.997 35.803 161.019 35.8112 161.044C35.8195 161.069 35.8205 161.096 35.8142 161.122C35.8079 161.148 35.7945 161.171 35.7756 161.19L35.4314 161.513L35.5105 161.974C35.5146 162 35.5115 162.026 35.5016 162.05C35.4916 162.074 35.4753 162.095 35.4543 162.111C35.4333 162.126 35.4084 162.135 35.3825 162.137C35.3566 162.139 35.3306 162.134 35.3074 162.122L34.8944 161.906L34.4813 162.122C34.4581 162.134 34.4321 162.139 34.4062 162.137C34.3803 162.135 34.3555 162.126 34.3345 162.111C34.3135 162.095 34.2971 162.074 34.2872 162.05C34.2772 162.026 34.2741 162 34.2782 161.974L34.3574 161.513L34.0131 161.19C33.9943 161.171 33.9808 161.148 33.9743 161.123C33.9679 161.097 33.9686 161.071 33.9765 161.046C33.9843 161.021 33.999 160.998 34.0189 160.981C34.0387 160.964 34.063 160.953 34.0889 160.949L34.5501 160.88L34.7601 160.463C34.7693 160.435 34.7873 160.41 34.8114 160.393C34.8355 160.375 34.8645 160.366 34.8944 160.366C34.9242 160.366 34.9532 160.375 34.9774 160.393C35.0015 160.41 35.0194 160.435 35.0286 160.463V160.463Z" fill="#F5F5F5"/>
<path d="M44.3124 55.5765L44.5189 55.9965L44.9836 56.0619C45.0095 56.066 45.0338 56.0773 45.0536 56.0944C45.0735 56.1116 45.0881 56.1339 45.096 56.1589C45.1039 56.184 45.1046 56.2107 45.0981 56.2361C45.0917 56.2615 45.0782 56.2846 45.0593 56.3028L44.7151 56.6471L44.7943 57.1049C44.7998 57.1309 44.7976 57.1579 44.7881 57.1827C44.7786 57.2075 44.7621 57.229 44.7407 57.2447C44.7192 57.2603 44.6937 57.2694 44.6671 57.2709C44.6406 57.2723 44.6142 57.2661 44.5912 57.2529L44.1781 57.036L43.765 57.2529C43.742 57.2661 43.7156 57.2723 43.6891 57.2709C43.6625 57.2694 43.637 57.2603 43.6155 57.2447C43.5941 57.229 43.5776 57.2075 43.5681 57.1827C43.5586 57.1579 43.5564 57.1309 43.5619 57.1049L43.6377 56.6471L43.2934 56.3028C43.2745 56.2844 43.2611 56.261 43.2548 56.2353C43.2485 56.2097 43.2495 56.1827 43.2578 56.1576C43.266 56.1325 43.2812 56.1102 43.3015 56.0933C43.3218 56.0764 43.3464 56.0655 43.3726 56.0619L43.8339 55.9965L44.0542 55.5765C44.0652 55.5515 44.0833 55.5302 44.1062 55.5153C44.1292 55.5004 44.1559 55.4924 44.1833 55.4924C44.2106 55.4924 44.2374 55.5004 44.2603 55.5153C44.2832 55.5302 44.3013 55.5515 44.3124 55.5765Z" fill="#EBEBEB"/>
<path d="M43.7547 138.543C43.7554 138.633 43.7292 138.722 43.6793 138.798C43.6294 138.874 43.5581 138.933 43.4745 138.968C43.3909 139.003 43.2988 139.013 43.2097 138.996C43.1207 138.978 43.0388 138.935 42.9744 138.871C42.9101 138.807 42.8661 138.726 42.8482 138.637C42.8302 138.548 42.8391 138.456 42.8736 138.372C42.9082 138.288 42.9669 138.216 43.0422 138.166C43.1176 138.115 43.2062 138.088 43.2969 138.088C43.4178 138.088 43.5337 138.136 43.6194 138.221C43.7052 138.306 43.7538 138.422 43.7547 138.543V138.543Z" fill="#EBEBEB"/>
<path d="M109 81.2526C109.001 81.3433 108.975 81.4321 108.925 81.5079C108.875 81.5836 108.803 81.6428 108.72 81.678C108.636 81.7132 108.544 81.7227 108.455 81.7055C108.366 81.6882 108.284 81.6449 108.22 81.581C108.155 81.5171 108.111 81.4355 108.094 81.3466C108.076 81.2577 108.084 81.1655 108.119 81.0816C108.154 80.9978 108.212 80.9261 108.288 80.8756C108.363 80.8251 108.452 80.7982 108.542 80.7982C108.602 80.7977 108.662 80.8092 108.717 80.8318C108.773 80.8544 108.823 80.8878 108.866 80.9301C108.908 80.9723 108.942 81.0225 108.965 81.0779C108.988 81.1332 109 81.1926 109 81.2526V81.2526Z" fill="#EBEBEB"/>
<path d="M85.2618 55.9552C85.2618 56.0457 85.235 56.1343 85.1847 56.2096C85.1344 56.2848 85.0629 56.3435 84.9792 56.3782C84.8956 56.4128 84.8035 56.4219 84.7147 56.4042C84.6259 56.3866 84.5443 56.343 84.4803 56.2789C84.4163 56.2149 84.3727 56.1333 84.355 56.0445C84.3373 55.9557 84.3464 55.8637 84.381 55.78C84.4157 55.6963 84.4744 55.6248 84.5497 55.5745C84.6249 55.5242 84.7135 55.4974 84.804 55.4974C84.9252 55.4983 85.0411 55.5468 85.1267 55.6325C85.2124 55.7181 85.2609 55.8341 85.2618 55.9552V55.9552Z" fill="#F5F5F5"/>
<path d="M85.9869 167.535C87.3468 167.214 88.1891 165.851 87.8681 164.491C87.5471 163.131 86.1844 162.289 84.8245 162.61C83.4645 162.931 82.6223 164.294 82.9432 165.654C83.2642 167.014 84.6269 167.856 85.9869 167.535Z" fill="#F0F0F0"/>
<path d="M84.5356 163.592C84.0173 163.591 83.5122 163.755 83.0933 164.06C82.8794 164.551 82.8269 165.097 82.9433 165.62C83.0598 166.142 83.3392 166.614 83.7413 166.968C84.1434 167.321 84.6474 167.538 85.1805 167.586C85.7137 167.635 86.2484 167.513 86.7077 167.238C86.7077 167.238 86.7077 167.238 86.7077 167.238C86.911 166.862 87.0132 166.439 87.0042 166.012C86.9952 165.584 86.8753 165.167 86.6563 164.8C86.4374 164.432 86.1268 164.128 85.7551 163.917C85.3833 163.706 84.9631 163.596 84.5356 163.596V163.592Z" fill="#E6E6E6"/>
<path d="M64.9422 121.097H43.9958V111.641L64.9422 86.7396H74.9662V112.178H80.1606V121.097H74.9662V128.835H64.9422V121.097ZM64.9422 112.178V99.1525L53.8718 112.178H64.9422Z" fill="url(#paint3_linear)"/>
<path d="M83.744 107.972C83.744 100.103 85.1599 94.5949 87.9917 91.4486C90.8236 88.3024 95.1391 86.7304 100.938 86.7327C103.722 86.7327 106.009 87.0769 107.799 87.7654C109.425 88.3513 110.914 89.2639 112.174 90.4469C113.236 91.461 114.136 92.6325 114.842 93.9202C115.54 95.2647 116.066 96.6919 116.408 98.168C117.186 101.321 117.575 104.558 117.564 107.806C117.564 115.315 116.294 120.81 113.754 124.292C111.213 127.773 106.838 129.515 100.628 129.517C97.1448 129.517 94.3302 128.962 92.1845 127.851C90.0215 126.722 88.1996 125.036 86.9074 122.966C85.9092 121.442 85.1323 119.358 84.577 116.712C84.0004 113.835 83.7213 110.906 83.744 107.972V107.972ZM95.1517 107.999C95.1517 113.277 95.6164 116.877 96.5458 118.798C97.4753 120.718 98.8258 121.683 100.597 121.693C101.16 121.699 101.718 121.594 102.239 121.383C102.76 121.172 103.234 120.859 103.634 120.464C104.492 119.644 105.123 118.35 105.527 116.581C105.931 114.811 106.133 112.058 106.133 108.319C106.133 102.825 105.667 99.1318 104.735 97.2386C103.803 95.3453 102.406 94.3998 100.542 94.4021C98.6422 94.4021 97.2653 95.3671 96.4116 97.2971C95.5579 99.2271 95.1379 102.794 95.1517 107.999Z" fill="url(#paint4_linear)"/>
<path d="M142.07 121.097H121.124V111.641L142.07 86.7396H152.094V112.178H157.306V121.097H152.094V128.835H142.07V121.097ZM142.07 112.178V99.1525L131.003 112.178H142.07Z" fill="url(#paint5_linear)"/>
<g opacity="0.3">
<g opacity="0.3">
<path d="M83.2967 72.2097C83.2967 72.3372 83.2589 72.4617 83.188 72.5677C83.1171 72.6736 83.0163 72.7561 82.8985 72.8047C82.7807 72.8533 82.6511 72.8659 82.5261 72.8408C82.4012 72.8157 82.2865 72.754 82.1966 72.6636C82.1067 72.5733 82.0457 72.4583 82.0212 72.3332C81.9968 72.2081 82.01 72.0785 82.0593 71.961C82.1085 71.8434 82.1916 71.7431 82.2979 71.6728C82.4042 71.6025 82.529 71.5653 82.6564 71.566C82.7408 71.566 82.8243 71.5827 82.9022 71.6151C82.9802 71.6474 83.0509 71.6949 83.1104 71.7547C83.1699 71.8146 83.217 71.8855 83.249 71.9636C83.2809 72.0417 83.2972 72.1253 83.2967 72.2097V72.2097Z" fill="url(#paint6_linear)"/>
<path d="M83.2967 72.2097C83.2967 72.3372 83.2589 72.4617 83.188 72.5677C83.1171 72.6736 83.0163 72.7561 82.8985 72.8047C82.7807 72.8533 82.6511 72.8659 82.5261 72.8408C82.4012 72.8157 82.2865 72.754 82.1966 72.6636C82.1067 72.5733 82.0457 72.4583 82.0212 72.3332C81.9968 72.2081 82.01 72.0785 82.0593 71.961C82.1085 71.8434 82.1916 71.7431 82.2979 71.6728C82.4042 71.6025 82.529 71.5653 82.6564 71.566C82.7408 71.566 82.8243 71.5827 82.9022 71.6151C82.9802 71.6474 83.0509 71.6949 83.1104 71.7547C83.1699 71.8146 83.217 71.8855 83.249 71.9636C83.2809 72.0417 83.2972 72.1253 83.2967 72.2097V72.2097Z" fill="url(#paint7_linear)"/>
</g>
<g opacity="0.3">
<path d="M39.2249 96.9357C39.4758 96.9357 39.6793 96.7323 39.6793 96.4813C39.6793 96.2304 39.4758 96.0269 39.2249 96.0269C38.9739 96.0269 38.7705 96.2304 38.7705 96.4813C38.7705 96.7323 38.9739 96.9357 39.2249 96.9357Z" fill="url(#paint8_linear)"/>
<path d="M39.2249 96.9357C39.4758 96.9357 39.6793 96.7323 39.6793 96.4813C39.6793 96.2304 39.4758 96.0269 39.2249 96.0269C38.9739 96.0269 38.7705 96.2304 38.7705 96.4813C38.7705 96.7323 38.9739 96.9357 39.2249 96.9357Z" fill="url(#paint9_linear)"/>
</g>
<g opacity="0.3">
<path d="M114.294 163.293C114.654 163.293 114.945 163.002 114.945 162.642C114.945 162.283 114.654 161.992 114.294 161.992C113.935 161.992 113.644 162.283 113.644 162.642C113.644 163.002 113.935 163.293 114.294 163.293Z" fill="url(#paint10_linear)"/>
<path d="M114.294 163.293C114.654 163.293 114.945 163.002 114.945 162.642C114.945 162.283 114.654 161.992 114.294 161.992C113.935 161.992 113.644 162.283 113.644 162.642C113.644 163.002 113.935 163.293 114.294 163.293Z" fill="url(#paint11_linear)"/>
</g>
<g opacity="0.3">
<path d="M129.94 136.822C130.191 136.822 130.394 136.618 130.394 136.367C130.394 136.116 130.191 135.913 129.94 135.913C129.689 135.913 129.485 136.116 129.485 136.367C129.485 136.618 129.689 136.822 129.94 136.822Z" fill="url(#paint12_linear)"/>
<path d="M129.94 136.822C130.191 136.822 130.394 136.618 130.394 136.367C130.394 136.116 130.191 135.913 129.94 135.913C129.689 135.913 129.485 136.116 129.485 136.367C129.485 136.618 129.689 136.822 129.94 136.822Z" fill="url(#paint13_linear)"/>
</g>
<g opacity="0.3">
<path d="M160.118 54.9982C160.118 55.0881 160.092 55.176 160.042 55.2507C159.992 55.3254 159.921 55.3836 159.838 55.418C159.755 55.4524 159.663 55.4614 159.575 55.4439C159.487 55.4264 159.406 55.3831 159.343 55.3195C159.279 55.256 159.236 55.175 159.218 55.0869C159.201 54.9987 159.21 54.9074 159.244 54.8244C159.278 54.7413 159.337 54.6704 159.411 54.6204C159.486 54.5705 159.574 54.5439 159.664 54.5439C159.784 54.5439 159.9 54.5917 159.985 54.6769C160.07 54.7622 160.118 54.8777 160.118 54.9982V54.9982Z" fill="url(#paint14_linear)"/>
<path d="M160.118 54.9982C160.118 55.0881 160.092 55.176 160.042 55.2507C159.992 55.3254 159.921 55.3836 159.838 55.418C159.755 55.4524 159.663 55.4614 159.575 55.4439C159.487 55.4264 159.406 55.3831 159.343 55.3195C159.279 55.256 159.236 55.175 159.218 55.0869C159.201 54.9987 159.21 54.9074 159.244 54.8244C159.278 54.7413 159.337 54.6704 159.411 54.6204C159.486 54.5705 159.574 54.5439 159.664 54.5439C159.784 54.5439 159.9 54.5917 159.985 54.6769C160.07 54.7622 160.118 54.8777 160.118 54.9982V54.9982Z" fill="url(#paint15_linear)"/>
</g>
<g opacity="0.3">
<path d="M73.5721 45.8349C73.5721 45.9247 73.5455 46.0126 73.4955 46.0873C73.4456 46.162 73.3746 46.2203 73.2916 46.2547C73.2086 46.2891 73.1172 46.2981 73.0291 46.2805C72.9409 46.263 72.86 46.2197 72.7964 46.1562C72.7329 46.0926 72.6896 46.0117 72.6721 45.9235C72.6545 45.8354 72.6635 45.744 72.6979 45.661C72.7323 45.578 72.7905 45.507 72.8653 45.4571C72.94 45.4071 73.0278 45.3805 73.1177 45.3805C73.2379 45.3814 73.353 45.4296 73.438 45.5146C73.523 45.5996 73.5712 45.7146 73.5721 45.8349V45.8349Z" fill="url(#paint16_linear)"/>
<path d="M73.5721 45.8349C73.5721 45.9247 73.5455 46.0126 73.4955 46.0873C73.4456 46.162 73.3746 46.2203 73.2916 46.2547C73.2086 46.2891 73.1172 46.2981 73.0291 46.2805C72.9409 46.263 72.86 46.2197 72.7964 46.1562C72.7329 46.0926 72.6896 46.0117 72.6721 45.9235C72.6545 45.8354 72.6635 45.744 72.6979 45.661C72.7323 45.578 72.7905 45.507 72.8653 45.4571C72.94 45.4071 73.0278 45.3805 73.1177 45.3805C73.2379 45.3814 73.353 45.4296 73.438 45.5146C73.523 45.5996 73.5712 45.7146 73.5721 45.8349V45.8349Z" fill="url(#paint17_linear)"/>
</g>
<g opacity="0.3">
<path d="M109.699 69.6762C109.95 69.6762 110.153 69.4728 110.153 69.2218C110.153 68.9709 109.95 68.7674 109.699 68.7674C109.448 68.7674 109.245 68.9709 109.245 69.2218C109.245 69.4728 109.448 69.6762 109.699 69.6762Z" fill="url(#paint18_linear)"/>
<path d="M109.699 69.6762C109.95 69.6762 110.153 69.4728 110.153 69.2218C110.153 68.9709 109.95 68.7674 109.699 68.7674C109.448 68.7674 109.245 68.9709 109.245 69.2218C109.245 69.4728 109.448 69.6762 109.699 69.6762Z" fill="url(#paint19_linear)"/>
</g>
</g>
<path d="M62.722 69.6797C66.8874 69.6797 70.2641 66.303 70.2641 62.1376C70.2641 57.9722 66.8874 54.5955 62.722 54.5955C58.5566 54.5955 55.1799 57.9722 55.1799 62.1376C55.1799 66.303 58.5566 69.6797 62.722 69.6797Z" fill="url(#paint20_linear)"/>
<path d="M62.722 69.6797C66.8874 69.6797 70.2641 66.303 70.2641 62.1376C70.2641 57.9722 66.8874 54.5955 62.722 54.5955C58.5566 54.5955 55.1799 57.9722 55.1799 62.1376C55.1799 66.303 58.5566 69.6797 62.722 69.6797Z" fill="url(#paint21_linear)"/>
<path opacity="0.7" d="M62.722 69.6797C66.8874 69.6797 70.2641 66.303 70.2641 62.1376C70.2641 57.9722 66.8874 54.5955 62.722 54.5955C58.5566 54.5955 55.1799 57.9722 55.1799 62.1376C55.1799 66.303 58.5566 69.6797 62.722 69.6797Z" fill="white"/>
<g opacity="0.2">
<path d="M60.123 56.4474C59.0958 56.4443 58.079 56.6516 57.1351 57.0567C55.975 58.3317 55.2865 59.9654 55.184 61.6862C55.0815 63.4069 55.5713 65.1108 56.5719 66.5144C57.5724 67.9181 59.0234 68.9369 60.6834 69.4012C62.3434 69.8656 64.1124 69.7476 65.6961 69.0669V69.0669C66.6779 67.9848 67.3245 66.641 67.5573 65.1985C67.7901 63.7561 67.599 62.2771 67.0074 60.9411C66.4158 59.6051 65.449 58.4697 64.2245 57.6726C62.9999 56.8755 61.5703 56.4511 60.1092 56.4509L60.123 56.4474Z" fill="url(#paint22_linear)"/>
<path d="M60.123 56.4474C59.0958 56.4443 58.079 56.6516 57.1351 57.0567C55.975 58.3317 55.2865 59.9654 55.184 61.6862C55.0815 63.4069 55.5713 65.1108 56.5719 66.5144C57.5724 67.9181 59.0234 68.9369 60.6834 69.4012C62.3434 69.8656 64.1124 69.7476 65.6961 69.0669V69.0669C66.6779 67.9848 67.3245 66.641 67.5573 65.1985C67.7901 63.7561 67.599 62.2771 67.0074 60.9411C66.4158 59.6051 65.449 58.4697 64.2245 57.6726C62.9999 56.8755 61.5703 56.4511 60.1092 56.4509L60.123 56.4474Z" fill="url(#paint23_linear)"/>
</g>
<g opacity="0.2">
<path d="M59.3725 58.4406C59.3725 58.5767 59.3321 58.7099 59.2565 58.8231C59.1809 58.9363 59.0733 59.0245 58.9475 59.0766C58.8217 59.1287 58.6833 59.1424 58.5498 59.1158C58.4162 59.0892 58.2935 59.0237 58.1973 58.9274C58.101 58.8311 58.0354 58.7084 58.0088 58.5749C57.9823 58.4413 57.9959 58.3029 58.048 58.1771C58.1001 58.0513 58.1884 57.9438 58.3016 57.8681C58.4148 57.7925 58.5479 57.7521 58.6841 57.7521C58.8667 57.7521 59.0418 57.8247 59.1709 57.9538C59.3 58.0829 59.3725 58.258 59.3725 58.4406Z" fill="url(#paint24_linear)"/>
<path d="M59.3725 58.4406C59.3725 58.5767 59.3321 58.7099 59.2565 58.8231C59.1809 58.9363 59.0733 59.0245 58.9475 59.0766C58.8217 59.1287 58.6833 59.1424 58.5498 59.1158C58.4162 59.0892 58.2935 59.0237 58.1973 58.9274C58.101 58.8311 58.0354 58.7084 58.0088 58.5749C57.9823 58.4413 57.9959 58.3029 58.048 58.1771C58.1001 58.0513 58.1884 57.9438 58.3016 57.8681C58.4148 57.7925 58.5479 57.7521 58.6841 57.7521C58.8667 57.7521 59.0418 57.8247 59.1709 57.9538C59.3 58.0829 59.3725 58.258 59.3725 58.4406Z" fill="url(#paint25_linear)"/>
</g>
<g opacity="0.2">
<path d="M67.4826 57.7521C67.4826 57.8882 67.4423 58.0213 67.3666 58.1346C67.291 58.2478 67.1834 58.336 67.0576 58.3881C66.9318 58.4402 66.7934 58.4539 66.6599 58.4273C66.5263 58.4007 66.4036 58.3352 66.3074 58.2389C66.2111 58.1426 66.1455 58.0199 66.1189 57.8864C66.0924 57.7528 66.106 57.6144 66.1581 57.4886C66.2102 57.3628 66.2985 57.2553 66.4117 57.1796C66.5249 57.104 66.658 57.0636 66.7942 57.0636C66.9768 57.0636 67.1519 57.1361 67.281 57.2653C67.4101 57.3944 67.4826 57.5695 67.4826 57.7521Z" fill="url(#paint26_linear)"/>
<path d="M67.4826 57.7521C67.4826 57.8882 67.4423 58.0213 67.3666 58.1346C67.291 58.2478 67.1834 58.336 67.0576 58.3881C66.9318 58.4402 66.7934 58.4539 66.6599 58.4273C66.5263 58.4007 66.4036 58.3352 66.3074 58.2389C66.2111 58.1426 66.1455 58.0199 66.1189 57.8864C66.0924 57.7528 66.106 57.6144 66.1581 57.4886C66.2102 57.3628 66.2985 57.2553 66.4117 57.1796C66.5249 57.104 66.658 57.0636 66.7942 57.0636C66.9768 57.0636 67.1519 57.1361 67.281 57.2653C67.4101 57.3944 67.4826 57.5695 67.4826 57.7521Z" fill="url(#paint27_linear)"/>
</g>
<g opacity="0.2">
<path d="M66.1058 62.6677C66.1058 62.891 66.0396 63.1093 65.9155 63.295C65.7914 63.4806 65.6151 63.6254 65.4088 63.7108C65.2025 63.7963 64.9755 63.8186 64.7565 63.7751C64.5374 63.7315 64.3363 63.624 64.1784 63.4661C64.0205 63.3082 63.9129 63.107 63.8694 62.888C63.8258 62.6689 63.8481 62.4419 63.9336 62.2356C64.0191 62.0293 64.1638 61.853 64.3495 61.7289C64.5351 61.6048 64.7534 61.5386 64.9767 61.5386C65.2762 61.5386 65.5634 61.6576 65.7751 61.8693C65.9868 62.0811 66.1058 62.3682 66.1058 62.6677V62.6677Z" fill="url(#paint28_linear)"/>
<path d="M66.1058 62.6677C66.1058 62.891 66.0396 63.1093 65.9155 63.295C65.7914 63.4806 65.6151 63.6254 65.4088 63.7108C65.2025 63.7963 64.9755 63.8186 64.7565 63.7751C64.5374 63.7315 64.3363 63.624 64.1784 63.4661C64.0205 63.3082 63.9129 63.107 63.8694 62.888C63.8258 62.6689 63.8481 62.4419 63.9336 62.2356C64.0191 62.0293 64.1638 61.853 64.3495 61.7289C64.5351 61.6048 64.7534 61.5386 64.9767 61.5386C65.2762 61.5386 65.5634 61.6576 65.7751 61.8693C65.9868 62.0811 66.1058 62.3682 66.1058 62.6677V62.6677Z" fill="url(#paint29_linear)"/>
</g>
<g opacity="0.2">
<path d="M62.5189 65.8862C62.5189 66.1844 62.4304 66.4759 62.2648 66.7239C62.0991 66.9718 61.8636 67.1651 61.5881 67.2792C61.3126 67.3933 61.0095 67.4232 60.717 67.365C60.4245 67.3068 60.1559 67.1632 59.945 66.9524C59.7342 66.7415 59.5906 66.4728 59.5324 66.1804C59.4742 65.8879 59.5041 65.5848 59.6182 65.3093C59.7323 65.0338 59.9256 64.7983 60.1735 64.6326C60.4214 64.4669 60.7129 64.3785 61.0111 64.3785C61.411 64.3785 61.7945 64.5374 62.0773 64.8201C62.36 65.1029 62.5189 65.4864 62.5189 65.8862V65.8862Z" fill="url(#paint30_linear)"/>
<path d="M62.5189 65.8862C62.5189 66.1844 62.4304 66.4759 62.2648 66.7239C62.0991 66.9718 61.8636 67.1651 61.5881 67.2792C61.3126 67.3933 61.0095 67.4232 60.717 67.365C60.4245 67.3068 60.1559 67.1632 59.945 66.9524C59.7342 66.7415 59.5906 66.4728 59.5324 66.1804C59.4742 65.8879 59.5041 65.5848 59.6182 65.3093C59.7323 65.0338 59.9256 64.7983 60.1735 64.6326C60.4214 64.4669 60.7129 64.3785 61.0111 64.3785C61.411 64.3785 61.7945 64.5374 62.0773 64.8201C62.36 65.1029 62.5189 65.4864 62.5189 65.8862V65.8862Z" fill="url(#paint31_linear)"/>
</g>
<path d="M152.108 153.113C152.948 149.554 150.744 145.989 147.186 145.149C143.628 144.31 140.063 146.513 139.223 150.071C138.383 153.63 140.587 157.195 144.145 158.035C147.703 158.874 151.268 156.671 152.108 153.113Z" fill="url(#paint32_linear)"/>
<path d="M152.108 153.113C152.948 149.554 150.744 145.989 147.186 145.149C143.628 144.31 140.063 146.513 139.223 150.071C138.383 153.63 140.587 157.195 144.145 158.035C147.703 158.874 151.268 156.671 152.108 153.113Z" fill="url(#paint33_linear)"/>
<path opacity="0.3" d="M152.108 153.113C152.948 149.554 150.744 145.989 147.186 145.149C143.628 144.31 140.063 146.513 139.223 150.071C138.383 153.63 140.587 157.195 144.145 158.035C147.703 158.874 151.268 156.671 152.108 153.113Z" fill="white"/>
<g opacity="0.4">
<path d="M149.846 146.467C148.379 146.024 146.803 146.104 145.389 146.694C143.974 147.284 142.808 148.347 142.09 149.701C141.372 151.055 141.146 152.617 141.451 154.119C141.757 155.621 142.574 156.97 143.764 157.937C144.381 158.124 145.023 158.219 145.667 158.219C147.034 158.219 148.367 157.795 149.483 157.007C150.6 156.219 151.445 155.105 151.903 153.817C152.361 152.53 152.409 151.132 152.041 149.816C151.673 148.5 150.906 147.33 149.846 146.467V146.467Z" fill="url(#paint34_linear)"/>
<path d="M149.846 146.467C148.379 146.024 146.803 146.104 145.389 146.694C143.974 147.284 142.808 148.347 142.09 149.701C141.372 151.055 141.146 152.617 141.451 154.119C141.757 155.621 142.574 156.97 143.764 157.937C144.381 158.124 145.023 158.219 145.667 158.219C147.034 158.219 148.367 157.795 149.483 157.007C150.6 156.219 151.445 155.105 151.903 153.817C152.361 152.53 152.409 151.132 152.041 149.816C151.673 148.5 150.906 147.33 149.846 146.467V146.467Z" fill="url(#paint35_linear)"/>
</g>
<path d="M139.347 153.579C132.28 156.904 137.551 159.468 147.509 155.888C156.731 152.574 160.246 148.395 151.984 149.692C152.428 151.431 140.879 155.93 139.347 153.579Z" fill="url(#paint36_linear)"/>
<path d="M139.347 153.579C132.28 156.904 137.551 159.468 147.509 155.888C156.731 152.574 160.246 148.395 151.984 149.692C152.428 151.431 140.879 155.93 139.347 153.579Z" fill="url(#paint37_linear)"/>
<path opacity="0.2" d="M149.767 86.7397C140.511 92.9943 128.528 101.256 125.22 121.097H124.514C127.733 101.476 139.278 93.0184 148.538 86.7397H149.767Z" fill="black"/>
<path d="M101.885 148.852C96.0329 148.852 90.2464 146.212 87.4271 141.902C85.6888 139.238 83.6682 133.658 89.6853 126.212L90.2188 126.646C85.9642 131.913 85.1793 137.197 88.0054 141.527C91.4477 146.794 99.5681 149.444 106.501 147.558C113.602 145.627 117.912 139.451 118.329 130.615C119.75 100.388 135.809 91.0769 147.533 84.2784C154.82 80.0547 160.084 77.0048 158.927 70.5643C158.765 69.6727 158.411 69.0565 157.836 68.6779C156.338 67.6899 153.412 68.375 150.025 69.1633C143.378 70.7123 134.277 72.8327 128.855 63.6108L129.451 63.2666C134.614 72.0548 143.072 70.0823 149.87 68.4989C153.412 67.6762 156.469 66.9636 158.214 68.1099C158.955 68.5953 159.409 69.3629 159.591 70.4507C160.834 77.3628 155.116 80.6812 147.87 84.8808C136.28 91.6001 120.411 100.801 119.007 130.663C118.573 139.82 114.077 146.226 106.67 148.24C105.109 148.655 103.5 148.861 101.885 148.852Z" fill="url(#paint38_linear)"/>
<path d="M101.885 148.852C96.0329 148.852 90.2464 146.212 87.4271 141.902C85.6888 139.238 83.6682 133.658 89.6853 126.212L90.2188 126.646C85.9642 131.913 85.1793 137.197 88.0054 141.527C91.4477 146.794 99.5681 149.444 106.501 147.558C113.602 145.627 117.912 139.451 118.329 130.615C119.75 100.388 135.809 91.0769 147.533 84.2784C154.82 80.0547 160.084 77.0048 158.927 70.5643C158.765 69.6727 158.411 69.0565 157.836 68.6779C156.338 67.6899 153.412 68.375 150.025 69.1633C143.378 70.7123 134.277 72.8327 128.855 63.6108L129.451 63.2666C134.614 72.0548 143.072 70.0823 149.87 68.4989C153.412 67.6762 156.469 66.9636 158.214 68.1099C158.955 68.5953 159.409 69.3629 159.591 70.4507C160.834 77.3628 155.116 80.6812 147.87 84.8808C136.28 91.6001 120.411 100.801 119.007 130.663C118.573 139.82 114.077 146.226 106.67 148.24C105.109 148.655 103.5 148.861 101.885 148.852Z" fill="url(#paint39_linear)"/>
<path opacity="0.2" d="M101.885 148.852C96.0329 148.852 90.2464 146.212 87.4271 141.902C85.6888 139.238 83.6682 133.658 89.6853 126.212L90.2188 126.646C85.9642 131.913 85.1793 137.197 88.0054 141.527C91.4477 146.794 99.5681 149.444 106.501 147.558C113.602 145.627 117.912 139.451 118.329 130.615C119.75 100.388 135.809 91.0769 147.533 84.2784C154.82 80.0547 160.084 77.0048 158.927 70.5643C158.765 69.6727 158.411 69.0565 157.836 68.6779C156.338 67.6899 153.412 68.375 150.025 69.1633C143.378 70.7123 134.277 72.8327 128.855 63.6108L129.451 63.2666C134.614 72.0548 143.072 70.0823 149.87 68.4989C153.412 67.6762 156.469 66.9636 158.214 68.1099C158.955 68.5953 159.409 69.3629 159.591 70.4507C160.834 77.3628 155.116 80.6812 147.87 84.8808C136.28 91.6001 120.411 100.801 119.007 130.663C118.573 139.82 114.077 146.226 106.67 148.24C105.109 148.655 103.5 148.861 101.885 148.852Z" fill="white"/>
<path d="M121.768 55.4733C123.354 55.4824 124.929 55.7296 126.442 56.2065C126.442 56.2065 130.229 62.6677 130.676 64.1478C130.518 65.6074 128.057 67.9998 128.057 67.9998L121.768 55.4733Z" fill="url(#paint40_linear)"/>
<path d="M121.768 55.4733C123.354 55.4824 124.929 55.7296 126.442 56.2065C126.442 56.2065 130.229 62.6677 130.676 64.1478C130.518 65.6074 128.057 67.9998 128.057 67.9998L121.768 55.4733Z" fill="url(#paint41_linear)"/>
<path opacity="0.3" d="M121.768 55.4733C123.354 55.4824 124.929 55.7296 126.442 56.2065C126.442 56.2065 130.229 62.6677 130.676 64.1478C130.518 65.6074 128.057 67.9998 128.057 67.9998L121.768 55.4733Z" fill="white"/>
<path d="M132.983 86.8429C131.524 85.0599 130.195 83.1757 129.003 81.2044C128.714 80.7065 128.44 80.1993 128.181 79.6829C128.033 79.3903 127.891 79.0978 127.754 78.8017C127.573 78.5136 127.433 78.2021 127.337 77.8757C126.924 73.5144 128.418 70.3027 126.993 66.8019L121.32 69.0187C121.32 69.0187 121.802 75.2562 122.904 79.0014C123.592 81.318 125.134 83.3214 126.625 85.1768C127.089 85.7551 127.537 86.3507 128.002 86.9324C128.466 87.5142 128.934 87.9858 129.378 88.5331C130.05 89.3627 130.27 90.1578 129.764 91.1355L129.678 91.2904C129.533 91.5451 130.208 91.8342 130.635 91.2904C131.323 90.4022 131.227 90.4573 131.826 89.7C132.191 89.2422 132.607 88.7431 132.969 88.3231C133.143 88.1166 133.24 87.8557 133.242 87.5855C133.245 87.3153 133.153 87.0526 132.983 86.8429V86.8429Z" fill="url(#paint42_linear)"/>
<path d="M132.983 86.8429C131.524 85.0599 130.195 83.1757 129.003 81.2044C128.714 80.7065 128.44 80.1993 128.181 79.6829C128.033 79.3903 127.891 79.0978 127.754 78.8017C127.573 78.5136 127.433 78.2021 127.337 77.8757C126.924 73.5144 128.418 70.3027 126.993 66.8019L121.32 69.0187C121.32 69.0187 121.802 75.2562 122.904 79.0014C123.592 81.318 125.134 83.3214 126.625 85.1768C127.089 85.7551 127.537 86.3507 128.002 86.9324C128.466 87.5142 128.934 87.9858 129.378 88.5331C130.05 89.3627 130.27 90.1578 129.764 91.1355L129.678 91.2904C129.533 91.5451 130.208 91.8342 130.635 91.2904C131.323 90.4022 131.227 90.4573 131.826 89.7C132.191 89.2422 132.607 88.7431 132.969 88.3231C133.143 88.1166 133.24 87.8557 133.242 87.5855C133.245 87.3153 133.153 87.0526 132.983 86.8429V86.8429Z" fill="url(#paint43_linear)"/>
<path opacity="0.7" d="M132.983 86.8429C131.524 85.0599 130.195 83.1757 129.003 81.2044C128.714 80.7065 128.44 80.1993 128.181 79.6829C128.033 79.3903 127.891 79.0978 127.754 78.8017C127.573 78.5136 127.433 78.2021 127.337 77.8757C126.924 73.5144 128.418 70.3027 126.993 66.8019L121.32 69.0187C121.32 69.0187 121.802 75.2562 122.904 79.0014C123.592 81.318 125.134 83.3214 126.625 85.1768C127.089 85.7551 127.537 86.3507 128.002 86.9324C128.466 87.5142 128.934 87.9858 129.378 88.5331C130.05 89.3627 130.27 90.1578 129.764 91.1355L129.678 91.2904C129.533 91.5451 130.208 91.8342 130.635 91.2904C131.323 90.4022 131.227 90.4573 131.826 89.7C132.191 89.2422 132.607 88.7431 132.969 88.3231C133.143 88.1166 133.24 87.8557 133.242 87.5855C133.245 87.3153 133.153 87.0526 132.983 86.8429V86.8429Z" fill="white"/>
<g opacity="0.3">
<path d="M131.595 85.0495C130.695 86.0145 129.696 86.8821 128.614 87.6381C128.762 87.8033 128.907 87.9823 129.055 88.1407C130.138 87.409 131.121 86.5401 131.981 85.5555L131.595 85.0495Z" fill="url(#paint44_linear)"/>
<path d="M131.595 85.0495C130.695 86.0145 129.696 86.8821 128.614 87.6381C128.762 87.8033 128.907 87.9823 129.055 88.1407C130.138 87.409 131.121 86.5401 131.981 85.5555L131.595 85.0495Z" fill="url(#paint45_linear)"/>
</g>
<g opacity="0.3">
<path d="M132.983 86.8429L132.941 86.7947C132.676 87.0986 132.522 87.4832 132.504 87.8859C132.482 88.1622 132.527 88.4397 132.635 88.6949L132.962 88.3059C133.133 88.1015 133.228 87.8445 133.232 87.5781C133.236 87.3116 133.148 87.052 132.983 86.8429V86.8429Z" fill="url(#paint46_linear)"/>
<path d="M132.983 86.8429L132.941 86.7947C132.676 87.0986 132.522 87.4832 132.504 87.8859C132.482 88.1622 132.527 88.4397 132.635 88.6949L132.962 88.3059C133.133 88.1015 133.228 87.8445 133.232 87.5781C133.236 87.3116 133.148 87.052 132.983 86.8429V86.8429Z" fill="url(#paint47_linear)"/>
</g>
<path d="M120.418 59.6041C119.803 60.5249 119.065 61.3576 118.225 62.0791C117.76 62.4806 117.249 62.8271 116.704 63.1118C116.417 63.2585 116.121 63.3839 115.816 63.487L115.582 63.5627L115.506 63.5833L115.344 63.6281C115.245 63.6517 115.143 63.6678 115.041 63.6763C114.751 63.6985 114.459 63.6717 114.177 63.5971C113.822 63.4963 113.482 63.3494 113.165 63.1599C112.91 63.011 112.663 62.849 112.425 62.6746C111.995 62.3545 111.583 62.0097 111.193 61.6419C110.44 60.9285 109.749 60.1523 109.127 59.3218C109.008 59.16 108.948 58.9615 108.959 58.7606C108.97 58.5596 109.051 58.3688 109.188 58.2211C109.325 58.0734 109.509 57.9781 109.708 57.9515C109.907 57.925 110.11 57.9689 110.281 58.0757H110.308C111.12 58.592 111.94 59.1359 112.738 59.6213C113.145 59.8588 113.537 60.0997 113.926 60.2856C114.104 60.3786 114.286 60.4614 114.473 60.5335C114.59 60.5849 114.714 60.6152 114.842 60.623C114.862 60.623 114.842 60.5989 114.714 60.6023C114.674 60.5999 114.634 60.5999 114.594 60.6023L114.518 60.6195L114.632 60.561C114.785 60.4787 114.933 60.3879 115.076 60.2891C115.384 60.0719 115.672 59.8277 115.936 59.5593C116.538 58.9291 117.101 58.2635 117.623 57.5662C117.909 57.2462 118.304 57.0446 118.731 57.001C119.158 56.9574 119.586 57.0749 119.931 57.3305C120.276 57.5861 120.513 57.9614 120.595 58.3826C120.678 58.8039 120.6 59.2407 120.377 59.6075L120.418 59.6041Z" fill="url(#paint48_linear)"/>
<path d="M120.418 59.6041C119.803 60.5249 119.065 61.3576 118.225 62.0791C117.76 62.4806 117.249 62.8271 116.704 63.1118C116.417 63.2585 116.121 63.3839 115.816 63.487L115.582 63.5627L115.506 63.5833L115.344 63.6281C115.245 63.6517 115.143 63.6678 115.041 63.6763C114.751 63.6985 114.459 63.6717 114.177 63.5971C113.822 63.4963 113.482 63.3494 113.165 63.1599C112.91 63.011 112.663 62.849 112.425 62.6746C111.995 62.3545 111.583 62.0097 111.193 61.6419C110.44 60.9285 109.749 60.1523 109.127 59.3218C109.008 59.16 108.948 58.9615 108.959 58.7606C108.97 58.5596 109.051 58.3688 109.188 58.2211C109.325 58.0734 109.509 57.9781 109.708 57.9515C109.907 57.925 110.11 57.9689 110.281 58.0757H110.308C111.12 58.592 111.94 59.1359 112.738 59.6213C113.145 59.8588 113.537 60.0997 113.926 60.2856C114.104 60.3786 114.286 60.4614 114.473 60.5335C114.59 60.5849 114.714 60.6152 114.842 60.623C114.862 60.623 114.842 60.5989 114.714 60.6023C114.674 60.5999 114.634 60.5999 114.594 60.6023L114.518 60.6195L114.632 60.561C114.785 60.4787 114.933 60.3879 115.076 60.2891C115.384 60.0719 115.672 59.8277 115.936 59.5593C116.538 58.9291 117.101 58.2635 117.623 57.5662C117.909 57.2462 118.304 57.0446 118.731 57.001C119.158 56.9574 119.586 57.0749 119.931 57.3305C120.276 57.5861 120.513 57.9614 120.595 58.3826C120.678 58.8039 120.6 59.2407 120.377 59.6075L120.418 59.6041Z" fill="url(#paint49_linear)"/>
<path opacity="0.7" d="M120.418 59.6041C119.803 60.5249 119.065 61.3576 118.225 62.0791C117.76 62.4806 117.249 62.8271 116.704 63.1118C116.417 63.2585 116.121 63.3839 115.816 63.487L115.582 63.5627L115.506 63.5833L115.344 63.6281C115.245 63.6517 115.143 63.6678 115.041 63.6763C114.751 63.6985 114.459 63.6717 114.177 63.5971C113.822 63.4963 113.482 63.3494 113.165 63.1599C112.91 63.011 112.663 62.849 112.425 62.6746C111.995 62.3545 111.583 62.0097 111.193 61.6419C110.44 60.9285 109.749 60.1523 109.127 59.3218C109.008 59.16 108.948 58.9615 108.959 58.7606C108.97 58.5596 109.051 58.3688 109.188 58.2211C109.325 58.0734 109.509 57.9781 109.708 57.9515C109.907 57.925 110.11 57.9689 110.281 58.0757H110.308C111.12 58.592 111.94 59.1359 112.738 59.6213C113.145 59.8588 113.537 60.0997 113.926 60.2856C114.104 60.3786 114.286 60.4614 114.473 60.5335C114.59 60.5849 114.714 60.6152 114.842 60.623C114.862 60.623 114.842 60.5989 114.714 60.6023C114.674 60.5999 114.634 60.5999 114.594 60.6023L114.518 60.6195L114.632 60.561C114.785 60.4787 114.933 60.3879 115.076 60.2891C115.384 60.0719 115.672 59.8277 115.936 59.5593C116.538 58.9291 117.101 58.2635 117.623 57.5662C117.909 57.2462 118.304 57.0446 118.731 57.001C119.158 56.9574 119.586 57.0749 119.931 57.3305C120.276 57.5861 120.513 57.9614 120.595 58.3826C120.678 58.8039 120.6 59.2407 120.377 59.6075L120.418 59.6041Z" fill="white"/>
<path d="M107.837 57.339L108.239 58.0274C108.239 58.0274 108.546 58.9293 109.162 59.0946L110.835 58.5541L110.749 58.413C110.535 58.0894 110.559 57.4595 110.632 56.9362C110.704 56.413 110.436 56.3958 110.236 56.5266C110.094 56.6894 109.995 56.8844 109.947 57.0946C109.865 56.9809 109.774 56.8739 109.675 56.7745L109.165 56.265C109.058 56.1605 108.916 56.1003 108.767 56.0965C108.617 56.0927 108.472 56.1455 108.36 56.2443L107.947 56.6127C107.849 56.7033 107.784 56.8246 107.764 56.9565C107.744 57.0885 107.77 57.2234 107.837 57.339V57.339Z" fill="url(#paint50_linear)"/>
<path d="M107.837 57.339L108.239 58.0274C108.239 58.0274 108.546 58.9293 109.162 59.0946L110.835 58.5541L110.749 58.413C110.535 58.0894 110.559 57.4595 110.632 56.9362C110.704 56.413 110.436 56.3958 110.236 56.5266C110.094 56.6894 109.995 56.8844 109.947 57.0946C109.865 56.9809 109.774 56.8739 109.675 56.7745L109.165 56.265C109.058 56.1605 108.916 56.1003 108.767 56.0965C108.617 56.0927 108.472 56.1455 108.36 56.2443L107.947 56.6127C107.849 56.7033 107.784 56.8246 107.764 56.9565C107.744 57.0885 107.77 57.2234 107.837 57.339V57.339Z" fill="url(#paint51_linear)"/>
<path opacity="0.7" d="M107.837 57.339L108.239 58.0274C108.239 58.0274 108.546 58.9293 109.162 59.0946L110.835 58.5541L110.749 58.413C110.535 58.0894 110.559 57.4595 110.632 56.9362C110.704 56.413 110.436 56.3958 110.236 56.5266C110.094 56.6894 109.995 56.8844 109.947 57.0946C109.865 56.9809 109.774 56.8739 109.675 56.7745L109.165 56.265C109.058 56.1605 108.916 56.1003 108.767 56.0965C108.617 56.0927 108.472 56.1455 108.36 56.2443L107.947 56.6127C107.849 56.7033 107.784 56.8246 107.764 56.9565C107.744 57.0885 107.77 57.2234 107.837 57.339V57.339Z" fill="white"/>
<path d="M123.458 54.8606C121.602 55.3524 119.825 56.1021 118.177 57.0877C117.92 57.2486 117.718 57.4841 117.599 57.7628C117.48 58.0415 117.448 58.3501 117.509 58.6471C118.174 61.8966 119.685 66.2477 121.317 69.0187L128.927 65.869C128.979 64.5265 127.131 60.1823 125.248 55.9827C124.91 55.2289 124.26 54.6678 123.458 54.8606Z" fill="url(#paint52_linear)"/>
<path d="M123.458 54.8606C121.602 55.3524 119.825 56.1021 118.177 57.0877C117.92 57.2486 117.718 57.4841 117.599 57.7628C117.48 58.0415 117.448 58.3501 117.509 58.6471C118.174 61.8966 119.685 66.2477 121.317 69.0187L128.927 65.869C128.979 64.5265 127.131 60.1823 125.248 55.9827C124.91 55.2289 124.26 54.6678 123.458 54.8606Z" fill="url(#paint53_linear)"/>
<path opacity="0.8" d="M123.458 54.8606C121.602 55.3524 119.825 56.1021 118.177 57.0877C117.92 57.2486 117.718 57.4841 117.599 57.7628C117.48 58.0415 117.448 58.3501 117.509 58.6471C118.174 61.8966 119.685 66.2477 121.317 69.0187L128.927 65.869C128.979 64.5265 127.131 60.1823 125.248 55.9827C124.91 55.2289 124.26 54.6678 123.458 54.8606Z" fill="white"/>
<g opacity="0.3">
<path d="M126.428 58.6436L124.917 58.1376C125.261 59.0223 126.477 60.141 127.327 60.7985C127.051 60.11 126.745 59.3872 126.428 58.6436Z" fill="url(#paint54_linear)"/>
<path d="M126.428 58.6436L124.917 58.1376C125.261 59.0223 126.477 60.141 127.327 60.7985C127.051 60.11 126.745 59.3872 126.428 58.6436Z" fill="url(#paint55_linear)"/>
</g>
<path d="M122.959 51.4527C122.329 50.2548 120.969 49.6524 119.337 49.7866C117.96 49.9036 116.742 51.3081 116.886 52.0654C117.031 52.8227 118.188 53.1463 118.408 53.4079L117.454 54.0964C117.341 54.1779 117.246 54.2814 117.174 54.4007C117.102 54.5201 117.055 54.6527 117.036 54.7907C117.017 54.9286 117.026 55.0691 117.062 55.2035C117.098 55.338 117.162 55.4637 117.248 55.5731C117.651 56.0826 118.181 56.6058 118.487 56.9913C121.124 56.9225 123.076 55.9173 123.781 54.95C123.516 53.7246 123.571 52.6437 122.959 51.4527Z" fill="url(#paint56_linear)"/>
<path d="M122.959 51.4527C122.329 50.2548 120.969 49.6524 119.337 49.7866C117.96 49.9036 116.742 51.3081 116.886 52.0654C117.031 52.8227 118.188 53.1463 118.408 53.4079L117.454 54.0964C117.341 54.1779 117.246 54.2814 117.174 54.4007C117.102 54.5201 117.055 54.6527 117.036 54.7907C117.017 54.9286 117.026 55.0691 117.062 55.2035C117.098 55.338 117.162 55.4637 117.248 55.5731C117.651 56.0826 118.181 56.6058 118.487 56.9913C121.124 56.9225 123.076 55.9173 123.781 54.95C123.516 53.7246 123.571 52.6437 122.959 51.4527Z" fill="url(#paint57_linear)"/>
<path opacity="0.8" d="M122.959 51.4527C122.329 50.2548 120.969 49.6524 119.337 49.7866C117.96 49.9036 116.742 51.3081 116.886 52.0654C117.031 52.8227 118.188 53.1463 118.408 53.4079L117.454 54.0964C117.341 54.1779 117.246 54.2814 117.174 54.4007C117.102 54.5201 117.055 54.6527 117.036 54.7907C117.017 54.9286 117.026 55.0691 117.062 55.2035C117.098 55.338 117.162 55.4637 117.248 55.5731C117.651 56.0826 118.181 56.6058 118.487 56.9913C121.124 56.9225 123.076 55.9173 123.781 54.95C123.516 53.7246 123.571 52.6437 122.959 51.4527Z" fill="white"/>
<path d="M121.664 52.1962C121.851 52.6763 121.892 53.2011 121.781 53.7043C121.67 54.2074 121.412 54.6664 121.041 55.0231C120.669 55.3799 120.2 55.6184 119.692 55.7085C119.185 55.7986 118.662 55.7363 118.19 55.5295C117.718 55.3226 117.318 54.9805 117.041 54.5464C116.763 54.1122 116.621 53.6055 116.631 53.0904C116.642 52.5752 116.804 52.0747 117.099 51.6521C117.394 51.2294 117.807 50.9037 118.287 50.716C118.931 50.4651 119.649 50.48 120.282 50.7576C120.915 51.0351 121.412 51.5525 121.664 52.1962V52.1962Z" fill="#263238"/>
<path d="M144.015 83.2182C143.977 82.0857 143.926 82.1855 143.895 81.232C143.874 80.6468 143.871 79.9962 143.867 79.4351C143.866 79.1686 143.773 78.9108 143.604 78.705C143.434 78.4993 143.199 78.3584 142.938 78.306C142.483 78.2131 142.025 78.127 141.561 78.0306C140.965 77.9033 140.377 77.7656 139.795 77.5969C139.341 77.4661 138.893 77.3215 138.449 77.1597C138.005 76.998 137.506 76.8155 137.045 76.6021C136.501 76.3715 135.964 76.1236 135.434 75.8654C134.838 75.5832 134.249 75.2871 133.661 74.9877C131.396 71.239 131.348 68.7674 128.917 65.869L123.699 68.2304C123.699 68.2304 127.533 75.0324 130.143 77.917C131.647 79.5762 134.005 80.3267 136.108 80.8705C137.626 81.2595 139.165 81.559 140.704 81.8447C141.303 81.9549 141.953 81.9962 142.47 82.3542C142.852 82.6471 143.114 83.0694 143.206 83.5418C143.229 83.6381 143.25 83.7345 143.268 83.8309C143.334 84.1201 144.039 83.8998 144.015 83.2182Z" fill="url(#paint58_linear)"/>
<path d="M144.015 83.2182C143.977 82.0857 143.926 82.1855 143.895 81.232C143.874 80.6468 143.871 79.9962 143.867 79.4351C143.866 79.1686 143.773 78.9108 143.604 78.705C143.434 78.4993 143.199 78.3584 142.938 78.306C142.483 78.2131 142.025 78.127 141.561 78.0306C140.965 77.9033 140.377 77.7656 139.795 77.5969C139.341 77.4661 138.893 77.3215 138.449 77.1597C138.005 76.998 137.506 76.8155 137.045 76.6021C136.501 76.3715 135.964 76.1236 135.434 75.8654C134.838 75.5832 134.249 75.2871 133.661 74.9877C131.396 71.239 131.348 68.7674 128.917 65.869L123.699 68.2304C123.699 68.2304 127.533 75.0324 130.143 77.917C131.647 79.5762 134.005 80.3267 136.108 80.8705C137.626 81.2595 139.165 81.559 140.704 81.8447C141.303 81.9549 141.953 81.9962 142.47 82.3542C142.852 82.6471 143.114 83.0694 143.206 83.5418C143.229 83.6381 143.25 83.7345 143.268 83.8309C143.334 84.1201 144.039 83.8998 144.015 83.2182Z" fill="url(#paint59_linear)"/>
<path opacity="0.8" d="M144.015 83.2182C143.977 82.0857 143.926 82.1855 143.895 81.232C143.874 80.6468 143.871 79.9962 143.867 79.4351C143.866 79.1686 143.773 78.9108 143.604 78.705C143.434 78.4993 143.199 78.3584 142.938 78.306C142.483 78.2131 142.025 78.127 141.561 78.0306C140.965 77.9033 140.377 77.7656 139.795 77.5969C139.341 77.4661 138.893 77.3215 138.449 77.1597C138.005 76.998 137.506 76.8155 137.045 76.6021C136.501 76.3715 135.964 76.1236 135.434 75.8654C134.838 75.5832 134.249 75.2871 133.661 74.9877C131.396 71.239 131.348 68.7674 128.917 65.869L123.699 68.2304C123.699 68.2304 127.533 75.0324 130.143 77.917C131.647 79.5762 134.005 80.3267 136.108 80.8705C137.626 81.2595 139.165 81.559 140.704 81.8447C141.303 81.9549 141.953 81.9962 142.47 82.3542C142.852 82.6471 143.114 83.0694 143.206 83.5418C143.229 83.6381 143.25 83.7345 143.268 83.8309C143.334 84.1201 144.039 83.8998 144.015 83.2182Z" fill="white"/>
<g opacity="0.3">
<path d="M141.368 77.9859C141.161 77.9411 140.955 77.8964 140.745 77.8447C140.762 79.0358 140.204 81.0874 140.001 81.7104L140.655 81.8344C141.084 80.5944 141.324 79.2971 141.368 77.9859V77.9859Z" fill="url(#paint60_linear)"/>
<path d="M141.368 77.9859C141.161 77.9411 140.955 77.8964 140.745 77.8447C140.762 79.0358 140.204 81.0874 140.001 81.7104L140.655 81.8344C141.084 80.5944 141.324 79.2971 141.368 77.9859V77.9859Z" fill="url(#paint61_linear)"/>
</g>
<g opacity="0.3">
<path d="M143.881 79.4351C143.88 79.1691 143.787 78.9116 143.619 78.7059C143.45 78.5003 143.215 78.359 142.955 78.306L142.611 78.2406C142.666 78.6319 142.866 78.9882 143.172 79.2388C143.368 79.4205 143.604 79.5548 143.86 79.6313C143.881 79.5693 143.881 79.5005 143.881 79.4351Z" fill="url(#paint62_linear)"/>
<path d="M143.881 79.4351C143.88 79.1691 143.787 78.9116 143.619 78.7059C143.45 78.5003 143.215 78.359 142.955 78.306L142.611 78.2406C142.666 78.6319 142.866 78.9882 143.172 79.2388C143.368 79.4205 143.604 79.5548 143.86 79.6313C143.881 79.5693 143.881 79.5005 143.881 79.4351Z" fill="url(#paint63_linear)"/>
</g>
<path d="M121.179 52.2169C121.317 52.7401 120.731 53.2874 120.267 52.8365C119.833 52.3715 119.358 51.9463 118.848 51.5663C118.37 51.2668 119.007 50.7436 119.761 50.9467C120.082 51.0275 120.38 51.1854 120.627 51.4066C120.874 51.6279 121.063 51.906 121.179 52.2169V52.2169Z" fill="white"/>
<path d="M121.217 68.85C120.976 68.9395 121.416 69.3526 121.416 69.3526C121.416 69.3526 126.236 67.7037 129.162 66.0067C129.169 65.9039 129.151 65.801 129.11 65.7064C129.07 65.6118 129.007 65.5283 128.928 65.4628C126.423 66.7366 123.849 67.8675 121.217 68.85V68.85Z" fill="url(#paint64_linear)"/>
<path d="M121.217 68.85C120.976 68.9395 121.416 69.3526 121.416 69.3526C121.416 69.3526 126.236 67.7037 129.162 66.0067C129.169 65.9039 129.151 65.801 129.11 65.7064C129.07 65.6118 129.007 65.5283 128.928 65.4628C126.423 66.7366 123.849 67.8675 121.217 68.85V68.85Z" fill="url(#paint65_linear)"/>
<path opacity="0.5" d="M121.217 68.85C120.976 68.9395 121.416 69.3526 121.416 69.3526C121.416 69.3526 126.236 67.7037 129.162 66.0067C129.169 65.9039 129.151 65.801 129.11 65.7064C129.07 65.6118 129.007 65.5283 128.928 65.4628C126.423 66.7366 123.849 67.8675 121.217 68.85V68.85Z" fill="white"/>
<path d="M124.762 54.6334C125.712 55.1153 126.604 55.6213 127.516 56.1824C127.96 56.4647 128.401 56.7504 128.838 57.0602C129.275 57.37 129.709 57.6867 130.146 58.0447L130.308 58.1789L130.511 58.3648C130.632 58.4731 130.747 58.588 130.855 58.709C130.965 58.8295 131.058 58.9466 131.148 59.0533C131.237 59.16 131.334 59.2873 131.413 59.3975C131.734 59.84 132.03 60.2997 132.301 60.7744C132.834 61.695 133.295 62.6561 133.678 63.6487C133.749 63.8363 133.752 64.0426 133.688 64.2325C133.624 64.4225 133.496 64.5843 133.326 64.6906C133.156 64.7969 132.955 64.841 132.756 64.8155C132.557 64.79 132.373 64.6964 132.235 64.5506L132.218 64.53C131.53 63.7967 130.865 63.0257 130.198 62.3062C129.53 61.5868 128.852 60.857 128.291 60.5369C127.509 60.0515 126.638 59.5662 125.774 59.0911L123.172 57.6454C122.768 57.4317 122.466 57.0666 122.332 56.6302C122.198 56.1938 122.242 55.7219 122.456 55.3184C122.67 54.9149 123.035 54.6127 123.471 54.4784C123.908 54.3442 124.379 54.3888 124.783 54.6024L124.762 54.6334Z" fill="url(#paint66_linear)"/>
<path d="M124.762 54.6334C125.712 55.1153 126.604 55.6213 127.516 56.1824C127.96 56.4647 128.401 56.7504 128.838 57.0602C129.275 57.37 129.709 57.6867 130.146 58.0447L130.308 58.1789L130.511 58.3648C130.632 58.4731 130.747 58.588 130.855 58.709C130.965 58.8295 131.058 58.9466 131.148 59.0533C131.237 59.16 131.334 59.2873 131.413 59.3975C131.734 59.84 132.03 60.2997 132.301 60.7744C132.834 61.695 133.295 62.6561 133.678 63.6487C133.749 63.8363 133.752 64.0426 133.688 64.2325C133.624 64.4225 133.496 64.5843 133.326 64.6906C133.156 64.7969 132.955 64.841 132.756 64.8155C132.557 64.79 132.373 64.6964 132.235 64.5506L132.218 64.53C131.53 63.7967 130.865 63.0257 130.198 62.3062C129.53 61.5868 128.852 60.857 128.291 60.5369C127.509 60.0515 126.638 59.5662 125.774 59.0911L123.172 57.6454C122.768 57.4317 122.466 57.0666 122.332 56.6302C122.198 56.1938 122.242 55.7219 122.456 55.3184C122.67 54.9149 123.035 54.6127 123.471 54.4784C123.908 54.3442 124.379 54.3888 124.783 54.6024L124.762 54.6334Z" fill="url(#paint67_linear)"/>
<path opacity="0.8" d="M124.762 54.6334C125.712 55.1153 126.604 55.6213 127.516 56.1824C127.96 56.4647 128.401 56.7504 128.838 57.0602C129.275 57.37 129.709 57.6867 130.146 58.0447L130.308 58.1789L130.511 58.3648C130.632 58.4731 130.747 58.588 130.855 58.709C130.965 58.8295 131.058 58.9466 131.148 59.0533C131.237 59.16 131.334 59.2873 131.413 59.3975C131.734 59.84 132.03 60.2997 132.301 60.7744C132.834 61.695 133.295 62.6561 133.678 63.6487C133.749 63.8363 133.752 64.0426 133.688 64.2325C133.624 64.4225 133.496 64.5843 133.326 64.6906C133.156 64.7969 132.955 64.841 132.756 64.8155C132.557 64.79 132.373 64.6964 132.235 64.5506L132.218 64.53C131.53 63.7967 130.865 63.0257 130.198 62.3062C129.53 61.5868 128.852 60.857 128.291 60.5369C127.509 60.0515 126.638 59.5662 125.774 59.0911L123.172 57.6454C122.768 57.4317 122.466 57.0666 122.332 56.6302C122.198 56.1938 122.242 55.7219 122.456 55.3184C122.67 54.9149 123.035 54.6127 123.471 54.4784C123.908 54.3442 124.379 54.3888 124.783 54.6024L124.762 54.6334Z" fill="white"/>
<path d="M134.494 65.3664L134.201 64.6332C134.201 64.6332 134.039 63.6969 133.457 63.4353L131.736 63.7073L131.795 63.8587C131.953 64.2029 131.833 64.8329 131.678 65.3355C131.523 65.838 131.785 65.9034 132.005 65.8036C132.129 65.7485 132.249 65.5248 132.38 65.2873C132.444 65.4069 132.517 65.5219 132.597 65.6315L133.02 66.2132C133.109 66.3338 133.24 66.4164 133.386 66.4445C133.533 66.4726 133.685 66.4441 133.812 66.3647L134.28 66.0652C134.39 65.9902 134.471 65.8802 134.509 65.7532C134.548 65.6262 134.543 65.4898 134.494 65.3664V65.3664Z" fill="url(#paint68_linear)"/>
<path d="M134.494 65.3664L134.201 64.6332C134.201 64.6332 134.039 63.6969 133.457 63.4353L131.736 63.7073L131.795 63.8587C131.953 64.2029 131.833 64.8329 131.678 65.3355C131.523 65.838 131.785 65.9034 132.005 65.8036C132.129 65.7485 132.249 65.5248 132.38 65.2873C132.444 65.4069 132.517 65.5219 132.597 65.6315L133.02 66.2132C133.109 66.3338 133.24 66.4164 133.386 66.4445C133.533 66.4726 133.685 66.4441 133.812 66.3647L134.28 66.0652C134.39 65.9902 134.471 65.8802 134.509 65.7532C134.548 65.6262 134.543 65.4898 134.494 65.3664V65.3664Z" fill="url(#paint69_linear)"/>
<path opacity="0.8" d="M134.494 65.3664L134.201 64.6332C134.201 64.6332 134.039 63.6969 133.457 63.4353L131.736 63.7073L131.795 63.8587C131.953 64.2029 131.833 64.8329 131.678 65.3355C131.523 65.838 131.785 65.9034 132.005 65.8036C132.129 65.7485 132.249 65.5248 132.38 65.2873C132.444 65.4069 132.517 65.5219 132.597 65.6315L133.02 66.2132C133.109 66.3338 133.24 66.4164 133.386 66.4445C133.533 66.4726 133.685 66.4441 133.812 66.3647L134.28 66.0652C134.39 65.9902 134.471 65.8802 134.509 65.7532C134.548 65.6262 134.543 65.4898 134.494 65.3664V65.3664Z" fill="white"/>
<g opacity="0.3">
<path d="M123.31 58.592L122.89 58.6264L120.311 64.8501C120.452 64.8602 120.594 64.8486 120.731 64.8157C120.731 64.8157 124.091 63.5627 125.106 63.0945C124.425 61.6866 123.31 58.592 123.31 58.592Z" fill="url(#paint70_linear)"/>
<path d="M123.31 58.592L122.89 58.6264L120.311 64.8501C120.452 64.8602 120.594 64.8486 120.731 64.8157C120.731 64.8157 124.091 63.5627 125.106 63.0945C124.425 61.6866 123.31 58.592 123.31 58.592Z" fill="url(#paint71_linear)"/>
</g>
<path d="M118.604 60.2236C118.917 61.8505 119.499 63.414 120.325 64.8501C121.585 64.4163 123.685 63.5971 124.704 63.1289C124.019 61.6608 123.411 60.1579 122.883 58.6264C121.805 58.6987 119.44 59.604 118.604 60.2236Z" fill="white"/>
<g opacity="0.3">
<path d="M121.162 61.5696C121.111 61.7379 121.012 61.8876 120.877 61.9996C120.741 62.1115 120.576 62.1809 120.401 62.1987C120.226 62.2166 120.05 62.1822 119.895 62.1C119.74 62.0177 119.612 61.8912 119.529 61.7366C119.446 61.5819 119.41 61.406 119.427 61.2311C119.443 61.0562 119.511 60.8901 119.622 60.754C119.733 60.6178 119.882 60.5176 120.05 60.4661C120.218 60.4146 120.398 60.4141 120.566 60.4646C120.792 60.5323 120.981 60.6867 121.093 60.8939C121.204 61.1011 121.229 61.3441 121.162 61.5696V61.5696Z" fill="url(#paint72_linear)"/>
<path d="M121.162 61.5696C121.111 61.7379 121.012 61.8876 120.877 61.9996C120.741 62.1115 120.576 62.1809 120.401 62.1987C120.226 62.2166 120.05 62.1822 119.895 62.1C119.74 62.0177 119.612 61.8912 119.529 61.7366C119.446 61.5819 119.41 61.406 119.427 61.2311C119.443 61.0562 119.511 60.8901 119.622 60.754C119.733 60.6178 119.882 60.5176 120.05 60.4661C120.218 60.4146 120.398 60.4141 120.566 60.4646C120.792 60.5323 120.981 60.6867 121.093 60.8939C121.204 61.1011 121.229 61.3441 121.162 61.5696V61.5696Z" fill="url(#paint73_linear)"/>
</g>
<g opacity="0.6">
<path d="M121.819 60.3854C121.806 60.4429 121.775 60.495 121.732 60.5348C121.688 60.5746 121.633 60.6004 121.575 60.6086C121.517 60.6169 121.457 60.6073 121.404 60.5811C121.351 60.5549 121.308 60.5134 121.279 60.4619C121.25 60.4104 121.237 60.3514 121.243 60.2926C121.248 60.2339 121.271 60.1781 121.308 60.1326C121.346 60.0871 121.396 60.054 121.453 60.0377C121.51 60.0214 121.57 60.0226 121.626 60.0412C121.696 60.0635 121.755 60.1115 121.79 60.1753C121.826 60.2392 121.836 60.3143 121.819 60.3854Z" fill="url(#paint74_linear)"/>
<path d="M121.819 60.3854C121.806 60.4429 121.775 60.495 121.732 60.5348C121.688 60.5746 121.633 60.6004 121.575 60.6086C121.517 60.6169 121.457 60.6073 121.404 60.5811C121.351 60.5549 121.308 60.5134 121.279 60.4619C121.25 60.4104 121.237 60.3514 121.243 60.2926C121.248 60.2339 121.271 60.1781 121.308 60.1326C121.346 60.0871 121.396 60.054 121.453 60.0377C121.51 60.0214 121.57 60.0226 121.626 60.0412C121.696 60.0635 121.755 60.1115 121.79 60.1753C121.826 60.2392 121.836 60.3143 121.819 60.3854Z" fill="url(#paint75_linear)"/>
</g>
<g opacity="0.6">
<path d="M122.59 60.086C122.582 60.1259 122.566 60.1637 122.542 60.197C122.519 60.2302 122.488 60.2582 122.453 60.2791C122.418 60.3 122.38 60.3134 122.339 60.3183C122.299 60.3233 122.258 60.3198 122.219 60.308C122.18 60.2962 122.144 60.2764 122.113 60.2498C122.082 60.2233 122.057 60.1906 122.039 60.1538C122.022 60.117 122.012 60.077 122.011 60.0363C122.01 59.9955 122.017 59.955 122.032 59.9173C122.043 59.8809 122.062 59.847 122.086 59.8176C122.11 59.7881 122.14 59.7638 122.173 59.7459C122.207 59.728 122.244 59.7169 122.281 59.7132C122.319 59.7095 122.358 59.7134 122.394 59.7245C122.468 59.7468 122.53 59.7973 122.566 59.865C122.603 59.9326 122.612 60.012 122.59 60.086V60.086Z" fill="url(#paint76_linear)"/>
<path d="M122.59 60.086C122.582 60.1259 122.566 60.1637 122.542 60.197C122.519 60.2302 122.488 60.2582 122.453 60.2791C122.418 60.3 122.38 60.3134 122.339 60.3183C122.299 60.3233 122.258 60.3198 122.219 60.308C122.18 60.2962 122.144 60.2764 122.113 60.2498C122.082 60.2233 122.057 60.1906 122.039 60.1538C122.022 60.117 122.012 60.077 122.011 60.0363C122.01 59.9955 122.017 59.955 122.032 59.9173C122.043 59.8809 122.062 59.847 122.086 59.8176C122.11 59.7881 122.14 59.7638 122.173 59.7459C122.207 59.728 122.244 59.7169 122.281 59.7132C122.319 59.7095 122.358 59.7134 122.394 59.7245C122.468 59.7468 122.53 59.7973 122.566 59.865C122.603 59.9326 122.612 60.012 122.59 60.086V60.086Z" fill="url(#paint77_linear)"/>
</g>
<g opacity="0.5">
<path d="M123.671 62.7675L120.487 64.0239L120.298 63.3974L123.478 62.141L123.671 62.7675Z" fill="url(#paint78_linear)"/>
<path d="M123.671 62.7675L120.487 64.0239L120.298 63.3974L123.478 62.141L123.671 62.7675Z" fill="url(#paint79_linear)"/>
</g>
<path opacity="0.2" d="M106.105 110.608C106.098 112.613 105.904 114.612 105.527 116.581C105.121 118.35 104.489 119.644 103.633 120.464C103.235 120.859 102.761 121.172 102.241 121.383C101.72 121.594 101.163 121.699 100.601 121.693C98.8315 121.693 97.4809 120.728 96.5492 118.798C96.3855 118.451 96.2463 118.093 96.1327 117.727C94.165 119.417 92.3327 121.259 90.6526 123.235L88.8247 125.39C89.8084 126.387 90.9434 127.222 92.1878 127.865C94.3312 128.973 97.1447 129.528 100.628 129.531C101.241 129.531 101.833 129.513 102.408 129.479C104.516 126.361 106.26 123.011 107.606 119.496L112.718 106.168L106.105 110.608Z" fill="black"/>
<path d="M60.0229 128.794L66.047 134.818L82.9142 118.925C77.1002 116.705 65.7957 123.008 60.0229 128.794Z" fill="#263238"/>
<path d="M81.0313 149.792C79.1071 147.864 75.0073 143.768 75.0073 143.768L90.9004 126.901C93.1069 132.701 86.8041 144.016 81.0313 149.792Z" fill="#263238"/>
<path d="M104.088 111.824L110.659 99.1525L97.9881 105.731C93.9181 107.842 90.1602 110.506 86.8213 113.648L65.2209 133.982L75.8335 144.594L96.1672 122.994C99.3107 119.654 101.976 115.895 104.088 111.824V111.824Z" fill="url(#paint80_linear)"/>
<path d="M104.088 111.824L110.659 99.1525L97.9881 105.731C93.9181 107.842 90.1602 110.506 86.8213 113.648L65.2209 133.982L75.8335 144.594L96.1672 122.994C99.3107 119.654 101.976 115.895 104.088 111.824V111.824Z" fill="url(#paint81_linear)"/>
<path opacity="0.6" d="M104.088 111.824L110.659 99.1525L97.9881 105.731C93.9181 107.842 90.1602 110.506 86.8213 113.648L65.2209 133.982L75.8335 144.594L96.1672 122.994C99.3107 119.654 101.976 115.895 104.088 111.824V111.824Z" fill="white"/>
<path d="M90.5941 123.658C93.0466 123.658 95.0347 121.67 95.0347 119.218C95.0347 116.765 93.0466 114.777 90.5941 114.777C88.1417 114.777 86.1536 116.765 86.1536 119.218C86.1536 121.67 88.1417 123.658 90.5941 123.658Z" fill="white"/>
<path d="M90.5941 122.071C92.1702 122.071 93.4478 120.794 93.4478 119.218C93.4478 117.642 92.1702 116.364 90.5941 116.364C89.0181 116.364 87.7405 117.642 87.7405 119.218C87.7405 120.794 89.0181 122.071 90.5941 122.071Z" fill="url(#paint82_linear)"/>
<path d="M90.5941 122.071C92.1702 122.071 93.4478 120.794 93.4478 119.218C93.4478 117.642 92.1702 116.364 90.5941 116.364C89.0181 116.364 87.7405 117.642 87.7405 119.218C87.7405 120.794 89.0181 122.071 90.5941 122.071Z" fill="url(#paint83_linear)"/>
<g opacity="0.3">
<path d="M79.4238 140.78L69.0315 130.388L77.5408 122.381L87.4306 132.274L79.4238 140.78Z" fill="url(#paint84_linear)"/>
<path d="M79.4238 140.78L69.0315 130.388L77.5408 122.381L87.4306 132.274L79.4238 140.78Z" fill="url(#paint85_linear)"/>
</g>
<path d="M62.3741 138.302C54.5945 138.932 52.0162 143.913 51.135 150.532C50.6875 153.909 50.4878 157.327 47.6548 159.303C47.4844 159.419 47.3561 159.587 47.2891 159.782C47.2221 159.977 47.22 160.188 47.2832 160.384C47.3464 160.58 47.4714 160.751 47.6396 160.87C47.8077 160.989 48.0099 161.05 48.2159 161.045C58.6598 160.718 63.5307 155.606 64.1434 153.472C63.9826 154.588 63.695 155.681 63.2863 156.732C63.2112 156.917 63.1964 157.121 63.2443 157.316C63.2921 157.51 63.3999 157.684 63.5525 157.813C63.7051 157.943 63.8946 158.021 64.0941 158.036C64.2935 158.051 64.4927 158.003 64.6632 157.899C67.5926 156.064 71.269 152.684 71.5134 147.2C69.3585 144.147 62.3741 138.302 62.3741 138.302Z" fill="url(#paint86_linear)"/>
<path d="M62.3741 138.302C54.5945 138.932 52.0162 143.913 51.135 150.532C50.6875 153.909 50.4878 157.327 47.6548 159.303C47.4844 159.419 47.3561 159.587 47.2891 159.782C47.2221 159.977 47.22 160.188 47.2832 160.384C47.3464 160.58 47.4714 160.751 47.6396 160.87C47.8077 160.989 48.0099 161.05 48.2159 161.045C58.6598 160.718 63.5307 155.606 64.1434 153.472C63.9826 154.588 63.695 155.681 63.2863 156.732C63.2112 156.917 63.1964 157.121 63.2443 157.316C63.2921 157.51 63.3999 157.684 63.5525 157.813C63.7051 157.943 63.8946 158.021 64.0941 158.036C64.2935 158.051 64.4927 158.003 64.6632 157.899C67.5926 156.064 71.269 152.684 71.5134 147.2C69.3585 144.147 62.3741 138.302 62.3741 138.302Z" fill="url(#paint87_linear)"/>
<path opacity="0.2" d="M62.3741 138.302C54.5945 138.932 52.0162 143.913 51.135 150.532C50.6875 153.909 50.4878 157.327 47.6548 159.303C47.4844 159.419 47.3561 159.587 47.2891 159.782C47.2221 159.977 47.22 160.188 47.2832 160.384C47.3464 160.58 47.4714 160.751 47.6396 160.87C47.8077 160.989 48.0099 161.05 48.2159 161.045C58.6598 160.718 63.5307 155.606 64.1434 153.472C63.9826 154.588 63.695 155.681 63.2863 156.732C63.2112 156.917 63.1964 157.121 63.2443 157.316C63.2921 157.51 63.3999 157.684 63.5525 157.813C63.7051 157.943 63.8946 158.021 64.0941 158.036C64.2935 158.051 64.4927 158.003 64.6632 157.899C67.5926 156.064 71.269 152.684 71.5134 147.2C69.3585 144.147 62.3741 138.302 62.3741 138.302Z" fill="white"/>
<path d="M72.7216 149.551L60.2605 137.09L66.8972 135.655L74.157 142.914L72.7216 149.551Z" fill="url(#paint88_linear)"/>
<path d="M72.7216 149.551L60.2605 137.09L66.8972 135.655L74.157 142.914L72.7216 149.551Z" fill="url(#paint89_linear)"/>
<defs>
<filter id="filter0_i" x="20.4067" y="53.8504" width="126.746" height="80.0567" filterUnits="userSpaceOnUse" color-interpolation-filters="sRGB">
<feFlood flood-opacity="0" result="BackgroundImageFix"/>
<feBlend mode="normal" in="SourceGraphic" in2="BackgroundImageFix" result="shape"/>
<feColorMatrix in="SourceAlpha" type="matrix" values="0 0 0 0 0 0 0 0 0 0 0 0 0 0 0 0 0 0 127 0" result="hardAlpha"/>
<feOffset dy="-14"/>
<feGaussianBlur stdDeviation="12.5"/>
<feComposite in2="hardAlpha" operator="arithmetic" k2="-1" k3="1"/>
<feColorMatrix type="matrix" values="0 0 0 0 0.788056 0 0 0 0 0.827193 0 0 0 0 0.89764 0 0 0 0.337126 0"/>
<feBlend mode="normal" in2="shape" result="effect1_innerShadow"/>
</filter>
<filter id="filter1_i" x="50.6606" y="-12.9994" width="125.235" height="81.8816" filterUnits="userSpaceOnUse" color-interpolation-filters="sRGB">
<feFlood flood-opacity="0" result="BackgroundImageFix"/>
<feBlend mode="normal" in="SourceGraphic" in2="BackgroundImageFix" result="shape"/>
<feColorMatrix in="SourceAlpha" type="matrix" values="0 0 0 0 0 0 0 0 0 0 0 0 0 0 0 0 0 0 127 0" result="hardAlpha"/>
<feOffset dy="-14"/>
<feGaussianBlur stdDeviation="12.5"/>
<feComposite in2="hardAlpha" operator="arithmetic" k2="-1" k3="1"/>
<feColorMatrix type="matrix" values="0 0 0 0 0.788056 0 0 0 0 0.827193 0 0 0 0 0.89764 0 0 0 0.337126 0"/>
<feBlend mode="normal" in2="shape" result="effect1_innerShadow"/>
</filter>
<linearGradient id="paint0_linear" x1="104.66" y1="125.203" x2="111.351" y2="80.1997" gradientUnits="userSpaceOnUse">
<stop stop-color="#ECF1FF"/>
<stop offset="1" stop-color="white"/>
</linearGradient>
<linearGradient id="paint1_linear" x1="133.831" y1="58.8173" x2="140.713" y2="13.5413" gradientUnits="userSpaceOnUse">
<stop stop-color="#ECF1FF"/>
<stop offset="1" stop-color="white"/>
</linearGradient>
<linearGradient id="paint2_linear" x1="105.395" y1="201.659" x2="104.994" y2="43.5691" gradientUnits="userSpaceOnUse">
<stop stop-color="#F9F7FD" stop-opacity="0"/>
<stop offset="1" stop-color="#F9F7FD"/>
</linearGradient>
<linearGradient id="paint3_linear" x1="45.5027" y1="95.1588" x2="85.1217" y2="99.8861" gradientUnits="userSpaceOnUse">
<stop stop-color="#352885"/>
<stop offset="1" stop-color="#7B61FF"/>
</linearGradient>
<linearGradient id="paint4_linear" x1="85.1519" y1="95.2896" x2="122.284" y2="99.3665" gradientUnits="userSpaceOnUse">
<stop stop-color="#352885"/>
<stop offset="1" stop-color="#7B61FF"/>
</linearGradient>
<linearGradient id="paint5_linear" x1="122.631" y1="95.1588" x2="162.269" y2="99.8905" gradientUnits="userSpaceOnUse">
<stop stop-color="#352885"/>
<stop offset="1" stop-color="#7B61FF"/>
</linearGradient>
<linearGradient id="paint6_linear" x1="81.7594" y1="71.5563" x2="81.909" y2="72.2027" gradientUnits="userSpaceOnUse">
<stop stop-color="#7B61FF"/>
<stop offset="1" stop-color="#3300FF"/>
</linearGradient>
<linearGradient id="paint7_linear" x1="82.4243" y1="72.1129" x2="82.535" y2="72.7634" gradientUnits="userSpaceOnUse">
<stop stop-color="#174293" stop-opacity="0.01"/>
<stop offset="1" stop-color="#051E4B"/>
</linearGradient>
<linearGradient id="paint8_linear" x1="38.5942" y1="96.0201" x2="38.6998" y2="96.4764" gradientUnits="userSpaceOnUse">
<stop stop-color="#7B61FF"/>
<stop offset="1" stop-color="#3300FF"/>
</linearGradient>
<linearGradient id="paint9_linear" x1="39.0635" y1="96.413" x2="39.1416" y2="96.8721" gradientUnits="userSpaceOnUse">
<stop stop-color="#174293" stop-opacity="0.01"/>
<stop offset="1" stop-color="#051E4B"/>
</linearGradient>
<linearGradient id="paint10_linear" x1="113.391" y1="161.982" x2="113.542" y2="162.635" gradientUnits="userSpaceOnUse">
<stop stop-color="#7B61FF"/>
<stop offset="1" stop-color="#3300FF"/>
</linearGradient>
<linearGradient id="paint11_linear" x1="114.063" y1="162.544" x2="114.175" y2="163.202" gradientUnits="userSpaceOnUse">
<stop stop-color="#174293" stop-opacity="0.01"/>
<stop offset="1" stop-color="#051E4B"/>
</linearGradient>
<linearGradient id="paint12_linear" x1="129.309" y1="135.906" x2="129.415" y2="136.362" gradientUnits="userSpaceOnUse">
<stop stop-color="#7B61FF"/>
<stop offset="1" stop-color="#3300FF"/>
</linearGradient>
<linearGradient id="paint13_linear" x1="129.778" y1="136.299" x2="129.856" y2="136.758" gradientUnits="userSpaceOnUse">
<stop stop-color="#174293" stop-opacity="0.01"/>
<stop offset="1" stop-color="#051E4B"/>
</linearGradient>
<linearGradient id="paint14_linear" x1="159.033" y1="54.537" x2="159.139" y2="54.9933" gradientUnits="userSpaceOnUse">
<stop stop-color="#7B61FF"/>
<stop offset="1" stop-color="#3300FF"/>
</linearGradient>
<linearGradient id="paint15_linear" x1="159.502" y1="54.9299" x2="159.581" y2="55.3891" gradientUnits="userSpaceOnUse">
<stop stop-color="#174293" stop-opacity="0.01"/>
<stop offset="1" stop-color="#051E4B"/>
</linearGradient>
<linearGradient id="paint16_linear" x1="72.487" y1="45.3737" x2="72.5926" y2="45.8299" gradientUnits="userSpaceOnUse">
<stop stop-color="#7B61FF"/>
<stop offset="1" stop-color="#3300FF"/>
</linearGradient>
<linearGradient id="paint17_linear" x1="72.9563" y1="45.7666" x2="73.0344" y2="46.2257" gradientUnits="userSpaceOnUse">
<stop stop-color="#174293" stop-opacity="0.01"/>
<stop offset="1" stop-color="#051E4B"/>
</linearGradient>
<linearGradient id="paint18_linear" x1="109.068" y1="68.7606" x2="109.174" y2="69.2169" gradientUnits="userSpaceOnUse">
<stop stop-color="#7B61FF"/>
<stop offset="1" stop-color="#3300FF"/>
</linearGradient>
<linearGradient id="paint19_linear" x1="109.538" y1="69.1535" x2="109.616" y2="69.6126" gradientUnits="userSpaceOnUse">
<stop stop-color="#174293" stop-opacity="0.01"/>
<stop offset="1" stop-color="#051E4B"/>
</linearGradient>
<linearGradient id="paint20_linear" x1="52.2527" y1="54.4824" x2="54.0056" y2="62.0556" gradientUnits="userSpaceOnUse">
<stop stop-color="#7B61FF"/>
<stop offset="1" stop-color="#3300FF"/>
</linearGradient>
<linearGradient id="paint21_linear" x1="60.0426" y1="61.0036" x2="61.3394" y2="68.6247" gradientUnits="userSpaceOnUse">
<stop stop-color="#174293" stop-opacity="0.01"/>
<stop offset="1" stop-color="#051E4B"/>
</linearGradient>
<linearGradient id="paint22_linear" x1="52.7482" y1="56.3481" x2="54.3681" y2="62.9503" gradientUnits="userSpaceOnUse">
<stop stop-color="#7B61FF"/>
<stop offset="1" stop-color="#3300FF"/>
</linearGradient>
<linearGradient id="paint23_linear" x1="59.1948" y1="62.069" x2="60.3966" y2="68.7315" gradientUnits="userSpaceOnUse">
<stop stop-color="#174293" stop-opacity="0.01"/>
<stop offset="1" stop-color="#051E4B"/>
</linearGradient>
<linearGradient id="paint24_linear" x1="57.7284" y1="57.7418" x2="57.8884" y2="58.4331" gradientUnits="userSpaceOnUse">
<stop stop-color="#7B61FF"/>
<stop offset="1" stop-color="#3300FF"/>
</linearGradient>
<linearGradient id="paint25_linear" x1="58.4395" y1="58.3371" x2="58.5579" y2="59.0327" gradientUnits="userSpaceOnUse">
<stop stop-color="#174293" stop-opacity="0.01"/>
<stop offset="1" stop-color="#051E4B"/>
</linearGradient>
<linearGradient id="paint26_linear" x1="65.8385" y1="57.0533" x2="65.9985" y2="57.7446" gradientUnits="userSpaceOnUse">
<stop stop-color="#7B61FF"/>
<stop offset="1" stop-color="#3300FF"/>
</linearGradient>
<linearGradient id="paint27_linear" x1="66.5496" y1="57.6486" x2="66.668" y2="58.3442" gradientUnits="userSpaceOnUse">
<stop stop-color="#174293" stop-opacity="0.01"/>
<stop offset="1" stop-color="#051E4B"/>
</linearGradient>
<linearGradient id="paint28_linear" x1="63.4094" y1="61.5217" x2="63.6719" y2="62.6554" gradientUnits="userSpaceOnUse">
<stop stop-color="#7B61FF"/>
<stop offset="1" stop-color="#3300FF"/>
</linearGradient>
<linearGradient id="paint29_linear" x1="64.5756" y1="62.4979" x2="64.7697" y2="63.6388" gradientUnits="userSpaceOnUse">
<stop stop-color="#174293" stop-opacity="0.01"/>
<stop offset="1" stop-color="#051E4B"/>
</linearGradient>
<linearGradient id="paint30_linear" x1="58.9182" y1="64.3559" x2="59.2687" y2="65.8698" gradientUnits="userSpaceOnUse">
<stop stop-color="#7B61FF"/>
<stop offset="1" stop-color="#3300FF"/>
</linearGradient>
<linearGradient id="paint31_linear" x1="60.4755" y1="65.6595" x2="60.7347" y2="67.1831" gradientUnits="userSpaceOnUse">
<stop stop-color="#174293" stop-opacity="0.01"/>
<stop offset="1" stop-color="#051E4B"/>
</linearGradient>
<linearGradient id="paint32_linear" x1="137.016" y1="158.992" x2="143.838" y2="159.021" gradientUnits="userSpaceOnUse">
<stop stop-color="#7B61FF"/>
<stop offset="1" stop-color="#3300FF"/>
</linearGradient>
<linearGradient id="paint33_linear" x1="144.157" y1="153.652" x2="150.928" y2="154.081" gradientUnits="userSpaceOnUse">
<stop stop-color="#174293" stop-opacity="0.01"/>
<stop offset="1" stop-color="#051E4B"/>
</linearGradient>
<linearGradient id="paint34_linear" x1="139.19" y1="146.094" x2="140.709" y2="152.074" gradientUnits="userSpaceOnUse">
<stop stop-color="#7B61FF"/>
<stop offset="1" stop-color="#3300FF"/>
</linearGradient>
<linearGradient id="paint35_linear" x1="144.854" y1="151.297" x2="145.983" y2="157.342" gradientUnits="userSpaceOnUse">
<stop stop-color="#174293" stop-opacity="0.01"/>
<stop offset="1" stop-color="#051E4B"/>
</linearGradient>
<linearGradient id="paint36_linear" x1="132.117" y1="149.389" x2="132.512" y2="153.674" gradientUnits="userSpaceOnUse">
<stop stop-color="#7B61FF"/>
<stop offset="1" stop-color="#3300FF"/>
</linearGradient>
<linearGradient id="paint37_linear" x1="142.722" y1="152.921" x2="143.008" y2="157.15" gradientUnits="userSpaceOnUse">
<stop stop-color="#174293" stop-opacity="0.01"/>
<stop offset="1" stop-color="#051E4B"/>
</linearGradient>
<linearGradient id="paint38_linear" x1="71.2647" y1="62.6246" x2="82.558" y2="104.878" gradientUnits="userSpaceOnUse">
<stop stop-color="#7B61FF"/>
<stop offset="1" stop-color="#3300FF"/>
</linearGradient>
<linearGradient id="paint39_linear" x1="109.539" y1="99.6253" x2="117.957" y2="142.465" gradientUnits="userSpaceOnUse">
<stop stop-color="#174293" stop-opacity="0.01"/>
<stop offset="1" stop-color="#051E4B"/>
</linearGradient>
<linearGradient id="paint40_linear" x1="120.039" y1="55.3793" x2="121.989" y2="61.3707" gradientUnits="userSpaceOnUse">
<stop stop-color="#7B61FF"/>
<stop offset="1" stop-color="#3300FF"/>
</linearGradient>
<linearGradient id="paint41_linear" x1="124.639" y1="60.7948" x2="126.113" y2="66.9543" gradientUnits="userSpaceOnUse">
<stop stop-color="#174293" stop-opacity="0.01"/>
<stop offset="1" stop-color="#051E4B"/>
</linearGradient>
<linearGradient id="paint42_linear" x1="119.006" y1="66.6159" x2="124.133" y2="77.2648" gradientUnits="userSpaceOnUse">
<stop stop-color="#7B61FF"/>
<stop offset="1" stop-color="#3300FF"/>
</linearGradient>
<linearGradient id="paint43_linear" x1="125.163" y1="77.3362" x2="129.218" y2="88.7926" gradientUnits="userSpaceOnUse">
<stop stop-color="#174293" stop-opacity="0.01"/>
<stop offset="1" stop-color="#051E4B"/>
</linearGradient>
<linearGradient id="paint44_linear" x1="127.961" y1="85.0263" x2="128.293" y2="86.5908" gradientUnits="userSpaceOnUse">
<stop stop-color="#7B61FF"/>
<stop offset="1" stop-color="#3300FF"/>
</linearGradient>
<linearGradient id="paint45_linear" x1="129.7" y1="86.3627" x2="129.945" y2="87.9314" gradientUnits="userSpaceOnUse">
<stop stop-color="#174293" stop-opacity="0.01"/>
<stop offset="1" stop-color="#051E4B"/>
</linearGradient>
<linearGradient id="paint46_linear" x1="132.356" y1="86.7805" x2="132.799" y2="87.5198" gradientUnits="userSpaceOnUse">
<stop stop-color="#7B61FF"/>
<stop offset="1" stop-color="#3300FF"/>
</linearGradient>
<linearGradient id="paint47_linear" x1="132.735" y1="87.6019" x2="133.1" y2="88.429" gradientUnits="userSpaceOnUse">
<stop stop-color="#174293" stop-opacity="0.01"/>
<stop offset="1" stop-color="#051E4B"/>
</linearGradient>
<linearGradient id="paint48_linear" x1="106.693" y1="56.9419" x2="107.155" y2="60.4203" gradientUnits="userSpaceOnUse">
<stop stop-color="#7B61FF"/>
<stop offset="1" stop-color="#3300FF"/>
</linearGradient>
<linearGradient id="paint49_linear" x1="112.72" y1="59.8349" x2="113.056" y2="63.2809" gradientUnits="userSpaceOnUse">
<stop stop-color="#174293" stop-opacity="0.01"/>
<stop offset="1" stop-color="#051E4B"/>
</linearGradient>
<linearGradient id="paint50_linear" x1="107.161" y1="56.0738" x2="107.501" y2="57.583" gradientUnits="userSpaceOnUse">
<stop stop-color="#7B61FF"/>
<stop offset="1" stop-color="#3300FF"/>
</linearGradient>
<linearGradient id="paint51_linear" x1="108.75" y1="57.37" x2="109.001" y2="58.887" gradientUnits="userSpaceOnUse">
<stop stop-color="#174293" stop-opacity="0.01"/>
<stop offset="1" stop-color="#051E4B"/>
</linearGradient>
<linearGradient id="paint52_linear" x1="115.257" y1="54.7158" x2="117.248" y2="61.6538" gradientUnits="userSpaceOnUse">
<stop stop-color="#7B61FF"/>
<stop offset="1" stop-color="#3300FF"/>
</linearGradient>
<linearGradient id="paint53_linear" x1="121.17" y1="60.8532" x2="122.661" y2="67.919" gradientUnits="userSpaceOnUse">
<stop stop-color="#174293" stop-opacity="0.01"/>
<stop offset="1" stop-color="#051E4B"/>
</linearGradient>
<linearGradient id="paint54_linear" x1="124.45" y1="58.1176" x2="124.787" y2="59.4388" gradientUnits="userSpaceOnUse">
<stop stop-color="#7B61FF"/>
<stop offset="1" stop-color="#3300FF"/>
</linearGradient>
<linearGradient id="paint55_linear" x1="125.694" y1="59.268" x2="125.945" y2="60.6042" gradientUnits="userSpaceOnUse">
<stop stop-color="#174293" stop-opacity="0.01"/>
<stop offset="1" stop-color="#051E4B"/>
</linearGradient>
<linearGradient id="paint56_linear" x1="115.534" y1="49.714" x2="116.408" y2="53.3232" gradientUnits="userSpaceOnUse">
<stop stop-color="#7B61FF"/>
<stop offset="1" stop-color="#3300FF"/>
</linearGradient>
<linearGradient id="paint57_linear" x1="119.101" y1="52.8367" x2="119.749" y2="56.4766" gradientUnits="userSpaceOnUse">
<stop stop-color="#174293" stop-opacity="0.01"/>
<stop offset="1" stop-color="#051E4B"/>
</linearGradient>
<linearGradient id="paint58_linear" x1="119.756" y1="65.7333" x2="121.647" y2="74.9106" gradientUnits="userSpaceOnUse">
<stop stop-color="#7B61FF"/>
<stop offset="1" stop-color="#3300FF"/>
</linearGradient>
<linearGradient id="paint59_linear" x1="130.248" y1="73.5524" x2="131.641" y2="82.7439" gradientUnits="userSpaceOnUse">
<stop stop-color="#174293" stop-opacity="0.01"/>
<stop offset="1" stop-color="#051E4B"/>
</linearGradient>
<linearGradient id="paint60_linear" x1="139.736" y1="77.8148" x2="140.715" y2="79.2637" gradientUnits="userSpaceOnUse">
<stop stop-color="#7B61FF"/>
<stop offset="1" stop-color="#3300FF"/>
</linearGradient>
<linearGradient id="paint61_linear" x1="140.442" y1="79.5396" x2="141.268" y2="81.2032" gradientUnits="userSpaceOnUse">
<stop stop-color="#174293" stop-opacity="0.01"/>
<stop offset="1" stop-color="#051E4B"/>
</linearGradient>
<linearGradient id="paint62_linear" x1="142.364" y1="78.2302" x2="142.539" y2="78.9214" gradientUnits="userSpaceOnUse">
<stop stop-color="#7B61FF"/>
<stop offset="1" stop-color="#3300FF"/>
</linearGradient>
<linearGradient id="paint63_linear" x1="143.02" y1="78.8314" x2="143.15" y2="79.5301" gradientUnits="userSpaceOnUse">
<stop stop-color="#174293" stop-opacity="0.01"/>
<stop offset="1" stop-color="#051E4B"/>
</linearGradient>
<linearGradient id="paint64_linear" x1="119.589" y1="65.4336" x2="119.817" y2="67.4656" gradientUnits="userSpaceOnUse">
<stop stop-color="#7B61FF"/>
<stop offset="1" stop-color="#3300FF"/>
</linearGradient>
<linearGradient id="paint65_linear" x1="123.73" y1="67.1153" x2="123.895" y2="69.1238" gradientUnits="userSpaceOnUse">
<stop stop-color="#174293" stop-opacity="0.01"/>
<stop offset="1" stop-color="#051E4B"/>
</linearGradient>
<linearGradient id="paint66_linear" x1="120.029" y1="54.3241" x2="121.138" y2="59.603" gradientUnits="userSpaceOnUse">
<stop stop-color="#7B61FF"/>
<stop offset="1" stop-color="#3300FF"/>
</linearGradient>
<linearGradient id="paint67_linear" x1="125.956" y1="58.8291" x2="126.773" y2="64.12" gradientUnits="userSpaceOnUse">
<stop stop-color="#174293" stop-opacity="0.01"/>
<stop offset="1" stop-color="#051E4B"/>
</linearGradient>
<linearGradient id="paint68_linear" x1="131.068" y1="63.4127" x2="131.431" y2="64.9225" gradientUnits="userSpaceOnUse">
<stop stop-color="#7B61FF"/>
<stop offset="1" stop-color="#3300FF"/>
</linearGradient>
<linearGradient id="paint69_linear" x1="132.567" y1="64.7182" x2="132.837" y2="66.2404" gradientUnits="userSpaceOnUse">
<stop stop-color="#174293" stop-opacity="0.01"/>
<stop offset="1" stop-color="#051E4B"/>
</linearGradient>
<linearGradient id="paint70_linear" x1="119.381" y1="58.545" x2="120.298" y2="61.58" gradientUnits="userSpaceOnUse">
<stop stop-color="#7B61FF"/>
<stop offset="1" stop-color="#3300FF"/>
</linearGradient>
<linearGradient id="paint71_linear" x1="121.857" y1="61.2521" x2="122.546" y2="64.3542" gradientUnits="userSpaceOnUse">
<stop stop-color="#174293" stop-opacity="0.01"/>
<stop offset="1" stop-color="#051E4B"/>
</linearGradient>
<linearGradient id="paint72_linear" x1="119.078" y1="60.4138" x2="119.284" y2="61.3056" gradientUnits="userSpaceOnUse">
<stop stop-color="#7B61FF"/>
<stop offset="1" stop-color="#3300FF"/>
</linearGradient>
<linearGradient id="paint73_linear" x1="119.995" y1="61.1817" x2="120.148" y2="62.0791" gradientUnits="userSpaceOnUse">
<stop stop-color="#174293" stop-opacity="0.01"/>
<stop offset="1" stop-color="#051E4B"/>
</linearGradient>
<linearGradient id="paint74_linear" x1="121.128" y1="60.0219" x2="121.196" y2="60.3158" gradientUnits="userSpaceOnUse">
<stop stop-color="#7B61FF"/>
<stop offset="1" stop-color="#3300FF"/>
</linearGradient>
<linearGradient id="paint75_linear" x1="121.43" y1="60.2749" x2="121.481" y2="60.5706" gradientUnits="userSpaceOnUse">
<stop stop-color="#174293" stop-opacity="0.01"/>
<stop offset="1" stop-color="#051E4B"/>
</linearGradient>
<linearGradient id="paint76_linear" x1="121.896" y1="59.7073" x2="121.969" y2="60.0119" gradientUnits="userSpaceOnUse">
<stop stop-color="#7B61FF"/>
<stop offset="1" stop-color="#3300FF"/>
</linearGradient>
<linearGradient id="paint77_linear" x1="122.201" y1="59.9704" x2="122.255" y2="60.2774" gradientUnits="userSpaceOnUse">
<stop stop-color="#174293" stop-opacity="0.01"/>
<stop offset="1" stop-color="#051E4B"/>
</linearGradient>
<linearGradient id="paint78_linear" x1="119.643" y1="62.1269" x2="119.77" y2="63.1065" gradientUnits="userSpaceOnUse">
<stop stop-color="#7B61FF"/>
<stop offset="1" stop-color="#3300FF"/>
</linearGradient>
<linearGradient id="paint79_linear" x1="121.385" y1="62.9409" x2="121.477" y2="63.911" gradientUnits="userSpaceOnUse">
<stop stop-color="#174293" stop-opacity="0.01"/>
<stop offset="1" stop-color="#051E4B"/>
</linearGradient>
<linearGradient id="paint80_linear" x1="56.4033" y1="98.8116" x2="61.6842" y2="121.626" gradientUnits="userSpaceOnUse">
<stop stop-color="#7B61FF"/>
<stop offset="1" stop-color="#3300FF"/>
</linearGradient>
<linearGradient id="paint81_linear" x1="79.8688" y1="118.457" x2="83.7758" y2="141.416" gradientUnits="userSpaceOnUse">
<stop stop-color="#174293" stop-opacity="0.01"/>
<stop offset="1" stop-color="#051E4B"/>
</linearGradient>
<linearGradient id="paint82_linear" x1="86.6329" y1="116.321" x2="87.2961" y2="119.187" gradientUnits="userSpaceOnUse">
<stop stop-color="#7B61FF"/>
<stop offset="1" stop-color="#3300FF"/>
</linearGradient>
<linearGradient id="paint83_linear" x1="89.5803" y1="118.789" x2="90.071" y2="121.672" gradientUnits="userSpaceOnUse">
<stop stop-color="#174293" stop-opacity="0.01"/>
<stop offset="1" stop-color="#051E4B"/>
</linearGradient>
<linearGradient id="paint84_linear" x1="65.461" y1="122.243" x2="67.5991" y2="131.481" gradientUnits="userSpaceOnUse">
<stop stop-color="#7B61FF"/>
<stop offset="1" stop-color="#3300FF"/>
</linearGradient>
<linearGradient id="paint85_linear" x1="74.9628" y1="130.197" x2="76.5446" y2="139.493" gradientUnits="userSpaceOnUse">
<stop stop-color="#174293" stop-opacity="0.01"/>
<stop offset="1" stop-color="#051E4B"/>
</linearGradient>
<linearGradient id="paint86_linear" x1="42.5264" y1="138.131" x2="45.0179" y2="149.621" gradientUnits="userSpaceOnUse">
<stop stop-color="#7B61FF"/>
<stop offset="1" stop-color="#3300FF"/>
</linearGradient>
<linearGradient id="paint87_linear" x1="55.0631" y1="147.964" x2="56.9013" y2="159.494" gradientUnits="userSpaceOnUse">
<stop stop-color="#174293" stop-opacity="0.01"/>
<stop offset="1" stop-color="#051E4B"/>
</linearGradient>
<linearGradient id="paint88_linear" x1="57.5638" y1="135.55" x2="59.1786" y2="142.527" gradientUnits="userSpaceOnUse">
<stop stop-color="#7B61FF"/>
<stop offset="1" stop-color="#3300FF"/>
</linearGradient>
<linearGradient id="paint89_linear" x1="64.7403" y1="141.558" x2="65.935" y2="148.579" gradientUnits="userSpaceOnUse">
<stop stop-color="#174293" stop-opacity="0.01"/>
<stop offset="1" stop-color="#051E4B"/>
</linearGradient>
</defs>
</svg>
