<svg width="161" height="160" viewBox="0 0 161 160" fill="none" xmlns="http://www.w3.org/2000/svg">
<g clip-path="url(#clip0)">
<path d="M13.834 70C13.834 33.1811 43.6817 3.33337 80.5007 3.33337C117.32 3.33337 147.167 33.1811 147.167 70V163.333H13.834V70Z" fill="#E0E0E0"/>
<mask id="mask0" style="mask-type:alpha" maskUnits="userSpaceOnUse" x="13" y="3" width="135" height="161">
<path d="M13.834 70C13.834 33.181 43.6817 3.33337 80.5007 3.33337C117.32 3.33337 147.167 33.181 147.167 70V163.739H13.834V70Z" fill="#FAFAFA"/>
</mask>
<g mask="url(#mask0)">
<path fill-rule="evenodd" clip-rule="evenodd" d="M145.633 82.6534C157.641 96.0547 160.649 115.078 158.049 136.868C154.38 167.614 157.648 205.31 128.358 227.411C98.9812 249.578 70.3233 231.815 46.0414 221.385C28.301 213.764 21.2878 196.693 14.4034 178.46C4.91975 153.344 -20.4465 129.938 0.019868 99.5016C20.6077 68.8843 49.903 114.726 81.0919 111.117C104.163 108.447 132.907 68.4511 145.633 82.6534Z" fill="#FAFAFA"/>
</g>
<ellipse cx="99.6667" cy="77.5" rx="19.1667" ry="19.1667" fill="#828085"/>
<g filter="url(#filter0_bdi)">
<path fill-rule="evenodd" clip-rule="evenodd" d="M66.4694 41.5349H94.5314C98.9497 41.5349 102.531 45.1166 102.531 49.5349V73.1783H58.4694V49.5349C58.4694 45.1166 62.0511 41.5349 66.4694 41.5349ZM56.4694 73.1783V49.5349C56.4694 44.0121 60.9465 39.5349 66.4694 39.5349H94.5314C100.054 39.5349 104.531 44.0121 104.531 49.5349V73.1783H115.95C117.607 73.1783 118.95 74.5215 118.95 76.1783V123.047C118.95 124.703 117.607 126.047 115.95 126.047H45.0508C43.3939 126.047 42.0508 124.703 42.0508 123.047V76.1783C42.0508 74.5215 43.3939 73.1783 45.0508 73.1783H56.4694Z" fill="#6B676F" fill-opacity="0.5"/>
</g>
<g filter="url(#filter1_i)">
<path fill-rule="evenodd" clip-rule="evenodd" d="M85.3053 100.729C88.1785 99.0675 90.1115 95.961 90.1115 92.4031C90.1115 87.0943 85.8079 82.7906 80.4991 82.7906C75.1903 82.7906 70.8867 87.0943 70.8867 92.4031C70.8867 95.961 72.8198 99.0675 75.6929 100.729V115.434C75.6929 115.986 76.1406 116.434 76.6929 116.434H84.3053C84.8576 116.434 85.3053 115.986 85.3053 115.434L85.3053 100.729Z" fill="white" fill-opacity="0.16"/>
</g>
</g>
<defs>
<filter id="filter0_bdi" x="26.0508" y="27.5349" width="108.898" height="118.512" filterUnits="userSpaceOnUse" color-interpolation-filters="sRGB">
<feFlood flood-opacity="0" result="BackgroundImageFix"/>
<feGaussianBlur in="BackgroundImage" stdDeviation="1.5"/>
<feComposite in2="SourceAlpha" operator="in" result="effect1_backgroundBlur"/>
<feColorMatrix in="SourceAlpha" type="matrix" values="0 0 0 0 0 0 0 0 0 0 0 0 0 0 0 0 0 0 127 0" result="hardAlpha"/>
<feOffset dy="4"/>
<feGaussianBlur stdDeviation="8"/>
<feColorMatrix type="matrix" values="0 0 0 0 0 0 0 0 0 0 0 0 0 0 0 0 0 0 0.08 0"/>
<feBlend mode="normal" in2="effect1_backgroundBlur" result="effect2_dropShadow"/>
<feBlend mode="normal" in="SourceGraphic" in2="effect2_dropShadow" result="shape"/>
<feColorMatrix in="SourceAlpha" type="matrix" values="0 0 0 0 0 0 0 0 0 0 0 0 0 0 0 0 0 0 127 0" result="hardAlpha"/>
<feOffset dy="0.5"/>
<feGaussianBlur stdDeviation="1"/>
<feComposite in2="hardAlpha" operator="arithmetic" k2="-1" k3="1"/>
<feColorMatrix type="matrix" values="0 0 0 0 1 0 0 0 0 1 0 0 0 0 1 0 0 0 0.4 0"/>
<feBlend mode="normal" in2="shape" result="effect3_innerShadow"/>
</filter>
<filter id="filter1_i" x="70.8867" y="82.7906" width="19.2246" height="34.1434" filterUnits="userSpaceOnUse" color-interpolation-filters="sRGB">
<feFlood flood-opacity="0" result="BackgroundImageFix"/>
<feBlend mode="normal" in="SourceGraphic" in2="BackgroundImageFix" result="shape"/>
<feColorMatrix in="SourceAlpha" type="matrix" values="0 0 0 0 0 0 0 0 0 0 0 0 0 0 0 0 0 0 127 0" result="hardAlpha"/>
<feOffset dy="0.5"/>
<feGaussianBlur stdDeviation="0.25"/>
<feComposite in2="hardAlpha" operator="arithmetic" k2="-1" k3="1"/>
<feColorMatrix type="matrix" values="0 0 0 0 1 0 0 0 0 1 0 0 0 0 1 0 0 0 0.4 0"/>
<feBlend mode="normal" in2="shape" result="effect1_innerShadow"/>
</filter>
<clipPath id="clip0">
<path d="M0.5 0H160.5V160H0.5V0Z" fill="white"/>
</clipPath>
</defs>
</svg>
