<svg width="250" height="200" viewBox="0 0 250 200" fill="none" xmlns="http://www.w3.org/2000/svg">
<path fill-rule="evenodd" clip-rule="evenodd" d="M63 134H154C154.515 134 155.017 133.944 155.5 133.839C155.983 133.944 156.485 134 157 134H209C212.866 134 216 130.866 216 127C216 123.134 212.866 120 209 120H203C199.134 120 196 116.866 196 113C196 109.134 199.134 106 203 106H222C225.866 106 229 102.866 229 99C229 95.134 225.866 92 222 92H200C203.866 92 207 88.866 207 85C207 81.134 203.866 78 200 78H136C139.866 78 143 74.866 143 71C143 67.134 139.866 64 136 64H79C75.134 64 72 67.134 72 71C72 74.866 75.134 78 79 78H39C35.134 78 32 81.134 32 85C32 88.866 35.134 92 39 92H64C67.866 92 71 95.134 71 99C71 102.866 67.866 106 64 106H24C20.134 106 17 109.134 17 113C17 116.866 20.134 120 24 120H63C59.134 120 56 123.134 56 127C56 130.866 59.134 134 63 134ZM226 134C229.866 134 233 130.866 233 127C233 123.134 229.866 120 226 120C222.134 120 219 123.134 219 127C219 130.866 222.134 134 226 134Z" fill="#F9F7FD"/>
<path fill-rule="evenodd" clip-rule="evenodd" d="M168.577 126.075C166.143 128.034 163.488 129.81 160.644 131.374L160.809 145.457C160.822 146.562 159.937 147.467 158.832 147.48C158.383 147.486 157.945 147.339 157.589 147.066L144.926 137.323C140.18 138.416 135.173 139 130 139C99.6243 139 75 118.853 75 94C75 69.1472 99.6243 49 130 49C160.376 49 185 69.1472 185 94C185 100.879 183.114 107.397 179.741 113.227C179.119 114.303 178.446 115.355 177.726 116.381M175.193 119.654C174.279 120.73 173.309 121.771 172.287 122.776L175.193 119.654Z" fill="white"/>
<path fill-rule="evenodd" clip-rule="evenodd" d="M130 50.25C100.068 50.25 76.25 70.0604 76.25 94C76.25 117.94 100.068 137.75 130 137.75C135.079 137.75 139.992 137.176 144.646 136.105L145.221 135.973L158.351 146.075C158.485 146.178 158.649 146.232 158.818 146.23C159.232 146.226 159.564 145.886 159.559 145.472L159.385 130.639L160.042 130.278C162.823 128.749 165.418 127.013 167.793 125.101C168.33 124.668 169.117 124.753 169.55 125.291C169.983 125.829 169.898 126.615 169.361 127.048C167.057 128.903 164.562 130.595 161.903 132.103L162.059 145.442C162.08 147.237 160.642 148.709 158.847 148.73C158.117 148.739 157.405 148.501 156.827 148.056L144.629 138.671C139.963 139.701 135.058 140.25 130 140.25C99.1802 140.25 73.75 119.766 73.75 94C73.75 68.234 99.1802 47.75 130 47.75C160.82 47.75 186.25 68.234 186.25 94C186.25 101.113 184.298 107.846 180.823 113.853C180.182 114.961 179.49 116.043 178.749 117.099C178.352 117.664 177.573 117.801 177.008 117.404C176.443 117.007 176.306 116.228 176.703 115.663C177.403 114.666 178.056 113.645 178.659 112.601C181.929 106.948 183.75 100.645 183.75 94C183.75 70.0604 159.932 50.25 130 50.25ZM176.002 118.702C176.528 119.148 176.593 119.937 176.146 120.463C175.207 121.568 174.212 122.637 173.163 123.667C172.671 124.151 171.879 124.144 171.396 123.652C170.912 123.159 170.919 122.368 171.411 121.884C172.407 120.905 173.351 119.891 174.24 118.845C174.687 118.319 175.476 118.255 176.002 118.702Z" fill="#AB99E0"/>
<path fill-rule="evenodd" clip-rule="evenodd" d="M116 94C116 97.3137 113.314 100 110 100C106.686 100 104 97.3137 104 94C104 90.6863 106.686 88 110 88C113.314 88 116 90.6863 116 94ZM135 94C135 97.3137 132.314 100 129 100C125.686 100 123 97.3137 123 94C123 90.6863 125.686 88 129 88C132.314 88 135 90.6863 135 94ZM148 100C151.314 100 154 97.3137 154 94C154 90.6863 151.314 88 148 88C144.686 88 142 90.6863 142 94C142 97.3137 144.686 100 148 100Z" fill="#CBC0EC"/>
<path fill-rule="evenodd" clip-rule="evenodd" d="M102.75 94C102.75 89.9959 105.996 86.75 110 86.75C114.004 86.75 117.25 89.9959 117.25 94C117.25 98.0041 114.004 101.25 110 101.25C105.996 101.25 102.75 98.0041 102.75 94ZM110 89.25C107.377 89.25 105.25 91.3766 105.25 94C105.25 96.6234 107.377 98.75 110 98.75C112.623 98.75 114.75 96.6234 114.75 94C114.75 91.3766 112.623 89.25 110 89.25ZM121.75 94C121.75 89.9959 124.996 86.75 129 86.75C133.004 86.75 136.25 89.9959 136.25 94C136.25 98.0041 133.004 101.25 129 101.25C124.996 101.25 121.75 98.0041 121.75 94ZM129 89.25C126.377 89.25 124.25 91.3766 124.25 94C124.25 96.6234 126.377 98.75 129 98.75C131.623 98.75 133.75 96.6234 133.75 94C133.75 91.3766 131.623 89.25 129 89.25ZM148 89.25C145.377 89.25 143.25 91.3766 143.25 94C143.25 96.6234 145.377 98.75 148 98.75C150.623 98.75 152.75 96.6234 152.75 94C152.75 91.3766 150.623 89.25 148 89.25ZM140.75 94C140.75 89.9959 143.996 86.75 148 86.75C152.004 86.75 155.25 89.9959 155.25 94C155.25 98.0041 152.004 101.25 148 101.25C143.996 101.25 140.75 98.0041 140.75 94Z" fill="#AB99E0"/>
<path fill-rule="evenodd" clip-rule="evenodd" d="M86.5351 79.455C86.8104 78.8973 87.4255 78.0611 88.4869 78.0611C89.5484 78.0611 90.1635 78.8973 90.4388 79.455C90.7533 80.092 90.9121 80.8845 90.9121 81.6916C90.9121 82.4987 90.7533 83.2912 90.4388 83.9282C90.1635 84.4858 89.5484 85.3221 88.4869 85.3221C87.4255 85.3221 86.8104 84.4858 86.5351 83.9282C86.2206 83.2912 86.0618 82.4987 86.0618 81.6916C86.0618 80.8845 86.2206 80.092 86.5351 79.455Z" fill="#CBC0EC"/>
<path fill-rule="evenodd" clip-rule="evenodd" d="M99.9806 64.3232C95.9533 64.3232 93.1893 66.8869 93.1893 69.4968C93.1893 72.1066 95.9533 74.6703 99.9806 74.6703C104.008 74.6703 106.772 72.1066 106.772 69.4968C106.772 66.8869 104.008 64.3232 99.9806 64.3232ZM90.6893 69.4968C90.6893 65.0114 95.1257 61.8232 99.9806 61.8232C104.836 61.8232 109.272 65.0114 109.272 69.4968C109.272 73.9821 104.836 77.1703 99.9806 77.1703C95.1257 77.1703 90.6893 73.9821 90.6893 69.4968Z" fill="#CBC0EC"/>
</svg>
