<svg width="154" height="151" viewBox="0 0 154 151" fill="none" xmlns="http://www.w3.org/2000/svg">
<path d="M76.568 126C109.368 126 135.968 99.6 135.968 67C135.968 34.4 109.368 8 76.568 8C43.768 8 17.168 34.4 17.168 67C17.168 99.6 43.768 126 76.568 126Z" fill="#EAEEF9"/>
<path d="M134.45 38.8001C136.714 38.8001 138.55 36.9645 138.55 34.7001C138.55 32.4357 136.714 30.6001 134.45 30.6001C132.186 30.6001 130.35 32.4357 130.35 34.7001C130.35 36.9645 132.186 38.8001 134.45 38.8001Z" fill="#EAEEF9"/>
<path d="M130.35 25.4999C131.897 25.4999 133.15 24.2463 133.15 22.6999C133.15 21.1535 131.897 19.8999 130.35 19.8999C128.804 19.8999 127.55 21.1535 127.55 22.6999C127.55 24.2463 128.804 25.4999 130.35 25.4999Z" fill="#EAEEF9"/>
<path d="M16.9504 34.7001C18.4968 34.7001 19.7504 33.4465 19.7504 31.9001C19.7504 30.3537 18.4968 29.1001 16.9504 29.1001C15.404 29.1001 14.1504 30.3537 14.1504 31.9001C14.1504 33.4465 15.404 34.7001 16.9504 34.7001Z" fill="#EAEEF9"/>
<path d="M10.6502 96.2999C13.5221 96.2999 15.8502 93.9718 15.8502 91.0999C15.8502 88.228 13.5221 85.8999 10.6502 85.8999C7.77831 85.8999 5.4502 88.228 5.4502 91.0999C5.4502 93.9718 7.77831 96.2999 10.6502 96.2999Z" fill="#EAEEF9"/>
<g filter="url(#filter0_d_211_15769)">
<path d="M131.293 52.393V106.534C131.293 106.757 131.293 106.869 131.293 107.092C131.182 110.217 129.73 112.897 127.498 114.794C125.6 116.469 123.033 117.585 120.242 117.585H32.8355C30.9377 117.585 29.1517 117.139 27.5888 116.245C26.9191 115.911 26.2493 115.464 25.6911 114.906C24.4632 113.901 23.3469 112.45 22.7887 110.887C22.3422 109.771 22.0073 108.543 22.0073 107.315V52.393C22.0073 52.393 26.5842 48.486 33.1703 43.1277C39.9798 37.4346 48.9102 30.067 56.7243 23.5924C61.1895 19.797 60.743 20.2435 67.6641 14.4387C72.9107 9.97354 80.6132 9.97354 85.8598 14.4387C87.1994 15.5551 88.6506 16.8946 89.9901 18.0109C92.8925 20.3552 96.0181 23.0343 99.3671 25.825C106.4 31.6298 114.102 38.1044 120.13 43.1277C126.27 48.1511 130.735 51.9465 131.293 52.393Z" fill="url(#paint0_linear_211_15769)"/>
</g>
<path d="M120.13 43.0159V62.4396L101.042 73.9375L95.3485 77.398L83.2925 84.654L77.5993 88.1145L75.1435 89.5657L72.7992 88.1145L67.441 84.654L55.9431 77.398L50.5848 73.9375L32.9473 62.8861V43.1276C39.7567 37.4344 48.6871 30.0668 56.5012 23.5923L99.2556 25.7133C106.4 31.6297 114.102 37.9926 120.13 43.0159Z" fill="#989FB0"/>
<path d="M116.335 27.6111V61.7699L98.9204 72.1516L93.7854 75.2772L82.734 81.7518L77.599 84.8774L75.3664 86.1053L73.2454 84.8774L68.3337 81.7518L57.8405 75.2772L52.9288 72.1516L36.854 62.1048V27.6111C36.854 24.0389 39.7564 21.1365 43.4402 21.1365H109.749C113.321 21.0249 116.335 24.0389 116.335 27.6111Z" fill="white"/>
<path opacity="0.5" d="M22.4536 52.1699L74.9198 55.6305L130.512 52.1699L128.391 62.105C128.391 62.105 76.1477 89.3428 76.4826 89.3428C76.8175 89.3428 22.5652 57.0817 22.5652 57.0817L22.4536 52.1699Z" fill="url(#paint1_linear_211_15769)"/>
<path d="M131.293 52.3931V107.092C131.182 110.218 129.73 112.897 127.498 114.794C125.6 116.469 123.033 117.585 120.242 117.585H32.8355C30.9377 117.585 29.1517 117.139 27.5888 116.246C26.9191 115.911 26.2493 115.464 25.6911 114.906C24.4632 113.901 23.3469 112.45 22.7887 110.887C22.3422 109.771 22.0073 108.543 22.0073 107.315V107.203V52.3931L70.9014 82.9797L75.1433 85.6589L76.5945 84.7658L77.9341 83.9844L131.293 52.3931Z" fill="#738DFF"/>
<path d="M127.609 114.794C125.712 116.469 123.144 117.585 120.354 117.585H32.8355C30.9377 117.585 29.1517 117.139 27.5888 116.246C26.9191 115.911 26.2493 115.464 25.6911 114.906C24.4632 113.901 23.3469 112.45 22.7887 110.887C22.3422 109.771 22.0073 108.543 22.0073 107.315V107.203V52.3931L27.7005 55.8536L76.5945 84.7658L77.934 85.5472L78.0457 85.6589L121.916 111.557L127.609 114.794Z" fill="url(#paint2_linear_211_15769)"/>
<path d="M77.9339 83.8729V87.6683L27.5887 116.246C26.9189 115.911 26.2491 115.464 25.691 114.906C24.463 113.901 23.3467 112.45 22.7886 110.887L71.7942 81.8635L76.0362 84.5427L76.5943 84.7659L77.9339 83.8729Z" fill="url(#paint3_linear_211_15769)"/>
<path d="M22.0073 52.3931L76.5945 84.7658" stroke="white" stroke-miterlimit="10"/>
<path d="M131.293 52.3931V107.092C131.181 110.218 129.73 112.897 127.498 114.794C125.6 116.469 123.032 117.585 120.242 117.585H32.8353C30.9375 117.585 29.1515 117.139 27.5886 116.246C26.9189 115.911 26.2491 115.464 25.6909 114.906L31.2724 111.557L75.1431 85.6589L76.5943 84.7658L77.9339 83.9844L125.488 55.742L131.293 52.3931Z" fill="url(#paint4_linear_211_15769)"/>
<path d="M131.293 52.3931L77.9339 83.8728L76.5943 84.7658L75.1431 85.6589L25.6909 114.794" stroke="white" stroke-miterlimit="10"/>
<path d="M118.121 90.6822H89.0971C88.4273 90.6822 87.8691 90.124 87.8691 89.4542C87.8691 88.7845 88.4273 88.2263 89.0971 88.2263H118.121C118.791 88.2263 119.349 88.7845 119.349 89.4542C119.46 90.124 118.902 90.6822 118.121 90.6822Z" fill="#CED7E2"/>
<path d="M118.121 99.0545H89.0971C88.4273 99.0545 87.8691 98.4963 87.8691 97.8266C87.8691 97.1568 88.4273 96.5986 89.0971 96.5986H118.121C118.791 96.5986 119.349 97.1568 119.349 97.8266C119.46 98.4963 118.902 99.0545 118.121 99.0545Z" fill="#CED7E2"/>
<path d="M124.149 116.469L127.721 114.683C127.609 114.794 127.609 114.794 127.498 114.906C127.498 114.906 127.498 114.906 127.386 114.906L124.149 116.469Z" fill="#526DFF"/>
<path d="M73.8007 63.8154C72.9355 63.8154 72.1212 63.4974 71.4595 62.8085L60.2121 51.0964C58.9397 49.7715 58.9397 47.5457 60.2121 46.2208C61.4844 44.896 63.6219 44.896 64.8943 46.2208L73.8007 55.4951L94.7688 33.7139C96.0411 32.389 98.1787 32.389 99.451 33.7139C100.723 35.0388 100.723 37.2646 99.451 38.5895L76.1418 62.8085C75.531 63.4974 74.6658 63.8154 73.8007 63.8154Z" fill="#13B055"/>
<defs>
<filter id="filter0_d_211_15769" x="0.00732422" y="0.0898438" width="153.286" height="150.495" filterUnits="userSpaceOnUse" color-interpolation-filters="sRGB">
<feFlood flood-opacity="0" result="BackgroundImageFix"/>
<feColorMatrix in="SourceAlpha" type="matrix" values="0 0 0 0 0 0 0 0 0 0 0 0 0 0 0 0 0 0 127 0" result="hardAlpha"/>
<feOffset dy="11"/>
<feGaussianBlur stdDeviation="11"/>
<feColorMatrix type="matrix" values="0 0 0 0 0.397708 0 0 0 0 0.47749 0 0 0 0 0.575 0 0 0 0.27 0"/>
<feBlend mode="normal" in2="BackgroundImageFix" result="effect1_dropShadow_211_15769"/>
<feBlend mode="normal" in="SourceGraphic" in2="effect1_dropShadow_211_15769" result="shape"/>
</filter>
<linearGradient id="paint0_linear_211_15769" x1="76.6065" y1="12.3382" x2="76.6065" y2="91.8291" gradientUnits="userSpaceOnUse">
<stop stop-color="#B0BACC"/>
<stop offset="1" stop-color="#969EAE"/>
</linearGradient>
<linearGradient id="paint1_linear_211_15769" x1="76.4346" y1="101.128" x2="76.4346" y2="54.6749" gradientUnits="userSpaceOnUse">
<stop stop-color="#8A90B5"/>
<stop offset="1" stop-color="#A7AED2" stop-opacity="0"/>
</linearGradient>
<linearGradient id="paint2_linear_211_15769" x1="74.774" y1="50.8851" x2="74.774" y2="118.288" gradientUnits="userSpaceOnUse">
<stop stop-color="#FDFEFF"/>
<stop offset="0.9964" stop-color="#ECF0F5"/>
</linearGradient>
<linearGradient id="paint3_linear_211_15769" x1="53.5102" y1="102.203" x2="49.2298" y2="95.9382" gradientUnits="userSpaceOnUse">
<stop stop-color="#D5D8E4"/>
<stop offset="1" stop-color="#E1E4F0" stop-opacity="0"/>
</linearGradient>
<linearGradient id="paint4_linear_211_15769" x1="78.4576" y1="50.8851" x2="78.4576" y2="118.288" gradientUnits="userSpaceOnUse">
<stop stop-color="#FDFEFF"/>
<stop offset="0.9964" stop-color="#ECF0F5"/>
</linearGradient>
</defs>
</svg>
