<svg width="130" height="136" viewBox="0 0 130 136" fill="none" xmlns="http://www.w3.org/2000/svg">
<path d="M87.2525 33.4746C104.515 33.4746 118.44 46.0291 118.44 61.463C118.44 70.3317 113.837 78.279 106.587 83.462V95.095C106.587 96.7075 104.745 97.5138 103.594 96.5924L93.6972 88.8754C91.6257 89.2209 89.5542 89.4513 87.3676 89.4513C70.1049 89.4513 56.1797 76.8969 56.1797 61.463C56.1797 46.0291 70.1049 33.4746 87.2525 33.4746Z" fill="#CBD4E0"/>
<g filter="url(#filter0_d_7030_261187)">
<path d="M56.7555 32.0918C37.5364 32.0918 22 46.0284 22 63.19C22 73.0953 27.1788 81.964 35.2347 87.6078V100.508C35.2347 102.235 37.1911 103.272 38.5722 102.12L49.6203 93.597C51.922 94.0578 54.2236 94.2881 56.6404 94.2881C75.8595 94.2881 91.3959 80.3515 91.3959 63.19C91.3959 46.0284 75.8595 32.0918 56.7555 32.0918Z" fill="url(#paint0_linear_7030_261187)"/>
</g>
<path d="M45.4199 64.4572C47.5173 64.4572 49.2176 62.7555 49.2176 60.6564C49.2176 58.5572 47.5173 56.8555 45.4199 56.8555C43.3224 56.8555 41.6221 58.5572 41.6221 60.6564C41.6221 62.7555 43.3224 64.4572 45.4199 64.4572Z" fill="#989FB0"/>
<path d="M66.9404 64.4572C69.0378 64.4572 70.7382 62.7555 70.7382 60.6564C70.7382 58.5572 69.0378 56.8555 66.9404 56.8555C64.8429 56.8555 63.1426 58.5572 63.1426 60.6564C63.1426 62.7555 64.8429 64.4572 66.9404 64.4572Z" fill="#989FB0"/>
<path d="M60.9559 76.5514C60.6107 76.5514 60.2654 76.4362 60.0353 76.0906C59.1146 74.8237 57.7336 74.1326 56.1224 74.1326C54.6263 74.1326 53.1302 74.8237 52.3246 76.0906C51.9794 76.6665 51.2889 76.7817 50.7134 76.321C50.138 75.9755 50.0229 75.2844 50.4833 74.7085C51.7492 72.8656 53.9358 71.7139 56.2375 71.7139C58.5392 71.7139 60.6107 72.8656 61.9917 74.7085C62.337 75.2844 62.2219 75.9755 61.7615 76.321C61.4163 76.5514 61.1861 76.5514 60.9559 76.5514Z" fill="#989FB0"/>
<path d="M48.1945 29.1696C48.0557 29.1696 47.917 29.1696 47.7782 29.1696C47.0844 28.8919 46.6681 28.1975 46.8069 27.5031L49.1658 19.8649C49.4433 19.1706 50.1372 18.7539 50.831 18.8928C51.5248 19.1706 51.9411 19.8649 51.8023 20.5593L49.5821 28.1975C49.4433 28.753 48.8883 29.1696 48.1945 29.1696Z" fill="#B5BCCE"/>
<path d="M42.3666 30.8357C41.8115 30.8357 41.2565 30.4191 40.9789 29.8636L37.3711 18.8924C37.0936 18.198 37.5099 17.3648 38.2037 17.087C38.8975 16.8092 39.7301 17.2259 40.0076 17.9203L43.6154 28.8914C43.8929 29.5858 43.4767 30.4191 42.7828 30.6968C42.6441 30.8357 42.5053 30.8357 42.3666 30.8357Z" fill="#B5BCCE"/>
<path d="M36.955 33.4743C36.5387 33.4743 36.2612 33.3354 35.9836 33.0576L31.5432 28.7525C30.9882 28.197 30.9882 27.3637 31.5432 26.8082C32.0983 26.2527 32.9309 26.2527 33.4859 26.8082L37.9263 31.1134C38.4814 31.6689 38.4814 32.5021 37.9263 33.0576C37.6488 33.3354 37.2325 33.4743 36.955 33.4743Z" fill="#B5BCCE"/>
<defs>
<filter id="filter0_d_7030_261187" x="0" y="21.0918" width="113.396" height="114.515" filterUnits="userSpaceOnUse" color-interpolation-filters="sRGB">
<feFlood flood-opacity="0" result="BackgroundImageFix"/>
<feColorMatrix in="SourceAlpha" type="matrix" values="0 0 0 0 0 0 0 0 0 0 0 0 0 0 0 0 0 0 127 0" result="hardAlpha"/>
<feOffset dy="11"/>
<feGaussianBlur stdDeviation="11"/>
<feColorMatrix type="matrix" values="0 0 0 0 0.397708 0 0 0 0 0.47749 0 0 0 0 0.575 0 0 0 0.27 0"/>
<feBlend mode="normal" in2="BackgroundImageFix" result="effect1_dropShadow_7030_261187"/>
<feBlend mode="normal" in="SourceGraphic" in2="effect1_dropShadow_7030_261187" result="shape"/>
</filter>
<linearGradient id="paint0_linear_7030_261187" x1="56.6753" y1="30.4607" x2="56.6753" y2="103.367" gradientUnits="userSpaceOnUse">
<stop stop-color="#FDFEFF"/>
<stop offset="0.9964" stop-color="#ECF0F5"/>
</linearGradient>
</defs>
</svg>
