<svg width="124" height="124" viewBox="0 0 124 124" fill="none" xmlns="http://www.w3.org/2000/svg">
<path d="M119.332 62.6418C119.332 74.1999 115.913 84.9983 109.998 94.006C108.696 96.068 107.285 97.913 105.766 99.7579C95.1844 112.293 79.3395 120.269 61.7039 120.269C44.0683 120.269 28.2235 112.238 17.6421 99.7579C16.1228 97.913 14.7119 96.068 13.4096 94.0603C11.8902 91.6727 10.4251 89.1223 9.23131 86.4634C8.30884 84.3471 7.38636 82.1766 6.7352 79.8976C5.59567 76.479 4.83599 73.0604 4.40188 69.479C4.23909 68.6108 4.18483 67.7426 4.13056 66.7658C4.0763 65.4093 3.96777 63.9441 3.96777 62.5333C3.96777 46.4171 10.5336 31.9288 21.1692 21.456C22.2545 20.3707 23.4483 19.3397 24.5878 18.3087C34.6808 10.0607 47.5955 4.95996 61.7039 4.95996C72.9907 4.95996 83.572 8.21576 92.5255 13.8591C92.9596 14.0762 93.3394 14.3475 93.7735 14.6731C94.1534 14.9444 94.5875 15.1615 94.913 15.487C97.0836 17.0064 99.1998 18.6886 101.099 20.5335C102.239 21.6188 103.378 22.7041 104.355 23.8978C105.603 25.3087 106.851 26.7195 107.936 28.2932C108.208 28.673 108.425 28.9986 108.75 29.3784C109.021 29.7583 109.239 30.0839 109.564 30.4637C112.82 35.2931 115.316 40.6109 117.052 46.2543C117.324 47.2853 117.649 48.2078 117.866 49.2388C118.789 53.4713 119.332 57.9752 119.332 62.6418Z" fill="#EAEEF9"/>
<path d="M114.502 94.0063V99.7583H17.588C16.0686 97.9133 14.6578 96.0683 13.3555 94.0606H114.502V94.0063Z" fill="#D5DDEA"/>
<path d="M117.161 49.7272H70.1689V46.7427H116.347C116.727 47.6652 116.944 48.6962 117.161 49.7272Z" fill="#D5DDEA"/>
<path d="M108.153 29.8126V47.1226H84.1689V15.2158H93.0681C93.448 15.4871 93.8821 15.7042 94.2077 16.0298C96.3782 17.5491 98.4945 19.2313 100.394 21.0763C101.533 22.1615 102.673 23.2468 103.649 24.4406C104.898 25.8514 106.146 27.2623 107.231 28.8359C107.611 29.1072 107.936 29.4871 108.153 29.8126Z" fill="white"/>
<path d="M108.153 29.8127C107.882 29.4328 107.665 29.1073 107.339 28.7274V46.363H84.9829V15.9756H94.2077C93.8279 15.7042 93.5023 15.4872 93.0682 15.1616C92.6883 14.8903 92.2542 14.6732 91.8201 14.3477H83.3008V47.8281H108.805V30.898C108.642 30.5724 108.425 30.1925 108.153 29.8127Z" fill="#D5DDEA"/>
<path d="M103.758 24.3863V41.3164H88.5098V21.022H100.393C101.641 22.1072 102.727 23.1925 103.758 24.3863Z" fill="#EAEEF9"/>
<path d="M42.929 93.0292C42.929 93.5175 42.5492 93.8974 42.1151 94.0602C42.0608 94.0602 41.9523 94.0602 41.898 94.0602H13.3555C11.8361 91.6726 10.371 89.1222 9.17725 86.4633C10.4796 84.2928 11.2393 81.9595 11.5648 79.8975C11.7276 79.192 11.7819 78.5409 11.8361 77.8354H33.3787C33.4329 78.4866 33.5957 79.1378 33.7585 79.8975C34.5725 83.8044 36.6887 88.6881 41.1383 91.9982H41.8437C42.4949 91.9982 42.929 92.4865 42.929 93.0292Z" fill="#CAD3E2"/>
<path d="M63.1689 20.8593V77.4559C63.1689 78.8125 62.0837 79.8435 60.7814 79.8435H6.73514C5.64987 76.5877 4.89019 73.1691 4.45608 69.5878C4.29329 68.7196 4.23903 67.8513 4.18476 66.8746C4.1305 65.4638 4.02197 64.0529 4.02197 62.6421C4.02197 46.5259 10.5878 32.0376 21.2234 21.5648C22.3087 20.4795 23.5025 19.4485 24.642 18.4175H60.6728C62.1379 18.4175 63.1689 19.6113 63.1689 20.8593Z" fill="#DEE5EF"/>
<path d="M63.1689 20.8593V69.5878H4.45608C4.29329 68.7195 4.23903 67.8513 4.18476 66.8746C4.1305 65.4637 4.02197 64.0529 4.02197 62.6421C4.02197 46.5259 10.5878 32.0376 21.2234 21.5648C22.3087 20.4795 23.5025 19.4485 24.642 18.4175H60.6728C62.1379 18.4175 63.1689 19.6113 63.1689 20.8593Z" fill="#D5DDEA"/>
<path d="M60.0216 21.5645V66.9286H4.23896C4.1847 65.5177 4.07617 64.1069 4.07617 62.696C4.07617 46.5798 10.642 32.0915 21.2776 21.6187H60.0216V21.5645Z" fill="white"/>
<path d="M22.3627 76.967C23.4479 76.967 24.3161 76.0988 24.3161 75.0135C24.3161 73.9283 23.4479 73.0601 22.3627 73.0601C21.2774 73.0601 20.4092 73.9283 20.4092 75.0135C20.4092 76.0988 21.2774 76.967 22.3627 76.967Z" fill="white"/>
<path d="M33.1075 80.7658V83.0991H31.4796C30.5571 83.0991 29.7432 83.913 29.7432 84.8355V88.0913C29.7432 89.0138 30.5571 89.8277 31.4796 89.8277H33.1075V92.3238C33.1075 93.192 33.8129 93.9517 34.7354 93.9517H41.9524C42.8206 93.9517 43.5803 93.2463 43.5803 92.3238V80.6572H33.1075V80.7658ZM31.4796 88.6339C31.2625 88.6339 31.0455 88.4169 31.0455 88.1998V84.944C31.0455 84.727 31.2625 84.5099 31.4796 84.5099H33.1075V88.6882H31.4796V88.6339Z" fill="#989FB0"/>
<path d="M38.4251 67.0371C39.0762 68.665 39.239 70.2929 38.2623 71.541C37.3398 72.8433 36.6344 74.5797 37.6111 75.9363C38.5336 77.2386 38.8592 78.2696 38.4793 78.9208C38.0995 79.5719 38.4793 78.8665 39.7274 77.4557C40.8126 76.3161 38.8592 75.3394 38.8049 74.4169C38.7506 73.5487 39.8359 71.7038 39.8359 70.51C39.7816 69.2076 39.1847 67.5255 38.4251 67.0371Z" fill="white"/>
<path d="M35.7117 74.1455C35.9831 74.9595 36.0916 75.7734 35.6575 76.4246C35.2234 77.0757 34.8435 77.9439 35.3862 78.5951C35.8745 79.2463 35.9831 79.7346 35.8203 80.1145C35.6575 80.4943 35.8203 80.1145 36.4714 79.409C36.9598 78.8121 36.0373 78.3238 35.9831 77.8897C35.9288 77.4556 36.4714 76.5874 36.4714 75.9362C36.4172 75.2308 36.1458 74.4168 35.7117 74.1455Z" fill="white"/>
<path d="M64.7427 82.2848C65.3396 80.9825 67.3473 78.4864 69.4093 77.4554C69.6806 77.2926 70.0062 77.4011 70.1147 77.6724C70.7116 78.7034 72.1767 81.3081 71.6341 83.8585C70.9287 86.9515 64.7427 82.2848 64.7427 82.2848Z" fill="#989FB0"/>
<path d="M62.1921 82.5021C62.1921 82.5021 59.5875 79.6804 57.9053 78.6494C57.4712 78.4324 56.9828 78.5952 56.7658 79.0293C54.9208 82.5021 54.9208 86.5176 55.3549 88.6339C55.8433 90.9129 59.7503 84.6184 59.7503 84.6184L62.1921 82.5021Z" fill="#989FB0"/>
<path d="M60.9981 83.4249C60.9981 83.4249 59.3702 81.6884 58.3934 81.0373C58.1221 80.9287 57.7965 80.983 57.688 81.2543C56.6028 83.4249 56.5485 85.8667 56.8741 87.169C57.1996 88.5799 59.5872 84.6729 59.5872 84.6729L60.9981 83.4249Z" fill="#D5DDEA"/>
<path d="M66.4248 82.4479C66.7504 81.5797 68.0527 79.9518 69.3008 79.3006C69.4635 79.2464 69.6263 79.3006 69.7891 79.4634C70.1147 80.1146 71.0372 81.7967 70.7116 83.4789C70.2775 85.5409 66.4248 82.4479 66.4248 82.4479Z" fill="#D5DDEA"/>
<path d="M117.324 116.037C111.789 113.703 112.603 106.432 113.146 99.7035C113.634 99.7035 114.068 99.7035 114.556 99.7035C114.556 97.8043 114.556 95.8508 114.556 93.9516C114.556 93.8973 112.006 94.0058 111.735 94.0058C110.487 94.0058 109.835 93.3004 108.804 92.8663C108.913 92.9206 108.533 95.8508 108.479 96.1764C106.688 104.045 103.053 106.812 106.471 110.448C107.502 111.533 107.991 113.866 105.603 114.897C103.215 115.82 101.805 112.347 100.991 110.665C99.5797 107.734 100.774 103.393 102.293 94.4942C102.293 94.4942 85.417 94.4399 80.5876 94.4942C80.262 95.8508 77.5488 105.293 77.169 107.246C76.5721 110.176 77.5488 112.293 77.7659 113.866C77.9829 115.548 75.1612 116.688 73.045 114.789C70.3318 112.293 73.2078 108.44 73.5876 99.8663C73.5876 99.3779 73.7504 94.1144 73.4248 94.1144C67.8357 94.1144 62.3008 94.0601 56.7117 94.1686C56.0606 94.1686 55.0838 94.4399 54.704 93.843C51.6652 89.3935 59.3706 79.3547 67.9442 81.9594C69.3551 82.3935 70.8744 83.316 72.3938 83.4245C72.3938 83.4245 73.262 83.1532 77.6573 79.9516C85.0371 75.7191 94.3162 76.0447 100.068 77.4013C107.828 79.2462 109.184 85.4865 111.409 88.2539C114.611 92.2694 117.649 93.3004 117.215 103.122C117.052 107.083 116.998 109.2 120.254 111.479C122.425 113.215 120.688 117.448 117.324 116.037Z" fill="white"/>
<path d="M65.5567 93.1921C64.9598 93.2464 64.2001 93.3549 63.4947 93.3549C63.2776 93.3549 63.0063 93.3549 62.7893 93.4092C60.4017 93.4635 58.1226 93.1379 57.797 91.3472C57.58 89.9363 59.5877 88.1457 60.673 87.5488C64.3629 85.4868 68.1613 88.5255 68.5954 90.3704C68.921 91.9441 67.2388 92.9208 65.5567 93.1921Z" fill="#D5DDEA"/>
<path d="M63.1693 91.2386C63.7661 91.2386 64.2545 91.0215 64.2545 90.696C64.2545 90.3704 63.7661 90.1533 63.1693 90.1533C62.5724 90.1533 62.084 90.3704 62.084 90.696C62.084 91.0215 62.5724 91.2386 63.1693 91.2386Z" fill="#989FB0"/>
<path d="M63.7117 91.2388V93.355C63.3862 93.355 62.952 93.4093 62.6265 93.4093V91.293L63.7117 91.2388Z" fill="#989FB0"/>
<path d="M77.7115 113.867C77.9285 115.549 75.1068 116.688 72.9906 114.789C70.8743 112.836 72.8278 106.27 73.3704 102.797C73.6417 100.952 73.6417 98.7271 73.5874 96.9907C74.5099 98.1303 76.789 101.006 78.4169 102.526C77.9285 104.425 77.3859 106.161 77.1688 107.355C76.5719 110.122 77.4401 112.239 77.7115 113.867Z" fill="#D5DDEA"/>
<path d="M106.363 110.502C107.394 111.587 107.882 113.921 105.495 114.952C103.107 115.874 101.696 112.401 100.882 110.719C100.068 109.037 100.231 105.022 100.882 101.766C101.099 100.626 101.371 99.3782 101.533 98.293C102.022 98.5643 102.564 98.8899 102.998 99.2154C104.138 100.084 105.277 101.115 106.58 101.82C105.983 103.502 105.495 104.859 105.169 105.51C104.464 107.301 105.332 109.417 106.363 110.502Z" fill="#D5DDEA"/>
<path d="M120.2 115.711C118.572 117.23 115.804 115.494 114.285 113.758C112.766 112.021 112.44 106.595 112.983 101.874C113.037 101.06 113.146 100.355 113.037 99.7034H114.502V93.9515H110.052C109.998 93.8972 109.89 93.7887 109.835 93.7344C109.89 93.5174 109.998 93.2461 110.052 93.029C110.432 91.8895 109.835 90.75 111.138 88.3081C111.518 88.905 111.843 89.2306 112.223 89.5562C112.928 90.2073 113.688 90.6957 114.99 92.5406C117.541 96.0135 117.161 103.339 117.052 106.215C116.998 109.199 119.006 111.044 120.254 111.533C121.339 112.075 121.773 114.192 120.2 115.711Z" fill="#D5DDEA"/>
<path d="M66.9672 84.8358H66.913L65.3936 84.6188C65.1223 84.6188 64.9595 84.3474 64.9595 84.1304C64.9595 83.8591 65.2308 83.6963 65.4478 83.6963L66.9672 83.9133C67.2385 83.9133 67.4013 84.1847 67.4013 84.4017C67.4013 84.7273 67.1843 84.8358 66.9672 84.8358Z" fill="#AAB2C5"/>
<path d="M59.6416 84.9984H59.6959L61.2153 84.7814C61.4866 84.7814 61.6494 84.51 61.6494 84.293C61.6494 84.0217 61.3781 83.8589 61.161 83.8589L59.6416 84.0759C59.3703 84.0759 59.2075 84.3473 59.2075 84.5643C59.316 84.7814 59.4246 84.9442 59.6416 84.9984Z" fill="#AAB2C5"/>
<path d="M71.3985 46.5785L70.9421 43.96L81.1883 42.1743L81.6446 44.7928L76.1113 54.4377L83.2267 53.1976L83.6831 55.8161L72.9815 57.6811L72.5251 55.0626L78.0585 45.4178L71.3985 46.5785Z" fill="#989FB0"/>
<path d="M67.475 64.6418L67.9507 63.0849L73.9705 64.9244L73.4948 66.4812L67.9406 70.1743L72.0921 71.4429L71.6164 72.9997L65.2853 71.0651L65.761 69.5083L71.3152 65.8152L67.475 64.6418Z" fill="#989FB0"/>
<path d="M109.293 94.1143H114.502V94.0601V99.812H108.099" fill="#D5DDEA"/>
</svg>
