<svg width="150" height="149" viewBox="0 0 150 149" fill="none" xmlns="http://www.w3.org/2000/svg">
<g filter="url(#filter0_d_467_14216)">
<path d="M74.5577 115.101C103.584 115.101 127.115 91.7975 127.115 63.0507C127.115 34.3039 103.584 11 74.5577 11C45.5309 11 22 34.3039 22 63.0507C22 91.7975 45.5309 115.101 74.5577 115.101Z" fill="#E9EDF8"/>
</g>
<path d="M74.5577 107.328C99.1978 107.328 119.173 87.5042 119.173 63.0508C119.173 38.5974 99.1978 18.7739 74.5577 18.7739C49.9176 18.7739 29.9429 38.5974 29.9429 63.0508C29.9429 87.5042 49.9176 107.328 74.5577 107.328Z" fill="white"/>
<path opacity="0.3" d="M119.342 62.8818C119.342 63.7268 119.342 64.4028 119.173 65.2477C117.99 41.9263 98.5551 23.3368 74.7267 23.3368C50.8983 23.3368 31.4638 41.9263 30.1119 65.2477C30.1119 64.4028 29.9429 63.7268 29.9429 62.8818C29.9429 38.5464 50.0534 18.7739 74.5577 18.7739C99.4001 18.7739 119.342 38.5464 119.342 62.8818Z" fill="#D2DFF8"/>
<path d="M73.5436 60.854L70.1637 64.2339L49.2082 43.6165C48.1943 42.6025 48.1943 41.0815 49.2082 40.2366C50.2222 39.2226 51.7432 39.2226 52.5881 40.2366L73.5436 60.854Z" fill="#AAB2C5"/>
<path d="M78.7823 64.4028L75.4023 61.0229L90.9499 45.6443C91.9639 44.6303 93.4849 44.6303 94.3299 45.6443C95.3438 46.6582 95.3438 48.1792 94.3299 49.0242L78.7823 64.4028Z" fill="#AAB2C5"/>
<path d="M72.5298 62.3748C73.8818 61.0228 75.7407 61.0228 76.9237 62.3748C78.2757 63.7268 78.2757 65.5857 76.9237 66.5997C75.5717 67.6137 73.7128 67.9517 72.5298 66.5997C71.3468 65.4167 71.3468 63.5578 72.5298 62.3748Z" fill="#AAB2C5"/>
<path d="M85.7115 98.3707C85.3735 98.3707 85.0355 98.2017 85.0355 97.8637L74.0508 64.7406C73.8818 64.4026 74.2198 63.8956 74.5578 63.7266C74.8958 63.5576 75.4028 63.8956 75.5718 64.2336L86.5565 97.3567C86.7255 97.6947 86.3875 98.2017 86.0495 98.3707C85.8805 98.3707 85.8805 98.3707 85.7115 98.3707Z" fill="#AAB2C5"/>
<path d="M71.0088 60.854C73.2057 58.826 76.5857 58.826 78.6136 60.854C80.8105 62.8819 80.8105 66.2618 78.6136 68.4588C76.4167 70.6557 73.0367 70.4867 71.0088 68.4588C68.9808 66.4308 68.8119 62.8819 71.0088 60.854Z" fill="white"/>
<path fill-rule="evenodd" clip-rule="evenodd" d="M76.5347 63.0177L76.4923 62.9753C75.6805 62.1635 74.1397 62.0466 73.0436 63.0584C72.2452 63.7954 72.1612 65.3685 73.1301 66.3375C74.0485 67.2558 75.528 67.3018 76.4923 66.3375C77.5668 65.263 77.4397 63.8531 76.5788 63.0584L76.5347 63.0177ZM78.6136 60.854C76.5857 58.826 73.2057 58.826 71.0088 60.854C68.8119 62.8819 68.9808 66.4308 71.0088 68.4588C73.0367 70.4867 76.4167 70.6557 78.6136 68.4588C80.8105 66.2618 80.8105 62.8819 78.6136 60.854Z" fill="#AAB2C5"/>
<path d="M76.2472 22.8296H73.5433C73.0363 22.8296 72.5293 23.3366 72.5293 23.8436V31.7864C72.5293 32.2933 73.0363 32.8003 73.5433 32.8003H76.2472C76.7542 32.8003 77.2612 32.2933 77.2612 31.7864V23.6746C77.0922 23.1676 76.7542 22.8296 76.2472 22.8296Z" fill="#CBD4E2"/>
<path d="M76.2472 92.9629H73.5433C73.0363 92.9629 72.5293 93.4699 72.5293 93.9769V101.92C72.5293 102.427 73.0363 102.934 73.5433 102.934H76.2472C76.7542 102.934 77.2612 102.427 77.2612 101.92V93.9769C77.0922 93.4699 76.7542 92.9629 76.2472 92.9629Z" fill="#CBD4E2"/>
<path d="M43.2932 60.3467H35.3504C34.8434 60.3467 34.3364 60.8537 34.3364 61.3607V64.0646C34.3364 64.5716 34.8434 65.0786 35.3504 65.0786H43.2932C43.8002 65.0786 44.3072 64.5716 44.3072 64.0646V61.3607C44.3072 60.8537 43.8002 60.3467 43.2932 60.3467Z" fill="#CBD4E2"/>
<path d="M114.271 60.5156H106.328C105.821 60.5156 105.314 61.0226 105.314 61.5296V64.2335C105.314 64.7405 105.821 65.2475 106.328 65.2475H114.271C114.778 65.2475 115.285 64.7405 115.285 64.2335V61.5296C115.116 61.0226 114.778 60.5156 114.271 60.5156Z" fill="#CBD4E2"/>
<defs>
<filter id="filter0_d_467_14216" x="0" y="0" width="149.115" height="148.102" filterUnits="userSpaceOnUse" color-interpolation-filters="sRGB">
<feFlood flood-opacity="0" result="BackgroundImageFix"/>
<feColorMatrix in="SourceAlpha" type="matrix" values="0 0 0 0 0 0 0 0 0 0 0 0 0 0 0 0 0 0 127 0" result="hardAlpha"/>
<feOffset dy="11"/>
<feGaussianBlur stdDeviation="11"/>
<feColorMatrix type="matrix" values="0 0 0 0 0.397708 0 0 0 0 0.47749 0 0 0 0 0.575 0 0 0 0.27 0"/>
<feBlend mode="normal" in2="BackgroundImageFix" result="effect1_dropShadow_467_14216"/>
<feBlend mode="normal" in="SourceGraphic" in2="effect1_dropShadow_467_14216" result="shape"/>
</filter>
</defs>
</svg>
