<svg width="157" height="162" viewBox="0 0 157 162" fill="none" xmlns="http://www.w3.org/2000/svg">
<path d="M77.7311 146.701C110.339 146.701 136.732 120.188 136.732 87.4764C136.732 54.7646 110.339 28.3472 77.7311 28.3472C45.123 28.3472 18.7305 54.86 18.7305 87.5718C18.7305 120.379 45.2186 146.701 77.7311 146.701Z" fill="#EAEEF9"/>
<path d="M105.913 146.572C96.9239 146.858 86.1183 146.572 78.4683 146.476C70.9139 146.762 60.0127 146.858 51.0239 146.572C59.9171 141.517 63.0727 132.076 63.4552 125.876H93.2902C93.9596 131.98 97.1152 141.422 105.913 146.572Z" fill="#D5DDEA"/>
<g filter="url(#filter0_d_227_16665)">
<path d="M134.791 46.9104V124.827C134.791 126.83 133.261 128.261 131.54 128.261H25.97C24.1531 128.261 22.7188 126.735 22.7188 124.827V46.9104C22.7188 45.0983 24.2487 43.4771 25.97 43.4771H131.349C133.357 43.4771 134.791 45.0983 134.791 46.9104Z" fill="white"/>
</g>
<path d="M134.791 46.9104V113.955H22.7188V46.9104C22.7188 45.0983 24.2487 43.4771 25.97 43.4771H131.349C133.357 43.4771 134.791 45.0983 134.791 46.9104Z" fill="#989FB0"/>
<path d="M135.056 46.0396V113.621H23.0557V46.0396C23.0557 44.1989 24.6239 42.6211 26.3229 42.6211H131.658C133.618 42.6211 135.056 44.1989 135.056 46.0396Z" fill="#989FB0"/>
<path d="M130.925 47.6211H27.0557V109.621H131.056V47.6211H130.925Z" fill="white"/>
<path d="M81.2419 51.6787H76.0781V71.9814H81.2419V51.6787Z" fill="#D5DDEA"/>
<path d="M78.5641 123.492C80.0941 123.492 81.3373 122.348 81.3373 120.727C81.3373 119.201 80.1898 117.961 78.5641 117.961C77.0341 117.961 75.791 119.105 75.791 120.727C75.791 122.348 76.9385 123.492 78.5641 123.492Z" fill="#D6DDE8"/>
<path d="M1.01221 146.667H152.1" stroke="#D6DDE8" stroke-width="2" stroke-miterlimit="10" stroke-linecap="round" stroke-linejoin="round"/>
<path d="M11.654 80.5142C13.8534 80.5142 15.5746 78.7975 15.5746 76.604C15.5746 74.4105 13.8534 72.6938 11.654 72.6938C9.45465 72.6938 7.7334 74.4105 7.7334 76.604C7.7334 78.7021 9.55027 80.5142 11.654 80.5142Z" fill="#EAEEF9"/>
<path d="M7.73316 67.83C9.16754 67.83 10.4107 66.5902 10.4107 65.1596C10.4107 63.7291 9.16754 62.4893 7.73316 62.4893C6.29879 62.4893 5.05566 63.7291 5.05566 65.1596C5.05566 66.5902 6.29879 67.83 7.73316 67.83Z" fill="#EAEEF9"/>
<path d="M119.711 36.5487C121.145 36.5487 122.388 35.3089 122.388 33.8784C122.388 32.4478 121.145 31.208 119.711 31.208C118.276 31.208 117.033 32.4478 117.033 33.8784C117.033 35.3089 118.181 36.5487 119.711 36.5487Z" fill="#EAEEF9"/>
<path d="M148.015 90.3374C150.789 90.3374 152.988 88.1439 152.988 85.3782C152.988 82.6124 150.789 80.4189 148.015 80.4189C145.242 80.4189 143.043 82.6124 143.043 85.3782C143.043 88.1439 145.242 90.3374 148.015 90.3374Z" fill="#EAEEF9"/>
<path d="M78.5557 104.621C89.3252 104.621 98.0557 95.8906 98.0557 85.1211C98.0557 74.3515 89.3252 65.6211 78.5557 65.6211C67.7861 65.6211 59.0557 74.3515 59.0557 85.1211C59.0557 95.8906 67.7861 104.621 78.5557 104.621Z" fill="url(#paint0_linear_227_16665)"/>
<path d="M57.5264 104.227C52.4583 99.2682 49.5896 92.5923 49.4939 85.5349H51.1196C52.0758 85.5349 52.5539 84.4859 51.9802 83.7229L48.5377 79.3359C48.0596 78.7637 47.1989 78.7637 46.7208 79.3359L43.2783 83.7229C42.7046 84.4859 43.2783 85.5349 44.1389 85.5349H45.5733C45.6689 93.6414 49.0158 101.271 54.8489 106.993C55.2314 107.375 55.7096 107.565 56.1877 107.565C56.6658 107.565 57.1439 107.375 57.5264 106.993C58.2914 106.135 58.2914 104.99 57.5264 104.227Z" fill="#D5DDEA"/>
<path d="M112.607 84.5815H111.077C110.981 76.4751 107.73 68.9409 101.992 63.2187C101.227 62.4557 100.08 62.4557 99.315 63.2187C98.55 63.9817 98.55 65.1261 99.315 65.8891C104.383 70.8483 107.156 77.5242 107.252 84.5815H105.722C104.766 84.5815 104.287 85.6306 104.861 86.3936L108.304 90.7806C108.782 91.3528 109.642 91.3528 110.121 90.7806L113.563 86.3936C114.041 85.6306 113.563 84.5815 112.607 84.5815Z" fill="#D5DDEA"/>
<g filter="url(#filter1_d_227_16665)">
<path d="M114.056 43.1878C114.056 50.1457 108.429 55.7725 101.411 55.7725C101.29 55.7725 100.261 55.7725 92.6984 55.7725C87.4346 55.7725 79.0246 55.7725 65.5929 55.7725H59.1795C50.7696 55.954 44.0537 49.2381 44.0537 41.1307C44.0537 32.9627 50.8301 26.1863 59.3611 26.6099C66.682 3.73959 100.201 6.94627 103.044 30.6031C109.337 31.3896 114.056 36.7139 114.056 43.1878Z" fill="url(#paint1_linear_227_16665)"/>
</g>
<path d="M101.411 55.7724C108.369 55.7724 114.056 50.1456 114.056 43.1877C114.056 36.2298 108.369 30.603 101.411 30.603C94.4529 30.603 88.7656 36.2298 88.7656 43.1877C88.7656 50.1456 94.4529 55.7724 101.411 55.7724Z" fill="url(#paint2_linear_227_16665)"/>
<path d="M80.7792 55.8935C93.1824 55.8935 103.286 45.8499 103.286 33.4467C103.286 21.0436 93.1824 11 80.7792 11C68.376 11 58.272 21.0436 58.272 33.4467C58.272 45.8499 68.3155 55.8935 80.7792 55.8935Z" fill="url(#paint3_linear_227_16665)"/>
<path d="M74.8349 33.9403C75.313 33.4634 75.313 32.7005 74.8349 32.2236C74.3568 31.7468 73.783 31.8421 73.018 31.8421C75.2174 26.3107 82.3893 25.0709 86.1187 29.5533C87.553 31.0792 89.848 29.0764 88.5093 27.5505C84.5887 22.9727 77.608 22.4005 73.018 26.3107C71.2968 27.7412 70.1493 29.6486 69.5755 31.8421C68.0455 31.8421 67.7587 31.8421 67.3762 32.2236C66.898 32.7005 66.898 33.4634 67.3762 33.9403C71.7749 38.2319 70.6274 38.2319 74.8349 33.9403Z" fill="#939CAD"/>
<path d="M93.5777 36.7059L90.9002 33.9402C90.422 33.4633 89.657 33.4633 89.1789 33.9402L86.4058 36.7059C85.9277 37.1827 85.9277 37.9457 86.4058 38.4225C86.8839 38.8994 87.4577 38.804 88.2227 38.804C86.0233 44.4308 78.6602 45.5753 74.9308 40.8068C74.357 40.0438 73.4008 39.9485 72.6358 40.5207C70.2452 42.5234 75.887 46.9104 80.8595 46.9104C85.7364 46.9104 90.2308 43.5725 91.3783 38.7086C92.9083 38.7086 93.1952 38.7086 93.5777 38.3272C94.0558 38.0411 94.0558 37.2781 93.5777 36.7059Z" fill="#939CAD"/>
<path d="M90.0181 83.9696C90.0181 82.8689 89.0051 82.8689 88.1609 82.6995C87.3167 82.5302 87.2323 81.8528 86.8946 81.0908C86.2192 79.7361 88.7518 78.974 87.4011 77.704C86.1348 76.4339 85.375 75.3332 84.3619 76.0953C83.6866 76.6033 83.1801 77.1113 82.4203 76.7726C81.6605 76.4339 80.9007 76.3493 80.8163 75.5026C80.4786 73.3012 80.3942 73.6398 77.4394 73.6398C75.5822 73.6398 76.8485 75.9259 75.4133 76.4339C74.5691 76.688 74.0626 77.196 73.3872 76.688C71.6144 75.3332 71.7832 75.6719 69.6727 77.7887C68.9129 78.5507 69.5039 79.2281 70.0948 79.9901C70.6013 80.6674 70.1792 81.2601 69.8415 82.0222C69.335 83.4615 67.0557 82.1915 67.0557 84.0542C67.0557 84.9009 67.0557 85.7476 67.1401 86.5943C67.4778 87.6104 68.322 87.187 69.2506 87.5257C69.2506 87.5257 69.335 87.5257 69.335 87.6104C69.335 87.6104 69.335 87.6104 69.4194 87.6104C69.6727 87.7797 69.7571 87.949 69.8415 88.2031C69.8415 88.2877 70.0104 88.5417 70.0104 88.6264C70.2637 89.3038 70.5169 89.6424 70.0948 90.2351C68.8285 91.9285 68.9973 91.8439 71.1923 93.9606C72.4586 95.2307 73.2184 92.7752 74.5691 93.4526C75.0756 93.7066 75.9199 93.8759 76.0887 94.4686C76.2575 94.892 76.1731 95.5693 76.4264 95.9927C76.8485 96.8394 78.1148 96.5854 79.5499 96.5854C81.4072 96.5854 80.1409 94.2993 81.5761 93.7913C83.2645 93.1986 82.9268 93.0292 84.3619 94.0453C85.375 94.8073 86.2192 93.5373 87.4011 92.4365C88.6674 91.1665 86.2192 90.4045 86.8946 89.0498C87.0634 88.7957 87.1478 88.4571 87.2323 88.2031C87.4855 87.441 88.2453 87.441 89.0051 87.3564C90.3558 87.0177 90.0181 85.7476 90.0181 83.9696ZM78.5369 89.0498C76.342 89.0498 74.5691 87.2717 74.5691 85.0703C74.5691 82.8689 76.342 81.0908 78.5369 81.0908C80.7318 81.0908 82.5047 82.8689 82.5047 85.0703C82.5891 87.2717 80.8163 89.0498 78.5369 89.0498C78.6213 89.0498 78.5369 89.0498 78.5369 89.0498Z" fill="white"/>
<defs>
<filter id="filter0_d_227_16665" x="0.71875" y="32.4771" width="156.072" height="128.784" filterUnits="userSpaceOnUse" color-interpolation-filters="sRGB">
<feFlood flood-opacity="0" result="BackgroundImageFix"/>
<feColorMatrix in="SourceAlpha" type="matrix" values="0 0 0 0 0 0 0 0 0 0 0 0 0 0 0 0 0 0 127 0" result="hardAlpha"/>
<feOffset dy="11"/>
<feGaussianBlur stdDeviation="11"/>
<feColorMatrix type="matrix" values="0 0 0 0 0.397708 0 0 0 0 0.47749 0 0 0 0 0.575 0 0 0 0.27 0"/>
<feBlend mode="normal" in2="BackgroundImageFix" result="effect1_dropShadow_227_16665"/>
<feBlend mode="normal" in="SourceGraphic" in2="effect1_dropShadow_227_16665" result="shape"/>
</filter>
<filter id="filter1_d_227_16665" x="22.0537" y="0.0546875" width="114.002" height="88.7212" filterUnits="userSpaceOnUse" color-interpolation-filters="sRGB">
<feFlood flood-opacity="0" result="BackgroundImageFix"/>
<feColorMatrix in="SourceAlpha" type="matrix" values="0 0 0 0 0 0 0 0 0 0 0 0 0 0 0 0 0 0 127 0" result="hardAlpha"/>
<feOffset dy="11"/>
<feGaussianBlur stdDeviation="11"/>
<feColorMatrix type="matrix" values="0 0 0 0 0.397708 0 0 0 0 0.47749 0 0 0 0 0.575 0 0 0 0.27 0"/>
<feBlend mode="normal" in2="BackgroundImageFix" result="effect1_dropShadow_227_16665"/>
<feBlend mode="normal" in="SourceGraphic" in2="effect1_dropShadow_227_16665" result="shape"/>
</filter>
<linearGradient id="paint0_linear_227_16665" x1="59.0378" y1="85.1253" x2="98.0628" y2="85.1253" gradientUnits="userSpaceOnUse">
<stop stop-color="#B0BACC"/>
<stop offset="1" stop-color="#969EAE"/>
</linearGradient>
<linearGradient id="paint1_linear_227_16665" x1="79.0549" y1="29.5353" x2="79.0321" y2="56.2582" gradientUnits="userSpaceOnUse">
<stop stop-color="white"/>
<stop offset="0.9964" stop-color="#ECF0F5"/>
</linearGradient>
<linearGradient id="paint2_linear_227_16665" x1="87.42" y1="27.8936" x2="98.6298" y2="40.1538" gradientUnits="userSpaceOnUse">
<stop stop-color="#BCCBE1"/>
<stop offset="0.9942" stop-color="white" stop-opacity="0"/>
</linearGradient>
<linearGradient id="paint3_linear_227_16665" x1="56.1644" y1="23.1465" x2="73.8321" y2="30.0605" gradientUnits="userSpaceOnUse">
<stop stop-color="#E2E8F0"/>
<stop offset="0.9942" stop-color="white" stop-opacity="0"/>
</linearGradient>
</defs>
</svg>
