<svg width="22" height="117" viewBox="0 0 22 117" fill="none" xmlns="http://www.w3.org/2000/svg">
<path d="M6 1V0.25H5.25V1H6ZM5.46967 116.53C5.76256 116.823 6.23744 116.823 6.53033 116.53L11.3033 111.757C11.5962 111.464 11.5962 110.99 11.3033 110.697C11.0104 110.404 10.5355 110.404 10.2426 110.697L6 114.939L1.75736 110.697C1.46447 110.404 0.989593 110.404 0.696699 110.697C0.403806 110.99 0.403806 111.464 0.696699 111.757L5.46967 116.53ZM6.75 116V115.009H5.25V116H6.75ZM6.75 113.026V111.043H5.25V113.026H6.75ZM6.75 109.06V107.078H5.25V109.06H6.75ZM6.75 105.095V103.112H5.25V105.095H6.75ZM6.75 101.129V99.1465H5.25V101.129H6.75ZM6.75 97.1638V95.181H5.25V97.1638H6.75ZM6.75 93.1983V91.2155H5.25V93.1983H6.75ZM6.75 89.2327V87.25H5.25V89.2327H6.75ZM6.75 85.2672V83.2845H5.25V85.2672H6.75ZM6.75 81.3017V79.319H5.25V81.3017H6.75ZM6.75 77.3362V75.3534H5.25V77.3362H6.75ZM6.75 73.3707V71.3879H5.25V73.3707H6.75ZM6.75 69.4052V67.4224H5.25V69.4052H6.75ZM6.75 65.4397V63.4569H5.25V65.4397H6.75ZM6.75 61.4741V59.4914H5.25V61.4741H6.75ZM6.75 57.5086V55.5259H5.25V57.5086H6.75ZM6.75 53.5431V51.5604H5.25V53.5431H6.75ZM6.75 49.5776V47.5948H5.25V49.5776H6.75ZM6.75 45.6121V43.6293H5.25V45.6121H6.75ZM6.75 41.6466V39.6638H5.25V41.6466H6.75ZM6.75 37.6811V35.6983H5.25V37.6811H6.75ZM6.75 33.7155V31.7328H5.25V33.7155H6.75ZM6.75 29.75V27.7673H5.25V29.75H6.75ZM6.75 25.7845V23.8018H5.25V25.7845H6.75ZM6.75 21.819V19.8362H5.25V21.819H6.75ZM6.75 17.8535V15.8707H5.25V17.8535H6.75ZM6.75 13.888V11.9052H5.25V13.888H6.75ZM6.75 9.92244V7.93969H5.25V9.92244H6.75ZM6.75 5.95693V3.97418H5.25V5.95693H6.75ZM6.75 1.99142V1H5.25V1.99142H6.75ZM6 1.75H7V0.25H6V1.75ZM9 1.75H11V0.25H9V1.75ZM13 1.75H15V0.25H13V1.75ZM17 1.75H19V0.25H17V1.75ZM21 1.75H22V0.25H21V1.75Z" fill="#2396FF"/>
</svg>
