<svg width="261" height="294" viewBox="0 0 261 294" fill="none" xmlns="http://www.w3.org/2000/svg">
<path d="M22.168 125.833C22.168 66.0025 70.6705 17.5 130.501 17.5C190.332 17.5 238.835 66.0025 238.835 125.833V276.842H22.168V125.833Z" fill="url(#paint0_linear_8014_263808)"/>
<path d="M8 123C8 55.3451 62.8451 0.5 130.5 0.5C198.155 0.5 253 55.3451 253 123V293.5H8V123Z" fill="url(#paint1_linear_8014_263808)"/>
<mask id="mask0_8014_263808" style="mask-type:alpha" maskUnits="userSpaceOnUse" x="22" y="17" width="217" height="261">
<path d="M22.1699 125.833C22.1699 66.0025 70.6724 17.5 130.503 17.5C190.334 17.5 238.837 66.0025 238.837 125.833V277.5H22.1699V125.833Z" fill="#663EE0"/>
</mask>
<g mask="url(#mask0_8014_263808)">
<path fill-rule="evenodd" clip-rule="evenodd" d="M236.344 146.069C255.857 167.791 260.746 198.625 256.52 233.945C250.558 283.779 255.868 344.882 208.272 380.705C160.535 416.634 113.966 387.843 74.5078 370.936C45.6796 358.584 34.2831 330.914 23.096 301.361C7.68505 260.65 -33.5352 222.712 -0.277281 173.378C33.1779 123.751 80.7828 198.054 131.465 192.205C168.955 187.878 215.664 123.048 236.344 146.069Z" fill="url(#paint2_linear_8014_263808)"/>
</g>
<path d="M98.3777 71.8574L98.759 71.0276L99.2524 71.7901C99.6555 72.3993 100.223 72.8815 100.89 73.1807L101.731 73.5507L100.968 74.0554C100.354 74.4554 99.867 75.0238 99.5664 75.6926L99.1963 76.5225L98.6917 75.7599C98.2905 75.1491 97.7222 74.6664 97.0544 74.3694L96.2246 73.9993L96.9872 73.4947C97.6015 73.0974 98.0851 72.5279 98.3777 71.8574Z" fill="#F9F7FD"/>
<path d="M73.3595 65.6233L73.5725 65.1411L73.8641 65.5785C74.0951 65.9359 74.4268 66.2168 74.8173 66.3859L75.2995 66.6101L74.851 66.9017C74.4986 67.1335 74.2188 67.46 74.0436 67.8437L73.8305 68.3371L73.5389 67.8885C73.3079 67.5311 72.9763 67.2502 72.5857 67.0811L72.1035 66.8569L72.5409 66.5765C72.8962 66.3401 73.1794 66.0103 73.3595 65.6233Z" fill="#F9F7FD"/>
<path d="M152.16 108.27L152.373 107.787L152.665 108.236C152.905 108.585 153.234 108.864 153.618 109.043L154.1 109.257L153.663 109.548C153.306 109.779 153.025 110.111 152.856 110.501L152.631 110.983L152.34 110.546C152.109 110.19 151.783 109.906 151.398 109.727L150.904 109.514L151.353 109.223C151.71 108.992 151.991 108.66 152.16 108.27Z" fill="#F9F7FD"/>
<path d="M190.737 86.4025L191.107 85.5727L191.611 86.3353C192.012 86.9465 192.58 87.4293 193.248 87.7258L194.078 88.0958L193.316 88.6005C192.704 89.0007 192.221 89.5693 191.925 90.2377L191.544 91.0676L191.051 90.305C190.644 89.6987 190.077 89.2172 189.413 88.9145L188.572 88.5444L189.335 88.0398C189.949 87.6397 190.436 87.0714 190.737 86.4025Z" fill="#F9F7FD"/>
<path d="M185.723 55.7658L186.351 54.364L187.192 55.6536C187.868 56.679 188.821 57.4916 189.94 57.9974L191.341 58.6141L190.052 59.4552C189.028 60.1376 188.216 61.0933 187.708 62.2138L187.08 63.6156L186.239 62.326C185.563 61.3006 184.611 60.488 183.492 59.9822L182.09 59.3542L183.379 58.5132C184.405 57.8374 185.217 56.8848 185.723 55.7658Z" fill="#F9F7FD"/>
<path d="M90.6065 46.3236L91.2345 44.9219L92.0755 46.2003C92.748 47.2285 93.7016 48.042 94.823 48.544L96.2247 49.172L94.9463 50.013C93.9151 50.6821 93.1008 51.6367 92.6026 52.7605L91.9746 54.1622L91.1335 52.8838C90.4595 51.8527 89.5014 51.0387 88.3749 50.5401L86.9844 49.9121L88.2628 49.0711C89.291 48.3986 90.1045 47.445 90.6065 46.3236Z" fill="#F9F7FD"/>
<path opacity="0.2" fill-rule="evenodd" clip-rule="evenodd" d="M184.85 90.1604C167.201 70.3678 130.235 63.0018 92.2471 73.9215C45.1314 87.4653 14.2852 124.009 23.3503 155.545C30.7876 181.419 62.7793 195.883 100.048 192.763C117.918 207.062 148.005 211.785 178.682 202.966C221.716 190.596 249.615 156.267 240.998 126.289C234.953 105.259 212.544 91.9578 184.85 90.1604Z" fill="url(#paint3_linear_8014_263808)"/>
<g opacity="0.3">
<path fill-rule="evenodd" clip-rule="evenodd" d="M120.19 198.069C122.706 198.535 127.208 191.875 126.974 185.874C126.74 179.874 121.18 181.029 123.094 170.057C125.008 159.086 127.358 153.913 116.418 144.297C105.478 134.681 106.746 124.922 97.9576 125.979C89.1696 127.036 91.3709 139.731 97.6084 148.313C103.846 156.895 103.35 159.749 96.0137 162.879C88.6777 166.009 102.378 175.878 104.123 178.782C105.867 181.685 105.001 189.544 108.29 193.089C111.58 196.634 117.674 197.603 120.19 198.069Z" fill="url(#paint4_linear_8014_263808)"/>
<path d="M116.547 183.045C115.208 180.817 110.474 174.213 104.871 171.825" stroke="url(#paint5_linear_8014_263808)" stroke-width="6.47303" stroke-linecap="round"/>
<path d="M113.522 167.167C112.184 164.939 117.499 159.616 118.021 153.548" stroke="url(#paint6_linear_8014_263808)" stroke-width="6.47303" stroke-linecap="round"/>
<path d="M122.773 210.722C122.204 209.774 121.268 204.52 119.853 198.631C115.422 180.191 111.825 156.367 103.875 143.136" stroke="url(#paint7_linear_8014_263808)" stroke-width="6.47303" stroke-linecap="round"/>
</g>
<g opacity="0.3">
<path d="M160.581 196.534C160.438 188.352 166.835 162.911 175.825 148.895" stroke="url(#paint8_linear_8014_263808)" stroke-width="6.47303" stroke-linecap="round"/>
<ellipse cx="167.784" cy="146.439" rx="2.37317" ry="7.44684" transform="rotate(-31 167.784 146.439)" fill="url(#paint9_linear_8014_263808)"/>
<ellipse cx="181.443" cy="153.8" rx="2.37317" ry="7.44684" transform="rotate(87 181.443 153.8)" fill="url(#paint10_linear_8014_263808)"/>
<ellipse cx="177.213" cy="164.677" rx="2.37317" ry="7.44684" transform="rotate(90 177.213 164.677)" fill="url(#paint11_linear_8014_263808)"/>
<ellipse cx="173.795" cy="175.214" rx="2.37317" ry="7.44684" transform="rotate(90 173.795 175.214)" fill="url(#paint12_linear_8014_263808)"/>
<ellipse cx="180.527" cy="141.006" rx="2.37317" ry="7.44684" transform="rotate(32 180.527 141.006)" fill="url(#paint13_linear_8014_263808)"/>
<ellipse cx="162.094" cy="157.967" rx="2.37317" ry="7.44684" transform="rotate(-42 162.094 157.967)" fill="url(#paint14_linear_8014_263808)"/>
<ellipse cx="157.876" cy="169.499" rx="2.37317" ry="7.44684" transform="rotate(-48 157.876 169.499)" fill="url(#paint15_linear_8014_263808)"/>
</g>
<path opacity="0.472712" d="M96.7539 101.444L117.301 85.721" stroke="url(#paint16_linear_8014_263808)" stroke-width="8.6307" stroke-linecap="round" stroke-linejoin="round"/>
<path opacity="0.472712" d="M96.957 109.339L113.163 96.9372" stroke="url(#paint17_linear_8014_263808)" stroke-width="8.6307" stroke-linecap="round" stroke-linejoin="round"/>
<path opacity="0.472712" d="M167.807 119.46L188.354 103.737" stroke="url(#paint18_linear_8014_263808)" stroke-width="8.6307" stroke-linecap="round" stroke-linejoin="round"/>
<path opacity="0.472712" d="M168.01 127.355L184.216 114.954" stroke="url(#paint19_linear_8014_263808)" stroke-width="8.6307" stroke-linecap="round" stroke-linejoin="round"/>
<path fill-rule="evenodd" clip-rule="evenodd" d="M244.389 143.391L199.145 134.947C186.015 154.186 179.802 170.411 180.506 183.622C188.801 187.061 204.771 192.502 228.416 199.946L247.441 148.782C248.22 146.686 247.153 144.356 245.057 143.576C244.84 143.495 244.616 143.434 244.389 143.391Z" fill="url(#paint20_linear_8014_263808)"/>
<path fill-rule="evenodd" clip-rule="evenodd" d="M199.16 145.969C199.573 147.393 199.386 148.421 198.6 149.053C197.42 150 196.235 151.612 195.067 151.745C193.899 151.877 192.635 152.518 192.43 154.156C192.331 154.947 188.279 159.039 186.831 164.669C186.464 166.094 186.91 168.288 188.168 171.249L191.517 169.406L196.285 161.681C201.582 159.841 204.567 158.702 205.242 158.262C206.255 157.603 209.535 154.781 208.902 153.723C208.27 152.665 210.327 145.944 211.549 144.637C212.771 143.33 213.772 140.147 213.797 138.971C213.821 137.796 214.245 134.276 211.195 134.388C209.161 134.463 205.15 138.323 199.16 145.969Z" fill="url(#paint21_linear_8014_263808)"/>
<mask id="mask1_8014_263808" style="mask-type:alpha" maskUnits="userSpaceOnUse" x="186" y="134" width="28" height="38">
<path fill-rule="evenodd" clip-rule="evenodd" d="M199.16 145.969C199.573 147.393 199.386 148.421 198.6 149.053C197.42 150 196.235 151.612 195.067 151.745C193.899 151.877 192.635 152.518 192.43 154.156C192.331 154.947 188.279 159.039 186.831 164.669C186.464 166.094 186.91 168.288 188.168 171.249L191.517 169.406L196.285 161.681C201.582 159.841 204.567 158.702 205.242 158.262C206.255 157.603 209.535 154.781 208.902 153.723C208.27 152.665 210.327 145.944 211.549 144.637C212.771 143.33 213.772 140.147 213.797 138.971C213.821 137.796 214.245 134.276 211.195 134.388C209.161 134.463 205.15 138.323 199.16 145.969Z" fill="white"/>
</mask>
<g mask="url(#mask1_8014_263808)">
<path fill-rule="evenodd" clip-rule="evenodd" d="M210.569 152.015C210.569 152.015 204.783 141.747 202.081 139.171C199.378 136.594 214.975 133.997 214.975 133.997L210.569 153.953V152.015Z" fill="url(#paint22_linear_8014_263808)" style="mix-blend-mode:multiply"/>
</g>
<path fill-rule="evenodd" clip-rule="evenodd" d="M195.998 121.818C194.602 122.758 195.793 126.542 194.282 128.702C193.456 129.883 191.718 130.539 190.915 131.009C188.645 132.339 190.978 133.288 191.447 134.079C191.916 134.87 191.542 136.658 191.191 138.067C190.84 139.477 189.593 142.652 190.93 143.361C192.266 144.071 200.471 147.168 202.844 146.222C205.217 145.276 206.065 140.537 206.65 140.228C207.235 139.92 207.645 140.245 208.185 140.38C209.591 140.73 210.86 139.943 211.535 138.822C212.3 137.552 213.388 138.132 212.8 136.397C211.892 133.721 206.634 123.18 204.545 122.422C202.456 121.664 198.158 120.364 195.998 121.818Z" fill="url(#paint23_radial_8014_263808)"/>
<path fill-rule="evenodd" clip-rule="evenodd" d="M202.813 124.714C197.47 123.382 194.985 124.576 193.051 120.423C191.908 117.97 194.133 110.446 197.88 110.276C198.802 114.481 203.257 114.843 205.838 115.192C219.697 117.069 221.147 129.741 216.998 137.205C215.663 139.608 214.427 141.334 213.324 142.629C212.624 143.451 211.71 144.441 211.401 144.911C211.298 145.067 210.404 147.047 210.249 147.008C209.782 146.892 209.969 146.868 210.199 144.82C210.428 142.771 210.556 142.22 210.971 140.553C211.094 140.061 213.418 136.279 211.633 134.909C210.444 133.997 208.836 134.554 206.811 136.582L205.582 136.119C206.394 134.312 206.907 132.979 207.122 132.118C207.444 130.827 208.157 126.047 202.813 124.714Z" fill="url(#paint24_linear_8014_263808)"/>
<path fill-rule="evenodd" clip-rule="evenodd" d="M202.813 124.714C197.47 123.382 194.985 124.576 193.051 120.423C191.908 117.97 194.133 110.446 197.88 110.276C198.802 114.481 203.257 114.843 205.838 115.192C219.697 117.069 221.147 129.741 216.998 137.205C215.663 139.608 214.427 141.334 213.324 142.629C212.624 143.451 211.71 144.441 211.401 144.911C211.298 145.067 210.404 147.047 210.249 147.008C209.782 146.892 209.969 146.868 210.199 144.82C210.428 142.771 210.556 142.22 210.971 140.553C211.094 140.061 213.418 136.279 211.633 134.909C210.444 133.997 208.836 134.554 206.811 136.582L205.582 136.119C206.394 134.312 206.907 132.979 207.122 132.118C207.444 130.827 208.157 126.047 202.813 124.714Z" fill="url(#paint25_linear_8014_263808)"/>
<path fill-rule="evenodd" clip-rule="evenodd" d="M205.583 136.181C205.176 137.089 203.637 139.185 202.248 139.942C200.859 140.698 197.933 140.745 197.333 139.882C196.732 139.019 194.006 135.111 191.549 134.498C191.426 134.993 191.089 135.834 190.539 137.022C192.441 137.813 193.546 138.557 193.853 139.254C194.314 140.299 194.561 139.598 194.101 140.063C193.641 140.527 191.237 140.17 191.054 138.358C190.361 139.801 189.616 143.697 189.878 144.587C190.141 145.477 191.653 145.885 193.144 145.981C194.636 146.077 199.951 146.888 201.305 146.611C202.659 146.334 204.378 146.494 205.511 143.214C206.644 139.934 206.392 137.81 207.87 135.016C209.348 132.223 205.991 135.272 205.583 136.181Z" fill="url(#paint26_linear_8014_263808)"/>
<g filter="url(#filter0_i_8014_263808)">
<path fill-rule="evenodd" clip-rule="evenodd" d="M209.818 149.446C215.433 150.725 219.207 152.856 221.137 155.841C224.033 160.317 225.484 172.209 225.484 176.066C225.484 179.923 225.946 189.385 225.484 191.967C225.022 194.548 222.902 196.466 218.513 196.466C215.588 196.466 199.006 191.025 168.769 180.141C172.745 178.175 174.797 176.817 174.923 176.066C175.113 174.941 184.341 154.415 187.259 152.324C190.178 150.233 196.236 149.243 198.665 149.243C198.31 150.229 197.52 151.024 198.636 152.324C199.753 153.623 201.945 153.85 204.116 152.948C205.563 152.347 207.464 151.179 209.818 149.446Z" fill="white"/>
<path fill-rule="evenodd" clip-rule="evenodd" d="M209.818 149.446C215.433 150.725 219.207 152.856 221.137 155.841C224.033 160.317 225.484 172.209 225.484 176.066C225.484 179.923 225.946 189.385 225.484 191.967C225.022 194.548 222.902 196.466 218.513 196.466C215.588 196.466 199.006 191.025 168.769 180.141C172.745 178.175 174.797 176.817 174.923 176.066C175.113 174.941 184.341 154.415 187.259 152.324C190.178 150.233 196.236 149.243 198.665 149.243C198.31 150.229 197.52 151.024 198.636 152.324C199.753 153.623 201.945 153.85 204.116 152.948C205.563 152.347 207.464 151.179 209.818 149.446Z" fill="url(#paint27_linear_8014_263808)"/>
</g>
<mask id="mask2_8014_263808" style="mask-type:alpha" maskUnits="userSpaceOnUse" x="168" y="149" width="58" height="48">
<path fill-rule="evenodd" clip-rule="evenodd" d="M209.818 149.446C215.433 150.725 219.207 152.856 221.137 155.841C224.033 160.317 225.484 172.209 225.484 176.066C225.484 179.923 225.946 189.385 225.484 191.967C225.022 194.548 222.902 196.466 218.513 196.466C215.588 196.466 199.006 191.025 168.769 180.141C172.745 178.175 174.797 176.817 174.923 176.066C175.113 174.941 184.341 154.415 187.259 152.324C190.178 150.233 196.236 149.243 198.665 149.243C198.31 150.229 197.52 151.024 198.636 152.324C199.753 153.623 201.945 153.85 204.116 152.948C205.563 152.347 207.464 151.179 209.818 149.446Z" fill="white"/>
<path fill-rule="evenodd" clip-rule="evenodd" d="M209.818 149.446C215.433 150.725 219.207 152.856 221.137 155.841C224.033 160.317 225.484 172.209 225.484 176.066C225.484 179.923 225.946 189.385 225.484 191.967C225.022 194.548 222.902 196.466 218.513 196.466C215.588 196.466 199.006 191.025 168.769 180.141C172.745 178.175 174.797 176.817 174.923 176.066C175.113 174.941 184.341 154.415 187.259 152.324C190.178 150.233 196.236 149.243 198.665 149.243C198.31 150.229 197.52 151.024 198.636 152.324C199.753 153.623 201.945 153.85 204.116 152.948C205.563 152.347 207.464 151.179 209.818 149.446Z" stroke="white"/>
</mask>
<g mask="url(#mask2_8014_263808)">
<g opacity="0.585435">
<path fill-rule="evenodd" clip-rule="evenodd" d="M195.708 150.033C191.058 154.793 200.232 157.33 203.978 156.061C207.723 154.793 211.927 150.033 211.927 150.033C211.927 150.033 201.335 142.151 198.522 146.092C195.708 150.033 200.359 145.273 195.708 150.033Z" fill="url(#paint28_linear_8014_263808)" style="mix-blend-mode:multiply"/>
</g>
<g opacity="0.54654">
<path fill-rule="evenodd" clip-rule="evenodd" d="M189.08 193.101C192.392 193.101 213.922 189.536 213.922 186.642C213.922 183.748 212.262 163.359 212.262 163.359" fill="url(#paint29_linear_8014_263808)" style="mix-blend-mode:multiply"/>
</g>
<g opacity="0.54654">
<path fill-rule="evenodd" clip-rule="evenodd" d="M158.916 180.55C160.416 180.55 167.35 189.335 173.686 186.378C181.339 182.806 185.795 169.58 185.795 167.997C185.795 166.785 187.805 162.49 187.04 157.81C186.586 155.035 182.883 149.007 182.883 149.007" fill="url(#paint30_linear_8014_263808)" style="mix-blend-mode:multiply"/>
</g>
</g>
<path fill-rule="evenodd" clip-rule="evenodd" d="M133.714 84.7691C134.529 90.9795 134.685 94.5934 134.183 95.6107C133.429 97.1368 134.889 104.316 139.538 104.732C144.187 105.148 146.624 103.167 146.807 98.3235C146.99 93.48 147.281 91.6127 148.031 89.4694C148.782 87.3261 134.79 78.4463 134.183 80.0879C133.777 81.1824 133.621 82.7428 133.714 84.7691Z" fill="url(#paint31_linear_8014_263808)"/>
<path fill-rule="evenodd" clip-rule="evenodd" d="M133.714 84.7691C134.529 90.9795 134.685 94.5934 134.183 95.6107C133.429 97.1368 134.889 104.316 139.538 104.732C144.187 105.148 146.624 103.167 146.807 98.3235C146.99 93.48 147.281 91.6127 148.031 89.4694C148.782 87.3261 134.79 78.4463 134.183 80.0879C133.777 81.1824 133.621 82.7428 133.714 84.7691Z" fill="url(#paint32_linear_8014_263808)" fill-opacity="0.67"/>
<path fill-rule="evenodd" clip-rule="evenodd" d="M152.822 70.5016C152.822 71.8825 153.005 76.1932 152.867 77.2856C152.728 78.3779 152.617 80.0057 152.742 82.1087C152.867 84.2117 151.774 89.384 150.555 91.2578C149.827 92.3766 146.942 94.5334 144.112 94.2304C140.757 93.8712 137.089 90.6317 136.697 89.0118C135.973 86.0255 136.573 83.3903 134.488 81.8034C132.403 80.2165 130.884 78.7425 131.072 76.2927C131.259 73.8429 133.4 68.0111 134.488 67.766C135.576 67.521 152.822 69.1208 152.822 70.5016Z" fill="url(#paint33_radial_8014_263808)"/>
<path fill-rule="evenodd" clip-rule="evenodd" d="M134.912 68.7385C135.902 70.2312 144.563 77.427 153.243 72.7553C161.924 68.0836 150.377 59.6026 145.141 58.635C139.904 57.6675 135.395 58.2053 132.228 62.6001C129.061 66.995 127.472 74.5271 133.668 84.745C133.941 83.1236 134.077 82.043 134.077 81.5034C131.611 79.2474 130.995 77.1451 132.228 75.1965C134.077 72.2735 134.689 78.0044 134.912 78.925C135.649 78.925 136.112 78.7967 136.302 78.54C135.795 77.0936 135.61 75.756 135.747 74.5271C135.953 72.6839 136.562 72.2735 134.912 68.7385Z" fill="url(#paint34_linear_8014_263808)"/>
<path fill-rule="evenodd" clip-rule="evenodd" d="M134.912 68.7385C135.902 70.2312 144.563 77.427 153.243 72.7553C161.924 68.0836 150.377 59.6026 145.141 58.635C139.904 57.6675 135.395 58.2053 132.228 62.6001C129.061 66.995 127.472 74.5271 133.668 84.745C133.941 83.1236 134.077 82.043 134.077 81.5034C131.611 79.2474 130.995 77.1451 132.228 75.1965C134.077 72.2735 134.689 78.0044 134.912 78.925C135.649 78.925 136.112 78.7967 136.302 78.54C135.795 77.0936 135.61 75.756 135.747 74.5271C135.953 72.6839 136.562 72.2735 134.912 68.7385Z" fill="url(#paint35_linear_8014_263808)"/>
<path fill-rule="evenodd" clip-rule="evenodd" d="M118.387 176.491C118.387 174.239 115.778 159.488 121.155 155.056C126.532 150.625 133.182 157.09 157.677 158.069C158.081 167.976 158.081 174.95 157.677 178.992C157.274 183.034 142.478 188.764 118.387 176.491Z" fill="#7B61FF"/>
<path fill-rule="evenodd" clip-rule="evenodd" d="M114.234 157.388C114.811 159.947 116.722 162.68 117.366 163.27C118.01 163.86 120.352 164.592 120.795 164.45C121.238 164.308 122.403 163.333 122.456 162.193C122.509 161.053 121.391 160.411 121.383 158.726C121.375 157.042 118.574 154.599 118.574 153.108C118.574 151.618 113.656 154.83 114.234 157.388Z" fill="#7B61FF"/>
<path fill-rule="evenodd" clip-rule="evenodd" d="M186.238 153.878C187.976 156.183 189.107 156.586 189.758 157.274C190.409 157.961 191.9 160.387 192.453 159.983C193.006 159.579 193.579 158.782 192.718 157.274C191.857 155.765 190.553 154.175 191.006 153.376C191.458 152.578 193.668 150.218 195.513 149.67C197.357 149.122 197.97 149.476 198.154 149.182C198.338 148.888 195.948 148.46 194.963 148.35C193.979 148.239 192.583 148.113 190.571 148.35C189.23 148.508 188.296 147.95 187.768 146.677C185.59 149.941 185.08 152.342 186.238 153.878Z" fill="#7B61FF"/>
<g filter="url(#filter1_i_8014_263808)">
<path fill-rule="evenodd" clip-rule="evenodd" d="M119.407 153.941C118.175 153.247 114.051 154.904 114.051 158.255C111.861 150.801 105.783 140.711 105.783 129.684C108.569 120.071 115.838 104.915 117.461 102.537C118.543 100.951 123.905 98.7313 133.547 95.8779C135.703 98.2349 138.259 99.4135 141.214 99.4135C145.646 99.4135 145.879 96.6952 147.063 96.5534C148.248 96.4115 154.956 99.4135 158.265 102.607C161.573 105.801 165.116 118.362 173.819 128.113C182.522 137.864 185.644 144.667 189.962 148.331C188.378 149.749 186.232 150.575 186.232 153.941C184.669 152.795 175.949 146.797 168.557 139.816C161.166 132.835 157.888 127.028 156.773 126.242C155.49 125.338 158.39 153.303 158.265 158.255C158.139 163.207 141.113 163.49 135.789 163.49C130.464 163.49 122.23 161.647 120.116 159.829C119.768 159.53 120.681 120.212 120.116 121.862C118.684 126.047 115.356 128.113 115.356 130.87C115.356 137.275 119.415 154.392 119.407 153.941Z" fill="url(#paint36_linear_8014_263808)"/>
</g>
<mask id="mask3_8014_263808" style="mask-type:alpha" maskUnits="userSpaceOnUse" x="105" y="95" width="85" height="69">
<path fill-rule="evenodd" clip-rule="evenodd" d="M119.407 153.941C118.175 153.247 114.051 154.904 114.051 158.255C111.861 150.801 105.783 140.711 105.783 129.684C108.569 120.071 115.838 104.915 117.461 102.537C118.543 100.951 123.905 98.7313 133.547 95.8779C135.703 98.2349 138.259 99.4135 141.214 99.4135C145.646 99.4135 145.879 96.6952 147.063 96.5534C148.248 96.4115 154.956 99.4135 158.265 102.607C161.573 105.801 165.116 118.362 173.819 128.113C182.522 137.864 185.644 144.667 189.962 148.331C188.378 149.749 186.232 150.575 186.232 153.941C184.669 152.795 175.949 146.797 168.557 139.816C161.166 132.835 157.888 127.028 156.773 126.242C155.49 125.338 158.39 153.303 158.265 158.255C158.139 163.207 141.113 163.49 135.789 163.49C130.464 163.49 122.23 161.647 120.116 159.829C119.768 159.53 120.681 120.212 120.116 121.862C118.684 126.047 115.356 128.113 115.356 130.87C115.356 137.275 119.415 154.392 119.407 153.941Z" fill="white"/>
</mask>
<g mask="url(#mask3_8014_263808)">
<path fill-rule="evenodd" clip-rule="evenodd" d="M118.33 125.306L125.958 115.168C125.958 115.168 128.784 148.045 116.171 159.433C113.948 146.26 115.185 139.375 116.171 133.619C116.818 129.839 118.33 125.306 118.33 125.306Z" fill="url(#paint37_linear_8014_263808)" style="mix-blend-mode:multiply"/>
<g opacity="0.161551">
<path fill-rule="evenodd" clip-rule="evenodd" d="M120.874 161.722C123.722 153.38 136.518 125.902 141.995 121.984C147.472 118.066 147.884 113.009 147.678 106.297C147.472 99.5854 134.68 86.2127 127.993 91.2708C121.305 96.3289 103.402 105.661 101.444 121.31C99.4861 136.958 107.824 160.961 111.591 158.588C115.357 156.215 118.027 170.065 120.874 161.722Z" fill="url(#paint38_linear_8014_263808)" style="mix-blend-mode:multiply"/>
</g>
</g>
<path fill-rule="evenodd" clip-rule="evenodd" d="M134.359 90.8141C134.359 92.3395 136.678 96.6036 141.158 96.4413C145.638 96.2791 146.539 96.1557 147.048 93.8812C147.048 97.251 147.222 98.2458 146.396 100.468C145.57 102.69 140.421 103.909 137.533 102.063C134.645 100.217 133.14 99.1118 133.563 95.7419C133.985 92.3721 134.359 89.2886 134.359 90.8141Z" fill="url(#paint39_linear_8014_263808)"/>
<path fill-rule="evenodd" clip-rule="evenodd" d="M32.7669 137.585L73.8459 127.66C81.4433 148.144 84.8901 164.991 84.1865 178.202C75.8911 181.641 63.448 186.099 46.8572 191.576L29.8942 142.852C29.1591 140.74 30.275 138.432 32.3866 137.697C32.5115 137.654 32.6384 137.616 32.7669 137.585Z" fill="url(#paint40_linear_8014_263808)"/>
<path fill-rule="evenodd" clip-rule="evenodd" d="M79.5271 130.431C78.6476 133.216 81.5047 141.081 86.0436 144.924C90.5826 148.767 75.9835 148.114 75.975 143.829C75.9664 139.544 80.4065 127.645 79.5271 130.431Z" fill="#7B61FF"/>
<path fill-rule="evenodd" clip-rule="evenodd" d="M81.5138 139.159C84.9463 140.575 87.421 142.087 88.9378 143.694C91.213 146.106 102.278 164.865 103.582 165.975C104.887 167.086 113.865 167.927 115.217 168.37C114.526 169.371 113.181 172.46 113.872 175.178C111.738 176.252 107.051 175.293 97.4639 174.219C90.3322 168.253 86.6291 158.844 85.1042 154.352C83.5792 149.861 82.3825 144.796 81.5138 139.159Z" fill="url(#paint41_linear_8014_263808)"/>
<path fill-rule="evenodd" clip-rule="evenodd" d="M86.2247 142.376C88.9959 147.116 93.2707 156.634 94.4846 160.743C95.7865 165.15 90.7259 176.755 90.7847 179.482C90.8337 181.756 88.4937 180.962 67.7072 183.054C67.0647 179.044 67.0647 174.031 67.7072 168.014C68.6708 158.989 64.7441 146.847 65.8327 144.808C66.9214 142.769 69.5698 138.433 70.7325 138.433C71.895 138.433 83.4534 137.636 86.2247 142.376Z" fill="url(#paint42_radial_8014_263808)"/>
<path fill-rule="evenodd" clip-rule="evenodd" d="M0.5 192.268L122.428 166.814C126.938 165.873 131.62 166.191 135.961 167.734L197.041 189.441C220.565 197.801 217.862 231.904 193.316 236.455C191.847 236.728 190.357 236.865 188.864 236.865H45.0966C20.4666 236.865 0.5 216.898 0.5 192.268Z" fill="url(#paint43_linear_8014_263808)"/>
<g style="mix-blend-mode:multiply" opacity="0.196931">
<path fill-rule="evenodd" clip-rule="evenodd" d="M90.502 196.605L140.057 188.595L177.761 205.115L123.176 219.595" fill="url(#paint44_linear_8014_263808)"/>
</g>
<path fill-rule="evenodd" clip-rule="evenodd" d="M78.4306 131.584C77.9127 134.004 78.3596 135.755 78.3596 138.509C78.3596 142.191 70.8423 140.693 70.5857 137.902C70.3292 135.111 70.6322 131.37 69.5736 128.834C68.515 126.299 78.9484 129.164 78.4306 131.584Z" fill="url(#paint45_linear_8014_263808)"/>
<path fill-rule="evenodd" clip-rule="evenodd" d="M78.4306 131.584C77.9127 134.004 78.3596 135.755 78.3596 138.509C78.3596 142.191 70.8423 140.693 70.5857 137.902C70.3292 135.111 70.6322 131.37 69.5736 128.834C68.515 126.299 78.9484 129.164 78.4306 131.584Z" fill="url(#paint46_linear_8014_263808)" fill-opacity="0.67"/>
<mask id="mask4_8014_263808" style="mask-type:alpha" maskUnits="userSpaceOnUse" x="69" y="127" width="10" height="14">
<path fill-rule="evenodd" clip-rule="evenodd" d="M78.4306 131.584C77.9127 134.004 78.3596 135.755 78.3596 138.509C78.3596 142.191 70.8423 140.693 70.5857 137.902C70.3292 135.111 70.6322 131.37 69.5736 128.834C68.515 126.299 78.9484 129.164 78.4306 131.584Z" fill="white"/>
<path fill-rule="evenodd" clip-rule="evenodd" d="M78.4306 131.584C77.9127 134.004 78.3596 135.755 78.3596 138.509C78.3596 142.191 70.8423 140.693 70.5857 137.902C70.3292 135.111 70.6322 131.37 69.5736 128.834C68.515 126.299 78.9484 129.164 78.4306 131.584Z" stroke="white"/>
</mask>
<g mask="url(#mask4_8014_263808)">
<g opacity="0.717132">
<path fill-rule="evenodd" clip-rule="evenodd" d="M67.668 142.353C67.668 142.353 79.0231 132.839 81.6437 132.839C84.2642 132.839 67.668 129.649 67.668 129.649V142.353Z" fill="url(#paint47_linear_8014_263808)" style="mix-blend-mode:multiply"/>
</g>
</g>
<path fill-rule="evenodd" clip-rule="evenodd" d="M80.7381 112.111C81.4063 114.221 81.3315 116.561 82.6279 118.576C83.9243 120.591 85.6324 122.35 86.086 123.246C86.5397 124.141 84.2664 124.936 84.2664 125.737C84.2664 126.537 85.7814 132.108 84.9707 132.64C84.5087 133.884 76.0009 135.608 73.8527 134.373C71.9588 134.373 69.04 132.712 67.2488 128.629C65.4577 124.546 65.3751 114.632 67.2488 112.111C69.1226 109.591 80.07 110.001 80.7381 112.111Z" fill="url(#paint48_radial_8014_263808)"/>
<path fill-rule="evenodd" clip-rule="evenodd" d="M94.013 192.757L96.8512 169.731L135.556 168.955L132.172 191.436L94.013 192.757Z" fill="url(#paint49_linear_8014_263808)"/>
<mask id="mask5_8014_263808" style="mask-type:alpha" maskUnits="userSpaceOnUse" x="94" y="168" width="42" height="25">
<path fill-rule="evenodd" clip-rule="evenodd" d="M94.013 192.757L96.8512 169.731L135.556 168.955L132.172 191.436L94.013 192.757Z" fill="white"/>
</mask>
<g mask="url(#mask5_8014_263808)">
<g style="mix-blend-mode:multiply" opacity="0.458036">
<path fill-rule="evenodd" clip-rule="evenodd" d="M134.222 186.553L129.184 168.35H137.3L134.222 186.553Z" fill="url(#paint50_linear_8014_263808)"/>
</g>
<g style="mix-blend-mode:multiply" opacity="0.528404">
<path fill-rule="evenodd" clip-rule="evenodd" d="M98.3144 182.135C98.3144 183.588 101.812 185.696 105.923 187.541C108.307 188.611 107.979 191.095 109.016 191.095C111.843 191.095 91.7708 199.254 91.7708 199.254C91.7708 199.254 90.6823 188.221 91.7708 185.342C92.9571 182.204 98.3144 181.338 98.3144 182.135Z" fill="url(#paint51_linear_8014_263808)"/>
</g>
</g>
<path fill-rule="evenodd" clip-rule="evenodd" d="M90.8617 183.416C92.037 183.416 93.4601 182.794 95.5385 182.319C97.6169 181.844 98.9278 181.09 99.5659 181.792C99.8152 182.066 99.3992 182.734 99.0951 182.916C98.791 183.099 98.6299 183.366 97.1784 183.903C95.8315 184.401 95.0516 184.634 95.295 185.098C95.5385 185.562 97.7451 185.966 98.4519 186.153C99.3538 186.392 100.71 186.858 102.004 187.075C103.45 187.318 105.047 187.345 105.231 187.451C105.578 187.651 106.087 188.407 105.231 188.648C105.028 188.705 103.565 188.734 101.786 188.648C99.8856 188.556 98.1432 188.192 98.4519 188.648C98.5251 188.756 100.277 189.114 102.202 189.114C103.343 189.114 105.651 189.256 105.797 189.256C106.325 189.256 106.59 189.977 106.111 190.333C105.999 190.416 103.772 190.668 102.004 190.733C99.9688 190.808 98.1677 190.623 98.1464 190.733C98.1309 190.813 100.275 191.082 102.202 190.99C103.762 190.916 104.62 190.794 104.911 190.99C105.203 191.187 105.129 191.711 104.911 191.947C104.821 192.045 103.411 192.493 102.004 192.587C100.028 192.718 97.8806 192.489 97.8616 192.587C97.8112 192.846 101.463 193.011 102.004 193.011C102.774 193.011 102.677 194.007 101.786 194.218C100.668 194.482 98.3545 194.461 97.3018 194.461C96.249 194.461 94.667 194.218 93.0841 193.63C91.5011 193.042 89.3874 192.255 88.0476 191.947C86.5997 191.614 87.6395 187.037 88.642 184.635C89.6445 182.233 89.6865 183.416 90.8617 183.416Z" fill="url(#paint52_linear_8014_263808)"/>
<path fill-rule="evenodd" clip-rule="evenodd" d="M55.8786 157.005C52.8846 164.662 55.2516 170.473 56.5659 177.106C57.8802 183.739 58.4782 185.175 60.5729 186.524C62.6675 187.873 67.8039 189.753 87.5458 192.032C87.5458 190.456 87.4955 186.538 90.0758 183.249C86.4277 183.249 73.4599 179.672 69.0013 178.551C64.9955 175.481 69.0013 170.559 69.0013 161.325C69.0013 152.09 58.8727 149.349 55.8786 157.005Z" fill="url(#paint53_linear_8014_263808)"/>
<path fill-rule="evenodd" clip-rule="evenodd" d="M77.5234 119.998L67.4181 121.902V122.658L77.8831 121.862L77.5234 119.998Z" fill="#7B61FF"/>
<path fill-rule="evenodd" clip-rule="evenodd" d="M80.2144 123.954C79.0477 124.077 77.9441 122.688 77.7514 120.855C77.5587 119.021 78.3495 117.433 79.5161 117.311C80.6828 117.188 81.7865 118.577 81.9792 120.41C82.1718 122.244 81.3811 123.832 80.2144 123.954Z" fill="black" fill-opacity="0.01" stroke="#7B61FF" stroke-width="1.07884"/>
<path fill-rule="evenodd" clip-rule="evenodd" d="M85.8479 120.688C84.7923 120.799 83.7938 119.543 83.6194 117.884C83.4451 116.225 84.1605 114.788 85.2161 114.678C86.2717 114.567 87.2702 115.823 87.4445 117.482C87.6189 119.141 86.9034 120.577 85.8479 120.688Z" fill="black" fill-opacity="0.01" stroke="#7B61FF" stroke-width="1.07884"/>
<path fill-rule="evenodd" clip-rule="evenodd" d="M81.7653 119.77C81.7653 119.308 83.0707 118.401 83.7256 118.858L81.7653 119.77Z" fill="black" fill-opacity="0.01"/>
<path d="M81.7653 119.77C81.7653 119.308 83.0707 118.401 83.7256 118.858" stroke="#7B61FF" stroke-width="1.07884"/>
<path fill-rule="evenodd" clip-rule="evenodd" d="M67.9507 113.072C70.7484 115.235 77.2578 115.869 81.6886 113.78C86.1194 111.69 87.2006 103.133 81.6886 100.5C79.5921 99.4989 75.4281 100.147 76.0056 103.166C71.1831 101.301 65.939 102.934 63.8598 104.178C60.6201 106.116 58.095 108.228 56.7672 112.667C55.4395 117.106 57.6071 121.521 56.5403 123.782C55.4735 126.043 52.3306 128.006 54.0109 134.953C55.6912 141.901 51.6536 140.789 50.7435 145.027C49.8332 149.265 52.7324 151.287 50.7435 154.111C48.7545 156.934 44.9415 168.855 52.0831 175.24C59.2247 181.624 72.5327 186.276 75.5568 172.532C78.5809 158.788 64.3952 155.788 68.5581 148.915C72.7209 142.042 69.9632 135.67 70.8346 133.705C71.9067 131.288 70.754 127.598 68.7181 122.599C66.8324 117.968 69.547 116.732 67.9507 113.072Z" fill="url(#paint54_linear_8014_263808)"/>
<path fill-rule="evenodd" clip-rule="evenodd" d="M67.9507 113.072C70.7484 115.235 77.2578 115.869 81.6886 113.78C86.1194 111.69 87.2006 103.133 81.6886 100.5C79.5921 99.4989 75.4281 100.147 76.0056 103.166C71.1831 101.301 65.939 102.934 63.8598 104.178C60.6201 106.116 58.095 108.228 56.7672 112.667C55.4395 117.106 57.6071 121.521 56.5403 123.782C55.4735 126.043 52.3306 128.006 54.0109 134.953C55.6912 141.901 51.6536 140.789 50.7435 145.027C49.8332 149.265 52.7324 151.287 50.7435 154.111C48.7545 156.934 44.9415 168.855 52.0831 175.24C59.2247 181.624 72.5327 186.276 75.5568 172.532C78.5809 158.788 64.3952 155.788 68.5581 148.915C72.7209 142.042 69.9632 135.67 70.8346 133.705C71.9067 131.288 70.754 127.598 68.7181 122.599C66.8324 117.968 69.547 116.732 67.9507 113.072Z" fill="url(#paint55_linear_8014_263808)"/>
<path fill-rule="evenodd" clip-rule="evenodd" d="M92.7969 210.021L119.732 205.393C134.6 214.684 141.886 219.359 141.59 219.419C141.17 219.504 111.427 224.704 109.418 225.243C109.606 224.764 104.064 219.688 92.7969 210.021Z" fill="url(#paint56_linear_8014_263808)"/>
<path fill-rule="evenodd" clip-rule="evenodd" d="M108.789 202.834L136.937 200.94L152.412 214.46L117.343 216.879L108.789 202.834Z" fill="url(#paint57_linear_8014_263808)"/>
<path fill-rule="evenodd" clip-rule="evenodd" d="M177.88 204.857L203.444 194.678C203.963 194.471 204.217 193.882 204.01 193.363C203.903 193.093 203.684 192.883 203.411 192.785L170.86 181.118L138.749 189.054L177.88 204.857Z" fill="url(#paint58_linear_8014_263808)"/>
<g filter="url(#filter2_i_8014_263808)">
<path fill-rule="evenodd" clip-rule="evenodd" d="M133.058 155.996L169.127 167.668C170.189 168.012 170.976 168.909 171.179 170.006L177.633 204.984L138.547 189.129L131.499 157.415C131.353 156.761 131.766 156.112 132.421 155.966C132.632 155.919 132.852 155.93 133.058 155.996Z" fill="url(#paint59_linear_8014_263808)"/>
<path fill-rule="evenodd" clip-rule="evenodd" d="M133.058 155.996L169.127 167.668C170.189 168.012 170.976 168.909 171.179 170.006L177.633 204.984L138.547 189.129L131.499 157.415C131.353 156.761 131.766 156.112 132.421 155.966C132.632 155.919 132.852 155.93 133.058 155.996Z" fill="url(#paint60_linear_8014_263808)" fill-opacity="0.23"/>
</g>
<path fill-rule="evenodd" clip-rule="evenodd" d="M151.152 181.776C153.011 182.682 154.971 182.68 155.78 181.022C156.589 179.364 155.13 177.488 153.271 176.581C151.412 175.674 149.654 175.676 148.846 177.334C148.037 178.992 149.293 180.869 151.152 181.776Z" fill="#D6E3FA"/>
<path fill-rule="evenodd" clip-rule="evenodd" d="M138.886 80.1718C138.879 78.9085 139.898 77.8788 141.161 77.8715L143.118 77.8602C144.412 77.8527 145.459 78.9119 145.437 80.2062V80.2062C145.415 81.4756 144.371 82.4886 143.102 82.4725L141.145 82.4477C139.898 82.4318 138.893 81.4194 138.886 80.1718V80.1718Z" stroke="#7B61FF" stroke-width="1.07884"/>
<path fill-rule="evenodd" clip-rule="evenodd" d="M149.602 80.1804C149.588 78.9061 150.617 77.8657 151.891 77.8662L153.275 77.8668C154.556 77.8673 155.59 78.9118 155.577 80.1919V80.1919C155.565 81.4737 154.509 82.4987 153.227 82.4723L151.843 82.4437C150.607 82.4182 149.615 81.4163 149.602 80.1804V80.1804Z" stroke="#7B61FF" stroke-width="1.07884"/>
<path fill-rule="evenodd" clip-rule="evenodd" d="M145.431 79.8856H149.48H145.431Z" fill="black" fill-opacity="0.01"/>
<path d="M145.431 79.8856H149.48" stroke="#7B61FF" stroke-width="1.07884"/>
<path fill-rule="evenodd" clip-rule="evenodd" d="M134.255 76.441L139.188 78.8372V81.1834L134.724 78.0681L134.255 76.441Z" fill="#7B61FF"/>
<path fill-rule="evenodd" clip-rule="evenodd" d="M84.3535 127.226C84.5523 127.123 84.4898 127.576 84.5763 127.842C84.6627 128.108 84.7216 128.15 84.7501 128.323C83.9256 128.748 82.4907 128.832 81.5299 128.263C81.3375 128.15 81.1693 128.056 81.3288 127.899C81.4882 127.743 81.6869 127.841 81.9013 127.904C82.6496 128.126 83.8398 127.49 84.3535 127.226Z" fill="#7B61FF"/>
<path opacity="0.7" fill-rule="evenodd" clip-rule="evenodd" d="M55.3619 218.347C62.0698 218.347 67.5077 219.526 67.5077 220.979C67.5077 222.432 62.0698 223.611 55.3619 223.611C48.654 223.611 43.2161 222.432 43.2161 220.979C43.2161 219.526 48.654 218.347 55.3619 218.347Z" fill="url(#paint61_linear_8014_263808)"/>
<path fill-rule="evenodd" clip-rule="evenodd" d="M71.5497 205.67C72.4636 207.271 72.9754 209.065 72.9754 210.96C72.9754 217.723 66.45 223.207 58.4004 223.207C50.3509 223.207 43.8255 217.723 43.8255 210.96C43.8255 208.955 44.3987 207.063 45.4148 205.393C51.8715 206.415 64.723 206.349 71.5497 205.67Z" fill="url(#paint62_linear_8014_263808)"/>
<mask id="mask6_8014_263808" style="mask-type:alpha" maskUnits="userSpaceOnUse" x="43" y="205" width="30" height="19">
<path fill-rule="evenodd" clip-rule="evenodd" d="M71.5497 205.67C72.4636 207.271 72.9754 209.065 72.9754 210.96C72.9754 217.723 66.45 223.207 58.4004 223.207C50.3509 223.207 43.8255 217.723 43.8255 210.96C43.8255 208.955 44.3987 207.063 45.4148 205.393C51.8715 206.415 64.723 206.349 71.5497 205.67Z" fill="white"/>
</mask>
<g mask="url(#mask6_8014_263808)">
</g>
<path fill-rule="evenodd" clip-rule="evenodd" d="M58.498 202.962C65.8209 202.962 71.7572 204.367 71.7572 206.1C71.7572 207.833 65.8209 209.237 58.498 209.237C51.1752 209.237 45.2388 207.833 45.2388 206.1C45.2388 204.367 51.1752 202.962 58.498 202.962Z" fill="url(#paint63_linear_8014_263808)"/>
<mask id="mask7_8014_263808" style="mask-type:alpha" maskUnits="userSpaceOnUse" x="45" y="202" width="27" height="8">
<path fill-rule="evenodd" clip-rule="evenodd" d="M58.498 202.962C65.8209 202.962 71.7572 204.367 71.7572 206.1C71.7572 207.833 65.8209 209.237 58.498 209.237C51.1752 209.237 45.2388 207.833 45.2388 206.1C45.2388 204.367 51.1752 202.962 58.498 202.962Z" fill="white"/>
</mask>
<g mask="url(#mask7_8014_263808)">
</g>
<g filter="url(#filter3_i_8014_263808)">
<path fill-rule="evenodd" clip-rule="evenodd" d="M57.3813 203.774C56.6572 198.763 54.6653 191.527 48.6768 183.733C45.1492 179.142 45.1377 167.962 44.6282 166.729C47.3963 167.681 52.3688 170.134 57.3813 177.053C62.6358 184.305 59.3024 199.096 57.3813 203.774Z" fill="url(#paint64_linear_8014_263808)"/>
</g>
<mask id="mask8_8014_263808" style="mask-type:alpha" maskUnits="userSpaceOnUse" x="44" y="166" width="17" height="38">
<path fill-rule="evenodd" clip-rule="evenodd" d="M57.3813 203.774C56.6572 198.763 54.6653 191.527 48.6768 183.733C45.1492 179.142 45.1377 167.962 44.6282 166.729C47.3963 167.681 52.3688 170.134 57.3813 177.053C62.6358 184.305 59.3024 199.096 57.3813 203.774Z" fill="white"/>
</mask>
<g mask="url(#mask8_8014_263808)">
<g style="mix-blend-mode:multiply" opacity="0.5">
<mask id="path-91-inside-1_8014_263808" fill="white">
<path fill-rule="evenodd" clip-rule="evenodd" d="M57.1784 203.774C57.731 191.593 56.2144 183.905 51.4462 176.648L57.1784 203.774Z"/>
</mask>
<path fill-rule="evenodd" clip-rule="evenodd" d="M57.1784 203.774C57.731 191.593 56.2144 183.905 51.4462 176.648L57.1784 203.774Z" fill="black" fill-opacity="0.01"/>
<path d="M60.4116 203.92C60.9809 191.37 59.4345 182.912 54.1512 174.871L48.7413 178.425C52.9942 184.898 54.481 191.816 53.9452 203.627L60.4116 203.92Z" fill="#489C71" mask="url(#path-91-inside-1_8014_263808)"/>
</g>
</g>
<g filter="url(#filter4_i_8014_263808)">
<path fill-rule="evenodd" clip-rule="evenodd" d="M57.4062 208.916C55.1691 205.338 51.2167 200.489 44.0271 196.557C39.7919 194.241 36.0248 185.719 35.2215 184.95C37.6537 184.746 42.273 184.946 48.4236 188.538C54.8711 192.304 57.2995 204.703 57.4062 208.916Z" fill="url(#paint65_linear_8014_263808)"/>
</g>
<mask id="mask9_8014_263808" style="mask-type:alpha" maskUnits="userSpaceOnUse" x="35" y="184" width="23" height="25">
<path fill-rule="evenodd" clip-rule="evenodd" d="M57.4062 208.916C55.1691 205.338 51.2167 200.489 44.0271 196.557C39.7919 194.241 36.0248 185.719 35.2215 184.95C37.6537 184.746 42.273 184.946 48.4236 188.538C54.8711 192.304 57.2995 204.703 57.4062 208.916Z" fill="white"/>
</mask>
<g mask="url(#mask9_8014_263808)">
<g style="mix-blend-mode:multiply" opacity="0.5">
<mask id="path-95-inside-2_8014_263808" fill="white">
<path fill-rule="evenodd" clip-rule="evenodd" d="M57.2516 208.985C53.5785 199.51 49.837 194.157 43.7589 190.224L57.2516 208.985Z"/>
</mask>
<path fill-rule="evenodd" clip-rule="evenodd" d="M57.2516 208.985C53.5785 199.51 49.837 194.157 43.7589 190.224L57.2516 208.985Z" fill="black" fill-opacity="0.01"/>
<path d="M60.2693 207.815C56.4624 197.995 52.3828 191.949 45.517 187.507L42.0007 192.941C47.2911 196.364 50.6947 201.025 54.2339 210.154L60.2693 207.815Z" fill="#489C71" mask="url(#path-95-inside-2_8014_263808)"/>
</g>
</g>
<g filter="url(#filter5_i_8014_263808)">
<path fill-rule="evenodd" clip-rule="evenodd" d="M59.0126 209.407C60.7764 205.556 64.0841 200.218 70.7351 195.376C74.6531 192.524 77.2994 183.552 77.9997 182.683C75.5505 182.793 70.9755 183.589 65.3153 187.958C59.3818 192.539 58.572 205.199 59.0126 209.407Z" fill="url(#paint66_linear_8014_263808)"/>
</g>
<mask id="mask10_8014_263808" style="mask-type:alpha" maskUnits="userSpaceOnUse" x="58" y="182" width="20" height="28">
<path fill-rule="evenodd" clip-rule="evenodd" d="M59.0126 209.407C60.7764 205.556 64.0841 200.218 70.7351 195.376C74.6531 192.524 77.2994 183.552 77.9997 182.683C75.5505 182.793 70.9755 183.589 65.3153 187.958C59.3818 192.539 58.572 205.199 59.0126 209.407Z" fill="white"/>
</mask>
<g mask="url(#mask10_8014_263808)">
<g style="mix-blend-mode:multiply" opacity="0.5">
<mask id="path-99-inside-3_8014_263808" fill="white">
<path fill-rule="evenodd" clip-rule="evenodd" d="M58.4996 209.398C60.9286 199.49 63.9607 193.678 69.5045 188.978L58.4996 209.398Z"/>
</mask>
<path fill-rule="evenodd" clip-rule="evenodd" d="M58.4996 209.398C60.9286 199.49 63.9607 193.678 69.5045 188.978L58.4996 209.398Z" fill="black" fill-opacity="0.01"/>
<path d="M61.643 210.169C63.9838 200.621 66.7698 195.539 71.5974 191.447L67.4117 186.509C61.1516 191.816 57.8734 198.36 55.3562 208.628L61.643 210.169Z" fill="#489C71" mask="url(#path-99-inside-3_8014_263808)"/>
</g>
</g>
<defs>
<filter id="filter0_i_8014_263808" x="155.823" y="149.243" width="69.866" height="48.3017" filterUnits="userSpaceOnUse" color-interpolation-filters="sRGB">
<feFlood flood-opacity="0" result="BackgroundImageFix"/>
<feBlend mode="normal" in="SourceGraphic" in2="BackgroundImageFix" result="shape"/>
<feColorMatrix in="SourceAlpha" type="matrix" values="0 0 0 0 0 0 0 0 0 0 0 0 0 0 0 0 0 0 127 0" result="hardAlpha"/>
<feOffset dx="-12.9461" dy="1.07884"/>
<feGaussianBlur stdDeviation="14.5643"/>
<feComposite in2="hardAlpha" operator="arithmetic" k2="-1" k3="1"/>
<feColorMatrix type="matrix" values="0 0 0 0 0.0901961 0 0 0 0 0.254902 0 0 0 0 0.572549 0 0 0 0.204201 0"/>
<feBlend mode="normal" in2="shape" result="effect1_innerShadow_8014_263808"/>
</filter>
<filter id="filter1_i_8014_263808" x="105.783" y="95.8779" width="92.8104" height="70.8481" filterUnits="userSpaceOnUse" color-interpolation-filters="sRGB">
<feFlood flood-opacity="0" result="BackgroundImageFix"/>
<feBlend mode="normal" in="SourceGraphic" in2="BackgroundImageFix" result="shape"/>
<feColorMatrix in="SourceAlpha" type="matrix" values="0 0 0 0 0 0 0 0 0 0 0 0 0 0 0 0 0 0 127 0" result="hardAlpha"/>
<feOffset dx="8.6307" dy="3.23651"/>
<feGaussianBlur stdDeviation="12.4066"/>
<feComposite in2="hardAlpha" operator="arithmetic" k2="-1" k3="1"/>
<feColorMatrix type="matrix" values="0 0 0 0 0.729412 0 0 0 0 0.8 0 0 0 0 0.933333 0 0 0 1 0"/>
<feBlend mode="normal" in2="shape" result="effect1_innerShadow_8014_263808"/>
</filter>
<filter id="filter2_i_8014_263808" x="124.996" y="155.937" width="52.6371" height="51.2047" filterUnits="userSpaceOnUse" color-interpolation-filters="sRGB">
<feFlood flood-opacity="0" result="BackgroundImageFix"/>
<feBlend mode="normal" in="SourceGraphic" in2="BackgroundImageFix" result="shape"/>
<feColorMatrix in="SourceAlpha" type="matrix" values="0 0 0 0 0 0 0 0 0 0 0 0 0 0 0 0 0 0 127 0" result="hardAlpha"/>
<feOffset dx="-6.47303" dy="2.15768"/>
<feGaussianBlur stdDeviation="6.47303"/>
<feComposite in2="hardAlpha" operator="arithmetic" k2="-1" k3="1"/>
<feColorMatrix type="matrix" values="0 0 0 0 1 0 0 0 0 1 0 0 0 0 1 0 0 0 0.5 0"/>
<feBlend mode="normal" in2="shape" result="effect1_innerShadow_8014_263808"/>
</filter>
<filter id="filter3_i_8014_263808" x="44.6289" y="155.941" width="15.5762" height="47.8331" filterUnits="userSpaceOnUse" color-interpolation-filters="sRGB">
<feFlood flood-opacity="0" result="BackgroundImageFix"/>
<feBlend mode="normal" in="SourceGraphic" in2="BackgroundImageFix" result="shape"/>
<feColorMatrix in="SourceAlpha" type="matrix" values="0 0 0 0 0 0 0 0 0 0 0 0 0 0 0 0 0 0 127 0" result="hardAlpha"/>
<feOffset dy="-10.7884"/>
<feGaussianBlur stdDeviation="11.8672"/>
<feComposite in2="hardAlpha" operator="arithmetic" k2="-1" k3="1"/>
<feColorMatrix type="matrix" values="0 0 0 0 0.221483 0 0 0 0 0.77854 0 0 0 0 0.610041 0 0 0 1 0"/>
<feBlend mode="normal" in2="shape" result="effect1_innerShadow_8014_263808"/>
</filter>
<filter id="filter4_i_8014_263808" x="35.2207" y="174.107" width="22.1855" height="34.8091" filterUnits="userSpaceOnUse" color-interpolation-filters="sRGB">
<feFlood flood-opacity="0" result="BackgroundImageFix"/>
<feBlend mode="normal" in="SourceGraphic" in2="BackgroundImageFix" result="shape"/>
<feColorMatrix in="SourceAlpha" type="matrix" values="0 0 0 0 0 0 0 0 0 0 0 0 0 0 0 0 0 0 127 0" result="hardAlpha"/>
<feOffset dy="-10.7884"/>
<feGaussianBlur stdDeviation="11.8672"/>
<feComposite in2="hardAlpha" operator="arithmetic" k2="-1" k3="1"/>
<feColorMatrix type="matrix" values="0 0 0 0 0.221483 0 0 0 0 0.77854 0 0 0 0 0.610041 0 0 0 1 0"/>
<feBlend mode="normal" in2="shape" result="effect1_innerShadow_8014_263808"/>
</filter>
<filter id="filter5_i_8014_263808" x="58.9121" y="171.894" width="19.0879" height="37.5131" filterUnits="userSpaceOnUse" color-interpolation-filters="sRGB">
<feFlood flood-opacity="0" result="BackgroundImageFix"/>
<feBlend mode="normal" in="SourceGraphic" in2="BackgroundImageFix" result="shape"/>
<feColorMatrix in="SourceAlpha" type="matrix" values="0 0 0 0 0 0 0 0 0 0 0 0 0 0 0 0 0 0 127 0" result="hardAlpha"/>
<feOffset dy="-10.7884"/>
<feGaussianBlur stdDeviation="11.8672"/>
<feComposite in2="hardAlpha" operator="arithmetic" k2="-1" k3="1"/>
<feColorMatrix type="matrix" values="0 0 0 0 0.221483 0 0 0 0 0.77854 0 0 0 0 0.610041 0 0 0 1 0"/>
<feBlend mode="normal" in2="shape" result="effect1_innerShadow_8014_263808"/>
</filter>
<linearGradient id="paint0_linear_8014_263808" x1="130.501" y1="17.5" x2="130.501" y2="276.842" gradientUnits="userSpaceOnUse">
<stop stop-color="#8666EA"/>
<stop offset="0.723958" stop-color="#ECE7F8" stop-opacity="0"/>
</linearGradient>
<linearGradient id="paint1_linear_8014_263808" x1="130.5" y1="0.5" x2="130.5" y2="293.5" gradientUnits="userSpaceOnUse">
<stop stop-color="#654DFA"/>
<stop offset="0.723958" stop-color="#ECE7F8" stop-opacity="0"/>
</linearGradient>
<linearGradient id="paint2_linear_8014_263808" x1="137.513" y1="279.657" x2="136.992" y2="74.1399" gradientUnits="userSpaceOnUse">
<stop stop-color="#F9F7FD" stop-opacity="0"/>
<stop offset="1" stop-color="#AD92FE"/>
</linearGradient>
<linearGradient id="paint3_linear_8014_263808" x1="187.362" y1="138.142" x2="187.362" y2="68.8624" gradientUnits="userSpaceOnUse">
<stop stop-color="#ECF2FC" stop-opacity="0.642323"/>
<stop offset="1" stop-color="#D4E1F8"/>
</linearGradient>
<linearGradient id="paint4_linear_8014_263808" x1="113.524" y1="137.499" x2="90.5782" y2="167.503" gradientUnits="userSpaceOnUse">
<stop stop-color="#CFDDF3"/>
<stop offset="1" stop-color="#A1B8E3"/>
</linearGradient>
<linearGradient id="paint5_linear_8014_263808" x1="108.496" y1="169.647" x2="116.547" y2="183.045" gradientUnits="userSpaceOnUse">
<stop stop-color="#CFDDF3"/>
<stop offset="1" stop-color="#A1B8E3"/>
</linearGradient>
<linearGradient id="paint6_linear_8014_263808" x1="108.703" y1="159.147" x2="113.522" y2="167.167" gradientUnits="userSpaceOnUse">
<stop stop-color="#CFDDF3"/>
<stop offset="1" stop-color="#A1B8E3"/>
</linearGradient>
<linearGradient id="paint7_linear_8014_263808" x1="103.875" y1="143.136" x2="138.726" y2="201.137" gradientUnits="userSpaceOnUse">
<stop stop-color="#CFDDF3"/>
<stop offset="1" stop-color="#A1B8E3"/>
</linearGradient>
<linearGradient id="paint8_linear_8014_263808" x1="159.754" y1="149.176" x2="160.581" y2="196.534" gradientUnits="userSpaceOnUse">
<stop stop-color="#CFDDF3"/>
<stop offset="1" stop-color="#A1B8E3"/>
</linearGradient>
<linearGradient id="paint9_linear_8014_263808" x1="173.122" y1="121.259" x2="160.829" y2="124.132" gradientUnits="userSpaceOnUse">
<stop stop-color="#CFDDF3"/>
<stop offset="1" stop-color="#A1B8E3"/>
</linearGradient>
<linearGradient id="paint10_linear_8014_263808" x1="186.782" y1="128.62" x2="174.489" y2="131.493" gradientUnits="userSpaceOnUse">
<stop stop-color="#CFDDF3"/>
<stop offset="1" stop-color="#A1B8E3"/>
</linearGradient>
<linearGradient id="paint11_linear_8014_263808" x1="182.552" y1="139.497" x2="170.259" y2="142.37" gradientUnits="userSpaceOnUse">
<stop stop-color="#CFDDF3"/>
<stop offset="1" stop-color="#A1B8E3"/>
</linearGradient>
<linearGradient id="paint12_linear_8014_263808" x1="179.134" y1="150.034" x2="166.841" y2="152.907" gradientUnits="userSpaceOnUse">
<stop stop-color="#CFDDF3"/>
<stop offset="1" stop-color="#A1B8E3"/>
</linearGradient>
<linearGradient id="paint13_linear_8014_263808" x1="185.866" y1="115.826" x2="173.573" y2="118.699" gradientUnits="userSpaceOnUse">
<stop stop-color="#CFDDF3"/>
<stop offset="1" stop-color="#A1B8E3"/>
</linearGradient>
<linearGradient id="paint14_linear_8014_263808" x1="167.432" y1="132.787" x2="155.14" y2="135.66" gradientUnits="userSpaceOnUse">
<stop stop-color="#CFDDF3"/>
<stop offset="1" stop-color="#A1B8E3"/>
</linearGradient>
<linearGradient id="paint15_linear_8014_263808" x1="163.214" y1="144.319" x2="150.921" y2="147.192" gradientUnits="userSpaceOnUse">
<stop stop-color="#CFDDF3"/>
<stop offset="1" stop-color="#A1B8E3"/>
</linearGradient>
<linearGradient id="paint16_linear_8014_263808" x1="113.954" y1="54.718" x2="76.4905" y2="102.601" gradientUnits="userSpaceOnUse">
<stop stop-color="#D2E0F9" stop-opacity="0.01"/>
<stop offset="1" stop-color="#B1C6E7" stop-opacity="0.464589"/>
</linearGradient>
<linearGradient id="paint17_linear_8014_263808" x1="110.523" y1="72.4836" x2="80.9743" y2="110.252" gradientUnits="userSpaceOnUse">
<stop stop-color="#D2E0F9" stop-opacity="0.01"/>
<stop offset="1" stop-color="#B1C6E7" stop-opacity="0.464589"/>
</linearGradient>
<linearGradient id="paint18_linear_8014_263808" x1="185.006" y1="72.7342" x2="147.543" y2="120.618" gradientUnits="userSpaceOnUse">
<stop stop-color="#D2E0F9" stop-opacity="0.01"/>
<stop offset="1" stop-color="#B1C6E7" stop-opacity="0.464589"/>
</linearGradient>
<linearGradient id="paint19_linear_8014_263808" x1="181.576" y1="90.5" x2="152.027" y2="128.268" gradientUnits="userSpaceOnUse">
<stop stop-color="#D2E0F9" stop-opacity="0.01"/>
<stop offset="1" stop-color="#B1C6E7" stop-opacity="0.464589"/>
</linearGradient>
<linearGradient id="paint20_linear_8014_263808" x1="210.051" y1="174.313" x2="235.92" y2="166.604" gradientUnits="userSpaceOnUse">
<stop stop-color="#9A8CE2"/>
<stop offset="1" stop-color="#D9D6FA"/>
</linearGradient>
<linearGradient id="paint21_linear_8014_263808" x1="204.454" y1="132.652" x2="193.223" y2="141.478" gradientUnits="userSpaceOnUse">
<stop stop-color="#5D6FAA"/>
<stop offset="1" stop-color="#90AADB"/>
</linearGradient>
<linearGradient id="paint22_linear_8014_263808" x1="201.682" y1="133.997" x2="201.682" y2="153.953" gradientUnits="userSpaceOnUse">
<stop stop-color="#CFDDF3"/>
<stop offset="1" stop-color="#A1B8E3" stop-opacity="0.01"/>
</linearGradient>
<radialGradient id="paint23_radial_8014_263808" cx="0" cy="0" r="1" gradientUnits="userSpaceOnUse" gradientTransform="translate(193.516 129.564) rotate(38.0793) scale(26.1046 37.0575)">
<stop stop-color="#E1E8FF"/>
<stop offset="1" stop-color="#CECBEF"/>
</radialGradient>
<linearGradient id="paint24_linear_8014_263808" x1="185.819" y1="109.769" x2="191.085" y2="127.946" gradientUnits="userSpaceOnUse">
<stop stop-color="#7B61FF"/>
<stop offset="1" stop-color="#5138CD"/>
</linearGradient>
<linearGradient id="paint25_linear_8014_263808" x1="201.187" y1="125.872" x2="205.132" y2="144.395" gradientUnits="userSpaceOnUse">
<stop stop-color="#174293" stop-opacity="0.01"/>
<stop offset="1" stop-color="#051E4B"/>
</linearGradient>
<linearGradient id="paint26_linear_8014_263808" x1="180.297" y1="140.377" x2="188.264" y2="153.77" gradientUnits="userSpaceOnUse">
<stop stop-color="#7B61FF"/>
<stop offset="1" stop-color="#143B8C"/>
<stop offset="1" stop-color="#3300FF"/>
</linearGradient>
<linearGradient id="paint27_linear_8014_263808" x1="184.338" y1="175.401" x2="181.396" y2="186.2" gradientUnits="userSpaceOnUse">
<stop stop-color="#2E7DE7" stop-opacity="0.01"/>
<stop offset="1" stop-color="#00357E" stop-opacity="0.5"/>
</linearGradient>
<linearGradient id="paint28_linear_8014_263808" x1="211.927" y1="156.386" x2="211.927" y2="144.778" gradientUnits="userSpaceOnUse">
<stop stop-color="#70B8F9" stop-opacity="0.275872"/>
<stop offset="1" stop-color="#3D82F0"/>
</linearGradient>
<linearGradient id="paint29_linear_8014_263808" x1="199.377" y1="186.185" x2="211.505" y2="192.429" gradientUnits="userSpaceOnUse">
<stop stop-color="#3D82F0" stop-opacity="0.01"/>
<stop offset="1" stop-color="#3D82F0"/>
</linearGradient>
<linearGradient id="paint30_linear_8014_263808" x1="170.646" y1="178.154" x2="185.078" y2="184.783" gradientUnits="userSpaceOnUse">
<stop stop-color="#3D82F0" stop-opacity="0.01"/>
<stop offset="1" stop-color="#3D82F0"/>
</linearGradient>
<linearGradient id="paint31_linear_8014_263808" x1="133.09" y1="78.0649" x2="133.09" y2="105.393" gradientUnits="userSpaceOnUse">
<stop stop-color="#4376C9"/>
<stop offset="1" stop-color="#D6E3FA"/>
</linearGradient>
<linearGradient id="paint32_linear_8014_263808" x1="136.251" y1="103.326" x2="146.136" y2="103.326" gradientUnits="userSpaceOnUse">
<stop stop-color="#BDB2FA"/>
<stop offset="1" stop-color="#A9BFE7" stop-opacity="0.01"/>
<stop offset="1" stop-color="#A9BFE7" stop-opacity="0.01"/>
</linearGradient>
<radialGradient id="paint33_radial_8014_263808" cx="0" cy="0" r="1" gradientUnits="userSpaceOnUse" gradientTransform="translate(135.284 76.801) rotate(41.3765) scale(24.5361 35.5859)">
<stop stop-color="#E1E8FF"/>
<stop offset="1" stop-color="#CECBEF"/>
</radialGradient>
<linearGradient id="paint34_linear_8014_263808" x1="120.423" y1="57.2105" x2="122.988" y2="71.3063" gradientUnits="userSpaceOnUse">
<stop stop-color="#7B61FF"/>
<stop offset="1" stop-color="#5138CD"/>
</linearGradient>
<linearGradient id="paint35_linear_8014_263808" x1="138.508" y1="69.1125" x2="140.389" y2="83.1732" gradientUnits="userSpaceOnUse">
<stop stop-color="#174293" stop-opacity="0.01"/>
<stop offset="1" stop-color="#051E4B"/>
</linearGradient>
<linearGradient id="paint36_linear_8014_263808" x1="174.111" y1="91.0022" x2="138.702" y2="108.119" gradientUnits="userSpaceOnUse">
<stop stop-color="#EDEDFD"/>
<stop offset="1" stop-color="#D9D6FA"/>
</linearGradient>
<linearGradient id="paint37_linear_8014_263808" x1="120.761" y1="184.813" x2="142.584" y2="179.059" gradientUnits="userSpaceOnUse">
<stop stop-color="#EAF0F7" stop-opacity="0.115546"/>
<stop offset="1" stop-color="#D1DDED"/>
</linearGradient>
<linearGradient id="paint38_linear_8014_263808" x1="148.087" y1="88.8874" x2="113.892" y2="93.72" gradientUnits="userSpaceOnUse">
<stop stop-color="#EAF0F7" stop-opacity="0.115546"/>
<stop offset="1" stop-color="#D1DDED"/>
</linearGradient>
<linearGradient id="paint39_linear_8014_263808" x1="135.249" y1="98.5625" x2="139.041" y2="98.5625" gradientUnits="userSpaceOnUse">
<stop stop-color="#B1C6E7"/>
<stop offset="1" stop-color="#E5EFFD"/>
</linearGradient>
<linearGradient id="paint40_linear_8014_263808" x1="63.4871" y1="148.119" x2="43.093" y2="143.989" gradientUnits="userSpaceOnUse">
<stop stop-color="#7B61FF"/>
<stop offset="1" stop-color="#D9D6FA"/>
</linearGradient>
<linearGradient id="paint41_linear_8014_263808" x1="103.702" y1="186.111" x2="121.731" y2="175.962" gradientUnits="userSpaceOnUse">
<stop stop-color="#3F2885"/>
<stop offset="0.87783" stop-color="#7B61FF"/>
<stop offset="1" stop-color="#3300FF"/>
</linearGradient>
<radialGradient id="paint42_radial_8014_263808" cx="0" cy="0" r="1" gradientUnits="userSpaceOnUse" gradientTransform="translate(96.0478 160.352) rotate(-173.25) scale(22.8903 33.0655)">
<stop stop-color="#7B61FF"/>
<stop offset="1" stop-color="#3F2885"/>
</radialGradient>
<linearGradient id="paint43_linear_8014_263808" x1="-18.6333" y1="203.35" x2="-16.3698" y2="228.676" gradientUnits="userSpaceOnUse">
<stop stop-color="#EAEFFF"/>
<stop offset="1" stop-color="#F7F9FE"/>
</linearGradient>
<linearGradient id="paint44_linear_8014_263808" x1="107.83" y1="187.543" x2="107.074" y2="206.438" gradientUnits="userSpaceOnUse">
<stop stop-color="#7B61FF"/>
<stop offset="1" stop-color="#2D64D7" stop-opacity="0.01"/>
</linearGradient>
<linearGradient id="paint45_linear_8014_263808" x1="68.1113" y1="126.04" x2="68.1113" y2="142.437" gradientUnits="userSpaceOnUse">
<stop stop-color="#4376C9"/>
<stop offset="1" stop-color="#D6E3FA"/>
</linearGradient>
<linearGradient id="paint46_linear_8014_263808" x1="70.3124" y1="141.196" x2="77.1939" y2="141.196" gradientUnits="userSpaceOnUse">
<stop stop-color="#7B61FF"/>
<stop offset="1" stop-color="#A9BFE7" stop-opacity="0.01"/>
<stop offset="1" stop-color="#A9BFE7" stop-opacity="0.01"/>
</linearGradient>
<linearGradient id="paint47_linear_8014_263808" x1="67.668" y1="129.649" x2="67.668" y2="142.353" gradientUnits="userSpaceOnUse">
<stop stop-color="#699DF3"/>
<stop offset="1" stop-color="#8597B5" stop-opacity="0.01"/>
</linearGradient>
<radialGradient id="paint48_radial_8014_263808" cx="0" cy="0" r="1" gradientUnits="userSpaceOnUse" gradientTransform="translate(69.5325 118.553) rotate(41.3535) scale(23.6514 34.2993)">
<stop stop-color="#E1E8FF"/>
<stop offset="1" stop-color="#CECBEF"/>
</radialGradient>
<linearGradient id="paint49_linear_8014_263808" x1="106.498" y1="200.939" x2="120.589" y2="177.947" gradientUnits="userSpaceOnUse">
<stop stop-color="#FF7F31"/>
<stop offset="1" stop-color="#FFD25F"/>
</linearGradient>
<linearGradient id="paint50_linear_8014_263808" x1="134.2" y1="166.804" x2="127.861" y2="167.661" gradientUnits="userSpaceOnUse">
<stop stop-color="#FF7F31"/>
<stop offset="1" stop-color="#FFC83A" stop-opacity="0.01"/>
</linearGradient>
<linearGradient id="paint51_linear_8014_263808" x1="103.323" y1="198.382" x2="112.156" y2="192.234" gradientUnits="userSpaceOnUse">
<stop stop-color="#FF7F31"/>
<stop offset="1" stop-color="#FFC83A" stop-opacity="0.01"/>
</linearGradient>
<linearGradient id="paint52_linear_8014_263808" x1="88.9241" y1="181.187" x2="85.7286" y2="190.463" gradientUnits="userSpaceOnUse">
<stop stop-color="#ECF2FB"/>
<stop offset="1" stop-color="#D5E1F5"/>
</linearGradient>
<linearGradient id="paint53_linear_8014_263808" x1="79.9046" y1="169.85" x2="68.3818" y2="178.635" gradientUnits="userSpaceOnUse">
<stop stop-color="#7B61FF"/>
<stop offset="1" stop-color="#3300FF"/>
</linearGradient>
<linearGradient id="paint54_linear_8014_263808" x1="96.0518" y1="101.488" x2="48.1139" y2="102.303" gradientUnits="userSpaceOnUse">
<stop stop-color="#7B61FF"/>
<stop offset="1" stop-color="#3F2885"/>
</linearGradient>
<linearGradient id="paint55_linear_8014_263808" x1="70.3638" y1="136.812" x2="46.3453" y2="144.015" gradientUnits="userSpaceOnUse">
<stop stop-color="#3D82F0" stop-opacity="0.01"/>
<stop offset="1" stop-color="#7B61FF"/>
</linearGradient>
<linearGradient id="paint56_linear_8014_263808" x1="92.7969" y1="205.393" x2="92.7969" y2="225.243" gradientUnits="userSpaceOnUse">
<stop stop-color="#B2C7E8"/>
<stop offset="1" stop-color="#D6E3FA"/>
</linearGradient>
<linearGradient id="paint57_linear_8014_263808" x1="108.789" y1="200.94" x2="108.789" y2="216.879" gradientUnits="userSpaceOnUse">
<stop stop-color="#C6D6EE"/>
<stop offset="1" stop-color="#E5EFFD"/>
</linearGradient>
<linearGradient id="paint58_linear_8014_263808" x1="164.814" y1="189.24" x2="181.603" y2="189.24" gradientUnits="userSpaceOnUse">
<stop stop-color="#7B61FF"/>
<stop offset="1" stop-color="#7B61FF"/>
</linearGradient>
<linearGradient id="paint59_linear_8014_263808" x1="159.68" y1="152.549" x2="127.333" y2="173.63" gradientUnits="userSpaceOnUse">
<stop stop-color="#DBE9FF"/>
<stop offset="0.440948" stop-color="#A7BDE4"/>
<stop offset="1" stop-color="#7B61FF"/>
</linearGradient>
<linearGradient id="paint60_linear_8014_263808" x1="160.047" y1="191.065" x2="157.776" y2="196.399" gradientUnits="userSpaceOnUse">
<stop stop-color="#869FCE" stop-opacity="0.01"/>
<stop offset="1" stop-color="#7B61FF"/>
</linearGradient>
<linearGradient id="paint61_linear_8014_263808" x1="67.9126" y1="218.145" x2="43.0137" y2="218.145" gradientUnits="userSpaceOnUse">
<stop stop-color="#D9E5F6" stop-opacity="0.712636"/>
<stop offset="1" stop-color="#B2C6EA"/>
</linearGradient>
<linearGradient id="paint62_linear_8014_263808" x1="68.4134" y1="230.48" x2="72.4889" y2="214.911" gradientUnits="userSpaceOnUse">
<stop stop-color="#ACC5E9"/>
<stop offset="0.627469" stop-color="#D3E3FB"/>
<stop offset="1" stop-color="#EAF2FF"/>
</linearGradient>
<linearGradient id="paint63_linear_8014_263808" x1="46.0498" y1="201.513" x2="45.4031" y2="211.882" gradientUnits="userSpaceOnUse">
<stop stop-color="#86A8D9"/>
<stop offset="1" stop-color="#BCD0F2"/>
</linearGradient>
<linearGradient id="paint64_linear_8014_263808" x1="41.9857" y1="176.778" x2="63.7423" y2="199.559" gradientUnits="userSpaceOnUse">
<stop stop-color="#B1FFBE"/>
<stop offset="0.444207" stop-color="#5CDB8E"/>
<stop offset="1" stop-color="#149654"/>
</linearGradient>
<linearGradient id="paint65_linear_8014_263808" x1="41.6717" y1="183.696" x2="44.8" y2="207.871" gradientUnits="userSpaceOnUse">
<stop stop-color="#B1FFBE"/>
<stop offset="0.444207" stop-color="#5CDB8E"/>
<stop offset="1" stop-color="#149654"/>
</linearGradient>
<linearGradient id="paint66_linear_8014_263808" x1="55.5388" y1="189.757" x2="69.8663" y2="212.243" gradientUnits="userSpaceOnUse">
<stop stop-color="#B1FFBE"/>
<stop offset="0.444207" stop-color="#5CDB8E"/>
<stop offset="1" stop-color="#149654"/>
</linearGradient>
</defs>
</svg>
