<svg width="250" height="242" viewBox="0 0 250 242" fill="none" xmlns="http://www.w3.org/2000/svg">
<path d="M29.082 100.903C29.082 45.4445 74.0401 0.486328 129.499 0.486328V0.486328C184.957 0.486328 229.915 45.4444 229.915 100.903V240.876H29.082V100.903Z" fill="url(#paint0_linear)"/>
<g opacity="0.5" filter="url(#filter0_i)">
<path fill-rule="evenodd" clip-rule="evenodd" d="M49.3421 77.7345C48.9581 66.7239 20.2699 69.2058 9.20339 70.268C-1.86326 71.3302 -2.86803 56.2467 6.68023 54.0046C16.2283 51.7625 33.5432 52.9196 42.5144 50.8499C51.4857 48.7803 40.1374 37.6807 52.3612 36.3428C64.585 35.005 89.8606 36.2437 97.3957 35.9719C109.231 35.545 115.304 49.7936 94.5683 50.4401C88.85 50.6184 87.7029 63.2766 107.005 59.7996C119.117 57.6176 142.882 57.5672 147.826 63.138C150.663 66.3344 149.68 74.9216 144.803 79.6634C141.181 83.1859 129.66 83.8728 125.147 84.687C114.56 86.5974 116.653 96.849 120.263 98.9599C128.806 103.955 152.253 94.5279 152.881 108.244C153.159 114.305 131.825 115.284 123.078 115.21C101.624 115.028 87.5275 116.94 86.5383 109.621C85.5453 102.274 99.8699 107.233 99.1636 98.2008C98.7945 93.4809 99.7838 83.4517 90.5935 83.9781C103.176 83.2573 49.8608 92.6053 49.3421 77.7345Z" fill="url(#paint1_linear)"/>
</g>
<g opacity="0.5" filter="url(#filter1_i)">
<path fill-rule="evenodd" clip-rule="evenodd" d="M145.206 43.1502C145.235 32.133 116.474 33.539 105.375 34.1861C94.2765 34.8332 93.8373 19.7226 103.463 17.8396C113.088 15.9566 130.348 17.7611 139.39 16.0289C148.432 14.2966 137.508 2.77988 149.773 1.90067C162.038 1.02146 187.25 3.20561 194.79 3.21614C206.633 3.23269 212.168 17.6987 191.423 17.5684C185.702 17.5325 184.081 30.1388 203.5 27.3869C215.686 25.66 239.436 26.4994 244.168 32.2515C246.883 35.5518 245.579 44.0961 240.528 48.652C236.776 52.0366 225.238 52.2915 220.698 52.9362C210.046 54.4488 211.754 64.7716 215.283 67.0161C223.633 72.3275 247.416 63.7851 247.53 77.5151C247.581 83.5823 226.226 83.7613 217.487 83.3598C196.055 82.3752 181.897 83.7575 181.182 76.4071C180.465 69.028 194.594 74.5199 194.227 65.4676C194.034 60.7372 195.398 50.752 186.195 50.9339C198.796 50.6849 145.168 58.03 145.206 43.1502Z" fill="url(#paint2_linear)"/>
</g>
<mask id="mask0" mask-type="alpha" maskUnits="userSpaceOnUse" x="29" y="0" width="201" height="242">
<path d="M29.0859 100.903C29.0859 45.4444 74.044 0.486328 129.503 0.486328V0.486328C184.961 0.486328 229.919 45.4444 229.919 100.903V241.486H29.0859V100.903Z" fill="#ECE7F8"/>
</mask>
<g mask="url(#mask0)">
<path fill-rule="evenodd" clip-rule="evenodd" d="M227.608 119.66C245.696 139.795 250.227 168.376 246.31 201.115C240.784 247.307 245.706 303.944 201.588 337.15C157.339 370.453 114.173 343.767 77.5988 328.095C50.8773 316.645 40.3136 290.997 29.9441 263.604C15.6593 225.868 -22.5487 190.703 8.27882 144.973C39.2892 98.9728 83.4153 167.846 130.394 162.425C165.144 158.414 208.44 98.322 227.608 119.66Z" fill="url(#paint3_linear)"/>
</g>
<path d="M99.7262 50.8708L100.08 50.1016L100.537 50.8084C100.911 51.3731 101.437 51.82 102.055 52.0973L102.834 52.4403L102.127 52.9081C101.558 53.2789 101.107 53.8057 100.828 54.4257L100.485 55.1949L100.017 54.4881C99.6454 53.9218 99.1186 53.4745 98.4997 53.1991L97.7305 52.8561L98.4373 52.3884C99.0067 52.0201 99.455 51.4923 99.7262 50.8708V50.8708Z" fill="#F9F7FD"/>
<path d="M76.5353 45.0934L76.7328 44.6465L77.003 45.0519C77.2171 45.3832 77.5246 45.6436 77.8866 45.8003L78.3335 46.0082L77.9178 46.2784C77.5912 46.4933 77.3318 46.7959 77.1694 47.1516L76.9719 47.6089L76.7016 47.1931C76.4875 46.8618 76.1801 46.6014 75.8181 46.4447L75.3711 46.2368L75.7765 45.977C76.1058 45.7578 76.3684 45.4521 76.5353 45.0934Z" fill="#F9F7FD"/>
<path d="M149.578 84.6227L149.776 84.1758L150.046 84.5916C150.269 84.9153 150.574 85.1737 150.93 85.34L151.376 85.5375L150.971 85.8077C150.64 86.0218 150.379 86.3293 150.223 86.6913L150.015 87.1382L149.745 86.7328C149.531 86.4024 149.228 86.1393 148.871 85.974L148.414 85.7765L148.83 85.5063C149.161 85.2922 149.422 84.9847 149.578 84.6227Z" fill="#F9F7FD"/>
<path d="M185.334 64.3532L185.677 63.584L186.145 64.2908C186.516 64.8574 187.043 65.3049 187.663 65.5797L188.432 65.9228L187.725 66.3905C187.158 66.7615 186.71 67.2885 186.436 67.9081L186.083 68.6773L185.625 67.9705C185.249 67.4084 184.723 66.9622 184.108 66.6816L183.328 66.3385L184.035 65.8708C184.605 65.5 185.056 64.9732 185.334 64.3532V64.3532Z" fill="#F9F7FD"/>
<path d="M180.688 35.9556L181.27 34.6562L182.05 35.8516C182.676 36.802 183.559 37.5553 184.596 38.0241L185.896 38.5958L184.7 39.3754C183.752 40.0079 182.999 40.8938 182.528 41.9324L181.946 43.2317L181.166 42.0364C180.54 41.086 179.657 40.3327 178.62 39.8639L177.32 39.2818L178.516 38.5022C179.466 37.8758 180.219 36.9928 180.688 35.9556V35.9556Z" fill="#F9F7FD"/>
<path d="M92.5215 27.2036L93.1036 25.9043L93.8832 27.0893C94.5065 28.0424 95.3904 28.7964 96.4298 29.2617L97.7291 29.8438L96.5441 30.6234C95.5883 31.2436 94.8335 32.1284 94.3717 33.1701L93.7896 34.4694L93.01 33.2844C92.3853 32.3286 91.4972 31.5741 90.453 31.112L89.1641 30.5299L90.349 29.7503C91.3021 29.127 92.0562 28.243 92.5215 27.2036V27.2036Z" fill="#F9F7FD"/>
<path opacity="0.2" fill-rule="evenodd" clip-rule="evenodd" d="M179.877 67.8373C163.518 49.4911 129.254 42.6633 94.0421 52.7851C50.3695 65.3392 21.7774 99.2128 30.1801 128.444C37.0739 152.427 66.7278 165.834 101.273 162.942C117.837 176.196 145.726 180.574 174.161 172.4C214.049 160.934 239.91 129.113 231.922 101.325C226.319 81.8328 205.548 69.5033 179.877 67.8373Z" fill="url(#paint4_linear)"/>
<g opacity="0.3">
<path fill-rule="evenodd" clip-rule="evenodd" d="M119.943 167.859C122.276 168.291 126.448 162.117 126.231 156.555C126.014 150.994 120.86 152.064 122.635 141.894C124.409 131.725 126.587 126.929 116.446 118.016C106.306 109.103 107.481 100.058 99.3354 101.037C91.1896 102.017 93.23 113.784 99.0117 121.739C104.793 129.694 104.333 132.339 97.5335 135.24C90.7336 138.142 103.433 147.29 105.05 149.981C106.667 152.672 105.864 159.957 108.913 163.243C111.962 166.529 117.611 167.427 119.943 167.859Z" fill="url(#paint5_linear)"/>
<path d="M116.568 153.933C115.327 151.868 110.938 145.746 105.745 143.533" stroke="url(#paint6_linear)" stroke-width="6" stroke-linecap="round"/>
<path d="M113.764 139.216C112.523 137.15 117.45 132.216 117.934 126.592" stroke="url(#paint7_linear)" stroke-width="6" stroke-linecap="round"/>
<path d="M122.337 179.589C121.809 178.71 120.943 173.839 119.631 168.381C115.524 151.288 112.189 129.205 104.82 116.941" stroke="url(#paint8_linear)" stroke-width="6" stroke-linecap="round"/>
</g>
<g opacity="0.3">
<path d="M157.383 166.438C157.251 158.854 163.181 135.273 171.514 122.281" stroke="url(#paint9_linear)" stroke-width="6" stroke-linecap="round"/>
<ellipse cx="164.058" cy="120.004" rx="2.19975" ry="6.90265" transform="rotate(-31 164.058 120.004)" fill="url(#paint10_linear)"/>
<ellipse cx="176.722" cy="126.828" rx="2.19975" ry="6.90265" transform="rotate(87 176.722 126.828)" fill="url(#paint11_linear)"/>
<ellipse cx="172.8" cy="136.909" rx="2.19975" ry="6.90265" transform="rotate(90 172.8 136.909)" fill="url(#paint12_linear)"/>
<ellipse cx="169.633" cy="146.676" rx="2.19975" ry="6.90265" transform="rotate(90 169.633 146.676)" fill="url(#paint13_linear)"/>
<ellipse cx="175.872" cy="114.969" rx="2.19975" ry="6.90265" transform="rotate(32 175.872 114.969)" fill="url(#paint14_linear)"/>
<ellipse cx="158.789" cy="130.689" rx="2.19975" ry="6.90265" transform="rotate(-42 158.789 130.689)" fill="url(#paint15_linear)"/>
<ellipse cx="154.879" cy="141.379" rx="2.19975" ry="6.90265" transform="rotate(-48 154.879 141.379)" fill="url(#paint16_linear)"/>
</g>
<path opacity="0.472712" d="M98.2188 78.2966L117.264 63.7227" stroke="url(#paint17_linear)" stroke-width="8" stroke-linecap="round" stroke-linejoin="round"/>
<path opacity="0.472712" d="M98.4062 85.6143L113.428 74.1191" stroke="url(#paint18_linear)" stroke-width="8" stroke-linecap="round" stroke-linejoin="round"/>
<path opacity="0.472712" d="M164.078 94.9958L183.124 80.4219" stroke="url(#paint19_linear)" stroke-width="8" stroke-linecap="round" stroke-linejoin="round"/>
<path opacity="0.472712" d="M164.266 102.314L179.288 90.8184" stroke="url(#paint20_linear)" stroke-width="8" stroke-linecap="round" stroke-linejoin="round"/>
<path fill-rule="evenodd" clip-rule="evenodd" d="M235.065 117.177L193.128 109.35C180.958 127.183 175.198 142.222 175.851 154.468C183.54 157.655 198.343 162.698 220.259 169.598L237.894 122.174C238.616 120.231 237.627 118.071 235.685 117.348C235.483 117.274 235.276 117.216 235.065 117.177Z" fill="url(#paint21_linear)"/>
<path fill-rule="evenodd" clip-rule="evenodd" d="M193.141 119.566C193.524 120.887 193.351 121.84 192.622 122.425C191.528 123.303 190.43 124.797 189.348 124.92C188.265 125.043 187.093 125.637 186.903 127.155C186.812 127.889 183.055 131.682 181.713 136.9C181.373 138.221 181.787 140.254 182.953 142.999L186.057 141.291L190.477 134.131C195.386 132.425 198.153 131.369 198.779 130.961C199.718 130.35 202.758 127.735 202.172 126.754C201.586 125.774 203.493 119.543 204.625 118.332C205.758 117.121 206.686 114.17 206.708 113.08C206.731 111.991 207.124 108.728 204.297 108.832C202.412 108.902 198.693 112.48 193.141 119.566Z" fill="url(#paint22_linear)"/>
<mask id="mask1" mask-type="alpha" maskUnits="userSpaceOnUse" x="181" y="108" width="26" height="35">
<path fill-rule="evenodd" clip-rule="evenodd" d="M193.141 119.566C193.524 120.887 193.351 121.84 192.622 122.425C191.528 123.303 190.43 124.797 189.348 124.92C188.265 125.043 187.093 125.637 186.903 127.155C186.812 127.889 183.055 131.682 181.713 136.9C181.373 138.221 181.787 140.254 182.953 142.999L186.057 141.291L190.477 134.131C195.386 132.425 198.153 131.369 198.779 130.961C199.718 130.35 202.758 127.735 202.172 126.754C201.586 125.774 203.493 119.543 204.625 118.332C205.758 117.121 206.686 114.17 206.708 113.08C206.731 111.991 207.124 108.728 204.297 108.832C202.412 108.902 198.693 112.48 193.141 119.566Z" fill="white"/>
</mask>
<g mask="url(#mask1)">
<path fill-rule="evenodd" clip-rule="evenodd" d="M203.718 125.17C203.718 125.17 198.355 115.653 195.85 113.265C193.346 110.876 207.802 108.469 207.802 108.469L203.718 126.967V125.17Z" fill="url(#paint23_linear)" style="mix-blend-mode:multiply"/>
</g>
<path fill-rule="evenodd" clip-rule="evenodd" d="M190.209 97.1804C188.915 98.0518 190.019 101.559 188.619 103.561C187.853 104.656 186.242 105.264 185.498 105.7C183.393 106.932 185.556 107.812 185.991 108.545C186.426 109.279 186.079 110.936 185.753 112.242C185.428 113.548 184.272 116.492 185.511 117.149C186.75 117.807 194.356 120.678 196.555 119.801C198.754 118.924 199.54 114.531 200.083 114.245C200.625 113.959 201.005 114.261 201.506 114.386C202.808 114.711 203.985 113.981 204.611 112.941C205.32 111.765 206.328 112.302 205.783 110.694C204.942 108.213 200.068 98.4423 198.131 97.7399C196.195 97.0375 192.211 95.8325 190.209 97.1804Z" fill="url(#paint24_radial)"/>
<path fill-rule="evenodd" clip-rule="evenodd" d="M196.529 99.8658C191.576 98.6309 189.273 99.7371 187.479 95.8878C186.42 93.6143 188.483 86.6399 191.956 86.4821C192.811 90.3806 196.94 90.7158 199.332 91.0397C212.179 92.7789 213.523 104.525 209.677 111.443C208.439 113.671 207.293 115.271 206.271 116.471C205.623 117.233 204.775 118.151 204.488 118.586C204.393 118.732 203.564 120.566 203.421 120.53C202.988 120.422 203.162 120.401 203.374 118.502C203.587 116.603 203.705 116.092 204.091 114.547C204.204 114.091 206.358 110.585 204.704 109.316C203.601 108.47 202.111 108.987 200.234 110.866L199.094 110.437C199.848 108.762 200.323 107.526 200.523 106.729C200.821 105.532 201.482 101.101 196.529 99.8658Z" fill="url(#paint25_linear)"/>
<path fill-rule="evenodd" clip-rule="evenodd" d="M196.529 99.8658C191.576 98.6309 189.273 99.7371 187.479 95.8878C186.42 93.6143 188.483 86.6399 191.956 86.4821C192.811 90.3806 196.94 90.7158 199.332 91.0397C212.179 92.7789 213.523 104.525 209.677 111.443C208.439 113.671 207.293 115.271 206.271 116.471C205.623 117.233 204.775 118.151 204.488 118.586C204.393 118.732 203.564 120.566 203.421 120.53C202.988 120.422 203.162 120.401 203.374 118.502C203.587 116.603 203.705 116.092 204.091 114.547C204.204 114.091 206.358 110.585 204.704 109.316C203.601 108.47 202.111 108.987 200.234 110.866L199.094 110.437C199.848 108.762 200.323 107.526 200.523 106.729C200.821 105.532 201.482 101.101 196.529 99.8658Z" fill="url(#paint26_linear)"/>
<path fill-rule="evenodd" clip-rule="evenodd" d="M199.098 110.495C198.72 111.337 197.293 113.28 196.006 113.981C194.718 114.683 192.006 114.726 191.45 113.926C190.893 113.126 188.367 109.503 186.089 108.935C185.975 109.394 185.663 110.174 185.153 111.275C186.916 112.008 187.939 112.697 188.224 113.343C188.652 114.312 188.881 113.663 188.454 114.094C188.028 114.524 185.799 114.193 185.63 112.513C184.987 113.851 184.297 117.462 184.54 118.287C184.784 119.112 186.185 119.49 187.568 119.579C188.95 119.668 193.877 120.42 195.132 120.163C196.387 119.907 197.981 120.054 199.031 117.014C200.08 113.974 199.847 112.005 201.217 109.416C202.587 106.826 199.476 109.652 199.098 110.495Z" fill="url(#paint27_linear)"/>
<g filter="url(#filter2_i)">
<path fill-rule="evenodd" clip-rule="evenodd" d="M203.021 122.789C208.226 123.974 211.723 125.95 213.513 128.717C216.197 132.866 217.542 143.889 217.542 147.464C217.542 151.039 217.97 159.81 217.542 162.203C217.114 164.596 215.148 166.373 211.081 166.373C208.369 166.373 192.999 161.329 164.971 151.242C168.657 149.419 170.559 148.16 170.676 147.464C170.852 146.421 179.405 127.395 182.11 125.457C184.816 123.519 190.431 122.601 192.682 122.601C192.353 123.515 191.621 124.252 192.656 125.457C193.691 126.661 195.723 126.871 197.735 126.036C199.076 125.478 200.838 124.396 203.021 122.789Z" fill="white"/>
<path fill-rule="evenodd" clip-rule="evenodd" d="M203.021 122.789C208.226 123.974 211.723 125.95 213.513 128.717C216.197 132.866 217.542 143.889 217.542 147.464C217.542 151.039 217.97 159.81 217.542 162.203C217.114 164.596 215.148 166.373 211.081 166.373C208.369 166.373 192.999 161.329 164.971 151.242C168.657 149.419 170.559 148.16 170.676 147.464C170.852 146.421 179.405 127.395 182.11 125.457C184.816 123.519 190.431 122.601 192.682 122.601C192.353 123.515 191.621 124.252 192.656 125.457C193.691 126.661 195.723 126.871 197.735 126.036C199.076 125.478 200.838 124.396 203.021 122.789Z" fill="url(#paint28_linear)"/>
</g>
<mask id="mask2" mask-type="alpha" maskUnits="userSpaceOnUse" x="164" y="122" width="54" height="45">
<path fill-rule="evenodd" clip-rule="evenodd" d="M203.021 122.789C208.226 123.974 211.723 125.95 213.513 128.717C216.197 132.866 217.542 143.889 217.542 147.464C217.542 151.039 217.97 159.81 217.542 162.203C217.114 164.596 215.148 166.373 211.081 166.373C208.369 166.373 192.999 161.329 164.971 151.242C168.657 149.419 170.559 148.16 170.676 147.464C170.852 146.421 179.405 127.395 182.11 125.457C184.816 123.519 190.431 122.601 192.682 122.601C192.353 123.515 191.621 124.252 192.656 125.457C193.691 126.661 195.723 126.871 197.735 126.036C199.076 125.478 200.838 124.396 203.021 122.789Z" fill="white"/>
<path fill-rule="evenodd" clip-rule="evenodd" d="M203.021 122.789C208.226 123.974 211.723 125.95 213.513 128.717C216.197 132.866 217.542 143.889 217.542 147.464C217.542 151.039 217.97 159.81 217.542 162.203C217.114 164.596 215.148 166.373 211.081 166.373C208.369 166.373 192.999 161.329 164.971 151.242C168.657 149.419 170.559 148.16 170.676 147.464C170.852 146.421 179.405 127.395 182.11 125.457C184.816 123.519 190.431 122.601 192.682 122.601C192.353 123.515 191.621 124.252 192.656 125.457C193.691 126.661 195.723 126.871 197.735 126.036C199.076 125.478 200.838 124.396 203.021 122.789Z" stroke="white"/>
</mask>
<g mask="url(#mask2)">
<g opacity="0.585435">
<path fill-rule="evenodd" clip-rule="evenodd" d="M189.942 123.334C185.632 127.746 194.135 130.097 197.607 128.922C201.08 127.746 204.976 123.334 204.976 123.334C204.976 123.334 195.158 116.027 192.55 119.681C189.942 123.334 194.253 118.921 189.942 123.334Z" fill="url(#paint29_linear)" style="mix-blend-mode:multiply"/>
</g>
<g opacity="0.54654">
<path fill-rule="evenodd" clip-rule="evenodd" d="M183.797 163.254C186.866 163.254 206.823 159.95 206.823 157.267C206.823 154.585 205.285 135.686 205.285 135.686" fill="url(#paint30_linear)" style="mix-blend-mode:multiply"/>
</g>
<g opacity="0.54654">
<path fill-rule="evenodd" clip-rule="evenodd" d="M155.84 151.621C157.23 151.621 163.658 159.764 169.53 157.023C176.624 153.712 180.755 141.452 180.755 139.985C180.755 138.862 182.617 134.88 181.908 130.542C181.488 127.97 178.056 122.383 178.056 122.383" fill="url(#paint31_linear)" style="mix-blend-mode:multiply"/>
</g>
</g>
<path fill-rule="evenodd" clip-rule="evenodd" d="M132.481 62.8393C133.236 68.5959 133.381 71.9456 132.915 72.8886C132.216 74.3032 133.57 80.9574 137.879 81.3432C142.188 81.7289 144.447 79.8927 144.617 75.4032C144.786 70.9136 145.056 69.1827 145.752 67.1961C146.448 65.2094 133.478 56.9786 132.915 58.5002C132.54 59.5147 132.395 60.9611 132.481 62.8393Z" fill="url(#paint32_linear)"/>
<path fill-rule="evenodd" clip-rule="evenodd" d="M132.481 62.8393C133.236 68.5959 133.381 71.9456 132.915 72.8886C132.216 74.3032 133.57 80.9574 137.879 81.3432C142.188 81.7289 144.447 79.8927 144.617 75.4032C144.786 70.9136 145.056 69.1827 145.752 67.1961C146.448 65.2094 133.478 56.9786 132.915 58.5002C132.54 59.5147 132.395 60.9611 132.481 62.8393Z" fill="url(#paint33_linear)" fill-opacity="0.67"/>
<path fill-rule="evenodd" clip-rule="evenodd" d="M150.191 49.614C150.191 50.894 150.361 54.8897 150.232 55.9022C150.103 56.9147 150.001 58.4236 150.117 60.3729C150.232 62.3222 149.22 67.1165 148.09 68.8534C147.415 69.8904 144.741 71.8897 142.117 71.6088C139.008 71.2758 135.607 68.273 135.244 66.7715C134.573 64.0035 135.129 61.5608 133.197 60.0899C131.264 58.619 129.856 57.2527 130.03 54.9819C130.204 52.7112 132.188 47.3055 133.197 47.0783C134.205 46.8512 150.191 48.3341 150.191 49.614Z" fill="url(#paint34_radial)"/>
<path fill-rule="evenodd" clip-rule="evenodd" d="M133.592 47.9805C134.509 49.3641 142.537 56.0341 150.584 51.7037C158.63 47.3734 147.927 39.5122 143.073 38.6153C138.219 37.7185 134.04 38.217 131.104 42.2907C128.168 46.3644 126.696 53.3461 132.439 62.8173C132.692 61.3144 132.818 60.3128 132.818 59.8126C130.533 57.7214 129.961 55.7727 131.104 53.9665C132.818 51.2572 133.385 56.5692 133.592 57.4226C134.275 57.4226 134.704 57.3037 134.881 57.0657C134.41 55.725 134.239 54.4851 134.366 53.3461C134.557 51.6375 135.122 51.2572 133.592 47.9805Z" fill="url(#paint35_linear)"/>
<path fill-rule="evenodd" clip-rule="evenodd" d="M133.592 47.9805C134.509 49.3641 142.537 56.0341 150.584 51.7037C158.63 47.3734 147.927 39.5122 143.073 38.6153C138.219 37.7185 134.04 38.217 131.104 42.2907C128.168 46.3644 126.696 53.3461 132.439 62.8173C132.692 61.3144 132.818 60.3128 132.818 59.8126C130.533 57.7214 129.961 55.7727 131.104 53.9665C132.818 51.2572 133.385 56.5692 133.592 57.4226C134.275 57.4226 134.704 57.3037 134.881 57.0657C134.41 55.725 134.239 54.4851 134.366 53.3461C134.557 51.6375 135.122 51.2572 133.592 47.9805Z" fill="url(#paint36_linear)"/>
<path fill-rule="evenodd" clip-rule="evenodd" d="M118.274 147.859C118.274 145.771 115.856 132.098 120.84 127.991C125.824 123.883 131.989 129.875 154.693 130.783C155.067 139.966 155.067 146.431 154.693 150.177C154.32 153.924 140.605 159.235 118.274 147.859Z" fill="#7B61FF"/>
<path fill-rule="evenodd" clip-rule="evenodd" d="M114.423 130.153C114.958 132.524 116.729 135.058 117.326 135.605C117.923 136.152 120.094 136.83 120.504 136.698C120.915 136.567 121.995 135.664 122.044 134.607C122.093 133.55 121.057 132.955 121.05 131.393C121.042 129.832 118.446 127.567 118.446 126.186C118.446 124.804 113.887 127.782 114.423 130.153Z" fill="url(#paint37_radial)"/>
<path fill-rule="evenodd" clip-rule="evenodd" d="M181.167 126.899C182.778 129.035 183.826 129.409 184.43 130.046C185.034 130.683 186.415 132.932 186.928 132.557C187.441 132.183 187.972 131.444 187.174 130.046C186.376 128.648 185.167 127.173 185.587 126.433C186.006 125.693 188.055 123.506 189.764 122.998C191.474 122.491 192.042 122.819 192.213 122.546C192.383 122.273 190.168 121.877 189.255 121.774C188.342 121.672 187.049 121.555 185.184 121.774C183.941 121.921 183.075 121.404 182.586 120.224C180.566 123.25 180.094 125.475 181.167 126.899Z" fill="url(#paint38_radial)"/>
<g filter="url(#filter3_i)">
<path fill-rule="evenodd" clip-rule="evenodd" d="M119.218 126.957C118.076 126.313 114.253 127.849 114.253 130.956C112.223 124.046 106.59 114.693 106.59 104.472C109.172 95.5615 115.91 81.5137 117.414 79.309C118.417 77.8391 123.388 75.7817 132.324 73.1367C134.323 75.3215 136.692 76.4139 139.432 76.4139C143.54 76.4139 143.756 73.8943 144.853 73.7629C145.951 73.6313 152.169 76.4139 155.236 79.3743C158.303 82.3347 161.587 93.978 169.654 103.016C177.721 112.054 180.615 118.36 184.617 121.756C183.149 123.071 181.16 123.837 181.16 126.957C179.711 125.895 171.628 120.335 164.777 113.864C157.926 107.393 154.887 102.011 153.853 101.282C152.664 100.444 155.352 126.366 155.236 130.956C155.12 135.546 139.338 135.808 134.403 135.808C129.467 135.808 121.835 134.099 119.875 132.415C119.553 132.137 120.399 95.6925 119.875 97.2217C118.547 101.101 115.463 103.016 115.463 105.571C115.463 111.509 119.225 127.375 119.218 126.957Z" fill="url(#paint39_linear)"/>
</g>
<mask id="mask3" mask-type="alpha" maskUnits="userSpaceOnUse" x="106" y="73" width="79" height="63">
<path fill-rule="evenodd" clip-rule="evenodd" d="M119.218 126.957C118.076 126.313 114.253 127.849 114.253 130.956C112.223 124.046 106.59 114.693 106.59 104.472C109.172 95.5615 115.91 81.5137 117.414 79.309C118.417 77.8391 123.388 75.7817 132.324 73.1367C134.323 75.3215 136.692 76.4139 139.432 76.4139C143.54 76.4139 143.756 73.8943 144.853 73.7629C145.951 73.6313 152.169 76.4139 155.236 79.3743C158.303 82.3347 161.587 93.978 169.654 103.016C177.721 112.054 180.615 118.36 184.617 121.756C183.149 123.071 181.16 123.837 181.16 126.957C179.711 125.895 171.628 120.335 164.777 113.864C157.926 107.393 154.887 102.011 153.853 101.282C152.664 100.444 155.352 126.366 155.236 130.956C155.12 135.546 139.338 135.808 134.403 135.808C129.467 135.808 121.835 134.099 119.875 132.415C119.553 132.137 120.399 95.6925 119.875 97.2217C118.547 101.101 115.463 103.016 115.463 105.571C115.463 111.509 119.225 127.375 119.218 126.957Z" fill="white"/>
</mask>
<g mask="url(#mask3)">
<path fill-rule="evenodd" clip-rule="evenodd" d="M118.222 100.415L125.293 91.0176C125.293 91.0176 127.912 121.491 116.22 132.047C114.16 119.837 115.307 113.455 116.22 108.12C116.82 104.616 118.222 100.415 118.222 100.415Z" fill="url(#paint40_linear)" style="mix-blend-mode:multiply"/>
<g opacity="0.161551">
<path fill-rule="evenodd" clip-rule="evenodd" d="M120.579 134.169C123.219 126.436 135.08 100.966 140.157 97.3345C145.233 93.7028 145.616 89.0155 145.425 82.794C145.233 76.5726 133.376 64.1772 127.178 68.8656C120.979 73.5541 104.384 82.2043 102.569 96.7093C100.754 111.214 108.483 133.463 111.974 131.264C115.466 129.064 117.94 141.902 120.579 134.169Z" fill="url(#paint41_linear)" style="mix-blend-mode:multiply"/>
</g>
</g>
<path fill-rule="evenodd" clip-rule="evenodd" d="M133.079 68.4429C133.079 69.8569 135.229 73.8093 139.382 73.659C143.534 73.5086 144.369 73.3943 144.841 71.2859C144.841 74.4095 145.003 75.3316 144.237 77.3914C143.471 79.4512 138.699 80.5805 136.022 78.8695C133.345 77.1586 131.95 76.1343 132.342 73.0107C132.733 69.8871 133.079 67.029 133.079 68.4429Z" fill="url(#paint42_linear)"/>
<path fill-rule="evenodd" clip-rule="evenodd" d="M38.9096 111.796L76.9867 102.596C84.0288 121.583 87.2238 137.199 86.5716 149.445C78.8824 152.632 67.3486 156.764 51.9702 161.841L36.2469 116.678C35.5655 114.72 36.5998 112.581 38.5571 111.9C38.6729 111.859 38.7905 111.825 38.9096 111.796Z" fill="url(#paint43_linear)"/>
<path fill-rule="evenodd" clip-rule="evenodd" d="M82.2519 105.165C81.4367 107.746 84.085 115.036 88.2923 118.599C92.4996 122.161 78.9673 121.555 78.9594 117.584C78.9515 113.612 83.0671 102.583 82.2519 105.165Z" fill="#7B61FF"/>
<path fill-rule="evenodd" clip-rule="evenodd" d="M84.0936 113.255C87.2753 114.567 89.5691 115.969 90.9751 117.459C93.084 119.694 103.34 137.082 104.549 138.112C105.759 139.141 114.081 139.921 115.334 140.332C114.693 141.259 113.446 144.123 114.087 146.642C112.109 147.637 107.765 146.748 98.8782 145.753C92.2676 140.223 88.8351 131.502 87.4216 127.338C86.0081 123.175 84.8988 118.48 84.0936 113.255Z" fill="url(#paint44_linear)"/>
<path fill-rule="evenodd" clip-rule="evenodd" d="M88.4591 116.236C91.0278 120.63 94.9902 129.452 96.1154 133.261C97.3221 137.346 92.6313 148.103 92.6858 150.63C92.7312 152.738 90.5622 152.002 71.2947 153.941C70.6993 150.225 70.6993 145.578 71.2947 140.001C72.1879 131.635 68.5482 120.38 69.5573 118.49C70.5664 116.6 73.0213 112.581 74.0989 112.581C75.1766 112.581 85.8903 111.842 88.4591 116.236Z" fill="url(#paint45_radial)"/>
<path fill-rule="evenodd" clip-rule="evenodd" d="M9 162.482L122.018 138.889C126.199 138.016 130.538 138.311 134.562 139.741L191.178 159.862C212.983 167.611 210.478 199.222 187.725 203.441V203.441C186.364 203.693 184.983 203.82 183.599 203.82H50.3377C27.5075 203.82 9 185.313 9 162.482V162.482Z" fill="url(#paint46_linear)"/>
<g style="mix-blend-mode:multiply" opacity="0.196931">
<path fill-rule="evenodd" clip-rule="evenodd" d="M92.4258 166.502L138.359 159.078L173.308 174.39L122.712 187.812" fill="url(#paint47_linear)"/>
</g>
<path fill-rule="evenodd" clip-rule="evenodd" d="M81.2331 106.233C80.7531 108.476 81.1673 110.099 81.1673 112.652C81.1673 116.064 74.1994 114.676 73.9616 112.089C73.7237 109.502 74.0046 106.034 73.0234 103.684C72.0421 101.334 81.7131 103.99 81.2331 106.233Z" fill="url(#paint48_linear)"/>
<path fill-rule="evenodd" clip-rule="evenodd" d="M81.2331 106.233C80.7531 108.476 81.1673 110.099 81.1673 112.652C81.1673 116.064 74.1994 114.676 73.9616 112.089C73.7237 109.502 74.0046 106.034 73.0234 103.684C72.0421 101.334 81.7131 103.99 81.2331 106.233Z" fill="url(#paint49_linear)" fill-opacity="0.67"/>
<mask id="mask4" mask-type="alpha" maskUnits="userSpaceOnUse" x="72" y="102" width="10" height="13">
<path fill-rule="evenodd" clip-rule="evenodd" d="M81.2331 106.233C80.7531 108.476 81.1673 110.099 81.1673 112.652C81.1673 116.064 74.1994 114.676 73.9616 112.089C73.7237 109.502 74.0046 106.034 73.0234 103.684C72.0421 101.334 81.7131 103.99 81.2331 106.233Z" fill="white"/>
<path fill-rule="evenodd" clip-rule="evenodd" d="M81.2331 106.233C80.7531 108.476 81.1673 110.099 81.1673 112.652C81.1673 116.064 74.1994 114.676 73.9616 112.089C73.7237 109.502 74.0046 106.034 73.0234 103.684C72.0421 101.334 81.7131 103.99 81.2331 106.233Z" stroke="white"/>
</mask>
<g mask="url(#mask4)">
<g opacity="0.717132">
<path fill-rule="evenodd" clip-rule="evenodd" d="M71.2578 116.215C71.2578 116.215 81.7831 107.396 84.2122 107.396C86.6413 107.396 71.2578 104.439 71.2578 104.439V116.215Z" fill="url(#paint50_linear)" style="mix-blend-mode:multiply"/>
</g>
</g>
<path fill-rule="evenodd" clip-rule="evenodd" d="M83.3747 88.1842C83.994 90.1399 83.9247 92.3087 85.1264 94.1763C86.3281 96.0439 87.9113 97.6751 88.3318 98.5049C88.7524 99.3348 86.6452 100.072 86.6452 100.814C86.6452 101.556 88.0494 106.719 87.298 107.213C86.8697 108.366 78.9837 109.964 76.9924 108.819C75.237 108.819 72.5314 107.279 70.8712 103.495C69.2109 99.7102 69.1343 90.5204 70.8712 88.1842C72.608 85.8481 82.7554 86.2285 83.3747 88.1842Z" fill="url(#paint51_radial)"/>
<path fill-rule="evenodd" clip-rule="evenodd" d="M95.6794 162.936L98.3102 141.592L134.187 140.873L131.05 161.711L95.6794 162.936Z" fill="url(#paint52_linear)"/>
<mask id="mask5" mask-type="alpha" maskUnits="userSpaceOnUse" x="95" y="140" width="40" height="23">
<path fill-rule="evenodd" clip-rule="evenodd" d="M95.6794 162.936L98.3102 141.592L134.187 140.873L131.05 161.711L95.6794 162.936Z" fill="white"/>
</mask>
<g mask="url(#mask5)">
<g style="mix-blend-mode:multiply" opacity="0.458036">
<path fill-rule="evenodd" clip-rule="evenodd" d="M132.952 157.185L128.281 140.312H135.805L132.952 157.185Z" fill="url(#paint53_linear)"/>
</g>
<g style="mix-blend-mode:multiply" opacity="0.528404">
<path fill-rule="evenodd" clip-rule="evenodd" d="M99.6675 153.091C99.6675 154.437 102.909 156.391 106.721 158.101C108.93 159.093 108.626 161.396 109.587 161.396C112.208 161.396 93.6022 168.958 93.6022 168.958C93.6022 168.958 92.5931 158.732 93.6022 156.063C94.7018 153.154 99.6675 152.351 99.6675 153.091Z" fill="url(#paint54_linear)"/>
</g>
</g>
<path fill-rule="evenodd" clip-rule="evenodd" d="M92.7591 154.277C93.8485 154.277 95.1676 153.701 97.0941 153.26C99.0206 152.82 100.236 152.12 100.827 152.771C101.058 153.026 100.673 153.645 100.391 153.814C100.109 153.982 99.9596 154.231 98.6142 154.728C97.3657 155.19 96.6427 155.406 96.8684 155.836C97.0941 156.266 99.1394 156.64 99.7946 156.814C100.631 157.035 101.888 157.467 103.087 157.668C104.427 157.893 105.908 157.918 106.078 158.017C106.4 158.203 106.872 158.903 106.078 159.126C105.89 159.179 104.534 159.207 102.885 159.126C101.124 159.041 99.5084 158.703 99.7946 159.126C99.8625 159.227 101.487 159.558 103.271 159.558C104.328 159.558 106.468 159.69 106.603 159.69C107.092 159.69 107.338 160.359 106.894 160.688C106.791 160.765 104.726 160.998 103.087 161.059C101.201 161.128 99.5312 160.957 99.5114 161.059C99.497 161.133 101.484 161.383 103.271 161.298C104.717 161.229 105.512 161.116 105.782 161.298C106.052 161.48 105.984 161.966 105.782 162.184C105.698 162.275 104.391 162.691 103.087 162.777C101.255 162.899 99.265 162.687 99.2474 162.777C99.2007 163.018 102.586 163.17 103.087 163.17C103.801 163.17 103.711 164.094 102.885 164.289C101.848 164.534 99.7044 164.515 98.7285 164.515C97.7527 164.515 96.2863 164.289 94.819 163.744C93.3517 163.199 91.3925 162.47 90.1506 162.184C88.8085 161.876 89.7723 157.633 90.7016 155.406C91.6308 153.18 91.6698 154.277 92.7591 154.277Z" fill="url(#paint55_linear)"/>
<path fill-rule="evenodd" clip-rule="evenodd" d="M60.3309 129.796C57.5556 136.893 59.7496 142.279 60.9679 148.428C62.1862 154.577 62.7405 155.907 64.682 157.158C66.6236 158.408 71.3847 160.15 89.6839 162.263C89.6839 160.802 89.6372 157.171 92.029 154.122C88.6475 154.122 76.6273 150.806 72.4945 149.767C68.7815 146.922 72.4945 142.359 72.4945 133.8C72.4945 125.24 63.1061 122.699 60.3309 129.796Z" fill="url(#paint56_linear)"/>
<path fill-rule="evenodd" clip-rule="evenodd" d="M80.3943 95.4943L71.0275 97.259V97.96L80.7277 97.2217L80.3943 95.4943Z" fill="#7B61FF"/>
<path fill-rule="evenodd" clip-rule="evenodd" d="M82.889 99.1618C81.8076 99.2754 80.7846 97.988 80.606 96.2887C80.4274 94.5893 81.1603 93.1173 82.2418 93.0037C83.3232 92.89 84.3462 94.1774 84.5248 95.8768C84.7034 97.5762 83.9704 99.0481 82.889 99.1618Z" stroke="#7B61FF"/>
<path fill-rule="evenodd" clip-rule="evenodd" d="M88.1119 96.1342C87.1335 96.2371 86.2079 95.0723 86.0463 93.5348C85.8848 91.9972 86.5479 90.6654 87.5263 90.5626C88.5048 90.4598 89.4303 91.6246 89.5919 93.1621C89.7535 94.6996 89.0904 96.0314 88.1119 96.1342Z" stroke="#7B61FF"/>
<path d="M84.3254 95.2826C84.3254 94.8539 85.5355 94.0133 86.1425 94.4364" stroke="#7B61FF"/>
<path fill-rule="evenodd" clip-rule="evenodd" d="M71.5238 89.0738C74.117 91.0789 80.1507 91.6669 84.2577 89.7297C88.3647 87.7925 89.3669 79.8611 84.2577 77.4208C82.3144 76.4927 78.4547 77.0935 78.99 79.8914C74.5199 78.1629 69.6591 79.6766 67.7318 80.8296C64.7289 82.6261 62.3882 84.5835 61.1575 88.6986C59.9268 92.8135 61.9361 96.9059 60.9472 99.0015C59.9583 101.097 57.0452 102.917 58.6027 109.356C60.1601 115.796 56.4176 114.766 55.574 118.694C54.7303 122.622 57.4176 124.496 55.574 127.114C53.7303 129.731 50.196 140.781 56.8158 146.699C63.4354 152.617 75.7709 156.928 78.574 144.189C81.3772 131.449 68.2281 128.668 72.0867 122.297C75.9454 115.927 73.3892 110.021 74.1969 108.199C75.1907 105.958 74.1222 102.539 72.2351 97.9046C70.4872 93.6124 73.0034 92.4665 71.5238 89.0738Z" fill="url(#paint57_linear)"/>
<path fill-rule="evenodd" clip-rule="evenodd" d="M71.5238 89.0738C74.117 91.0789 80.1507 91.6669 84.2577 89.7297C88.3647 87.7925 89.3669 79.8611 84.2577 77.4208C82.3144 76.4927 78.4547 77.0935 78.99 79.8914C74.5199 78.1629 69.6591 79.6766 67.7318 80.8296C64.7289 82.6261 62.3882 84.5835 61.1575 88.6986C59.9268 92.8135 61.9361 96.9059 60.9472 99.0015C59.9583 101.097 57.0452 102.917 58.6027 109.356C60.1601 115.796 56.4176 114.766 55.574 118.694C54.7303 122.622 57.4176 124.496 55.574 127.114C53.7303 129.731 50.196 140.781 56.8158 146.699C63.4354 152.617 75.7709 156.928 78.574 144.189C81.3772 131.449 68.2281 128.668 72.0867 122.297C75.9454 115.927 73.3892 110.021 74.1969 108.199C75.1907 105.958 74.1222 102.539 72.2351 97.9046C70.4872 93.6124 73.0034 92.4665 71.5238 89.0738Z" fill="url(#paint58_linear)"/>
<path fill-rule="evenodd" clip-rule="evenodd" d="M94.5508 178.938L119.518 174.648C133.299 183.26 140.052 187.594 139.778 187.649C139.389 187.728 111.82 192.549 109.957 193.048C110.132 192.604 104.995 187.899 94.5508 178.938Z" fill="url(#paint59_linear)"/>
<path fill-rule="evenodd" clip-rule="evenodd" d="M109.375 172.275L135.466 170.52L149.81 183.052L117.304 185.294L109.375 172.275Z" fill="url(#paint60_linear)"/>
<path fill-rule="evenodd" clip-rule="evenodd" d="M173.415 174.153L197.111 164.717C197.593 164.526 197.828 163.98 197.636 163.499C197.536 163.249 197.334 163.053 197.081 162.962L166.909 152.149L137.144 159.505L173.415 174.153Z" fill="url(#paint61_linear)"/>
<g filter="url(#filter4_i)">
<path fill-rule="evenodd" clip-rule="evenodd" d="M131.87 128.862L165.303 139.681C166.287 140 167.017 140.832 167.204 141.848L173.187 174.27L136.958 159.573L130.424 130.177C130.289 129.571 130.672 128.969 131.279 128.834C131.475 128.791 131.679 128.8 131.87 128.862Z" fill="url(#paint62_linear)"/>
<path fill-rule="evenodd" clip-rule="evenodd" d="M131.87 128.862L165.303 139.681C166.287 140 167.017 140.832 167.204 141.848L173.187 174.27L136.958 159.573L130.424 130.177C130.289 129.571 130.672 128.969 131.279 128.834C131.475 128.791 131.679 128.8 131.87 128.862Z" fill="url(#paint63_linear)" fill-opacity="0.23"/>
</g>
<path fill-rule="evenodd" clip-rule="evenodd" d="M148.642 152.758C150.365 153.598 152.182 153.596 152.931 152.06C153.681 150.523 152.329 148.783 150.606 147.943C148.882 147.102 147.253 147.104 146.504 148.641C145.754 150.178 146.919 151.917 148.642 152.758Z" fill="#D6E3FA"/>
<path fill-rule="evenodd" clip-rule="evenodd" d="M137.274 58.5777C137.268 57.4067 138.212 56.4523 139.383 56.4455L141.196 56.435C142.396 56.4281 143.367 57.4099 143.346 58.6097V58.6097C143.326 59.7863 142.358 60.7253 141.182 60.7103L139.368 60.6873C138.212 60.6726 137.28 59.7342 137.274 58.5777V58.5777Z" stroke="#7B61FF"/>
<path fill-rule="evenodd" clip-rule="evenodd" d="M147.207 58.5857C147.194 57.4045 148.148 56.4402 149.329 56.4407L150.612 56.4412C151.799 56.4417 152.758 57.4098 152.746 58.5964V58.5964C152.735 59.7845 151.755 60.7346 150.568 60.7101L149.285 60.6836C148.139 60.66 147.22 59.7313 147.207 58.5857V58.5857Z" stroke="#7B61FF"/>
<path d="M143.34 58.313H147.092" stroke="#7B61FF"/>
<path fill-rule="evenodd" clip-rule="evenodd" d="M132.981 55.1198L137.554 57.3408V59.5156L133.415 56.628L132.981 55.1198Z" fill="#7B61FF"/>
<path fill-rule="evenodd" clip-rule="evenodd" d="M86.7255 102.194C86.9098 102.099 86.8519 102.519 86.932 102.765C87.0122 103.012 87.0667 103.051 87.0931 103.211C86.3289 103.605 84.9989 103.683 84.1083 103.156C83.9299 103.05 83.774 102.964 83.9219 102.818C84.0696 102.673 84.2538 102.764 84.4525 102.823C85.1461 103.028 86.2493 102.439 86.7255 102.194Z" fill="#7B61FF"/>
<path opacity="0.7" fill-rule="evenodd" clip-rule="evenodd" d="M59.8521 186.656C66.0699 186.656 71.1103 187.748 71.1103 189.096C71.1103 190.443 66.0699 191.535 59.8521 191.535C53.6344 191.535 48.5939 190.443 48.5939 189.096C48.5939 187.748 53.6344 186.656 59.8521 186.656Z" fill="url(#paint64_linear)"/>
<path fill-rule="evenodd" clip-rule="evenodd" d="M74.8585 174.906C75.7056 176.39 76.18 178.053 76.18 179.809C76.18 186.078 70.1315 191.161 62.6702 191.161C55.2089 191.161 49.1603 186.078 49.1603 179.809C49.1603 177.951 49.6916 176.197 50.6335 174.649C56.6183 175.596 68.5307 175.535 74.8585 174.906Z" fill="url(#paint65_linear)"/>
<mask id="mask6" mask-type="alpha" maskUnits="userSpaceOnUse" x="49" y="174" width="28" height="18">
<path fill-rule="evenodd" clip-rule="evenodd" d="M74.8585 174.906C75.7056 176.39 76.18 178.053 76.18 179.809C76.18 186.078 70.1315 191.161 62.6702 191.161C55.2089 191.161 49.1603 186.078 49.1603 179.809C49.1603 177.951 49.6916 176.197 50.6335 174.649C56.6183 175.596 68.5307 175.535 74.8585 174.906Z" fill="white"/>
</mask>
<g mask="url(#mask6)">
</g>
<path fill-rule="evenodd" clip-rule="evenodd" d="M62.7593 172.395C69.547 172.395 75.0495 173.697 75.0495 175.303C75.0495 176.909 69.547 178.211 62.7593 178.211C55.9715 178.211 50.469 176.909 50.469 175.303C50.469 173.697 55.9715 172.395 62.7593 172.395Z" fill="url(#paint66_linear)"/>
<mask id="mask7" mask-type="alpha" maskUnits="userSpaceOnUse" x="50" y="172" width="26" height="7">
<path fill-rule="evenodd" clip-rule="evenodd" d="M62.7593 172.395C69.547 172.395 75.0495 173.697 75.0495 175.303C75.0495 176.909 69.547 178.211 62.7593 178.211C55.9715 178.211 50.469 176.909 50.469 175.303C50.469 173.697 55.9715 172.395 62.7593 172.395Z" fill="white"/>
</mask>
<g mask="url(#mask7)">
</g>
<g filter="url(#filter5_i)">
<path fill-rule="evenodd" clip-rule="evenodd" d="M61.7236 173.146C61.0524 168.502 59.2061 161.794 53.6552 154.57C50.3854 150.315 50.3747 139.952 49.9025 138.809C52.4683 139.691 57.0774 141.965 61.7236 148.378C66.5941 155.101 63.5043 168.81 61.7236 173.146Z" fill="url(#paint67_linear)"/>
</g>
<mask id="mask8" mask-type="alpha" maskUnits="userSpaceOnUse" x="49" y="138" width="16" height="36">
<path fill-rule="evenodd" clip-rule="evenodd" d="M61.7236 173.146C61.0524 168.502 59.2061 161.794 53.6552 154.57C50.3854 150.315 50.3747 139.952 49.9025 138.809C52.4683 139.691 57.0774 141.965 61.7236 148.378C66.5941 155.101 63.5043 168.81 61.7236 173.146Z" fill="white"/>
</mask>
<g mask="url(#mask8)">
<path fill-rule="evenodd" clip-rule="evenodd" d="M61.5359 173.147C62.0481 161.857 60.6424 154.731 56.2227 148.004Z" fill="#218E67"/>
</g>
<g filter="url(#filter6_i)">
<path fill-rule="evenodd" clip-rule="evenodd" d="M61.7469 177.913C59.6733 174.597 56.0097 170.102 49.3455 166.458C45.4198 164.311 41.928 156.411 41.1834 155.699C43.4379 155.509 47.7196 155.695 53.4207 159.025C59.3971 162.515 61.648 174.008 61.7469 177.913Z" fill="url(#paint68_linear)"/>
</g>
<mask id="mask9" mask-type="alpha" maskUnits="userSpaceOnUse" x="41" y="155" width="21" height="23">
<path fill-rule="evenodd" clip-rule="evenodd" d="M61.7469 177.913C59.6733 174.597 56.0097 170.102 49.3455 166.458C45.4198 164.311 41.928 156.411 41.1834 155.699C43.4379 155.509 47.7196 155.695 53.4207 159.025C59.3971 162.515 61.648 174.008 61.7469 177.913Z" fill="white"/>
</mask>
<g mask="url(#mask9)">
<path fill-rule="evenodd" clip-rule="evenodd" d="M61.6044 177.977C58.1997 169.195 54.7316 164.233 49.0977 160.588Z" fill="#218E67"/>
</g>
<g filter="url(#filter7_i)">
<path fill-rule="evenodd" clip-rule="evenodd" d="M63.2359 178.367C64.8709 174.798 67.9368 169.85 74.1018 165.361C77.7334 162.718 80.1864 154.402 80.8355 153.596C78.5653 153.698 74.3246 154.435 69.078 158.486C63.5781 162.732 62.8276 174.466 63.2359 178.367Z" fill="url(#paint69_linear)"/>
</g>
<mask id="mask10" mask-type="alpha" maskUnits="userSpaceOnUse" x="63" y="153" width="18" height="26">
<path fill-rule="evenodd" clip-rule="evenodd" d="M63.2359 178.367C64.8709 174.798 67.9368 169.85 74.1018 165.361C77.7334 162.718 80.1864 154.402 80.8355 153.596C78.5653 153.698 74.3246 154.435 69.078 158.486C63.5781 162.732 62.8276 174.466 63.2359 178.367Z" fill="white"/>
</mask>
<g mask="url(#mask10)">
<path fill-rule="evenodd" clip-rule="evenodd" d="M62.7617 178.36C65.0132 169.176 67.8237 163.788 72.9624 159.432Z" fill="#218E67"/>
</g>
<defs>
<filter id="filter0_i" x="0.15625" y="21.709" width="152.729" height="93.5983" filterUnits="userSpaceOnUse" color-interpolation-filters="sRGB">
<feFlood flood-opacity="0" result="BackgroundImageFix"/>
<feBlend mode="normal" in="SourceGraphic" in2="BackgroundImageFix" result="shape"/>
<feColorMatrix in="SourceAlpha" type="matrix" values="0 0 0 0 0 0 0 0 0 0 0 0 0 0 0 0 0 0 127 0" result="hardAlpha"/>
<feOffset dy="-14"/>
<feGaussianBlur stdDeviation="12.5"/>
<feComposite in2="hardAlpha" operator="arithmetic" k2="-1" k3="1"/>
<feColorMatrix type="matrix" values="0 0 0 0 0.788056 0 0 0 0 0.827193 0 0 0 0 0.89764 0 0 0 0.337126 0"/>
<feBlend mode="normal" in2="shape" result="effect1_innerShadow"/>
</filter>
<filter id="filter1_i" x="96.6211" y="-12.3086" width="150.908" height="95.7974" filterUnits="userSpaceOnUse" color-interpolation-filters="sRGB">
<feFlood flood-opacity="0" result="BackgroundImageFix"/>
<feBlend mode="normal" in="SourceGraphic" in2="BackgroundImageFix" result="shape"/>
<feColorMatrix in="SourceAlpha" type="matrix" values="0 0 0 0 0 0 0 0 0 0 0 0 0 0 0 0 0 0 127 0" result="hardAlpha"/>
<feOffset dy="-14"/>
<feGaussianBlur stdDeviation="12.5"/>
<feComposite in2="hardAlpha" operator="arithmetic" k2="-1" k3="1"/>
<feColorMatrix type="matrix" values="0 0 0 0 0.788056 0 0 0 0 0.827193 0 0 0 0 0.89764 0 0 0 0.337126 0"/>
<feBlend mode="normal" in2="shape" result="effect1_innerShadow"/>
</filter>
<filter id="filter2_i" x="152.973" y="122.602" width="64.7609" height="44.7719" filterUnits="userSpaceOnUse" color-interpolation-filters="sRGB">
<feFlood flood-opacity="0" result="BackgroundImageFix"/>
<feBlend mode="normal" in="SourceGraphic" in2="BackgroundImageFix" result="shape"/>
<feColorMatrix in="SourceAlpha" type="matrix" values="0 0 0 0 0 0 0 0 0 0 0 0 0 0 0 0 0 0 127 0" result="hardAlpha"/>
<feOffset dx="-12" dy="1"/>
<feGaussianBlur stdDeviation="13.5"/>
<feComposite in2="hardAlpha" operator="arithmetic" k2="-1" k3="1"/>
<feColorMatrix type="matrix" values="0 0 0 0 0.0901961 0 0 0 0 0.254902 0 0 0 0 0.572549 0 0 0 0.204201 0"/>
<feBlend mode="normal" in2="shape" result="effect1_innerShadow"/>
</filter>
<filter id="filter3_i" x="106.59" y="73.1367" width="86.0275" height="65.6708" filterUnits="userSpaceOnUse" color-interpolation-filters="sRGB">
<feFlood flood-opacity="0" result="BackgroundImageFix"/>
<feBlend mode="normal" in="SourceGraphic" in2="BackgroundImageFix" result="shape"/>
<feColorMatrix in="SourceAlpha" type="matrix" values="0 0 0 0 0 0 0 0 0 0 0 0 0 0 0 0 0 0 127 0" result="hardAlpha"/>
<feOffset dx="8" dy="3"/>
<feGaussianBlur stdDeviation="11.5"/>
<feComposite in2="hardAlpha" operator="arithmetic" k2="-1" k3="1"/>
<feColorMatrix type="matrix" values="0 0 0 0 0.729412 0 0 0 0 0.8 0 0 0 0 0.933333 0 0 0 1 0"/>
<feBlend mode="normal" in2="shape" result="effect1_innerShadow"/>
</filter>
<filter id="filter4_i" x="124.398" y="128.807" width="48.7898" height="47.4628" filterUnits="userSpaceOnUse" color-interpolation-filters="sRGB">
<feFlood flood-opacity="0" result="BackgroundImageFix"/>
<feBlend mode="normal" in="SourceGraphic" in2="BackgroundImageFix" result="shape"/>
<feColorMatrix in="SourceAlpha" type="matrix" values="0 0 0 0 0 0 0 0 0 0 0 0 0 0 0 0 0 0 127 0" result="hardAlpha"/>
<feOffset dx="-6" dy="2"/>
<feGaussianBlur stdDeviation="6"/>
<feComposite in2="hardAlpha" operator="arithmetic" k2="-1" k3="1"/>
<feColorMatrix type="matrix" values="0 0 0 0 1 0 0 0 0 1 0 0 0 0 1 0 0 0 0.5 0"/>
<feBlend mode="normal" in2="shape" result="effect1_innerShadow"/>
</filter>
<filter id="filter5_i" x="49.9023" y="128.809" width="14.4381" height="44.3376" filterUnits="userSpaceOnUse" color-interpolation-filters="sRGB">
<feFlood flood-opacity="0" result="BackgroundImageFix"/>
<feBlend mode="normal" in="SourceGraphic" in2="BackgroundImageFix" result="shape"/>
<feColorMatrix in="SourceAlpha" type="matrix" values="0 0 0 0 0 0 0 0 0 0 0 0 0 0 0 0 0 0 127 0" result="hardAlpha"/>
<feOffset dy="-10"/>
<feGaussianBlur stdDeviation="11"/>
<feComposite in2="hardAlpha" operator="arithmetic" k2="-1" k3="1"/>
<feColorMatrix type="matrix" values="0 0 0 0 0.221483 0 0 0 0 0.77854 0 0 0 0 0.610041 0 0 0 1 0"/>
<feBlend mode="normal" in2="shape" result="effect1_innerShadow"/>
</filter>
<filter id="filter6_i" x="41.1836" y="145.648" width="20.5634" height="32.2654" filterUnits="userSpaceOnUse" color-interpolation-filters="sRGB">
<feFlood flood-opacity="0" result="BackgroundImageFix"/>
<feBlend mode="normal" in="SourceGraphic" in2="BackgroundImageFix" result="shape"/>
<feColorMatrix in="SourceAlpha" type="matrix" values="0 0 0 0 0 0 0 0 0 0 0 0 0 0 0 0 0 0 127 0" result="hardAlpha"/>
<feOffset dy="-10"/>
<feGaussianBlur stdDeviation="11"/>
<feComposite in2="hardAlpha" operator="arithmetic" k2="-1" k3="1"/>
<feColorMatrix type="matrix" values="0 0 0 0 0.221483 0 0 0 0 0.77854 0 0 0 0 0.610041 0 0 0 1 0"/>
<feBlend mode="normal" in2="shape" result="effect1_innerShadow"/>
</filter>
<filter id="filter7_i" x="63.1406" y="143.596" width="17.6931" height="34.7717" filterUnits="userSpaceOnUse" color-interpolation-filters="sRGB">
<feFlood flood-opacity="0" result="BackgroundImageFix"/>
<feBlend mode="normal" in="SourceGraphic" in2="BackgroundImageFix" result="shape"/>
<feColorMatrix in="SourceAlpha" type="matrix" values="0 0 0 0 0 0 0 0 0 0 0 0 0 0 0 0 0 0 127 0" result="hardAlpha"/>
<feOffset dy="-10"/>
<feGaussianBlur stdDeviation="11"/>
<feComposite in2="hardAlpha" operator="arithmetic" k2="-1" k3="1"/>
<feColorMatrix type="matrix" values="0 0 0 0 0.221483 0 0 0 0 0.77854 0 0 0 0 0.610041 0 0 0 1 0"/>
<feBlend mode="normal" in2="shape" result="effect1_innerShadow"/>
</filter>
<linearGradient id="paint0_linear" x1="129.499" y1="0.486328" x2="129.499" y2="240.876" gradientUnits="userSpaceOnUse">
<stop stop-color="#ECE7F8"/>
<stop offset="1" stop-color="#ECE7F8" stop-opacity="0"/>
</linearGradient>
<linearGradient id="paint1_linear" x1="101.68" y1="104.819" x2="109.743" y2="50.5899" gradientUnits="userSpaceOnUse">
<stop stop-color="#ECF1FF"/>
<stop offset="1" stop-color="white"/>
</linearGradient>
<linearGradient id="paint2_linear" x1="196.843" y1="71.3612" x2="205.136" y2="16.8037" gradientUnits="userSpaceOnUse">
<stop stop-color="#ECF1FF"/>
<stop offset="1" stop-color="white"/>
</linearGradient>
<linearGradient id="paint3_linear" x1="136" y1="243.486" x2="135.517" y2="52.9876" gradientUnits="userSpaceOnUse">
<stop stop-color="#F9F7FD" stop-opacity="0"/>
<stop offset="1" stop-color="#F9F7FD"/>
</linearGradient>
<linearGradient id="paint4_linear" x1="182.207" y1="112.312" x2="182.207" y2="48.0957" gradientUnits="userSpaceOnUse">
<stop stop-color="#ECF2FC" stop-opacity="0.642323"/>
<stop offset="1" stop-color="#D4E1F8"/>
</linearGradient>
<linearGradient id="paint5_linear" x1="113.764" y1="111.715" x2="92.4952" y2="139.526" gradientUnits="userSpaceOnUse">
<stop stop-color="#CFDDF3"/>
<stop offset="1" stop-color="#A1B8E3"/>
</linearGradient>
<linearGradient id="paint6_linear" x1="109.105" y1="141.514" x2="116.568" y2="153.933" gradientUnits="userSpaceOnUse">
<stop stop-color="#CFDDF3"/>
<stop offset="1" stop-color="#A1B8E3"/>
</linearGradient>
<linearGradient id="paint7_linear" x1="109.297" y1="131.781" x2="113.764" y2="139.216" gradientUnits="userSpaceOnUse">
<stop stop-color="#CFDDF3"/>
<stop offset="1" stop-color="#A1B8E3"/>
</linearGradient>
<linearGradient id="paint8_linear" x1="104.82" y1="116.941" x2="137.124" y2="170.704" gradientUnits="userSpaceOnUse">
<stop stop-color="#CFDDF3"/>
<stop offset="1" stop-color="#A1B8E3"/>
</linearGradient>
<linearGradient id="paint9_linear" x1="156.617" y1="122.541" x2="157.383" y2="166.438" gradientUnits="userSpaceOnUse">
<stop stop-color="#CFDDF3"/>
<stop offset="1" stop-color="#A1B8E3"/>
</linearGradient>
<linearGradient id="paint10_linear" x1="169.006" y1="96.6642" x2="157.611" y2="99.3276" gradientUnits="userSpaceOnUse">
<stop stop-color="#CFDDF3"/>
<stop offset="1" stop-color="#A1B8E3"/>
</linearGradient>
<linearGradient id="paint11_linear" x1="181.67" y1="103.487" x2="170.276" y2="106.151" gradientUnits="userSpaceOnUse">
<stop stop-color="#CFDDF3"/>
<stop offset="1" stop-color="#A1B8E3"/>
</linearGradient>
<linearGradient id="paint12_linear" x1="177.749" y1="113.568" x2="166.354" y2="116.232" gradientUnits="userSpaceOnUse">
<stop stop-color="#CFDDF3"/>
<stop offset="1" stop-color="#A1B8E3"/>
</linearGradient>
<linearGradient id="paint13_linear" x1="174.581" y1="123.336" x2="163.186" y2="125.999" gradientUnits="userSpaceOnUse">
<stop stop-color="#CFDDF3"/>
<stop offset="1" stop-color="#A1B8E3"/>
</linearGradient>
<linearGradient id="paint14_linear" x1="180.82" y1="91.6284" x2="169.425" y2="94.2918" gradientUnits="userSpaceOnUse">
<stop stop-color="#CFDDF3"/>
<stop offset="1" stop-color="#A1B8E3"/>
</linearGradient>
<linearGradient id="paint15_linear" x1="163.737" y1="107.349" x2="152.342" y2="110.012" gradientUnits="userSpaceOnUse">
<stop stop-color="#CFDDF3"/>
<stop offset="1" stop-color="#A1B8E3"/>
</linearGradient>
<linearGradient id="paint16_linear" x1="159.827" y1="118.038" x2="148.433" y2="120.702" gradientUnits="userSpaceOnUse">
<stop stop-color="#CFDDF3"/>
<stop offset="1" stop-color="#A1B8E3"/>
</linearGradient>
<linearGradient id="paint17_linear" x1="114.162" y1="34.9852" x2="79.4362" y2="79.3694" gradientUnits="userSpaceOnUse">
<stop stop-color="#D2E0F9" stop-opacity="0.01"/>
<stop offset="1" stop-color="#B1C6E7" stop-opacity="0.464589"/>
</linearGradient>
<linearGradient id="paint18_linear" x1="110.981" y1="51.4525" x2="83.5915" y2="86.4605" gradientUnits="userSpaceOnUse">
<stop stop-color="#D2E0F9" stop-opacity="0.01"/>
<stop offset="1" stop-color="#B1C6E7" stop-opacity="0.464589"/>
</linearGradient>
<linearGradient id="paint19_linear" x1="180.021" y1="51.6845" x2="145.296" y2="96.0686" gradientUnits="userSpaceOnUse">
<stop stop-color="#D2E0F9" stop-opacity="0.01"/>
<stop offset="1" stop-color="#B1C6E7" stop-opacity="0.464589"/>
</linearGradient>
<linearGradient id="paint20_linear" x1="176.841" y1="68.1518" x2="149.451" y2="103.16" gradientUnits="userSpaceOnUse">
<stop stop-color="#D2E0F9" stop-opacity="0.01"/>
<stop offset="1" stop-color="#B1C6E7" stop-opacity="0.464589"/>
</linearGradient>
<linearGradient id="paint21_linear" x1="203.236" y1="145.839" x2="227.215" y2="138.694" gradientUnits="userSpaceOnUse">
<stop stop-color="#9A8CE2"/>
<stop offset="1" stop-color="#D9D6FA"/>
</linearGradient>
<linearGradient id="paint22_linear" x1="198.048" y1="107.223" x2="187.638" y2="115.404" gradientUnits="userSpaceOnUse">
<stop stop-color="#5D6FAA"/>
<stop offset="1" stop-color="#90AADB"/>
</linearGradient>
<linearGradient id="paint23_linear" x1="195.48" y1="108.469" x2="195.48" y2="126.967" gradientUnits="userSpaceOnUse">
<stop stop-color="#CFDDF3"/>
<stop offset="1" stop-color="#A1B8E3" stop-opacity="0.01"/>
</linearGradient>
<radialGradient id="paint24_radial" cx="0" cy="0" r="1" gradientUnits="userSpaceOnUse" gradientTransform="translate(187.908 104.36) rotate(38.0793) scale(24.197 34.3494)">
<stop stop-color="#E1E8FF"/>
<stop offset="1" stop-color="#CECBEF"/>
</radialGradient>
<linearGradient id="paint25_linear" x1="180.776" y1="86.0125" x2="185.657" y2="102.861" gradientUnits="userSpaceOnUse">
<stop stop-color="#7B61FF"/>
<stop offset="1" stop-color="#3300FF"/>
</linearGradient>
<linearGradient id="paint26_linear" x1="195.021" y1="100.939" x2="198.678" y2="118.108" gradientUnits="userSpaceOnUse">
<stop stop-color="#174293" stop-opacity="0.01"/>
<stop offset="1" stop-color="#051E4B"/>
</linearGradient>
<linearGradient id="paint27_linear" x1="175.659" y1="114.384" x2="183.044" y2="126.799" gradientUnits="userSpaceOnUse">
<stop stop-color="#7B61FF"/>
<stop offset="1" stop-color="#143B8C"/>
<stop offset="1" stop-color="#3300FF"/>
</linearGradient>
<linearGradient id="paint28_linear" x1="179.402" y1="146.848" x2="176.675" y2="156.857" gradientUnits="userSpaceOnUse">
<stop stop-color="#2E7DE7" stop-opacity="0.01"/>
<stop offset="1" stop-color="#00357E" stop-opacity="0.5"/>
</linearGradient>
<linearGradient id="paint29_linear" x1="204.976" y1="129.223" x2="204.976" y2="118.463" gradientUnits="userSpaceOnUse">
<stop stop-color="#70B8F9" stop-opacity="0.275872"/>
<stop offset="1" stop-color="#3D82F0"/>
</linearGradient>
<linearGradient id="paint30_linear" x1="193.342" y1="156.843" x2="204.583" y2="162.631" gradientUnits="userSpaceOnUse">
<stop stop-color="#3D82F0" stop-opacity="0.01"/>
<stop offset="1" stop-color="#3D82F0"/>
</linearGradient>
<linearGradient id="paint31_linear" x1="166.712" y1="149.4" x2="180.09" y2="155.544" gradientUnits="userSpaceOnUse">
<stop stop-color="#3D82F0" stop-opacity="0.01"/>
<stop offset="1" stop-color="#3D82F0"/>
</linearGradient>
<linearGradient id="paint32_linear" x1="131.902" y1="56.625" x2="131.902" y2="81.956" gradientUnits="userSpaceOnUse">
<stop stop-color="#4376C9"/>
<stop offset="1" stop-color="#D6E3FA"/>
</linearGradient>
<linearGradient id="paint33_linear" x1="134.833" y1="80.04" x2="143.995" y2="80.04" gradientUnits="userSpaceOnUse">
<stop stop-color="#BDB2FA"/>
<stop offset="1" stop-color="#A9BFE7" stop-opacity="0.01"/>
<stop offset="1" stop-color="#A9BFE7" stop-opacity="0.01"/>
</linearGradient>
<radialGradient id="paint34_radial" cx="0" cy="0" r="1" gradientUnits="userSpaceOnUse" gradientTransform="translate(133.934 55.4531) rotate(41.3765) scale(22.743 32.9854)">
<stop stop-color="#E1E8FF"/>
<stop offset="1" stop-color="#CECBEF"/>
</radialGradient>
<linearGradient id="paint35_linear" x1="120.162" y1="37.2949" x2="122.539" y2="50.3607" gradientUnits="userSpaceOnUse">
<stop stop-color="#7B61FF"/>
<stop offset="1" stop-color="#3300FF"/>
</linearGradient>
<linearGradient id="paint36_linear" x1="136.925" y1="48.3272" x2="138.669" y2="61.3604" gradientUnits="userSpaceOnUse">
<stop stop-color="#174293" stop-opacity="0.01"/>
<stop offset="1" stop-color="#051E4B"/>
</linearGradient>
<radialGradient id="paint37_radial" cx="0" cy="0" r="1" gradientUnits="userSpaceOnUse" gradientTransform="translate(115.459 128.933) rotate(46.3673) scale(10.1578 14.8342)">
<stop stop-color="#E1E8FF"/>
<stop offset="1" stop-color="#CECBEF"/>
</radialGradient>
<radialGradient id="paint38_radial" cx="0" cy="0" r="1" gradientUnits="userSpaceOnUse" gradientTransform="translate(182.39 124.503) rotate(36.5391) scale(13.0859 18.3036)">
<stop stop-color="#E1E8FF"/>
<stop offset="1" stop-color="#CECBEF"/>
</radialGradient>
<linearGradient id="paint39_linear" x1="169.925" y1="68.6173" x2="137.103" y2="84.4837" gradientUnits="userSpaceOnUse">
<stop stop-color="#EDEDFD"/>
<stop offset="1" stop-color="#D9D6FA"/>
</linearGradient>
<linearGradient id="paint40_linear" x1="120.475" y1="155.572" x2="140.703" y2="150.24" gradientUnits="userSpaceOnUse">
<stop stop-color="#EAF0F7" stop-opacity="0.115546"/>
<stop offset="1" stop-color="#D1DDED"/>
</linearGradient>
<linearGradient id="paint41_linear" x1="145.804" y1="66.6563" x2="114.107" y2="71.1358" gradientUnits="userSpaceOnUse">
<stop stop-color="#EAF0F7" stop-opacity="0.115546"/>
<stop offset="1" stop-color="#D1DDED"/>
</linearGradient>
<linearGradient id="paint42_linear" x1="133.904" y1="75.6251" x2="137.419" y2="75.6251" gradientUnits="userSpaceOnUse">
<stop stop-color="#B1C6E7"/>
<stop offset="1" stop-color="#E5EFFD"/>
</linearGradient>
<linearGradient id="paint43_linear" x1="67.3849" y1="121.56" x2="48.4811" y2="117.732" gradientUnits="userSpaceOnUse">
<stop stop-color="#7B61FF"/>
<stop offset="1" stop-color="#D9D6FA"/>
</linearGradient>
<linearGradient id="paint44_linear" x1="104.661" y1="156.776" x2="121.372" y2="147.369" gradientUnits="userSpaceOnUse">
<stop stop-color="#3F2885"/>
<stop offset="0.87783" stop-color="#7B61FF"/>
<stop offset="1" stop-color="#3300FF"/>
</linearGradient>
<radialGradient id="paint45_radial" cx="0" cy="0" r="1" gradientUnits="userSpaceOnUse" gradientTransform="translate(97.5644 132.898) rotate(-173.25) scale(21.2176 30.6492)">
<stop stop-color="#7B61FF"/>
<stop offset="1" stop-color="#3F2885"/>
</radialGradient>
<linearGradient id="paint46_linear" x1="-8.73509" y1="172.754" x2="-6.63703" y2="196.23" gradientUnits="userSpaceOnUse">
<stop stop-color="#EAEFFF"/>
<stop offset="1" stop-color="#F7F9FE"/>
</linearGradient>
<linearGradient id="paint47_linear" x1="108.487" y1="158.103" x2="107.787" y2="175.616" gradientUnits="userSpaceOnUse">
<stop stop-color="#7B61FF"/>
<stop offset="1" stop-color="#2D64D7" stop-opacity="0.01"/>
</linearGradient>
<linearGradient id="paint48_linear" x1="71.668" y1="101.094" x2="71.668" y2="116.292" gradientUnits="userSpaceOnUse">
<stop stop-color="#4376C9"/>
<stop offset="1" stop-color="#D6E3FA"/>
</linearGradient>
<linearGradient id="paint49_linear" x1="73.7082" y1="115.143" x2="80.0868" y2="115.143" gradientUnits="userSpaceOnUse">
<stop stop-color="#7B61FF"/>
<stop offset="1" stop-color="#A9BFE7" stop-opacity="0.01"/>
<stop offset="1" stop-color="#A9BFE7" stop-opacity="0.01"/>
</linearGradient>
<linearGradient id="paint50_linear" x1="71.2578" y1="104.439" x2="71.2578" y2="116.215" gradientUnits="userSpaceOnUse">
<stop stop-color="#699DF3"/>
<stop offset="1" stop-color="#8597B5" stop-opacity="0.01"/>
</linearGradient>
<radialGradient id="paint51_radial" cx="0" cy="0" r="1" gradientUnits="userSpaceOnUse" gradientTransform="translate(72.988 94.1553) rotate(41.3535) scale(21.923 31.7928)">
<stop stop-color="#E1E8FF"/>
<stop offset="1" stop-color="#CECBEF"/>
</radialGradient>
<linearGradient id="paint52_linear" x1="107.252" y1="170.519" x2="120.313" y2="149.207" gradientUnits="userSpaceOnUse">
<stop stop-color="#FF7F31"/>
<stop offset="1" stop-color="#FFD25F"/>
</linearGradient>
<linearGradient id="paint53_linear" x1="132.931" y1="138.88" x2="127.055" y2="139.674" gradientUnits="userSpaceOnUse">
<stop stop-color="#FF7F31"/>
<stop offset="1" stop-color="#FFC83A" stop-opacity="0.01"/>
</linearGradient>
<linearGradient id="paint54_linear" x1="104.31" y1="168.15" x2="112.497" y2="162.452" gradientUnits="userSpaceOnUse">
<stop stop-color="#FF7F31"/>
<stop offset="1" stop-color="#FFC83A" stop-opacity="0.01"/>
</linearGradient>
<linearGradient id="paint55_linear" x1="90.9631" y1="152.21" x2="88.001" y2="160.809" gradientUnits="userSpaceOnUse">
<stop stop-color="#ECF2FB"/>
<stop offset="1" stop-color="#D5E1F5"/>
</linearGradient>
<linearGradient id="paint56_linear" x1="82.6011" y1="141.702" x2="71.9204" y2="149.845" gradientUnits="userSpaceOnUse">
<stop stop-color="#7B61FF"/>
<stop offset="1" stop-color="#3300FF"/>
</linearGradient>
<linearGradient id="paint57_linear" x1="97.5713" y1="78.3364" x2="53.1366" y2="79.0918" gradientUnits="userSpaceOnUse">
<stop stop-color="#7B61FF"/>
<stop offset="1" stop-color="#3F2885"/>
</linearGradient>
<linearGradient id="paint58_linear" x1="73.7605" y1="111.079" x2="51.4972" y2="117.756" gradientUnits="userSpaceOnUse">
<stop stop-color="#3D82F0" stop-opacity="0.01"/>
<stop offset="1" stop-color="#7B61FF"/>
</linearGradient>
<linearGradient id="paint59_linear" x1="94.5508" y1="174.648" x2="94.5508" y2="193.048" gradientUnits="userSpaceOnUse">
<stop stop-color="#B2C7E8"/>
<stop offset="1" stop-color="#D6E3FA"/>
</linearGradient>
<linearGradient id="paint60_linear" x1="109.375" y1="170.52" x2="109.375" y2="185.294" gradientUnits="userSpaceOnUse">
<stop stop-color="#C6D6EE"/>
<stop offset="1" stop-color="#E5EFFD"/>
</linearGradient>
<linearGradient id="paint61_linear" x1="161.305" y1="159.677" x2="176.867" y2="159.677" gradientUnits="userSpaceOnUse">
<stop stop-color="#7B61FF"/>
<stop offset="1" stop-color="#7B61FF"/>
</linearGradient>
<linearGradient id="paint62_linear" x1="156.546" y1="125.666" x2="126.563" y2="145.207" gradientUnits="userSpaceOnUse">
<stop stop-color="#DBE9FF"/>
<stop offset="0.440948" stop-color="#A7BDE4"/>
<stop offset="1" stop-color="#7B61FF"/>
</linearGradient>
<linearGradient id="paint63_linear" x1="156.886" y1="161.368" x2="154.781" y2="166.312" gradientUnits="userSpaceOnUse">
<stop stop-color="#869FCE" stop-opacity="0.01"/>
<stop offset="1" stop-color="#7B61FF"/>
</linearGradient>
<linearGradient id="paint64_linear" x1="71.4856" y1="186.469" x2="48.4062" y2="186.469" gradientUnits="userSpaceOnUse">
<stop stop-color="#D9E5F6" stop-opacity="0.712636"/>
<stop offset="1" stop-color="#B2C6EA"/>
</linearGradient>
<linearGradient id="paint65_linear" x1="71.9514" y1="197.903" x2="75.7291" y2="183.471" gradientUnits="userSpaceOnUse">
<stop stop-color="#ACC5E9"/>
<stop offset="0.627469" stop-color="#D3E3FB"/>
<stop offset="1" stop-color="#EAF2FF"/>
</linearGradient>
<linearGradient id="paint66_linear" x1="51.2208" y1="171.051" x2="50.6213" y2="180.663" gradientUnits="userSpaceOnUse">
<stop stop-color="#86A8D9"/>
<stop offset="1" stop-color="#BCD0F2"/>
</linearGradient>
<linearGradient id="paint67_linear" x1="47.4531" y1="148.123" x2="67.6198" y2="169.239" gradientUnits="userSpaceOnUse">
<stop stop-color="#B1FFBE"/>
<stop offset="0.444207" stop-color="#5CDB8E"/>
<stop offset="1" stop-color="#149654"/>
</linearGradient>
<linearGradient id="paint68_linear" x1="47.1623" y1="154.537" x2="50.0619" y2="176.945" gradientUnits="userSpaceOnUse">
<stop stop-color="#B1FFBE"/>
<stop offset="0.444207" stop-color="#5CDB8E"/>
<stop offset="1" stop-color="#149654"/>
</linearGradient>
<linearGradient id="paint69_linear" x1="60.016" y1="160.153" x2="73.2965" y2="180.996" gradientUnits="userSpaceOnUse">
<stop stop-color="#B1FFBE"/>
<stop offset="0.444207" stop-color="#5CDB8E"/>
<stop offset="1" stop-color="#149654"/>
</linearGradient>
</defs>
</svg>
