<svg width="248" height="163" viewBox="0 0 248 163" fill="none" xmlns="http://www.w3.org/2000/svg">
<path d="M26.5854 149.061H56.4431V151.484H26.5854V149.061Z" fill="#E7EBF2"/>
<path d="M28.1777 144.41C28.5799 143.175 29.7313 142.339 31.0304 142.339H52.0763C53.3754 142.339 54.5268 143.175 54.929 144.41L56.4431 149.061H26.6636L28.1777 144.41Z" fill="#E7EBF2"/>
<path d="M17.3619 46.0437V55.1886H102.871L94.5855 46.8253L17.3619 46.0437Z" stroke="#E7EBF2" stroke-width="2" stroke-miterlimit="10" stroke-linejoin="round"/>
<path d="M65.9002 55.1882V46.825L75.4359 55.1882V46.825L85.0497 55.1882V46.825L94.5854 55.1882V47.1376V46.825" stroke="#E7EBF2" stroke-width="2" stroke-miterlimit="10" stroke-linejoin="round"/>
<path d="M27.6011 55.1885V46.2" stroke="#E7EBF2" stroke-width="2" stroke-miterlimit="10" stroke-linejoin="round"/>
<path d="M56.2861 46.825V55.1882L46.7504 46.825" stroke="#E7EBF2" stroke-width="2" stroke-miterlimit="10" stroke-linejoin="round"/>
<path d="M46.7502 46.825V55.1882" stroke="#E7EBF2" stroke-width="2" stroke-miterlimit="10" stroke-linejoin="round"/>
<path d="M36.433 138.431H46.6721V37.5242L41.5135 32.7563L36.433 37.5242V138.431Z" stroke="#E7EBF2" stroke-width="2" stroke-miterlimit="10" stroke-linejoin="round"/>
<path d="M46.6721 38.071H36.433" stroke="#E7EBF2" stroke-width="2" stroke-miterlimit="10"/>
<path d="M46.6721 63.8647H36.433" stroke="#E7EBF2" stroke-width="2" stroke-miterlimit="10" stroke-linejoin="round"/>
<path d="M46.6721 72.1492H36.433" stroke="#E7EBF2" stroke-width="2" stroke-miterlimit="10"/>
<path d="M46.6721 80.3569H36.433" stroke="#E7EBF2" stroke-width="2" stroke-miterlimit="10"/>
<path d="M46.6721 88.6421H36.433" stroke="#E7EBF2" stroke-width="2" stroke-miterlimit="10"/>
<path d="M46.6721 96.9272H36.433" stroke="#E7EBF2" stroke-width="2" stroke-miterlimit="10"/>
<path d="M46.6721 105.212H36.433" stroke="#E7EBF2" stroke-width="2" stroke-miterlimit="10"/>
<path d="M46.6721 113.419H36.433" stroke="#E7EBF2" stroke-width="2" stroke-miterlimit="10"/>
<path d="M46.6721 121.704H36.433" stroke="#E7EBF2" stroke-width="2" stroke-miterlimit="10"/>
<path d="M46.6721 129.989H36.433" stroke="#E7EBF2" stroke-width="2" stroke-miterlimit="10"/>
<path d="M87.0034 46.7473L41.5134 32.7563L19.8627 46.122" stroke="#E7EBF2" stroke-width="2" stroke-miterlimit="10" stroke-linejoin="round"/>
<path d="M46.7502 55.1885L36.4329 46.3562" stroke="#E7EBF2" stroke-width="2" stroke-miterlimit="10" stroke-linejoin="round"/>
<path d="M36.7457 55.5015L46.4377 63.5521" stroke="#E7EBF2" stroke-width="2" stroke-miterlimit="10" stroke-linejoin="round"/>
<path d="M36.7457 38.2273L46.5159 46.0435" stroke="#E7EBF2" stroke-width="2" stroke-miterlimit="10" stroke-linejoin="round"/>
<path d="M27.9137 46.3562L36.0425 55.0321" stroke="#E7EBF2" stroke-width="2" stroke-miterlimit="10" stroke-linejoin="round"/>
<path d="M27.3667 55.0321L17.4402 46.3562" stroke="#E7EBF2" stroke-width="2" stroke-miterlimit="10" stroke-linejoin="round"/>
<path d="M56.5991 46.7468L65.5876 54.7975" stroke="#E7EBF2" stroke-width="2" stroke-miterlimit="10" stroke-linejoin="round"/>
<path d="M36.8239 64.0991L46.4377 71.8371" stroke="#E7EBF2" stroke-width="2" stroke-miterlimit="10" stroke-linejoin="round"/>
<path d="M36.8239 72.4624L46.4377 80.0441" stroke="#E7EBF2" stroke-width="2" stroke-miterlimit="10" stroke-linejoin="round"/>
<path d="M36.7457 80.6687L46.4377 88.3285" stroke="#E7EBF2" stroke-width="2" stroke-miterlimit="10" stroke-linejoin="round"/>
<path d="M36.7457 89.0327L46.4377 96.6144" stroke="#E7EBF2" stroke-width="2" stroke-miterlimit="10" stroke-linejoin="round"/>
<path d="M36.7457 97.2397L46.4377 104.821" stroke="#E7EBF2" stroke-width="2" stroke-miterlimit="10" stroke-linejoin="round"/>
<path d="M36.7457 105.446L46.4377 113.106" stroke="#E7EBF2" stroke-width="2" stroke-miterlimit="10" stroke-linejoin="round"/>
<path d="M36.7457 113.732L46.4377 121.392" stroke="#E7EBF2" stroke-width="2" stroke-miterlimit="10" stroke-linejoin="round"/>
<path d="M36.7457 122.016L46.4377 129.676" stroke="#E7EBF2" stroke-width="2" stroke-miterlimit="10" stroke-linejoin="round"/>
<path d="M36.7457 130.38L46.4377 137.961" stroke="#E7EBF2" stroke-width="2" stroke-miterlimit="10" stroke-linejoin="round"/>
<path d="M32.4931 138.352H50.5347C51.6392 138.352 52.5347 139.248 52.5347 140.352V142.339H30.4931V140.352C30.4931 139.248 31.3885 138.352 32.4931 138.352Z" fill="#E7EBF2"/>
<path d="M57.85 62.7705L51.9879 68.6326C51.5971 69.0234 51.0499 69.2579 50.581 69.2579H35.8866V55.5015H58.5535V61.2854C58.3971 61.9107 58.2408 62.3797 57.85 62.7705Z" fill="#E7EBF2"/>
<path d="M44.1199 61.7461L39.2417 61.7461C38.6894 61.7461 38.2417 61.2984 38.2417 60.7461L38.2417 58.7599C38.2417 58.2076 38.6894 57.7599 39.2417 57.7599L44.1199 57.7599C44.6722 57.7599 45.1199 58.2076 45.1199 58.7599L45.1199 60.7461C45.1199 61.2984 44.6722 61.7461 44.1199 61.7461Z" fill="white"/>
<path d="M53.0113 61.7454L48.1331 61.7454C47.5808 61.7454 47.1331 61.2976 47.1331 60.7454L47.1331 58.7591C47.1331 58.2068 47.5808 57.7591 48.1331 57.7591L53.0113 57.7591C53.5636 57.7591 54.0113 58.2068 54.0113 58.7591L54.0113 60.7454C54.0113 61.2976 53.5636 61.7454 53.0113 61.7454Z" fill="white"/>
<path d="M18.8935 127.047H15.8289V152.059H18.8935V127.047Z" fill="#B9C0D0"/>
<path d="M40.6428 127.047H37.5781V152.059H40.6428V127.047Z" fill="#B9C0D0"/>
<path d="M133.177 151.169C124.872 151.366 114.986 151.169 107.967 151.07C100.948 151.268 91.0621 151.366 82.7578 151.169C90.9632 146.522 93.7313 137.921 94.2256 132.188H121.61C122.203 137.921 124.971 146.522 133.177 151.169Z" fill="url(#paint0_linear_56_11161)"/>
<path d="M159.473 60.217V131.297C159.473 133.077 158.089 134.362 156.409 134.362H59.5256C57.845 134.362 56.4609 132.978 56.4609 131.297V60.217C56.4609 58.5364 57.845 57.1523 59.5256 57.1523H156.409C158.089 57.1523 159.473 58.4375 159.473 60.217Z" fill="#E8EDF8"/>
<path d="M159.473 60.217V121.51H56.5593V60.217C56.5593 58.5364 57.9434 57.1523 59.624 57.1523H156.507C158.089 57.1523 159.473 58.4375 159.473 60.217Z" fill="#B9C0D0"/>
<path d="M155.815 60.9094H60.2173V117.952H155.716V60.9094H155.815Z" fill="white"/>
<path d="M107.967 130.408C109.387 130.408 110.538 129.257 110.538 127.837C110.538 126.418 109.387 125.267 107.967 125.267C106.548 125.267 105.397 126.418 105.397 127.837C105.397 129.257 106.548 130.408 107.967 130.408Z" fill="#B9C0D0"/>
<path d="M215.99 129.815H213.321V151.762H215.99V129.815Z" fill="#B9C0D0"/>
<path d="M235.071 129.815H232.402V151.762H235.071V129.815Z" fill="#B9C0D0"/>
<path d="M238.432 130.804H210.355V139.8H238.432V130.804Z" fill="#E8EDF8"/>
<path d="M217.177 130.804L214.211 139.8H210.85L213.717 130.804H217.177Z" fill="url(#paint1_linear_56_11161)"/>
<path d="M223.998 130.804L221.032 139.8H217.671L220.538 130.804H223.998Z" fill="url(#paint2_linear_56_11161)"/>
<path d="M230.819 130.804L227.853 139.8H224.492L227.359 130.804H230.819Z" fill="url(#paint3_linear_56_11161)"/>
<path d="M237.641 130.804L234.675 139.8H231.314L234.181 130.804H237.641Z" fill="url(#paint4_linear_56_11161)"/>
<path d="M44.4987 128.233H12.468V138.514H44.4987V128.233Z" fill="#E8EDF8"/>
<path d="M20.1792 128.233L16.8179 138.416H12.9624L16.3236 128.233H20.1792Z" fill="url(#paint5_linear_56_11161)"/>
<path d="M27.9888 128.233L24.6275 138.416H20.772L24.0344 128.233H27.9888Z" fill="url(#paint6_linear_56_11161)"/>
<path d="M35.7988 128.233L32.4376 138.416H28.582L31.8444 128.233H35.7988Z" fill="url(#paint7_linear_56_11161)"/>
<path d="M43.6089 128.233L40.2476 138.416H36.3921L39.6545 128.233H43.6089Z" fill="url(#paint8_linear_56_11161)"/>
<path d="M120.522 29.571V41.632" stroke="#BBC1CF" stroke-width="2" stroke-miterlimit="10" stroke-linejoin="round"/>
<path d="M120.572 46.8714C122.51 46.8714 124.081 45.3001 124.081 43.3618C124.081 41.4236 122.51 39.8523 120.572 39.8523C118.633 39.8523 117.062 41.4236 117.062 43.3618C117.062 45.3001 118.633 46.8714 120.572 46.8714Z" fill="#B9C0D0"/>
<path d="M117.161 52.7037C117.161 54.8787 119.138 56.6582 121.511 56.065C122.796 55.7684 123.785 54.7798 124.081 53.4946C124.477 51.6163 123.389 49.8368 121.709 49.3425C121.116 49.1448 120.72 48.6505 120.72 47.9585V44.8938" stroke="#BBC1CF" stroke-width="2" stroke-miterlimit="10" stroke-linejoin="round"/>
<path d="M205.937 148.796H168.172V151.861H205.937V148.796Z" fill="url(#paint9_linear_56_11161)"/>
<path d="M203.745 142.365C203.342 141.13 202.191 140.294 200.892 140.294H173.119C171.82 140.294 170.668 141.13 170.266 142.365L168.173 148.796H205.838L203.745 142.365Z" fill="#CAD0DD"/>
<path d="M217.602 18.4985V30.0652H109.449L119.928 19.4871L217.602 18.4985Z" stroke="#BBC1CF" stroke-width="2" stroke-miterlimit="10" stroke-linejoin="round"/>
<path d="M156.21 30.0649V19.4868L144.149 30.0649V19.4868L131.989 30.0649V19.4868L119.928 30.0649V19.8823V19.4868" stroke="#BBC1CF" stroke-width="2" stroke-miterlimit="10" stroke-linejoin="round"/>
<path d="M204.652 30.065V18.696" stroke="#BBC1CF" stroke-width="2" stroke-miterlimit="10" stroke-linejoin="round"/>
<path d="M168.37 19.4868V30.0649L180.431 19.4868" stroke="#BBC1CF" stroke-width="2" stroke-miterlimit="10" stroke-linejoin="round"/>
<path d="M180.431 19.4868V30.0649" stroke="#BBC1CF" stroke-width="2" stroke-miterlimit="10" stroke-linejoin="round"/>
<path d="M193.48 135.351H180.53V7.72261L187.055 1.69214L193.48 7.72261V135.351Z" stroke="#BBC1CF" stroke-width="2" stroke-miterlimit="10" stroke-linejoin="round"/>
<path d="M180.53 8.41479H193.48" stroke="#BBC1CF" stroke-width="2" stroke-miterlimit="10"/>
<path d="M180.53 41.0383H193.48" stroke="#BBC1CF" stroke-width="2" stroke-miterlimit="10" stroke-linejoin="round"/>
<path d="M180.53 51.5171H193.48" stroke="#BBC1CF" stroke-width="2" stroke-miterlimit="10"/>
<path d="M180.53 61.8977H193.48" stroke="#BBC1CF" stroke-width="2" stroke-miterlimit="10"/>
<path d="M180.53 72.3774H193.48" stroke="#BBC1CF" stroke-width="2" stroke-miterlimit="10"/>
<path d="M180.53 82.8562H193.48" stroke="#BBC1CF" stroke-width="2" stroke-miterlimit="10"/>
<path d="M180.53 93.3352H193.48" stroke="#BBC1CF" stroke-width="2" stroke-miterlimit="10"/>
<path d="M180.53 103.716H193.48" stroke="#BBC1CF" stroke-width="2" stroke-miterlimit="10"/>
<path d="M180.53 114.195H193.48" stroke="#BBC1CF" stroke-width="2" stroke-miterlimit="10"/>
<path d="M180.53 124.674H193.48" stroke="#BBC1CF" stroke-width="2" stroke-miterlimit="10"/>
<path d="M129.517 19.3881L187.054 1.69214L214.438 18.5972" stroke="#BBC1CF" stroke-width="2" stroke-miterlimit="10" stroke-linejoin="round"/>
<path d="M180.431 30.065L193.481 18.8938" stroke="#BBC1CF" stroke-width="2" stroke-miterlimit="10" stroke-linejoin="round"/>
<path d="M193.085 30.4602L180.827 40.6428" stroke="#BBC1CF" stroke-width="2" stroke-miterlimit="10" stroke-linejoin="round"/>
<path d="M193.085 8.61255L180.727 18.4986" stroke="#BBC1CF" stroke-width="2" stroke-miterlimit="10" stroke-linejoin="round"/>
<path d="M204.257 18.8938L193.975 29.8673" stroke="#BBC1CF" stroke-width="2" stroke-miterlimit="10" stroke-linejoin="round"/>
<path d="M204.948 29.8673L217.504 18.8938" stroke="#BBC1CF" stroke-width="2" stroke-miterlimit="10" stroke-linejoin="round"/>
<path d="M167.974 19.3875L156.605 29.57" stroke="#BBC1CF" stroke-width="2" stroke-miterlimit="10" stroke-linejoin="round"/>
<path d="M192.986 41.3352L180.827 51.1224" stroke="#BBC1CF" stroke-width="2" stroke-miterlimit="10" stroke-linejoin="round"/>
<path d="M192.986 51.9133L180.827 61.5028" stroke="#BBC1CF" stroke-width="2" stroke-miterlimit="10" stroke-linejoin="round"/>
<path d="M193.085 62.2937L180.827 71.982" stroke="#BBC1CF" stroke-width="2" stroke-miterlimit="10" stroke-linejoin="round"/>
<path d="M193.085 72.8711L180.827 82.4605" stroke="#BBC1CF" stroke-width="2" stroke-miterlimit="10" stroke-linejoin="round"/>
<path d="M193.085 83.2515L180.827 92.8409" stroke="#BBC1CF" stroke-width="2" stroke-miterlimit="10" stroke-linejoin="round"/>
<path d="M193.085 93.6321L180.827 103.32" stroke="#BBC1CF" stroke-width="2" stroke-miterlimit="10" stroke-linejoin="round"/>
<path d="M193.085 104.111L180.827 113.799" stroke="#BBC1CF" stroke-width="2" stroke-miterlimit="10" stroke-linejoin="round"/>
<path d="M193.085 114.591L180.827 124.279" stroke="#BBC1CF" stroke-width="2" stroke-miterlimit="10" stroke-linejoin="round"/>
<path d="M193.085 125.168L180.827 134.757" stroke="#BBC1CF" stroke-width="2" stroke-miterlimit="10" stroke-linejoin="round"/>
<path d="M198.994 135.252H175.116C174.011 135.252 173.116 136.148 173.116 137.252V140.294H200.994V137.252C200.994 136.148 200.099 135.252 198.994 135.252Z" fill="url(#paint10_linear_56_11161)"/>
<path d="M77.4195 114.491H65.1608C64.1722 114.491 63.3813 113.7 63.3813 112.712V65.4567C63.3813 64.4681 64.1722 63.6772 65.1608 63.6772H77.4195C78.4081 63.6772 79.199 64.4681 79.199 65.4567V112.712C79.199 113.7 78.4081 114.491 77.4195 114.491Z" fill="#E8EDF8"/>
<path d="M71.2893 73.1684C72.9273 73.1684 74.2551 71.8406 74.2551 70.2026C74.2551 68.5647 72.9273 67.2368 71.2893 67.2368C69.6513 67.2368 68.3235 68.5647 68.3235 70.2026C68.3235 71.8406 69.6513 73.1684 71.2893 73.1684Z" fill="url(#paint11_linear_56_11161)"/>
<path d="M76.5289 77.5176H66.0498C65.852 77.5176 65.7532 77.4187 65.7532 77.221V76.4301C65.7532 76.2324 65.852 76.1335 66.0498 76.1335H76.4301C76.6278 76.1335 76.7267 76.2324 76.7267 76.4301V77.221C76.8255 77.4187 76.6278 77.5176 76.5289 77.5176Z" fill="url(#paint12_linear_56_11161)"/>
<path d="M76.5289 81.6699H66.0498C65.852 81.6699 65.7532 81.5711 65.7532 81.3734V80.5825C65.7532 80.3848 65.852 80.2859 66.0498 80.2859H76.4301C76.6278 80.2859 76.7267 80.3848 76.7267 80.5825V81.3734C76.8255 81.5711 76.6278 81.6699 76.5289 81.6699Z" fill="url(#paint13_linear_56_11161)"/>
<path d="M76.5289 85.8223H66.0498C65.852 85.8223 65.7532 85.7234 65.7532 85.5257V84.7348C65.7532 84.5371 65.852 84.4382 66.0498 84.4382H76.4301C76.6278 84.4382 76.7267 84.5371 76.7267 84.7348V85.5257C76.8255 85.7234 76.6278 85.8223 76.5289 85.8223Z" fill="url(#paint14_linear_56_11161)"/>
<path d="M76.5289 90.073H66.0498C65.852 90.073 65.7532 89.9742 65.7532 89.7764V88.9855C65.7532 88.7878 65.852 88.689 66.0498 88.689H76.4301C76.6278 88.689 76.7267 88.7878 76.7267 88.9855V89.7764C76.8255 89.8753 76.6278 90.073 76.5289 90.073Z" fill="url(#paint15_linear_56_11161)"/>
<path d="M76.5289 94.2254H66.0498C65.852 94.2254 65.7532 94.1265 65.7532 93.9288V93.1379C65.7532 92.9402 65.852 92.8413 66.0498 92.8413H76.4301C76.6278 92.8413 76.7267 92.9402 76.7267 93.1379V93.9288C76.8255 94.0276 76.6278 94.2254 76.5289 94.2254Z" fill="url(#paint16_linear_56_11161)"/>
<path d="M76.5289 98.377H66.0498C65.852 98.377 65.7532 98.2781 65.7532 98.0804V97.2895C65.7532 97.0918 65.852 96.9929 66.0498 96.9929H76.4301C76.6278 96.9929 76.7267 97.0918 76.7267 97.2895V98.0804C76.8255 98.2781 76.6278 98.377 76.5289 98.377Z" fill="url(#paint17_linear_56_11161)"/>
<path d="M74.6514 102.529H68.0278C67.8301 102.529 67.7312 102.43 67.7312 102.233V101.442C67.7312 101.244 67.8301 101.145 68.0278 101.145H74.6514C74.8491 101.145 74.948 101.244 74.948 101.442V102.233C74.948 102.43 74.7503 102.529 74.6514 102.529Z" fill="url(#paint18_linear_56_11161)"/>
<path d="M114.294 107.374H87.8984V108.856H114.294V107.374Z" fill="url(#paint19_linear_56_11161)"/>
<path d="M102.233 111.327H87.8984V112.81H102.233V111.327Z" fill="url(#paint20_linear_56_11161)"/>
<path d="M146.028 107.374H119.632V108.856H146.028V107.374Z" fill="url(#paint21_linear_56_11161)"/>
<path d="M133.967 111.327H119.632V112.81H133.967V111.327Z" fill="url(#paint22_linear_56_11161)"/>
<path d="M97.4304 59.1777L118.358 55.0141C119.892 54.6854 121.426 55.0141 122.631 55.7811L138.737 65.0944" stroke="#BBC1CF" stroke-width="2" stroke-miterlimit="10" stroke-linejoin="round"/>
<g filter="url(#filter0_d_56_11161)">
<path d="M138.507 109.251L85.4986 101.252C83.8551 101.033 82.7594 99.4992 82.9785 97.8557L88.3474 59.6165C88.5665 57.973 90.1004 56.8773 91.744 57.0965L144.753 65.0949C146.396 65.314 147.492 66.848 147.273 68.4915L141.904 106.731C141.685 108.265 140.151 109.47 138.507 109.251Z" fill="white"/>
</g>
<path d="M136.771 104.899L89.386 97.4985C88.0465 97.3199 87.1534 96.0697 87.332 94.7301L91.7079 63.5633C91.8865 62.2237 93.1367 61.3307 94.4763 61.5093L141.862 68.91C143.201 69.0887 144.094 70.3389 143.916 71.6785L139.54 102.845C139.361 104.096 138.111 105.078 136.771 104.899Z" fill="#EFF3FB"/>
<path d="M166.393 39.6542L173.807 47.0687C174.302 47.563 174.994 47.8596 175.587 47.8596H194.173V30.4602H165.503V37.7759C165.701 38.5667 165.899 39.1599 166.393 39.6542Z" fill="#B9C0D0"/>
<path d="M183.494 38.3579L190.194 38.3579C190.746 38.3579 191.194 37.9102 191.194 37.3579L191.194 34.316C191.194 33.7638 190.746 33.316 190.194 33.316L183.494 33.316C182.942 33.316 182.494 33.7638 182.494 34.316L182.494 37.3579C182.494 37.9102 182.942 38.3579 183.494 38.3579Z" fill="white"/>
<path d="M172.247 38.3579L178.947 38.3579C179.499 38.3579 179.947 37.9102 179.947 37.3579L179.947 34.316C179.947 33.7638 179.499 33.316 178.947 33.316L172.247 33.316C171.695 33.316 171.247 33.7638 171.247 34.316L171.247 37.3579C171.247 37.9102 171.695 38.3579 172.247 38.3579Z" fill="white"/>
<path d="M1.98901 152.059H245.559" stroke="#CDD6E1" stroke-width="3" stroke-miterlimit="10" stroke-linecap="round" stroke-linejoin="round"/>
<path d="M86.2126 151.268H72.8665L73.4596 149.785L74.8437 146.028L76.03 142.766L77.414 139.009L78.4026 136.439C78.6003 135.945 79.0946 135.549 79.5889 135.549C80.0832 135.549 80.5775 135.846 80.7753 136.439L81.7639 139.009L83.1479 142.766L84.3342 146.028L85.7183 149.785L86.2126 151.268Z" fill="#E8EDF8"/>
<path d="M83.1513 142.766H76.0376L77.3744 139.108H81.7953L83.1513 142.766Z" fill="url(#paint23_linear_56_11161)"/>
<path d="M85.7132 149.785H73.4546L74.8386 146.028H84.3292L85.7132 149.785Z" fill="url(#paint24_linear_56_11161)"/>
<path d="M86.2124 151.268H72.7674C72.372 151.268 71.9766 150.971 71.9766 150.477C71.9766 150.081 72.2731 149.686 72.7674 149.686H86.2124C86.6079 149.686 87.0033 149.983 87.0033 150.477C87.0033 150.971 86.7067 151.268 86.2124 151.268Z" fill="#E8EDF8"/>
<path d="M159.349 151.268H146.003L146.596 149.785L147.98 146.028L149.167 142.766L150.551 139.009L151.539 136.439C151.737 135.945 152.231 135.549 152.726 135.549C153.22 135.549 153.714 135.846 153.912 136.439L154.901 139.009L156.285 142.766L157.471 146.028L158.855 149.785L159.349 151.268Z" fill="#E8EDF8"/>
<path d="M156.289 142.766H149.175L150.512 139.108H154.933L156.289 142.766Z" fill="url(#paint25_linear_56_11161)"/>
<path d="M158.851 149.785H146.592L147.976 146.028H157.467L158.851 149.785Z" fill="url(#paint26_linear_56_11161)"/>
<path d="M159.349 151.268H145.904C145.509 151.268 145.113 150.971 145.113 150.477C145.113 150.081 145.41 149.686 145.904 149.686H159.349C159.745 149.686 160.14 149.983 160.14 150.477C160.14 150.971 159.843 151.268 159.349 151.268Z" fill="#E8EDF8"/>
<path d="M105.055 84.3533C106.455 84.5661 107.819 83.5617 108.032 82.162C108.245 80.7622 107.24 79.3979 105.841 79.1852C104.441 78.9725 103.077 79.9769 102.864 81.3766C102.651 82.7763 103.656 84.1406 105.055 84.3533Z" fill="#989FB0"/>
<path d="M124.867 87.3643C126.267 87.577 127.631 86.5727 127.844 85.1729C128.056 83.7732 127.052 82.4089 125.652 82.1962C124.252 81.9835 122.888 82.9878 122.675 84.3876C122.446 85.8949 123.467 87.1516 124.867 87.3643Z" fill="#989FB0"/>
<path d="M106.646 73.2052L100.496 75.4106L101.047 76.9483L107.198 74.7429L106.646 73.2052Z" fill="#989FB0"/>
<path d="M126.213 76.1372L125.23 77.4419L130.449 81.3744L131.432 80.0697L126.213 76.1372Z" fill="#989FB0"/>
<path d="M114.045 91.888C115.71 92.141 117.214 91.3338 117.403 90.0851C117.593 88.8363 116.397 87.6189 114.732 87.3659C113.067 87.1128 111.564 87.92 111.374 89.1688C111.184 90.4175 112.38 91.635 114.045 91.888Z" fill="#989FB0"/>
<path d="M72.2749 161H203.609" stroke="#CDD6E1" stroke-width="3" stroke-miterlimit="10" stroke-linecap="round" stroke-linejoin="round"/>
<path d="M29.5579 161H46.155" stroke="#CDD6E1" stroke-width="3" stroke-miterlimit="10" stroke-linecap="round" stroke-linejoin="round"/>
<defs>
<filter id="filter0_d_56_11161" x="60.9507" y="52.0686" width="108.35" height="96.208" filterUnits="userSpaceOnUse" color-interpolation-filters="sRGB">
<feFlood flood-opacity="0" result="BackgroundImageFix"/>
<feColorMatrix in="SourceAlpha" type="matrix" values="0 0 0 0 0 0 0 0 0 0 0 0 0 0 0 0 0 0 127 0" result="hardAlpha"/>
<feOffset dy="17"/>
<feGaussianBlur stdDeviation="11"/>
<feColorMatrix type="matrix" values="0 0 0 0 0.397708 0 0 0 0 0.47749 0 0 0 0 0.575 0 0 0 0.37 0"/>
<feBlend mode="normal" in2="BackgroundImageFix" result="effect1_dropShadow_56_11161"/>
<feBlend mode="normal" in="SourceGraphic" in2="effect1_dropShadow_56_11161" result="shape"/>
</filter>
<linearGradient id="paint0_linear_56_11161" x1="108.011" y1="150.697" x2="108.011" y2="133.714" gradientUnits="userSpaceOnUse">
<stop stop-color="#F5F8FF"/>
<stop offset="0.9913" stop-color="#D8E0EB"/>
</linearGradient>
<linearGradient id="paint1_linear_56_11161" x1="214.014" y1="130.804" x2="214.014" y2="139.8" gradientUnits="userSpaceOnUse">
<stop stop-color="#E3E8F0"/>
<stop offset="1" stop-color="#CCD3DE"/>
</linearGradient>
<linearGradient id="paint2_linear_56_11161" x1="220.835" y1="130.804" x2="220.835" y2="139.8" gradientUnits="userSpaceOnUse">
<stop stop-color="#E3E8F0"/>
<stop offset="1" stop-color="#CCD3DE"/>
</linearGradient>
<linearGradient id="paint3_linear_56_11161" x1="227.656" y1="130.804" x2="227.656" y2="139.8" gradientUnits="userSpaceOnUse">
<stop stop-color="#E3E8F0"/>
<stop offset="1" stop-color="#CCD3DE"/>
</linearGradient>
<linearGradient id="paint4_linear_56_11161" x1="234.477" y1="130.804" x2="234.477" y2="139.8" gradientUnits="userSpaceOnUse">
<stop stop-color="#E3E8F0"/>
<stop offset="1" stop-color="#CCD3DE"/>
</linearGradient>
<linearGradient id="paint5_linear_56_11161" x1="16.5708" y1="128.233" x2="16.5708" y2="138.416" gradientUnits="userSpaceOnUse">
<stop stop-color="#E3E8F0"/>
<stop offset="1" stop-color="#CCD3DE"/>
</linearGradient>
<linearGradient id="paint6_linear_56_11161" x1="24.3804" y1="128.233" x2="24.3804" y2="138.416" gradientUnits="userSpaceOnUse">
<stop stop-color="#E3E8F0"/>
<stop offset="1" stop-color="#CCD3DE"/>
</linearGradient>
<linearGradient id="paint7_linear_56_11161" x1="32.1904" y1="128.233" x2="32.1904" y2="138.416" gradientUnits="userSpaceOnUse">
<stop stop-color="#E3E8F0"/>
<stop offset="1" stop-color="#CCD3DE"/>
</linearGradient>
<linearGradient id="paint8_linear_56_11161" x1="40.0005" y1="128.233" x2="40.0005" y2="138.416" gradientUnits="userSpaceOnUse">
<stop stop-color="#E3E8F0"/>
<stop offset="1" stop-color="#CCD3DE"/>
</linearGradient>
<linearGradient id="paint9_linear_56_11161" x1="168.138" y1="150.271" x2="205.874" y2="150.271" gradientUnits="userSpaceOnUse">
<stop stop-color="#B0BACC"/>
<stop offset="1" stop-color="#969EAE"/>
</linearGradient>
<linearGradient id="paint10_linear_56_11161" x1="173.155" y1="137.81" x2="201.007" y2="137.81" gradientUnits="userSpaceOnUse">
<stop stop-color="#B0BACC"/>
<stop offset="1" stop-color="#969EAE"/>
</linearGradient>
<linearGradient id="paint11_linear_56_11161" x1="73.1446" y1="67.2368" x2="69.4075" y2="67.2368" gradientUnits="userSpaceOnUse">
<stop stop-color="#E3E8F0"/>
<stop offset="1" stop-color="#CCD3DE"/>
</linearGradient>
<linearGradient id="paint12_linear_56_11161" x1="74.6941" y1="76.1335" x2="67.7635" y2="76.1335" gradientUnits="userSpaceOnUse">
<stop stop-color="#E3E8F0"/>
<stop offset="1" stop-color="#CCD3DE"/>
</linearGradient>
<linearGradient id="paint13_linear_56_11161" x1="74.6941" y1="80.2859" x2="67.7635" y2="80.2859" gradientUnits="userSpaceOnUse">
<stop stop-color="#E3E8F0"/>
<stop offset="1" stop-color="#CCD3DE"/>
</linearGradient>
<linearGradient id="paint14_linear_56_11161" x1="74.6941" y1="84.4382" x2="67.7635" y2="84.4382" gradientUnits="userSpaceOnUse">
<stop stop-color="#E3E8F0"/>
<stop offset="1" stop-color="#CCD3DE"/>
</linearGradient>
<linearGradient id="paint15_linear_56_11161" x1="74.6941" y1="88.689" x2="67.7635" y2="88.689" gradientUnits="userSpaceOnUse">
<stop stop-color="#E3E8F0"/>
<stop offset="1" stop-color="#CCD3DE"/>
</linearGradient>
<linearGradient id="paint16_linear_56_11161" x1="74.6941" y1="92.8413" x2="67.7635" y2="92.8413" gradientUnits="userSpaceOnUse">
<stop stop-color="#E3E8F0"/>
<stop offset="1" stop-color="#CCD3DE"/>
</linearGradient>
<linearGradient id="paint17_linear_56_11161" x1="74.6941" y1="96.9929" x2="67.7635" y2="96.9929" gradientUnits="userSpaceOnUse">
<stop stop-color="#E3E8F0"/>
<stop offset="1" stop-color="#CCD3DE"/>
</linearGradient>
<linearGradient id="paint18_linear_56_11161" x1="73.5968" y1="101.145" x2="69.0501" y2="101.145" gradientUnits="userSpaceOnUse">
<stop stop-color="#E3E8F0"/>
<stop offset="1" stop-color="#CCD3DE"/>
</linearGradient>
<linearGradient id="paint19_linear_56_11161" x1="109.352" y1="107.374" x2="92.7222" y2="107.374" gradientUnits="userSpaceOnUse">
<stop stop-color="#E3E8F0"/>
<stop offset="1" stop-color="#CCD3DE"/>
</linearGradient>
<linearGradient id="paint20_linear_56_11161" x1="99.5494" y1="111.327" x2="90.5181" y2="111.327" gradientUnits="userSpaceOnUse">
<stop stop-color="#E3E8F0"/>
<stop offset="1" stop-color="#CCD3DE"/>
</linearGradient>
<linearGradient id="paint21_linear_56_11161" x1="141.086" y1="107.374" x2="124.456" y2="107.374" gradientUnits="userSpaceOnUse">
<stop stop-color="#E3E8F0"/>
<stop offset="1" stop-color="#CCD3DE"/>
</linearGradient>
<linearGradient id="paint22_linear_56_11161" x1="131.283" y1="111.327" x2="122.252" y2="111.327" gradientUnits="userSpaceOnUse">
<stop stop-color="#E3E8F0"/>
<stop offset="1" stop-color="#CCD3DE"/>
</linearGradient>
<linearGradient id="paint23_linear_56_11161" x1="81.8194" y1="139.108" x2="77.3376" y2="139.108" gradientUnits="userSpaceOnUse">
<stop stop-color="#E3E8F0"/>
<stop offset="1" stop-color="#CCD3DE"/>
</linearGradient>
<linearGradient id="paint24_linear_56_11161" x1="83.4181" y1="146.028" x2="75.6948" y2="146.028" gradientUnits="userSpaceOnUse">
<stop stop-color="#E3E8F0"/>
<stop offset="1" stop-color="#CCD3DE"/>
</linearGradient>
<linearGradient id="paint25_linear_56_11161" x1="154.957" y1="139.108" x2="150.475" y2="139.108" gradientUnits="userSpaceOnUse">
<stop stop-color="#E3E8F0"/>
<stop offset="1" stop-color="#CCD3DE"/>
</linearGradient>
<linearGradient id="paint26_linear_56_11161" x1="156.556" y1="146.028" x2="148.833" y2="146.028" gradientUnits="userSpaceOnUse">
<stop stop-color="#E3E8F0"/>
<stop offset="1" stop-color="#CCD3DE"/>
</linearGradient>
</defs>
</svg>
