<svg width="252" height="200" viewBox="0 0 252 200" fill="none" xmlns="http://www.w3.org/2000/svg">
<path fill-rule="evenodd" clip-rule="evenodd" d="M81.8757 133H165.109C168.986 133 172.129 129.866 172.129 126C172.129 122.134 168.986 119 165.109 119C165.109 119 159.093 115.866 159.093 112C159.093 108.134 163.055 105 167.944 105H178.146C182.023 105 185.166 101.866 185.166 98C185.166 94.134 182.023 91 178.146 91H156.084C159.961 91 163.104 87.866 163.104 84C163.104 80.134 159.961 77 156.084 77H196.197C200.074 77 203.217 73.866 203.217 70C203.217 66.134 200.074 63 196.197 63H97.9207C94.0439 63 90.901 66.134 90.901 70C90.901 73.866 94.0439 77 97.9207 77H57.8081C53.9312 77 50.7883 80.134 50.7883 84C50.7883 87.866 53.9312 91 57.8081 91H82.8785C86.7554 91 89.8982 94.134 89.8982 98C89.8982 101.866 86.7554 105 82.8785 105H42.7658C38.8889 105 35.7461 108.134 35.7461 112C35.7461 115.866 38.8889 119 42.7658 119H81.8757C77.9988 119 74.856 122.134 74.856 126C74.856 129.866 77.9988 133 81.8757 133ZM189.177 98C189.177 101.866 192.32 105 196.197 105C200.074 105 203.217 101.866 203.217 98C203.217 94.134 200.074 91 196.197 91C192.32 91 189.177 94.134 189.177 98Z" fill="#F9F7FD"/>
<path fill-rule="evenodd" clip-rule="evenodd" d="M77.1148 46C77.8071 46 78.3684 46.5596 78.3684 47.25V51.25C78.3684 51.9404 77.8071 52.5 77.1148 52.5C76.4225 52.5 75.8613 51.9404 75.8613 51.25V47.25C75.8613 46.5596 76.4225 46 77.1148 46Z" fill="#CBC0EC"/>
<path fill-rule="evenodd" clip-rule="evenodd" d="M77.1148 58C77.8071 58 78.3684 58.5596 78.3684 59.25V63.25C78.3684 63.9404 77.8071 64.5 77.1148 64.5C76.4225 64.5 75.8613 63.9404 75.8613 63.25V59.25C75.8613 58.5596 76.4225 58 77.1148 58Z" fill="#CBC0EC"/>
<path fill-rule="evenodd" clip-rule="evenodd" d="M67.8379 55.25C67.8379 54.5596 68.3991 54 69.0914 54H73.1027C73.795 54 74.3562 54.5596 74.3562 55.25C74.3562 55.9404 73.795 56.5 73.1027 56.5H69.0914C68.3991 56.5 67.8379 55.9404 67.8379 55.25Z" fill="#CBC0EC"/>
<path fill-rule="evenodd" clip-rule="evenodd" d="M79.8711 55.25C79.8711 54.5596 80.4323 54 81.1246 54H85.1359C85.8282 54 86.3894 54.5596 86.3894 55.25C86.3894 55.9404 85.8282 56.5 85.1359 56.5H81.1246C80.4323 56.5 79.8711 55.9404 79.8711 55.25Z" fill="#CBC0EC"/>
<path fill-rule="evenodd" clip-rule="evenodd" d="M116.156 62.7004C114.111 63.4653 112.114 64.3947 110.185 65.4891C107.186 67.1897 104.352 69.2885 101.757 71.7872C100.693 72.8114 99.6958 73.8782 98.7641 74.9822M95.881 78.826C95.1402 79.9424 94.4584 81.0868 93.8357 82.2549C93.3759 83.1176 92.9482 83.9932 92.5529 84.8798" fill="white"/>
<path fill-rule="evenodd" clip-rule="evenodd" d="M153.06 142.119C156.106 140.164 158.815 137.725 160.577 135.756L153.06 142.119ZM163.422 132.485C164.88 130.705 166.19 128.843 167.353 126.916C169.91 122.678 171.753 118.124 172.879 113.43C174.018 108.682 174.424 103.789 174.094 98.9327C173.806 94.6947 172.958 90.4838 171.548 86.4196C170.148 82.3876 168.196 78.4999 165.688 74.8734C164.193 72.7125 162.502 70.6443 160.613 68.6935C157.839 65.8295 154.797 63.381 151.565 61.3495C148.091 59.1667 144.399 57.4653 140.584 56.2472C135.806 54.7217 130.837 53.9542 125.867 53.9484C122 53.9439 118.132 54.4004 114.354 55.3198C110.101 56.3549 105.961 57.9766 102.063 60.1873C98.6371 62.1306 95.3977 64.5292 92.4324 67.3846C88.7061 70.973 85.6877 75.0181 83.3801 79.3473C81.1208 83.5858 79.5428 88.0965 78.6485 92.7175C77.7272 97.4784 77.5317 102.356 78.0647 107.174C78.7557 113.418 80.6705 119.562 83.8154 125.218C85.8277 128.838 88.3437 132.258 91.3648 135.377C96.1609 140.33 101.76 144.04 107.757 146.5C115.05 149.491 122.931 150.634 130.671 149.914C137.167 149.309 143.563 147.392 149.429 144.155" fill="white"/>
<path d="M152.382 141.07C151.801 141.443 151.633 142.215 152.007 142.795C152.381 143.374 153.156 143.542 153.737 143.169L152.382 141.07ZM161.511 136.587C161.971 136.073 161.926 135.284 161.411 134.825C160.895 134.366 160.103 134.41 159.643 134.925L161.511 136.587ZM167.353 126.916L166.28 126.272L167.353 126.916ZM172.879 113.43L174.097 113.72L172.879 113.43ZM174.094 98.9327L175.343 98.8484L174.094 98.9327ZM171.548 86.4196L170.365 86.8278L171.548 86.4196ZM165.688 74.8734L164.657 75.582L165.688 74.8734ZM160.613 68.6935L159.712 69.5606L160.613 68.6935ZM151.565 61.3495L152.232 60.2935L151.565 61.3495ZM140.584 56.2472L140.202 57.436L140.584 56.2472ZM125.867 53.9484L125.865 55.1966L125.867 53.9484ZM114.354 55.3198L114.651 56.5325L114.354 55.3198ZM102.063 60.1873L101.444 59.1022L102.063 60.1873ZM92.4324 67.3846L93.302 68.2826L92.4324 67.3846ZM83.3801 79.3473L82.2748 78.7613L83.3801 79.3473ZM78.6485 92.7175L77.4194 92.4809L78.6485 92.7175ZM78.0647 107.174L76.8205 107.311L78.0647 107.174ZM83.8154 125.218L84.9102 124.613L83.8154 125.218ZM91.3648 135.377L92.2652 134.51L91.3648 135.377ZM107.757 146.5L107.281 147.654L107.757 146.5ZM130.671 149.914L130.554 148.671L130.671 149.914ZM150.035 145.247C150.64 144.913 150.859 144.154 150.524 143.55C150.19 142.947 149.428 142.729 148.823 143.063L150.035 145.247ZM153.737 143.169C156.886 141.148 159.68 138.634 161.511 136.587L159.643 134.925C157.95 136.816 155.327 139.18 152.382 141.07L153.737 143.169ZM164.392 133.275C165.888 131.448 167.232 129.537 168.425 127.56L166.28 126.272C165.148 128.149 163.872 129.962 162.453 131.696L164.392 133.275ZM168.425 127.56C171.05 123.21 172.941 118.537 174.097 113.72L171.662 113.139C170.565 117.712 168.77 122.146 166.28 126.272L168.425 127.56ZM174.097 113.72C175.265 108.849 175.682 103.83 175.343 98.8484L172.845 99.0169C173.167 103.749 172.771 108.515 171.662 113.139L174.097 113.72ZM175.343 98.8484C175.048 94.5012 174.178 90.1813 172.731 86.0115L170.365 86.8278C171.739 90.7863 172.565 94.8882 172.845 99.0169L175.343 98.8484ZM172.731 86.0115C171.295 81.8744 169.291 77.8855 166.718 74.1649L164.657 75.582C167.1 79.1143 169.002 82.9007 170.365 86.8278L172.731 86.0115ZM166.718 74.1649C165.185 71.9479 163.45 69.8266 161.513 67.8265L159.712 69.5606C161.554 71.462 163.202 73.4771 164.657 75.582L166.718 74.1649ZM161.513 67.8265C158.669 64.8898 155.549 62.378 152.232 60.2935L150.897 62.4055C154.045 64.384 157.009 66.7692 159.712 69.5606L161.513 67.8265ZM152.232 60.2935C148.668 58.0538 144.88 56.3081 140.966 55.0584L140.202 57.436C143.918 58.6224 147.515 60.2795 150.897 62.4055L152.232 60.2935ZM140.966 55.0584C136.064 53.4934 130.966 52.7061 125.868 52.7001L125.865 55.1966C130.707 55.2023 135.549 55.95 140.202 57.436L140.966 55.0584ZM125.868 52.7001C121.901 52.6955 117.934 53.1638 114.057 54.1072L114.651 56.5325C118.331 55.637 122.098 55.1922 125.865 55.1966L125.868 52.7001ZM114.057 54.1072C109.693 55.1692 105.445 56.8333 101.444 59.1022L102.682 61.2723C106.478 59.1198 110.509 57.5406 114.651 56.5325L114.057 54.1072ZM101.444 59.1022C97.9278 61.0968 94.6041 63.558 91.5628 66.4867L93.302 68.2826C96.1912 65.5003 99.3463 63.1645 102.682 61.2723L101.444 59.1022ZM91.5628 66.4867C87.7408 70.1672 84.6433 74.3179 82.2748 78.7613L84.4854 79.9333C86.7321 75.7183 89.6714 71.7788 93.302 68.2826L91.5628 66.4867ZM82.2748 78.7613C79.9561 83.1113 78.3369 87.74 77.4194 92.4809L79.8776 92.9542C80.7487 88.453 82.2856 84.0602 84.4854 79.9333L82.2748 78.7613ZM77.4194 92.4809C76.4743 97.3651 76.2737 102.369 76.8205 107.311L79.3089 107.037C78.7896 102.344 78.9801 97.5917 79.8776 92.9542L77.4194 92.4809ZM76.8205 107.311C77.5293 113.716 79.4937 120.019 82.7207 125.823L84.9102 124.613C81.8473 119.104 79.982 113.121 79.3089 107.037L76.8205 107.311ZM82.7207 125.823C84.7856 129.537 87.3666 133.046 90.4644 136.244L92.2652 134.51C89.3207 131.47 86.8699 128.138 84.9102 124.613L82.7207 125.823ZM90.4644 136.244C95.3827 141.323 101.127 145.13 107.281 147.654L108.233 145.346C102.393 142.95 96.9391 139.337 92.2652 134.51L90.4644 136.244ZM107.281 147.654C114.763 150.724 122.848 151.895 130.787 151.156L130.554 148.671C123.014 149.373 115.337 148.259 108.233 145.346L107.281 147.654ZM130.787 151.156C137.451 150.536 144.015 148.57 150.035 145.247L148.823 143.063C143.112 146.215 136.882 148.082 130.554 148.671L130.787 151.156Z" fill="#AB99E0"/>
<path fill-rule="evenodd" clip-rule="evenodd" d="M92.9019 74.1786C93.8613 73.0417 94.8885 71.9435 95.9832 70.8893C98.654 68.3174 101.573 66.1558 104.662 64.4039C106.649 63.2766 108.706 62.3192 110.812 61.5314C111.46 61.2889 112.183 61.6163 112.426 62.2627C112.669 62.909 112.341 63.6296 111.693 63.8721C109.71 64.614 107.773 65.5155 105.901 66.5769C102.993 68.2262 100.243 70.2623 97.7248 72.6877C96.6923 73.6819 95.724 74.7172 94.8201 75.7884C94.3743 76.3166 93.5836 76.3844 93.0539 75.9399C92.5242 75.4954 92.4561 74.7069 92.9019 74.1786ZM91.6698 77.785C92.2471 78.1659 92.4054 78.9415 92.0233 79.5172C91.3047 80.6 90.6435 81.71 90.0395 82.8429C89.5935 83.6797 89.1787 84.5289 88.7952 85.389C88.514 86.0198 87.7731 86.3038 87.1405 86.0233C86.508 85.7429 86.2232 85.0041 86.5044 84.3733C86.9116 83.46 87.3521 82.5581 87.8258 81.6695C88.4672 80.4663 89.1695 79.2875 89.9326 78.1375C90.3147 77.5618 91.0924 77.404 91.6698 77.785Z" fill="#CBC0EC"/>
<path d="M121.669 86.7187C116.637 81.717 109.102 80.6968 103.044 83.6331L112.131 92.6659C113.108 93.6364 113.108 95.2041 112.131 96.1745L108.151 100.131C107.175 101.126 105.598 101.126 104.621 100.131L95.5343 91.0982C92.6054 97.145 93.6317 104.585 98.6634 109.587C100.879 111.782 103.684 113.297 106.742 113.95C109.801 114.603 112.984 114.367 115.911 113.27L135.838 133.077C136.446 133.687 137.169 134.17 137.966 134.5C138.763 134.83 139.618 135 140.481 135C141.345 135 142.2 134.83 142.997 134.5C143.794 134.17 144.517 133.687 145.125 133.077C145.738 132.473 146.225 131.754 146.557 130.962C146.889 130.169 147.059 129.32 147.059 128.461C147.059 127.603 146.889 126.753 146.557 125.961C146.225 125.169 145.738 124.45 145.125 123.845L125.299 104.112C127.602 98.2897 126.4 91.4217 121.669 86.7187Z" fill="#CBC0EC"/>
<path d="M96.6954 91.1408L105.267 99.8223C106.44 101.038 108.34 101.038 109.513 99.8223L113.491 95.7933C114.66 94.6098 114.66 92.6994 113.491 91.5159L104.902 82.8172C110.657 80.2898 117.615 81.3969 122.317 86.159C126.904 90.8042 128.072 97.5912 125.837 103.349L125.72 103.65L125.947 103.881L145.773 123.986L145.775 123.988C146.341 124.557 146.791 125.234 147.098 125.981C147.405 126.727 147.563 127.529 147.563 128.338C147.563 129.147 147.405 129.948 147.098 130.695C146.791 131.442 146.341 132.119 145.775 132.688L145.772 132.691C145.21 133.265 144.542 133.72 143.806 134.03C143.071 134.34 142.282 134.5 141.485 134.5C140.689 134.5 139.9 134.34 139.165 134.03C138.429 133.72 137.761 133.265 137.199 132.691L137.198 132.69L117.271 112.508L117.042 112.276L116.737 112.393C113.9 113.476 110.816 113.709 107.853 113.064C104.889 112.42 102.171 110.924 100.023 108.756C95.3229 103.996 94.2247 96.9945 96.6954 91.1408Z" stroke="#AB99E0"/>
<path fill-rule="evenodd" clip-rule="evenodd" d="M173.133 71.5C173.133 70.1193 174.255 69 175.64 69H192.864C193.991 69 194.945 69.7417 195.26 70.7624C195.576 69.7417 196.529 69 197.656 69H199.884C201.268 69 202.391 70.1193 202.391 71.5C202.391 72.8807 201.268 74 199.884 74H197.656C196.529 74 195.576 73.2583 195.26 72.2376C194.945 73.2583 193.991 74 192.864 74H175.64C174.255 74 173.133 72.8807 173.133 71.5ZM175.816 79.2773C175.816 77.8966 176.939 76.7773 178.323 76.7773H186.522C187.907 76.7773 189.029 77.8966 189.029 79.2773C189.029 80.6581 187.907 81.7773 186.522 81.7773H178.323C176.939 81.7773 175.816 80.6581 175.816 79.2773Z" fill="#CBC0EC"/>
<path fill-rule="evenodd" clip-rule="evenodd" d="M37.752 123.5C37.752 122.119 38.8744 121 40.259 121H44.4921C45.8767 121 46.9991 122.119 46.9991 123.5C46.9991 124.881 45.8767 126 44.4921 126H40.259C38.8744 126 37.752 124.881 37.752 123.5ZM47.8257 123.5C47.8257 122.119 48.9481 121 50.3327 121H67.5569C68.9415 121 70.0639 122.119 70.0639 123.5C70.0639 124.881 68.9415 126 67.5569 126H50.3327C48.9481 126 47.8257 124.881 47.8257 123.5ZM61.54 132.277C61.54 130.897 62.6624 129.777 64.047 129.777H72.2458C73.6304 129.777 74.7529 130.897 74.7529 132.277C74.7529 133.658 73.6304 134.777 72.2458 134.777H64.047C62.6624 134.777 61.54 133.658 61.54 132.277Z" fill="#CBC0EC"/>
<path d="M150.492 89C152.704 89 154.503 87.206 154.503 85C154.503 82.794 152.704 81 150.492 81C148.28 81 146.48 82.794 146.48 85C146.48 87.206 148.28 89 150.492 89ZM150.492 83C151.579 83 152.497 83.916 152.497 85C152.497 86.084 151.579 87 150.492 87C149.405 87 148.486 86.084 148.486 85C148.486 83.916 149.405 83 150.492 83Z" fill="#AB99E0"/>
<path d="M141.312 89.136L142.314 90.866C142.847 91.783 144.128 92.127 145.052 91.596L145.583 91.29C146.163 91.7451 146.802 92.1192 147.484 92.402V93C147.484 94.103 148.383 95 149.49 95H151.495C152.601 95 153.501 94.103 153.501 93V92.402C154.182 92.1192 154.822 91.7454 155.402 91.291L155.933 91.597C156.858 92.127 158.137 91.785 158.671 90.866L159.673 89.137C159.939 88.6777 160.011 88.132 159.874 87.6197C159.736 87.1075 159.4 86.6706 158.94 86.405L158.434 86.113C158.541 85.3756 158.541 84.6264 158.434 83.889L158.94 83.597C159.4 83.3312 159.736 82.8943 159.873 82.3822C160.011 81.87 159.939 81.3244 159.673 80.865L158.671 79.136C158.139 78.216 156.858 77.871 155.933 78.404L155.402 78.71C154.822 78.2549 154.182 77.8808 153.501 77.598V77C153.501 75.897 152.601 75 151.495 75H149.49C148.383 75 147.484 75.897 147.484 77V77.598C146.803 77.8808 146.163 78.2546 145.583 78.709L145.052 78.403C144.125 77.872 142.846 78.216 142.313 79.135L141.312 80.864C141.046 81.3233 140.974 81.869 141.111 82.3813C141.249 82.8935 141.584 83.3304 142.045 83.596L142.551 83.888C142.443 84.6251 142.443 85.3739 142.551 86.111L142.045 86.403C141.584 86.669 141.249 87.106 141.111 87.6184C140.974 88.1307 141.046 88.6765 141.312 89.136ZM144.647 86.378C144.534 85.9273 144.476 85.4646 144.475 85C144.475 84.538 144.534 84.074 144.646 83.622C144.699 83.4113 144.681 83.1892 144.596 82.9893C144.511 82.7893 144.363 82.6225 144.175 82.514L143.048 81.864L144.049 80.135L145.197 80.797C145.385 80.905 145.602 80.9496 145.817 80.924C146.032 80.8984 146.232 80.804 146.389 80.655C147.067 80.0116 147.885 79.5328 148.78 79.256C148.985 79.1935 149.165 79.0668 149.293 78.8947C149.42 78.7226 149.489 78.5142 149.49 78.3V77H151.495V78.3C151.495 78.5142 151.564 78.7226 151.692 78.8947C151.82 79.0668 152 79.1935 152.205 79.256C153.099 79.5332 153.917 80.0119 154.596 80.655C154.752 80.8037 154.953 80.8979 155.168 80.9235C155.383 80.9491 155.6 80.9047 155.787 80.797L156.934 80.136L157.937 81.865L156.81 82.514C156.622 82.6226 156.474 82.7895 156.389 82.9894C156.304 83.1893 156.286 83.4113 156.339 83.622C156.451 84.074 156.509 84.538 156.509 85C156.509 85.461 156.451 85.925 156.338 86.378C156.285 86.5888 156.303 86.8109 156.388 87.0108C156.473 87.2107 156.621 87.3775 156.81 87.486L157.936 88.135L156.935 89.864L155.787 89.203C155.6 89.0948 155.383 89.0501 155.168 89.0757C154.953 89.1013 154.752 89.1958 154.596 89.345C153.917 89.9884 153.099 90.4672 152.205 90.744C152 90.8065 151.82 90.9332 151.692 91.1053C151.564 91.2774 151.495 91.4858 151.495 91.7L151.497 93H149.49V91.7C149.489 91.4858 149.42 91.2774 149.293 91.1053C149.165 90.9332 148.985 90.8065 148.78 90.744C147.886 90.4668 147.068 89.9881 146.389 89.345C146.233 89.1954 146.032 89.1007 145.817 89.0753C145.602 89.0498 145.384 89.095 145.197 89.204L144.05 89.866L143.047 88.137L144.175 87.486C144.363 87.3775 144.511 87.2107 144.597 87.0108C144.682 86.8109 144.7 86.5888 144.647 86.378Z" fill="#AB99E0"/>
</svg>
