<svg width="251" height="200" viewBox="0 0 251 200" fill="none" xmlns="http://www.w3.org/2000/svg">
<path fill-rule="evenodd" clip-rule="evenodd" d="M81.5 133H164.5C168.366 133 171.5 129.866 171.5 126C171.5 122.134 168.366 119 164.5 119C164.5 119 158.5 115.866 158.5 112C158.5 108.134 162.452 105 167.326 105H177.5C181.366 105 184.5 101.866 184.5 98C184.5 94.134 181.366 91 177.5 91H155.5C159.366 91 162.5 87.866 162.5 84C162.5 80.134 159.366 77 155.5 77H195.5C199.366 77 202.5 73.866 202.5 70C202.5 66.134 199.366 63 195.5 63H97.5C93.634 63 90.5 66.134 90.5 70C90.5 73.866 93.634 77 97.5 77H57.5C53.634 77 50.5 80.134 50.5 84C50.5 87.866 53.634 91 57.5 91H82.5C86.366 91 89.5 94.134 89.5 98C89.5 101.866 86.366 105 82.5 105H42.5C38.634 105 35.5 108.134 35.5 112C35.5 115.866 38.634 119 42.5 119H81.5C77.634 119 74.5 122.134 74.5 126C74.5 129.866 77.634 133 81.5 133ZM188.5 98C188.5 101.866 191.634 105 195.5 105C199.366 105 202.5 101.866 202.5 98C202.5 94.134 199.366 91 195.5 91C191.634 91 188.5 94.134 188.5 98Z" fill="#FAFAFA"/>
<path fill-rule="evenodd" clip-rule="evenodd" d="M76.75 46C77.4404 46 78 46.5596 78 47.25V51.25C78 51.9404 77.4404 52.5 76.75 52.5C76.0596 52.5 75.5 51.9404 75.5 51.25V47.25C75.5 46.5596 76.0596 46 76.75 46Z" fill="#E0E0E0"/>
<path fill-rule="evenodd" clip-rule="evenodd" d="M76.75 58C77.4404 58 78 58.5596 78 59.25V63.25C78 63.9404 77.4404 64.5 76.75 64.5C76.0596 64.5 75.5 63.9404 75.5 63.25V59.25C75.5 58.5596 76.0596 58 76.75 58Z" fill="#E0E0E0"/>
<path fill-rule="evenodd" clip-rule="evenodd" d="M67.5 55.25C67.5 54.5596 68.0596 54 68.75 54H72.75C73.4404 54 74 54.5596 74 55.25C74 55.9404 73.4404 56.5 72.75 56.5H68.75C68.0596 56.5 67.5 55.9404 67.5 55.25Z" fill="#E0E0E0"/>
<path fill-rule="evenodd" clip-rule="evenodd" d="M79.5 55.25C79.5 54.5596 80.0596 54 80.75 54H84.75C85.4404 54 86 54.5596 86 55.25C86 55.9404 85.4404 56.5 84.75 56.5H80.75C80.0596 56.5 79.5 55.9404 79.5 55.25Z" fill="#E0E0E0"/>
<path fill-rule="evenodd" clip-rule="evenodd" d="M115.683 62.7004C113.644 63.4653 111.653 64.3947 109.729 65.4891C106.739 67.1897 103.912 69.2885 101.325 71.7872C100.264 72.8114 99.2693 73.8782 98.3403 74.9822M95.4654 78.826C94.7266 79.9424 94.0467 81.0868 93.4258 82.2549C92.9672 83.1176 92.5408 83.9932 92.1465 84.8798" fill="white"/>
<path fill-rule="evenodd" clip-rule="evenodd" d="M152.483 142.12C155.522 140.165 158.223 137.726 159.98 135.756L152.483 142.12ZM162.816 132.484C164.269 130.703 165.576 128.842 166.735 126.915C169.285 122.676 171.124 118.123 172.247 113.428C173.383 108.68 173.788 103.788 173.459 98.9309C173.172 94.6929 172.327 90.4821 170.921 86.418C169.525 82.386 167.578 78.4984 165.078 74.8721C163.587 72.7112 161.901 70.6431 160.017 68.6925C157.251 65.8286 154.218 63.3802 150.995 61.3488C147.531 59.1662 143.849 57.465 140.045 56.2471C135.281 54.7218 130.326 53.9546 125.369 53.949C121.513 53.9447 117.656 54.4014 113.889 55.321C109.648 56.3563 105.52 57.9781 101.633 60.1891C98.2158 62.1326 94.9853 64.5313 92.0283 67.3869C88.3122 70.9754 85.3022 75.0207 83.0008 79.35C80.7477 83.5885 79.1738 88.0994 78.2819 92.7204C77.3629 97.4813 77.1677 102.359 77.699 107.177C78.3877 113.421 80.2969 119.565 83.4326 125.221C85.4391 128.84 87.9478 132.26 90.9603 135.38C95.7427 140.332 101.326 144.042 107.306 146.501C114.578 149.492 122.437 150.635 130.155 149.914C136.633 149.309 143.012 147.392 148.861 144.154" fill="white"/>
<path d="M151.807 141.069C151.226 141.442 151.059 142.216 151.432 142.796C151.806 143.377 152.579 143.545 153.16 143.171L151.807 141.069ZM160.913 136.589C161.372 136.074 161.327 135.283 160.812 134.824C160.297 134.364 159.507 134.409 159.047 134.924L160.913 136.589ZM166.735 126.915L165.664 126.27L166.735 126.915ZM172.247 113.428L173.463 113.719L172.247 113.428ZM173.459 98.9309L174.706 98.8464L173.459 98.9309ZM170.921 86.418L169.739 86.8267L170.921 86.418ZM165.078 74.8721L164.049 75.5817L165.078 74.8721ZM160.017 68.6925L159.118 69.5608L160.017 68.6925ZM150.995 61.3488L151.661 60.2913L150.995 61.3488ZM140.045 56.2471L139.664 57.4376L140.045 56.2471ZM125.369 53.949L125.368 55.199L125.369 53.949ZM113.889 55.321L114.185 56.5354L113.889 55.321ZM101.633 60.1891L101.015 59.1025L101.633 60.1891ZM92.0283 67.3869L92.8966 68.286L92.0283 67.3869ZM83.0008 79.35L81.8971 78.7632L83.0008 79.35ZM78.2819 92.7204L77.0545 92.4835L78.2819 92.7204ZM77.699 107.177L76.4565 107.314L77.699 107.177ZM83.4326 125.221L84.5259 124.615L83.4326 125.221ZM90.9603 135.38L91.8595 134.511L90.9603 135.38ZM107.306 146.501L106.831 147.657L107.306 146.501ZM130.155 149.914L130.039 148.669L130.155 149.914ZM149.467 145.248C150.071 144.914 150.289 144.153 149.955 143.549C149.621 142.945 148.86 142.726 148.256 143.061L149.467 145.248ZM153.16 143.171C156.3 141.15 159.086 138.636 160.913 136.589L159.047 134.924C157.359 136.816 154.743 139.179 151.807 141.069L153.16 143.171ZM163.784 133.274C165.276 131.448 166.617 129.537 167.806 127.559L165.664 126.27C164.535 128.146 163.263 129.959 161.848 131.693L163.784 133.274ZM167.806 127.559C170.424 123.209 172.31 118.536 173.463 113.719L171.031 113.137C169.937 117.709 168.147 122.143 165.664 126.27L167.806 127.559ZM173.463 113.719C174.628 108.847 175.044 103.828 174.706 98.8464L172.212 99.0153C172.532 103.747 172.138 108.513 171.031 113.137L173.463 113.719ZM174.706 98.8464C174.412 94.4991 173.545 90.1791 172.102 86.0092L169.739 86.8267C171.109 90.785 171.933 94.8867 172.212 99.0153L174.706 98.8464ZM172.102 86.0092C170.67 81.8721 168.672 77.8831 166.107 74.1625L164.049 75.5817C166.484 79.1137 168.38 82.8999 169.739 86.8267L172.102 86.0092ZM166.107 74.1625C164.578 71.9455 162.848 69.8242 160.916 67.8241L159.118 69.5608C160.954 71.462 162.597 73.477 164.049 75.5817L166.107 74.1625ZM160.916 67.8241C158.08 64.8875 154.969 62.3758 151.661 60.2913L150.328 62.4063C153.467 64.3846 156.422 66.7696 159.118 69.5608L160.916 67.8241ZM151.661 60.2913C148.108 58.0517 144.329 56.3062 140.426 55.0566L139.664 57.4376C143.369 58.6238 146.955 60.2807 150.328 62.4063L151.661 60.2913ZM140.426 55.0566C135.538 53.4917 130.455 52.7047 125.371 52.699L125.368 55.199C130.196 55.2044 135.024 55.9519 139.664 57.4376L140.426 55.0566ZM125.371 52.699C121.415 52.6946 117.458 53.1631 113.593 54.1067L114.185 56.5354C117.855 55.6398 121.611 55.1948 125.368 55.199L125.371 52.699ZM113.593 54.1067C109.241 55.169 105.004 56.8333 101.015 59.1025L102.251 61.2756C106.035 59.1229 110.055 57.5436 114.185 56.5354L113.593 54.1067ZM101.015 59.1025C97.5076 61.0973 94.1929 63.5588 91.16 66.4877L92.8966 68.286C95.7778 65.5038 98.924 63.1678 102.251 61.2756L101.015 59.1025ZM91.16 66.4877C87.3484 70.1685 84.2592 74.3196 81.8971 78.7632L84.1045 79.9367C86.3451 75.7218 89.2761 71.7823 92.8966 68.286L91.16 66.4877ZM81.8971 78.7632C79.5846 83.1135 77.9696 87.7424 77.0545 92.4835L79.5092 92.9573C80.378 88.4563 81.9108 84.0636 84.1045 79.9367L81.8971 78.7632ZM77.0545 92.4835C76.1117 97.3679 75.9115 102.372 76.4565 107.314L78.9415 107.04C78.4239 102.347 78.6141 97.5947 79.5092 92.9573L77.0545 92.4835ZM76.4565 107.314C77.163 113.72 79.1217 120.023 82.3394 125.827L84.5259 124.615C81.4721 119.106 79.6123 113.123 78.9415 107.04L76.4565 107.314ZM82.3394 125.827C84.3984 129.541 86.9721 133.049 90.0612 136.248L91.8595 134.511C88.9235 131.471 86.4799 128.139 84.5259 124.615L82.3394 125.827ZM90.0612 136.248C94.9656 141.327 100.694 145.133 106.831 147.657L107.782 145.345C101.958 142.95 96.5198 139.337 91.8595 134.511L90.0612 136.248ZM106.831 147.657C114.292 150.726 122.354 151.898 130.272 151.158L130.039 148.669C122.52 149.371 114.865 148.259 107.782 145.345L106.831 147.657ZM130.272 151.158C136.917 150.538 143.463 148.571 149.467 145.248L148.256 143.061C142.561 146.213 136.349 148.08 130.039 148.669L130.272 151.158Z" fill="#BDBDBD"/>
<path fill-rule="evenodd" clip-rule="evenodd" d="M92.4934 74.1786C93.4501 73.0417 94.4744 71.9435 95.5661 70.8893C98.2294 68.3174 101.14 66.1558 104.22 64.4039C106.202 63.2766 108.253 62.3192 110.353 61.5314C111 61.2889 111.72 61.6163 111.963 62.2627C112.205 62.909 111.878 63.6296 111.232 63.8721C109.254 64.614 107.322 65.5155 105.456 66.5769C102.557 68.2262 99.8142 70.2623 97.3027 72.6877C96.2731 73.6819 95.3076 74.7172 94.4062 75.7884C93.9617 76.3166 93.1731 76.3844 92.6449 75.9399C92.1167 75.4954 92.0489 74.7069 92.4934 74.1786ZM91.2647 77.785C91.8404 78.1659 91.9983 78.9415 91.6173 79.5172C90.9007 80.6 90.2413 81.71 89.6391 82.8429C89.1943 83.6797 88.7807 84.5289 88.3983 85.389C88.1178 86.0198 87.379 86.3038 86.7482 86.0233C86.1174 85.7429 85.8334 85.0041 86.1139 84.3733C86.52 83.46 86.9592 82.5581 87.4316 81.6695C88.0712 80.4663 88.7715 79.2875 89.5325 78.1375C89.9134 77.5618 90.689 77.404 91.2647 77.785Z" fill="#E0E0E0"/>
<path d="M121.181 86.7187C116.163 81.717 108.649 80.6968 102.608 83.6331L111.67 92.6659C112.644 93.6364 112.644 95.2041 111.67 96.1745L107.701 100.131C106.727 101.126 105.155 101.126 104.181 100.131L95.1196 91.0982C92.1989 97.145 93.2224 104.585 98.2399 109.587C100.449 111.782 103.246 113.297 106.296 113.95C109.346 114.603 112.52 114.367 115.439 113.27L135.31 133.077C135.916 133.687 136.638 134.17 137.432 134.5C138.227 134.83 139.08 135 139.941 135C140.801 135 141.654 134.83 142.449 134.5C143.243 134.17 143.965 133.687 144.571 133.077C145.182 132.473 145.667 131.754 145.999 130.962C146.33 130.169 146.5 129.32 146.5 128.461C146.5 127.603 146.33 126.753 145.999 125.961C145.667 125.169 145.182 124.45 144.571 123.845L124.8 104.112C127.097 98.2897 125.899 91.4217 121.181 86.7187Z" fill="#E0E0E0"/>
<path d="M96.277 91.1424L104.823 99.8218C105.992 101.038 107.89 101.038 109.059 99.8218L113.026 95.7928C114.191 94.6094 114.191 92.6998 113.026 91.5164L104.461 82.8171C110.199 80.29 117.136 81.3967 121.825 86.1585C126.398 90.8037 127.563 97.5911 125.334 103.349L125.218 103.65L125.444 103.88L145.215 123.985L145.216 123.987C145.781 124.556 146.23 125.233 146.536 125.98C146.842 126.727 147 127.528 147 128.338C147 129.147 146.842 129.949 146.536 130.696C146.23 131.442 145.781 132.12 145.216 132.689L145.213 132.692C144.653 133.265 143.987 133.72 143.254 134.03C142.521 134.34 141.734 134.5 140.941 134.5C140.147 134.5 139.36 134.34 138.627 134.03C137.894 133.72 137.228 133.265 136.668 132.692L136.666 132.69L116.796 112.509L116.566 112.276L116.261 112.393C113.432 113.476 110.357 113.709 107.403 113.065C104.448 112.42 101.738 110.925 99.5961 108.757C94.9097 103.997 93.8141 96.9962 96.277 91.1424Z" stroke="#BDBDBD"/>
<path fill-rule="evenodd" clip-rule="evenodd" d="M172.5 71.5C172.5 70.1193 173.619 69 175 69H192.176C193.3 69 194.25 69.7417 194.565 70.7624C194.88 69.7417 195.831 69 196.955 69H199.176C200.556 69 201.676 70.1193 201.676 71.5C201.676 72.8807 200.556 74 199.176 74H196.955C195.831 74 194.88 73.2583 194.565 72.2376C194.25 73.2583 193.3 74 192.176 74H175C173.619 74 172.5 72.8807 172.5 71.5ZM175.176 79.2773C175.176 77.8966 176.295 76.7773 177.676 76.7773H185.852C187.232 76.7773 188.352 77.8966 188.352 79.2773C188.352 80.6581 187.232 81.7773 185.852 81.7773H177.676C176.295 81.7773 175.176 80.6581 175.176 79.2773Z" fill="#E0E0E0"/>
<path fill-rule="evenodd" clip-rule="evenodd" d="M37.5 123.5C37.5 122.119 38.6193 121 40 121H44.2212C45.6019 121 46.7212 122.119 46.7212 123.5C46.7212 124.881 45.6019 126 44.2212 126H40C38.6193 126 37.5 124.881 37.5 123.5ZM47.5454 123.5C47.5454 122.119 48.6647 121 50.0454 121H67.2212C68.6019 121 69.7212 122.119 69.7212 123.5C69.7212 124.881 68.6019 126 67.2212 126H50.0454C48.6647 126 47.5454 124.881 47.5454 123.5ZM61.2212 132.277C61.2212 130.897 62.3405 129.777 63.7212 129.777H71.897C73.2777 129.777 74.397 130.897 74.397 132.277C74.397 133.658 73.2777 134.777 71.897 134.777H63.7212C62.3405 134.777 61.2212 133.658 61.2212 132.277Z" fill="#E0E0E0"/>
<path d="M149.922 89C152.128 89 153.922 87.206 153.922 85C153.922 82.794 152.128 81 149.922 81C147.716 81 145.922 82.794 145.922 85C145.922 87.206 147.716 89 149.922 89ZM149.922 83C151.006 83 151.922 83.916 151.922 85C151.922 86.084 151.006 87 149.922 87C148.838 87 147.922 86.084 147.922 85C147.922 83.916 148.838 83 149.922 83Z" fill="#BDBDBD"/>
<path d="M140.768 89.136L141.768 90.866C142.299 91.783 143.577 92.127 144.498 91.596L145.027 91.29C145.605 91.7451 146.243 92.1192 146.923 92.402V93C146.923 94.103 147.82 95 148.923 95H150.923C152.026 95 152.923 94.103 152.923 93V92.402C153.602 92.1192 154.24 91.7454 154.819 91.291L155.348 91.597C156.271 92.127 157.546 91.785 158.079 90.866L159.078 89.137C159.343 88.6777 159.415 88.132 159.278 87.6197C159.141 87.1075 158.806 86.6706 158.347 86.405L157.842 86.113C157.949 85.3756 157.949 84.6264 157.842 83.889L158.347 83.597C158.806 83.3312 159.14 82.8943 159.277 82.3822C159.414 81.87 159.343 81.3244 159.078 80.865L158.079 79.136C157.548 78.216 156.271 77.871 155.348 78.404L154.819 78.71C154.24 78.2549 153.602 77.8808 152.923 77.598V77C152.923 75.897 152.026 75 150.923 75H148.923C147.82 75 146.923 75.897 146.923 77V77.598C146.243 77.8808 145.606 78.2546 145.027 78.709L144.498 78.403C143.574 77.872 142.298 78.216 141.767 79.135L140.768 80.864C140.503 81.3233 140.431 81.869 140.568 82.3813C140.705 82.8935 141.04 83.3304 141.499 83.596L142.004 83.888C141.896 84.6251 141.896 85.3739 142.004 86.111L141.499 86.403C141.04 86.669 140.705 87.106 140.568 87.6184C140.431 88.1307 140.503 88.6765 140.768 89.136ZM144.094 86.378C143.981 85.9273 143.923 85.4646 143.923 85C143.923 84.538 143.981 84.074 144.093 83.622C144.146 83.4113 144.128 83.1892 144.043 82.9893C143.959 82.7893 143.811 82.6225 143.623 82.514L142.5 81.864L143.498 80.135L144.643 80.797C144.83 80.905 145.046 80.9496 145.26 80.924C145.475 80.8984 145.675 80.804 145.831 80.655C146.507 80.0116 147.323 79.5328 148.215 79.256C148.42 79.1935 148.599 79.0668 148.726 78.8947C148.854 78.7226 148.923 78.5142 148.923 78.3V77H150.923V78.3C150.923 78.5142 150.992 78.7226 151.119 78.8947C151.247 79.0668 151.426 79.1935 151.631 79.256C152.522 79.5332 153.338 80.0119 154.015 80.655C154.171 80.8037 154.371 80.8979 154.585 80.9235C154.799 80.9491 155.016 80.9047 155.203 80.797L156.347 80.136L157.347 81.865L156.223 82.514C156.035 82.6226 155.887 82.7895 155.802 82.9894C155.718 83.1893 155.7 83.4113 155.753 83.622C155.865 84.074 155.923 84.538 155.923 85C155.923 85.461 155.865 85.925 155.752 86.378C155.699 86.5888 155.717 86.8109 155.802 87.0108C155.887 87.2107 156.035 87.3775 156.223 87.486L157.346 88.135L156.348 89.864L155.203 89.203C155.016 89.0948 154.799 89.0501 154.585 89.0757C154.371 89.1013 154.171 89.1958 154.015 89.345C153.338 89.9884 152.522 90.4672 151.631 90.744C151.426 90.8065 151.247 90.9332 151.119 91.1053C150.992 91.2774 150.923 91.4858 150.923 91.7L150.925 93H148.923V91.7C148.923 91.4858 148.854 91.2774 148.726 91.1053C148.599 90.9332 148.42 90.8065 148.215 90.744C147.323 90.4668 146.508 89.9881 145.831 89.345C145.675 89.1954 145.475 89.1007 145.26 89.0753C145.046 89.0498 144.829 89.095 144.643 89.204L143.499 89.866L142.499 88.137L143.623 87.486C143.811 87.3775 143.959 87.2107 144.044 87.0108C144.129 86.8109 144.146 86.5888 144.094 86.378Z" fill="#BDBDBD"/>
</svg>
