<svg width="110" height="121" viewBox="0 0 110 121" fill="none" xmlns="http://www.w3.org/2000/svg">
<path d="M54.9921 94.2759C80.4007 94.2759 101 75.2231 101 51.638C101 28.0528 80.31 9 54.9921 9C29.5835 9 8.98438 28.0528 8.98438 51.638C8.98438 75.2231 29.5835 94.2759 54.9921 94.2759Z" fill="#EAEEF9"/>
<g filter="url(#filter0_d_3262_2235)">
<path d="M86.2979 30.3203L87.0239 84.3731C87.0239 86.2197 85.3905 87.6465 83.3941 87.6465H26.4062C24.4098 87.6465 22.7764 86.1357 22.7764 84.3731V14.8766C22.7764 13.0301 24.4098 11.6032 26.4062 11.6032H67.6952L86.2979 30.3203Z" fill="url(#paint0_linear_3262_2235)"/>
</g>
<path d="M50.5448 76.8192H39.3831C38.9294 76.8192 38.5664 76.3995 38.5664 75.8959C38.5664 75.3923 38.9294 74.9727 39.3831 74.9727H50.5448C50.9985 74.9727 51.3615 75.3923 51.3615 75.8959C51.3615 76.4835 50.9985 76.8192 50.5448 76.8192Z" fill="#D5DDEA"/>
<path d="M44.1933 76.8192H32.0335C31.5798 76.8192 31.2168 76.3995 31.2168 75.8959C31.2168 75.3923 31.5798 74.9727 32.0335 74.9727H44.1933C44.6471 74.9727 45.01 75.3923 45.01 75.8959C45.01 76.4835 44.6471 76.8192 44.1933 76.8192Z" fill="#D5DDEA"/>
<path d="M59.7107 22.9329H32.3965C31.7613 22.9329 31.2168 22.4293 31.2168 21.8417C31.2168 21.2542 31.7613 20.7506 32.3965 20.7506H59.7107C60.346 20.7506 60.8904 21.2542 60.8904 21.8417C60.8904 22.4293 60.346 22.9329 59.7107 22.9329Z" fill="#D5DDEA"/>
<path d="M42.9229 28.9754H32.3965C31.7613 28.9754 31.2168 28.4718 31.2168 27.8843C31.2168 27.2968 31.7613 26.7932 32.3965 26.7932H42.8322C43.4674 26.7932 44.0119 27.2968 44.0119 27.8843C44.0119 28.4718 43.4674 28.9754 42.9229 28.9754Z" fill="#D5DDEA"/>
<path d="M67.6953 11.6032V26.5433C67.6953 28.6416 69.6917 30.3203 71.9603 30.3203H86.298" fill="#D5DDEA"/>
<path d="M78.1891 62.2942H46.7041H43.234H32.739C32.3158 62.2942 31.8926 62.6864 31.8926 63.2356C31.8926 63.7063 32.2311 64.177 32.739 64.177H43.234H46.7041H78.1891C78.6123 64.177 79.0355 63.7847 79.0355 63.2356C78.9509 62.6864 78.6123 62.2942 78.1891 62.2942Z" fill="#D5DDEA"/>
<path d="M78.1045 55.4681H66.4246H62.4466H32.739C32.3158 55.4681 31.8926 55.8603 31.8926 56.4095C31.8926 56.8802 32.2311 57.3509 32.739 57.3509H62.4466H66.4246H78.1045C78.5277 57.3509 78.9509 56.9586 78.9509 56.4095C78.8662 55.8603 78.5277 55.4681 78.1045 55.4681Z" fill="#D5DDEA"/>
<path d="M78.3584 48.5632H75.3115H72.2645H32.739C32.3158 48.5632 31.8926 48.9555 31.8926 49.5046C31.8926 49.9753 32.2311 50.446 32.739 50.446H72.2645H75.65H78.2738C78.697 50.446 79.1201 50.0538 79.1201 49.5046C79.2048 49.0339 78.7816 48.5632 78.3584 48.5632Z" fill="#D5DDEA"/>
<path d="M45.1806 77.5112H32.739C32.3158 77.5112 31.8926 77.1189 31.8926 76.5698C31.8926 76.0991 32.2311 75.6284 32.739 75.6284H45.1806C45.6038 75.6284 46.027 76.0206 46.027 76.5698C46.027 77.1974 45.6038 77.5112 45.1806 77.5112Z" fill="#E3EAF2"/>
<path d="M78.697 41.7404H68.7944H66.3399H32.739C32.3158 41.7404 31.8926 42.1327 31.8926 42.6818C31.8926 43.1525 32.2311 43.6232 32.739 43.6232H66.3399H68.7944H78.6123C79.2048 43.6232 79.5433 43.231 79.5433 42.6818C79.5433 42.2111 79.2048 41.7404 78.697 41.7404Z" fill="#D5DDEA"/>
<path d="M33.4152 81.6711H13.4408C11.2403 81.6711 9.46289 80.0237 9.46289 77.984V52.3308C9.46289 45.1919 15.726 39.465 23.3434 39.465C30.9607 39.465 37.2239 45.2703 37.2239 52.3308V78.0624C37.3085 80.0237 35.5311 81.6711 33.4152 81.6711ZM17.4188 74.3753H29.4373V52.3308C29.4373 49.2713 26.7289 46.7609 23.428 46.7609C20.1272 46.7609 17.4188 49.2713 17.4188 52.3308V74.3753Z" fill="#989FB0"/>
<path d="M41.6259 88.6506H5.48577C3.03129 88.6506 1 86.7678 1 84.4928V62.2915C1 60.0164 3.03129 58.1336 5.48577 58.1336H41.6259C44.0803 58.1336 46.1116 60.0164 46.1116 62.2915V84.4928C46.1116 86.7678 44.0803 88.6506 41.6259 88.6506Z" fill="#C2C8D6"/>
<path d="M28.0842 69.9829C28.0842 71.6303 27.0685 73.0424 25.6297 73.7485V78.2986C25.6297 79.3969 24.6987 80.2598 23.5138 80.2598C22.3288 80.2598 21.3978 79.3969 21.3978 78.2986V73.7485C19.959 73.0424 18.9434 71.6303 18.9434 69.9829C18.9434 67.6294 20.9747 65.7466 23.5138 65.7466C26.0529 65.7466 28.0842 67.6294 28.0842 69.9829Z" fill="#989FB0"/>
<defs>
<filter id="filter0_d_3262_2235" x="0.776367" y="0.60321" width="108.247" height="120.043" filterUnits="userSpaceOnUse" color-interpolation-filters="sRGB">
<feFlood flood-opacity="0" result="BackgroundImageFix"/>
<feColorMatrix in="SourceAlpha" type="matrix" values="0 0 0 0 0 0 0 0 0 0 0 0 0 0 0 0 0 0 127 0" result="hardAlpha"/>
<feOffset dy="11"/>
<feGaussianBlur stdDeviation="11"/>
<feColorMatrix type="matrix" values="0 0 0 0 0.397708 0 0 0 0 0.47749 0 0 0 0 0.575 0 0 0 0.27 0"/>
<feBlend mode="normal" in2="BackgroundImageFix" result="effect1_dropShadow_3262_2235"/>
<feBlend mode="normal" in="SourceGraphic" in2="effect1_dropShadow_3262_2235" result="shape"/>
</filter>
<linearGradient id="paint0_linear_3262_2235" x1="54.8792" y1="9.84426" x2="54.8792" y2="88.4663" gradientUnits="userSpaceOnUse">
<stop stop-color="#FDFEFF"/>
<stop offset="0.9964" stop-color="#ECF0F5"/>
</linearGradient>
</defs>
</svg>
