<svg width="251" height="200" viewBox="0 0 251 200" fill="none" xmlns="http://www.w3.org/2000/svg">
<path fill-rule="evenodd" clip-rule="evenodd" d="M56.5 127C56.5 130.866 59.634 134 63.5 134H209.5C213.366 134 216.5 130.866 216.5 127C216.5 123.134 213.366 120 209.5 120H203.5C199.634 120 196.5 116.866 196.5 113C196.5 109.134 199.634 106 203.5 106H222.5C226.366 106 229.5 102.866 229.5 99C229.5 95.134 226.366 92 222.5 92H200.5C204.366 92 207.5 88.866 207.5 85C207.5 81.134 204.366 78 200.5 78H136.5C140.366 78 143.5 74.866 143.5 71C143.5 67.134 140.366 64 136.5 64H79.5C75.634 64 72.5 67.134 72.5 71C72.5 74.866 75.634 78 79.5 78H39.5C35.634 78 32.5 81.134 32.5 85C32.5 88.866 35.634 92 39.5 92H64.5C68.366 92 71.5 95.134 71.5 99C71.5 102.866 68.366 106 64.5 106H24.5C20.634 106 17.5 109.134 17.5 113C17.5 116.866 20.634 120 24.5 120H63.5C59.634 120 56.5 123.134 56.5 127ZM226.5 134C230.366 134 233.5 130.866 233.5 127C233.5 123.134 230.366 120 226.5 120C222.634 120 219.5 123.134 219.5 127C219.5 130.866 222.634 134 226.5 134Z" fill="#FAFAFA"/>
<path fill-rule="evenodd" clip-rule="evenodd" d="M92.5 140C80.3497 140 70.5 130.374 70.5 118.5C70.5 106.626 80.3497 97 92.5 97C93.0167 97 93.5292 97.0174 94.037 97.0517C93.6842 95.0878 93.5 93.0654 93.5 91C93.5 72.2223 108.722 57 127.5 57C142.491 57 155.216 66.702 159.739 80.1695C160.81 80.0575 161.898 80 163 80C179.845 80 193.5 93.4315 193.5 110C193.5 125.741 181.175 138.727 165.5 139.978V140H109.008M104.496 140H97.5314H104.496Z" fill="white"/>
<path fill-rule="evenodd" clip-rule="evenodd" d="M127.5 58.25C109.413 58.25 94.75 72.9127 94.75 91C94.75 92.991 94.9275 94.9394 95.2673 96.8306L95.5504 98.4066L93.9529 98.2988C93.4731 98.2665 92.9886 98.25 92.5 98.25C81.0128 98.25 71.75 107.343 71.75 118.5C71.75 129.657 81.0128 138.75 92.5 138.75C93.1904 138.75 93.75 139.31 93.75 140C93.75 140.69 93.1904 141.25 92.5 141.25C79.6866 141.25 69.25 131.091 69.25 118.5C69.25 105.909 79.6866 95.75 92.5 95.75C92.5225 95.75 92.545 95.75 92.5675 95.7501C92.3581 94.196 92.25 92.6103 92.25 91C92.25 71.532 108.032 55.75 127.5 55.75C142.696 55.75 155.642 65.3642 160.595 78.8383C161.389 78.7798 162.191 78.75 163 78.75C180.515 78.75 194.75 92.7217 194.75 110C194.75 126.023 182.506 139.283 166.75 141.112V141.25H109.008C108.317 141.25 107.758 140.69 107.758 140C107.758 139.31 108.317 138.75 109.008 138.75H165.177L165.401 138.732C180.445 137.532 192.25 125.07 192.25 110C192.25 94.1412 179.174 81.25 163 81.25C161.942 81.25 160.897 81.3052 159.869 81.4127L158.872 81.5169L158.554 80.5674C154.197 67.5936 141.938 58.25 127.5 58.25ZM96.2814 140C96.2814 139.31 96.841 138.75 97.5314 138.75H104.496C105.186 138.75 105.746 139.31 105.746 140C105.746 140.69 105.186 141.25 104.496 141.25H97.5314C96.841 141.25 96.2814 140.69 96.2814 140Z" fill="#BDBDBD"/>
<path fill-rule="evenodd" clip-rule="evenodd" d="M128 116.25C125.653 116.25 123.75 118.153 123.75 120.5C123.75 122.847 125.653 124.75 128 124.75C130.347 124.75 132.25 122.847 132.25 120.5C132.25 118.153 130.347 116.25 128 116.25ZM121.25 120.5C121.25 116.772 124.272 113.75 128 113.75C131.728 113.75 134.75 116.772 134.75 120.5C134.75 124.228 131.728 127.25 128 127.25C124.272 127.25 121.25 124.228 121.25 120.5Z" fill="#BDBDBD"/>
<path fill-rule="evenodd" clip-rule="evenodd" d="M111.499 97.5293C111.912 96.9762 112.695 96.8628 113.248 97.276L120.248 102.505C120.56 102.738 120.745 103.103 120.75 103.492C120.755 103.881 120.578 104.25 120.272 104.49L113.272 109.983C112.729 110.409 111.943 110.315 111.517 109.772C111.091 109.228 111.185 108.443 111.728 108.016L117.444 103.531L111.752 99.2788C111.199 98.8657 111.085 98.0824 111.499 97.5293Z" fill="#BDBDBD"/>
<path fill-rule="evenodd" clip-rule="evenodd" d="M144.501 97.5293C144.088 96.9762 143.305 96.8628 142.752 97.276L135.752 102.505C135.44 102.738 135.255 103.103 135.25 103.492C135.245 103.881 135.422 104.25 135.728 104.49L142.728 109.983C143.271 110.409 144.057 110.315 144.483 109.772C144.909 109.228 144.815 108.443 144.272 108.016L138.556 103.531L144.248 99.2788C144.801 98.8657 144.915 98.0824 144.501 97.5293Z" fill="#BDBDBD"/>
<ellipse rx="6.72014" ry="6.64659" transform="matrix(-1 0 0 1 144.22 73.6466)" stroke="#E0E0E0" stroke-width="2.5" stroke-linecap="round"/>
<path fill-rule="evenodd" clip-rule="evenodd" d="M158.5 45C157.395 45 156.5 45.8954 156.5 47C156.5 48.1046 157.395 49 158.5 49C159.605 49 160.5 48.1046 160.5 47C160.5 45.8954 159.605 45 158.5 45ZM154.5 47C154.5 44.7909 156.291 43 158.5 43C160.709 43 162.5 44.7909 162.5 47C162.5 49.2091 160.709 51 158.5 51C156.291 51 154.5 49.2091 154.5 47Z" fill="#E0E0E0"/>
<circle cx="189.5" cy="63" r="3" fill="#E0E0E0"/>
<path fill-rule="evenodd" clip-rule="evenodd" d="M164.49 55.99C165.466 55.0137 167.049 55.0137 168.025 55.99L170.5 58.4649L172.975 55.99C173.951 55.0137 175.534 55.0137 176.51 55.99C177.487 56.9664 177.487 58.5493 176.51 59.5256L174.035 62.0005L176.383 64.3483C177.36 65.3246 177.36 66.9075 176.383 67.8838C175.407 68.8601 173.824 68.8601 172.848 67.8838L170.5 65.536L168.152 67.8838C167.176 68.8601 165.593 68.8601 164.617 67.8838C163.64 66.9075 163.64 65.3246 164.617 64.3483L166.964 62.0005L164.49 59.5256C163.513 58.5493 163.513 56.9664 164.49 55.99ZM170.5 61.4827C170.168 61.4827 169.851 61.351 169.616 61.1166C169.851 61.351 169.982 61.6689 169.982 62.0005C169.982 62.332 169.851 62.6499 169.616 62.8843C170.104 62.3962 170.896 62.3962 171.384 62.8843C170.896 62.3962 170.896 61.6047 171.384 61.1166C171.149 61.351 170.831 61.4827 170.5 61.4827Z" fill="#E0E0E0"/>
<path fill-rule="evenodd" clip-rule="evenodd" d="M70.136 73.8279C71.1124 72.8516 72.6953 72.8516 73.6716 73.8279L74.9038 75.0602L76.136 73.8279C77.1124 72.8516 78.6953 72.8516 79.6716 73.8279C80.6479 74.8042 80.6479 76.3872 79.6716 77.3635L78.4393 78.5957L79.6716 79.8279C80.6479 80.8042 80.6479 82.3872 79.6716 83.3635C78.6953 84.3398 77.1124 84.3398 76.136 83.3635L74.9038 82.1312L73.6716 83.3635C72.6953 84.3398 71.1124 84.3398 70.136 83.3635C69.1597 82.3872 69.1597 80.8042 70.136 79.8279L71.3683 78.5957L70.136 77.3635C69.1597 76.3872 69.1597 74.8042 70.136 73.8279ZM75.7877 77.7118C75.2995 78.2 74.5081 78.2 74.0199 77.7118C74.5081 78.2 74.5081 78.9914 74.0199 79.4796C74.5081 78.9914 75.2995 78.9914 75.7877 79.4796C75.2995 78.9914 75.2995 78.2 75.7877 77.7118Z" fill="#E0E0E0"/>
<circle cx="85.5" cy="66" r="3" fill="#E0E0E0"/>
</svg>
