<svg width="250" height="200" viewBox="0 0 250 200" fill="none" xmlns="http://www.w3.org/2000/svg">
<path fill-rule="evenodd" clip-rule="evenodd" d="M56 127C56 130.866 59.134 134 63 134H209C212.866 134 216 130.866 216 127C216 123.134 212.866 120 209 120H203C199.134 120 196 116.866 196 113C196 109.134 199.134 106 203 106H222C225.866 106 229 102.866 229 99C229 95.134 225.866 92 222 92H200C203.866 92 207 88.866 207 85C207 81.134 203.866 78 200 78H136C139.866 78 143 74.866 143 71C143 67.134 139.866 64 136 64H79C75.134 64 72 67.134 72 71C72 74.866 75.134 78 79 78H39C35.134 78 32 81.134 32 85C32 88.866 35.134 92 39 92H64C67.866 92 71 95.134 71 99C71 102.866 67.866 106 64 106H24C20.134 106 17 109.134 17 113C17 116.866 20.134 120 24 120H63C59.134 120 56 123.134 56 127ZM226 134C229.866 134 233 130.866 233 127C233 123.134 229.866 120 226 120C222.134 120 219 123.134 219 127C219 130.866 222.134 134 226 134Z" fill="#F9F7FD"/>
<path fill-rule="evenodd" clip-rule="evenodd" d="M92 140C79.8497 140 70 130.374 70 118.5C70 106.626 79.8497 97 92 97C92.5167 97 93.0292 97.0174 93.537 97.0517C93.1842 95.0878 93 93.0654 93 91C93 72.2223 108.222 57 127 57C141.991 57 154.716 66.702 159.239 80.1695C160.31 80.0575 161.398 80 162.5 80C179.345 80 193 93.4315 193 110C193 125.741 180.675 138.727 165 139.978V140H108.508M103.996 140H97.0314H103.996Z" fill="white"/>
<path fill-rule="evenodd" clip-rule="evenodd" d="M127 58.25C108.913 58.25 94.25 72.9127 94.25 91C94.25 92.991 94.4275 94.9394 94.7673 96.8306L95.0504 98.4066L93.4529 98.2988C92.9731 98.2665 92.4886 98.25 92 98.25C80.5128 98.25 71.25 107.343 71.25 118.5C71.25 129.657 80.5128 138.75 92 138.75C92.6904 138.75 93.25 139.31 93.25 140C93.25 140.69 92.6904 141.25 92 141.25C79.1866 141.25 68.75 131.091 68.75 118.5C68.75 105.909 79.1866 95.75 92 95.75C92.0225 95.75 92.045 95.75 92.0675 95.7501C91.8581 94.196 91.75 92.6103 91.75 91C91.75 71.532 107.532 55.75 127 55.75C142.196 55.75 155.142 65.3642 160.095 78.8383C160.889 78.7798 161.691 78.75 162.5 78.75C180.015 78.75 194.25 92.7217 194.25 110C194.25 126.023 182.006 139.283 166.25 141.112V141.25H108.508C107.817 141.25 107.258 140.69 107.258 140C107.258 139.31 107.817 138.75 108.508 138.75H164.677L164.901 138.732C179.945 137.532 191.75 125.07 191.75 110C191.75 94.1412 178.674 81.25 162.5 81.25C161.442 81.25 160.397 81.3052 159.369 81.4127L158.372 81.5169L158.054 80.5674C153.697 67.5936 141.438 58.25 127 58.25ZM95.7814 140C95.7814 139.31 96.341 138.75 97.0314 138.75H103.996C104.686 138.75 105.246 139.31 105.246 140C105.246 140.69 104.686 141.25 103.996 141.25H97.0314C96.341 141.25 95.7814 140.69 95.7814 140Z" fill="#AB99E0"/>
<path fill-rule="evenodd" clip-rule="evenodd" d="M127.5 116.25C125.153 116.25 123.25 118.153 123.25 120.5C123.25 122.847 125.153 124.75 127.5 124.75C129.847 124.75 131.75 122.847 131.75 120.5C131.75 118.153 129.847 116.25 127.5 116.25ZM120.75 120.5C120.75 116.772 123.772 113.75 127.5 113.75C131.228 113.75 134.25 116.772 134.25 120.5C134.25 124.228 131.228 127.25 127.5 127.25C123.772 127.25 120.75 124.228 120.75 120.5Z" fill="#AB99E0"/>
<path fill-rule="evenodd" clip-rule="evenodd" d="M110.999 97.5295C111.412 96.9764 112.195 96.863 112.748 97.2761L119.748 102.505C120.06 102.738 120.245 103.103 120.25 103.492C120.255 103.881 120.078 104.25 119.772 104.49L112.772 109.983C112.229 110.41 111.443 110.315 111.017 109.772C110.59 109.229 110.685 108.443 111.228 108.017L116.944 103.531L111.252 99.279C110.699 98.8658 110.585 98.0825 110.999 97.5295Z" fill="#AB99E0"/>
<path fill-rule="evenodd" clip-rule="evenodd" d="M144.001 97.5295C143.588 96.9764 142.805 96.863 142.252 97.2761L135.252 102.505C134.94 102.738 134.755 103.103 134.75 103.492C134.745 103.881 134.922 104.25 135.228 104.49L142.228 109.983C142.771 110.41 143.557 110.315 143.983 109.772C144.41 109.229 144.315 108.443 143.772 108.017L138.056 103.531L143.748 99.279C144.301 98.8658 144.415 98.0825 144.001 97.5295Z" fill="#AB99E0"/>
<ellipse rx="6.72014" ry="6.64659" transform="matrix(-1 0 0 1 143.72 73.6466)" stroke="#CBC0EC" stroke-width="2.5" stroke-linecap="round"/>
<path fill-rule="evenodd" clip-rule="evenodd" d="M158 45C156.895 45 156 45.8954 156 47C156 48.1046 156.895 49 158 49C159.105 49 160 48.1046 160 47C160 45.8954 159.105 45 158 45ZM154 47C154 44.7909 155.791 43 158 43C160.209 43 162 44.7909 162 47C162 49.2091 160.209 51 158 51C155.791 51 154 49.2091 154 47Z" fill="#CBC0EC"/>
<circle cx="189" cy="63" r="3" fill="#CBC0EC"/>
<path fill-rule="evenodd" clip-rule="evenodd" d="M163.99 55.9896C164.966 55.0133 166.549 55.0133 167.525 55.9896L170 58.4645L172.475 55.9896C173.451 55.0133 175.034 55.0133 176.01 55.9896C176.987 56.9659 176.987 58.5488 176.01 59.5251L173.535 62L175.883 64.3478C176.86 65.3241 176.86 66.907 175.883 67.8833C174.907 68.8597 173.324 68.8597 172.348 67.8833L170 65.5355L167.652 67.8833C166.676 68.8597 165.093 68.8597 164.117 67.8833C163.14 66.907 163.14 65.3241 164.117 64.3478L166.464 62L163.99 59.5251C163.013 58.5488 163.013 56.9659 163.99 55.9896ZM170 61.4822C169.668 61.4822 169.351 61.3505 169.116 61.1161C169.351 61.3505 169.482 61.6685 169.482 62C169.482 62.3315 169.351 62.6495 169.116 62.8839C169.604 62.3957 170.396 62.3957 170.884 62.8839C170.396 62.3957 170.396 61.6043 170.884 61.1161C170.649 61.3505 170.331 61.4822 170 61.4822Z" fill="#CBC0EC"/>
<path fill-rule="evenodd" clip-rule="evenodd" d="M69.636 73.8284C70.6124 72.8521 72.1953 72.8521 73.1716 73.8284L74.4038 75.0607L75.636 73.8284C76.6124 72.8521 78.1953 72.8521 79.1716 73.8284C80.1479 74.8047 80.1479 76.3876 79.1716 77.364L77.9393 78.5962L79.1716 79.8284C80.1479 80.8047 80.1479 82.3876 79.1716 83.364C78.1953 84.3403 76.6124 84.3403 75.636 83.364L74.4038 82.1317L73.1716 83.364C72.1953 84.3403 70.6124 84.3403 69.636 83.364C68.6597 82.3876 68.6597 80.8047 69.636 79.8284L70.8683 78.5962L69.636 77.364C68.6597 76.3876 68.6597 74.8047 69.636 73.8284ZM75.2877 77.7123C74.7995 78.2005 74.0081 78.2005 73.5199 77.7123C74.0081 78.2005 74.0081 78.9919 73.5199 79.4801C74.0081 78.9919 74.7995 78.9919 75.2877 79.4801C74.7995 78.9919 74.7995 78.2005 75.2877 77.7123Z" fill="#CBC0EC"/>
<circle cx="85" cy="66" r="3" fill="#CBC0EC"/>
</svg>
