<svg width="144" height="116" viewBox="0 0 144 116" fill="none" xmlns="http://www.w3.org/2000/svg">
<path d="M130.911 57.5357C130.911 78.733 119.148 97.601 102.609 107.035C102.609 107.035 102.493 107.151 102.376 107.151C100.28 108.433 97.6011 109.597 96.4364 110.18H96.3199C95.3882 110.529 89.7977 112.858 88.8659 112.858C88.7495 112.858 88.633 112.858 88.633 112.975C88.5165 112.975 88.4001 112.975 88.2836 113.091C85.8377 113.79 82.3437 114.373 81.6449 114.489C81.6449 114.838 70.9297 115.887 61.8451 113.907C60.6804 113.907 53.2264 111.927 46.7042 108.666C28.3021 99.1151 15.6069 79.7812 15.6069 57.5357C15.6069 25.7396 41.4631 0 73.2591 0C105.172 0 130.911 25.7396 130.911 57.5357Z" fill="#EAEEF9"/>
<path d="M90.7294 81.0625V112.393C90.6129 112.393 89.0988 112.975 88.9823 112.975C88.8658 112.975 88.7494 112.975 88.7494 113.091C88.6329 113.091 88.5164 113.092 88.4 113.208C85.9541 113.907 82.46 114.489 81.7612 114.606V81.0625H90.7294Z" fill="#4988FD"/>
<path d="M90.7294 81.0625V112.393C90.6129 112.393 89.0988 112.975 88.9823 112.975C88.8658 112.975 88.7494 112.975 88.7494 113.091C88.6329 113.091 88.5164 113.092 88.4 113.208C85.9541 113.907 82.46 114.489 81.7612 114.606V81.0625H90.7294Z" fill="white"/>
<path d="M98.8819 81.0625V109.132C98.2996 109.481 97.2513 109.83 96.4361 110.296H96.3196C94.8055 110.995 93.0585 111.694 90.0303 112.626V81.179H98.8819V81.0625Z" fill="#2767F4"/>
<path d="M98.8819 81.0625V109.132C98.2996 109.481 97.2513 109.83 96.4361 110.296H96.3196C94.8055 110.995 93.0585 111.694 90.0303 112.626V81.179H98.8819V81.0625Z" fill="#D5DAE8"/>
<path opacity="0.1" d="M98.8819 93.1752V107.151C97.7172 107.734 96.7855 108.2 96.7855 108.2H96.669C94.689 109.248 91.6608 110.18 90.3797 110.529C90.2632 110.529 90.1467 110.646 90.0303 110.646V107.617C91.4279 103.424 93.7573 99.1151 96.9019 95.5046C97.4843 94.6893 98.1831 93.874 98.8819 93.1752Z" fill="#062C78"/>
<path opacity="0.1" d="M98.8822 81.0625H81.7612V90.9624H98.8822V81.0625Z" fill="#062C78"/>
<path d="M135.337 45.8888V81.5283H107.501V81.6447H51.7124V17.5868H104.706C105.405 17.4703 106.103 17.4703 106.919 17.4703C107.85 17.4703 108.666 17.4703 109.597 17.5868C110.762 17.7033 111.81 17.8197 112.859 18.0527C118.333 19.2174 123.224 22.0126 126.951 25.7396C132.192 30.9807 135.337 38.0853 135.337 45.8888Z" fill="url(#paint0_linear_7247_158276)"/>
<path d="M124.622 55.6722C128.116 55.6722 131.027 52.877 131.027 49.2664C131.027 45.6559 128.116 42.8607 124.622 42.8607C121.128 42.8607 118.216 45.6559 118.216 49.2664C118.216 52.877 121.011 55.6722 124.622 55.6722Z" fill="#737C90"/>
<path d="M125.67 54.857C129.281 54.857 132.309 52.0617 132.309 48.4512C132.309 44.8407 129.397 42.0454 125.67 42.0454C122.059 42.0454 119.031 44.8407 119.031 48.4512C119.031 52.0617 121.943 54.857 125.67 54.857Z" fill="#D5DAE8"/>
<path d="M126.02 54.857C129.514 54.857 132.425 52.0617 132.425 48.4512C132.425 44.8407 129.514 42.0454 126.02 42.0454C122.525 42.0454 119.614 44.8407 119.614 48.4512C119.614 52.0617 122.409 54.857 126.02 54.857Z" fill="#F5F7FB"/>
<path d="M126.02 50.8969C127.417 50.8969 128.465 49.8487 128.465 48.4511C128.465 47.0535 127.417 46.0052 126.02 46.0052C124.622 46.0052 123.574 47.0535 123.574 48.4511C123.574 49.8487 124.622 50.8969 126.02 50.8969Z" fill="#CED7E2"/>
<path d="M79.4321 43.0936V81.6449H22.5952V43.0936C22.5952 30.9808 31.2139 20.7316 42.5114 18.1693C44.3749 17.7034 46.2384 17.5869 48.2184 17.5869H54.0418C66.8534 17.5869 77.3356 26.9044 79.3156 39.1337C79.3156 40.2984 79.4321 41.696 79.4321 43.0936Z" fill="#737C91"/>
<path opacity="0.7" d="M79.432 48.8007L79.0826 39.4832C77.1026 27.254 66.504 17.9364 53.8088 17.9364H47.9854C46.0054 17.9364 44.1419 18.1694 42.2784 18.5188L41.5796 19.1011L55.9053 78.1509L79.1991 79.4321L79.432 48.8007Z" fill="url(#paint1_linear_7247_158276)"/>
<path d="M79.3156 39.1337C77.3356 26.9044 66.737 17.5869 54.0418 17.5869H48.2184C46.2384 17.5869 44.3749 17.7034 42.5114 18.1693C31.0975 20.7316 22.5952 30.8644 22.5952 43.0936V81.6449H79.4321V43.0936C79.4321 41.696 79.3156 40.2984 79.3156 39.1337ZM77.1027 79.3155H24.9246V43.0936C24.9246 32.3785 32.4951 22.828 43.0938 20.4986C44.6079 20.1492 46.122 20.0328 48.2184 20.0328H54.0418C65.4558 20.0328 75.1227 28.1856 76.9862 39.4831C76.9862 39.949 76.9862 40.5313 76.9862 41.1137C76.9862 41.8125 76.9862 42.5113 76.9862 43.2101V79.3155H77.1027Z" fill="#C3CAD6"/>
<path d="M66.1544 103.425C64.5238 105.87 62.5438 109.83 61.3791 113.091C61.2627 113.324 61.1462 113.674 61.1462 113.907C60.3309 113.79 59.5156 113.557 58.7003 113.324C58.0015 111.694 57.5356 109.947 57.5356 109.947C58.0015 109.364 58.3509 108.899 58.8168 108.433C61.0297 105.754 63.3591 103.89 66.1544 103.425Z" fill="#C1C8D7"/>
<path d="M61.8452 114.023C61.6123 114.023 61.3793 113.907 61.1464 113.907C60.3311 113.79 59.5158 113.557 58.7006 113.324C58.1182 113.208 57.6523 112.975 57.07 112.859C56.837 112.742 56.6041 112.742 56.3712 112.626C56.1382 112.509 55.9053 112.509 55.5559 112.393C52.5277 111.461 49.616 110.18 46.8207 108.782C43.909 103.89 42.2784 97.9505 39.4832 89.6812C39.4832 89.5647 39.4832 89.5647 39.3667 89.4482C39.3667 89.4482 39.5996 89.4482 40.182 89.6812C40.5314 89.9141 41.1137 90.1471 41.8126 90.6129C43.2102 91.5447 45.4231 93.1753 48.6842 95.854C52.7606 99.2316 56.2547 104.24 58.7006 108.316C59.7488 110.18 60.6805 111.81 61.3793 113.091C61.6123 113.324 61.7287 113.674 61.8452 114.023Z" fill="#D5DAE8"/>
<path d="M57.0697 112.742C56.8368 112.626 56.6038 112.626 56.3709 112.509C56.138 112.393 55.905 112.393 55.5556 112.276C50.1981 101.561 44.1417 94.6894 40.6476 90.7294C40.2982 90.2635 39.9488 89.9141 39.5994 89.5647C39.5994 89.4483 39.5994 89.4483 39.4829 89.3318C39.4829 89.3318 39.7158 89.3318 40.2982 89.5647C40.6476 89.7977 41.2299 90.0306 41.9288 90.4965C45.5393 94.6894 51.7121 101.794 57.0697 112.742Z" fill="#EAEEF9"/>
<path d="M111.461 87.7012C111.461 87.7012 111.344 87.9341 111.111 88.4C109.714 90.9623 105.055 99.4646 102.842 106.919C102.726 106.919 102.726 107.035 102.609 107.035C102.609 107.035 102.493 107.152 102.376 107.152C100.28 108.433 97.6009 109.597 96.4362 110.18H96.3197C92.8257 111.81 89.0987 112.858 88.8657 112.858C90.6128 107.152 93.1751 102.027 96.7856 97.7175C97.4844 96.9022 98.1832 96.087 98.8821 95.3882C98.9985 95.2717 99.115 95.1552 99.2315 95.0387C102.26 92.0105 105.404 90.0306 108.433 88.7494C108.782 88.633 109.131 88.4 109.481 88.2835C109.83 88.0506 110.412 87.9341 110.995 87.7012C111.228 87.8177 111.344 87.7012 111.461 87.7012Z" fill="#D5DAE8"/>
<path d="M111.344 87.4683C111.344 87.4683 111.228 87.5848 111.111 87.9342C111.111 88.0507 110.995 88.0507 110.995 88.1671C104.938 93.5247 100.163 102.493 97.135 109.947C96.902 110.063 96.6691 110.18 96.4362 110.296H96.3197C96.0867 110.413 95.7373 110.529 95.5044 110.646C95.6209 110.413 95.7373 110.296 95.7373 110.296C97.2514 106.569 101.328 95.9706 108.432 88.866C108.665 88.633 108.898 88.4001 109.131 88.1671C109.947 87.9342 110.645 87.7013 111.344 87.4683Z" fill="#EAEEF9"/>
<path d="M79.7812 77.5685V81.6449H2.09644C0.931752 81.6449 0 80.7131 0 79.6649C0 78.5002 0.931752 77.5685 2.09644 77.5685H79.7812Z" fill="#919AAC"/>
<path d="M128 17.354L128 47.9853C128 48.9171 127.301 49.6159 126.369 49.6159C125.437 49.6159 124.738 48.9171 124.738 47.9853L124.738 17.354L128 17.354Z" fill="#CED7E2"/>
<path d="M143.606 16.3058C144.072 16.6552 143.839 17.4705 143.14 17.4705L128.116 17.4705L124.622 17.4705L124.622 4.89181L143.14 4.89182C143.723 4.89182 144.072 5.59063 143.606 6.0565L138.715 10.1329C138.016 10.7153 138.016 11.7635 138.715 12.3458L143.606 16.3058Z" fill="#EAEEF9"/>
<path d="M122.316 100.944C124.58 100.944 126.416 99.1084 126.416 96.844C126.416 94.5797 124.58 92.744 122.316 92.744C120.051 92.744 118.216 94.5797 118.216 96.844C118.216 99.1084 120.051 100.944 122.316 100.944Z" fill="#EAEEF9"/>
<path d="M9.1585 99.6419C12.0304 99.6419 14.3585 97.3137 14.3585 94.4418C14.3585 91.57 12.0304 89.2419 9.1585 89.2419C6.28662 89.2419 3.9585 91.57 3.9585 94.4418C3.9585 97.3137 6.28662 99.6419 9.1585 99.6419Z" fill="#EAEEF9"/>
<defs>
<linearGradient id="paint0_linear_7247_158276" x1="93.4913" y1="18.2226" x2="93.4913" y2="66.1241" gradientUnits="userSpaceOnUse">
<stop stop-color="#B0BACC"/>
<stop offset="1" stop-color="#969EAE"/>
</linearGradient>
<linearGradient id="paint1_linear_7247_158276" x1="77.9922" y1="47.9545" x2="53.9924" y2="49.0726" gradientUnits="userSpaceOnUse">
<stop stop-color="#42465A"/>
<stop offset="1" stop-color="#575E84" stop-opacity="0"/>
</linearGradient>
</defs>
</svg>
