<svg width="251" height="201" viewBox="0 0 251 201" fill="none" xmlns="http://www.w3.org/2000/svg">
<path fill-rule="evenodd" clip-rule="evenodd" d="M93.5 135.746H176.5C180.366 135.746 183.5 132.612 183.5 128.746C183.5 124.88 180.366 121.746 176.5 121.746C176.5 121.746 170.5 118.612 170.5 114.746C170.5 110.88 174.452 107.746 179.326 107.746H189.5C193.366 107.746 196.5 104.612 196.5 100.746C196.5 96.8801 193.366 93.7461 189.5 93.7461H167.5C171.366 93.7461 174.5 90.6121 174.5 86.7461C174.5 82.8801 171.366 79.7461 167.5 79.7461H207.5C211.366 79.7461 214.5 76.6121 214.5 72.7461C214.5 68.8801 211.366 65.7461 207.5 65.7461H109.5C105.634 65.7461 102.5 68.8801 102.5 72.7461C102.5 76.6121 105.634 79.7461 109.5 79.7461H69.5C65.634 79.7461 62.5 82.8801 62.5 86.7461C62.5 90.6121 65.634 93.7461 69.5 93.7461H94.5C98.366 93.7461 101.5 96.8801 101.5 100.746C101.5 104.612 98.366 107.746 94.5 107.746H54.5C50.634 107.746 47.5 110.88 47.5 114.746C47.5 118.612 50.634 121.746 54.5 121.746H93.5C89.634 121.746 86.5 124.88 86.5 128.746C86.5 132.612 89.634 135.746 93.5 135.746ZM200.5 100.747C200.5 104.613 203.634 107.747 207.5 107.747C211.366 107.747 214.5 104.613 214.5 100.747C214.5 96.8811 211.366 93.7471 207.5 93.7471C203.634 93.7471 200.5 96.8811 200.5 100.747Z" fill="#FAFAFA"/>
<path fill-rule="evenodd" clip-rule="evenodd" d="M118.619 114.057C118.54 114.61 118.5 115.175 118.5 115.75C118.5 122.377 123.873 127.75 130.5 127.75C137.127 127.75 142.5 122.377 142.5 115.75C142.5 115.175 142.46 114.61 142.381 114.057H171.5V140.75C171.5 142.407 170.157 143.75 168.5 143.75H92.5C90.8431 143.75 89.5 142.407 89.5 140.75V114.057H118.619Z" fill="white"/>
<path fill-rule="evenodd" clip-rule="evenodd" d="M143.5 113.746C143.5 120.926 137.68 126.746 130.5 126.746C123.32 126.746 117.5 120.926 117.5 113.746C117.5 113.513 117.506 113.282 117.518 113.053H89.5L99.0604 84.7849C99.4726 83.5663 100.616 82.7461 101.902 82.7461L159.098 82.7461C160.384 82.7461 161.527 83.5663 161.94 84.7849L171.5 113.053H143.482C143.494 113.282 143.5 113.513 143.5 113.746Z" fill="white"/>
<path fill-rule="evenodd" clip-rule="evenodd" d="M141.599 114.703C141.599 120.251 136.63 125.748 130.501 125.748C124.372 125.748 119.403 120.251 119.403 114.703C119.403 114.523 119.409 113.344 119.419 113.167H98.501L106.662 93.3235C107.014 92.3818 107.99 91.748 109.088 91.748H151.914C153.012 91.748 153.988 92.3818 154.34 93.3235L162.501 113.167H141.583C141.593 113.344 141.599 114.523 141.599 114.703Z" fill="#E0E0E0"/>
<path fill-rule="evenodd" clip-rule="evenodd" d="M159.098 85.2461H101.902C101.688 85.2461 101.497 85.3828 101.429 85.5859L92 113.464V139.746C92 140.022 92.2239 140.246 92.5 140.246H168.5C168.776 140.246 169 140.022 169 139.746V113.464L159.571 85.5859C159.503 85.3828 159.312 85.2461 159.098 85.2461ZM171.5 113.053L161.94 84.7849C161.527 83.5663 160.384 82.7461 159.098 82.7461H101.902C100.616 82.7461 99.4726 83.5663 99.0604 84.7849L89.5 113.053V139.746C89.5 141.403 90.8431 142.746 92.5 142.746H168.5C170.157 142.746 171.5 141.403 171.5 139.746V113.053Z" fill="#BDBDBD"/>
<path fill-rule="evenodd" clip-rule="evenodd" d="M93.5742 112.746C93.5742 111.365 94.6935 111.246 96.0742 111.246H98.5005C99.8812 111.246 101 111.365 101 112.746C101 114.127 99.8812 114.496 98.5005 114.496H96.0742C94.6935 114.496 93.5742 114.127 93.5742 112.746ZM101.75 112.746C101.75 111.78 102.534 110.996 103.5 110.996H116.245C117.649 110.996 118.792 111.535 119.411 112.629C119.876 113.452 119.873 114.347 119.872 114.683C119.872 114.696 119.872 114.707 119.872 114.718L119.872 114.746C119.872 120.37 124.547 124.996 130.398 124.996C136.249 124.996 140.924 120.37 140.924 114.746L140.924 114.718C140.924 114.707 140.924 114.696 140.924 114.683C140.923 114.347 140.92 113.452 141.385 112.629C142.004 111.535 143.147 110.996 144.55 110.996H169.5C170.467 110.996 171.25 111.78 171.25 112.746C171.25 113.713 170.467 114.496 169.5 114.496H144.55C144.503 114.496 144.463 114.497 144.428 114.5C144.425 114.564 144.424 114.644 144.424 114.746C144.424 122.378 138.106 128.496 130.398 128.496C122.689 128.496 116.372 122.378 116.372 114.746C116.372 114.644 116.371 114.564 116.368 114.5C116.333 114.497 116.292 114.496 116.245 114.496H103.5C102.534 114.496 101.75 113.713 101.75 112.746Z" fill="#BDBDBD"/>
<path fill-rule="evenodd" clip-rule="evenodd" d="M127.1 55.748C127.1 54.3673 128.219 53.248 129.6 53.248C130.98 53.248 132.1 54.3673 132.1 55.748V72.5039C132.1 73.8846 130.98 75.0039 129.6 75.0039C128.219 75.0039 127.1 73.8846 127.1 72.5039V55.748ZM101.837 58.1845C102.867 57.2658 104.448 57.3566 105.366 58.3873L116.466 70.8405C117.385 71.8712 117.294 73.4515 116.263 74.3702L115.431 73.437L116.263 74.3702C115.232 75.2889 113.652 75.1981 112.733 74.1673L101.634 61.7142C100.715 60.6835 100.806 59.1032 101.837 58.1845ZM153.733 58.3873C154.652 57.3566 156.232 57.2658 157.263 58.1845L156.431 59.1176L157.263 58.1845C158.294 59.1032 158.385 60.6835 157.466 61.7142L146.366 74.1673C145.448 75.198 143.867 75.2889 142.837 74.3702C141.806 73.4515 141.715 71.8712 142.634 70.8405L153.733 58.3873L154.626 59.1833L153.733 58.3873Z" fill="#E0E0E0"/>
</svg>
