<svg width="152" height="117" viewBox="0 0 152 117" fill="none" xmlns="http://www.w3.org/2000/svg">
<path d="M73.3897 105.87C101.39 105.87 124.09 83.1697 124.09 55.0697C124.09 26.9697 101.29 4.26965 73.3897 4.26965C45.3897 4.26965 22.6897 26.9697 22.6897 55.0697C22.6897 83.1697 45.3897 105.87 73.3897 105.87Z" fill="#EAEEF9"/>
<path d="M120.79 21.7697C123.054 21.7697 124.89 19.9341 124.89 17.6697C124.89 15.4053 123.054 13.5697 120.79 13.5697C118.525 13.5697 116.69 15.4053 116.69 17.6697C116.69 19.9341 118.525 21.7697 120.79 21.7697Z" fill="#EAEEF9"/>
<path d="M126.79 5.76968C128.336 5.76968 129.59 4.51608 129.59 2.96968C129.59 1.42328 128.336 0.169678 126.79 0.169678C125.243 0.169678 123.99 1.42328 123.99 2.96968C123.99 4.51608 125.243 5.76968 126.79 5.76968Z" fill="#EAEEF9"/>
<path d="M25.3898 21.6697C26.9362 21.6697 28.1898 20.4161 28.1898 18.8697C28.1898 17.3233 26.9362 16.0697 25.3898 16.0697C23.8434 16.0697 22.5898 17.3233 22.5898 18.8697C22.5898 20.4161 23.8434 21.6697 25.3898 21.6697Z" fill="#EAEEF9"/>
<path d="M13.6077 82.1978C16.4796 82.1978 18.8077 79.8697 18.8077 76.9978C18.8077 74.1259 16.4796 71.7978 13.6077 71.7978C10.7358 71.7978 8.40771 74.1259 8.40771 76.9978C8.40771 79.8697 10.7358 82.1978 13.6077 82.1978Z" fill="#EAEEF9"/>
<g filter="url(#filter0_d)">
<path d="M127.348 77.6988H111.967C111.239 77.6988 110.616 77.2311 110.408 76.6075C108.901 72.1387 105.575 71.0475 97.5212 67.8777C97.0535 67.6698 97.0015 67.0463 97.4692 66.7865C99.8076 65.6433 99.3919 64.656 99.3919 57.7968C99.2879 57.6929 99.184 57.537 99.132 57.4331C98.6124 56.6536 98.2487 55.7183 98.1447 54.783L97.6251 54.5231C96.0662 54.8869 96.1701 53.2241 95.7544 50.0023C95.5985 48.6513 95.8064 48.3915 96.378 48.1836L96.8976 47.5081C93.8318 40.6489 95.3907 36.336 98.4046 34.7771C97.4173 32.5946 97.3653 31.8152 97.3653 31.8152C97.3653 31.8152 103.757 32.9064 105.939 32.4387C108.745 31.8671 113.006 32.5427 114.617 36.2321C117.267 37.2713 118.306 38.9861 118.566 40.7529C118.93 43.6628 117.319 46.8326 117.007 48.0797C117.059 48.1317 117.059 48.1836 117.111 48.2356C117.527 48.4434 117.683 48.8072 117.527 49.9504C117.163 53.0162 117.215 54.9388 115.656 54.4712L114.253 56.9135C114.201 57.2252 114.149 57.3292 114.149 57.485C114.097 57.9527 114.097 58.8361 114.097 63.9285C114.097 64.5521 114.253 65.1236 114.565 65.5913C114.877 66.1629 115.397 66.5786 116.02 66.8384H116.072C119.709 68.3454 122.308 69.3327 124.23 70.1121C128.491 71.8269 129.219 72.2946 129.583 75.1526C129.686 76.5556 128.699 77.6988 127.348 77.6988Z" fill="white"/>
</g>
<path d="M116.902 48.027C117.058 47.2475 116.694 46.3122 116.383 45.6366C116.331 45.5327 116.279 45.4288 116.227 45.2729C115.031 42.8306 112.277 41.7914 109.679 41.6874C103.028 41.3237 102.404 42.6228 100.326 40.7001C100.949 41.6874 101.053 43.1944 100.014 45.117C99.3386 46.4681 97.9875 47.0397 96.7923 47.4554C93.7785 40.5962 95.2854 36.2833 98.2993 34.7244C97.312 32.5419 97.26 31.7625 97.26 31.7625C97.26 31.7625 103.652 32.8537 105.834 32.386C108.64 31.8144 112.901 32.4899 114.512 36.1793C117.162 37.2186 118.201 38.9334 118.461 40.7001C118.877 43.6101 117.214 46.7798 116.902 48.027Z" fill="url(#paint0_linear)"/>
<path opacity="0.1" d="M125.736 77.698C127.347 75.2038 126.723 72.8654 124.125 70.1114C128.386 71.8262 129.113 72.2938 129.477 75.1518C129.685 76.4509 128.646 77.6461 127.295 77.6461H125.736V77.698Z" fill="#9AA2B2"/>
<path d="M114.46 65.6425V66.8376H99.0267V65.2787C99.3905 64.4473 99.2865 64.4993 99.2865 57.796C99.1826 57.6921 99.0787 57.5362 99.0267 57.4323V57.0685C99.3385 57.6401 99.8062 58.1598 100.274 58.5755L105.106 61.9531C106.25 62.8884 107.86 62.9404 109.004 62.0051L113.524 57.9519C113.68 57.796 113.836 57.6921 113.992 57.5362C113.94 58.0039 113.94 58.8873 113.94 63.9797C113.992 64.5513 114.148 65.1229 114.46 65.6425Z" fill="url(#paint1_linear)"/>
<g filter="url(#filter1_d)">
<path d="M47.8429 66.1102C45.3487 66.0583 45.0889 65.5906 45.0889 65.5906V61.4335C47.739 59.2511 49.9734 56.7049 50.597 53.3792C52.2598 53.0155 53.299 51.5085 53.1432 49.8457C53.0912 49.1182 52.6235 48.4427 52.5716 47.6633C52.5716 47.2995 52.5716 46.9358 52.5716 46.572C52.5716 46.3122 52.5716 46.1044 52.5196 45.8445C52.5196 45.5847 52.4676 45.3249 52.4676 45.0651C52.3117 43.818 52 42.5189 51.1686 41.012C49.09 37.1147 44.9849 34.5165 40.3602 34.5165C39.4249 34.5165 38.4895 34.6205 37.6061 34.8283C35.9433 35.1921 34.4364 35.9195 33.0853 36.9588C32.8255 37.1667 32.5657 37.3745 32.3059 37.5824C32.2539 37.6343 32.202 37.6863 32.098 37.7383C30.6431 39.0893 29.4999 40.8041 28.8763 42.7267C28.2527 44.6494 28.0969 46.624 28.3567 48.5986C28.3567 48.6506 28.3567 48.7025 28.3567 48.7545C28.3567 48.8064 28.3567 48.8584 28.3567 48.9104C28.4086 49.2741 28.5126 49.2222 28.2527 49.5339C28.2008 49.6379 28.0969 49.7418 28.0449 49.8977C27.7331 50.4693 27.4733 51.2487 27.837 52.1841C28.4606 53.9508 29.7077 53.691 30.8509 54.6783C30.7989 54.7303 30.695 54.7822 30.6431 54.7822H30.5911L29.292 55.1979C21.4975 57.6402 20.6141 65.9024 28.6165 67.4093C28.0449 67.4613 27.5253 67.773 27.1615 68.0329C24.6153 70.0075 23.0045 73.0213 22.5887 75.9832C22.4329 76.8666 23.1603 77.698 24.0957 77.698H36.4629C36.7228 77.698 36.9826 77.4902 37.0865 77.2304C38.2297 73.0733 40.8279 71.6183 46.232 69.4359L49.3498 68.1887C49.8695 67.9809 50.4411 67.773 51.0646 67.5132C51.6362 67.3054 51.5843 66.474 50.9607 66.3181C50.3371 66.1622 49.7136 66.1102 49.09 66.0583C48.5704 66.1102 48.1547 66.1102 47.8429 66.1102ZM31.9941 60.81C31.9941 60.2903 32.3578 59.7187 33.1373 59.0952C33.4491 59.5109 33.8648 59.9786 34.3325 60.3943C34.6962 60.706 35.0599 61.0178 35.4756 61.3296C35.7355 61.4855 35.9953 61.6933 36.2551 61.9012C36.3071 61.9532 36.359 62.0051 36.411 62.0051C36.4629 62.0571 36.5669 62.109 36.6188 62.161V64.7072C36.5669 64.6552 36.5149 64.6033 36.4629 64.6033C36.2031 64.3954 35.9953 64.1876 35.7874 64.0317C35.4237 63.7719 35.0599 63.564 34.6962 63.3562C34.5403 63.2522 34.4364 63.2003 34.3325 63.0963C33.1373 62.3169 32.0461 61.5894 31.9941 60.81Z" fill="white"/>
</g>
<path d="M47.8429 66.1103C47.4272 67.6172 46.9595 68.5525 46.9595 68.5525L33.553 66.422L34.3324 63.0964C34.4364 63.2003 34.5922 63.2523 34.6962 63.3042C35.0599 63.5121 35.4756 63.7719 35.7874 64.0317C35.9953 64.1876 36.2551 64.3435 36.4629 64.6033C36.5149 64.6553 36.5668 64.7072 36.5668 64.7072V62.161C36.4629 62.1091 36.411 62.0571 36.359 62.0052C38.5415 63.0964 41.2435 63.668 45.1408 61.3816C45.0888 61.3816 45.0888 61.4336 45.0369 61.4336V65.5906C45.0369 65.5906 45.3486 66.0583 47.8429 66.1103Z" fill="url(#paint2_linear)"/>
<path d="M52.4677 45.8445C50.2333 46.624 47.843 46.9357 45.4527 46.7279C41.7113 46.4161 38.0739 44.9092 35.2679 42.4149C34.3325 45.117 31.9942 47.1436 29.344 48.3388C28.9803 48.4946 28.6166 48.6505 28.2528 48.7545C28.2528 48.7025 28.2528 48.6505 28.2528 48.6505C27.993 46.6759 28.1489 44.7013 28.7724 42.7787C29.396 40.856 30.5392 39.1413 31.9942 37.7902C32.0461 37.7382 32.0981 37.6863 32.202 37.6343C32.4618 37.4265 32.7217 37.2186 32.9815 37.0108C34.3325 36.0235 35.8914 35.296 37.5023 34.8803C38.4376 34.6724 39.321 34.5685 40.2563 34.5685C44.8811 34.5685 48.9862 37.1666 51.0647 41.0639C51.8441 42.5708 52.2079 43.8699 52.3638 45.0651C52.4677 45.3249 52.4677 45.5847 52.4677 45.8445Z" fill="url(#paint3_linear)"/>
<path d="M33.2932 59.251C33.605 59.6667 33.9687 60.0305 34.2805 60.3423C33.9168 60.0305 33.553 59.6667 33.2932 59.251Z" fill="#3973F4"/>
<path d="M38.1778 72.3978C37.1905 73.6449 35.3198 73.6969 33.7609 73.6449C35.4237 72.034 34.4884 66.7857 28.6685 67.4093H28.6165C20.6142 65.9024 21.4976 57.6402 29.2401 55.1979L30.5392 54.7822C30.6431 54.8342 30.6951 54.8862 30.747 54.9901C31.3706 56.6009 32.202 57.952 33.0854 59.0432C29.9156 61.6933 34.3325 62.5248 36.463 64.5513C38.3337 65.6426 39.8926 70.2153 38.1778 72.3978Z" fill="url(#paint4_linear)"/>
<path d="M33.2411 59.2511C33.1892 59.1991 33.1372 59.1472 33.1372 59.0952C33.1372 59.0952 33.1892 59.1991 33.2411 59.2511Z" fill="#3973F4"/>
<g filter="url(#filter2_d)">
<path d="M107.445 80.0883C107.705 82.011 106.198 83.7777 104.223 83.7777H43.3222C41.3476 83.7777 39.8407 82.011 40.1005 80.0883C40.6721 76.0872 41.5555 75.2558 47.4793 72.8654L48.9342 72.2938C51.6883 71.2026 55.2738 69.8516 60.1063 67.825C61.1976 67.3573 62.081 66.5259 62.5486 65.4347C62.8084 64.8631 62.9643 64.1876 62.9643 63.5121V54.4185C62.8084 54.2106 62.6525 54.0547 62.5486 53.8469C61.7692 52.7037 61.2495 51.3526 61.0936 49.8977L60.3142 49.5339C57.9759 50.1055 58.1837 47.6113 57.5601 42.8307C57.3003 40.8561 57.6121 40.4404 58.4955 40.1286L59.223 39.1413C54.7541 29.0084 56.9886 22.6689 61.4054 20.4345C60.0544 17.2128 59.9505 16.0696 59.9505 16.0696C59.9505 16.0696 69.3558 17.6285 72.5775 17.0049C76.6826 16.1735 83.0222 17.1608 85.3605 22.617C89.2578 24.1759 90.7647 26.6181 91.1284 29.3202C91.7 33.5812 89.2578 38.2579 88.7901 40.0766C88.842 40.1805 88.842 40.2325 88.894 40.2845C89.5176 40.5962 89.7254 41.1159 89.5176 42.8307C88.946 47.3515 89.1019 50.1575 86.7635 49.5339L84.685 53.1714C84.5811 53.5871 84.5811 53.743 84.5291 54.0547C84.4252 54.7303 84.4771 56.0813 84.4771 63.5121C84.4771 64.3954 84.7369 65.2788 85.2046 65.9543C85.7242 66.7338 86.4517 67.4093 87.3351 67.773C87.3871 67.773 87.3871 67.773 87.439 67.825C92.7913 70.0594 96.6365 71.5144 99.4426 72.6056C105.834 75.0999 106.821 75.8793 107.445 80.0883Z" fill="white"/>
</g>
<path d="M88.8421 40.0766C89.05 38.9334 88.5303 37.5304 88.1146 36.5431C88.0627 36.3872 87.9588 36.2313 87.9068 36.0235C86.0881 32.386 82.0869 30.9311 78.2416 30.7232C68.4206 30.2036 67.5372 32.0743 64.4713 29.2683C65.4067 30.7232 65.5106 32.9576 64.0556 35.7637C63.0164 37.7383 61.0418 38.6216 59.327 39.1932C54.8581 29.0604 57.0926 22.7209 61.5094 20.4865C60.0545 17.2128 59.9505 16.0696 59.9505 16.0696C59.9505 16.0696 69.3559 17.6285 72.5776 17.0049C76.6827 16.1735 83.0222 17.1608 85.3606 22.617C89.2578 24.1759 90.7648 26.6181 91.1285 29.3202C91.7521 33.5292 89.3098 38.2059 88.8421 40.0766Z" fill="url(#paint5_linear)"/>
<path opacity="0.1" d="M101.937 83.7258C104.327 80.0884 103.392 76.6588 99.5465 72.6057C105.834 75.0999 106.873 75.8793 107.445 80.0364C107.705 81.959 106.198 83.7258 104.223 83.7258H101.937Z" fill="#9AA2B2"/>
<path d="M85.2566 65.9543V67.721H62.6006V65.4347C62.8604 64.8631 63.0163 64.1875 63.0163 63.512V54.4184C62.8604 54.2106 62.7045 54.0547 62.6006 53.8468V53.3272C63.0683 54.1586 63.6918 54.9381 64.4713 55.5616L71.5902 60.5501C73.2531 61.9531 75.6434 62.0051 77.3582 60.654L84.0095 54.6783C84.2173 54.4704 84.4771 54.2625 84.685 54.0547C84.5811 54.7302 84.633 56.0813 84.633 63.512C84.5811 64.3954 84.8409 65.2268 85.2566 65.9543Z" fill="url(#paint6_linear)"/>
<path d="M91.3868 93.265C91.0642 94.6357 90.5805 96.087 90.0161 97.2965C88.4841 100.28 86.0653 102.618 83.0821 104.15C80.0182 105.682 76.3899 106.327 72.7616 105.521C64.215 103.747 58.7323 95.3614 60.5061 86.8148C62.28 78.2682 70.5847 72.7048 79.1313 74.5593C82.1951 75.2043 84.8559 76.7362 87.1135 78.8326C90.903 82.6221 92.5156 88.1048 91.3868 93.265Z" fill="url(#paint7_linear)"/>
<path d="M80.9858 88.6691H77.3575V85.0408C77.3575 84.3152 76.7931 83.6702 75.9868 83.6702C75.2612 83.6702 74.6161 84.2346 74.6161 85.0408V88.6691H70.9879C70.2622 88.6691 69.6172 89.2335 69.6172 90.0398C69.6172 90.8461 70.1816 91.4105 70.9879 91.4105H74.6161V95.0387C74.6161 95.7644 75.1805 96.4094 75.9868 96.4094C76.7125 96.4094 77.3575 95.845 77.3575 95.0387V91.4105H80.9858C81.7114 91.4105 82.3565 90.8461 82.3565 90.0398C82.3565 89.2335 81.7114 88.6691 80.9858 88.6691Z" fill="white"/>
<defs>
<filter id="filter0_d" x="73.2321" y="20.8152" width="78.358" height="89.8836" filterUnits="userSpaceOnUse" color-interpolation-filters="sRGB">
<feFlood flood-opacity="0" result="BackgroundImageFix"/>
<feColorMatrix in="SourceAlpha" type="matrix" values="0 0 0 0 0 0 0 0 0 0 0 0 0 0 0 0 0 0 127 0"/>
<feOffset dy="11"/>
<feGaussianBlur stdDeviation="11"/>
<feColorMatrix type="matrix" values="0 0 0 0 0.397708 0 0 0 0 0.47749 0 0 0 0 0.575 0 0 0 0.27 0"/>
<feBlend mode="normal" in2="BackgroundImageFix" result="effect1_dropShadow"/>
<feBlend mode="normal" in="SourceGraphic" in2="effect1_dropShadow" result="shape"/>
</filter>
<filter id="filter1_d" x="0.567627" y="23.5165" width="74.5909" height="87.1815" filterUnits="userSpaceOnUse" color-interpolation-filters="sRGB">
<feFlood flood-opacity="0" result="BackgroundImageFix"/>
<feColorMatrix in="SourceAlpha" type="matrix" values="0 0 0 0 0 0 0 0 0 0 0 0 0 0 0 0 0 0 127 0"/>
<feOffset dy="11"/>
<feGaussianBlur stdDeviation="11"/>
<feColorMatrix type="matrix" values="0 0 0 0 0.397708 0 0 0 0 0.47749 0 0 0 0 0.575 0 0 0 0.27 0"/>
<feBlend mode="normal" in2="BackgroundImageFix" result="effect1_dropShadow"/>
<feBlend mode="normal" in="SourceGraphic" in2="effect1_dropShadow" result="shape"/>
</filter>
<filter id="filter2_d" x="18.0713" y="5.06958" width="111.403" height="111.708" filterUnits="userSpaceOnUse" color-interpolation-filters="sRGB">
<feFlood flood-opacity="0" result="BackgroundImageFix"/>
<feColorMatrix in="SourceAlpha" type="matrix" values="0 0 0 0 0 0 0 0 0 0 0 0 0 0 0 0 0 0 127 0"/>
<feOffset dy="11"/>
<feGaussianBlur stdDeviation="11"/>
<feColorMatrix type="matrix" values="0 0 0 0 0.397708 0 0 0 0 0.47749 0 0 0 0 0.575 0 0 0 0.27 0"/>
<feBlend mode="normal" in2="BackgroundImageFix" result="effect1_dropShadow"/>
<feBlend mode="normal" in="SourceGraphic" in2="effect1_dropShadow" result="shape"/>
</filter>
<linearGradient id="paint0_linear" x1="95.1388" y1="39.8965" x2="118.532" y2="39.8965" gradientUnits="userSpaceOnUse">
<stop stop-color="#B0BACC"/>
<stop offset="1" stop-color="#969EAE"/>
</linearGradient>
<linearGradient id="paint1_linear" x1="106.748" y1="66.8971" x2="106.748" y2="61.5153" gradientUnits="userSpaceOnUse">
<stop stop-color="white"/>
<stop offset="1" stop-color="#E2E5EC"/>
</linearGradient>
<linearGradient id="paint2_linear" x1="40.7023" y1="68.5962" x2="40.7023" y2="64.6457" gradientUnits="userSpaceOnUse">
<stop stop-color="white"/>
<stop offset="1" stop-color="#E2E5EC"/>
</linearGradient>
<linearGradient id="paint3_linear" x1="28.1214" y1="41.663" x2="52.4721" y2="41.663" gradientUnits="userSpaceOnUse">
<stop stop-color="#B0BACC"/>
<stop offset="1" stop-color="#969EAE"/>
</linearGradient>
<linearGradient id="paint4_linear" x1="23.0032" y1="64.222" x2="38.9202" y2="64.222" gradientUnits="userSpaceOnUse">
<stop stop-color="#B0BACC"/>
<stop offset="1" stop-color="#969EAE"/>
</linearGradient>
<linearGradient id="paint5_linear" x1="56.8725" y1="28.0757" x2="91.236" y2="28.0757" gradientUnits="userSpaceOnUse">
<stop stop-color="#B0BACC"/>
<stop offset="1" stop-color="#969EAE"/>
</linearGradient>
<linearGradient id="paint6_linear" x1="73.9354" y1="67.8087" x2="73.9354" y2="59.8792" gradientUnits="userSpaceOnUse">
<stop stop-color="white"/>
<stop offset="1" stop-color="#E2E5EC"/>
</linearGradient>
<linearGradient id="paint7_linear" x1="60.1584" y1="90.0395" x2="91.7462" y2="90.0395" gradientUnits="userSpaceOnUse">
<stop stop-color="#B0BACC"/>
<stop offset="1" stop-color="#969EAE"/>
</linearGradient>
</defs>
</svg>
