<svg width="251" height="200" viewBox="0 0 251 200" fill="none" xmlns="http://www.w3.org/2000/svg">
<path fill-rule="evenodd" clip-rule="evenodd" d="M93.5 135H176.5C180.366 135 183.5 131.866 183.5 128C183.5 124.134 180.366 121 176.5 121C176.5 121 170.5 117.866 170.5 114C170.5 110.134 174.452 107 179.326 107H189.5C193.366 107 196.5 103.866 196.5 100C196.5 96.134 193.366 93 189.5 93H167.5C171.366 93 174.5 89.866 174.5 86C174.5 82.134 171.366 79 167.5 79H207.5C211.366 79 214.5 75.866 214.5 72C214.5 68.134 211.366 65 207.5 65H109.5C105.634 65 102.5 68.134 102.5 72C102.5 75.866 105.634 79 109.5 79H69.5C65.634 79 62.5 82.134 62.5 86C62.5 89.866 65.634 93 69.5 93H94.5C98.366 93 101.5 96.134 101.5 100C101.5 103.866 98.366 107 94.5 107H54.5C50.634 107 47.5 110.134 47.5 114C47.5 117.866 50.634 121 54.5 121H93.5C89.634 121 86.5 124.134 86.5 128C86.5 131.866 89.634 135 93.5 135ZM200.5 100C200.5 103.866 203.634 107 207.5 107C211.366 107 214.5 103.866 214.5 100C214.5 96.134 211.366 93 207.5 93C203.634 93 200.5 96.134 200.5 100Z" fill="#FAFAFA"/>
<path d="M154.5 99.5C154.5 118.002 139.502 133 121 133C102.498 133 87.5 118.002 87.5 99.5C87.5 80.9985 102.498 66 121 66C139.502 66 154.5 80.9985 154.5 99.5Z" fill="#FAFAFA"/>
<path fill-rule="evenodd" clip-rule="evenodd" d="M121 67.25C103.189 67.25 88.75 81.6888 88.75 99.5C88.75 117.311 103.189 131.75 121 131.75C138.811 131.75 153.25 117.311 153.25 99.5C153.25 81.6888 138.811 67.25 121 67.25ZM86.25 99.5C86.25 80.3081 101.808 64.75 121 64.75C140.192 64.75 155.75 80.3081 155.75 99.5C155.75 118.692 140.192 134.25 121 134.25C101.808 134.25 86.25 118.692 86.25 99.5Z" fill="#BDBDBD"/>
<path d="M147.5 99.5C147.5 114.136 135.636 126 121 126C106.364 126 94.5 114.136 94.5 99.5C94.5 84.8645 106.364 73 121 73C135.636 73 147.5 84.8645 147.5 99.5Z" fill="white"/>
<path fill-rule="evenodd" clip-rule="evenodd" d="M121 74.25C107.055 74.25 95.75 85.5548 95.75 99.5C95.75 113.445 107.055 124.75 121 124.75C134.945 124.75 146.25 113.445 146.25 99.5C146.25 85.5548 134.945 74.25 121 74.25ZM93.25 99.5C93.25 84.1741 105.674 71.75 121 71.75C136.326 71.75 148.75 84.1741 148.75 99.5C148.75 114.826 136.326 127.25 121 127.25C105.674 127.25 93.25 114.826 93.25 99.5Z" fill="#BDBDBD"/>
<path fill-rule="evenodd" clip-rule="evenodd" d="M105.549 122.16C105.563 122.201 105.633 122.354 105.978 122.553C106.408 122.802 107.084 122.996 107.899 122.996C108.713 122.996 109.389 122.802 109.819 122.553C110.164 122.354 110.234 122.201 110.248 122.16C110.234 122.12 110.164 121.967 109.819 121.767C109.389 121.518 108.713 121.324 107.899 121.324C107.084 121.324 106.408 121.518 105.978 121.767C105.633 121.967 105.563 122.12 105.549 122.16ZM104.725 119.603C105.599 119.097 106.724 118.824 107.899 118.824C109.073 118.824 110.198 119.097 111.072 119.603C111.914 120.091 112.75 120.95 112.75 122.16C112.75 123.37 111.914 124.229 111.072 124.717C110.198 125.223 109.073 125.496 107.899 125.496C106.724 125.496 105.599 125.223 104.725 124.717C103.884 124.229 103.047 123.37 103.047 122.16C103.047 120.95 103.884 120.091 104.725 119.603Z" fill="#BDBDBD"/>
<path fill-rule="evenodd" clip-rule="evenodd" d="M112 82.25C107.444 82.25 103.75 85.9437 103.75 90.5C103.75 95.0563 107.444 98.75 112 98.75C116.556 98.75 120.25 95.0563 120.25 90.5C120.25 85.9437 116.556 82.25 112 82.25ZM101.25 90.5C101.25 84.5629 106.063 79.75 112 79.75C117.937 79.75 122.75 84.5629 122.75 90.5C122.75 96.4371 117.937 101.25 112 101.25C106.063 101.25 101.25 96.4371 101.25 90.5Z" fill="#E0E0E0"/>
<path fill-rule="evenodd" clip-rule="evenodd" d="M153.615 132.883L147.615 126.883L149.383 125.115L155.383 131.115L153.615 132.883Z" fill="#BDBDBD"/>
<path fill-rule="evenodd" clip-rule="evenodd" d="M152.647 138.769C150.266 136.388 150.266 132.528 152.647 130.147C155.028 127.766 158.888 127.766 161.269 130.147L172.354 141.232C174.735 143.613 174.735 147.473 172.354 149.854C169.973 152.235 166.113 152.235 163.732 149.854L152.647 138.769Z" fill="#E0E0E0"/>
<path fill-rule="evenodd" clip-rule="evenodd" d="M170.586 143L159.501 131.915C158.097 130.51 155.819 130.51 154.415 131.915C153.01 133.319 153.01 135.597 154.415 137.001L165.5 148.086C166.905 149.491 169.182 149.491 170.586 148.086C171.991 146.682 171.991 144.405 170.586 143ZM152.647 130.147C150.266 132.528 150.266 136.388 152.647 138.769L163.732 149.854C166.113 152.235 169.973 152.235 172.354 149.854C174.735 147.473 174.735 143.613 172.354 141.232L161.269 130.147C158.888 127.766 155.028 127.766 152.647 130.147Z" fill="#BDBDBD"/>
<path d="M158.5 133L169.5 144" stroke="white" stroke-width="2.5" stroke-linecap="round"/>
<path fill-rule="evenodd" clip-rule="evenodd" d="M161.324 92C161.324 90.6193 162.444 89.5 163.824 89.5H181C182.124 89.5 183.075 90.2417 183.389 91.2624C183.704 90.2417 184.655 89.5 185.779 89.5H188C189.381 89.5 190.5 90.6193 190.5 92C190.5 93.3807 189.381 94.5 188 94.5H185.779C184.655 94.5 183.704 93.7583 183.389 92.7376C183.075 93.7583 182.124 94.5 181 94.5H163.824C162.444 94.5 161.324 93.3807 161.324 92ZM164 99.7773C164 98.3966 165.119 97.2773 166.5 97.2773H174.676C176.056 97.2773 177.176 98.3966 177.176 99.7773C177.176 101.158 176.056 102.277 174.676 102.277H166.5C165.119 102.277 164 101.158 164 99.7773Z" fill="#E0E0E0"/>
<path fill-rule="evenodd" clip-rule="evenodd" d="M50.2793 113C50.2793 111.619 51.3986 110.5 52.7793 110.5H57.0005C58.3812 110.5 59.5005 111.619 59.5005 113C59.5005 114.381 58.3812 115.5 57.0005 115.5H52.7793C51.3986 115.5 50.2793 114.381 50.2793 113ZM60.3247 113C60.3247 111.619 61.444 110.5 62.8247 110.5H80.0005C81.3812 110.5 82.5005 111.619 82.5005 113C82.5005 114.381 81.3812 115.5 80.0005 115.5H62.8247C61.444 115.5 60.3247 114.381 60.3247 113ZM74.0005 121.777C74.0005 120.397 75.1198 119.277 76.5005 119.277H84.6763C86.057 119.277 87.1763 120.397 87.1763 121.777C87.1763 123.158 86.057 124.277 84.6763 124.277H76.5005C75.1198 124.277 74.0005 123.158 74.0005 121.777Z" fill="#E0E0E0"/>
</svg>
