<svg width="251" height="200" viewBox="0 0 251 200" fill="none" xmlns="http://www.w3.org/2000/svg">
<path fill-rule="evenodd" clip-rule="evenodd" d="M81.5 133H164.5C168.366 133 171.5 129.866 171.5 126C171.5 122.134 168.366 119 164.5 119C164.5 119 158.5 115.866 158.5 112C158.5 108.134 162.452 105 167.326 105H177.5C181.366 105 184.5 101.866 184.5 98C184.5 94.134 181.366 91 177.5 91H155.5C159.366 91 162.5 87.866 162.5 84C162.5 80.134 159.366 77 155.5 77H195.5C199.366 77 202.5 73.866 202.5 70C202.5 66.134 199.366 63 195.5 63H97.5C93.634 63 90.5 66.134 90.5 70C90.5 73.866 93.634 77 97.5 77H57.5C53.634 77 50.5 80.134 50.5 84C50.5 87.866 53.634 91 57.5 91H82.5C86.366 91 89.5 94.134 89.5 98C89.5 101.866 86.366 105 82.5 105H42.5C38.634 105 35.5 108.134 35.5 112C35.5 115.866 38.634 119 42.5 119H81.5C77.634 119 74.5 122.134 74.5 126C74.5 129.866 77.634 133 81.5 133ZM188.5 98C188.5 101.866 191.634 105 195.5 105C199.366 105 202.5 101.866 202.5 98C202.5 94.134 199.366 91 195.5 91C191.634 91 188.5 94.134 188.5 98Z" fill="#FAFAFA"/>
<path fill-rule="evenodd" clip-rule="evenodd" d="M195.5 105C191.634 105 188.5 101.866 188.5 98C188.5 94.134 191.634 91 195.5 91C199.366 91 202.5 94.134 202.5 98C202.5 101.866 199.366 105 195.5 105Z" fill="#FAFAFA"/>
<path fill-rule="evenodd" clip-rule="evenodd" d="M69.75 139C70.4404 139 71 139.56 71 140.25V144.25C71 144.94 70.4404 145.5 69.75 145.5C69.0596 145.5 68.5 144.94 68.5 144.25V140.25C68.5 139.56 69.0596 139 69.75 139Z" fill="#E0E0E0"/>
<path fill-rule="evenodd" clip-rule="evenodd" d="M69.75 151C70.4404 151 71 151.56 71 152.25V156.25C71 156.94 70.4404 157.5 69.75 157.5C69.0596 157.5 68.5 156.94 68.5 156.25V152.25C68.5 151.56 69.0596 151 69.75 151Z" fill="#E0E0E0"/>
<path fill-rule="evenodd" clip-rule="evenodd" d="M60.5 148.25C60.5 147.56 61.0596 147 61.75 147H65.75C66.4404 147 67 147.56 67 148.25C67 148.94 66.4404 149.5 65.75 149.5H61.75C61.0596 149.5 60.5 148.94 60.5 148.25Z" fill="#E0E0E0"/>
<path fill-rule="evenodd" clip-rule="evenodd" d="M72.5 148.25C72.5 147.56 73.0596 147 73.75 147H77.75C78.4404 147 79 147.56 79 148.25C79 148.94 78.4404 149.5 77.75 149.5H73.75C73.0596 149.5 72.5 148.94 72.5 148.25Z" fill="#E0E0E0"/>
<path fill-rule="evenodd" clip-rule="evenodd" d="M168.27 151.584C171.308 149.629 174.009 147.19 175.766 145.22L168.27 151.584Z" fill="white"/>
<path fill-rule="evenodd" clip-rule="evenodd" d="M165.217 152.26C164.843 151.679 165.011 150.906 165.591 150.532C168.528 148.643 171.144 146.279 172.832 144.388C173.291 143.873 174.082 143.828 174.597 144.287C175.112 144.747 175.157 145.537 174.697 146.052C172.87 148.099 170.084 150.614 166.944 152.635C166.364 153.008 165.59 152.841 165.217 152.26Z" fill="#BDBDBD"/>
<path fill-rule="evenodd" clip-rule="evenodd" d="M77.6184 53.7177C78.5751 52.5808 79.5994 51.4826 80.6911 50.4284C83.3544 47.8565 86.2652 45.6948 89.3452 43.9429C91.327 42.8156 93.3784 41.8583 95.4784 41.0704C96.1248 40.8279 96.8453 41.1554 97.0878 41.8017C97.3303 42.4481 97.0029 43.1686 96.3565 43.4111C94.3789 44.1531 92.4473 45.0546 90.5812 46.116C87.6816 47.7653 84.9392 49.8014 82.4277 52.2267C81.3981 53.221 80.4326 54.2563 79.5312 55.3274C79.0867 55.8556 78.2981 55.9235 77.7699 55.479C77.2417 55.0345 77.1739 54.2459 77.6184 53.7177ZM76.3897 57.324C76.9654 57.705 77.1233 58.4806 76.7423 59.0563C76.0257 60.1391 75.3663 61.2491 74.7641 62.382C74.3193 63.2187 73.9057 64.068 73.5233 64.9281C73.2428 65.5589 72.504 65.8429 71.8732 65.5624C71.2424 65.2819 70.9584 64.5432 71.2389 63.9124C71.645 62.9991 72.0842 62.0972 72.5566 61.2086C73.1962 60.0054 73.8965 58.8265 74.6575 57.6766C75.0384 57.1009 75.814 56.943 76.3897 57.324Z" fill="#E0E0E0"/>
<path fill-rule="evenodd" clip-rule="evenodd" d="M167.25 42.5178C167.761 42.5178 168.221 42.829 168.411 43.3035L169.121 45.0798C169.909 47.0487 171.469 48.6089 173.438 49.3966L175.214 50.1073C175.689 50.2971 176 50.7567 176 51.2678C176 51.7789 175.689 52.2385 175.214 52.4284L173.438 53.139C171.469 53.9267 169.909 55.4869 169.121 57.4558L168.411 59.2321C168.221 59.7067 167.761 60.0178 167.25 60.0178C166.739 60.0178 166.279 59.7067 166.089 59.2321L165.379 57.4558C164.591 55.4869 163.031 53.9267 161.062 53.139L159.286 52.4284C158.811 52.2385 158.5 51.7789 158.5 51.2678C158.5 50.7567 158.811 50.2971 159.286 50.1073L161.062 49.3966C163.031 48.6089 164.591 47.0487 165.379 45.0798L166.089 43.3035C166.279 42.829 166.739 42.5178 167.25 42.5178ZM167.25 46.9821C166.286 48.8097 164.792 50.3042 162.964 51.2678C164.792 52.2315 166.286 53.726 167.25 55.5536C168.214 53.726 169.708 52.2315 171.536 51.2678C169.708 50.3042 168.214 48.8097 167.25 46.9821Z" fill="#E0E0E0"/>
<path fill-rule="evenodd" clip-rule="evenodd" d="M129.629 57.6125L85.8129 70.0848C85.0161 70.3116 84.554 71.1414 84.7808 71.9381L105.588 145.034C105.815 145.831 106.644 146.293 107.441 146.066L164.187 129.914C164.984 129.687 165.446 128.857 165.219 128.06L148.09 67.8857C147.981 67.5029 147.725 67.1792 147.377 66.9856L130.769 57.7444C130.422 57.5511 130.012 57.5036 129.629 57.6125ZM85.1284 67.6803C83.0037 68.2851 81.7715 70.4978 82.3763 72.6226L103.183 145.719C103.788 147.844 106.001 149.076 108.126 148.471L164.871 132.318C166.996 131.713 168.228 129.501 167.623 127.376L150.495 67.2013C150.204 66.1805 149.52 65.3171 148.592 64.8011L131.985 55.5599C131.058 55.0442 129.965 54.9177 128.945 55.208L85.1284 67.6803Z" fill="#BDBDBD"/>
<path fill-rule="evenodd" clip-rule="evenodd" d="M129.687 56.1968C130.351 56.0078 131.042 56.3929 131.231 57.0569L134.406 68.211C134.671 69.1405 135.639 69.6796 136.568 69.415L144.199 67.243C144.863 67.054 145.554 67.439 145.743 68.103C145.932 68.767 145.547 69.4585 144.883 69.6475L137.253 71.8195C134.995 72.4621 132.644 71.1529 132.002 68.8954L128.827 57.7413C128.638 57.0773 129.023 56.3858 129.687 56.1968Z" fill="#BDBDBD"/>
<path fill-rule="evenodd" clip-rule="evenodd" d="M122.55 96.8731C127.149 95.6409 129.892 90.9682 128.678 86.4364C127.464 81.9045 122.751 79.2296 118.153 80.4617C113.554 81.6939 110.811 86.3666 112.025 90.8984C113.239 95.4303 117.952 98.1053 122.55 96.8731ZM143.051 106.771C144.409 111.839 135.448 115.404 128.047 117.387C120.646 119.37 111.103 120.764 109.745 115.695C108.387 110.627 113.903 101.389 123.1 98.9245C132.297 96.4602 141.692 101.702 143.051 106.771Z" fill="#E0E0E0"/>
<path d="M128.809 84.6691C129.892 88.7093 127.448 92.8976 123.317 94.0044C119.187 95.1113 114.976 92.7059 113.894 88.6657C112.811 84.6255 115.255 80.4372 119.386 79.3304C123.516 78.2236 127.727 80.6289 128.809 84.6691ZM143.182 105.004C143.439 105.964 143.228 106.865 142.586 107.769C141.925 108.701 140.822 109.606 139.375 110.462C136.487 112.171 132.492 113.533 128.814 114.519C125.136 115.504 120.995 116.322 117.639 116.286C115.959 116.268 114.55 116.036 113.512 115.559C112.504 115.097 111.871 114.422 111.614 113.462C111.036 111.304 111.907 108.011 114.192 104.861C116.447 101.753 119.96 98.9647 124.333 97.7932C128.705 96.6217 133.141 97.2799 136.648 98.8442C140.203 100.429 142.604 102.846 143.182 105.004Z" stroke="#BDBDBD" stroke-width="1.79861"/>
</svg>
