<svg width="241" height="241" viewBox="0 0 241 241" fill="none" xmlns="http://www.w3.org/2000/svg">
<path d="M20.082 100.417C20.082 44.9582 65.0401 0 120.499 0C175.957 0 220.915 44.9581 220.915 100.417V240.39H20.082V100.417Z" fill="url(#paint0_linear)"/>
<mask id="mask0" mask-type="alpha" maskUnits="userSpaceOnUse" x="20" y="0" width="201" height="241">
<path d="M20.0859 100.417C20.0859 44.9581 65.044 0 120.503 0C175.961 0 220.919 44.9581 220.919 100.417V241H20.0859V100.417Z" fill="#ECE7F8"/>
</mask>
<g mask="url(#mask0)">
<path fill-rule="evenodd" clip-rule="evenodd" d="M218.608 119.174C236.696 139.308 241.227 167.889 237.31 200.628C231.784 246.821 236.706 303.458 192.588 336.664C148.339 369.967 105.173 343.28 68.5988 327.609C41.8773 316.159 31.3136 290.511 20.9441 263.118C6.65929 225.382 -31.5487 190.216 -0.721181 144.487C30.2892 98.4865 74.4153 167.36 121.394 161.938C156.144 157.928 199.44 97.8357 218.608 119.174Z" fill="url(#paint1_linear)"/>
</g>
<path d="M90.7262 50.3844L91.0796 49.6152L91.537 50.3221C91.9106 50.8867 92.4369 51.3337 93.0546 51.611L93.8342 51.954L93.1274 52.4218C92.5577 52.7926 92.1067 53.3194 91.828 53.9394L91.485 54.7086L91.0173 54.0017C90.6454 53.4355 90.1186 52.9881 89.4997 52.7128L88.7305 52.3698L89.4373 51.902C90.0067 51.5338 90.455 51.006 90.7262 50.3844Z" fill="#F9F7FD"/>
<path d="M67.5353 44.6071L67.7328 44.1602L68.003 44.5655C68.2171 44.8968 68.5246 45.1573 68.8866 45.3139L69.3335 45.5218L68.9178 45.7921C68.5912 46.007 68.3318 46.3096 68.1694 46.6652L67.9719 47.1226L67.7016 46.7068C67.4875 46.3755 67.1801 46.1151 66.8181 45.9584L66.3711 45.7505L66.7765 45.4907C67.1058 45.2715 67.3684 44.9658 67.5353 44.6071Z" fill="#F9F7FD"/>
<path d="M140.578 84.1364L140.776 83.6895L141.046 84.1052C141.269 84.429 141.574 84.6874 141.93 84.8536L142.376 85.0511L141.971 85.3214C141.64 85.5355 141.379 85.8429 141.223 86.2049L141.015 86.6519L140.745 86.2465C140.531 85.9161 140.228 85.6529 139.871 85.4877L139.414 85.2902L139.83 85.02C140.161 84.8059 140.422 84.4984 140.578 84.1364Z" fill="#F9F7FD"/>
<path d="M176.334 63.8669L176.677 63.0977L177.145 63.8045C177.516 64.3711 178.043 64.8186 178.663 65.0934L179.432 65.4364L178.725 65.9042C178.158 66.2752 177.71 66.8022 177.436 67.4218L177.083 68.191L176.625 67.4841C176.249 66.9221 175.723 66.4759 175.108 66.1952L174.328 65.8522L175.035 65.3845C175.605 65.0136 176.056 64.4868 176.334 63.8669Z" fill="#F9F7FD"/>
<path d="M171.688 35.4692L172.27 34.1699L173.05 35.3653C173.676 36.3157 174.559 37.069 175.596 37.5377L176.896 38.1094L175.7 38.889C174.752 39.5216 173.999 40.4075 173.528 41.4461L172.946 42.7454L172.166 41.55C171.54 40.5996 170.657 39.8463 169.62 39.3776L168.32 38.7955L169.516 38.0159C170.466 37.3895 171.219 36.5065 171.688 35.4692Z" fill="#F9F7FD"/>
<path d="M83.5215 26.7173L84.1036 25.418L84.8832 26.6029C85.5065 27.556 86.3904 28.3101 87.4298 28.7754L88.7291 29.3575L87.5441 30.1371C86.5883 30.7573 85.8335 31.6421 85.3717 32.6837L84.7896 33.9831L84.01 32.7981C83.3853 31.8423 82.4972 31.0878 81.453 30.6256L80.1641 30.0435L81.349 29.2639C82.3021 28.6406 83.0562 27.7567 83.5215 26.7173Z" fill="#F9F7FD"/>
<path opacity="0.2" fill-rule="evenodd" clip-rule="evenodd" d="M170.877 67.351C154.518 49.0047 120.254 42.177 85.0421 52.2988C41.3695 64.8528 12.7774 98.7265 21.1801 127.958C28.0739 151.94 57.7278 165.347 92.2733 162.456C108.837 175.71 136.726 180.087 165.161 171.913C205.049 160.447 230.91 128.626 222.922 100.839C217.319 81.3465 196.548 69.017 170.877 67.351Z" fill="url(#paint2_linear)"/>
<g opacity="0.3">
<path fill-rule="evenodd" clip-rule="evenodd" d="M110.943 167.373C113.276 167.805 117.448 161.631 117.231 156.069C117.014 150.507 111.86 151.578 113.635 141.408C115.409 131.238 117.587 126.443 107.446 117.53C97.306 108.617 98.4812 99.5713 90.3354 100.551C82.1896 101.53 84.23 113.298 90.0117 121.253C95.7934 129.208 95.3335 131.853 88.5335 134.754C81.7336 137.656 94.4332 146.804 96.05 149.495C97.6669 152.186 96.8639 159.471 99.913 162.757C102.962 166.043 108.611 166.94 110.943 167.373Z" fill="url(#paint3_linear)"/>
<path d="M107.568 153.447C106.327 151.382 101.938 145.26 96.7452 143.046" stroke="url(#paint4_linear)" stroke-width="6" stroke-linecap="round"/>
<path d="M104.764 138.729C103.523 136.664 108.45 131.73 108.934 126.105" stroke="url(#paint5_linear)" stroke-width="6" stroke-linecap="round"/>
<path d="M113.337 179.102C112.809 178.224 111.943 173.353 110.631 167.895C106.524 150.802 103.189 128.719 95.8203 116.455" stroke="url(#paint6_linear)" stroke-width="6" stroke-linecap="round"/>
</g>
<g opacity="0.3">
<path d="M148.383 165.952C148.251 158.368 154.181 134.787 162.514 121.795" stroke="url(#paint7_linear)" stroke-width="6" stroke-linecap="round"/>
<ellipse cx="155.058" cy="119.518" rx="2.19975" ry="6.90265" transform="rotate(-31 155.058 119.518)" fill="url(#paint8_linear)"/>
<ellipse cx="167.722" cy="126.341" rx="2.19975" ry="6.90265" transform="rotate(87 167.722 126.341)" fill="url(#paint9_linear)"/>
<ellipse cx="163.8" cy="136.422" rx="2.19975" ry="6.90265" transform="rotate(90 163.8 136.422)" fill="url(#paint10_linear)"/>
<ellipse cx="160.633" cy="146.19" rx="2.19975" ry="6.90265" transform="rotate(90 160.633 146.19)" fill="url(#paint11_linear)"/>
<ellipse cx="166.872" cy="114.482" rx="2.19975" ry="6.90265" transform="rotate(32 166.872 114.482)" fill="url(#paint12_linear)"/>
<ellipse cx="149.789" cy="130.203" rx="2.19975" ry="6.90265" transform="rotate(-42 149.789 130.203)" fill="url(#paint13_linear)"/>
<ellipse cx="145.879" cy="140.892" rx="2.19975" ry="6.90265" transform="rotate(-48 145.879 140.892)" fill="url(#paint14_linear)"/>
</g>
<path opacity="0.472712" d="M89.2188 77.8103L108.264 63.2363" stroke="url(#paint15_linear)" stroke-width="8" stroke-linecap="round" stroke-linejoin="round"/>
<path opacity="0.472712" d="M89.4062 85.128L104.428 73.6328" stroke="url(#paint16_linear)" stroke-width="8" stroke-linecap="round" stroke-linejoin="round"/>
<path opacity="0.472712" d="M155.078 94.5095L174.124 79.9355" stroke="url(#paint17_linear)" stroke-width="8" stroke-linecap="round" stroke-linejoin="round"/>
<path opacity="0.472712" d="M155.266 101.827L170.288 90.332" stroke="url(#paint18_linear)" stroke-width="8" stroke-linecap="round" stroke-linejoin="round"/>
<path fill-rule="evenodd" clip-rule="evenodd" d="M226.065 116.69L184.128 108.864C171.958 126.697 166.198 141.736 166.851 153.982C174.54 157.169 189.343 162.212 211.259 169.112L228.894 121.687C229.616 119.745 228.627 117.584 226.685 116.862C226.483 116.787 226.276 116.73 226.065 116.69Z" fill="url(#paint19_linear)"/>
<path fill-rule="evenodd" clip-rule="evenodd" d="M184.141 119.08C184.524 120.4 184.351 121.353 183.622 121.939C182.528 122.817 181.43 124.311 180.348 124.434C179.265 124.557 178.093 125.15 177.903 126.669C177.812 127.403 174.055 131.195 172.713 136.414C172.373 137.735 172.787 139.768 173.953 142.513L177.057 140.804L181.477 133.644C186.386 131.939 189.153 130.883 189.779 130.475C190.718 129.864 193.758 127.249 193.172 126.268C192.586 125.287 194.493 119.057 195.625 117.846C196.758 116.635 197.686 113.683 197.708 112.594C197.731 111.504 198.124 108.242 195.297 108.346C193.412 108.416 189.693 111.994 184.141 119.08Z" fill="url(#paint20_linear)"/>
<mask id="mask1" mask-type="alpha" maskUnits="userSpaceOnUse" x="172" y="108" width="26" height="35">
<path fill-rule="evenodd" clip-rule="evenodd" d="M184.141 119.08C184.524 120.4 184.351 121.353 183.622 121.939C182.528 122.817 181.43 124.311 180.348 124.434C179.265 124.557 178.093 125.15 177.903 126.669C177.812 127.403 174.055 131.195 172.713 136.414C172.373 137.735 172.787 139.768 173.953 142.513L177.057 140.804L181.477 133.644C186.386 131.939 189.153 130.883 189.779 130.475C190.718 129.864 193.758 127.249 193.172 126.268C192.586 125.287 194.493 119.057 195.625 117.846C196.758 116.635 197.686 113.683 197.708 112.594C197.731 111.504 198.124 108.242 195.297 108.346C193.412 108.416 189.693 111.994 184.141 119.08Z" fill="white"/>
</mask>
<g mask="url(#mask1)">
<path fill-rule="evenodd" clip-rule="evenodd" d="M194.718 124.684C194.718 124.684 189.355 115.167 186.85 112.778C184.346 110.39 198.802 107.982 198.802 107.982L194.718 126.48V124.684Z" fill="url(#paint21_linear)" style="mix-blend-mode:multiply"/>
</g>
<path fill-rule="evenodd" clip-rule="evenodd" d="M181.209 96.6941C179.915 97.5655 181.019 101.073 179.619 103.075C178.853 104.169 177.242 104.778 176.498 105.213C174.393 106.446 176.556 107.326 176.991 108.059C177.426 108.793 177.079 110.45 176.753 111.756C176.428 113.062 175.272 116.005 176.511 116.663C177.75 117.321 185.356 120.192 187.555 119.315C189.754 118.438 190.54 114.045 191.083 113.759C191.625 113.473 192.005 113.775 192.506 113.899C193.808 114.224 194.985 113.494 195.611 112.455C196.32 111.278 197.328 111.815 196.783 110.207C195.942 107.727 191.068 97.956 189.131 97.2536C187.195 96.5512 183.211 95.3461 181.209 96.6941Z" fill="url(#paint22_radial)"/>
<path fill-rule="evenodd" clip-rule="evenodd" d="M187.529 99.3795C182.576 98.1446 180.273 99.2508 178.479 95.4015C177.42 93.128 179.483 86.1536 182.956 85.9958C183.811 89.8942 187.94 90.2295 190.332 90.5534C203.179 92.2926 204.523 104.038 200.677 110.957C199.439 113.184 198.293 114.785 197.271 115.985C196.623 116.747 195.775 117.664 195.488 118.1C195.393 118.245 194.564 120.08 194.421 120.044C193.988 119.936 194.162 119.914 194.374 118.015C194.587 116.117 194.705 115.606 195.091 114.061C195.204 113.604 197.358 110.099 195.704 108.83C194.601 107.983 193.111 108.5 191.234 110.38L190.094 109.951C190.848 108.276 191.323 107.04 191.523 106.242C191.821 105.046 192.482 100.614 187.529 99.3795Z" fill="url(#paint23_linear)"/>
<path fill-rule="evenodd" clip-rule="evenodd" d="M187.529 99.3795C182.576 98.1446 180.273 99.2508 178.479 95.4015C177.42 93.128 179.483 86.1536 182.956 85.9958C183.811 89.8942 187.94 90.2295 190.332 90.5534C203.179 92.2926 204.523 104.038 200.677 110.957C199.439 113.184 198.293 114.785 197.271 115.985C196.623 116.747 195.775 117.664 195.488 118.1C195.393 118.245 194.564 120.08 194.421 120.044C193.988 119.936 194.162 119.914 194.374 118.015C194.587 116.117 194.705 115.606 195.091 114.061C195.204 113.604 197.358 110.099 195.704 108.83C194.601 107.983 193.111 108.5 191.234 110.38L190.094 109.951C190.848 108.276 191.323 107.04 191.523 106.242C191.821 105.046 192.482 100.614 187.529 99.3795Z" fill="url(#paint24_linear)"/>
<path fill-rule="evenodd" clip-rule="evenodd" d="M190.098 110.009C189.72 110.851 188.293 112.793 187.006 113.495C185.718 114.196 183.006 114.239 182.45 113.439C181.893 112.64 179.367 109.017 177.089 108.449C176.975 108.907 176.663 109.687 176.153 110.789C177.916 111.522 178.939 112.211 179.224 112.857C179.652 113.826 179.881 113.177 179.454 113.607C179.028 114.038 176.799 113.707 176.63 112.027C175.987 113.365 175.297 116.975 175.54 117.8C175.784 118.626 177.185 119.004 178.568 119.093C179.95 119.181 184.877 119.933 186.132 119.677C187.387 119.42 188.981 119.568 190.031 116.528C191.08 113.488 190.847 111.519 192.217 108.929C193.587 106.34 190.476 109.166 190.098 110.009Z" fill="url(#paint25_linear)"/>
<g filter="url(#filter0_i)">
<path fill-rule="evenodd" clip-rule="evenodd" d="M194.021 122.303C199.226 123.488 202.723 125.464 204.513 128.23C207.197 132.38 208.542 143.402 208.542 146.978C208.542 150.553 208.97 159.324 208.542 161.717C208.114 164.109 206.148 165.887 202.081 165.887C199.369 165.887 183.999 160.843 155.971 150.755C159.657 148.932 161.559 147.673 161.676 146.978C161.852 145.934 170.405 126.909 173.11 124.97C175.816 123.032 181.431 122.115 183.682 122.115C183.353 123.029 182.621 123.766 183.656 124.97C184.691 126.175 186.723 126.385 188.735 125.549C190.076 124.992 191.838 123.91 194.021 122.303Z" fill="white"/>
<path fill-rule="evenodd" clip-rule="evenodd" d="M194.021 122.303C199.226 123.488 202.723 125.464 204.513 128.23C207.197 132.38 208.542 143.402 208.542 146.978C208.542 150.553 208.97 159.324 208.542 161.717C208.114 164.109 206.148 165.887 202.081 165.887C199.369 165.887 183.999 160.843 155.971 150.755C159.657 148.932 161.559 147.673 161.676 146.978C161.852 145.934 170.405 126.909 173.11 124.97C175.816 123.032 181.431 122.115 183.682 122.115C183.353 123.029 182.621 123.766 183.656 124.97C184.691 126.175 186.723 126.385 188.735 125.549C190.076 124.992 191.838 123.91 194.021 122.303Z" fill="url(#paint26_linear)"/>
</g>
<mask id="mask2" mask-type="alpha" maskUnits="userSpaceOnUse" x="155" y="122" width="54" height="44">
<path fill-rule="evenodd" clip-rule="evenodd" d="M194.021 122.303C199.226 123.488 202.723 125.464 204.513 128.23C207.197 132.38 208.542 143.402 208.542 146.978C208.542 150.553 208.97 159.324 208.542 161.717C208.114 164.109 206.148 165.887 202.081 165.887C199.369 165.887 183.999 160.843 155.971 150.755C159.657 148.932 161.559 147.673 161.676 146.978C161.852 145.934 170.405 126.909 173.11 124.97C175.816 123.032 181.431 122.115 183.682 122.115C183.353 123.029 182.621 123.766 183.656 124.97C184.691 126.175 186.723 126.385 188.735 125.549C190.076 124.992 191.838 123.91 194.021 122.303Z" fill="white"/>
<path fill-rule="evenodd" clip-rule="evenodd" d="M194.021 122.303C199.226 123.488 202.723 125.464 204.513 128.23C207.197 132.38 208.542 143.402 208.542 146.978C208.542 150.553 208.97 159.324 208.542 161.717C208.114 164.109 206.148 165.887 202.081 165.887C199.369 165.887 183.999 160.843 155.971 150.755C159.657 148.932 161.559 147.673 161.676 146.978C161.852 145.934 170.405 126.909 173.11 124.97C175.816 123.032 181.431 122.115 183.682 122.115C183.353 123.029 182.621 123.766 183.656 124.97C184.691 126.175 186.723 126.385 188.735 125.549C190.076 124.992 191.838 123.91 194.021 122.303Z" stroke="white"/>
</mask>
<g mask="url(#mask2)">
<g opacity="0.585435">
<path fill-rule="evenodd" clip-rule="evenodd" d="M180.942 122.848C176.632 127.26 185.135 129.611 188.607 128.435C192.08 127.26 195.976 122.848 195.976 122.848C195.976 122.848 186.158 115.541 183.55 119.194C180.942 122.848 185.253 118.435 180.942 122.848Z" fill="url(#paint27_linear)" style="mix-blend-mode:multiply"/>
</g>
<g opacity="0.54654">
<path fill-rule="evenodd" clip-rule="evenodd" d="M174.797 162.768C177.866 162.768 197.823 159.463 197.823 156.781C197.823 154.098 196.285 135.199 196.285 135.199" fill="url(#paint28_linear)" style="mix-blend-mode:multiply"/>
</g>
<g opacity="0.54654">
<path fill-rule="evenodd" clip-rule="evenodd" d="M146.84 151.134C148.23 151.134 154.658 159.278 160.53 156.537C167.624 153.226 171.755 140.966 171.755 139.498C171.755 138.376 173.617 134.394 172.908 130.056C172.488 127.484 169.056 121.896 169.056 121.896" fill="url(#paint29_linear)" style="mix-blend-mode:multiply"/>
</g>
</g>
<path fill-rule="evenodd" clip-rule="evenodd" d="M123.481 62.353C124.236 68.1095 124.381 71.4593 123.915 72.4023C123.216 73.8168 124.57 80.471 128.879 80.8568C133.188 81.2426 135.447 79.4064 135.617 74.9169C135.786 70.4273 136.056 68.6964 136.752 66.7098C137.448 64.7231 124.478 56.4922 123.915 58.0139C123.54 59.0284 123.395 60.4747 123.481 62.353Z" fill="url(#paint30_linear)"/>
<path fill-rule="evenodd" clip-rule="evenodd" d="M123.481 62.353C124.236 68.1095 124.381 71.4593 123.915 72.4023C123.216 73.8168 124.57 80.471 128.879 80.8568C133.188 81.2426 135.447 79.4064 135.617 74.9169C135.786 70.4273 136.056 68.6964 136.752 66.7098C137.448 64.7231 124.478 56.4922 123.915 58.0139C123.54 59.0284 123.395 60.4747 123.481 62.353Z" fill="url(#paint31_linear)" fill-opacity="0.67"/>
<path fill-rule="evenodd" clip-rule="evenodd" d="M141.191 49.1277C141.191 50.4076 141.361 54.4034 141.232 55.4159C141.103 56.4284 141.001 57.9373 141.117 59.8866C141.232 61.8359 140.22 66.6302 139.09 68.3671C138.415 69.4041 135.741 71.4033 133.117 71.1225C130.008 70.7895 126.607 67.7867 126.244 66.2852C125.573 63.5172 126.129 61.0745 124.197 59.6036C122.264 58.1326 120.856 56.7664 121.03 54.4956C121.204 52.2248 123.188 46.8192 124.197 46.592C125.205 46.3648 141.191 47.8478 141.191 49.1277Z" fill="url(#paint32_radial)"/>
<path fill-rule="evenodd" clip-rule="evenodd" d="M124.592 47.4942C125.509 48.8778 133.537 55.5477 141.584 51.2174C149.63 46.8871 138.927 39.0259 134.073 38.129C129.219 37.2322 125.04 37.7307 122.104 41.8043C119.168 45.878 117.696 52.8598 123.439 62.331C123.692 60.8281 123.818 59.8265 123.818 59.3262C121.533 57.2351 120.961 55.2864 122.104 53.4802C123.818 50.7709 124.385 56.0829 124.592 56.9363C125.275 56.9363 125.704 56.8173 125.881 56.5794C125.41 55.2387 125.239 53.9988 125.366 52.8598C125.557 51.1512 126.122 50.7709 124.592 47.4942Z" fill="url(#paint33_linear)"/>
<path fill-rule="evenodd" clip-rule="evenodd" d="M124.592 47.4942C125.509 48.8778 133.537 55.5477 141.584 51.2174C149.63 46.8871 138.927 39.0259 134.073 38.129C129.219 37.2322 125.04 37.7307 122.104 41.8043C119.168 45.878 117.696 52.8598 123.439 62.331C123.692 60.8281 123.818 59.8265 123.818 59.3262C121.533 57.2351 120.961 55.2864 122.104 53.4802C123.818 50.7709 124.385 56.0829 124.592 56.9363C125.275 56.9363 125.704 56.8173 125.881 56.5794C125.41 55.2387 125.239 53.9988 125.366 52.8598C125.557 51.1512 126.122 50.7709 124.592 47.4942Z" fill="url(#paint34_linear)"/>
<path fill-rule="evenodd" clip-rule="evenodd" d="M109.274 147.372C109.274 145.285 106.856 131.612 111.84 127.504C116.824 123.397 122.989 129.389 145.693 130.297C146.067 139.48 146.067 145.944 145.693 149.691C145.32 153.438 131.605 158.749 109.274 147.372Z" fill="#7B61FF"/>
<path fill-rule="evenodd" clip-rule="evenodd" d="M105.423 129.667C105.958 132.038 107.729 134.571 108.326 135.118C108.923 135.665 111.094 136.344 111.504 136.212C111.915 136.08 112.995 135.177 113.044 134.121C113.093 133.064 112.057 132.468 112.05 130.907C112.042 129.346 109.446 127.081 109.446 125.699C109.446 124.318 104.887 127.295 105.423 129.667Z" fill="#7B61FF"/>
<path fill-rule="evenodd" clip-rule="evenodd" d="M172.167 126.413C173.778 128.549 174.826 128.923 175.43 129.56C176.034 130.197 177.415 132.446 177.928 132.071C178.441 131.696 178.972 130.958 178.174 129.56C177.376 128.162 176.167 126.687 176.587 125.947C177.006 125.207 179.055 123.02 180.764 122.512C182.474 122.004 183.042 122.332 183.213 122.059C183.383 121.787 181.168 121.39 180.255 121.288C179.342 121.186 178.049 121.068 176.184 121.288C174.941 121.435 174.075 120.918 173.586 119.738C171.566 122.763 171.094 124.988 172.167 126.413Z" fill="#7B61FF"/>
<g filter="url(#filter1_i)">
<path fill-rule="evenodd" clip-rule="evenodd" d="M110.218 126.47C109.076 125.827 105.253 127.363 105.253 130.469C103.223 123.56 97.5898 114.207 97.5898 103.986C100.172 95.0752 106.91 81.0274 108.414 78.8226C109.417 77.3528 114.388 75.2953 123.324 72.6504C125.323 74.8352 127.692 75.9276 130.432 75.9276C134.54 75.9276 134.756 73.408 135.853 73.2765C136.951 73.145 143.169 75.9276 146.236 78.888C149.303 81.8484 152.587 93.4917 160.654 102.53C168.721 111.568 171.615 117.874 175.617 121.27C174.149 122.585 172.16 123.351 172.16 126.47C170.711 125.408 162.628 119.849 155.777 113.378C148.926 106.906 145.887 101.524 144.853 100.796C143.664 99.9581 146.352 125.879 146.236 130.469C146.12 135.059 130.338 135.321 125.403 135.321C120.467 135.321 112.835 133.613 110.875 131.928C110.553 131.651 111.399 95.2062 110.875 96.7354C109.547 100.615 106.463 102.53 106.463 105.085C106.463 111.023 110.225 126.889 110.218 126.47Z" fill="url(#paint35_linear)"/>
</g>
<mask id="mask3" mask-type="alpha" maskUnits="userSpaceOnUse" x="97" y="72" width="79" height="64">
<path fill-rule="evenodd" clip-rule="evenodd" d="M110.218 126.47C109.076 125.827 105.253 127.363 105.253 130.469C103.223 123.56 97.5898 114.207 97.5898 103.986C100.172 95.0752 106.91 81.0274 108.414 78.8226C109.417 77.3528 114.388 75.2953 123.324 72.6504C125.323 74.8352 127.692 75.9276 130.432 75.9276C134.54 75.9276 134.756 73.408 135.853 73.2765C136.951 73.145 143.169 75.9276 146.236 78.888C149.303 81.8484 152.587 93.4917 160.654 102.53C168.721 111.568 171.615 117.874 175.617 121.27C174.149 122.585 172.16 123.351 172.16 126.47C170.711 125.408 162.628 119.849 155.777 113.378C148.926 106.906 145.887 101.524 144.853 100.796C143.664 99.9581 146.352 125.879 146.236 130.469C146.12 135.059 130.338 135.321 125.403 135.321C120.467 135.321 112.835 133.613 110.875 131.928C110.553 131.651 111.399 95.2062 110.875 96.7354C109.547 100.615 106.463 102.53 106.463 105.085C106.463 111.023 110.225 126.889 110.218 126.47Z" fill="white"/>
</mask>
<g mask="url(#mask3)">
<path fill-rule="evenodd" clip-rule="evenodd" d="M109.222 99.9282L116.293 90.5312C116.293 90.5312 118.912 121.005 107.22 131.561C105.16 119.351 106.307 112.969 107.22 107.633C107.82 104.129 109.222 99.9282 109.222 99.9282Z" fill="url(#paint36_linear)" style="mix-blend-mode:multiply"/>
<g opacity="0.161551">
<path fill-rule="evenodd" clip-rule="evenodd" d="M111.579 133.683C114.219 125.95 126.08 100.48 131.157 96.8482C136.233 93.2165 136.616 88.5292 136.425 82.3077C136.233 76.0863 124.376 63.6909 118.178 68.3793C111.979 73.0677 95.3837 81.7179 93.569 96.223C91.7542 110.728 99.4827 132.977 102.974 130.777C106.466 128.578 108.94 141.416 111.579 133.683Z" fill="url(#paint37_linear)" style="mix-blend-mode:multiply"/>
</g>
</g>
<path fill-rule="evenodd" clip-rule="evenodd" d="M124.079 67.9566C124.079 69.3706 126.229 73.323 130.382 73.1726C134.534 73.0223 135.369 72.9079 135.841 70.7996C135.841 73.9232 136.003 74.8452 135.237 76.905C134.471 78.9648 129.699 80.0942 127.022 78.3832C124.345 76.6722 122.95 75.6479 123.342 72.5244C123.733 69.4008 124.079 66.5426 124.079 67.9566Z" fill="url(#paint38_linear)"/>
<path fill-rule="evenodd" clip-rule="evenodd" d="M29.9096 111.31L67.9867 102.11C75.0288 121.097 78.2238 136.713 77.5716 148.959C69.8824 152.146 58.3486 156.278 42.9702 161.355L27.2469 116.191C26.5655 114.234 27.5998 112.095 29.5571 111.413C29.6729 111.373 29.7905 111.338 29.9096 111.31Z" fill="url(#paint39_linear)"/>
<path fill-rule="evenodd" clip-rule="evenodd" d="M73.2519 104.678C72.4367 107.26 75.085 114.55 79.2923 118.112C83.4996 121.675 69.9673 121.069 69.9594 117.097C69.9515 113.126 74.0671 102.096 73.2519 104.678Z" fill="#7B61FF"/>
<path fill-rule="evenodd" clip-rule="evenodd" d="M75.0936 112.769C78.2753 114.081 80.5691 115.482 81.9751 116.973C84.084 119.208 94.3401 136.596 95.5493 137.625C96.7586 138.655 105.081 139.435 106.334 139.845C105.693 140.773 104.446 143.636 105.087 146.155C103.109 147.151 98.7648 146.262 89.8782 145.266C83.2676 139.737 79.8351 131.015 78.4216 126.852C77.0081 122.688 75.8988 117.994 75.0936 112.769Z" fill="url(#paint40_linear)"/>
<path fill-rule="evenodd" clip-rule="evenodd" d="M79.4591 115.75C82.0278 120.144 85.9902 128.966 87.1154 132.775C88.3221 136.86 83.6313 147.616 83.6858 150.144C83.7312 152.252 81.5622 151.516 62.2947 153.455C61.6993 149.738 61.6993 145.092 62.2947 139.514C63.1879 131.149 59.5482 119.893 60.5573 118.004C61.5664 116.114 64.0213 112.095 65.0989 112.095C66.1766 112.095 76.8903 111.356 79.4591 115.75Z" fill="url(#paint41_radial)"/>
<path fill-rule="evenodd" clip-rule="evenodd" d="M0 161.996L113.018 138.403C117.199 137.53 121.538 137.825 125.562 139.255L182.178 159.376C203.983 167.125 201.478 198.736 178.725 202.954C177.364 203.207 175.983 203.334 174.599 203.334H41.3377C18.5075 203.334 0 184.826 0 161.996Z" fill="url(#paint42_linear)"/>
<g style="mix-blend-mode:multiply" opacity="0.196931">
<path fill-rule="evenodd" clip-rule="evenodd" d="M83.4258 166.016L129.359 158.592L164.308 173.904L113.712 187.326" fill="url(#paint43_linear)"/>
</g>
<path fill-rule="evenodd" clip-rule="evenodd" d="M72.2331 105.746C71.7531 107.99 72.1673 109.613 72.1673 112.166C72.1673 115.578 65.1994 114.189 64.9616 111.603C64.7237 109.016 65.0046 105.548 64.0234 103.198C63.0421 100.848 72.7131 103.503 72.2331 105.746Z" fill="url(#paint44_linear)"/>
<path fill-rule="evenodd" clip-rule="evenodd" d="M72.2331 105.746C71.7531 107.99 72.1673 109.613 72.1673 112.166C72.1673 115.578 65.1994 114.189 64.9616 111.603C64.7237 109.016 65.0046 105.548 64.0234 103.198C63.0421 100.848 72.7131 103.503 72.2331 105.746Z" fill="url(#paint45_linear)" fill-opacity="0.67"/>
<mask id="mask4" mask-type="alpha" maskUnits="userSpaceOnUse" x="63" y="102" width="10" height="13">
<path fill-rule="evenodd" clip-rule="evenodd" d="M72.2331 105.746C71.7531 107.99 72.1673 109.613 72.1673 112.166C72.1673 115.578 65.1994 114.189 64.9616 111.603C64.7237 109.016 65.0046 105.548 64.0234 103.198C63.0421 100.848 72.7131 103.503 72.2331 105.746Z" fill="white"/>
<path fill-rule="evenodd" clip-rule="evenodd" d="M72.2331 105.746C71.7531 107.99 72.1673 109.613 72.1673 112.166C72.1673 115.578 65.1994 114.189 64.9616 111.603C64.7237 109.016 65.0046 105.548 64.0234 103.198C63.0421 100.848 72.7131 103.503 72.2331 105.746Z" stroke="white"/>
</mask>
<g mask="url(#mask4)">
<g opacity="0.717132">
<path fill-rule="evenodd" clip-rule="evenodd" d="M62.2578 115.729C62.2578 115.729 72.7831 106.91 75.2122 106.91C77.6413 106.91 62.2578 103.953 62.2578 103.953V115.729Z" fill="url(#paint46_linear)" style="mix-blend-mode:multiply"/>
</g>
</g>
<path fill-rule="evenodd" clip-rule="evenodd" d="M74.3747 87.6979C74.994 89.6536 74.9247 91.8224 76.1264 93.69C77.3281 95.5576 78.9113 97.1888 79.3318 98.0186C79.7523 98.8484 77.6452 99.5856 77.6452 100.328C77.6452 101.07 79.0494 106.233 78.298 106.727C77.8697 107.88 69.9837 109.478 67.9924 108.333C66.237 108.333 63.5314 106.793 61.8712 103.008C60.2109 99.2239 60.1343 90.0341 61.8712 87.6979C63.608 85.3617 73.7554 85.7422 74.3747 87.6979Z" fill="url(#paint47_radial)"/>
<path fill-rule="evenodd" clip-rule="evenodd" d="M86.6794 162.45L89.3102 141.106L125.187 140.387L122.05 161.225L86.6794 162.45Z" fill="url(#paint48_linear)"/>
<mask id="mask5" mask-type="alpha" maskUnits="userSpaceOnUse" x="86" y="140" width="40" height="23">
<path fill-rule="evenodd" clip-rule="evenodd" d="M86.6794 162.45L89.3102 141.106L125.187 140.387L122.05 161.225L86.6794 162.45Z" fill="white"/>
</mask>
<g mask="url(#mask5)">
<g style="mix-blend-mode:multiply" opacity="0.458036">
<path fill-rule="evenodd" clip-rule="evenodd" d="M123.952 156.698L119.281 139.826H126.805L123.952 156.698Z" fill="url(#paint49_linear)"/>
</g>
<g style="mix-blend-mode:multiply" opacity="0.528404">
<path fill-rule="evenodd" clip-rule="evenodd" d="M90.6675 152.604C90.6675 153.951 93.9092 155.905 97.7205 157.615C99.9304 158.607 99.6258 160.909 100.587 160.909C103.208 160.909 84.6022 168.472 84.6022 168.472C84.6022 168.472 83.5931 158.245 84.6022 155.576C85.7018 152.668 90.6675 151.865 90.6675 152.604Z" fill="url(#paint50_linear)"/>
</g>
</g>
<path fill-rule="evenodd" clip-rule="evenodd" d="M83.7591 153.79C84.8485 153.79 86.1676 153.214 88.0941 152.774C90.0206 152.334 91.2357 151.634 91.8271 152.285C92.0583 152.539 91.6727 153.158 91.3908 153.327C91.109 153.496 90.9596 153.744 89.6142 154.242C88.3657 154.704 87.6427 154.92 87.8684 155.35C88.0941 155.78 90.1394 156.154 90.7946 156.327C91.6306 156.549 92.888 156.981 94.0871 157.182C95.4271 157.407 96.9078 157.432 97.0779 157.53C97.4003 157.716 97.8717 158.417 97.0779 158.64C96.8904 158.693 95.5342 158.72 93.8849 158.64C92.1235 158.555 90.5084 158.217 90.7946 158.64C90.8625 158.74 92.4867 159.072 94.2708 159.072C95.3281 159.072 97.4678 159.203 97.6031 159.203C98.0924 159.203 98.338 159.872 97.8941 160.202C97.7906 160.278 95.726 160.512 94.0871 160.572C92.2006 160.642 90.5312 160.471 90.5114 160.572C90.497 160.646 92.484 160.896 94.2708 160.811C95.7166 160.742 96.5115 160.629 96.7817 160.811C97.052 160.993 96.9835 161.479 96.7817 161.698C96.6978 161.789 95.3914 162.204 94.0871 162.291C92.2553 162.412 90.265 162.2 90.2474 162.291C90.2007 162.531 93.5856 162.684 94.0871 162.684C94.801 162.684 94.711 163.607 93.8849 163.803C92.8485 164.048 90.7044 164.028 89.7285 164.028C88.7527 164.028 87.2863 163.803 85.819 163.258C84.3517 162.713 82.3925 161.984 81.1506 161.698C79.8085 161.39 80.7723 157.146 81.7016 154.92C82.6308 152.693 82.6698 153.79 83.7591 153.79Z" fill="url(#paint51_linear)"/>
<path fill-rule="evenodd" clip-rule="evenodd" d="M51.3309 129.31C48.5556 136.406 50.7496 141.793 51.9679 147.942C53.1862 154.09 53.7405 155.421 55.682 156.671C57.6236 157.922 62.3847 159.664 80.6839 161.777C80.6839 160.315 80.6372 156.684 83.029 153.635C79.6475 153.635 67.6273 150.32 63.4945 149.281C59.7815 146.436 63.4945 141.873 63.4945 133.313C63.4945 124.754 54.1061 122.213 51.3309 129.31Z" fill="url(#paint52_linear)"/>
<path fill-rule="evenodd" clip-rule="evenodd" d="M71.3943 95.008L62.0275 96.7727V97.4737L71.7277 96.7353L71.3943 95.008Z" fill="#7B61FF"/>
<path fill-rule="evenodd" clip-rule="evenodd" d="M73.889 98.6754C72.8076 98.7891 71.7846 97.5017 71.606 95.8023C71.4274 94.103 72.1603 92.631 73.2418 92.5173C74.3232 92.4037 75.3462 93.6911 75.5248 95.3904C75.7034 97.0898 74.9704 98.5618 73.889 98.6754Z" fill="black" fill-opacity="0.01" stroke="#7B61FF"/>
<path fill-rule="evenodd" clip-rule="evenodd" d="M79.1119 95.6479C78.1335 95.7507 77.2079 94.5859 77.0463 93.0484C76.8848 91.5109 77.5479 90.1791 78.5263 90.0763C79.5048 89.9734 80.4303 91.1382 80.5919 92.6758C80.7535 94.2133 80.0904 95.5451 79.1119 95.6479Z" fill="black" fill-opacity="0.01" stroke="#7B61FF"/>
<path fill-rule="evenodd" clip-rule="evenodd" d="M75.3254 94.7962C75.3254 94.3676 76.5355 93.527 77.1425 93.9501L75.3254 94.7962Z" fill="black" fill-opacity="0.01"/>
<path d="M75.3254 94.7962C75.3254 94.3676 76.5355 93.527 77.1425 93.9501" stroke="#7B61FF"/>
<path fill-rule="evenodd" clip-rule="evenodd" d="M62.5238 88.5875C65.117 90.5926 71.1507 91.1806 75.2577 89.2434C79.3647 87.3061 80.3669 79.3747 75.2577 76.9345C73.3144 76.0063 69.4547 76.6071 69.99 79.4051C65.5199 77.6766 60.6591 79.1903 58.7318 80.3432C55.7289 82.1398 53.3882 84.0972 52.1575 88.2122C50.9268 92.3272 52.9361 96.4196 51.9472 98.5152C50.9583 100.611 48.0452 102.43 49.6027 108.87C51.1601 115.31 47.4176 114.279 46.574 118.208C45.7303 122.136 48.4176 124.01 46.574 126.627C44.7303 129.244 41.196 140.294 47.8158 146.212C54.4354 152.13 66.7709 156.442 69.574 143.702C72.3772 130.963 59.2281 128.182 63.0867 121.811C66.9454 115.441 64.3892 109.534 65.1969 107.713C66.1907 105.472 65.1222 102.052 63.2351 97.4183C61.4872 93.1261 64.0035 91.9802 62.5238 88.5875Z" fill="url(#paint53_linear)"/>
<path fill-rule="evenodd" clip-rule="evenodd" d="M62.5238 88.5875C65.117 90.5926 71.1507 91.1806 75.2577 89.2434C79.3647 87.3061 80.3669 79.3747 75.2577 76.9345C73.3144 76.0063 69.4547 76.6071 69.99 79.4051C65.5199 77.6766 60.6591 79.1903 58.7318 80.3432C55.7289 82.1398 53.3882 84.0972 52.1575 88.2122C50.9268 92.3272 52.9361 96.4196 51.9472 98.5152C50.9583 100.611 48.0452 102.43 49.6027 108.87C51.1601 115.31 47.4176 114.279 46.574 118.208C45.7303 122.136 48.4176 124.01 46.574 126.627C44.7303 129.244 41.196 140.294 47.8158 146.212C54.4354 152.13 66.7709 156.442 69.574 143.702C72.3772 130.963 59.2281 128.182 63.0867 121.811C66.9454 115.441 64.3892 109.534 65.1969 107.713C66.1907 105.472 65.1222 102.052 63.2351 97.4183C61.4872 93.1261 64.0035 91.9802 62.5238 88.5875Z" fill="url(#paint54_linear)"/>
<path fill-rule="evenodd" clip-rule="evenodd" d="M85.5508 178.452L110.518 174.162C124.299 182.774 131.052 187.108 130.778 187.163C130.389 187.242 102.82 192.062 100.957 192.562C101.132 192.117 95.9948 187.413 85.5508 178.452Z" fill="url(#paint55_linear)"/>
<path fill-rule="evenodd" clip-rule="evenodd" d="M100.375 171.789L126.466 170.033L140.81 182.566L108.304 184.808L100.375 171.789Z" fill="url(#paint56_linear)"/>
<path fill-rule="evenodd" clip-rule="evenodd" d="M164.415 173.666L188.111 164.231C188.593 164.039 188.828 163.494 188.636 163.012C188.536 162.762 188.334 162.567 188.081 162.476L157.909 151.662L128.144 159.018L164.415 173.666Z" fill="url(#paint57_linear)"/>
<g filter="url(#filter2_i)">
<path fill-rule="evenodd" clip-rule="evenodd" d="M122.87 128.376L156.303 139.195C157.287 139.513 158.017 140.345 158.204 141.362L164.187 173.784L127.958 159.087L121.424 129.691C121.289 129.084 121.672 128.483 122.279 128.348C122.475 128.304 122.679 128.314 122.87 128.376Z" fill="url(#paint58_linear)"/>
<path fill-rule="evenodd" clip-rule="evenodd" d="M122.87 128.376L156.303 139.195C157.287 139.513 158.017 140.345 158.204 141.362L164.187 173.784L127.958 159.087L121.424 129.691C121.289 129.084 121.672 128.483 122.279 128.348C122.475 128.304 122.679 128.314 122.87 128.376Z" fill="url(#paint59_linear)" fill-opacity="0.23"/>
</g>
<path fill-rule="evenodd" clip-rule="evenodd" d="M139.642 152.271C141.365 153.112 143.182 153.11 143.931 151.573C144.681 150.036 143.329 148.297 141.606 147.456C139.882 146.616 138.253 146.618 137.504 148.155C136.754 149.691 137.919 151.431 139.642 152.271Z" fill="#D6E3FA"/>
<path fill-rule="evenodd" clip-rule="evenodd" d="M128.274 58.0914C128.268 56.9204 129.212 55.966 130.383 55.9592L132.196 55.9487C133.396 55.9418 134.367 56.9236 134.346 58.1233V58.1233C134.326 59.3 133.358 60.2389 132.182 60.224L130.368 60.201C129.212 60.1863 128.28 59.2479 128.274 58.0914V58.0914Z" stroke="#7B61FF"/>
<path fill-rule="evenodd" clip-rule="evenodd" d="M138.207 58.0994C138.194 56.9182 139.148 55.9539 140.329 55.9543L141.612 55.9549C142.799 55.9553 143.758 56.9235 143.746 58.1101V58.1101C143.735 59.2982 142.755 60.2483 141.568 60.2238L140.285 60.1973C139.139 60.1737 138.22 59.245 138.207 58.0994V58.0994Z" stroke="#7B61FF"/>
<path fill-rule="evenodd" clip-rule="evenodd" d="M134.34 57.8267H138.092H134.34Z" fill="black" fill-opacity="0.01"/>
<path d="M134.34 57.8267H138.092" stroke="#7B61FF"/>
<path fill-rule="evenodd" clip-rule="evenodd" d="M123.981 54.6335L128.554 56.8545V59.0293L124.415 56.1416L123.981 54.6335Z" fill="#7B61FF"/>
<path fill-rule="evenodd" clip-rule="evenodd" d="M77.7255 101.707C77.9098 101.613 77.8519 102.033 77.932 102.279C78.0122 102.526 78.0667 102.564 78.0931 102.725C77.3289 103.119 75.9989 103.196 75.1083 102.669C74.9299 102.564 74.774 102.477 74.9219 102.332C75.0696 102.187 75.2538 102.278 75.4525 102.337C76.1461 102.542 77.2493 101.953 77.7255 101.707Z" fill="#7B61FF"/>
<path opacity="0.7" fill-rule="evenodd" clip-rule="evenodd" d="M50.8521 186.17C57.0699 186.17 62.1103 187.262 62.1103 188.609C62.1103 189.957 57.0699 191.049 50.8521 191.049C44.6344 191.049 39.5939 189.957 39.5939 188.609C39.5939 187.262 44.6344 186.17 50.8521 186.17Z" fill="url(#paint60_linear)"/>
<path fill-rule="evenodd" clip-rule="evenodd" d="M65.8585 174.42C66.7056 175.904 67.18 177.566 67.18 179.322C67.18 185.592 61.1315 190.674 53.6702 190.674C46.2089 190.674 40.1603 185.592 40.1603 179.322C40.1603 177.464 40.6916 175.71 41.6335 174.162C47.6183 175.11 59.5307 175.049 65.8585 174.42Z" fill="url(#paint61_linear)"/>
<mask id="mask6" mask-type="alpha" maskUnits="userSpaceOnUse" x="40" y="174" width="28" height="17">
<path fill-rule="evenodd" clip-rule="evenodd" d="M65.8585 174.42C66.7056 175.904 67.18 177.566 67.18 179.322C67.18 185.592 61.1315 190.674 53.6702 190.674C46.2089 190.674 40.1603 185.592 40.1603 179.322C40.1603 177.464 40.6916 175.71 41.6335 174.162C47.6183 175.11 59.5307 175.049 65.8585 174.42Z" fill="white"/>
</mask>
<g mask="url(#mask6)">
</g>
<path fill-rule="evenodd" clip-rule="evenodd" d="M53.7593 171.908C60.547 171.908 66.0495 173.21 66.0495 174.817C66.0495 176.423 60.547 177.725 53.7593 177.725C46.9715 177.725 41.469 176.423 41.469 174.817C41.469 173.21 46.9715 171.908 53.7593 171.908Z" fill="url(#paint62_linear)"/>
<mask id="mask7" mask-type="alpha" maskUnits="userSpaceOnUse" x="41" y="171" width="26" height="7">
<path fill-rule="evenodd" clip-rule="evenodd" d="M53.7593 171.908C60.547 171.908 66.0495 173.21 66.0495 174.817C66.0495 176.423 60.547 177.725 53.7593 177.725C46.9715 177.725 41.469 176.423 41.469 174.817C41.469 173.21 46.9715 171.908 53.7593 171.908Z" fill="white"/>
</mask>
<g mask="url(#mask7)">
</g>
<g filter="url(#filter3_i)">
<path fill-rule="evenodd" clip-rule="evenodd" d="M52.7236 172.66C52.0524 168.015 50.2061 161.308 44.6552 154.084C41.3854 149.828 41.3747 139.465 40.9025 138.322C43.4683 139.205 48.0774 141.479 52.7236 147.892C57.5941 154.614 54.5043 168.324 52.7236 172.66Z" fill="url(#paint63_linear)"/>
</g>
<mask id="mask8" mask-type="alpha" maskUnits="userSpaceOnUse" x="40" y="138" width="16" height="35">
<path fill-rule="evenodd" clip-rule="evenodd" d="M52.7236 172.66C52.0524 168.015 50.2061 161.308 44.6552 154.084C41.3854 149.828 41.3747 139.465 40.9025 138.322C43.4683 139.205 48.0774 141.479 52.7236 147.892C57.5941 154.614 54.5043 168.324 52.7236 172.66Z" fill="white"/>
</mask>
<g mask="url(#mask8)">
<g style="mix-blend-mode:multiply" opacity="0.5">
<mask id="path-90-inside-1" fill="white">
<path fill-rule="evenodd" clip-rule="evenodd" d="M52.5354 172.659C53.0476 161.369 51.6418 154.243 47.2221 147.516L52.5354 172.659Z"/>
</mask>
<path fill-rule="evenodd" clip-rule="evenodd" d="M52.5354 172.659C53.0476 161.369 51.6418 154.243 47.2221 147.516L52.5354 172.659Z" fill="black" fill-opacity="0.01"/>
<path d="M55.5323 172.795C56.06 161.162 54.6267 153.323 49.7294 145.869L44.7148 149.163C48.657 155.163 50.0351 161.575 49.5384 172.523L55.5323 172.795Z" fill="#489C71" mask="url(#path-90-inside-1)"/>
</g>
</g>
<g filter="url(#filter4_i)">
<path fill-rule="evenodd" clip-rule="evenodd" d="M52.7469 177.427C50.6733 174.11 47.0097 169.616 40.3455 165.971C36.4198 163.825 32.928 155.925 32.1834 155.212C34.4379 155.023 38.7196 155.209 44.4207 158.539C50.3971 162.029 52.648 173.522 52.7469 177.427Z" fill="url(#paint64_linear)"/>
</g>
<mask id="mask9" mask-type="alpha" maskUnits="userSpaceOnUse" x="32" y="155" width="21" height="23">
<path fill-rule="evenodd" clip-rule="evenodd" d="M52.7469 177.427C50.6733 174.11 47.0097 169.616 40.3455 165.971C36.4198 163.825 32.928 155.925 32.1834 155.212C34.4379 155.023 38.7196 155.209 44.4207 158.539C50.3971 162.029 52.648 173.522 52.7469 177.427Z" fill="white"/>
</mask>
<g mask="url(#mask9)">
<g style="mix-blend-mode:multiply" opacity="0.5">
<mask id="path-94-inside-2" fill="white">
<path fill-rule="evenodd" clip-rule="evenodd" d="M52.6018 177.491C49.1972 168.708 45.7291 163.746 40.0951 160.101L52.6018 177.491Z"/>
</mask>
<path fill-rule="evenodd" clip-rule="evenodd" d="M52.6018 177.491C49.1972 168.708 45.7291 163.746 40.0951 160.101L52.6018 177.491Z" fill="black" fill-opacity="0.01"/>
<path d="M55.399 176.406C51.8703 167.304 48.0889 161.7 41.7248 157.582L38.4654 162.62C43.3693 165.793 46.5241 170.113 49.8047 178.575L55.399 176.406Z" fill="#489C71" mask="url(#path-94-inside-2)"/>
</g>
</g>
<g filter="url(#filter5_i)">
<path fill-rule="evenodd" clip-rule="evenodd" d="M54.2359 177.881C55.8709 174.311 58.9368 169.363 65.1018 164.875C68.7334 162.231 71.1864 153.915 71.8355 153.109C69.5653 153.212 65.3246 153.949 60.078 158C54.5781 162.246 53.8276 173.98 54.2359 177.881Z" fill="url(#paint65_linear)"/>
</g>
<mask id="mask10" mask-type="alpha" maskUnits="userSpaceOnUse" x="54" y="153" width="18" height="25">
<path fill-rule="evenodd" clip-rule="evenodd" d="M54.2359 177.881C55.8709 174.311 58.9368 169.363 65.1018 164.875C68.7334 162.231 71.1864 153.915 71.8355 153.109C69.5653 153.212 65.3246 153.949 60.078 158C54.5781 162.246 53.8276 173.98 54.2359 177.881Z" fill="white"/>
</mask>
<g mask="url(#mask10)">
<g style="mix-blend-mode:multiply" opacity="0.5">
<mask id="path-98-inside-3" fill="white">
<path fill-rule="evenodd" clip-rule="evenodd" d="M53.7604 177.873C56.0119 168.689 58.8224 163.301 63.9612 158.945L53.7604 177.873Z"/>
</mask>
<path fill-rule="evenodd" clip-rule="evenodd" d="M53.7604 177.873C56.0119 168.689 58.8224 163.301 63.9612 158.945L53.7604 177.873Z" fill="black" fill-opacity="0.01"/>
<path d="M56.6742 178.587C58.8439 169.737 61.4263 165.027 65.9011 161.233L62.0212 156.657C56.2186 161.576 53.18 167.641 50.8467 177.159L56.6742 178.587Z" fill="#489C71" mask="url(#path-98-inside-3)"/>
</g>
</g>
<defs>
<filter id="filter0_i" x="143.973" y="122.115" width="64.7609" height="44.7719" filterUnits="userSpaceOnUse" color-interpolation-filters="sRGB">
<feFlood flood-opacity="0" result="BackgroundImageFix"/>
<feBlend mode="normal" in="SourceGraphic" in2="BackgroundImageFix" result="shape"/>
<feColorMatrix in="SourceAlpha" type="matrix" values="0 0 0 0 0 0 0 0 0 0 0 0 0 0 0 0 0 0 127 0" result="hardAlpha"/>
<feOffset dx="-12" dy="1"/>
<feGaussianBlur stdDeviation="13.5"/>
<feComposite in2="hardAlpha" operator="arithmetic" k2="-1" k3="1"/>
<feColorMatrix type="matrix" values="0 0 0 0 0.0901961 0 0 0 0 0.254902 0 0 0 0 0.572549 0 0 0 0.204201 0"/>
<feBlend mode="normal" in2="shape" result="effect1_innerShadow"/>
</filter>
<filter id="filter1_i" x="97.5898" y="72.6504" width="86.0275" height="65.6708" filterUnits="userSpaceOnUse" color-interpolation-filters="sRGB">
<feFlood flood-opacity="0" result="BackgroundImageFix"/>
<feBlend mode="normal" in="SourceGraphic" in2="BackgroundImageFix" result="shape"/>
<feColorMatrix in="SourceAlpha" type="matrix" values="0 0 0 0 0 0 0 0 0 0 0 0 0 0 0 0 0 0 127 0" result="hardAlpha"/>
<feOffset dx="8" dy="3"/>
<feGaussianBlur stdDeviation="11.5"/>
<feComposite in2="hardAlpha" operator="arithmetic" k2="-1" k3="1"/>
<feColorMatrix type="matrix" values="0 0 0 0 0.729412 0 0 0 0 0.8 0 0 0 0 0.933333 0 0 0 1 0"/>
<feBlend mode="normal" in2="shape" result="effect1_innerShadow"/>
</filter>
<filter id="filter2_i" x="115.398" y="128.32" width="48.7898" height="47.4628" filterUnits="userSpaceOnUse" color-interpolation-filters="sRGB">
<feFlood flood-opacity="0" result="BackgroundImageFix"/>
<feBlend mode="normal" in="SourceGraphic" in2="BackgroundImageFix" result="shape"/>
<feColorMatrix in="SourceAlpha" type="matrix" values="0 0 0 0 0 0 0 0 0 0 0 0 0 0 0 0 0 0 127 0" result="hardAlpha"/>
<feOffset dx="-6" dy="2"/>
<feGaussianBlur stdDeviation="6"/>
<feComposite in2="hardAlpha" operator="arithmetic" k2="-1" k3="1"/>
<feColorMatrix type="matrix" values="0 0 0 0 1 0 0 0 0 1 0 0 0 0 1 0 0 0 0.5 0"/>
<feBlend mode="normal" in2="shape" result="effect1_innerShadow"/>
</filter>
<filter id="filter3_i" x="40.9023" y="128.322" width="14.4381" height="44.3376" filterUnits="userSpaceOnUse" color-interpolation-filters="sRGB">
<feFlood flood-opacity="0" result="BackgroundImageFix"/>
<feBlend mode="normal" in="SourceGraphic" in2="BackgroundImageFix" result="shape"/>
<feColorMatrix in="SourceAlpha" type="matrix" values="0 0 0 0 0 0 0 0 0 0 0 0 0 0 0 0 0 0 127 0" result="hardAlpha"/>
<feOffset dy="-10"/>
<feGaussianBlur stdDeviation="11"/>
<feComposite in2="hardAlpha" operator="arithmetic" k2="-1" k3="1"/>
<feColorMatrix type="matrix" values="0 0 0 0 0.221483 0 0 0 0 0.77854 0 0 0 0 0.610041 0 0 0 1 0"/>
<feBlend mode="normal" in2="shape" result="effect1_innerShadow"/>
</filter>
<filter id="filter4_i" x="32.1836" y="145.162" width="20.5634" height="32.2654" filterUnits="userSpaceOnUse" color-interpolation-filters="sRGB">
<feFlood flood-opacity="0" result="BackgroundImageFix"/>
<feBlend mode="normal" in="SourceGraphic" in2="BackgroundImageFix" result="shape"/>
<feColorMatrix in="SourceAlpha" type="matrix" values="0 0 0 0 0 0 0 0 0 0 0 0 0 0 0 0 0 0 127 0" result="hardAlpha"/>
<feOffset dy="-10"/>
<feGaussianBlur stdDeviation="11"/>
<feComposite in2="hardAlpha" operator="arithmetic" k2="-1" k3="1"/>
<feColorMatrix type="matrix" values="0 0 0 0 0.221483 0 0 0 0 0.77854 0 0 0 0 0.610041 0 0 0 1 0"/>
<feBlend mode="normal" in2="shape" result="effect1_innerShadow"/>
</filter>
<filter id="filter5_i" x="54.1406" y="143.109" width="17.6931" height="34.7717" filterUnits="userSpaceOnUse" color-interpolation-filters="sRGB">
<feFlood flood-opacity="0" result="BackgroundImageFix"/>
<feBlend mode="normal" in="SourceGraphic" in2="BackgroundImageFix" result="shape"/>
<feColorMatrix in="SourceAlpha" type="matrix" values="0 0 0 0 0 0 0 0 0 0 0 0 0 0 0 0 0 0 127 0" result="hardAlpha"/>
<feOffset dy="-10"/>
<feGaussianBlur stdDeviation="11"/>
<feComposite in2="hardAlpha" operator="arithmetic" k2="-1" k3="1"/>
<feColorMatrix type="matrix" values="0 0 0 0 0.221483 0 0 0 0 0.77854 0 0 0 0 0.610041 0 0 0 1 0"/>
<feBlend mode="normal" in2="shape" result="effect1_innerShadow"/>
</filter>
<linearGradient id="paint0_linear" x1="120.499" y1="0" x2="120.499" y2="240.39" gradientUnits="userSpaceOnUse">
<stop stop-color="#ECE7F8"/>
<stop offset="1" stop-color="#ECE7F8" stop-opacity="0"/>
</linearGradient>
<linearGradient id="paint1_linear" x1="127" y1="243" x2="126.517" y2="52.5012" gradientUnits="userSpaceOnUse">
<stop stop-color="#F9F7FD" stop-opacity="0"/>
<stop offset="1" stop-color="#F9F7FD"/>
</linearGradient>
<linearGradient id="paint2_linear" x1="173.207" y1="111.826" x2="173.207" y2="47.6094" gradientUnits="userSpaceOnUse">
<stop stop-color="#ECF2FC" stop-opacity="0.642323"/>
<stop offset="1" stop-color="#D4E1F8"/>
</linearGradient>
<linearGradient id="paint3_linear" x1="104.764" y1="111.229" x2="83.4952" y2="139.04" gradientUnits="userSpaceOnUse">
<stop stop-color="#CFDDF3"/>
<stop offset="1" stop-color="#A1B8E3"/>
</linearGradient>
<linearGradient id="paint4_linear" x1="100.105" y1="141.027" x2="107.568" y2="153.447" gradientUnits="userSpaceOnUse">
<stop stop-color="#CFDDF3"/>
<stop offset="1" stop-color="#A1B8E3"/>
</linearGradient>
<linearGradient id="paint5_linear" x1="100.297" y1="131.295" x2="104.764" y2="138.729" gradientUnits="userSpaceOnUse">
<stop stop-color="#CFDDF3"/>
<stop offset="1" stop-color="#A1B8E3"/>
</linearGradient>
<linearGradient id="paint6_linear" x1="95.8203" y1="116.455" x2="128.124" y2="170.218" gradientUnits="userSpaceOnUse">
<stop stop-color="#CFDDF3"/>
<stop offset="1" stop-color="#A1B8E3"/>
</linearGradient>
<linearGradient id="paint7_linear" x1="147.617" y1="122.055" x2="148.383" y2="165.952" gradientUnits="userSpaceOnUse">
<stop stop-color="#CFDDF3"/>
<stop offset="1" stop-color="#A1B8E3"/>
</linearGradient>
<linearGradient id="paint8_linear" x1="160.006" y1="96.1779" x2="148.611" y2="98.8412" gradientUnits="userSpaceOnUse">
<stop stop-color="#CFDDF3"/>
<stop offset="1" stop-color="#A1B8E3"/>
</linearGradient>
<linearGradient id="paint9_linear" x1="172.67" y1="103.001" x2="161.276" y2="105.664" gradientUnits="userSpaceOnUse">
<stop stop-color="#CFDDF3"/>
<stop offset="1" stop-color="#A1B8E3"/>
</linearGradient>
<linearGradient id="paint10_linear" x1="168.749" y1="113.082" x2="157.354" y2="115.745" gradientUnits="userSpaceOnUse">
<stop stop-color="#CFDDF3"/>
<stop offset="1" stop-color="#A1B8E3"/>
</linearGradient>
<linearGradient id="paint11_linear" x1="165.581" y1="122.85" x2="154.186" y2="125.513" gradientUnits="userSpaceOnUse">
<stop stop-color="#CFDDF3"/>
<stop offset="1" stop-color="#A1B8E3"/>
</linearGradient>
<linearGradient id="paint12_linear" x1="171.82" y1="91.1421" x2="160.425" y2="93.8054" gradientUnits="userSpaceOnUse">
<stop stop-color="#CFDDF3"/>
<stop offset="1" stop-color="#A1B8E3"/>
</linearGradient>
<linearGradient id="paint13_linear" x1="154.737" y1="106.862" x2="143.342" y2="109.526" gradientUnits="userSpaceOnUse">
<stop stop-color="#CFDDF3"/>
<stop offset="1" stop-color="#A1B8E3"/>
</linearGradient>
<linearGradient id="paint14_linear" x1="150.827" y1="117.552" x2="139.433" y2="120.215" gradientUnits="userSpaceOnUse">
<stop stop-color="#CFDDF3"/>
<stop offset="1" stop-color="#A1B8E3"/>
</linearGradient>
<linearGradient id="paint15_linear" x1="105.162" y1="34.4989" x2="70.4362" y2="78.8831" gradientUnits="userSpaceOnUse">
<stop stop-color="#D2E0F9" stop-opacity="0.01"/>
<stop offset="1" stop-color="#B1C6E7" stop-opacity="0.464589"/>
</linearGradient>
<linearGradient id="paint16_linear" x1="101.981" y1="50.9662" x2="74.5915" y2="85.9742" gradientUnits="userSpaceOnUse">
<stop stop-color="#D2E0F9" stop-opacity="0.01"/>
<stop offset="1" stop-color="#B1C6E7" stop-opacity="0.464589"/>
</linearGradient>
<linearGradient id="paint17_linear" x1="171.021" y1="51.1981" x2="136.296" y2="95.5823" gradientUnits="userSpaceOnUse">
<stop stop-color="#D2E0F9" stop-opacity="0.01"/>
<stop offset="1" stop-color="#B1C6E7" stop-opacity="0.464589"/>
</linearGradient>
<linearGradient id="paint18_linear" x1="167.841" y1="67.6654" x2="140.451" y2="102.673" gradientUnits="userSpaceOnUse">
<stop stop-color="#D2E0F9" stop-opacity="0.01"/>
<stop offset="1" stop-color="#B1C6E7" stop-opacity="0.464589"/>
</linearGradient>
<linearGradient id="paint19_linear" x1="194.236" y1="145.353" x2="218.215" y2="138.207" gradientUnits="userSpaceOnUse">
<stop stop-color="#9A8CE2"/>
<stop offset="1" stop-color="#D9D6FA"/>
</linearGradient>
<linearGradient id="paint20_linear" x1="189.048" y1="106.737" x2="178.638" y2="114.918" gradientUnits="userSpaceOnUse">
<stop stop-color="#5D6FAA"/>
<stop offset="1" stop-color="#90AADB"/>
</linearGradient>
<linearGradient id="paint21_linear" x1="186.48" y1="107.982" x2="186.48" y2="126.48" gradientUnits="userSpaceOnUse">
<stop stop-color="#CFDDF3"/>
<stop offset="1" stop-color="#A1B8E3" stop-opacity="0.01"/>
</linearGradient>
<radialGradient id="paint22_radial" cx="0" cy="0" r="1" gradientUnits="userSpaceOnUse" gradientTransform="translate(178.908 103.874) rotate(38.0793) scale(24.197 34.3494)">
<stop stop-color="#E1E8FF"/>
<stop offset="1" stop-color="#CECBEF"/>
</radialGradient>
<linearGradient id="paint23_linear" x1="171.776" y1="85.5262" x2="176.657" y2="102.375" gradientUnits="userSpaceOnUse">
<stop stop-color="#7B61FF"/>
<stop offset="1" stop-color="#3300FF"/>
</linearGradient>
<linearGradient id="paint24_linear" x1="186.021" y1="100.452" x2="189.678" y2="117.622" gradientUnits="userSpaceOnUse">
<stop stop-color="#174293" stop-opacity="0.01"/>
<stop offset="1" stop-color="#051E4B"/>
</linearGradient>
<linearGradient id="paint25_linear" x1="166.659" y1="113.898" x2="174.044" y2="126.313" gradientUnits="userSpaceOnUse">
<stop stop-color="#7B61FF"/>
<stop offset="1" stop-color="#143B8C"/>
<stop offset="1" stop-color="#3300FF"/>
</linearGradient>
<linearGradient id="paint26_linear" x1="170.402" y1="146.362" x2="167.675" y2="156.371" gradientUnits="userSpaceOnUse">
<stop stop-color="#2E7DE7" stop-opacity="0.01"/>
<stop offset="1" stop-color="#00357E" stop-opacity="0.5"/>
</linearGradient>
<linearGradient id="paint27_linear" x1="195.976" y1="128.736" x2="195.976" y2="117.977" gradientUnits="userSpaceOnUse">
<stop stop-color="#70B8F9" stop-opacity="0.275872"/>
<stop offset="1" stop-color="#3D82F0"/>
</linearGradient>
<linearGradient id="paint28_linear" x1="184.342" y1="156.357" x2="195.583" y2="162.145" gradientUnits="userSpaceOnUse">
<stop stop-color="#3D82F0" stop-opacity="0.01"/>
<stop offset="1" stop-color="#3D82F0"/>
</linearGradient>
<linearGradient id="paint29_linear" x1="157.712" y1="148.914" x2="171.09" y2="155.058" gradientUnits="userSpaceOnUse">
<stop stop-color="#3D82F0" stop-opacity="0.01"/>
<stop offset="1" stop-color="#3D82F0"/>
</linearGradient>
<linearGradient id="paint30_linear" x1="122.902" y1="56.1387" x2="122.902" y2="81.4697" gradientUnits="userSpaceOnUse">
<stop stop-color="#4376C9"/>
<stop offset="1" stop-color="#D6E3FA"/>
</linearGradient>
<linearGradient id="paint31_linear" x1="125.833" y1="79.5537" x2="134.995" y2="79.5537" gradientUnits="userSpaceOnUse">
<stop stop-color="#BDB2FA"/>
<stop offset="1" stop-color="#A9BFE7" stop-opacity="0.01"/>
<stop offset="1" stop-color="#A9BFE7" stop-opacity="0.01"/>
</linearGradient>
<radialGradient id="paint32_radial" cx="0" cy="0" r="1" gradientUnits="userSpaceOnUse" gradientTransform="translate(124.934 54.9667) rotate(41.3765) scale(22.743 32.9854)">
<stop stop-color="#E1E8FF"/>
<stop offset="1" stop-color="#CECBEF"/>
</radialGradient>
<linearGradient id="paint33_linear" x1="111.162" y1="36.8086" x2="113.539" y2="49.8744" gradientUnits="userSpaceOnUse">
<stop stop-color="#7B61FF"/>
<stop offset="1" stop-color="#3300FF"/>
</linearGradient>
<linearGradient id="paint34_linear" x1="127.925" y1="47.8408" x2="129.669" y2="60.8741" gradientUnits="userSpaceOnUse">
<stop stop-color="#174293" stop-opacity="0.01"/>
<stop offset="1" stop-color="#051E4B"/>
</linearGradient>
<linearGradient id="paint35_linear" x1="160.925" y1="68.131" x2="128.103" y2="83.9974" gradientUnits="userSpaceOnUse">
<stop stop-color="#EDEDFD"/>
<stop offset="1" stop-color="#D9D6FA"/>
</linearGradient>
<linearGradient id="paint36_linear" x1="111.475" y1="155.086" x2="131.703" y2="149.753" gradientUnits="userSpaceOnUse">
<stop stop-color="#EAF0F7" stop-opacity="0.115546"/>
<stop offset="1" stop-color="#D1DDED"/>
</linearGradient>
<linearGradient id="paint37_linear" x1="136.804" y1="66.17" x2="105.107" y2="70.6495" gradientUnits="userSpaceOnUse">
<stop stop-color="#EAF0F7" stop-opacity="0.115546"/>
<stop offset="1" stop-color="#D1DDED"/>
</linearGradient>
<linearGradient id="paint38_linear" x1="124.904" y1="75.1388" x2="128.419" y2="75.1388" gradientUnits="userSpaceOnUse">
<stop stop-color="#B1C6E7"/>
<stop offset="1" stop-color="#E5EFFD"/>
</linearGradient>
<linearGradient id="paint39_linear" x1="58.3849" y1="121.074" x2="39.4811" y2="117.246" gradientUnits="userSpaceOnUse">
<stop stop-color="#7B61FF"/>
<stop offset="1" stop-color="#D9D6FA"/>
</linearGradient>
<linearGradient id="paint40_linear" x1="95.6605" y1="156.29" x2="112.372" y2="146.883" gradientUnits="userSpaceOnUse">
<stop stop-color="#3F2885"/>
<stop offset="0.87783" stop-color="#7B61FF"/>
<stop offset="1" stop-color="#3300FF"/>
</linearGradient>
<radialGradient id="paint41_radial" cx="0" cy="0" r="1" gradientUnits="userSpaceOnUse" gradientTransform="translate(88.5644 132.412) rotate(-173.25) scale(21.2176 30.6492)">
<stop stop-color="#7B61FF"/>
<stop offset="1" stop-color="#3F2885"/>
</radialGradient>
<linearGradient id="paint42_linear" x1="-17.7351" y1="172.268" x2="-15.637" y2="195.743" gradientUnits="userSpaceOnUse">
<stop stop-color="#EAEFFF"/>
<stop offset="1" stop-color="#F7F9FE"/>
</linearGradient>
<linearGradient id="paint43_linear" x1="99.4875" y1="157.616" x2="98.7869" y2="175.13" gradientUnits="userSpaceOnUse">
<stop stop-color="#7B61FF"/>
<stop offset="1" stop-color="#2D64D7" stop-opacity="0.01"/>
</linearGradient>
<linearGradient id="paint44_linear" x1="62.668" y1="100.607" x2="62.668" y2="115.806" gradientUnits="userSpaceOnUse">
<stop stop-color="#4376C9"/>
<stop offset="1" stop-color="#D6E3FA"/>
</linearGradient>
<linearGradient id="paint45_linear" x1="64.7082" y1="114.656" x2="71.0868" y2="114.656" gradientUnits="userSpaceOnUse">
<stop stop-color="#7B61FF"/>
<stop offset="1" stop-color="#A9BFE7" stop-opacity="0.01"/>
<stop offset="1" stop-color="#A9BFE7" stop-opacity="0.01"/>
</linearGradient>
<linearGradient id="paint46_linear" x1="62.2578" y1="103.953" x2="62.2578" y2="115.729" gradientUnits="userSpaceOnUse">
<stop stop-color="#699DF3"/>
<stop offset="1" stop-color="#8597B5" stop-opacity="0.01"/>
</linearGradient>
<radialGradient id="paint47_radial" cx="0" cy="0" r="1" gradientUnits="userSpaceOnUse" gradientTransform="translate(63.988 93.669) rotate(41.3535) scale(21.923 31.7928)">
<stop stop-color="#E1E8FF"/>
<stop offset="1" stop-color="#CECBEF"/>
</radialGradient>
<linearGradient id="paint48_linear" x1="98.2523" y1="170.033" x2="111.313" y2="148.721" gradientUnits="userSpaceOnUse">
<stop stop-color="#FF7F31"/>
<stop offset="1" stop-color="#FFD25F"/>
</linearGradient>
<linearGradient id="paint49_linear" x1="123.931" y1="138.393" x2="118.055" y2="139.187" gradientUnits="userSpaceOnUse">
<stop stop-color="#FF7F31"/>
<stop offset="1" stop-color="#FFC83A" stop-opacity="0.01"/>
</linearGradient>
<linearGradient id="paint50_linear" x1="95.3105" y1="167.664" x2="103.497" y2="161.965" gradientUnits="userSpaceOnUse">
<stop stop-color="#FF7F31"/>
<stop offset="1" stop-color="#FFC83A" stop-opacity="0.01"/>
</linearGradient>
<linearGradient id="paint51_linear" x1="81.9631" y1="151.724" x2="79.001" y2="160.323" gradientUnits="userSpaceOnUse">
<stop stop-color="#ECF2FB"/>
<stop offset="1" stop-color="#D5E1F5"/>
</linearGradient>
<linearGradient id="paint52_linear" x1="73.6011" y1="141.215" x2="62.9204" y2="149.359" gradientUnits="userSpaceOnUse">
<stop stop-color="#7B61FF"/>
<stop offset="1" stop-color="#3300FF"/>
</linearGradient>
<linearGradient id="paint53_linear" x1="88.5713" y1="77.85" x2="44.1366" y2="78.6055" gradientUnits="userSpaceOnUse">
<stop stop-color="#7B61FF"/>
<stop offset="1" stop-color="#3F2885"/>
</linearGradient>
<linearGradient id="paint54_linear" x1="64.7605" y1="110.593" x2="42.4972" y2="117.27" gradientUnits="userSpaceOnUse">
<stop stop-color="#3D82F0" stop-opacity="0.01"/>
<stop offset="1" stop-color="#7B61FF"/>
</linearGradient>
<linearGradient id="paint55_linear" x1="85.5508" y1="174.162" x2="85.5508" y2="192.562" gradientUnits="userSpaceOnUse">
<stop stop-color="#B2C7E8"/>
<stop offset="1" stop-color="#D6E3FA"/>
</linearGradient>
<linearGradient id="paint56_linear" x1="100.375" y1="170.033" x2="100.375" y2="184.808" gradientUnits="userSpaceOnUse">
<stop stop-color="#C6D6EE"/>
<stop offset="1" stop-color="#E5EFFD"/>
</linearGradient>
<linearGradient id="paint57_linear" x1="152.305" y1="159.191" x2="167.867" y2="159.191" gradientUnits="userSpaceOnUse">
<stop stop-color="#7B61FF"/>
<stop offset="1" stop-color="#7B61FF"/>
</linearGradient>
<linearGradient id="paint58_linear" x1="147.546" y1="125.18" x2="117.563" y2="144.721" gradientUnits="userSpaceOnUse">
<stop stop-color="#DBE9FF"/>
<stop offset="0.440948" stop-color="#A7BDE4"/>
<stop offset="1" stop-color="#7B61FF"/>
</linearGradient>
<linearGradient id="paint59_linear" x1="147.886" y1="160.882" x2="145.781" y2="165.826" gradientUnits="userSpaceOnUse">
<stop stop-color="#869FCE" stop-opacity="0.01"/>
<stop offset="1" stop-color="#7B61FF"/>
</linearGradient>
<linearGradient id="paint60_linear" x1="62.4856" y1="185.982" x2="39.4062" y2="185.982" gradientUnits="userSpaceOnUse">
<stop stop-color="#D9E5F6" stop-opacity="0.712636"/>
<stop offset="1" stop-color="#B2C6EA"/>
</linearGradient>
<linearGradient id="paint61_linear" x1="62.9514" y1="197.416" x2="66.7291" y2="182.985" gradientUnits="userSpaceOnUse">
<stop stop-color="#ACC5E9"/>
<stop offset="0.627469" stop-color="#D3E3FB"/>
<stop offset="1" stop-color="#EAF2FF"/>
</linearGradient>
<linearGradient id="paint62_linear" x1="42.2208" y1="170.565" x2="41.6213" y2="180.176" gradientUnits="userSpaceOnUse">
<stop stop-color="#86A8D9"/>
<stop offset="1" stop-color="#BCD0F2"/>
</linearGradient>
<linearGradient id="paint63_linear" x1="38.4531" y1="147.637" x2="58.6198" y2="168.753" gradientUnits="userSpaceOnUse">
<stop stop-color="#B1FFBE"/>
<stop offset="0.444207" stop-color="#5CDB8E"/>
<stop offset="1" stop-color="#149654"/>
</linearGradient>
<linearGradient id="paint64_linear" x1="38.1623" y1="154.051" x2="41.0619" y2="176.459" gradientUnits="userSpaceOnUse">
<stop stop-color="#B1FFBE"/>
<stop offset="0.444207" stop-color="#5CDB8E"/>
<stop offset="1" stop-color="#149654"/>
</linearGradient>
<linearGradient id="paint65_linear" x1="51.016" y1="159.666" x2="64.2965" y2="180.51" gradientUnits="userSpaceOnUse">
<stop stop-color="#B1FFBE"/>
<stop offset="0.444207" stop-color="#5CDB8E"/>
<stop offset="1" stop-color="#149654"/>
</linearGradient>
</defs>
</svg>
