<svg width="312" height="300" viewBox="0 0 312 300" fill="none" xmlns="http://www.w3.org/2000/svg">
<path d="M36.5 125C36.5 55.9644 92.4644 0 161.5 0C230.536 0 286.5 55.9644 286.5 125V299.241H36.5V125Z" fill="#ECE7F8"/>
<mask id="mask0" mask-type="alpha" maskUnits="userSpaceOnUse" x="36" y="0" width="251" height="300">
<path d="M36.5 125C36.5 55.9644 92.4644 0 161.5 0C230.536 0 286.5 55.9644 286.5 125V300H36.5V125Z" fill="#ECE7F8"/>
</mask>
<g mask="url(#mask0)">
<path fill-rule="evenodd" clip-rule="evenodd" d="M283.623 148.349C306.139 173.413 311.779 208.991 306.903 249.745C300.024 307.246 306.151 377.748 251.232 419.083C196.151 460.54 142.418 427.32 96.8893 407.812C63.6259 393.559 50.4761 361.632 37.568 327.532C19.7861 280.558 -27.7757 236.784 10.5988 179.859C49.2009 122.597 104.13 208.332 162.609 201.583C205.867 196.59 259.762 121.787 283.623 148.349Z" fill="#F9F7FD"/>
</g>
<path fill-rule="evenodd" clip-rule="evenodd" d="M138.543 278.587C174.993 278.587 204.541 272.648 204.541 265.323C204.541 257.998 174.993 252.06 138.543 252.06C102.094 252.06 72.5455 257.998 72.5455 265.323C72.5455 272.648 102.094 278.587 138.543 278.587Z" fill="url(#paint0_radial)"/>
<path fill-rule="evenodd" clip-rule="evenodd" d="M92.8639 257.103C133.309 276.505 192.692 273.942 219.33 221.29C236.928 187.412 199.38 146.845 158.137 118.637C121.121 93.3206 88.197 87.5796 68.8788 101.832C66.6728 103.46 62.7517 103.14 60.9705 105.354C11.9375 161.323 52.4191 237.701 92.8639 257.103Z" fill="url(#paint1_radial)"/>
<path fill-rule="evenodd" clip-rule="evenodd" d="M117.846 208.627C161.098 235.654 205.768 238.607 220.787 214.571C234.723 188.603 200.915 141.637 157.663 114.61C114.411 87.5831 76.7256 83.2991 61.7059 107.336C46.6865 131.372 74.5943 181.6 117.846 208.627Z" fill="url(#paint2_radial)"/>
<g filter="url(#filter0_f)">
<path fill-rule="evenodd" clip-rule="evenodd" d="M127.622 189.667C147.015 201.792 167.044 203.117 173.778 192.334C180.027 180.683 164.868 159.613 145.475 147.487C126.082 135.362 109.185 133.44 102.45 144.224C95.7158 155.007 108.229 177.542 127.622 189.667Z" fill="#94B0D7"/>
</g>
<path fill-rule="evenodd" clip-rule="evenodd" d="M252.235 268.729C251.603 265.847 250.652 263.704 251.603 259.814C252.554 255.924 263.495 253.719 264.875 254.965C266.255 256.211 266.031 256.878 271.499 259.782C276.967 262.686 292.641 266.064 295.996 269.831C299.351 273.598 299.976 276.089 293.003 276.089C289.726 276.089 275.374 276.089 271.435 276.089C267.565 274.686 266.263 273.931 264.093 272.632C263.65 274.259 264.093 275.645 264.093 275.645H254.804C254.804 275.645 252.867 271.61 252.235 268.729Z" fill="url(#paint3_linear)"/>
<mask id="mask1" mask-type="alpha" maskUnits="userSpaceOnUse" x="251" y="254" width="48" height="23">
<path fill-rule="evenodd" clip-rule="evenodd" d="M252.235 268.729C251.603 265.847 250.652 263.704 251.603 259.814C252.554 255.924 263.495 253.719 264.875 254.965C266.255 256.211 266.031 256.878 271.499 259.782C276.967 262.686 292.641 266.064 295.996 269.831C299.351 273.598 299.976 276.089 293.003 276.089C289.726 276.089 275.374 276.089 271.435 276.089C267.565 274.686 266.263 273.931 264.093 272.632C263.65 274.259 264.093 275.645 264.093 275.645H254.804C254.804 275.645 252.867 271.61 252.235 268.729Z" fill="white"/>
</mask>
<g mask="url(#mask1)">
<g opacity="0.2">
<path fill-rule="evenodd" clip-rule="evenodd" d="M252.257 273.461C254.259 268.305 262.057 258.686 264.317 255.556C266.577 252.426 249.344 259.245 249.344 259.245C249.344 259.245 250.256 278.617 252.257 273.461Z" fill="#7B61FF" style="mix-blend-mode:multiply"/>
</g>
</g>
<path fill-rule="evenodd" clip-rule="evenodd" d="M270.42 190.439C268.362 188.496 266.449 187.31 265.104 183.715C263.758 180.119 271.254 172.475 273.023 172.718C274.792 172.962 274.973 173.611 280.883 172.965C286.794 172.319 297.365 165.131 302.063 166.308C306.762 167.486 310.979 167.51 305.443 171.268C302.841 173.034 292.767 183.8 289.64 185.923C285.809 186.898 284.367 187.001 281.942 187.141C282.47 188.669 283.57 189.529 283.57 189.529L276.195 194.536C276.195 194.536 272.478 192.382 270.42 190.439Z" fill="url(#paint4_linear)"/>
<mask id="mask2" mask-type="alpha" maskUnits="userSpaceOnUse" x="264" y="166" width="45" height="29">
<path fill-rule="evenodd" clip-rule="evenodd" d="M270.42 190.439C268.362 188.496 266.449 187.31 265.104 183.715C263.758 180.119 271.254 172.475 273.023 172.718C274.792 172.962 274.973 173.611 280.883 172.965C286.794 172.319 297.365 165.131 302.063 166.308C306.762 167.486 310.979 167.51 305.443 171.268C302.841 173.034 292.767 183.8 289.64 185.923C285.809 186.898 284.367 187.001 281.942 187.141C282.47 188.669 283.57 189.529 283.57 189.529L276.195 194.536C276.195 194.536 272.478 192.382 270.42 190.439Z" fill="white"/>
</mask>
<g mask="url(#mask2)">
<g opacity="0.2">
<path fill-rule="evenodd" clip-rule="evenodd" d="M273.465 193.777C270.368 187.362 273.557 172.889 272.145 171.608C270.733 170.326 263.826 181.965 263.826 181.965C263.826 181.965 260.542 185.223 265.82 190.095C271.098 194.967 276.561 200.192 273.465 193.777Z" fill="#617FC8" style="mix-blend-mode:multiply"/>
</g>
</g>
<g filter="url(#filter1_i)">
<path fill-rule="evenodd" clip-rule="evenodd" d="M136.531 119.273C150.894 111.625 159.079 89.2975 165.011 83.0196C170.944 76.7417 173.563 88.7527 172.583 92.2889C171.602 95.825 164.372 119.592 149.28 138.787C149.28 151.327 134.675 129.334 136.531 119.273Z" fill="url(#paint5_linear)"/>
</g>
<path fill-rule="evenodd" clip-rule="evenodd" d="M130.388 93.9388C130.388 93.9388 164.434 80.4746 169.036 81.3647C173.639 82.2548 159.883 97.9444 157.068 99.2104C154.254 100.476 150.428 103.565 146.195 103.675C141.962 103.785 132.233 105.881 132.233 105.881L130.388 93.9388Z" fill="url(#paint6_linear)"/>
<g filter="url(#filter2_i)">
<path fill-rule="evenodd" clip-rule="evenodd" d="M138.792 194.853C142.976 189.209 153.218 177.437 175.265 173.148C197.313 168.86 217.562 164.855 254.73 175.912C257.79 211.798 261.277 247.93 264.796 255.247C262.112 258.513 252.415 261.009 246.727 261.009C244.663 252.929 238.196 233.464 234.911 223.836C231.625 214.208 230.46 202.256 231.095 198.042C219.894 201.224 196.95 210.897 188.906 213.762C180.862 216.628 153.262 225.711 144.127 218.398C134.991 211.085 134.609 200.497 138.792 194.853Z" fill="url(#paint7_linear)"/>
</g>
<mask id="mask3" mask-type="alpha" maskUnits="userSpaceOnUse" x="136" y="168" width="129" height="94">
<path fill-rule="evenodd" clip-rule="evenodd" d="M138.792 194.853C142.976 189.209 153.218 177.437 175.265 173.148C197.313 168.86 217.562 164.855 254.73 175.912C257.79 211.798 261.277 247.93 264.796 255.247C262.112 258.513 252.415 261.009 246.727 261.009C244.663 252.929 238.196 233.464 234.911 223.836C231.625 214.208 230.46 202.256 231.095 198.042C219.894 201.224 196.95 210.897 188.906 213.762C180.862 216.628 153.262 225.711 144.127 218.398C134.991 211.085 134.609 200.497 138.792 194.853Z" fill="white"/>
</mask>
<g mask="url(#mask3)">
<g opacity="0.3">
<path fill-rule="evenodd" clip-rule="evenodd" d="M214.788 204.59C214.788 199.589 227.451 173.195 230.842 170.373C234.233 167.552 224.163 167.971 224.163 167.971C224.163 167.971 201.222 191.782 198.209 204.59C195.197 217.399 214.788 209.591 214.788 204.59Z" fill="url(#paint8_linear)" style="mix-blend-mode:multiply"/>
</g>
</g>
<path fill-rule="evenodd" clip-rule="evenodd" d="M111.198 122.351C110.089 116.79 107.95 107.041 107.523 104.958C107.096 102.875 127.785 110.07 127.785 110.07L130.387 123.707L133.365 146.77C133.365 146.77 112.307 127.913 111.198 122.351Z" fill="url(#paint9_linear)"/>
<mask id="mask4" mask-type="alpha" maskUnits="userSpaceOnUse" x="107" y="104" width="27" height="43">
<path fill-rule="evenodd" clip-rule="evenodd" d="M111.198 122.351C110.089 116.79 107.95 107.041 107.523 104.958C107.096 102.875 127.785 110.07 127.785 110.07L130.387 123.707L133.365 146.77C133.365 146.77 112.307 127.913 111.198 122.351Z" fill="white"/>
</mask>
<g mask="url(#mask4)">
<g opacity="0.2">
<path fill-rule="evenodd" clip-rule="evenodd" d="M108.652 105.538C108.652 107.632 116.503 116.585 120.745 119.04C124.986 121.494 132.628 121.267 132.628 121.267L131.464 109.21L108.652 103.45C108.652 103.45 108.652 103.444 108.652 105.538Z" fill="#7890CB" style="mix-blend-mode:multiply"/>
</g>
</g>
<path fill-rule="evenodd" clip-rule="evenodd" d="M129.237 117.602C129.237 117.602 137.093 118.881 137.634 119.863C142.742 123.574 147.657 134.617 149.756 140.338C151.855 146.059 155.879 151.967 159.507 156.561C163.134 161.154 164.874 162.102 169.628 165.501C174.381 168.899 176.127 171.596 173.437 174.13C170.747 176.663 155.257 175.679 144.229 189.457C134.596 193.406 134.608 194.851 131.746 186.317C128.884 177.784 105.349 156.448 101.532 153.44C97.7143 150.433 99.189 147.543 98.2268 138.332C97.2647 129.12 90.3241 121.652 96.1618 121.652C100.762 123.364 105.244 119.863 107.267 119.863C114.636 121.698 116.314 128.951 119.374 127.43C122.433 125.909 124.392 125.909 124.392 125.909C125.106 127.357 125.335 129.838 126.049 131.286C126.763 132.734 129.75 135.639 131.077 138.332L128.731 130.496L129.385 125.811L129.237 117.602Z" fill="white"/>
<path fill-rule="evenodd" clip-rule="evenodd" d="M129.237 117.602C129.237 117.602 137.093 118.881 137.634 119.863C142.742 123.574 147.657 134.617 149.756 140.338C151.855 146.059 155.879 151.967 159.507 156.561C163.134 161.154 164.874 162.102 169.628 165.501C174.381 168.899 176.127 171.596 173.437 174.13C170.747 176.663 155.257 175.679 144.229 189.457C134.596 193.406 134.608 194.851 131.746 186.317C128.884 177.784 105.349 156.448 101.532 153.44C97.7143 150.433 99.189 147.543 98.2268 138.332C97.2647 129.12 90.3241 121.652 96.1618 121.652C100.762 123.364 105.244 119.863 107.267 119.863C114.636 121.698 116.314 128.951 119.374 127.43C122.433 125.909 124.392 125.909 124.392 125.909C125.106 127.357 125.335 129.838 126.049 131.286C126.763 132.734 129.75 135.639 131.077 138.332L128.731 130.496L129.385 125.811L129.237 117.602Z" fill="url(#paint10_linear)"/>
<mask id="mask5" mask-type="alpha" maskUnits="userSpaceOnUse" x="93" y="117" width="82" height="76">
<path fill-rule="evenodd" clip-rule="evenodd" d="M129.237 117.602C129.237 117.602 137.093 118.881 137.634 119.863C142.742 123.574 147.657 134.617 149.756 140.338C151.855 146.059 155.879 151.967 159.507 156.561C163.134 161.154 164.874 162.102 169.628 165.501C174.381 168.899 176.127 171.596 173.437 174.13C170.747 176.663 155.257 175.679 144.229 189.457C134.596 193.406 134.608 194.851 131.746 186.317C128.884 177.784 105.349 156.448 101.532 153.44C97.7143 150.433 99.189 147.543 98.2268 138.332C97.2647 129.12 90.3241 121.652 96.1618 121.652C100.762 123.364 105.244 119.863 107.267 119.863C114.636 121.698 116.314 128.951 119.374 127.43C122.433 125.909 124.392 125.909 124.392 125.909C125.106 127.357 125.335 129.838 126.049 131.286C126.763 132.734 129.75 135.639 131.077 138.332L128.731 130.496L129.385 125.811L129.237 117.602Z" fill="white"/>
<path fill-rule="evenodd" clip-rule="evenodd" d="M129.237 117.602C129.237 117.602 137.093 118.881 137.634 119.863C142.742 123.574 147.657 134.617 149.756 140.338C151.855 146.059 155.879 151.967 159.507 156.561C163.134 161.154 164.874 162.102 169.628 165.501C174.381 168.899 176.127 171.596 173.437 174.13C170.747 176.663 155.257 175.679 144.229 189.457C134.596 193.406 134.608 194.851 131.746 186.317C128.884 177.784 105.349 156.448 101.532 153.44C97.7143 150.433 99.189 147.543 98.2268 138.332C97.2647 129.12 90.3241 121.652 96.1618 121.652C100.762 123.364 105.244 119.863 107.267 119.863C114.636 121.698 116.314 128.951 119.374 127.43C122.433 125.909 124.392 125.909 124.392 125.909C125.106 127.357 125.335 129.838 126.049 131.286C126.763 132.734 129.75 135.639 131.077 138.332L128.731 130.496L129.385 125.811L129.237 117.602Z" stroke="white"/>
</mask>
<g mask="url(#mask5)">
<g opacity="0.6">
<mask id="path-24-outside-1" maskUnits="userSpaceOnUse" x="125.43" y="136.322" width="42" height="42" fill="black">
<rect fill="white" x="125.43" y="136.322" width="42" height="42"/>
<path fill-rule="evenodd" clip-rule="evenodd" d="M129.749 138.281C130.443 139.673 138.042 152.986 139.657 154.9C141.272 156.815 146.564 162.149 148.606 164.169C150.647 166.188 163.159 174.14 163.308 176.633"/>
</mask>
<path fill-rule="evenodd" clip-rule="evenodd" d="M129.749 138.281C130.443 139.673 138.042 152.986 139.657 154.9C141.272 156.815 146.564 162.149 148.606 164.169C150.647 166.188 163.159 174.14 163.308 176.633" fill="black" fill-opacity="0.01"/>
<path d="M139.657 154.9L136.599 157.479L136.599 157.479L139.657 154.9ZM148.606 164.169L151.419 161.325L151.419 161.325L148.606 164.169ZM126.17 140.066C126.589 140.908 128.741 144.713 130.905 148.414C132.007 150.298 133.148 152.216 134.122 153.793C135.021 155.25 135.964 156.726 136.599 157.479L142.715 152.322C142.716 152.323 142.664 152.259 142.546 152.094C142.436 151.94 142.298 151.738 142.133 151.487C141.801 150.986 141.393 150.342 140.929 149.59C140.002 148.09 138.897 146.233 137.811 144.375C135.599 140.593 133.603 137.046 133.329 136.496L126.17 140.066ZM136.599 157.479C138.357 159.563 143.8 165.041 145.793 167.013L151.419 161.325C149.329 159.258 144.186 154.066 142.715 152.321L136.599 157.479ZM145.793 167.012C146.568 167.779 148.031 168.86 149.384 169.848C150.887 170.946 152.591 172.167 154.266 173.423C155.946 174.684 157.455 175.876 158.527 176.862C159.069 177.361 159.4 177.717 159.568 177.931C159.88 178.329 159.375 177.881 159.315 176.871L167.3 176.395C167.203 174.762 166.275 173.52 165.866 172.998C165.313 172.293 164.626 171.603 163.943 170.974C162.563 169.705 160.788 168.315 159.067 167.024C157.34 165.728 155.524 164.426 154.103 163.388C153.377 162.858 152.756 162.398 152.263 162.017C152.018 161.827 151.82 161.669 151.666 161.541C151.59 161.477 151.531 161.427 151.486 161.387C151.464 161.368 151.448 161.353 151.436 161.342C151.424 161.33 151.419 161.325 151.419 161.325L145.793 167.012Z" fill="#D9E8FF" mask="url(#path-24-outside-1)"/>
</g>
<path opacity="0.3" fill-rule="evenodd" clip-rule="evenodd" d="M120.131 135.783C120.131 135.783 123.619 129.44 125.65 129.44C127.682 129.44 124.939 123.271 124.939 123.271L118.605 128.061L120.131 135.783Z" fill="#CCDFFD"/>
</g>
<path fill-rule="evenodd" clip-rule="evenodd" d="M172.555 170.643C184.132 160.016 217.272 139.447 236.17 136.306C246.996 138.107 275.17 168.644 275.17 168.644C273.9 169.982 270.551 181.852 265.262 185.583C251.942 174.525 238.055 169.362 234.326 163.645C229.675 166.477 217.718 174.746 210.841 186.894C203.964 199.042 199.402 212.883 191.564 213.229C183.727 213.576 172.674 214.471 162.493 207.92C156.58 204.115 139.557 195.635 147.827 190.079C152.567 186.894 167.701 175.098 172.555 170.643Z" fill="url(#paint11_linear)"/>
<path fill-rule="evenodd" clip-rule="evenodd" d="M127.428 81.9485C128.213 83.9275 132.515 92.613 132.929 94.778C133.344 96.943 137.438 111.384 134.999 113.608C132.56 115.832 125.246 116.958 123.202 116.246C121.158 115.534 116.764 115.078 115.053 112.074C113.737 109.765 109.558 104.407 108.462 104.713C108.061 105.536 106.665 106.416 105.966 105.851C102.946 103.41 100.357 100.766 101.586 94.778C102.815 88.7903 107.124 85.8361 111.743 83.8923C116.363 81.9485 126.644 79.9695 127.428 81.9485Z" fill="url(#paint12_linear)"/>
<path fill-rule="evenodd" clip-rule="evenodd" d="M74.6205 115.164C80.2166 117.43 98.3397 108.411 104.091 109.212C109.377 109.948 102.669 101.681 100.684 100.218C98.6988 98.7551 59.0034 99.4182 56.9199 102.471C54.8364 105.525 69.9796 113.285 74.6205 115.164Z" fill="url(#paint13_linear)"/>
<mask id="mask6" mask-type="alpha" maskUnits="userSpaceOnUse" x="56" y="99" width="51" height="17">
<path fill-rule="evenodd" clip-rule="evenodd" d="M74.6205 115.164C80.2166 117.43 98.3397 108.411 104.091 109.212C109.377 109.948 102.669 101.681 100.684 100.218C98.6988 98.7551 59.0034 99.4182 56.9199 102.471C54.8364 105.525 69.9796 113.285 74.6205 115.164Z" fill="white"/>
</mask>
<g mask="url(#mask6)">
<path opacity="0.5" fill-rule="evenodd" clip-rule="evenodd" d="M63.6018 102.756C64.7784 103.184 88.6461 113.585 94.5512 112.145C100.456 110.704 79.8356 117.591 79.8356 117.591C79.8356 117.591 62.4252 102.328 63.6018 102.756Z" fill="#6B84C2"/>
</g>
<g filter="url(#filter3_i)">
<path fill-rule="evenodd" clip-rule="evenodd" d="M110.878 94.8104C110.878 94.8104 108.177 90.7065 110.265 86.6362C112.353 82.5659 123.376 87.9949 132.303 77.9595C141.23 67.9241 133.298 54.3813 124.12 57.0225C114.943 59.6638 117.193 64.3949 118.857 67.9241C120.52 71.4533 111.96 72.7788 105.839 75.2631C99.7177 77.7474 94.7212 84.4321 95.7999 94.8104C96.8785 105.189 106.507 113.686 109.571 115.25C108.68 109.117 108.64 106.299 108.64 104.591C105.125 106.215 101.031 98.1608 103.415 96.0419C107.968 91.9942 110.265 101.214 110.265 101.214C110.265 101.214 110.878 99.9009 111.96 98.6568C111.548 96.4364 110.878 94.8104 110.878 94.8104Z" fill="url(#paint14_linear)"/>
</g>
<path fill-rule="evenodd" clip-rule="evenodd" d="M129.43 125.592C132.225 126.585 132.76 131.747 133.24 133.202C133.72 134.658 131.226 121.792 131.226 121.792C130.348 123.002 128.471 114.786 128.824 115.991C129.773 119.231 128.978 122.901 129.43 125.592Z" fill="#CCDFFD"/>
<path fill-rule="evenodd" clip-rule="evenodd" d="M120.311 138.599C120.311 134.026 122.129 128.03 124.373 125.891C121.119 126.092 111.544 120.371 110.522 117.183C109.5 113.994 109.311 113.538 109.311 113.538C109.311 113.538 107.34 117.352 107.34 119.771C108.734 125.018 114.956 134.128 120.311 138.599Z" fill="url(#paint15_linear)"/>
<g filter="url(#filter4_i)">
<path fill-rule="evenodd" clip-rule="evenodd" d="M92.334 120.396C82.8814 115.2 63.9992 100.427 59.0363 101.632C54.0734 102.838 55.3613 105.078 55.3613 110.216C55.3613 115.353 81.2988 132.703 85.2924 141.288C87.0019 144.963 91.3817 154.04 99.2217 152.561C107.062 151.082 104.683 143.292 102.994 137.008C101.007 129.623 98.1548 123.596 92.334 120.396Z" fill="url(#paint16_linear)"/>
</g>
<path fill-rule="evenodd" clip-rule="evenodd" d="M117.748 94.9961C119.403 95.4362 121.471 95.1142 122.576 93.9075L117.748 94.9961Z" fill="black" fill-opacity="0.01"/>
<path d="M117.748 94.9961C119.403 95.4362 121.471 95.1142 122.576 93.9075" stroke="#381960" stroke-linecap="round"/>
<path fill-rule="evenodd" clip-rule="evenodd" d="M131.02 91.4805C132.449 91.9206 134.235 91.5985 135.19 90.3919L131.02 91.4805Z" fill="black" fill-opacity="0.01"/>
<path d="M131.02 91.4805C132.449 91.9206 134.235 91.5985 135.19 90.3919" stroke="#381960" stroke-linecap="round"/>
<path fill-rule="evenodd" clip-rule="evenodd" d="M115.956 91.9095C114.916 92.1855 114.281 93.2349 114.519 94.2843L115.423 98.277C115.669 99.3641 116.756 100.04 117.84 99.7801L123.93 98.3184C124.962 98.0706 125.621 97.0592 125.431 96.0147L124.667 91.8307C124.458 90.6829 123.315 89.9573 122.187 90.2565L115.956 91.9095Z" fill="black" fill-opacity="0.01"/>
<path fill-rule="evenodd" clip-rule="evenodd" d="M130.352 87.8953C129.342 88.1759 128.72 89.1888 128.927 90.2165L129.745 94.287C129.975 95.4324 131.134 96.1374 132.257 95.8153L135.868 94.7798C136.846 94.4992 137.458 93.5286 137.289 92.5249L136.602 88.45C136.404 87.2798 135.237 86.5377 134.094 86.8555L130.352 87.8953Z" fill="black" fill-opacity="0.01"/>
<path fill-rule="evenodd" clip-rule="evenodd" d="M115.956 91.9095C114.916 92.1855 114.281 93.2349 114.519 94.2843L115.423 98.277C115.669 99.3641 116.756 100.04 117.84 99.7801L123.93 98.3184C124.962 98.0706 125.621 97.0592 125.431 96.0147L124.667 91.8307C124.458 90.6829 123.315 89.9573 122.187 90.2565L115.956 91.9095Z" stroke="#381960"/>
<path fill-rule="evenodd" clip-rule="evenodd" d="M130.352 87.8953C129.342 88.1759 128.72 89.1888 128.927 90.2165L129.745 94.287C129.975 95.4324 131.134 96.1374 132.257 95.8153L135.868 94.7798C136.846 94.4992 137.458 93.5286 137.289 92.5249L136.602 88.45C136.404 87.2798 135.237 86.5377 134.094 86.8555L130.352 87.8953Z" stroke="#381960"/>
<path fill-rule="evenodd" clip-rule="evenodd" d="M113.892 93.3913L108.054 94.9893L109.03 96.9375L115.339 98.4269L113.892 93.3913Z" fill="#381960"/>
<path fill-rule="evenodd" clip-rule="evenodd" d="M124.607 92.1767L129.061 90.8046L129.551 93.1562L124.926 94.4456L124.607 92.1767Z" fill="#381960"/>
<path fill-rule="evenodd" clip-rule="evenodd" d="M117.846 208.627C161.098 235.654 205.768 238.608 220.788 214.571C238.825 179.532 176.975 194.693 133.723 167.666C90.471 140.639 91.5401 118.08 61.706 107.336C46.6865 131.372 74.5943 181.6 117.846 208.627Z" fill="black" fill-opacity="0.01"/>
<mask id="mask7" mask-type="alpha" maskUnits="userSpaceOnUse" x="57" y="107" width="167" height="124">
<path fill-rule="evenodd" clip-rule="evenodd" d="M117.846 208.627C161.098 235.654 205.768 238.608 220.788 214.571C238.825 179.532 176.975 194.693 133.723 167.666C90.471 140.639 91.5401 118.08 61.706 107.336C46.6865 131.372 74.5943 181.6 117.846 208.627Z" fill="white"/>
</mask>
<g mask="url(#mask7)">
<g filter="url(#filter5_i)">
<path fill-rule="evenodd" clip-rule="evenodd" d="M40.4794 174.509C63.0547 189.17 88.9152 189.414 98.2402 175.054C107.565 160.695 96.8238 137.17 74.2486 122.509C51.6733 107.848 25.8128 107.604 16.4877 121.964C7.16264 136.323 17.904 159.848 40.4794 174.509Z" fill="#EEF5FF"/>
</g>
<g filter="url(#filter6_i)">
<path fill-rule="evenodd" clip-rule="evenodd" d="M119.677 232.944C136.314 225.185 141.486 201.065 131.229 179.068C120.972 157.072 99.1701 145.529 82.5328 153.288C65.8955 161.046 60.7234 185.166 70.9805 207.163C81.2375 229.159 103.04 240.702 119.677 232.944Z" fill="#EEF5FF"/>
</g>
<g filter="url(#filter7_i)">
<path fill-rule="evenodd" clip-rule="evenodd" d="M162.822 270.017C179.459 262.259 184.631 238.138 174.374 216.142C164.117 194.146 142.315 182.603 125.677 190.361C109.04 198.119 103.868 222.24 114.125 244.237C124.382 266.233 146.184 277.775 162.822 270.017Z" fill="#EEF5FF"/>
</g>
<g filter="url(#filter8_i)">
<path fill-rule="evenodd" clip-rule="evenodd" d="M243.364 282.482C260.002 274.724 265.174 250.603 254.917 228.606C244.66 206.61 222.858 195.068 206.22 202.826C189.583 210.584 184.411 234.704 194.668 256.701C204.925 278.697 226.727 290.24 243.364 282.482Z" fill="#EEF5FF"/>
</g>
<g filter="url(#filter9_i)">
<path fill-rule="evenodd" clip-rule="evenodd" d="M186.377 258.105C204.597 260.342 220.754 250.865 222.464 236.936C224.174 223.008 210.79 209.903 192.57 207.666C174.349 205.428 158.193 214.906 156.482 228.835C154.772 242.763 168.156 255.868 186.377 258.105Z" fill="#EEF5FF"/>
</g>
</g>
<path fill-rule="evenodd" clip-rule="evenodd" d="M136.242 140.055C136.242 140.055 143.807 138.624 144.714 137.607C145.621 136.59 150.744 148.344 150.744 148.344L148.257 151.168H142.327L136.242 140.055Z" fill="url(#paint17_linear)"/>
<path d="M124.434 62.7207L124.874 61.7632L125.443 62.6431C125.908 63.346 126.563 63.9024 127.332 64.2475L128.302 64.6745L127.423 65.2568C126.713 65.7184 126.152 66.3741 125.805 67.1459L125.378 68.1034L124.796 67.2235C124.333 66.5187 123.677 65.9618 122.907 65.6191L121.949 65.1921L122.829 64.6098C123.538 64.1514 124.096 63.4944 124.434 62.7207Z" fill="#F9F7FD"/>
<path d="M95.5664 55.5266L95.8122 54.9702L96.1487 55.4748C96.4152 55.8873 96.7979 56.2114 97.2485 56.4065L97.8049 56.6653L97.2873 57.0017C96.8808 57.2692 96.5579 57.6459 96.3557 58.0886L96.1098 58.6579L95.7734 58.1403C95.5069 57.7279 95.1242 57.4037 94.6736 57.2087L94.1172 56.9499L94.6218 56.6264C95.0318 56.3536 95.3586 55.9731 95.5664 55.5266Z" fill="#F9F7FD"/>
<path d="M186.492 104.735L186.738 104.178L187.074 104.696C187.351 105.099 187.731 105.42 188.174 105.627L188.731 105.873L188.226 106.21C187.814 106.476 187.489 106.859 187.294 107.31L187.036 107.866L186.699 107.361C186.434 106.95 186.057 106.622 185.612 106.417L185.043 106.171L185.561 105.834C185.973 105.568 186.297 105.185 186.492 104.735Z" fill="#F9F7FD"/>
<path d="M231.001 79.5029L231.428 78.5454L232.01 79.4253C232.473 80.1306 233.129 80.6877 233.9 81.0298L234.857 81.4567L233.977 82.039C233.271 82.5008 232.714 83.1569 232.373 83.9281L231.933 84.8857L231.363 84.0058C230.895 83.3061 230.241 82.7506 229.474 82.4013L228.504 81.9743L229.384 81.3921C230.093 80.9305 230.654 80.2747 231.001 79.5029Z" fill="#F9F7FD"/>
<path d="M225.216 44.1526L225.94 42.5352L226.911 44.0232C227.69 45.2062 228.79 46.1439 230.081 46.7275L231.698 47.4391L230.21 48.4096C229.029 49.197 228.092 50.2997 227.506 51.5926L226.781 53.21L225.811 51.722C225.031 50.5389 223.932 49.6012 222.641 49.0177L221.023 48.2931L222.511 47.3227C223.695 46.543 224.632 45.4437 225.216 44.1526Z" fill="#F9F7FD"/>
<path d="M115.468 33.258L116.193 31.6406L117.163 33.1157C117.939 34.3021 119.04 35.2408 120.334 35.82L121.951 36.5446L120.476 37.515C119.286 38.287 118.346 39.3885 117.772 40.6852L117.047 42.3026L116.077 40.8275C115.299 39.6377 114.193 38.6985 112.894 38.1232L111.289 37.3986L112.764 36.4281C113.951 35.6522 114.889 34.5519 115.468 33.258Z" fill="#F9F7FD"/>
<defs>
<filter id="filter0_f" x="0.627571" y="37.1735" width="274.558" height="262.464" filterUnits="userSpaceOnUse" color-interpolation-filters="sRGB">
<feFlood flood-opacity="0" result="BackgroundImageFix"/>
<feBlend mode="normal" in="SourceGraphic" in2="BackgroundImageFix" result="shape"/>
<feGaussianBlur stdDeviation="49.9909" result="effect1_foregroundBlur"/>
</filter>
<filter id="filter1_i" x="136.367" y="81.2334" width="36.4161" height="62.316" filterUnits="userSpaceOnUse" color-interpolation-filters="sRGB">
<feFlood flood-opacity="0" result="BackgroundImageFix"/>
<feBlend mode="normal" in="SourceGraphic" in2="BackgroundImageFix" result="shape"/>
<feColorMatrix in="SourceAlpha" type="matrix" values="0 0 0 0 0 0 0 0 0 0 0 0 0 0 0 0 0 0 127 0" result="hardAlpha"/>
<feOffset dy="1"/>
<feGaussianBlur stdDeviation="6"/>
<feComposite in2="hardAlpha" operator="arithmetic" k2="-1" k3="1"/>
<feColorMatrix type="matrix" values="0 0 0 0 0.898039 0 0 0 0 0.941176 0 0 0 0 1 0 0 0 1 0"/>
<feBlend mode="normal" in2="shape" result="effect1_innerShadow"/>
</filter>
<filter id="filter2_i" x="136.23" y="168.766" width="144.567" height="96.2423" filterUnits="userSpaceOnUse" color-interpolation-filters="sRGB">
<feFlood flood-opacity="0" result="BackgroundImageFix"/>
<feBlend mode="normal" in="SourceGraphic" in2="BackgroundImageFix" result="shape"/>
<feColorMatrix in="SourceAlpha" type="matrix" values="0 0 0 0 0 0 0 0 0 0 0 0 0 0 0 0 0 0 127 0" result="hardAlpha"/>
<feOffset dx="16" dy="4"/>
<feGaussianBlur stdDeviation="14"/>
<feComposite in2="hardAlpha" operator="arithmetic" k2="-1" k3="1"/>
<feColorMatrix type="matrix" values="0 0 0 0 0.103708 0 0 0 0 0.317385 0 0 0 0 0.809604 0 0 0 1 0"/>
<feBlend mode="normal" in2="shape" result="effect1_innerShadow"/>
</filter>
<filter id="filter3_i" x="95.6523" y="56.6875" width="53.5569" height="70.5623" filterUnits="userSpaceOnUse" color-interpolation-filters="sRGB">
<feFlood flood-opacity="0" result="BackgroundImageFix"/>
<feBlend mode="normal" in="SourceGraphic" in2="BackgroundImageFix" result="shape"/>
<feColorMatrix in="SourceAlpha" type="matrix" values="0 0 0 0 0 0 0 0 0 0 0 0 0 0 0 0 0 0 127 0" result="hardAlpha"/>
<feOffset dx="13" dy="12"/>
<feGaussianBlur stdDeviation="9"/>
<feComposite in2="hardAlpha" operator="arithmetic" k2="-1" k3="1"/>
<feColorMatrix type="matrix" values="0 0 0 0 0 0 0 0 0 0 0 0 0 0 0 0 0 0 0.139889 0"/>
<feBlend mode="normal" in2="shape" result="effect1_innerShadow"/>
</filter>
<filter id="filter4_i" x="55.2109" y="93.563" width="61.49" height="59.1599" filterUnits="userSpaceOnUse" color-interpolation-filters="sRGB">
<feFlood flood-opacity="0" result="BackgroundImageFix"/>
<feBlend mode="normal" in="SourceGraphic" in2="BackgroundImageFix" result="shape"/>
<feColorMatrix in="SourceAlpha" type="matrix" values="0 0 0 0 0 0 0 0 0 0 0 0 0 0 0 0 0 0 127 0" result="hardAlpha"/>
<feOffset dx="18" dy="-8"/>
<feGaussianBlur stdDeviation="6"/>
<feComposite in2="hardAlpha" operator="arithmetic" k2="-1" k3="1"/>
<feColorMatrix type="matrix" values="0 0 0 0 0.898039 0 0 0 0 0.941176 0 0 0 0 1 0 0 0 1 0"/>
<feBlend mode="normal" in2="shape" result="effect1_innerShadow"/>
</filter>
<filter id="filter5_i" x="-7.875" y="90.3516" width="109.476" height="95.3143" filterUnits="userSpaceOnUse" color-interpolation-filters="sRGB">
<feFlood flood-opacity="0" result="BackgroundImageFix"/>
<feBlend mode="normal" in="SourceGraphic" in2="BackgroundImageFix" result="shape"/>
<feColorMatrix in="SourceAlpha" type="matrix" values="0 0 0 0 0 0 0 0 0 0 0 0 0 0 0 0 0 0 127 0" result="hardAlpha"/>
<feOffset dx="-27.5" dy="-39.3"/>
<feGaussianBlur stdDeviation="10.5"/>
<feComposite in2="hardAlpha" operator="arithmetic" k2="-1" k3="1"/>
<feColorMatrix type="matrix" values="0 0 0 0 0.580392 0 0 0 0 0.67451 0 0 0 0 0.854902 0 0 0 0.43 0"/>
<feBlend mode="normal" in2="shape" result="effect1_innerShadow"/>
</filter>
<filter id="filter6_i" x="50.8109" y="129.872" width="85.6885" height="105.488" filterUnits="userSpaceOnUse" color-interpolation-filters="sRGB">
<feFlood flood-opacity="0" result="BackgroundImageFix"/>
<feBlend mode="normal" in="SourceGraphic" in2="BackgroundImageFix" result="shape"/>
<feColorMatrix in="SourceAlpha" type="matrix" values="0 0 0 0 0 0 0 0 0 0 0 0 0 0 0 0 0 0 127 0" result="hardAlpha"/>
<feOffset dx="-14.9" dy="-24.9"/>
<feGaussianBlur stdDeviation="10.5"/>
<feComposite in2="hardAlpha" operator="arithmetic" k2="-1" k3="1"/>
<feColorMatrix type="matrix" values="0 0 0 0 0.580392 0 0 0 0 0.67451 0 0 0 0 0.854902 0 0 0 0.43 0"/>
<feBlend mode="normal" in2="shape" result="effect1_innerShadow"/>
</filter>
<filter id="filter7_i" x="87.8555" y="175.245" width="91.7885" height="97.1882" filterUnits="userSpaceOnUse" color-interpolation-filters="sRGB">
<feFlood flood-opacity="0" result="BackgroundImageFix"/>
<feBlend mode="normal" in="SourceGraphic" in2="BackgroundImageFix" result="shape"/>
<feColorMatrix in="SourceAlpha" type="matrix" values="0 0 0 0 0 0 0 0 0 0 0 0 0 0 0 0 0 0 127 0" result="hardAlpha"/>
<feOffset dx="-24.9" dy="-12.7"/>
<feGaussianBlur stdDeviation="10.5"/>
<feComposite in2="hardAlpha" operator="arithmetic" k2="-1" k3="1"/>
<feColorMatrix type="matrix" values="0 0 0 0 0.580392 0 0 0 0 0.67451 0 0 0 0 0.854902 0 0 0 0.43 0"/>
<feBlend mode="normal" in2="shape" result="effect1_innerShadow"/>
</filter>
<filter id="filter8_i" x="179.498" y="200.41" width="80.6885" height="97.0882" filterUnits="userSpaceOnUse" color-interpolation-filters="sRGB">
<feFlood flood-opacity="0" result="BackgroundImageFix"/>
<feBlend mode="normal" in="SourceGraphic" in2="BackgroundImageFix" result="shape"/>
<feColorMatrix in="SourceAlpha" type="matrix" values="0 0 0 0 0 0 0 0 0 0 0 0 0 0 0 0 0 0 127 0" result="hardAlpha"/>
<feOffset dx="-9.9" dy="12.6"/>
<feGaussianBlur stdDeviation="10.5"/>
<feComposite in2="hardAlpha" operator="arithmetic" k2="-1" k3="1"/>
<feColorMatrix type="matrix" values="0 0 0 0 0.580392 0 0 0 0 0.67451 0 0 0 0 0.854902 0 0 0 0.43 0"/>
<feBlend mode="normal" in2="shape" result="effect1_innerShadow"/>
</filter>
<filter id="filter9_i" x="137.536" y="207.338" width="85.0762" height="53.6935" filterUnits="userSpaceOnUse" color-interpolation-filters="sRGB">
<feFlood flood-opacity="0" result="BackgroundImageFix"/>
<feBlend mode="normal" in="SourceGraphic" in2="BackgroundImageFix" result="shape"/>
<feColorMatrix in="SourceAlpha" type="matrix" values="0 0 0 0 0 0 0 0 0 0 0 0 0 0 0 0 0 0 127 0" result="hardAlpha"/>
<feOffset dx="-18.8" dy="2.6"/>
<feGaussianBlur stdDeviation="10.5"/>
<feComposite in2="hardAlpha" operator="arithmetic" k2="-1" k3="1"/>
<feColorMatrix type="matrix" values="0 0 0 0 0.580392 0 0 0 0 0.67451 0 0 0 0 0.854902 0 0 0 0.43 0"/>
<feBlend mode="normal" in2="shape" result="effect1_innerShadow"/>
</filter>
<radialGradient id="paint0_radial" cx="0" cy="0" r="1" gradientUnits="userSpaceOnUse" gradientTransform="translate(138.384 255.469) rotate(90) scale(23.437 378.444)">
<stop/>
<stop offset="1" stop-color="#7B61FF"/>
</radialGradient>
<radialGradient id="paint1_radial" cx="0" cy="0" r="1" gradientUnits="userSpaceOnUse" gradientTransform="translate(106.526 173.602) rotate(-67.7672) scale(80.252 140.768)">
<stop stop-color="#F261FF"/>
<stop offset="1" stop-color="#450993"/>
</radialGradient>
<radialGradient id="paint2_radial" cx="0" cy="0" r="1" gradientUnits="userSpaceOnUse" gradientTransform="translate(146.345 127.406) rotate(108.466) scale(84.7254 389.222)">
<stop stop-color="#F4F8FF"/>
<stop offset="1" stop-color="#89B1E9"/>
</radialGradient>
<linearGradient id="paint3_linear" x1="264.825" y1="255.861" x2="261.569" y2="280.258" gradientUnits="userSpaceOnUse">
<stop stop-color="#C4B9FF"/>
<stop offset="1" stop-color="#411982"/>
</linearGradient>
<linearGradient id="paint4_linear" x1="263.348" y1="162.288" x2="260.125" y2="193.151" gradientUnits="userSpaceOnUse">
<stop stop-color="#91BAFF"/>
<stop offset="1" stop-color="#5B87D2"/>
</linearGradient>
<linearGradient id="paint5_linear" x1="156.477" y1="77.3642" x2="127.476" y2="110.378" gradientUnits="userSpaceOnUse">
<stop stop-color="#F5F8FF"/>
<stop offset="1" stop-color="white"/>
</linearGradient>
<linearGradient id="paint6_linear" x1="151.966" y1="114.496" x2="163.768" y2="82.4316" gradientUnits="userSpaceOnUse">
<stop stop-color="#6B86C0"/>
<stop offset="1" stop-color="#A1B8E3"/>
</linearGradient>
<linearGradient id="paint7_linear" x1="217.401" y1="237.146" x2="253.892" y2="200.308" gradientUnits="userSpaceOnUse">
<stop stop-color="#A22DDB"/>
<stop offset="1" stop-color="#B04FFD"/>
</linearGradient>
<linearGradient id="paint8_linear" x1="225.093" y1="222.476" x2="247.306" y2="201.513" gradientUnits="userSpaceOnUse">
<stop stop-color="#002343"/>
<stop offset="1" stop-color="#7B61FF" stop-opacity="0.73"/>
</linearGradient>
<linearGradient id="paint9_linear" x1="112.15" y1="109.813" x2="112.15" y2="136.742" gradientUnits="userSpaceOnUse">
<stop stop-color="#6081C1"/>
<stop offset="1" stop-color="#90AADB"/>
</linearGradient>
<linearGradient id="paint10_linear" x1="166.261" y1="180.869" x2="159.689" y2="162.109" gradientUnits="userSpaceOnUse">
<stop stop-color="#B1C2E4"/>
<stop offset="1" stop-color="white" stop-opacity="0.01"/>
</linearGradient>
<linearGradient id="paint11_linear" x1="172.442" y1="146.786" x2="181.261" y2="181.043" gradientUnits="userSpaceOnUse">
<stop stop-color="#D661FF"/>
<stop offset="1" stop-color="#7500BD"/>
</linearGradient>
<linearGradient id="paint12_linear" x1="139.142" y1="80.8385" x2="111.878" y2="95.1777" gradientUnits="userSpaceOnUse">
<stop stop-color="white"/>
<stop offset="0.701101" stop-color="#B8CBEB"/>
<stop offset="1" stop-color="#A1B8E3"/>
</linearGradient>
<linearGradient id="paint13_linear" x1="114.776" y1="119.07" x2="115.661" y2="99.2969" gradientUnits="userSpaceOnUse">
<stop stop-color="#7992C7"/>
<stop offset="1" stop-color="#A1B8E3"/>
</linearGradient>
<linearGradient id="paint14_linear" x1="139.025" y1="36.0978" x2="91.7483" y2="47.7219" gradientUnits="userSpaceOnUse">
<stop stop-color="#7B61FF"/>
<stop offset="1" stop-color="#3300FF"/>
</linearGradient>
<linearGradient id="paint15_linear" x1="113.252" y1="131.31" x2="119.422" y2="127.366" gradientUnits="userSpaceOnUse">
<stop stop-color="#EEF5FF"/>
<stop offset="1" stop-color="#ADC8F2"/>
</linearGradient>
<linearGradient id="paint16_linear" x1="83.77" y1="100.716" x2="67.438" y2="135.407" gradientUnits="userSpaceOnUse">
<stop stop-color="#F5F8FF"/>
<stop offset="1" stop-color="white"/>
</linearGradient>
<linearGradient id="paint17_linear" x1="139.742" y1="134.044" x2="135.67" y2="149.664" gradientUnits="userSpaceOnUse">
<stop stop-color="#EEF5FF"/>
<stop offset="1" stop-color="#D9E8FF"/>
</linearGradient>
</defs>
</svg>
