<svg width="188" height="146" viewBox="0 0 188 146" fill="none" xmlns="http://www.w3.org/2000/svg">
<path d="M94.8383 127.279C125.05 127.279 149.542 102.786 149.542 72.4672C149.542 42.148 124.942 17.6553 94.8383 17.6553C64.627 17.6553 40.1343 42.148 40.1343 72.4672C40.1343 102.786 64.627 127.279 94.8383 127.279Z" fill="#EAEEF9"/>
<path d="M145.55 36.6454C147.993 36.6454 149.974 34.6648 149.974 32.2216C149.974 29.7785 147.993 27.7979 145.55 27.7979C143.107 27.7979 141.126 29.7785 141.126 32.2216C141.126 34.6648 143.107 36.6454 145.55 36.6454Z" fill="#F1F3F9"/>
<path d="M152.024 19.3816C153.693 19.3816 155.045 18.029 155.045 16.3605C155.045 14.692 153.693 13.3394 152.024 13.3394C150.356 13.3394 149.003 14.692 149.003 16.3605C149.003 18.029 150.356 19.3816 152.024 19.3816Z" fill="#EAEEF9"/>
<path d="M35.6027 44.198C37.2712 44.198 38.6238 42.8454 38.6238 41.1769C38.6238 39.5084 37.2712 38.1558 35.6027 38.1558C33.9341 38.1558 32.5815 39.5084 32.5815 41.1769C32.5815 42.8454 33.9341 44.198 35.6027 44.198Z" fill="#EAEEF9"/>
<path d="M52.2188 128.142C55.3175 128.142 57.8295 125.63 57.8295 122.532C57.8295 119.433 55.3175 116.921 52.2188 116.921C49.1201 116.921 46.6082 119.433 46.6082 122.532C46.6082 125.63 49.1201 128.142 52.2188 128.142Z" fill="#EAEEF9"/>
<g filter="url(#filter0_d_3340_375564)">
<path d="M166 87.1461C166 101.088 154.495 112.363 140.145 112.363C139.898 112.363 137.795 112.363 122.331 112.363C111.569 112.363 94.3735 112.363 66.9106 112.363H53.7976C36.6023 112.726 22.8708 99.2694 22.8708 83.0242C22.8708 66.6577 36.726 53.0796 54.1687 53.9283C69.1373 8.10222 137.671 14.5276 143.485 61.9296C156.351 63.5057 166 74.1742 166 87.1461Z" fill="url(#paint0_linear_3340_375564)"/>
</g>
<path d="M140.145 112.363C154.372 112.363 166 101.088 166 87.1461C166 73.2044 154.372 61.9297 140.145 61.9297C125.919 61.9297 114.291 73.2044 114.291 87.1461C114.291 101.088 125.919 112.363 140.145 112.363Z" fill="url(#paint1_linear_3340_375564)"/>
<path d="M97.9612 112.605C123.321 112.605 143.98 92.4806 143.98 67.6278C143.98 42.7751 123.321 22.6504 97.9612 22.6504C72.6012 22.6504 51.9421 42.7751 51.9421 67.6278C51.9421 92.4806 72.4775 112.605 97.9612 112.605Z" fill="url(#paint2_linear_3340_375564)"/>
<path d="M83.9598 68.9172L86.069 66.8033C86.6841 66.1867 86.6841 65.1298 86.069 64.5132C85.4538 63.8966 84.3993 63.8966 83.7841 64.5132L81.675 66.6271L79.5658 64.5132C78.9507 63.8966 77.8961 63.8966 77.281 64.5132C76.6658 65.1298 76.6658 66.1867 77.281 66.8033L79.3901 68.9172L77.281 71.0311C76.6658 71.6476 76.6658 72.7046 77.281 73.3212C77.6325 73.6735 77.984 73.7615 78.4234 73.7615C78.8628 73.7615 79.2143 73.5854 79.5658 73.3212L81.675 71.2072L83.7841 73.3212C84.1356 73.6735 84.4871 73.7615 84.9265 73.7615C85.3659 73.7615 85.7175 73.5854 86.069 73.3212C86.6841 72.7046 86.6841 71.6476 86.069 71.0311L83.9598 68.9172Z" fill="#989FB0"/>
<path d="M106.333 68.9172L108.676 66.8033C109.36 66.1867 109.36 65.1298 108.676 64.5132C107.993 63.8966 106.821 63.8966 106.137 64.5132L103.794 66.6271L101.45 64.5132C100.767 63.8966 99.5951 63.8966 98.9116 64.5132C98.228 65.1298 98.228 66.1867 98.9116 66.8033L101.255 68.9172L98.9116 71.0311C98.228 71.6476 98.228 72.7046 98.9116 73.3212C99.3021 73.6735 99.6927 73.7615 100.181 73.7615C100.669 73.7615 101.06 73.5854 101.45 73.3212L103.794 71.2072L106.137 73.3212C106.528 73.6735 106.918 73.7615 107.407 73.7615C107.895 73.7615 108.285 73.5854 108.676 73.3212C109.36 72.7046 109.36 71.6476 108.676 71.0311L106.333 68.9172Z" fill="#989FB0"/>
<path fill-rule="evenodd" clip-rule="evenodd" d="M45.2449 26.3431C45.4978 25.3481 46.5094 24.7466 47.5043 24.9995L54.5394 26.7877C55.5343 27.0406 56.1359 28.0522 55.883 29.0472C55.6301 30.0421 54.6185 30.6436 53.6236 30.3907L46.5885 28.6025C45.5935 28.3496 44.992 27.338 45.2449 26.3431Z" fill="#989FB0"/>
<path fill-rule="evenodd" clip-rule="evenodd" d="M51.2225 6.55827C52.0719 5.98172 53.2278 6.2029 53.8044 7.05229L62.2143 19.4422C62.7909 20.2916 62.5697 21.4475 61.7203 22.024C60.8709 22.6006 59.715 22.3794 59.1384 21.53L50.7284 9.14015C50.1519 8.29076 50.3731 7.13481 51.2225 6.55827Z" fill="#989FB0"/>
<path fill-rule="evenodd" clip-rule="evenodd" d="M66.8228 0.970238C67.8298 0.770911 68.8078 1.4257 69.0071 2.43274L71.9147 17.1223C72.114 18.1293 71.4592 19.1073 70.4522 19.3066C69.4451 19.5059 68.4672 18.8512 68.2678 17.8441L65.3603 3.15457C65.161 2.14752 65.8157 1.16957 66.8228 0.970238Z" fill="#989FB0"/>
<rect x="81.1355" y="83.4727" width="24.8164" height="3.23692" fill="#989FB0"/>
<path d="M96.2412 84.5518H100.557V89.9466C100.557 91.1384 99.591 92.1046 98.3992 92.1046C97.2074 92.1046 96.2412 91.1384 96.2412 89.9466V84.5518Z" fill="#989FB0"/>
<path d="M155.644 37.1469C155.175 39.0854 154.471 40.9494 153.61 42.6643C151.341 46.6905 147.977 49.9711 143.752 51.9842C139.371 54.1464 134.207 54.892 128.965 53.9227C116.76 51.4623 108.858 40.1292 111.44 28.4234C114.021 16.7176 125.835 9.18712 138.119 11.6476C142.5 12.5423 146.334 14.5554 149.542 17.4632C154.862 22.6824 157.131 30.0637 155.644 37.1469Z" fill="url(#paint3_linear_3340_375564)"/>
<path d="M130.277 22.1245L130.277 22.1245L130.278 22.1327L131.172 33.0057C131.247 34.293 132.256 35.4185 133.521 35.4185C134.785 35.4185 135.794 34.293 135.869 33.0057L136.764 22.1327L136.764 22.1327L136.764 22.1234C136.898 20.0178 135.48 18.2339 133.521 18.2339C131.556 18.2339 130.143 20.0916 130.277 22.1245Z" fill="white" stroke="white"/>
<path d="M133.521 39.814C131.725 39.814 130.268 41.2272 130.268 43.0114C130.268 44.7956 131.725 46.2088 133.521 46.2088C135.317 46.2088 136.773 44.7956 136.773 43.0114C136.773 41.2272 135.317 39.814 133.521 39.814Z" fill="white" stroke="white"/>
<defs>
<filter id="filter0_d_3340_375564" x="0.87085" y="11.7598" width="187.129" height="133.61" filterUnits="userSpaceOnUse" color-interpolation-filters="sRGB">
<feFlood flood-opacity="0" result="BackgroundImageFix"/>
<feColorMatrix in="SourceAlpha" type="matrix" values="0 0 0 0 0 0 0 0 0 0 0 0 0 0 0 0 0 0 127 0" result="hardAlpha"/>
<feOffset dy="11"/>
<feGaussianBlur stdDeviation="11"/>
<feColorMatrix type="matrix" values="0 0 0 0 0.397708 0 0 0 0 0.47749 0 0 0 0 0.575 0 0 0 0.27 0"/>
<feBlend mode="normal" in2="BackgroundImageFix" result="effect1_dropShadow_3340_375564"/>
<feBlend mode="normal" in="SourceGraphic" in2="effect1_dropShadow_3340_375564" result="shape"/>
</filter>
<linearGradient id="paint0_linear_3340_375564" x1="94.4354" y1="59.7901" x2="94.3906" y2="113.336" gradientUnits="userSpaceOnUse">
<stop stop-color="white"/>
<stop offset="0.9964" stop-color="#ECF0F5"/>
</linearGradient>
<linearGradient id="paint1_linear_3340_375564" x1="111.539" y1="56.5006" x2="133.956" y2="81.518" gradientUnits="userSpaceOnUse">
<stop stop-color="#BCCBE1"/>
<stop offset="0.9942" stop-color="white" stop-opacity="0"/>
</linearGradient>
<linearGradient id="paint2_linear_3340_375564" x1="47.6329" y1="46.9889" x2="83.5602" y2="61.3352" gradientUnits="userSpaceOnUse">
<stop stop-color="#E2E8F0"/>
<stop offset="0.9942" stop-color="white" stop-opacity="0"/>
</linearGradient>
<linearGradient id="paint3_linear_3340_375564" x1="110.93" y1="32.7658" x2="156.099" y2="32.7658" gradientUnits="userSpaceOnUse">
<stop stop-color="#B0BACC"/>
<stop offset="1" stop-color="#969EAE"/>
</linearGradient>
</defs>
</svg>
