<svg width="100" height="117" viewBox="0 0 100 117" fill="none" xmlns="http://www.w3.org/2000/svg">
<path d="M50 110.896C77.6134 110.896 100 88.1297 100 59.9479C100 31.7661 77.5148 9 50 9C22.3866 9 0 31.7661 0 59.9479C0 88.1297 22.3866 110.896 50 110.896Z" fill="url(#paint0_linear_12546_3024)"/>
<path d="M88.6951 44.1971C88.6419 43.0052 88.7482 42.1925 87.951 42.0842C87.4195 42.03 86.9944 42.0842 86.7818 41.5966C86.5692 41.109 86.2503 40.7297 86.5692 40.2963C87.3664 39.1044 87.1538 39.2127 85.772 37.9125C84.9216 37.0998 84.5496 38.7793 83.6461 38.4001C83.1678 38.1834 82.6895 38.1834 82.5832 37.6416C82.3174 36.233 82.2643 36.4497 80.351 36.558C79.6601 36.6122 79.6601 37.154 79.6069 37.8041C79.5538 38.3459 79.0755 38.4001 78.5971 38.671C77.7468 39.1586 77.2153 37.5332 76.4181 38.4543C76.0461 38.8335 75.674 39.2669 75.3552 39.7003C75.0894 40.3505 75.674 40.513 75.9398 41.0548V41.109C75.9398 41.109 75.9398 41.109 75.9398 41.1631C75.9929 41.3257 75.9929 41.4882 75.8866 41.6507C75.8866 41.7049 75.7803 41.8674 75.7803 41.9216C75.6209 42.355 75.6209 42.6259 75.1426 42.7343C73.8139 43.0052 73.9733 43.0593 74.0796 45.0097C74.1328 46.2016 75.5677 45.3348 75.9398 46.2016C76.0992 46.5809 76.4181 47.0143 76.2587 47.3394C76.1524 47.6103 75.8335 47.8812 75.7803 48.2604C75.6209 48.8563 76.3118 49.2898 77.0027 49.8857C77.8531 50.6984 78.2251 49.0189 79.1286 49.3981C80.1915 49.8315 80.0853 49.6148 80.2978 50.7526C80.4573 51.5652 81.4139 51.3485 82.4237 51.2943C83.593 51.2402 82.7426 49.7774 83.593 49.3981C83.7524 49.3439 83.965 49.2356 84.1244 49.1272C84.6027 48.8563 84.9216 49.1814 85.3468 49.5065C86.0377 49.9399 86.4098 49.2356 87.207 48.3687C87.6853 47.827 87.207 47.3936 86.8349 46.9601C86.4629 46.5267 86.7818 46.1475 86.8881 45.6057C87.3132 44.6847 88.8014 45.389 88.6951 44.1971ZM83.2741 45.6599C82.3174 46.7434 80.723 46.8518 79.6601 45.8766C78.5971 44.9014 78.4908 43.2761 79.4475 42.1925C80.4041 41.109 81.9985 41.0006 83.0615 41.9758C84.1244 42.951 84.2307 44.5763 83.2741 45.6599Z" fill="#C8CEDD"/>
<path d="M36.1515 87.7671C36.0861 86.3001 36.2169 85.2999 35.2358 85.1666C34.5816 85.0999 34.0583 85.1666 33.7967 84.5664C33.5351 83.9663 33.1426 83.4996 33.5351 82.9661C34.5162 81.4992 34.2546 81.6325 32.5539 80.0322C31.5073 79.032 31.0494 81.0991 29.9374 80.6323C29.3487 80.3656 28.76 80.3656 28.6292 79.6988C28.3021 77.9651 28.2367 78.2318 25.8819 78.3652C25.0315 78.4319 25.0315 79.0987 24.9661 79.8988C24.9007 80.5656 24.312 80.6323 23.7233 80.9657C22.6767 81.5658 22.0226 79.5654 21.0414 80.699C20.5835 81.1658 20.1256 81.6992 19.7332 82.2326C19.4061 83.0328 20.1256 83.2328 20.4527 83.8996V83.9663C20.4527 83.9663 20.4527 83.9663 20.4527 84.033C20.5181 84.233 20.5181 84.4331 20.3873 84.6331C20.3873 84.6998 20.2565 84.8998 20.2565 84.9665C20.0602 85.5 20.0602 85.8334 19.4715 85.9667C17.8362 86.3001 18.0325 86.3668 18.1633 88.7673C18.2287 90.2342 19.9948 89.1674 20.4527 90.2342C20.6489 90.701 21.0414 91.2344 20.8452 91.6345C20.7143 91.9679 20.3219 92.3013 20.2565 92.7681C20.0602 93.5016 20.9106 94.035 21.7609 94.7685C22.8075 95.7687 23.2654 93.7016 24.3774 94.1684C25.6856 94.7018 25.5548 94.4351 25.8165 95.8354C26.0127 96.8356 27.1901 96.5689 28.4329 96.5022C29.872 96.4355 28.8254 94.6351 29.872 94.1684C30.0682 94.1017 30.3299 93.9683 30.5261 93.835C31.1148 93.5016 31.5073 93.9017 32.0306 94.3017C32.8809 94.8352 33.3388 93.9683 34.32 92.9015C34.9087 92.2346 34.32 91.7012 33.8621 91.1678C33.4042 90.6343 33.7967 90.1676 33.9275 89.5008C34.4508 88.3672 36.2824 89.234 36.1515 87.7671ZM29.4795 89.5674C28.3021 90.901 26.3398 91.0344 25.0315 89.8342C23.7233 88.6339 23.5925 86.6335 24.7699 85.2999C25.9473 83.9663 27.9096 83.833 29.2179 85.0332C30.5261 86.2334 30.6569 88.2338 29.4795 89.5674Z" fill="#C8CEDD"/>
<path d="M64.4914 56.8435C65.7707 56.8435 66.8078 55.7927 66.8078 54.4965C66.8078 53.2002 65.7707 52.1494 64.4914 52.1494C63.2121 52.1494 62.175 53.2002 62.175 54.4965C62.175 55.7927 63.2121 56.8435 64.4914 56.8435Z" fill="#EAEEF9"/>
<path d="M67.8815 47.6842C68.7551 47.6842 69.4634 46.9666 69.4634 46.0814C69.4634 45.1961 68.7551 44.4785 67.8815 44.4785C67.0078 44.4785 66.2996 45.1961 66.2996 46.0814C66.2996 46.9666 67.0078 47.6842 67.8815 47.6842Z" fill="#EAEEF9"/>
<path d="M78.9511 90.0212L81.2479 89.3198C81.4143 89.2709 81.4143 89.0262 81.2479 88.9772L78.9511 88.2758C78.8921 88.2595 78.8492 88.216 78.8331 88.1562L78.1408 85.8344C78.0925 85.6659 77.851 85.6659 77.8027 85.8344L77.1104 88.1562C77.0944 88.216 77.0514 88.2595 76.9924 88.2758L74.7009 88.9772C74.5346 89.0262 74.5346 89.2709 74.7009 89.3198L76.9978 90.0212C77.0568 90.0375 77.0997 90.081 77.1158 90.1408L77.8081 92.4681C77.8564 92.6366 78.0979 92.6366 78.1462 92.4681L78.8384 90.1408C78.8492 90.081 78.8921 90.0375 78.9511 90.0212Z" fill="#ADB6C8"/>
<path d="M12.8676 61.3989L14.8773 60.6975C15.0229 60.6485 15.0229 60.4039 14.8773 60.3549L12.8676 59.6535C12.816 59.6372 12.7784 59.5937 12.7643 59.5339L12.1586 57.2121C12.1163 57.0436 11.905 57.0436 11.8628 57.2121L11.257 59.5339C11.243 59.5937 11.2054 59.6372 11.1537 59.6535L9.14872 60.3549C9.00316 60.4039 9.00316 60.6485 9.14872 60.6975L11.1584 61.3989C11.2101 61.4152 11.2477 61.4587 11.2617 61.5185L11.8675 63.8457C11.9097 64.0143 12.121 64.0143 12.1633 63.8457L12.769 61.5185C12.7784 61.4587 12.816 61.4152 12.8676 61.3989Z" fill="#ADB6C8"/>
<path d="M30.4179 27.1516L31.8534 26.7132C31.9574 26.6827 31.9574 26.5297 31.8534 26.4992L30.4179 26.0608C30.381 26.0506 30.3542 26.0234 30.3441 25.9861L29.9115 24.5351C29.8813 24.4297 29.7304 24.4297 29.7002 24.5351L29.2675 25.9861C29.2575 26.0234 29.2306 26.0506 29.1937 26.0608L27.7616 26.4992C27.6576 26.5297 27.6576 26.6827 27.7616 26.7132L29.1971 27.1516C29.234 27.1618 29.2608 27.189 29.2709 27.2264L29.7035 28.6807C29.7337 28.7861 29.8847 28.7861 29.9148 28.6807L30.3475 27.2264C30.3542 27.189 30.381 27.1618 30.4179 27.1516Z" fill="#ADB6C8"/>
<path d="M36.6343 52.2139C32.7351 55.0923 27.6104 59.269 27.6104 62.9376C27.6104 65.0113 27.6104 67.9326 27.6104 70.0807C27.6104 71.0256 28.9783 71.6047 29.7664 71.0835C31.6747 69.8215 34.8601 68.4461 39.3638 68.8639C47.2737 69.5976 37.9712 56.1647 37.9712 56.1647L36.6343 52.2139Z" fill="url(#paint1_linear_12546_3024)"/>
<path d="M64.9873 52.2139C68.8866 55.1488 74.0113 59.269 74.0113 62.9376C74.0113 65.0113 74.0113 67.9326 74.0113 70.0807C74.0113 71.0256 72.6434 71.6047 71.8553 71.0835C69.947 69.8215 66.7615 68.4461 62.2579 68.8639C54.3479 69.5976 63.6505 56.1647 63.6505 56.1647L64.9873 52.2139Z" fill="url(#paint2_linear_12546_3024)"/>
<g filter="url(#filter0_d_12546_3024)">
<path d="M50.783 11.8022C43.4301 17.1077 34.629 30.1455 36.2444 46.7391C37.8041 63.3327 39.1967 71.5166 42.2046 73.492C45.2683 75.4674 48.2763 75.919 50.783 75.919C53.2897 75.919 56.2977 75.4674 59.3614 73.492C62.4251 71.5166 63.7619 63.3327 65.3217 46.7391C66.8814 30.1455 58.0802 17.1077 50.783 11.8022Z" fill="url(#paint3_linear_12546_3024)"/>
</g>
<g filter="url(#filter1_d_12546_3024)">
<path d="M56.3533 78.2331H45.2125C44.3213 78.2331 43.6528 77.4994 43.6528 76.6528V73.8872H57.9687V76.5964C57.913 77.4994 57.1888 78.2331 56.3533 78.2331Z" fill="url(#paint4_linear_12546_3024)"/>
</g>
<path d="M51.5626 51.311H50.0029V72.1377H51.5626V51.311Z" fill="url(#paint5_linear_12546_3024)"/>
<path d="M50.783 39.9663C53.8286 39.9663 56.2976 37.4646 56.2976 34.3786C56.2976 31.2927 53.8286 28.791 50.783 28.791C47.7373 28.791 45.2683 31.2927 45.2683 34.3786C45.2683 37.4646 47.7373 39.9663 50.783 39.9663Z" stroke="#9FA8BA" stroke-width="4" stroke-miterlimit="10"/>
<path d="M58.4144 89.0133C58.4144 93.585 54.7936 116.5 50.2817 116.5C45.7697 116.5 42.1489 93.585 42.1489 89.0133C42.1489 84.4416 45.7697 80.7729 50.2817 80.7729C54.7936 80.7729 58.4144 84.498 58.4144 89.0133Z" fill="#EAEEF9"/>
<path d="M50.2818 105.945C48.6663 102.446 46.8281 92.7383 46.8281 89.6341C46.8281 87.7151 48.3878 86.1348 50.2818 86.1348C52.1757 86.1348 53.7354 87.7151 53.7354 89.6341C53.7354 92.7383 51.8972 102.39 50.2818 105.945Z" fill="white"/>
<defs>
<filter id="filter0_d_12546_3024" x="14.0505" y="0.802246" width="73.4526" height="108.117" filterUnits="userSpaceOnUse" color-interpolation-filters="sRGB">
<feFlood flood-opacity="0" result="BackgroundImageFix"/>
<feColorMatrix in="SourceAlpha" type="matrix" values="0 0 0 0 0 0 0 0 0 0 0 0 0 0 0 0 0 0 127 0" result="hardAlpha"/>
<feOffset dy="11"/>
<feGaussianBlur stdDeviation="11"/>
<feColorMatrix type="matrix" values="0 0 0 0 0.397708 0 0 0 0 0.47749 0 0 0 0 0.575 0 0 0 0.27 0"/>
<feBlend mode="normal" in2="BackgroundImageFix" result="effect1_dropShadow_12546_3024"/>
<feBlend mode="normal" in="SourceGraphic" in2="effect1_dropShadow_12546_3024" result="shape"/>
</filter>
<filter id="filter1_d_12546_3024" x="21.6528" y="62.8872" width="58.3159" height="48.3459" filterUnits="userSpaceOnUse" color-interpolation-filters="sRGB">
<feFlood flood-opacity="0" result="BackgroundImageFix"/>
<feColorMatrix in="SourceAlpha" type="matrix" values="0 0 0 0 0 0 0 0 0 0 0 0 0 0 0 0 0 0 127 0" result="hardAlpha"/>
<feOffset dy="11"/>
<feGaussianBlur stdDeviation="11"/>
<feColorMatrix type="matrix" values="0 0 0 0 0.397708 0 0 0 0 0.47749 0 0 0 0 0.575 0 0 0 0.27 0"/>
<feBlend mode="normal" in2="BackgroundImageFix" result="effect1_dropShadow_12546_3024"/>
<feBlend mode="normal" in="SourceGraphic" in2="effect1_dropShadow_12546_3024" result="shape"/>
</filter>
<linearGradient id="paint0_linear_12546_3024" x1="49.9674" y1="6.64305" x2="49.9674" y2="111.994" gradientUnits="userSpaceOnUse">
<stop stop-color="#FDFEFF"/>
<stop offset="0.9964" stop-color="#ECF0F5"/>
</linearGradient>
<linearGradient id="paint1_linear_12546_3024" x1="35.082" y1="52.9334" x2="35.082" y2="64.5599" gradientUnits="userSpaceOnUse">
<stop stop-color="#B0BACC"/>
<stop offset="1" stop-color="#969EAE"/>
</linearGradient>
<linearGradient id="paint2_linear_12546_3024" x1="66.542" y1="52.9334" x2="66.542" y2="64.5599" gradientUnits="userSpaceOnUse">
<stop stop-color="#B0BACC"/>
<stop offset="1" stop-color="#969EAE"/>
</linearGradient>
<linearGradient id="paint3_linear_12546_3024" x1="50.7673" y1="10.3192" x2="50.7673" y2="76.6102" gradientUnits="userSpaceOnUse">
<stop stop-color="#FDFEFF"/>
<stop offset="0.9964" stop-color="#ECF0F5"/>
</linearGradient>
<linearGradient id="paint4_linear_12546_3024" x1="50.8061" y1="73.7867" x2="50.8061" y2="78.28" gradientUnits="userSpaceOnUse">
<stop stop-color="#FDFEFF"/>
<stop offset="0.9964" stop-color="#ECF0F5"/>
</linearGradient>
<linearGradient id="paint5_linear_12546_3024" x1="50.7829" y1="52.0345" x2="50.7829" y2="63.7243" gradientUnits="userSpaceOnUse">
<stop stop-color="#B0BACC"/>
<stop offset="1" stop-color="#969EAE"/>
</linearGradient>
</defs>
</svg>
