<svg width="32" height="32" viewBox="0 0 32 32" fill="none" xmlns="http://www.w3.org/2000/svg">
<path opacity="0.2" d="M5 4C5 2.34315 6.34315 1 8 1H19V6C19 7.65685 20.3431 9 22 9H27V28C27 29.6569 25.6569 31 24 31H8C6.34315 31 5 29.6569 5 28V4Z" fill="#47A7FF"/>
<path opacity="0.4" d="M19 6V1L27 9H22C20.3431 9 19 7.65685 19 6Z" fill="#47A7FF"/>
<path fill-rule="evenodd" clip-rule="evenodd" d="M10 15C10 14.4477 10.4477 14 11 14H21C21.5523 14 22 14.4477 22 15C22 15.5523 21.5523 16 21 16H11C10.4477 16 10 15.5523 10 15ZM10 19C10 18.4477 10.4477 18 11 18H21C21.5523 18 22 18.4477 22 19C22 19.5523 21.5523 20 21 20H11C10.4477 20 10 19.5523 10 19ZM11 22C10.4477 22 10 22.4477 10 23C10 23.5523 10.4477 24 11 24H18C18.5523 24 19 23.5523 19 23C19 22.4477 18.5523 22 18 22H11Z" fill="#47A7FF"/>
</svg>
