<svg width="32" height="32" viewBox="0 0 32 32" fill="none" xmlns="http://www.w3.org/2000/svg">
<mask id="mask0_3515_374319" style="mask-type:alpha" maskUnits="userSpaceOnUse" x="4" y="0" width="24" height="32">
<path d="M4 2C4 0.895431 4.89543 0 6 0H20V6C20 7.10457 20.8954 8 22 8H28V30C28 31.1046 27.1046 32 26 32H6C4.89543 32 4 31.1046 4 30V2Z" fill="#47A7FF"/>
</mask>
<g mask="url(#mask0_3515_374319)">
<path opacity="0.11" d="M5 4C5 2.34315 6.34315 1 8 1H19V6C19 7.65685 20.3431 9 22 9H27V28C27 29.6569 25.6569 31 24 31H8C6.34315 31 5 29.6569 5 28V4Z" fill="#39434C"/>
</g>
<path opacity="0.23" d="M19 6V1L27 9H22C20.3431 9 19 7.65685 19 6Z" fill="#39434C"/>
</svg>
