<svg width="32" height="32" viewBox="0 0 32 32" fill="none" xmlns="http://www.w3.org/2000/svg">
<mask id="mask0_3515_374320" style="mask-type:alpha" maskUnits="userSpaceOnUse" x="4" y="0" width="24" height="32">
<path d="M4 2C4 0.895431 4.89543 0 6 0H20V6C20 7.10457 20.8954 8 22 8H28V30C28 31.1046 27.1046 32 26 32H6C4.89543 32 4 31.1046 4 30V2Z" fill="#47A7FF"/>
</mask>
<g mask="url(#mask0_3515_374320)">
<path opacity="0.11" d="M5 4C5 2.34315 6.34315 1 8 1H19V6C19 7.65685 20.3431 9 22 9H27V28C27 29.6569 25.6569 31 24 31H8C6.34315 31 5 29.6569 5 28V4Z" fill="#174BE2"/>
</g>
<path opacity="0.23" d="M19 6V1L27 9H22C20.3431 9 19 7.65685 19 6Z" fill="#174BE2"/>
<path d="M22.2728 14.7598C22.2728 14.7598 22.2728 14.7598 22.2728 14.7264C21.8031 13.4439 20.9508 12.3366 19.8311 11.5543C18.7115 10.7721 17.3786 10.3525 16.0128 10.3525C14.647 10.3525 13.3141 10.7721 12.1945 11.5543C11.0749 12.3366 10.2225 13.4439 9.75281 14.7264C9.75281 14.7264 9.75281 14.7264 9.75281 14.7598C9.22823 16.207 9.22823 17.7925 9.75281 19.2398C9.75281 19.2398 9.75281 19.2398 9.75281 19.2731C10.2225 20.5556 11.0749 21.6629 12.1945 22.4452C13.3141 23.2275 14.647 23.647 16.0128 23.647C17.3786 23.647 18.7115 23.2275 19.8311 22.4452C20.9508 21.6629 21.8031 20.5556 22.2728 19.2731C22.2728 19.2731 22.2728 19.2731 22.2728 19.2398C22.7974 17.7925 22.7974 16.207 22.2728 14.7598ZM10.8395 18.3331C10.6083 17.4592 10.6083 16.5403 10.8395 15.6664H12.0795C11.9728 16.5521 11.9728 17.4474 12.0795 18.3331H10.8395ZM11.3861 19.6664H12.3195C12.476 20.261 12.6996 20.8358 12.9861 21.3798C12.3323 20.9344 11.7858 20.3491 11.3861 19.6664ZM12.3195 14.3331H11.3861C11.7801 13.6525 12.3196 13.0674 12.9661 12.6198C12.6865 13.1646 12.4696 13.7394 12.3195 14.3331ZM15.3328 22.1331C14.514 21.5322 13.9389 20.6566 13.7128 19.6664H15.3328V22.1331ZM15.3328 18.3331H13.4261C13.3017 17.4486 13.3017 16.551 13.4261 15.6664H15.3328V18.3331ZM15.3328 14.3331H13.7128C13.9389 13.3429 14.514 12.4673 15.3328 11.8664V14.3331ZM20.6128 14.3331H19.6795C19.523 13.7385 19.2993 13.1637 19.0128 12.6198C19.6666 13.0651 20.2131 13.6504 20.6128 14.3331ZM16.6661 11.8664C17.485 12.4673 18.06 13.3429 18.2861 14.3331H16.6661V11.8664ZM16.6661 22.1331V19.6664H18.2861C18.06 20.6566 17.485 21.5322 16.6661 22.1331ZM18.5728 18.3331H16.6661V15.6664H18.5728C18.6972 16.551 18.6972 17.4486 18.5728 18.3331ZM19.0328 21.3798C19.3193 20.8358 19.543 20.261 19.6995 19.6664H20.6328C20.2331 20.3491 19.6866 20.9344 19.0328 21.3798ZM21.1595 18.3331H19.9195C19.9737 17.8907 20.0004 17.4454 19.9995 16.9998C20.0002 16.5541 19.9735 16.1088 19.9195 15.6664H21.1595C21.3907 16.5403 21.3907 17.4592 21.1595 18.3331Z" fill="#174BE2"/>
</svg>
