<svg width="32" height="32" viewBox="0 0 32 32" fill="none" xmlns="http://www.w3.org/2000/svg">
<path opacity="0.2" d="M5 4C5 2.34315 6.34315 1 8 1H19V6C19 7.65685 20.3431 9 22 9H27V28C27 29.6569 25.6569 31 24 31H8C6.34315 31 5 29.6569 5 28V4Z" fill="#663EE0"/>
<rect x="8.65234" y="17.9556" width="12.5842" height="1.47607" rx="0.738034" fill="#663EE0"/>
<rect x="8.65234" y="20.9077" width="12.5842" height="1.47607" rx="0.738034" fill="#663EE0"/>
<rect x="8.65234" y="23.8599" width="6.64231" height="1.47607" rx="0.738034" fill="#663EE0"/>
<path opacity="0.4" d="M19 6V1L27 9H22C20.3431 9 19 7.65685 19 6Z" fill="#663EE0"/>
<path d="M12.134 10.5C12.5189 9.83333 13.4811 9.83333 13.866 10.5L16.4641 15C16.849 15.6667 16.3679 16.5 15.5981 16.5H10.4019C9.63212 16.5 9.151 15.6667 9.5359 15L12.134 10.5Z" fill="#7052CB"/>
<circle cx="19" cy="11" r="2" fill="#7052CB"/>
</svg>
