<svg width="32" height="32" viewBox="0 0 32 32" fill="none" xmlns="http://www.w3.org/2000/svg">
<path opacity="0.2" d="M5 4C5 2.34315 6.34315 1 8 1H19V6C19 7.65685 20.3431 9 22 9H27V28C27 29.6569 25.6569 31 24 31H8C6.34315 31 5 29.6569 5 28V4Z" fill="#F47F65"/>
<path opacity="0.4" d="M19 6V1L27 9H22C20.3431 9 19 7.65685 19 6Z" fill="#F47F65"/>
<path opacity="0.5" d="M22 19C22 22.3137 19.3137 25 16 25C12.6863 25 10 22.3137 10 19C10 15.6863 12.6863 13 16 13V19H22Z" fill="#F47F65"/>
<path d="M17 18V13.083C19.5125 13.5045 21.4955 15.4875 21.917 18H17Z" fill="#F47F65"/>
</svg>
