<svg width="41" height="40" viewBox="0 0 41 40" fill="none" xmlns="http://www.w3.org/2000/svg">
<path opacity="0.1" d="M6.58203 4.25C6.58203 2.59315 7.92518 1.25 9.58203 1.25H24.082V8.25C24.082 9.90685 25.4252 11.25 27.082 11.25H34.082V35.75C34.082 37.4069 32.7389 38.75 31.082 38.75H9.58203C7.92518 38.75 6.58203 37.4069 6.58203 35.75V4.25Z" fill="#47A7FF"/>
<path opacity="0.4" d="M24.082 8.25V1.25L34.082 11.25H27.082C25.4252 11.25 24.082 9.90685 24.082 8.25Z" fill="#47A7FF"/>
<path d="M25.2887 24.1659L17.9692 20.3183C17.5732 20.1087 17.1236 19.9989 16.6663 20C16.2089 20.0012 15.76 20.1132 15.3652 20.3249C14.9704 20.5365 14.6438 20.8401 14.4184 21.2049C14.1931 21.5697 14.0771 21.9827 14.0822 22.4018V30.1248C14.0822 30.7547 14.3552 31.3589 14.8412 31.8043C15.3272 32.2498 15.9863 32.5 16.6736 32.5C17.1285 32.4993 17.5753 32.3891 17.9692 32.1805L25.2887 28.3329C25.682 28.1243 26.0085 27.8245 26.2355 27.4637C26.4625 27.1029 26.582 26.6937 26.582 26.2772C26.582 25.8607 26.4625 25.4515 26.2355 25.0907C26.0085 24.7299 25.682 24.4301 25.2887 24.2214V24.1659ZM24.531 27.0759L17.2115 30.979C17.0475 31.0642 16.8621 31.109 16.6736 31.109C16.485 31.109 16.2996 31.0642 16.1356 30.979C15.972 30.8925 15.8362 30.7679 15.7417 30.618C15.6473 30.468 15.5976 30.2979 15.5976 30.1248V22.3741C15.5976 22.2009 15.6473 22.0308 15.7417 21.8809C15.8362 21.7309 15.972 21.6064 16.1356 21.5198C16.3003 21.4359 16.4851 21.3906 16.6736 21.3878C16.8619 21.3914 17.0465 21.4367 17.2115 21.5198L24.531 25.3952C24.6947 25.4817 24.8306 25.6062 24.9251 25.7562C25.0196 25.9061 25.0693 26.0762 25.0693 26.2494C25.0693 26.4226 25.0196 26.5927 24.9251 26.7427C24.8306 26.8926 24.6947 27.0171 24.531 27.1037V27.0759Z" fill="#47A7FF"/>
<path d="M24.531 27.0759L17.2115 30.979C17.0475 31.0642 16.8621 31.109 16.6736 31.109C16.485 31.109 16.2996 31.0642 16.1356 30.979C15.972 30.8925 15.8362 30.7679 15.7417 30.618C15.6473 30.468 15.5976 30.2979 15.5976 30.1248V22.3741C15.5976 22.2009 15.6473 22.0308 15.7417 21.8809C15.8362 21.7309 15.972 21.6064 16.1356 21.5198C16.3003 21.4359 16.4851 21.3906 16.6736 21.3878C16.8619 21.3914 17.0465 21.4367 17.2115 21.5198L24.531 25.3952C24.6947 25.4817 24.8306 25.6062 24.9251 25.7562C25.0196 25.9061 25.0693 26.0762 25.0693 26.2494C25.0693 26.4226 25.0196 26.5927 24.9251 26.7427C24.8306 26.8926 24.6947 27.0171 24.531 27.1037V27.0759Z" fill="#47A7FF"/>
</svg>
