<svg width="32" height="32" viewBox="0 0 32 32" fill="none" xmlns="http://www.w3.org/2000/svg">
<path opacity="0.2" d="M5 4C5 2.34315 6.34315 1 8 1H19V6C19 7.65685 20.3431 9 22 9H27V28C27 29.6569 25.6569 31 24 31H8C6.34315 31 5 29.6569 5 28V4Z" fill="#6830CC"/>
<path d="M12.4869 1.82609V1H10.9638V1.82609H12.4869Z" fill="#7843DD"/>
<path fill-rule="evenodd" clip-rule="evenodd" d="M12.4869 6.78261H10.9638V8.43478H12.4869V10.087H10.9638V11.7391L10.0595 16.7473C9.90084 17.5734 10.0595 18.3306 10.5355 19.019C11.0432 19.673 11.6936 20 12.4869 20C13.2802 20 13.9148 19.673 14.3908 19.019C14.8985 18.365 15.0888 17.6078 14.9619 16.7473L14.1052 12.2554C14.0417 11.9112 13.8513 11.7391 13.534 11.7391H12.4869V10.087H14.01V8.43478H12.4869V6.78261ZM12.4869 5.13043H10.9638V3.47826H12.4869V5.13043ZM12.4869 3.47826H14.01V1.82609H12.4869V3.47826ZM12.4869 5.13043H14.01V6.78261H12.4869V5.13043ZM12.4869 18.6576C12.0744 18.6576 11.7095 18.5199 11.3922 18.2446C11.1066 17.9692 10.9638 17.6422 10.9638 17.2636C10.9638 16.885 11.1066 16.558 11.3922 16.2826C11.7095 16.0072 12.0744 15.8696 12.4869 15.8696C12.9311 15.8696 13.296 16.0072 13.5816 16.2826C13.8989 16.558 14.0576 16.885 14.0576 17.2636C14.0576 17.6422 13.8989 17.9692 13.5816 18.2446C13.296 18.5199 12.9311 18.6576 12.4869 18.6576Z" fill="#7843DD"/>
<path opacity="0.4" d="M19 6V1L27 9H22C20.3431 9 19 7.65685 19 6Z" fill="#6830CC"/>
</svg>
