<svg width="16" height="21" viewBox="0 0 16 21" fill="none" xmlns="http://www.w3.org/2000/svg">
<path d="M12.37 11.7903C12.2479 11.7417 12.1174 11.7176 11.9859 11.7195C11.8545 11.7213 11.7247 11.749 11.604 11.801C11.4833 11.8531 11.374 11.9283 11.2824 12.0226C11.1908 12.1168 11.1186 12.2282 11.07 12.3503C11.0214 12.4724 10.9974 12.6029 10.9992 12.7343C11.001 12.8658 11.0288 12.9956 11.0808 13.1163C11.1328 13.237 11.208 13.3463 11.3023 13.4379C11.3965 13.5295 11.5079 13.6017 11.63 13.6503C13.09 14.2303 14 15.1303 14 16.0003C14 17.4203 11.54 19.0003 8 19.0003C4.46 19.0003 2 17.4203 2 16.0003C2 15.1303 2.91 14.2303 4.37 13.6503C4.61665 13.5522 4.81422 13.3601 4.91924 13.1163C5.02426 12.8725 5.02813 12.5969 4.93 12.3503C4.83187 12.1036 4.63978 11.9061 4.39598 11.801C4.15218 11.696 3.87665 11.6922 3.63 11.7903C1.36 12.6903 0 14.2603 0 16.0003C0 18.8003 3.51 21.0003 8 21.0003C12.49 21.0003 16 18.8003 16 16.0003C16 14.2603 14.64 12.6903 12.37 11.7903ZM7 8.86029V16.0003C7 16.2655 7.10536 16.5199 7.29289 16.7074C7.48043 16.8949 7.73478 17.0003 8 17.0003C8.26522 17.0003 8.51957 16.8949 8.70711 16.7074C8.89464 16.5199 9 16.2655 9 16.0003V8.86029C9.94266 8.61689 10.7642 8.03806 11.3106 7.23228C11.857 6.4265 12.0908 5.4491 11.9681 4.48329C11.8454 3.51747 11.3747 2.62955 10.6442 1.98597C9.91373 1.34238 8.97357 0.987305 8 0.987305C7.02643 0.987305 6.08627 1.34238 5.35577 1.98597C4.62526 2.62955 4.15456 3.51747 4.03188 4.48329C3.90921 5.4491 4.14299 6.4265 4.6894 7.23228C5.23581 8.03806 6.05734 8.61689 7 8.86029ZM8 3.00029C8.39556 3.00029 8.78224 3.11759 9.11114 3.33735C9.44004 3.55711 9.69638 3.86947 9.84776 4.23492C9.99913 4.60037 10.0387 5.00251 9.96157 5.39047C9.8844 5.77843 9.69392 6.1348 9.41421 6.4145C9.13451 6.69421 8.77814 6.88469 8.39018 6.96186C8.00222 7.03903 7.60009 6.99942 7.23463 6.84805C6.86918 6.69667 6.55682 6.44033 6.33706 6.11143C6.1173 5.78253 6 5.39585 6 5.00029C6 4.46986 6.21071 3.96115 6.58579 3.58607C6.96086 3.211 7.46957 3.00029 8 3.00029Z" fill="#7843DD"/>
</svg>
