<svg width="69" height="69" viewBox="0 0 69 69" fill="none" xmlns="http://www.w3.org/2000/svg">
<g filter="url(#filter0_d_7864_83738)">
<path d="M6.74805 30.998C6.74805 15.5341 19.2841 2.99805 34.748 2.99805V2.99805C50.212 2.99805 62.748 15.5341 62.748 30.998V30.998C62.748 46.462 50.212 58.998 34.748 58.998V58.998C19.2841 58.998 6.74805 46.462 6.74805 30.998V30.998Z" fill="white" fill-opacity="0.01"/>
<path d="M28.4696 27.5889C28.044 27.3768 26.8536 27.0972 25.3144 27.2579C23.7624 27.4218 21.948 28.8163 21.948 31.4448C21.948 33.9994 23.7688 35.6221 26.108 35.6221C26.9229 35.5987 27.7058 35.2985 28.3288 34.7706C28.3416 34.6952 28.348 34.6189 28.348 34.5424V33.0515H27.3656C26.9413 33.0515 26.5343 32.8822 26.2343 32.5809C25.9342 32.2796 25.7656 31.8709 25.7656 31.4448C25.7656 31.0187 25.9342 30.6101 26.2343 30.3087C26.5343 30.0074 26.9413 29.8382 27.3656 29.8382H29.948C30.3724 29.8382 30.7794 30.0074 31.0794 30.3087C31.3795 30.6101 31.548 31.0187 31.548 31.4448V34.5424C31.548 35.2044 31.4168 36.2616 30.5784 37.0585C29.628 37.9614 27.964 38.8354 26.108 38.8354C22.1208 38.8354 18.748 35.8952 18.748 31.4448C18.748 27.0651 21.9096 24.3852 24.9816 24.0639C26.9304 23.8582 28.7768 24.1506 29.9 24.7162C30.0946 24.8064 30.2691 24.9349 30.4132 25.0942C30.5573 25.2534 30.6681 25.4401 30.739 25.6432C30.8099 25.8462 30.8394 26.0615 30.8259 26.2762C30.8123 26.491 30.756 26.7008 30.6602 26.8932C30.5643 27.0857 30.431 27.2568 30.268 27.3966C30.1051 27.5363 29.9158 27.6417 29.7115 27.7066C29.5072 27.7715 29.292 27.7945 29.0787 27.7743C28.8654 27.754 28.6582 27.691 28.4696 27.5889Z" fill="white"/>
<path d="M37.4794 24.528C37.7795 24.8293 37.948 25.238 37.948 25.6641V37.232C37.948 37.6581 37.7795 38.0667 37.4794 38.368C37.1794 38.6694 36.7724 38.8386 36.348 38.8386C35.9237 38.8386 35.5167 38.6694 35.2167 38.368C34.9166 38.0667 34.748 37.6581 34.748 37.232V25.6641C34.748 25.238 34.9166 24.8293 35.2167 24.528C35.5167 24.2267 35.9237 24.0574 36.348 24.0574C36.7724 24.0574 37.1794 24.2267 37.4794 24.528Z" fill="white"/>
<path d="M41.6167 24.528C41.9167 24.2267 42.3237 24.0574 42.748 24.0574V24.0542H49.148C49.5724 24.0542 49.9794 24.2235 50.2794 24.5248C50.5795 24.8261 50.748 25.2348 50.748 25.6609C50.748 26.087 50.5795 26.4956 50.2794 26.7969C49.9794 27.0983 49.5724 27.2675 49.148 27.2675H44.348V29.8285L47.5384 29.8092C47.9628 29.8067 48.3708 29.9735 48.6726 30.273C48.9745 30.5725 49.1455 30.9802 49.148 31.4063C49.1506 31.8324 48.9845 32.242 48.6862 32.5452C48.3879 32.8483 47.982 33.02 47.5577 33.0226L44.348 33.0418V37.232C44.348 37.6581 44.1795 38.0667 43.8794 38.368C43.5794 38.6694 43.1724 38.8386 42.748 38.8386C42.3237 38.8386 41.9167 38.6694 41.6167 38.368C41.3166 38.0667 41.148 37.6581 41.148 37.232V25.6641C41.148 25.238 41.3166 24.8293 41.6167 24.528Z" fill="white"/>
<path d="M34.748 58.498C34.0209 58.498 33.3005 58.4698 32.5877 58.4145L32.5103 59.4115C33.2488 59.4688 33.995 59.498 34.748 59.498V58.498ZM28.3251 57.744C26.9117 57.4059 25.5407 56.9586 24.2215 56.4115L23.8385 57.3353C25.206 57.9023 26.6272 58.366 28.0924 58.7166L28.3251 57.744ZM20.378 54.4495C19.1474 53.6938 17.9808 52.8439 16.8882 51.9099L16.2384 52.67C17.3705 53.6378 18.5794 54.5185 19.8547 55.3017L20.378 54.4495ZM13.8362 48.8579C12.9022 47.7653 12.0523 46.5987 11.2966 45.3681L10.4444 45.8914C11.2276 47.1667 12.1083 48.3756 13.0761 49.5077L13.8362 48.8579ZM9.33457 41.5246C8.78752 40.2054 8.34021 38.8344 8.00205 37.421L7.0295 37.6537C7.38006 39.1189 7.84376 40.5401 8.41084 41.9076L9.33457 41.5246ZM7.33163 33.1583C7.27626 32.4456 7.24805 31.7252 7.24805 30.998H6.24805C6.24805 31.7511 6.27726 32.4973 6.33463 33.2358L7.33163 33.1583ZM7.24805 30.998C7.24805 30.2709 7.27626 29.5505 7.33163 28.8377L6.33463 28.7603C6.27726 29.4988 6.24805 30.245 6.24805 30.998H7.24805ZM8.00205 24.5751C8.34021 23.1617 8.78752 21.7907 9.33456 20.4715L8.41084 20.0885C7.84376 21.456 7.38005 22.8772 7.0295 24.3424L8.00205 24.5751ZM11.2966 16.628C12.0523 15.3974 12.9022 14.2308 13.8362 13.1382L13.0761 12.4884C12.1083 13.6205 11.2276 14.8294 10.4444 16.1047L11.2966 16.628ZM16.8882 10.0862C17.9808 9.15217 19.1474 8.30228 20.378 7.54659L19.8547 6.69444C18.5794 7.4776 17.3705 8.35829 16.2384 9.32611L16.8882 10.0862ZM24.2215 5.58457C25.5407 5.03752 26.9117 4.59021 28.3251 4.25205L28.0924 3.2795C26.6272 3.63006 25.206 4.09376 23.8385 4.66084L24.2215 5.58457ZM32.5877 3.58163C33.3005 3.52626 34.0209 3.49805 34.748 3.49805V2.49805C33.995 2.49805 33.2488 2.52726 32.5103 2.58463L32.5877 3.58163ZM34.748 3.49805C35.4752 3.49805 36.1956 3.52626 36.9083 3.58163L36.9858 2.58463C36.2473 2.52726 35.5011 2.49805 34.748 2.49805V3.49805ZM41.171 4.25205C42.5844 4.59021 43.9554 5.03752 45.2746 5.58456L45.6576 4.66084C44.2901 4.09376 42.8689 3.63005 41.4037 3.2795L41.171 4.25205ZM49.1181 7.54659C50.3487 8.30228 51.5153 9.15216 52.6079 10.0862L53.2577 9.32611C52.1256 8.35829 50.9167 7.4776 49.6414 6.69444L49.1181 7.54659ZM55.6599 13.1382C56.5939 14.2308 57.4438 15.3974 58.1995 16.628L59.0517 16.1047C58.2685 14.8294 57.3878 13.6205 56.42 12.4884L55.6599 13.1382ZM60.1615 20.4715C60.7086 21.7907 61.1559 23.1617 61.494 24.5751L62.4666 24.3424C62.116 22.8772 61.6523 21.456 61.0853 20.0885L60.1615 20.4715ZM62.1645 28.8377C62.2198 29.5505 62.248 30.2709 62.248 30.998H63.248C63.248 30.245 63.2188 29.4988 63.1615 28.7603L62.1645 28.8377ZM62.248 30.998C62.248 31.7252 62.2198 32.4456 62.1645 33.1583L63.1615 33.2358C63.2188 32.4973 63.248 31.7511 63.248 30.998H62.248ZM61.494 37.421C61.1559 38.8344 60.7086 40.2054 60.1615 41.5246L61.0853 41.9076C61.6523 40.5401 62.116 39.1189 62.4666 37.6537L61.494 37.421ZM58.1995 45.3681C57.4438 46.5987 56.5939 47.7653 55.6599 48.8579L56.42 49.5077C57.3878 48.3756 58.2685 47.1667 59.0517 45.8914L58.1995 45.3681ZM52.6079 51.9099C51.5153 52.8439 50.3487 53.6938 49.1181 54.4495L49.6414 55.3017C50.9167 54.5185 52.1256 53.6378 53.2577 52.67L52.6079 51.9099ZM45.2746 56.4115C43.9554 56.9586 42.5844 57.4059 41.171 57.744L41.4037 58.7166C42.8689 58.366 44.2901 57.9023 45.6576 57.3353L45.2746 56.4115ZM36.9083 58.4145C36.1956 58.4698 35.4752 58.498 34.748 58.498V59.498C35.5011 59.498 36.2473 59.4688 36.9858 59.4115L36.9083 58.4145ZM34.748 57.998C34.0339 57.998 33.3263 57.9703 32.6265 57.916L32.4716 59.91C33.2229 59.9683 33.9821 59.998 34.748 59.998V57.998ZM28.4414 57.2578C27.0539 56.9258 25.7081 56.4867 24.413 55.9497L23.6469 57.7971C25.0386 58.3742 26.485 58.8461 27.9761 59.2029L28.4414 57.2578ZM20.6397 54.0234C19.4314 53.2815 18.286 52.447 17.2131 51.5298L15.9135 53.05C17.0653 54.0347 18.2954 54.9308 19.5931 55.7277L20.6397 54.0234ZM14.2163 48.533C13.2991 47.4601 12.4646 46.3147 11.7227 45.1064L10.0184 46.153C10.8153 47.4507 11.7114 48.6807 12.6961 49.8326L14.2163 48.533ZM9.79643 41.3331C9.2594 40.038 8.82029 38.6922 8.48833 37.3047L6.54323 37.77C6.89998 39.2611 7.37188 40.7075 7.94898 42.0992L9.79643 41.3331ZM7.83012 33.1196C7.77575 32.4198 7.74805 31.7122 7.74805 30.998H5.74805C5.74805 31.764 5.77776 32.5232 5.83613 33.2745L7.83012 33.1196ZM7.74805 30.998C7.74805 30.2839 7.77575 29.5763 7.83012 28.8765L5.83613 28.7216C5.77776 29.4729 5.74805 30.2321 5.74805 30.998H7.74805ZM8.48833 24.6914C8.82029 23.3039 9.2594 21.9581 9.79643 20.663L7.94898 19.8969C7.37188 21.2886 6.89998 22.735 6.54323 24.2261L8.48833 24.6914ZM11.7227 16.8897C12.4646 15.6814 13.2991 14.536 14.2163 13.4631L12.6961 12.1635C11.7114 13.3153 10.8153 14.5454 10.0184 15.8431L11.7227 16.8897ZM17.2131 10.4663C18.286 9.5491 19.4314 8.71462 20.6397 7.97267L19.5931 6.26836C18.2954 7.06526 17.0653 7.96136 15.9135 8.94606L17.2131 10.4663ZM24.413 6.04643C25.7081 5.5094 27.0539 5.07029 28.4414 4.73833L27.9761 2.79323C26.485 3.14998 25.0386 3.62188 23.6469 4.19898L24.413 6.04643ZM32.6265 4.08012C33.3263 4.02575 34.0339 3.99805 34.748 3.99805V1.99805C33.9821 1.99805 33.2229 2.02776 32.4716 2.08613L32.6265 4.08012ZM34.748 3.99805C35.4622 3.99805 36.1698 4.02575 36.8696 4.08012L37.0245 2.08613C36.2732 2.02776 35.514 1.99805 34.748 1.99805V3.99805ZM41.0547 4.73833C42.4422 5.07029 43.788 5.5094 45.0831 6.04643L45.8492 4.19898C44.4575 3.62188 43.0111 3.14998 41.52 2.79323L41.0547 4.73833ZM48.8564 7.97266C50.0646 8.71462 51.2101 9.5491 52.283 10.4663L53.5826 8.94606C52.4307 7.96136 51.2007 7.06526 49.903 6.26836L48.8564 7.97266ZM55.2798 13.4631C56.197 14.536 57.0315 15.6814 57.7734 16.8897L59.4777 15.8431C58.6808 14.5454 57.7847 13.3153 56.8 12.1635L55.2798 13.4631ZM59.6997 20.663C60.2367 21.9581 60.6758 23.3039 61.0078 24.6914L62.9529 24.2261C62.5961 22.735 62.1242 21.2886 61.5471 19.8969L59.6997 20.663ZM61.666 28.8765C61.7203 29.5763 61.748 30.2839 61.748 30.998H63.748C63.748 30.2321 63.7183 29.4729 63.66 28.7216L61.666 28.8765ZM61.748 30.998C61.748 31.7122 61.7203 32.4198 61.666 33.1196L63.66 33.2745C63.7183 32.5232 63.748 31.764 63.748 30.998H61.748ZM61.0078 37.3047C60.6758 38.6922 60.2367 40.038 59.6997 41.3331L61.5471 42.0992C62.1242 40.7075 62.5961 39.2611 62.9529 37.77L61.0078 37.3047ZM57.7734 45.1064C57.0315 46.3146 56.197 47.4601 55.2798 48.533L56.8 49.8326C57.7847 48.6807 58.6808 47.4507 59.4777 46.153L57.7734 45.1064ZM52.283 51.5298C51.2101 52.447 50.0647 53.2815 48.8564 54.0234L49.903 55.7277C51.2007 54.9308 52.4307 54.0347 53.5826 53.05L52.283 51.5298ZM45.0831 55.9497C43.788 56.4867 42.4422 56.9258 41.0547 57.2578L41.52 59.2029C43.0111 58.8461 44.4575 58.3742 45.8492 57.7971L45.0831 55.9497ZM36.8696 57.916C36.1698 57.9703 35.4622 57.998 34.748 57.998V59.998C35.514 59.998 36.2732 59.9683 37.0245 59.91L36.8696 57.916Z" fill="white"/>
</g>
<defs>
<filter id="filter0_d_7864_83738" x="0.748047" y="0.998047" width="68" height="68" filterUnits="userSpaceOnUse" color-interpolation-filters="sRGB">
<feFlood flood-opacity="0" result="BackgroundImageFix"/>
<feColorMatrix in="SourceAlpha" type="matrix" values="0 0 0 0 0 0 0 0 0 0 0 0 0 0 0 0 0 0 127 0" result="hardAlpha"/>
<feOffset dy="4"/>
<feGaussianBlur stdDeviation="3"/>
<feColorMatrix type="matrix" values="0 0 0 0 0 0 0 0 0 0 0 0 0 0 0 0 0 0 0.12 0"/>
<feBlend mode="normal" in2="BackgroundImageFix" result="effect1_dropShadow_7864_83738"/>
<feBlend mode="normal" in="SourceGraphic" in2="effect1_dropShadow_7864_83738" result="shape"/>
</filter>
</defs>
</svg>
