<svg width="17" height="16" viewBox="0 0 17 16" fill="none" xmlns="http://www.w3.org/2000/svg">
<g clip-path="url(#clip0)">
<path d="M12.2498 3.33253H12.9165V3.9992C12.9165 4.17601 12.9867 4.34558 13.1118 4.47061C13.2368 4.59563 13.4064 4.66587 13.5832 4.66587C13.76 4.66587 13.9296 4.59563 14.0546 4.47061C14.1796 4.34558 14.2498 4.17601 14.2498 3.9992V3.33253H14.9165C15.0933 3.33253 15.2629 3.2623 15.3879 3.13727C15.5129 3.01225 15.5832 2.84268 15.5832 2.66587C15.5832 2.48906 15.5129 2.31949 15.3879 2.19446C15.2629 2.06944 15.0933 1.9992 14.9165 1.9992H14.2498V1.33253C14.2498 1.15572 14.1796 0.986154 14.0546 0.86113C13.9296 0.736106 13.76 0.665868 13.5832 0.665868C13.4064 0.665868 13.2368 0.736106 13.1118 0.86113C12.9867 0.986154 12.9165 1.15572 12.9165 1.33253V1.9992H12.2498C12.073 1.9992 11.9035 2.06944 11.7784 2.19446C11.6534 2.31949 11.5832 2.48906 11.5832 2.66587C11.5832 2.84268 11.6534 3.01225 11.7784 3.13727C11.9035 3.2623 12.073 3.33253 12.2498 3.33253ZM14.6498 5.9992C14.564 6.0167 14.4825 6.05092 14.4099 6.09993C14.3374 6.14893 14.2752 6.21176 14.2269 6.28481C14.1786 6.35786 14.1452 6.43971 14.1285 6.52569C14.1119 6.61166 14.1123 6.70007 14.1298 6.78587C14.3901 8.05001 14.2359 9.36438 13.6899 10.5339C13.144 11.7034 12.2355 12.6657 11.0993 13.2779C9.96306 13.8901 8.65971 14.1197 7.38271 13.9324C6.10571 13.7452 4.92312 13.1512 4.01048 12.2386C3.09785 11.3259 2.50383 10.1433 2.3166 8.86633C2.12936 7.58933 2.3589 6.28599 2.97113 5.14978C3.58336 4.01357 4.54565 3.10507 5.71516 2.55912C6.88466 2.01318 8.19904 1.85891 9.46317 2.1192C9.63998 2.15456 9.8236 2.11824 9.97363 2.01822C10.1237 1.9182 10.2278 1.76268 10.2632 1.58587C10.2985 1.40906 10.2622 1.22544 10.1622 1.07541C10.0622 0.925382 9.90665 0.82123 9.72984 0.785868C9.24196 0.694969 8.74599 0.654755 8.24984 0.665868C6.79944 0.665868 5.38162 1.09596 4.17566 1.90176C2.9697 2.70755 2.02977 3.85286 1.47472 5.19286C0.919681 6.53285 0.774457 8.00734 1.05742 9.42986C1.34037 10.8524 2.03881 12.1591 3.06439 13.1847C4.08998 14.2102 5.39665 14.9087 6.81918 15.1916C8.2417 15.4746 9.71619 15.3294 11.0562 14.7743C12.3962 14.2193 13.5415 13.2793 14.3473 12.0734C15.1531 10.8674 15.5832 9.4496 15.5832 7.9992C15.5846 7.50658 15.5354 7.01512 15.4365 6.53254C15.4205 6.44553 15.3874 6.36258 15.3391 6.2885C15.2907 6.21443 15.2281 6.15071 15.1549 6.10108C15.0817 6.05144 14.9993 6.01687 14.9126 5.99938C14.8259 5.98188 14.7366 5.98183 14.6498 5.9992Z" fill="#828085"/>
<path d="M8.25016 9.33112C8.82245 9.33112 9.37749 9.13735 9.823 8.78202C9.95911 8.67011 10.1346 8.61627 10.3108 8.63235C10.3981 8.64031 10.4829 8.66519 10.5604 8.70557C10.638 8.74596 10.7067 8.80106 10.7627 8.86772C10.8758 9.00236 10.9303 9.17593 10.914 9.35027C10.8978 9.5246 10.8122 9.6854 10.6761 9.79731C9.99539 10.3594 9.13684 10.6673 8.25016 10.6673C7.36348 10.6673 6.50493 10.3594 5.82426 9.79731C5.68815 9.6854 5.60256 9.5246 5.58632 9.35027C5.57007 9.17593 5.62449 9.00236 5.73762 8.86772C5.85074 8.73309 6.0133 8.64842 6.18953 8.63235C6.36575 8.61627 6.54122 8.67011 6.67732 8.78202C7.12284 9.13735 7.67788 9.33112 8.25016 9.33112Z" fill="#828085"/>
<path d="M6.62105 6.54144C6.51145 6.61388 6.3826 6.65254 6.25079 6.65254C6.07403 6.65254 5.90452 6.58308 5.77953 6.45945C5.65455 6.33581 5.58433 6.16812 5.58433 5.99326C5.58433 5.86287 5.62342 5.73541 5.69665 5.62699C5.76988 5.51857 5.87397 5.43407 5.99575 5.38417C6.11753 5.33427 6.25153 5.32121 6.38081 5.34665C6.51009 5.37209 6.62884 5.43488 6.72205 5.52708C6.81525 5.61929 6.87873 5.73676 6.90444 5.86465C6.93016 5.99253 6.91696 6.12509 6.86652 6.24556C6.81607 6.36603 6.73065 6.46899 6.62105 6.54144Z" fill="#828085"/>
<path d="M9.87927 5.44509C9.98887 5.37265 10.1177 5.33398 10.2495 5.33398C10.4263 5.33398 10.5958 5.40344 10.7208 5.52708C10.8458 5.65072 10.916 5.81841 10.916 5.99326C10.916 6.12366 10.8769 6.25112 10.8037 6.35954C10.7304 6.46796 10.6264 6.55246 10.5046 6.60236C10.3828 6.65226 10.2488 6.66531 10.1195 6.63988C9.99024 6.61444 9.87149 6.55165 9.77828 6.45945C9.68507 6.36724 9.6216 6.24977 9.59588 6.12188C9.57017 5.994 9.58337 5.86144 9.63381 5.74097C9.68425 5.6205 9.76967 5.51754 9.87927 5.44509Z" fill="#828085"/>
</g>
<defs>
<clipPath id="clip0">
<rect width="16" height="16" fill="white" transform="translate(0.25)"/>
</clipPath>
</defs>
</svg>
