<svg width="26" height="26" viewBox="0 0 26 26" fill="none" xmlns="http://www.w3.org/2000/svg">
<rect width="26" height="26" rx="4" fill="#627286"/>
<path d="M11.6426 7.92264C12.0859 7.80716 12.5421 7.74918 13.0001 7.75014C14.3925 7.75014 15.7279 8.30326 16.7124 9.28783C17.697 10.2724 18.2501 11.6078 18.2501 13.0001C18.2511 13.4582 18.1931 13.9144 18.0776 14.3576C18.0515 14.4527 18.0443 14.552 18.0565 14.6498C18.0687 14.7476 18.1001 14.8421 18.1489 14.9277C18.1976 15.0134 18.2628 15.0886 18.3407 15.1491C18.4185 15.2096 18.5076 15.2541 18.6026 15.2801C18.6674 15.2875 18.7328 15.2875 18.7976 15.2801C18.967 15.2859 19.1333 15.2342 19.2694 15.1335C19.4056 15.0327 19.5037 14.8888 19.5476 14.7251C19.6899 14.1614 19.758 13.5815 19.7501 13.0001C19.7501 11.2099 19.039 9.49304 17.7731 8.22717C16.5072 6.9613 14.7903 6.25014 13.0001 6.25014C12.4103 6.24768 11.8227 6.32334 11.2526 6.47514C11.0648 6.53247 10.9069 6.66122 10.8129 6.83372C10.7189 7.00622 10.6964 7.2087 10.7501 7.39764C10.8029 7.5831 10.9251 7.74111 11.0913 7.83887C11.2574 7.93663 11.4549 7.96663 11.6426 7.92264ZM20.2826 19.2176L6.78264 5.71764C6.64141 5.57641 6.44987 5.49707 6.25014 5.49707C6.05041 5.49707 5.85887 5.57641 5.71764 5.71764C5.57641 5.85887 5.49707 6.05041 5.49707 6.25014C5.49707 6.44987 5.57641 6.64141 5.71764 6.78264L7.75014 8.78514C6.7935 9.98173 6.27236 11.4681 6.27236 13.0001C6.27236 14.5321 6.7935 16.0185 7.75014 17.2151L6.46764 18.4676C6.36357 18.5731 6.29307 18.707 6.26504 18.8525C6.23701 18.998 6.2527 19.1486 6.31014 19.2851C6.3664 19.4221 6.46195 19.5393 6.58474 19.6221C6.70753 19.7048 6.85207 19.7494 7.00014 19.7501H13.0001C14.5348 19.7438 16.0215 19.2148 17.2151 18.2501L19.2176 20.2601C19.2874 20.3304 19.3703 20.3862 19.4617 20.4243C19.5531 20.4624 19.6511 20.482 19.7501 20.482C19.8491 20.482 19.9472 20.4624 20.0386 20.4243C20.13 20.3862 20.2129 20.3304 20.2826 20.2601C20.4178 20.1203 20.4934 19.9334 20.4934 19.7389C20.4934 19.5444 20.4178 19.3575 20.2826 19.2176ZM13.0001 18.2501H8.80764L9.28764 17.7776C9.42733 17.6371 9.50573 17.447 9.50573 17.2489C9.50573 17.0507 9.42733 16.8607 9.28764 16.7201C8.39401 15.8265 7.85273 14.6405 7.76317 13.3799C7.67362 12.1193 8.04181 10.8686 8.80014 9.85764L16.1426 17.2001C15.2359 17.8802 14.1335 18.2485 13.0001 18.2501Z" fill="white"/>
</svg>
