<svg width="25" height="24" viewBox="0 0 25 24" xmlns="http://www.w3.org/2000/svg">
<path d="M23.5 11.375C23.5043 13.0249 23.1188 14.6524 22.375 16.125C21.493 17.8897 20.1372 19.374 18.4593 20.4116C16.7814 21.4493 14.8478 21.9993 12.875 22C11.2252 22.0043 9.59764 21.6189 8.125 20.875L1 23.25L3.375 16.125C2.63116 14.6524 2.2457 13.0249 2.25 11.375C2.25076 9.40223 2.80076 7.4686 3.8384 5.79072C4.87603 4.11285 6.36032 2.75699 8.125 1.87504C9.59764 1.1312 11.2252 0.745734 12.875 0.750036H13.5C16.1054 0.893775 18.5663 1.99349 20.4114 3.83861C22.2565 5.68373 23.3563 8.1446 23.5 10.75V11.375Z" stroke="none" stroke-width="1.5" stroke-linecap="round" stroke-linejoin="round"/>
<path d="M12.1944 10.6877C12.3589 10.5779 12.5522 10.5192 12.75 10.5192C13.0152 10.5192 13.2696 10.6246 13.4571 10.8121C13.6446 10.9996 13.75 11.254 13.75 11.5192C13.75 11.717 13.6913 11.9103 13.5815 12.0748C13.4716 12.2392 13.3154 12.3674 13.1327 12.4431C12.95 12.5188 12.7489 12.5386 12.5549 12.5C12.3609 12.4614 12.1827 12.3662 12.0429 12.2263C11.903 12.0865 11.8078 11.9083 11.7692 11.7143C11.7306 11.5203 11.7504 11.3193 11.8261 11.1365C11.9018 10.9538 12.03 10.7976 12.1944 10.6877Z" stroke="none" stroke-width="1.5" stroke-linecap="round" stroke-linejoin="round"/>
<path d="M8.19443 10.6877C8.35888 10.5779 8.55222 10.5192 8.75 10.5192C9.01522 10.5192 9.26957 10.6246 9.45711 10.8121C9.64464 10.9996 9.75 11.254 9.75 11.5192C9.75 11.717 9.69135 11.9103 9.58147 12.0748C9.47159 12.2392 9.31541 12.3674 9.13268 12.4431C8.94996 12.5188 8.74889 12.5386 8.55491 12.5C8.36093 12.4614 8.18275 12.3662 8.04289 12.2263C7.90304 12.0865 7.8078 11.9083 7.76921 11.7143C7.73063 11.5203 7.75043 11.3193 7.82612 11.1365C7.90181 10.9538 8.02998 10.7976 8.19443 10.6877Z" stroke="none" stroke-width="1.5" stroke-linecap="round" stroke-linejoin="round"/>
<path d="M16.1944 10.6877C16.3589 10.5779 16.5522 10.5192 16.75 10.5192C17.0152 10.5192 17.2696 10.6246 17.4571 10.8121C17.6446 10.9996 17.75 11.254 17.75 11.5192C17.75 11.717 17.6914 11.9103 17.5815 12.0748C17.4716 12.2392 17.3154 12.3674 17.1327 12.4431C16.95 12.5188 16.7489 12.5386 16.5549 12.5C16.3609 12.4614 16.1827 12.3662 16.0429 12.2263C15.903 12.0865 15.8078 11.9083 15.7692 11.7143C15.7306 11.5203 15.7504 11.3193 15.8261 11.1365C15.9018 10.9538 16.03 10.7976 16.1944 10.6877Z" stroke="none" stroke-width="1.5" stroke-linecap="round" stroke-linejoin="round"/>
</svg>
