<svg width="25" height="24" viewBox="0 0 25 24" fill="none" xmlns="http://www.w3.org/2000/svg">
<path d="M10.75 5C10.5522 5 10.3589 5.05865 10.1944 5.16853C10.03 5.27841 9.90181 5.43459 9.82612 5.61732C9.75043 5.80004 9.73063 6.00111 9.76921 6.19509C9.8078 6.38907 9.90304 6.56725 10.0429 6.70711C10.1827 6.84696 10.3609 6.9422 10.5549 6.98079C10.7489 7.01937 10.95 6.99957 11.1327 6.92388C11.3154 6.84819 11.4716 6.72002 11.5815 6.55557C11.6914 6.39112 11.75 6.19778 11.75 6C11.75 5.73478 11.6446 5.48043 11.4571 5.29289C11.2696 5.10536 11.0152 5 10.75 5ZM6.75 5C6.55222 5 6.35888 5.05865 6.19443 5.16853C6.02998 5.27841 5.90181 5.43459 5.82612 5.61732C5.75043 5.80004 5.73063 6.00111 5.76921 6.19509C5.8078 6.38907 5.90304 6.56725 6.04289 6.70711C6.18275 6.84696 6.36093 6.9422 6.55491 6.98079C6.74889 7.01937 6.94996 6.99957 7.13268 6.92388C7.31541 6.84819 7.47159 6.72002 7.58147 6.55557C7.69135 6.39112 7.75 6.19778 7.75 6C7.75 5.73478 7.64464 5.48043 7.45711 5.29289C7.26957 5.10536 7.01522 5 6.75 5ZM14.75 5C14.5522 5 14.3589 5.05865 14.1944 5.16853C14.03 5.27841 13.9018 5.43459 13.8261 5.61732C13.7504 5.80004 13.7306 6.00111 13.7692 6.19509C13.8078 6.38907 13.903 6.56725 14.0429 6.70711C14.1827 6.84696 14.3609 6.9422 14.5549 6.98079C14.7489 7.01937 14.95 6.99957 15.1327 6.92388C15.3154 6.84819 15.4716 6.72002 15.5815 6.55557C15.6914 6.39112 15.75 6.19778 15.75 6C15.75 5.73478 15.6446 5.48043 15.4571 5.29289C15.2696 5.10536 15.0152 5 14.75 5ZM20.75 1H4.75C3.95435 1 3.19129 1.31607 2.62868 1.87868C2.06607 2.44129 1.75 3.20435 1.75 4V20C1.75 20.7956 2.06607 21.5587 2.62868 22.1213C3.19129 22.6839 3.95435 23 4.75 23H20.75C21.5456 23 22.3087 22.6839 22.8713 22.1213C23.4339 21.5587 23.75 20.7956 23.75 20V4C23.75 3.20435 23.4339 2.44129 22.8713 1.87868C22.3087 1.31607 21.5456 1 20.75 1ZM21.75 20C21.75 20.2652 21.6446 20.5196 21.4571 20.7071C21.2696 20.8946 21.0152 21 20.75 21H4.75C4.48478 21 4.23043 20.8946 4.04289 20.7071C3.85536 20.5196 3.75 20.2652 3.75 20V11H21.75V20ZM21.75 9H3.75V4C3.75 3.73478 3.85536 3.48043 4.04289 3.29289C4.23043 3.10536 4.48478 3 4.75 3H20.75C21.0152 3 21.2696 3.10536 21.4571 3.29289C21.6446 3.48043 21.75 3.73478 21.75 4V9Z" fill="#7843DD"/>
</svg>
