<svg width="20" height="20" viewBox="0 0 20 20" fill="none" xmlns="http://www.w3.org/2000/svg">
<path d="M0 3C0 1.34315 1.34315 0 3 0H17C18.6569 0 20 1.34315 20 3V17C20 18.6569 18.6569 20 17 20H3C1.34315 20 0 18.6569 0 17V3Z" fill="white"/>
<path d="M17.768 7.95842L16.193 7.43342L16.9346 5.95008C17.0098 5.79482 17.035 5.62005 17.0066 5.44989C16.9782 5.27973 16.8978 5.12257 16.7763 5.00008L15.0013 3.22508C14.8782 3.10182 14.7195 3.02026 14.5476 2.99186C14.3757 2.96345 14.1992 2.98965 14.043 3.06675L12.5596 3.80842L12.0346 2.23342C11.9792 2.06924 11.8739 1.92644 11.7335 1.82487C11.5932 1.72331 11.4246 1.66804 11.2513 1.66675H8.7513C8.5766 1.6663 8.40618 1.72077 8.26411 1.82245C8.12205 1.92414 8.01554 2.0679 7.95964 2.23342L7.43464 3.80842L5.9513 3.06675C5.79604 2.99157 5.62128 2.96642 5.45112 2.99478C5.28096 3.02314 5.12379 3.10361 5.00131 3.22508L3.2263 5.00008C3.10304 5.12322 3.02148 5.2819 2.99308 5.4538C2.96468 5.6257 2.99087 5.80218 3.06797 5.95842L3.80964 7.44175L2.23464 7.96675C2.07047 8.0222 1.92766 8.12744 1.82609 8.26784C1.72453 8.40824 1.66926 8.57681 1.66797 8.75008V11.2501C1.66752 11.4248 1.72199 11.5952 1.82367 11.7373C1.92536 11.8793 2.06912 11.9858 2.23464 12.0418L3.80964 12.5668L3.06797 14.0501C2.99279 14.2053 2.96764 14.3801 2.996 14.5503C3.02436 14.7204 3.10483 14.8776 3.2263 15.0001L5.00131 16.7751C5.12444 16.8983 5.28312 16.9799 5.45502 17.0083C5.62692 17.0367 5.8034 17.0105 5.95964 16.9334L7.44297 16.1918L7.96797 17.7668C8.02388 17.9323 8.13039 18.076 8.27245 18.1777C8.41451 18.2794 8.58494 18.3339 8.75964 18.3334H11.2596C11.4343 18.3339 11.6048 18.2794 11.7468 18.1777C11.8889 18.076 11.9954 17.9323 12.0513 17.7668L12.5763 16.1918L14.0596 16.9334C14.2139 17.0067 14.387 17.0308 14.5554 17.0025C14.7238 16.9742 14.8795 16.8948 15.0013 16.7751L16.7763 15.0001C16.8996 14.8769 16.9811 14.7183 17.0095 14.5464C17.0379 14.3745 17.0117 14.198 16.9346 14.0418L16.193 12.5584L17.768 12.0334C17.9321 11.978 18.075 11.8727 18.1765 11.7323C18.2781 11.5919 18.3334 11.4234 18.3346 11.2501V8.75008C18.3351 8.57538 18.2806 8.40495 18.1789 8.26289C18.0773 8.12083 17.9335 8.01432 17.768 7.95842ZM16.668 10.6501L15.668 10.9834C15.438 11.058 15.227 11.1817 15.0497 11.346C14.8723 11.5103 14.7328 11.7112 14.6409 11.9347C14.5489 12.1583 14.5067 12.3992 14.5171 12.6407C14.5275 12.8823 14.5904 13.1186 14.7013 13.3334L15.1763 14.2834L14.2596 15.2001L13.3346 14.7001C13.1209 14.5936 12.8868 14.5343 12.6482 14.5262C12.4096 14.518 12.172 14.5613 11.9516 14.6529C11.7311 14.7446 11.5329 14.8825 11.3704 15.0574C11.2079 15.2324 11.0849 15.4402 11.0096 15.6668L10.6763 16.6668H9.35131L9.01797 15.6668C8.94338 15.4368 8.81966 15.2258 8.65539 15.0485C8.49112 14.8711 8.29023 14.7316 8.06666 14.6396C7.84308 14.5477 7.60218 14.5054 7.36066 14.5159C7.11914 14.5263 6.88278 14.5892 6.66797 14.7001L5.71797 15.1751L4.80131 14.2584L5.30131 13.3334C5.41222 13.1186 5.47507 12.8823 5.48551 12.6407C5.49595 12.3992 5.45372 12.1583 5.36175 11.9347C5.26979 11.7112 5.13029 11.5103 4.95293 11.346C4.77557 11.1817 4.56459 11.058 4.33464 10.9834L3.33464 10.6501V9.35008L4.33464 9.01675C4.56459 8.94216 4.77557 8.81844 4.95293 8.65417C5.13029 8.48989 5.26979 8.28901 5.36175 8.06543C5.45372 7.84186 5.49595 7.60096 5.48551 7.35944C5.47507 7.11792 5.41222 6.88156 5.30131 6.66675L4.8263 5.74175L5.74297 4.82508L6.66797 5.30008C6.88278 5.411 7.11914 5.47385 7.36066 5.48429C7.60218 5.49473 7.84308 5.4525 8.06666 5.36053C8.29023 5.26857 8.49112 5.12907 8.65539 4.95171C8.81966 4.77434 8.94338 4.56337 9.01797 4.33342L9.35131 3.33342H10.6513L10.9846 4.33342C11.0592 4.56337 11.183 4.77434 11.3472 4.95171C11.5115 5.12907 11.7124 5.26857 11.936 5.36053C12.1595 5.4525 12.4004 5.49473 12.642 5.48429C12.8835 5.47385 13.1198 5.411 13.3346 5.30008L14.2846 4.82508L15.2013 5.74175L14.7013 6.66675C14.5948 6.88046 14.5355 7.11454 14.5274 7.35316C14.5192 7.59178 14.5625 7.82936 14.6541 8.04982C14.7458 8.27028 14.8838 8.46847 15.0587 8.63098C15.2336 8.79349 15.4414 8.91653 15.668 8.99175L16.668 9.32508V10.6501ZM10.0013 6.66675C9.34203 6.66675 8.69757 6.86225 8.1494 7.22852C7.60124 7.59479 7.174 8.11539 6.92171 8.72447C6.66941 9.33356 6.6034 10.0038 6.73202 10.6504C6.86064 11.297 7.17811 11.8909 7.64428 12.3571C8.11046 12.8233 8.7044 13.1408 9.351 13.2694C9.99761 13.398 10.6678 13.332 11.2769 13.0797C11.886 12.8274 12.4066 12.4001 12.7729 11.852C13.1391 11.3038 13.3346 10.6594 13.3346 10.0001C13.3346 9.11603 12.9834 8.26818 12.3583 7.64306C11.7332 7.01794 10.8854 6.66675 10.0013 6.66675ZM10.0013 11.6668C9.67167 11.6668 9.34944 11.569 9.07535 11.3859C8.80127 11.2027 8.58765 10.9424 8.46151 10.6379C8.33536 10.3333 8.30235 9.99824 8.36666 9.67493C8.43097 9.35163 8.58971 9.05466 8.82279 8.82157C9.05588 8.58849 9.35285 8.42975 9.67615 8.36544C9.99946 8.30113 10.3346 8.33414 10.6391 8.46028C10.9437 8.58643 11.204 8.80005 11.3871 9.07413C11.5702 9.34822 11.668 9.67045 11.668 10.0001C11.668 10.4421 11.4924 10.866 11.1798 11.1786C10.8673 11.4912 10.4433 11.6668 10.0013 11.6668Z" fill="#2F3945"/>
</svg>
