<svg width="24" height="24" viewBox="0 0 24 24" fill="none" xmlns="http://www.w3.org/2000/svg">
<path d="M19.7141 5.91597V15.857C19.7141 16.88 19.3077 17.861 18.5844 18.5844C17.861 19.3077 16.88 19.7141 15.857 19.7141H5.91597C6.14165 20.105 6.46625 20.4296 6.85714 20.6553C7.24803 20.881 7.69144 20.9998 8.1428 20.9998H15.857C17.221 20.9998 18.529 20.458 19.4935 19.4935C20.458 18.529 20.9998 17.221 20.9998 15.857V8.1428C20.9998 7.69144 20.881 7.24803 20.6553 6.85714C20.4296 6.46625 20.105 6.14165 19.7141 5.91597ZM13.9285 11.3571C14.0989 11.3571 14.2625 11.2893 14.383 11.1688C14.5036 11.0482 14.5713 10.8847 14.5713 10.7142C14.5713 10.5437 14.5036 10.3802 14.383 10.2596C14.2625 10.1391 14.0989 10.0714 13.9285 10.0714H11.3571V7.49995C11.3571 7.32946 11.2893 7.16595 11.1688 7.04539C11.0482 6.92483 10.8847 6.8571 10.7142 6.8571C10.5437 6.8571 10.3802 6.92483 10.2596 7.04539C10.1391 7.16595 10.0714 7.32946 10.0714 7.49995V10.0714H7.49995C7.32946 10.0714 7.16595 10.1391 7.04539 10.2596C6.92483 10.3802 6.8571 10.5437 6.8571 10.7142C6.8571 10.8847 6.92483 11.0482 7.04539 11.1688C7.16595 11.2893 7.32946 11.3571 7.49995 11.3571H10.0714V13.9285C10.0714 14.0989 10.1391 14.2625 10.2596 14.383C10.3802 14.5036 10.5437 14.5713 10.7142 14.5713C10.8847 14.5713 11.0482 14.5036 11.1688 14.383C11.2893 14.2625 11.3571 14.0989 11.3571 13.9285V11.3571H13.9285ZM15.857 3C16.539 3 17.193 3.27091 17.6753 3.75315C18.1575 4.23538 18.4284 4.88942 18.4284 5.5714V15.857C18.4284 16.539 18.1575 17.193 17.6753 17.6753C17.193 18.1575 16.539 18.4284 15.857 18.4284H5.5714C4.88942 18.4284 4.23538 18.1575 3.75315 17.6753C3.27091 17.193 3 16.539 3 15.857V5.5714C3 4.88942 3.27091 4.23538 3.75315 3.75315C4.23538 3.27091 4.88942 3 5.5714 3H15.857ZM17.1427 5.5714C17.1427 5.23041 17.0072 4.90339 16.7661 4.66227C16.525 4.42116 16.198 4.2857 15.857 4.2857H5.5714C5.23041 4.2857 4.90339 4.42116 4.66227 4.66227C4.42116 4.90339 4.2857 5.23041 4.2857 5.5714V15.857C4.2857 16.198 4.42116 16.525 4.66227 16.7661C4.90339 17.0072 5.23041 17.1427 5.5714 17.1427H15.857C16.198 17.1427 16.525 17.0072 16.7661 16.7661C17.0072 16.525 17.1427 16.198 17.1427 15.857V5.5714Z" fill="#0C0D0E"/>
</svg>
