<svg width="26" height="24" viewBox="0 0 26 24" fill="none" xmlns="http://www.w3.org/2000/svg">
<path d="M18.2246 13.18V13.5336L18.5579 13.6514C19.0442 13.8233 19.4654 14.1415 19.7638 14.5622C20.0621 14.9827 20.223 15.4852 20.2246 16.0008V18C20.2246 18.1326 20.1719 18.2598 20.0782 18.3536C19.9844 18.4473 19.8572 18.5 19.7246 18.5H16.5846H16.2024L16.1021 18.8689C15.9006 19.6103 15.4607 20.2649 14.8503 20.7315C14.2399 21.1982 13.4929 21.451 12.7246 21.451C11.9563 21.451 11.2093 21.1982 10.5989 20.7315C9.98849 20.2649 9.54861 19.6103 9.34711 18.8689L9.24686 18.5H8.86461H5.72461C5.592 18.5 5.46482 18.4473 5.37106 18.3536C5.27729 18.2598 5.22461 18.1326 5.22461 18V16.0007C5.2262 15.4852 5.38714 14.9827 5.68539 14.5622C5.98377 14.1415 6.40498 13.8233 6.89127 13.6514L7.22461 13.5336V13.18L7.22461 10.0005C7.22461 10.0004 7.22461 10.0004 7.22461 10.0003C7.22598 8.70155 7.68688 7.44521 8.52571 6.45372C9.36459 5.46216 10.5273 4.79947 11.8079 4.58301L12.2246 4.51258V4.09V3C12.2246 2.86739 12.2773 2.74021 12.3711 2.64645C12.4648 2.55268 12.592 2.5 12.7246 2.5C12.8572 2.5 12.9844 2.55268 13.0782 2.64645C13.1719 2.74021 13.2246 2.86739 13.2246 3V4.09V4.51258L13.6413 4.58301C14.9219 4.79947 16.0846 5.46216 16.9235 6.45372C17.7624 7.44527 18.2233 8.7017 18.2246 10.0005V13.18ZM16.7246 13.5H17.2246V13V10C17.2246 8.80653 16.7505 7.66193 15.9066 6.81802C15.0627 5.97411 13.9181 5.5 12.7246 5.5C11.5311 5.5 10.3865 5.97411 9.54263 6.81802C8.69871 7.66193 8.22461 8.80653 8.22461 10V13V13.5H8.72461H16.7246ZM12.7216 20.5V20.5L12.7276 20.5C13.1639 20.4974 13.5919 20.3806 13.9691 20.1613C14.3463 19.942 14.6595 19.6278 14.8776 19.25L15.3106 18.5H14.4446H11.0046H10.1386L10.5716 19.25C10.7897 19.6278 11.103 19.942 11.4801 20.1613C11.8573 20.3806 12.2853 20.4974 12.7216 20.5ZM18.7246 17.5H19.2246V17V16C19.2246 15.6022 19.0666 15.2206 18.7853 14.9393C18.504 14.658 18.1224 14.5 17.7246 14.5H7.72461C7.32678 14.5 6.94525 14.658 6.66395 14.9393C6.38264 15.2206 6.22461 15.6022 6.22461 16V17V17.5H6.72461H18.7246Z" fill="#77879C" stroke="#77879C"/>
</svg>
