<svg width="25" height="24" viewBox="0 0 25 24" fill="none" xmlns="http://www.w3.org/2000/svg">
<path opacity="0.4" d="M9.75 2C7.13 2 5 4.13 5 6.75C5 9.32 7.01 11.4 9.63 11.49C9.71 11.48 9.79 11.48 9.85 11.49C9.87 11.49 9.88 11.49 9.9 11.49C9.91 11.49 9.91 11.49 9.92 11.49C12.48 11.4 14.49 9.32 14.5 6.75C14.5 4.13 12.37 2 9.75 2Z" fill="#7843DD"/>
<path d="M14.83 14.15C12.04 12.29 7.49001 12.29 4.68001 14.15C3.41001 15 2.71001 16.15 2.71001 17.38C2.71001 18.61 3.41001 19.75 4.67001 20.59C6.07001 21.53 7.91001 22 9.75001 22C11.59 22 13.43 21.53 14.83 20.59C16.09 19.74 16.79 18.6 16.79 17.36C16.78 16.13 16.09 14.99 14.83 14.15Z" fill="#7843DD"/>
<path opacity="0.4" d="M20.74 7.34C20.9 9.28 19.52 10.98 17.61 11.21C17.6 11.21 17.6 11.21 17.59 11.21H17.56C17.5 11.21 17.44 11.21 17.39 11.23C16.42 11.28 15.53 10.97 14.86 10.4C15.89 9.48 16.48 8.1 16.36 6.6C16.29 5.79 16.01 5.05 15.59 4.42C15.97 4.23 16.41 4.11 16.86 4.07C18.82 3.9 20.57 5.36 20.74 7.34Z" fill="#7843DD"/>
<path d="M22.74 16.59C22.66 17.56 22.04 18.4 21 18.97C20 19.52 18.74 19.78 17.49 19.75C18.21 19.1 18.63 18.29 18.71 17.43C18.81 16.19 18.22 15 17.04 14.05C16.37 13.52 15.59 13.1 14.74 12.79C16.95 12.15 19.73 12.58 21.44 13.96C22.36 14.7 22.83 15.63 22.74 16.59Z" fill="#7843DD"/>
</svg>
