<svg width="24" height="24" viewBox="0 0 24 24" fill="none" xmlns="http://www.w3.org/2000/svg">
<path d="M21.0681 9.68358C20.9365 9.71041 20.8115 9.76291 20.7001 9.83808C20.5888 9.91325 20.4933 10.0096 20.4193 10.1217C20.3452 10.2337 20.2939 10.3593 20.2684 10.4912C20.2428 10.623 20.2435 10.7586 20.2704 10.8902C20.6697 12.8293 20.4331 14.8454 19.5955 16.6393C18.758 18.4332 17.3643 19.9093 15.6212 20.8484C13.8782 21.7875 11.8788 22.1396 9.91973 21.8524C7.96069 21.5652 6.14649 20.654 4.74644 19.2541C3.34638 17.8543 2.4351 16.0403 2.14786 14.0815C1.86063 12.1227 2.21276 10.1235 3.15197 8.38065C4.09119 6.63782 5.56743 5.24426 7.36155 4.40684C9.15568 3.56942 11.172 3.33278 13.1113 3.73204C13.3826 3.78628 13.6643 3.73056 13.8944 3.57714C14.1246 3.42372 14.2844 3.18517 14.3386 2.91396C14.3929 2.64275 14.3371 2.3611 14.1837 2.13097C14.0303 1.90084 13.7917 1.74108 13.5204 1.68684C12.772 1.54741 12.0111 1.48572 11.25 1.50277C9.02494 1.50277 6.84988 2.16249 4.99983 3.3985C3.14978 4.63452 1.70784 6.39131 0.856358 8.44672C0.00487451 10.5021 -0.217913 12.7639 0.21617 14.9459C0.650253 17.1279 1.72171 19.1322 3.29505 20.7054C4.86838 22.2785 6.87294 23.3498 9.05522 23.7839C11.2375 24.2179 13.4995 23.9951 15.5552 23.1437C17.6108 22.2924 19.3678 20.8506 20.604 19.0008C21.8402 17.151 22.5 14.9761 22.5 12.7514C22.5021 11.9958 22.4267 11.2419 22.275 10.5017C22.2505 10.3682 22.1996 10.241 22.1255 10.1273C22.0513 10.0137 21.9553 9.91598 21.8429 9.83984C21.7306 9.7637 21.6043 9.71067 21.4712 9.68385C21.3382 9.65702 21.2012 9.65693 21.0681 9.68358Z" fill="#828085"/>
<path d="M11.25 14.621C12.0548 14.621 12.8353 14.3485 13.4618 13.8488C13.6532 13.6914 13.8999 13.6157 14.1478 13.6383C14.2705 13.6495 14.3898 13.6845 14.4988 13.7413C14.6078 13.7981 14.7045 13.8756 14.7833 13.9693C14.9423 14.1587 15.0189 14.4027 14.996 14.6479C14.9732 14.8931 14.8528 15.1192 14.6614 15.2766C13.7042 16.067 12.4969 16.5 11.25 16.5C10.0031 16.5 8.79577 16.067 7.83857 15.2766C7.64717 15.1192 7.52681 14.8931 7.50397 14.6479C7.48112 14.4027 7.55765 14.1587 7.71673 13.9693C7.87581 13.78 8.10441 13.6609 8.35223 13.6383C8.60005 13.6157 8.8468 13.6914 9.03819 13.8488C9.6647 14.3485 10.4452 14.621 11.25 14.621Z" fill="#828085"/>
<path d="M8.95906 10.698C8.80494 10.7999 8.62374 10.8542 8.43838 10.8542C8.18982 10.8542 7.95144 10.7565 7.77568 10.5827C7.59991 10.4088 7.50117 10.173 7.50117 9.92711C7.50117 9.74375 7.55614 9.5645 7.65912 9.41204C7.7621 9.25957 7.90847 9.14074 8.07973 9.07057C8.25098 9.0004 8.43942 8.98204 8.62122 9.01781C8.80302 9.05359 8.97001 9.14189 9.10108 9.27155C9.23216 9.4012 9.32142 9.5664 9.35758 9.74624C9.39374 9.92608 9.37518 10.1125 9.30425 10.2819C9.23331 10.4513 9.11319 10.5961 8.95906 10.698Z" fill="#828085"/>
<path d="M13.5409 9.15625C13.6951 9.05437 13.8763 9 14.0616 9C14.3102 9 14.5486 9.09768 14.7243 9.27155C14.9001 9.44541 14.9988 9.68123 14.9988 9.92711C14.9988 10.1105 14.9439 10.2897 14.8409 10.4422C14.7379 10.5947 14.5915 10.7135 14.4203 10.7837C14.249 10.8538 14.0606 10.8722 13.8788 10.8364C13.697 10.8006 13.53 10.7123 13.3989 10.5827C13.2678 10.453 13.1786 10.2878 13.1424 10.108C13.1063 9.92814 13.1248 9.74173 13.1958 9.57232C13.2667 9.40291 13.3868 9.25812 13.5409 9.15625Z" fill="#828085"/>
<path fill-rule="evenodd" clip-rule="evenodd" d="M19.5 0C19.9854 0 20.379 0.393534 20.379 0.878982V3.62102H23.121C23.6065 3.62102 24 4.01455 24 4.5C24 4.98545 23.6065 5.37898 23.121 5.37898H20.379V8.12102C20.379 8.60647 19.9854 9 19.5 9C19.0146 9 18.621 8.60647 18.621 8.12102V5.37898H15.879C15.3935 5.37898 15 4.98545 15 4.5C15 4.01455 15.3935 3.62102 15.879 3.62102H18.621L18.621 0.878982C18.621 0.393533 19.0146 0 19.5 0Z" fill="#828085"/>
</svg>
