<svg width="48" height="48" viewBox="0 0 48 48" fill="none" xmlns="http://www.w3.org/2000/svg">
<path d="M37.8101 48H10.1899C4.56195 48 0 43.4375 0 37.8101V10.1899C0 4.56195 4.56195 0 10.1899 0H37.8101C43.4375 0 48 4.56195 48 10.1899V37.8101C48 43.4375 43.4375 48 37.8101 48Z" fill="#874ECF"/>
<path opacity="0.2" d="M41.4355 40.3096C41.5175 40.5779 41.2767 40.8345 41.0028 40.7703L36.284 39.6625C34.9523 39.35 33.5645 39.4116 32.2561 39.8097C31.5627 40.0215 30.8444 40.1808 30.1042 40.2857C27.0166 40.7215 24.0124 40.107 21.4558 38.7136C17.7058 36.6732 14.9191 32.9594 14.2466 28.4341C12.9331 19.5932 20.1678 11.4295 29.7774 12.3901C31.8651 12.5989 33.8323 13.2815 35.5586 14.342C38.021 15.8545 39.9912 18.1383 41.1148 20.9118C42.6945 24.815 42.4695 28.794 40.9636 32.1336C40.1999 33.8289 40.0569 35.7385 40.5945 37.5193L41.4355 40.3096Z" fill="black"/>
<path opacity="0.2" d="M38.1096 25.4401C36.901 33.5733 29.5467 39.3484 21.4558 38.7136C17.7058 36.6732 14.9191 32.9594 14.2466 28.4341C12.9331 19.5932 20.1678 11.4295 29.7774 12.3901C31.8651 12.5989 33.8323 13.2815 35.5586 14.342C37.7008 17.4769 38.7104 21.3944 38.1096 25.4401Z" fill="black"/>
<path d="M19.5694 7.30489C13.9419 7.86743 9.0954 11.5319 6.97301 16.7745C5.21766 21.1104 5.46814 25.5323 7.1405 29.2421C7.98966 31.1257 8.14798 33.2481 7.55082 35.2264L6.61562 38.3268C6.52552 38.6256 6.79279 38.9102 7.09671 38.8389L12.3393 37.6079C13.8192 37.2602 15.3618 37.3289 16.8157 37.7719C17.5855 38.006 18.3837 38.1842 19.2064 38.3003C27.67 39.4941 35.5696 33.5866 36.8255 25.1317C38.2856 15.3093 30.247 6.23784 19.5694 7.30489Z" fill="white"/>
<path d="M18.7007 22.0904C19.0693 21.563 19.25 20.9195 19.2113 20.2689C19.1691 19.5633 18.8646 18.8954 18.3535 18.3883C17.7838 17.8228 17.0935 17.5361 16.3004 17.5361H11.1993C11.1524 17.5361 11.1143 17.5743 11.1143 17.6212V28.0549C11.1143 28.1018 11.1524 28.14 11.1993 28.14C12.7566 28.14 13.8404 28.1405 14.5995 28.1405H15.5657C16.3788 28.1405 16.3996 28.1394 16.4862 28.1354C16.5167 28.1338 16.5564 28.1323 16.645 28.1298C16.6577 28.1293 16.6694 28.1262 16.6801 28.1211C17.4809 28.0412 18.1855 27.7032 18.7761 27.1162C19.3401 26.5552 19.6883 25.8475 19.7835 25.0701C19.8711 24.3523 19.7321 23.6167 19.3926 22.9992C19.2047 22.6576 18.9721 22.3521 18.7007 22.0904ZM16.4241 19.7583C16.8201 19.8219 16.9927 20.1503 16.9876 20.4517C16.9825 20.7597 16.7942 21.0896 16.3844 21.1349C16.2988 21.1349 15.0337 21.1369 13.8124 21.1369C13.6597 21.1369 13.5075 21.1369 13.3578 21.1369V19.7583H16.4144C16.4179 19.7588 16.421 19.7588 16.4241 19.7583ZM13.3583 23.3708H16.3009C17.1739 23.3708 17.5715 24.024 17.5715 24.6308C17.5715 24.9637 17.457 25.2728 17.2488 25.5019C17.0141 25.76 16.6761 25.8964 16.2708 25.8964H13.3583V23.3708Z" fill="#874ECF"/>
<path d="M22.6898 17.522H20.6265C20.5797 17.522 20.5415 17.5602 20.5415 17.607L20.5303 28.0352C20.5303 28.0576 20.5394 28.0795 20.5552 28.0952C20.571 28.111 20.5929 28.1202 20.6153 28.1202H22.6893C22.7362 28.1202 22.7743 28.082 22.7743 28.0352V17.607C22.7743 17.5602 22.7367 17.522 22.6898 17.522Z" fill="#874ECF"/>
<path d="M27.958 19.7392H31.5644C31.6112 19.7392 31.6494 19.7011 31.6494 19.6542V17.5909C31.6494 17.544 31.6112 17.5059 31.5644 17.5059H27.958C27.5125 17.5059 27.0737 17.5726 26.6532 17.7039C25.7495 17.9859 24.9518 18.5678 24.4061 19.3427C23.6175 20.4616 23.6175 21.489 23.6175 22.3147V22.3376C23.6175 22.5153 23.6139 22.6986 23.6103 22.8757C23.5971 23.5365 23.5834 24.2197 23.7478 24.8688C23.9805 25.7893 24.5201 26.6206 25.2664 27.2096C26.0255 27.8093 26.982 28.1397 27.959 28.1397H31.5654C31.6122 28.1397 31.6504 28.1015 31.6504 28.0547V25.9914C31.6504 25.9445 31.6122 25.9063 31.5654 25.9063H27.959C26.9031 25.9063 26.0224 25.1498 25.8651 24.1057C25.8407 23.9581 25.8274 21.7669 25.8661 21.5333C26.0234 20.4937 26.9036 19.7392 27.958 19.7392Z" fill="#874ECF"/>
</svg>
