<svg width="25" height="24" viewBox="0 0 25 24"  xmlns="http://www.w3.org/2000/svg">
<path d="M18.5 8C18.5 6.4087 17.8679 4.88258 16.7426 3.75736C15.6174 2.63214 14.0913 2 12.5 2C10.9087 2 9.38258 2.63214 8.25736 3.75736C7.13214 4.88258 6.5 6.4087 6.5 8C6.5 15 3.5 17 3.5 17H21.5C21.5 17 18.5 15 18.5 8Z" stroke="none" stroke-width="1.6" stroke-linecap="round" stroke-linejoin="round"/>
<path d="M14.23 21C14.0541 21.3031 13.8018 21.5547 13.4982 21.7295C13.1946 21.9044 12.8503 21.9965 12.5 21.9965C12.1496 21.9965 11.8053 21.9044 11.5017 21.7295C11.1981 21.5547 10.9458 21.3031 10.77 21" stroke="none" stroke-width="1.6" stroke-linecap="round" stroke-linejoin="round"/>
</svg>
