<svg width="196" height="276" viewBox="0 0 196 276" fill="none" xmlns="http://www.w3.org/2000/svg">
<path d="M128.733 86.4004L97.9351 82.0977C96.5094 122.749 72.9268 140.656 71.5254 180.616C70.7412 202.984 87.5567 224.455 110.033 227.594C132.511 230.734 150.789 214.194 151.573 191.827C153.031 150.265 126.97 136.668 128.733 86.4004Z" fill="#FCE9B8"/>
<path d="M181.827 234.715C180.498 233.941 178.905 234.335 178.269 235.595C177.633 236.855 178.194 238.506 179.523 239.28C180.852 240.055 182.445 239.661 183.081 238.401C183.718 237.14 183.156 235.49 181.827 234.715Z" fill="#FCE9B8"/>
<path d="M82.3322 249.12C82.2989 249.101 82.2589 249.111 82.2429 249.142C82.2269 249.174 82.241 249.215 82.2744 249.235C82.3078 249.254 82.3478 249.244 82.3637 249.213C82.3797 249.181 82.3656 249.14 82.3322 249.12Z" fill="#FCE9B8"/>
<path d="M37.2819 222.943C36.0601 222.772 35.0352 223.619 34.9926 224.835C34.9501 226.05 35.9057 227.174 37.1274 227.345C38.3492 227.516 39.374 226.669 39.4165 225.453C39.4592 224.237 38.5036 223.113 37.2819 222.943Z" fill="#FCE9B8"/>
<path d="M191.206 239.116C189.764 238.276 188.036 238.703 187.345 240.071C186.655 241.439 187.264 243.229 188.706 244.07C190.148 244.911 191.877 244.483 192.568 243.116C193.258 241.747 192.649 239.957 191.206 239.116Z" fill="#FCE9B8"/>
<path d="M180.991 236.635C180.833 236.543 180.642 236.59 180.566 236.74C180.49 236.891 180.558 237.088 180.716 237.18C180.875 237.273 181.065 237.226 181.141 237.075C181.217 236.925 181.15 236.728 180.991 236.635Z" fill="#FCE9B8"/>
<path d="M103.258 275.788C103.256 275.788 103.255 275.788 103.254 275.789C103.254 275.791 103.254 275.792 103.255 275.793C103.257 275.794 103.258 275.793 103.259 275.792C103.26 275.791 103.259 275.789 103.258 275.788Z" fill="#FCE9B8"/>
<path d="M59.8788 220.341C59.6799 220.225 59.4413 220.284 59.3459 220.473C59.2506 220.661 59.3347 220.908 59.5337 221.024C59.733 221.14 59.9715 221.081 60.0668 220.893C60.162 220.704 60.0778 220.457 59.8788 220.341Z" fill="#FCE9B8"/>
<path d="M161.002 198.159C153.961 194.053 145.52 196.14 142.148 202.819C138.777 209.498 141.753 218.242 148.794 222.346C155.835 226.452 164.278 224.366 167.648 217.685C171.019 211.005 168.043 202.263 161.002 198.159Z" fill="#FCE9B8"/>
<path d="M83.4256 234.394C81.832 233.465 79.9221 233.937 79.159 235.449C78.3963 236.96 79.0694 238.939 80.6627 239.868C82.2563 240.797 84.1669 240.325 84.9296 238.813C85.6924 237.301 85.0192 235.323 83.4256 234.394Z" fill="#FCE9B8"/>
<path d="M195.123 249.043C194.751 248.826 194.306 248.936 194.128 249.288C193.95 249.641 194.107 250.102 194.478 250.319C194.85 250.535 195.295 250.425 195.473 250.073C195.651 249.72 195.494 249.259 195.123 249.043Z" fill="#FCE9B8"/>
<path d="M54.6658 181.215C46.9754 180.141 40.5242 185.473 40.2556 193.125C39.9885 200.777 46.0032 207.85 53.6937 208.926C61.3842 209.999 67.8353 204.668 68.1025 197.014C68.3711 189.361 62.3563 182.289 54.6658 181.215Z" fill="#FCE9B8"/>
<path d="M192.143 248.56C191.934 248.439 191.684 248.501 191.584 248.699C191.484 248.897 191.572 249.156 191.781 249.278C191.99 249.399 192.24 249.337 192.34 249.139C192.44 248.941 192.352 248.682 192.143 248.56Z" fill="#FCE9B8"/>
<path d="M4.34522 188.708C2.99136 187.919 1.36849 188.32 0.720326 189.604C0.0720137 190.889 0.643957 192.57 1.99782 193.359C3.35183 194.148 4.9747 193.747 5.62272 192.463C6.27088 191.178 5.69894 189.497 4.34522 188.708Z" fill="#FCE9B8"/>
<path d="M20.7119 201.05C20.5098 201.022 20.3403 201.162 20.3332 201.363C20.3262 201.564 20.4843 201.75 20.6863 201.779C20.8884 201.807 21.0578 201.667 21.0649 201.466C21.0719 201.265 20.9139 201.079 20.7119 201.05Z" fill="#FCE9B8"/>
<path d="M171.303 199.248C165.963 196.135 159.561 197.716 157.003 202.782C154.448 207.849 156.704 214.48 162.043 217.593C167.385 220.707 173.787 219.122 176.345 214.057C178.902 208.99 176.645 202.36 171.303 199.248Z" fill="#FCE9B8"/>
<path d="M43.4573 198.521C42.8957 198.194 42.2224 198.36 41.9536 198.893C41.6847 199.426 41.922 200.123 42.4837 200.45C43.0451 200.778 43.7184 200.611 43.9874 200.079C44.2563 199.546 44.0191 198.849 43.4573 198.521Z" fill="#FCE9B8"/>
<path d="M172.328 215.51C169.884 214.085 166.953 214.809 165.784 217.127C164.614 219.446 165.647 222.48 168.091 223.905C170.534 225.33 173.464 224.605 174.635 222.287C175.806 219.968 174.773 216.933 172.328 215.51Z" fill="#FCE9B8"/>
<path d="M138.183 245.135C138.028 245.045 137.841 245.091 137.767 245.238C137.693 245.386 137.758 245.578 137.914 245.669C138.069 245.76 138.255 245.714 138.33 245.566C138.404 245.419 138.338 245.226 138.183 245.135Z" fill="#FCE9B8"/>
<path d="M101.338 267.429C100.876 267.16 100.324 267.297 100.103 267.734C99.882 268.172 100.077 268.744 100.538 269.013C100.999 269.282 101.552 269.145 101.773 268.708C101.994 268.27 101.799 267.698 101.338 267.429Z" fill="#FCE9B8"/>
<path d="M119.552 258.25C119.397 258.159 119.211 258.205 119.136 258.352C119.062 258.5 119.127 258.693 119.283 258.783C119.438 258.874 119.624 258.828 119.699 258.68C119.773 258.533 119.708 258.34 119.552 258.25Z" fill="#FCE9B8"/>
<path d="M61.565 191.998C59.3539 190.71 56.7027 191.364 55.6436 193.463C54.5844 195.562 55.5189 198.306 57.73 199.596C59.9442 200.885 62.5943 200.23 63.6535 198.132C64.7116 196.032 63.776 193.287 61.565 191.998Z" fill="#FCE9B8"/>
<path d="M129.94 154.421C129.939 154.421 129.937 154.421 129.937 154.422C129.936 154.423 129.937 154.424 129.938 154.425C129.939 154.425 129.94 154.425 129.941 154.424C129.941 154.423 129.941 154.422 129.94 154.421Z" fill="#FCE9B8"/>
<path d="M99.1605 127.457C99.1598 127.457 99.1592 127.457 99.1592 127.458C99.1592 127.459 99.1597 127.459 99.1604 127.46C99.1611 127.46 99.1617 127.459 99.1617 127.458C99.1618 127.458 99.1612 127.457 99.1605 127.457Z" fill="#FCE9B8"/>
<path d="M108.301 117.465C88.0247 117.465 82.6387 144.606 91.8266 163.933C92.1434 163.933 95.9453 149.729 95.9453 149.729L111.786 179.459L124.143 148.462L129.212 161.135C129.212 161.135 142.518 117.465 108.301 117.465Z" fill="#FA8293"/>
<path d="M86.163 79.6221C59.8337 105.951 70.447 112.277 86.163 141.46L95.1201 121.391L86.163 79.6221Z" fill="#B48FE0"/>
<path d="M132.342 79.6221C158.672 105.951 148.058 112.277 132.342 141.46L123.385 121.391L132.342 79.6221Z" fill="#B48FE0"/>
<path d="M132.342 141.461C137.265 132.319 141.687 125.42 144.63 119.447C138.449 120.126 129.635 117.5 128.475 97.6562L123.385 121.391L132.342 141.461Z" fill="#7335C0"/>
<path d="M86.1624 141.461L95.1195 121.391L86.303 80.2803C88.7399 103.758 91.1683 123.15 76.752 124.852C79.3982 129.567 82.6521 134.943 86.1624 141.461Z" fill="#7335C0"/>
<path d="M134.75 49.6708C133.809 22.1803 109.26 0 109.26 0C109.26 0 84.7119 22.1803 83.7711 49.6708C82.8303 77.1614 95.119 121.391 95.119 121.391H123.402C123.402 121.391 135.691 77.1614 134.75 49.6708Z" fill="#F0E9FE"/>
<path d="M96.777 14.6611C90.5518 23.632 84.2395 35.9938 83.7716 49.6717C82.8308 77.1622 95.1195 121.392 95.1195 121.392H123.403C123.403 121.392 124.113 118.832 125.178 114.571C97.2286 119.899 79.8674 89.972 96.777 14.6611Z" fill="#D6C9FD"/>
<path d="M126.841 22.9034C119.351 9.11644 109.262 0.000976562 109.262 0.000976562C109.262 0.000976562 99.1733 9.11644 91.6826 22.9034H126.841Z" fill="#B48FE0"/>
<path d="M91.6826 22.9029H126.841C126.644 22.5409 126.445 22.1839 126.245 21.8286C112.62 23.0976 92.5019 21.9115 109.262 0C109.262 0 99.1729 9.1159 91.6826 22.9029Z" fill="#7335C0"/>
<path d="M119.03 40.2297C124.866 46.066 124.866 55.5288 119.03 61.365C113.194 67.2013 103.731 67.2013 97.8951 61.365C92.0584 55.5288 92.0584 46.066 97.8951 40.2297C103.731 34.3935 113.194 34.3935 119.03 40.2297Z" fill="#DFDEDC"/>
<path d="M118.308 40.9505C123.747 46.3885 123.747 55.2054 118.308 60.6434C112.87 66.0814 104.053 66.0814 98.6154 60.6434C93.177 55.2054 93.177 46.3885 98.6154 40.9505C104.053 35.5126 112.87 35.5126 118.308 40.9505Z" fill="#7335C0"/>
<path d="M117.688 41.5723C122.783 46.6674 122.783 54.9281 117.688 60.0232C112.593 65.1183 104.332 65.1183 99.2364 60.0232C94.1413 54.9281 94.1413 46.6674 99.2364 41.5723C104.332 36.4772 112.593 36.4772 117.688 41.5723Z" fill="#B48FE0"/>
<path d="M116.261 42.9987C120.568 47.3056 120.568 54.2889 116.261 58.5958C111.954 62.9027 104.971 62.9027 100.664 58.5958C96.3569 54.2889 96.3569 47.3056 100.664 42.9987C104.971 38.6918 111.954 38.6918 116.261 42.9987Z" fill="#38445F"/>
<path d="M115.772 43.4879C119.81 47.5251 119.81 54.0706 115.772 58.1074C111.735 62.1446 105.19 62.1446 101.153 58.1074C97.1162 54.0706 97.1162 47.5251 101.153 43.4879C105.19 39.4507 111.735 39.4507 115.772 43.4879Z" fill="#E4F2FE"/>
<path d="M101.153 58.1068C103.541 60.4954 106.806 61.4588 109.912 61.021V40.5732C106.806 40.1354 103.541 41.0992 101.153 43.4878C101.063 43.5769 100.986 43.6736 100.901 43.7654V57.8287C100.986 57.9205 101.063 58.0172 101.153 58.1068Z" fill="#E4F2FE"/>
<path d="M112.454 41.2637V60.3302C113.283 59.9838 114.073 59.5216 114.806 58.9499V42.6449C114.073 42.0732 113.283 41.6105 112.454 41.2637Z" fill="#E4F2FE"/>
<path d="M93.5172 24.6277C93.5172 24.9551 93.252 25.2203 92.9246 25.2203C92.5973 25.2203 92.332 24.9551 92.332 24.6277C92.332 24.3004 92.5973 24.0352 92.9246 24.0352C93.252 24.0352 93.5172 24.3004 93.5172 24.6277Z" fill="#FCE9B8"/>
<path d="M98.027 24.6268C98.027 24.9541 97.7617 25.2194 97.4344 25.2194C97.107 25.2194 96.8418 24.9541 96.8418 24.6268C96.8418 24.2994 97.107 24.0346 97.4344 24.0342C97.7617 24.0346 98.027 24.2994 98.027 24.6268Z" fill="#FCE9B8"/>
<path d="M102.536 24.6277C102.536 24.9551 102.271 25.2203 101.943 25.2203C101.616 25.2203 101.351 24.9551 101.351 24.6277C101.351 24.3004 101.616 24.0352 101.943 24.0352C102.271 24.0352 102.536 24.3004 102.536 24.6277Z" fill="#FCE9B8"/>
<path d="M107.043 24.6277C107.043 24.9551 106.778 25.2203 106.45 25.2203C106.123 25.2199 105.858 24.9551 105.858 24.6277C105.858 24.3004 106.123 24.0352 106.45 24.0352C106.778 24.0352 107.043 24.3004 107.043 24.6277Z" fill="#FCE9B8"/>
<path d="M111.553 24.6268C111.553 24.9541 111.288 25.2194 110.961 25.2194C110.633 25.2194 110.368 24.9541 110.368 24.6268C110.368 24.2994 110.633 24.0342 110.961 24.0342C111.288 24.0342 111.553 24.2994 111.553 24.6268Z" fill="#FCE9B8"/>
<path d="M116.063 24.6277C116.063 24.9551 115.798 25.2203 115.471 25.2203C115.144 25.2203 114.878 24.9551 114.878 24.6277C114.878 24.3004 115.144 24.0352 115.471 24.0352C115.798 24.0352 116.063 24.3004 116.063 24.6277Z" fill="#FCE9B8"/>
<path d="M120.57 24.6273C120.57 24.9546 120.305 25.2203 119.977 25.2203C119.65 25.2203 119.385 24.9546 119.385 24.6273C119.385 24.3004 119.65 24.0352 119.977 24.0352C120.305 24.0352 120.57 24.3 120.57 24.6273Z" fill="#FCE9B8"/>
<path d="M125.08 24.6268C125.08 24.9541 124.814 25.2194 124.487 25.2194C124.16 25.2194 123.895 24.9541 123.895 24.6268C123.895 24.2994 124.16 24.0342 124.487 24.0342C124.814 24.0342 125.08 24.2994 125.08 24.6268Z" fill="#FCE9B8"/>
<path d="M97.4974 119.645C97.4974 120.006 97.2038 120.3 96.8427 120.3C96.4812 120.3 96.1885 120.006 96.1885 119.645C96.188 119.283 96.4812 118.99 96.8427 118.99C97.2038 118.99 97.4974 119.283 97.4974 119.645Z" fill="#FCE9B8"/>
<path d="M102.475 119.645C102.475 120.006 102.182 120.3 101.82 120.3C101.459 120.3 101.166 120.006 101.166 119.645C101.166 119.283 101.459 118.99 101.821 118.99C102.182 118.99 102.475 119.283 102.475 119.645Z" fill="#FCE9B8"/>
<path d="M107.455 119.645C107.455 120.006 107.161 120.3 106.8 120.3C106.439 120.3 106.146 120.006 106.146 119.645C106.146 119.283 106.439 118.99 106.8 118.99C107.161 118.99 107.455 119.283 107.455 119.645Z" fill="#FCE9B8"/>
<path d="M112.434 119.645C112.434 120.006 112.142 120.3 111.78 120.3C111.419 120.3 111.126 120.006 111.126 119.645C111.126 119.283 111.419 118.99 111.78 118.99C112.142 118.99 112.434 119.283 112.434 119.645Z" fill="#FCE9B8"/>
<path d="M117.411 119.645C117.411 120.006 117.118 120.3 116.757 120.3C116.395 120.3 116.103 120.006 116.103 119.645C116.103 119.283 116.395 118.99 116.757 118.99C117.118 118.99 117.411 119.283 117.411 119.645Z" fill="#FCE9B8"/>
<path d="M122.391 119.645C122.391 120.006 122.099 120.3 121.737 120.3C121.376 120.3 121.083 120.006 121.083 119.645C121.083 119.283 121.376 118.99 121.737 118.99C122.099 118.99 122.391 119.283 122.391 119.645Z" fill="#FCE9B8"/>
<path d="M109.26 77.9658V141.461C109.26 141.461 106.044 123.468 106.044 101.105C106.044 78.742 109.26 77.9658 109.26 77.9658Z" fill="#B48FE0"/>
<path d="M109.26 77.9658V141.461C109.26 141.461 112.477 123.468 112.477 101.105C112.477 78.742 109.26 77.9658 109.26 77.9658Z" fill="#7335C0"/>
</svg>
