<svg width="28" height="28" viewBox="0 0 28 28" fill="none" xmlns="http://www.w3.org/2000/svg">
<path d="M22.0559 0H5.94413C2.66128 0 0 2.66128 0 5.94413V22.0559C0 25.3387 2.66128 28 5.94413 28H22.0559C25.3387 28 28 25.3387 28 22.0559V5.94413C28 2.66128 25.3387 0 22.0559 0Z" fill="#874ECF"/>
<path opacity="0.2" d="M25.7923 25.2811C25.8051 25.3235 25.8065 25.3685 25.7964 25.4117C25.7862 25.4548 25.7649 25.4945 25.7345 25.5267C25.7041 25.5589 25.6657 25.5826 25.6233 25.5952C25.5808 25.6079 25.5358 25.6091 25.4927 25.5988L22.2406 24.835C21.3224 24.6233 20.3645 24.6583 19.4642 24.9366C18.9785 25.0842 18.4821 25.194 17.9794 25.2647C15.927 25.5554 13.8356 25.1752 12.0168 24.1808C9.43113 22.7738 7.51003 20.2136 7.04647 17.0937C6.14131 10.9984 11.1295 5.36962 17.7543 6.03187C19.1675 6.17329 20.5304 6.63335 21.7402 7.37743C23.4678 8.43966 24.8103 10.0268 25.5711 11.9068C26.6604 14.5979 26.505 17.3413 25.4668 19.6437C24.9367 20.8098 24.8463 22.1283 25.2123 23.3558L25.7923 25.2811Z" fill="black"/>
<path d="M12.9011 3.25454C9.02117 3.64239 5.67998 6.1687 4.21651 9.78311C3.00637 12.7727 3.17891 15.8214 4.33204 18.3792C4.92196 19.6751 5.02271 21.1408 4.61564 22.5053L3.97092 24.6434C3.95675 24.6904 3.9552 24.7403 3.96643 24.7881C3.97765 24.8359 4.00126 24.8799 4.03487 24.9157C4.06849 24.9515 4.11093 24.9778 4.15793 24.992C4.20493 25.0062 4.25484 25.0077 4.30264 24.9965L7.91704 24.1481C8.93777 23.9126 10.0026 23.9515 11.0034 24.2609C11.5427 24.4248 12.0938 24.5467 12.6519 24.6253C18.4865 25.4473 23.9326 21.3744 24.7988 15.5443C25.8053 8.77341 20.2629 2.51866 12.9011 3.25454Z" fill="white"/>
<path d="M11.9088 13.4817C12.2362 13.0108 12.3865 12.4392 12.333 11.8681C12.2794 11.2971 12.0255 10.7633 11.6163 10.3615C11.1364 9.88486 10.5543 9.64313 9.88611 9.64313H5.58719C5.56821 9.64313 5.55001 9.65067 5.53659 9.66409C5.52317 9.67751 5.51562 9.69572 5.51562 9.7147V18.5079C5.51563 18.5269 5.52317 18.5451 5.53659 18.5585C5.55001 18.572 5.56821 18.5795 5.58719 18.5795H9.26723C9.95264 18.5795 9.96986 18.5795 10.0429 18.5751C10.0688 18.5751 10.1023 18.5724 10.1768 18.5703C10.1872 18.5702 10.1973 18.5677 10.2065 18.5632C10.8813 18.4958 11.4755 18.211 11.9729 17.7162C12.4236 17.2722 12.7179 16.6938 12.8115 16.0681C12.9052 15.4425 12.7932 14.8033 12.4923 14.2467C12.3373 13.9639 12.1406 13.706 11.9088 13.4817V13.4817ZM9.99094 11.5164C10.3244 11.5702 10.47 11.8469 10.4661 12.1008C10.4619 12.3604 10.3031 12.6384 9.95739 12.677C9.88552 12.677 8.81911 12.6787 7.78951 12.6787H7.40732V11.517H9.98322L9.99094 11.5164ZM7.40732 14.5606H9.88701C10.6229 14.5606 10.9579 15.1109 10.9579 15.6223C10.9619 15.8924 10.8649 16.1542 10.6859 16.3564C10.4881 16.5738 10.203 16.6887 9.86176 16.6887H7.40732V14.5606Z" fill="#874ECF"/>
<path d="M15.2702 9.63217H13.5315C13.5221 9.63213 13.5128 9.63395 13.5041 9.63751C13.4954 9.64108 13.4875 9.64632 13.4809 9.65294C13.4742 9.65956 13.4689 9.66743 13.4653 9.6761C13.4617 9.68477 13.4599 9.69406 13.4599 9.70344L13.4507 18.4916C13.4506 18.5011 13.4524 18.5104 13.456 18.5191C13.4595 18.5278 13.4648 18.5358 13.4715 18.5424C13.4781 18.5491 13.4861 18.5544 13.4948 18.5579C13.5035 18.5615 13.5128 18.5633 13.5223 18.5632H15.2702C15.2796 18.5633 15.2889 18.5614 15.2976 18.5578C15.3063 18.5543 15.3143 18.549 15.3209 18.5423C15.3276 18.5357 15.3328 18.5278 15.3364 18.5191C15.34 18.5104 15.3418 18.5011 15.3418 18.4916V9.70374C15.3418 9.68476 15.3342 9.66656 15.3208 9.65313C15.3074 9.63971 15.2892 9.63217 15.2702 9.63217V9.63217Z" fill="#874ECF"/>
<path d="M19.7102 11.5007H22.7496C22.7686 11.5007 22.7868 11.4932 22.8002 11.4797C22.8137 11.4663 22.8212 11.4481 22.8212 11.4291V9.69008C22.8212 9.6711 22.8137 9.65289 22.8002 9.63947C22.7868 9.62605 22.7686 9.61851 22.7496 9.61851H19.7102C19.1236 9.61719 18.5453 9.75716 18.0243 10.0266C17.5032 10.296 17.0547 10.6869 16.7167 11.1663C16.0518 12.1092 16.0518 12.9751 16.0521 13.6709V13.6902C16.0521 13.8387 16.0488 13.9943 16.0459 14.1434C16.0349 14.7005 16.0233 15.2764 16.1617 15.8234C16.3614 16.6125 16.8191 17.3124 17.4619 17.8118C18.1048 18.3112 18.8961 18.5815 19.7102 18.5798H22.7496C22.7686 18.5798 22.7868 18.5723 22.8002 18.5589C22.8137 18.5455 22.8212 18.5273 22.8212 18.5083V16.7695C22.8212 16.7601 22.8194 16.7508 22.8158 16.742C22.8123 16.7333 22.807 16.7254 22.8003 16.7187C22.7937 16.712 22.7858 16.7067 22.7771 16.7031C22.7684 16.6995 22.7591 16.6977 22.7496 16.6977H19.7102C19.2825 16.7001 18.8684 16.5479 18.5442 16.2691C18.22 15.9902 18.0075 15.6036 17.9459 15.1804C17.9251 15.0557 17.9138 13.2092 17.9459 13.0126C18.0085 12.5903 18.2214 12.2048 18.5456 11.927C18.8697 11.6493 19.2833 11.4979 19.7102 11.5007V11.5007Z" fill="#874ECF"/>
</svg>
