<svg width="24" height="24" viewBox="0 0 24 24" fill="none" xmlns="http://www.w3.org/2000/svg">
<path fill-rule="evenodd" clip-rule="evenodd" d="M21.9195 10.2885V10.3356L21.9577 10.4491C21.9769 10.5064 21.9911 10.5652 22 10.625V18.7073C22 19.5806 21.6531 20.4181 21.0356 21.0356C20.4181 21.6531 19.5806 22 18.7073 22H5.29268C4.41941 22 3.5819 21.6531 2.9644 21.0356C2.34691 20.4181 2 19.5806 2 18.7073V5.29268C2 4.41941 2.34691 3.5819 2.9644 2.9644C3.5819 2.34691 4.41941 2 5.29268 2H13.3399C13.3929 2.01463 13.4442 2.03511 13.4928 2.0611L13.6545 2.14756H13.7786C13.7997 2.163 13.8201 2.17963 13.8394 2.19739L21.8697 10.2276C21.8874 10.247 21.9041 10.2673 21.9195 10.2885ZM16.0244 10.0488C15.4746 10.0488 14.9472 9.83036 14.5584 9.44156C14.1696 9.05277 13.9512 8.52545 13.9512 7.97561V4.07619L19.9238 10.0488H16.0244ZM12.7317 7.97561C12.7317 8.84888 13.0786 9.68639 13.6961 10.3039C14.3136 10.9214 15.1511 11.2683 16.0244 11.2683H20.7805V18.7073C20.7805 19.2572 20.5621 19.7845 20.1733 20.1733C19.7845 20.5621 19.2572 20.7805 18.7073 20.7805H5.29268C4.74285 20.7805 4.21553 20.5621 3.82673 20.1733C3.43794 19.7845 3.21951 19.2572 3.21951 18.7073V5.29268C3.21951 4.74284 3.43794 4.21552 3.82673 3.82673C4.21552 3.43794 4.74284 3.21951 5.29268 3.21951H12.7317V7.97561Z" fill="#0C0D0E"/>
<path fill-rule="evenodd" clip-rule="evenodd" d="M5.29268 2.25C4.48571 2.25 3.7118 2.57057 3.14118 3.14118C2.57057 3.7118 2.25 4.48571 2.25 5.29268V18.7073C2.25 19.5143 2.57057 20.2882 3.14118 20.8588C3.71179 21.4294 4.48571 21.75 5.29268 21.75H18.7073C19.5143 21.75 20.2882 21.4294 20.8588 20.8588C21.4294 20.2882 21.75 19.5143 21.75 18.7073V10.6448C21.7432 10.6054 21.7335 10.5667 21.7207 10.5288L21.6718 10.3833L13.686 2.39756H13.5918L13.3749 2.28156C13.3516 2.2691 13.3274 2.25856 13.3025 2.25H5.29268ZM2.78763 2.78763C3.45201 2.12325 4.35311 1.75 5.29268 1.75H13.3737L13.4064 1.75901C13.4772 1.77855 13.5457 1.80592 13.6107 1.84064L13.7171 1.89756H13.86L13.9259 1.94557C13.9546 1.9665 13.9821 1.98904 14.0084 2.0131L14.0164 2.02044L22.0542 10.0586C22.0782 10.0848 22.1006 10.1125 22.1215 10.1412L22.1695 10.207V10.2947L22.1946 10.3694C22.2186 10.4406 22.2362 10.5138 22.2473 10.5881L22.25 10.6064V18.7073C22.25 19.6469 21.8768 20.548 21.2124 21.2124C20.548 21.8768 19.6469 22.25 18.7073 22.25H5.29268C4.3531 22.25 3.45201 21.8768 2.78763 21.2124C2.12325 20.548 1.75 19.6469 1.75 18.7073V5.29268C1.75 4.35311 2.12325 3.45201 2.78763 2.78763ZM3.64995 3.64995C4.08563 3.21428 4.67654 2.96951 5.29268 2.96951H12.9817V7.97561C12.9817 8.78258 13.3023 9.5565 13.8729 10.1271C14.4435 10.6977 15.2174 11.0183 16.0244 11.0183H21.0305V18.7073C21.0305 19.3235 20.7857 19.9144 20.35 20.35C19.9144 20.7857 19.3235 21.0305 18.7073 21.0305H5.29268C4.67654 21.0305 4.08563 20.7857 3.64995 20.35C3.21427 19.9144 2.96951 19.3235 2.96951 18.7073V5.29268C2.96951 4.67654 3.21428 4.08563 3.64995 3.64995ZM5.29268 3.46951C4.80915 3.46951 4.34542 3.6616 4.00351 4.00351C3.6616 4.34542 3.46951 4.80915 3.46951 5.29268V18.7073C3.46951 19.1909 3.6616 19.6546 4.00351 19.9965C4.34542 20.3384 4.80915 20.5305 5.29268 20.5305H18.7073C19.1909 20.5305 19.6546 20.3384 19.9965 19.9965C20.3384 19.6546 20.5305 19.1909 20.5305 18.7073V11.5183H16.0244C15.0848 11.5183 14.1837 11.145 13.5193 10.4807C12.855 9.81628 12.4817 8.91519 12.4817 7.97561V3.46951H5.29268ZM13.7012 3.47263L20.5274 10.2988H16.0244C15.4082 10.2988 14.8173 10.054 14.3817 9.61834C13.946 9.18266 13.7012 8.59175 13.7012 7.97561V3.47263ZM14.2012 4.67974V7.97561C14.2012 8.45915 14.3933 8.92287 14.7352 9.26479C15.0771 9.6067 15.5409 9.79878 16.0244 9.79878H19.3203L14.2012 4.67974Z" fill="#0C0D0E"/>
<path d="M21.7207 10.5288C21.7335 10.5667 21.7432 10.6054 21.75 10.6448V18.7073C21.75 19.5143 21.4294 20.2882 20.8588 20.8588C20.2882 21.4294 19.5143 21.75 18.7073 21.75H5.29268C4.48571 21.75 3.71179 21.4294 3.14118 20.8588C2.57057 20.2882 2.25 19.5143 2.25 18.7073V5.29268C2.25 4.48571 2.57057 3.7118 3.14118 3.14118C3.7118 2.57057 4.48571 2.25 5.29268 2.25H13.3025C13.3274 2.25856 13.3516 2.2691 13.3749 2.28156L13.5918 2.39756H13.686L21.6718 10.3833L21.7207 10.5288ZM21.7207 10.5288L21.9577 10.4491M5.29268 1.75C4.35311 1.75 3.45201 2.12325 2.78763 2.78763C2.12325 3.45201 1.75 4.35311 1.75 5.29268V18.7073C1.75 19.6469 2.12325 20.548 2.78763 21.2124C3.45201 21.8768 4.3531 22.25 5.29268 22.25H18.7073C19.6469 22.25 20.548 21.8768 21.2124 21.2124C21.8768 20.548 22.25 19.6469 22.25 18.7073V10.6064L22.2473 10.5881C22.2362 10.5138 22.2186 10.4406 22.1946 10.3694L22.1695 10.2947V10.207L22.1215 10.1412C22.1006 10.1125 22.0782 10.0848 22.0542 10.0586L14.0164 2.02044L14.0084 2.0131C13.9821 1.98904 13.9546 1.9665 13.9259 1.94557L13.86 1.89756H13.7171L13.6107 1.84064C13.5457 1.80592 13.4772 1.77855 13.4064 1.75901L13.3737 1.75H5.29268ZM5.29268 2.96951C4.67654 2.96951 4.08563 3.21428 3.64995 3.64995C3.21428 4.08563 2.96951 4.67654 2.96951 5.29268V18.7073C2.96951 19.3235 3.21427 19.9144 3.64995 20.35C4.08563 20.7857 4.67654 21.0305 5.29268 21.0305H18.7073C19.3235 21.0305 19.9144 20.7857 20.35 20.35C20.7857 19.9144 21.0305 19.3235 21.0305 18.7073V11.0183H16.0244C15.2174 11.0183 14.4435 10.6977 13.8729 10.1271C13.3023 9.5565 12.9817 8.78258 12.9817 7.97561V2.96951H5.29268ZM4.00351 4.00351C4.34542 3.6616 4.80915 3.46951 5.29268 3.46951H12.4817V7.97561C12.4817 8.91519 12.855 9.81628 13.5193 10.4807C14.1837 11.145 15.0848 11.5183 16.0244 11.5183H20.5305V18.7073C20.5305 19.1909 20.3384 19.6546 19.9965 19.9965C19.6546 20.3384 19.1909 20.5305 18.7073 20.5305H5.29268C4.80915 20.5305 4.34542 20.3384 4.00351 19.9965C3.6616 19.6546 3.46951 19.1909 3.46951 18.7073V5.29268C3.46951 4.80915 3.6616 4.34542 4.00351 4.00351ZM13.7012 3.47263L20.5274 10.2988H16.0244C15.4082 10.2988 14.8173 10.054 14.3817 9.61834C13.946 9.18266 13.7012 8.59175 13.7012 7.97561V3.47263ZM14.2012 7.97561V4.67974L19.3203 9.79878H16.0244C15.5409 9.79878 15.0771 9.6067 14.7352 9.26479C14.3933 8.92287 14.2012 8.45915 14.2012 7.97561Z" stroke="#0C0D0E" stroke-width="0.32"/>
<path d="M9.67603 15.1136C10.3198 15.1136 10.9443 14.8932 11.4455 14.4891C11.5986 14.3619 11.796 14.3007 11.9942 14.3189C12.0924 14.328 12.1878 14.3563 12.2751 14.4022C12.3623 14.4481 12.4396 14.5108 12.5026 14.5866C12.6299 14.7397 12.6911 14.9371 12.6729 15.1354C12.6546 15.3336 12.5583 15.5165 12.4052 15.6438C11.6394 16.283 10.6735 16.6332 9.67603 16.6332C8.67851 16.6332 7.71264 16.283 6.94688 15.6438C6.79376 15.5165 6.69748 15.3336 6.6792 15.1354C6.66092 14.9371 6.72215 14.7397 6.84941 14.5866C6.97667 14.4335 7.15955 14.3372 7.35781 14.3189C7.55607 14.3007 7.75347 14.3619 7.90658 14.4891C8.40778 14.8932 9.03221 15.1136 9.67603 15.1136Z" fill="#0C0D0E"/>
<path d="M7.84328 11.941C7.71998 12.0234 7.57502 12.0674 7.42673 12.0674C7.22788 12.0674 7.03717 11.9884 6.89657 11.8478C6.75596 11.7072 6.67696 11.5165 6.67696 11.3176C6.67696 11.1693 6.72094 11.0244 6.80332 10.9011C6.88571 10.7778 7.0028 10.6817 7.13981 10.6249C7.27681 10.5682 7.42756 10.5533 7.573 10.5823C7.71844 10.6112 7.85204 10.6826 7.95689 10.7875C8.06175 10.8923 8.13316 11.0259 8.16209 11.1714C8.19102 11.3168 8.17617 11.4676 8.11942 11.6046C8.06267 11.7416 7.96658 11.8587 7.84328 11.941Z" fill="#0C0D0E"/>
<path d="M11.5088 10.6942C11.6321 10.6118 11.777 10.5679 11.9253 10.5679C12.1242 10.5679 12.3149 10.6469 12.4555 10.7875C12.5961 10.9281 12.6751 11.1188 12.6751 11.3176C12.6751 11.4659 12.6311 11.6109 12.5487 11.7342C12.4663 11.8575 12.3492 11.9536 12.2122 12.0103C12.0752 12.0671 11.9245 12.0819 11.779 12.053C11.6336 12.0241 11.5 11.9527 11.3952 11.8478C11.2903 11.7429 11.2189 11.6093 11.19 11.4639C11.161 11.3185 11.1759 11.1677 11.2326 11.0307C11.2894 10.8937 11.3855 10.7766 11.5088 10.6942Z" fill="#0C0D0E"/>
<path d="M9.67603 15.1136C10.3198 15.1136 10.9443 14.8932 11.4455 14.4891C11.5986 14.3619 11.796 14.3007 11.9942 14.3189C12.0924 14.328 12.1878 14.3563 12.2751 14.4022C12.3623 14.4481 12.4396 14.5108 12.5026 14.5866C12.6299 14.7397 12.6911 14.9371 12.6729 15.1354C12.6546 15.3336 12.5583 15.5165 12.4052 15.6438C11.6394 16.283 10.6735 16.6332 9.67603 16.6332C8.67851 16.6332 7.71264 16.283 6.94688 15.6438C6.79376 15.5165 6.69748 15.3336 6.6792 15.1354C6.66092 14.9371 6.72215 14.7397 6.84941 14.5866C6.97667 14.4335 7.15955 14.3372 7.35781 14.3189C7.55607 14.3007 7.75347 14.3619 7.90658 14.4891C8.40778 14.8932 9.03221 15.1136 9.67603 15.1136Z" stroke="#0C0D0E" stroke-width="0.32"/>
<path d="M7.84328 11.941C7.71998 12.0234 7.57502 12.0674 7.42673 12.0674C7.22788 12.0674 7.03717 11.9884 6.89657 11.8478C6.75596 11.7072 6.67696 11.5165 6.67696 11.3176C6.67696 11.1693 6.72094 11.0244 6.80332 10.9011C6.88571 10.7778 7.0028 10.6817 7.13981 10.6249C7.27681 10.5682 7.42756 10.5533 7.573 10.5823C7.71844 10.6112 7.85204 10.6826 7.95689 10.7875C8.06175 10.8923 8.13316 11.0259 8.16209 11.1714C8.19102 11.3168 8.17617 11.4676 8.11942 11.6046C8.06267 11.7416 7.96658 11.8587 7.84328 11.941Z" stroke="#0C0D0E" stroke-width="0.32"/>
<path d="M11.5088 10.6942C11.6321 10.6118 11.777 10.5679 11.9253 10.5679C12.1242 10.5679 12.3149 10.6469 12.4555 10.7875C12.5961 10.9281 12.6751 11.1188 12.6751 11.3176C12.6751 11.4659 12.6311 11.6109 12.5487 11.7342C12.4663 11.8575 12.3492 11.9536 12.2122 12.0103C12.0752 12.0671 11.9245 12.0819 11.779 12.053C11.6336 12.0241 11.5 11.9527 11.3952 11.8478C11.2903 11.7429 11.2189 11.6093 11.19 11.4639C11.161 11.3185 11.1759 11.1677 11.2326 11.0307C11.2894 10.8937 11.3855 10.7766 11.5088 10.6942Z" stroke="#0C0D0E" stroke-width="0.32"/>
</svg>
