<svg width="25" height="24" viewBox="0 0 25 24" fill="none" xmlns="http://www.w3.org/2000/svg">
<path fill-rule="evenodd" clip-rule="evenodd" d="M3.44471 3.09419C4.77918 1.75972 6.77606 1.24952 9.35004 1.24952H15.35C17.924 1.24952 19.9209 1.75972 21.2554 3.09419C22.5898 4.42866 23.1 6.42555 23.1 8.99952V14.9995C23.1 17.5735 22.5898 19.5704 21.2554 20.9049C19.9209 22.2393 17.924 22.7495 15.35 22.7495H9.35004C6.77606 22.7495 4.77918 22.2393 3.44471 20.9049C2.11024 19.5704 1.60004 17.5735 1.60004 14.9995V8.99952C1.60004 6.42555 2.11024 4.42866 3.44471 3.09419ZM4.50537 4.15485C3.58984 5.07038 3.10004 6.57349 3.10004 8.99952V14.9995C3.10004 17.4256 3.58984 18.9287 4.50537 19.8442C5.4209 20.7597 6.92401 21.2495 9.35004 21.2495H15.35C17.7761 21.2495 19.2792 20.7597 20.1947 19.8442C21.1102 18.9287 21.6 17.4256 21.6 14.9995V8.99952C21.6 6.57349 21.1102 5.07038 20.1947 4.15485C19.2792 3.23932 17.7761 2.74952 15.35 2.74952H9.35004C6.92401 2.74952 5.4209 3.23932 4.50537 4.15485Z" fill="#627286"/>
<path fill-rule="evenodd" clip-rule="evenodd" d="M12.5999 6.01908C12.5999 5.60486 12.9356 5.26907 13.3499 5.26907L19.3887 5.26907C19.8029 5.26907 20.1387 5.60486 20.1387 6.01908C20.1387 6.43329 19.8029 6.76908 19.3887 6.76908L13.3499 6.76908C12.9356 6.76908 12.5999 6.43329 12.5999 6.01908Z" fill="#627286"/>
<path fill-rule="evenodd" clip-rule="evenodd" d="M12.5998 9.2303C12.5998 8.81609 12.9356 8.4803 13.3499 8.4803L19.3886 8.4803C19.8028 8.4803 20.1386 8.81609 20.1386 9.2303C20.1386 9.64451 19.8028 9.9803 19.3886 9.9803L13.3499 9.9803C12.9356 9.9803 12.5998 9.64451 12.5998 9.2303Z" fill="#627286"/>
<path fill-rule="evenodd" clip-rule="evenodd" d="M1.60006 12.0002C1.60006 11.5859 1.93584 11.2502 2.35006 11.2502L22.35 11.2502C22.7642 11.2502 23.1 11.5859 23.1 12.0002C23.1 12.4144 22.7642 12.7502 22.35 12.7502L2.35006 12.7502C1.93584 12.7502 1.60006 12.4144 1.60006 12.0002Z" fill="#627286"/>
<ellipse cx="7.76213" cy="7.41206" rx="2.41209" ry="2.41206" fill="#627286"/>
</svg>
