<svg width="25" height="24" viewBox="0 0 25 24" fill="none" xmlns="http://www.w3.org/2000/svg">
<path fill-rule="evenodd" clip-rule="evenodd" d="M12.4999 6.01908C12.4999 5.60487 12.8357 5.26908 13.2499 5.26908L19.2887 5.26908C19.7029 5.26908 20.0387 5.60487 20.0387 6.01908C20.0387 6.4333 19.7029 6.76909 19.2887 6.76909L13.2499 6.76909C12.8357 6.76909 12.4999 6.4333 12.4999 6.01908Z" fill="#7843DD"/>
<path fill-rule="evenodd" clip-rule="evenodd" d="M12.4999 9.2303C12.4999 8.81609 12.8357 8.48031 13.2499 8.48031L19.2886 8.48031C19.7029 8.48031 20.0386 8.81609 20.0386 9.2303C20.0386 9.64452 19.7029 9.9803 19.2886 9.9803L13.2499 9.9803C12.8357 9.9803 12.4999 9.64452 12.4999 9.2303Z" fill="#7843DD"/>
<path fill-rule="evenodd" clip-rule="evenodd" d="M3.34461 3.09425C4.67908 1.75978 6.67597 1.24958 9.24994 1.24958H15.2499C17.8239 1.24958 19.8208 1.75978 21.1553 3.09425C22.4897 4.42872 22.9999 6.42561 22.9999 8.99958V14.9996C22.9999 17.5736 22.4897 19.5704 21.1553 20.9049C19.8208 22.2394 17.8239 22.7496 15.2499 22.7496H9.24994C6.67597 22.7496 4.67908 22.2394 3.34461 20.9049C2.01014 19.5704 1.49994 17.5736 1.49994 14.9996V8.99958C1.49994 6.42561 2.01014 4.42872 3.34461 3.09425ZM4.40527 4.15491C3.48974 5.07044 2.99994 6.57355 2.99994 8.99958V12.7502V14.9996C2.99994 17.4256 3.48974 18.9287 4.40527 19.8443C5.3208 20.7598 6.82391 21.2496 9.24994 21.2496H15.2499C17.676 21.2496 19.1791 20.7598 20.0946 19.8443C21.0101 18.9287 21.4999 17.4256 21.4999 14.9996V12.7502V8.99958C21.4999 6.57355 21.0101 5.07044 20.0946 4.15491C19.1791 3.23938 17.676 2.74958 15.2499 2.74958H9.24994C6.82391 2.74958 5.3208 3.23938 4.40527 4.15491Z" fill="#7843DD"/>
<path fill-rule="evenodd" clip-rule="evenodd" d="M1.49996 12.0002C1.49996 11.586 1.83575 11.2502 2.24996 11.2502H22.2499C22.6641 11.2502 22.9999 11.586 22.9999 12.0002C22.9999 12.4144 22.6641 12.7502 22.2499 12.7502H21.4999H2.99994H2.24996C1.83575 12.7502 1.49996 12.4144 1.49996 12.0002Z" fill="#7843DD"/>
<path d="M2.99994 12.7502V14.9996C2.99994 17.4256 3.48974 18.9287 4.40527 19.8443C5.3208 20.7598 6.82391 21.2496 9.24994 21.2496H15.2499C17.676 21.2496 19.1791 20.7598 20.0946 19.8443C21.0101 18.9287 21.4999 17.4256 21.4999 14.9996V12.7502H2.99994Z" fill="#7843DD"/>
<ellipse cx="7.66209" cy="7.41206" rx="2.41209" ry="2.41206" fill="#7843DD"/>
</svg>
