<svg width="24" height="24" viewBox="0 0 24 24" fill="none" xmlns="http://www.w3.org/2000/svg">
<path fill-rule="evenodd" clip-rule="evenodd" d="M10.1546 2.13159H13.8452C15.4476 2.13156 16.7582 2.13153 17.793 2.27714C18.8783 2.42985 19.8099 2.7602 20.5476 3.53228C21.2798 4.29767 21.5873 5.2533 21.7304 6.36655C21.8683 7.43981 21.8683 8.80283 21.8683 10.4868V10.6293C21.8683 12.3133 21.8683 13.6763 21.7304 14.7495C21.5873 15.8628 21.2798 16.8184 20.5476 17.5838C19.8099 18.3559 18.8783 18.6862 17.793 18.8389C16.7582 18.9846 15.4476 18.9845 13.8452 18.9845L13.7687 18.9845C12.9322 18.9845 11.9098 19.3502 10.8609 19.9196L10.8564 19.9221C10.2082 20.274 9.67901 20.6409 9.20346 20.9706C9.07478 21.0599 8.95 21.1464 8.82784 21.2292C8.56644 21.4063 8.2622 21.6043 7.96809 21.726C7.70967 21.833 7.10968 22.0268 6.54615 21.6301C5.98215 21.2336 5.75935 20.579 5.6901 19.9656C5.648 19.5926 5.65374 19.1689 5.70563 18.6954C4.87245 18.5236 4.05096 18.2107 3.45204 17.5835C2.72002 16.8182 2.41262 15.8626 2.26952 14.7495C2.13154 13.6763 2.13157 12.3133 2.13159 10.6294V10.4867C2.13157 8.8028 2.13154 7.4398 2.26952 6.36655C2.41261 5.25346 2.72001 4.29794 3.452 3.53261C4.18974 2.76029 5.12141 2.42987 6.2069 2.27714C7.24172 2.13153 8.55229 2.13156 10.1546 2.13159ZM6.49242 4.30631C5.65144 4.42465 5.23144 4.63635 4.93363 4.94819C4.62935 5.26625 4.41796 5.72546 4.30196 6.62784C4.18275 7.55509 4.18076 8.78579 4.18076 10.558C4.18076 12.3303 4.18275 13.561 4.30196 14.4882C4.41796 15.3906 4.62875 15.8492 4.93302 16.1673L4.93387 16.1681C5.22966 16.4781 5.84326 16.6982 6.98965 16.8154C7.27923 16.845 7.54256 16.9964 7.71386 17.2317C7.88516 17.4671 7.94827 17.7642 7.88743 18.0488C7.74872 18.6978 7.70487 19.1749 7.71202 19.5099C7.79883 19.4507 7.89372 19.3848 7.99614 19.3137C8.4758 18.9806 9.12094 18.5326 9.87839 18.1213L9.88272 18.119C11.0323 17.4949 12.4191 16.9353 13.7687 16.9353C15.4665 16.9353 16.6321 16.9329 17.5075 16.8098C18.3484 16.6914 18.7684 16.4797 19.0663 16.1679C19.3705 15.8498 19.5819 15.3906 19.6979 14.4882C19.8171 13.561 19.8191 12.3303 19.8191 10.558C19.8191 8.78579 19.8171 7.55509 19.6979 6.62784C19.5819 5.72546 19.3711 5.26688 19.0669 4.94882C18.7691 4.63698 18.3484 4.42465 17.5075 4.30631C16.6321 4.18314 15.4665 4.18076 13.7687 4.18076H10.2312C8.53342 4.18076 7.36779 4.18314 6.49242 4.30631ZM7.16055 19.8414C7.16055 19.8414 7.16569 19.8391 7.17482 19.8365C7.16492 19.8404 7.16055 19.8414 7.16055 19.8414Z" fill="#2F3945"/>
</svg>
