<svg width="64" height="64" viewBox="0 0 64 64" fill="none" xmlns="http://www.w3.org/2000/svg">
<path d="M26 17.76V21.14H63.965C63.912 20.05 63.798 18.672 63.39 17.76" fill="#EC1C24"/>
<path d="M61.6 14.38H26V17.76H63.39C62.984 16.499 62.38 15.349 61.6 14.38Z" fill="#E6E7E8"/>
<path d="M54 11H26V14.38H61.6C59.931 12.29 57.184 11 54 11Z" fill="#EC1C24"/>
<path d="M63.965 21.14H26V24.52H64V22.267C64 22.066 63.987 21.87 63.981 21.673C63.977 21.619 63.971 21.48 63.965 21.14Z" fill="#E6E7E8"/>
<path d="M26 27.9H64V24.52H26V27.9Z" fill="#EC1C24"/>
<path d="M26 31.28H64V27.9H26V31.28Z" fill="#E6E7E8"/>
<path d="M26 31.28H64V34.66H26V31.28Z" fill="#EC1C24"/>
<path d="M0 34.66V38.04H64V34.66H26H0Z" fill="#E6E7E8"/>
<path d="M0 38.04H64V41.42H0V38.04Z" fill="#EC1C24"/>
<path d="M0.005 43.499C0.005 43.499 -0.004 44.318 0.02 44.8H63.98C64.008 44.306 63.995 43.499 63.995 43.499L64 41.42H0L0.005 43.499Z" fill="#E6E7E8"/>
<path d="M9.99996 55.0001H54C57.193 55.0001 59.847 53.8401 61.66 51.5601H2.32996C4.20196 53.8901 6.90596 55.0001 9.99496 55.0001" fill="#EC1C24"/>
<path d="M2.33498 51.5601H61.665C62.4559 50.5551 63.0466 49.4077 63.405 48.1801H0.60498C0.970077 49.404 1.55829 50.5499 2.33998 51.5601" fill="#E6E7E8"/>
<path d="M0.60002 48.18H63.4C63.7275 47.0806 63.9222 45.9458 63.98 44.8H0.0200195C0.11902 45.956 0.21102 46.8291 0.60002 48.18Z" fill="#EC1C24"/>
<path d="M26 11H10C3.373 11 0 15.925 0 22V34.66H26V11Z" fill="#176496"/>
<path d="M2.79792 16.976L3.34192 16.558L3.88492 16.976L3.67392 16.304L4.21492 15.893H3.54692L3.33992 15.218L3.13392 15.893H2.46692L3.00992 16.304L2.79792 16.976Z" fill="white"/>
<path d="M6.39194 16.976L6.93594 16.558L7.47894 16.976L7.26894 16.304L7.80894 15.893H7.14194L6.93494 15.218L6.72894 15.893H6.05994L6.60294 16.304L6.39194 16.976Z" fill="white"/>
<path d="M10.3569 16.976L10.8999 16.558L11.4439 16.976L11.2329 16.304L11.7729 15.893H11.1099L10.8999 15.218L10.6929 15.893H10.0299L10.5669 16.304L10.3569 16.976Z" fill="white"/>
<path d="M14.2929 16.976L14.8359 16.558L15.3799 16.976L15.1699 16.304L15.7099 15.893H15.0399L14.8359 15.218L14.6299 15.893H13.9619L14.5039 16.304L14.2929 16.976Z" fill="white"/>
<path d="M18.243 16.976L18.787 16.558L19.33 16.976L19.12 16.304L19.661 15.893H18.992L18.786 15.218L18.58 15.893H17.913L18.453 16.304L18.243 16.976Z" fill="white"/>
<path d="M4.71088 18.731L5.25388 18.314L5.79688 18.731L5.58788 18.06L6.12788 17.649H5.45988L5.25288 16.975L5.04988 17.649H4.37988L4.92088 18.06L4.71088 18.731Z" fill="white"/>
<path d="M8.30598 18.731L8.84898 18.314L9.39198 18.731L9.18198 18.06L9.72198 17.649H9.04998L8.84898 16.975L8.64198 17.649H7.97498L8.51598 18.06L8.30598 18.731Z" fill="white"/>
<path d="M12.271 18.731L12.813 18.314L13.356 18.731L13.146 18.06L13.687 17.649H13.02L12.813 16.975L12.606 17.649H11.938L12.479 18.06L12.271 18.731Z" fill="white"/>
<path d="M16.205 18.731L16.749 18.314L17.293 18.731L17.08 18.06L17.622 17.649H16.955L16.748 16.975L16.543 17.649H15.875L16.416 18.06L16.205 18.731Z" fill="white"/>
<path d="M20.16 18.731L20.6989 18.314L21.242 18.731L21.03 18.06L21.572 17.649H20.906L20.698 16.975L20.493 17.649H19.825L20.3659 18.06L20.16 18.731Z" fill="white"/>
<path d="M22.3869 16.976L22.9299 16.558L23.4739 16.976L23.2629 16.304L23.8029 15.893H23.1399L22.9289 15.218L22.7229 15.893H22.0499L22.5969 16.304L22.3869 16.976Z" fill="white"/>
<path d="M2.74494 31.02L3.28894 30.607L3.83194 31.02L3.62194 30.354L4.16194 29.942L3.49494 29.944L3.28694 29.27L3.08294 29.944L2.41394 29.942L2.95494 30.354L2.74494 31.02Z" fill="white"/>
<path d="M6.33989 31.02L6.88289 30.607L7.42689 31.02L7.21589 30.354L7.75589 29.942L7.08989 29.944L6.88189 29.27L6.67689 29.944L6.00989 29.942L6.54989 30.354L6.33989 31.02Z" fill="white"/>
<path d="M10.305 31.02L10.848 30.607L11.392 31.02L11.181 30.354L11.721 29.942L11.05 29.944L10.847 29.27L10.641 29.944L9.974 29.942L10.515 30.354L10.305 31.02Z" fill="white"/>
<path d="M14.2409 31.02L14.7839 30.607L15.3269 31.02L15.1199 30.354L15.6569 29.942L14.9889 29.944L14.7829 29.27L14.5769 29.944L13.9099 29.942L14.4499 30.354L14.2409 31.02Z" fill="white"/>
<path d="M18.19 31.02L18.734 30.607L19.278 31.02L19.07 30.354L19.607 29.942L18.94 29.944L18.733 29.27L18.528 29.944L17.86 29.942L18.4 30.354L18.19 31.02Z" fill="white"/>
<path d="M22.334 31.02L22.877 30.607L23.421 31.02L23.21 30.354L23.751 29.942L23.08 29.944L22.876 29.27L22.67 29.944L22 29.942L22.544 30.354L22.334 31.02Z" fill="white"/>
<path d="M2.79792 20.488L3.34192 20.07L3.88492 20.488L3.67392 19.816L4.21492 19.405L3.54692 19.407L3.33992 18.731L3.13392 19.407L2.46692 19.405L3.00992 19.816L2.79792 20.488Z" fill="white"/>
<path d="M6.39194 20.488L6.93594 20.07L7.47894 20.488L7.26894 19.816L7.80894 19.405L7.14194 19.407L6.93494 18.731L6.72894 19.407L6.05994 19.405L6.60294 19.816L6.39194 20.488Z" fill="white"/>
<path d="M10.3569 20.488L10.8999 20.07L11.4439 20.488L11.2329 19.816L11.7729 19.405L11.1099 19.407L10.8999 18.731L10.6929 19.407L10.0299 19.405L10.5669 19.816L10.3569 20.488Z" fill="white"/>
<path d="M14.2929 20.488L14.8359 20.07L15.3799 20.488L15.1699 19.816L15.7099 19.405L15.0399 19.407L14.8359 18.731L14.6299 19.407L13.9619 19.405L14.5039 19.816L14.2929 20.488Z" fill="white"/>
<path d="M18.243 20.488L18.787 20.07L19.33 20.488L19.12 19.816L19.661 19.405L18.992 19.407L18.786 18.731L18.58 19.407L17.913 19.405L18.453 19.816L18.243 20.488Z" fill="white"/>
<path d="M4.71088 22.244L5.25388 21.827L5.79688 22.244L5.58788 21.573L6.12788 21.16H5.45988L5.25288 20.488L5.04988 21.16H4.37988L4.92088 21.573L4.71088 22.244Z" fill="white"/>
<path d="M8.30598 22.244L8.84898 21.827L9.39198 22.244L9.18198 21.573L9.72198 21.16H9.04998L8.84898 20.488L8.64198 21.16H7.97498L8.51598 21.573L8.30598 22.244Z" fill="white"/>
<path d="M12.271 22.244L12.813 21.827L13.356 22.244L13.146 21.573L13.687 21.16H13.02L12.813 20.488L12.606 21.16H11.938L12.479 21.573L12.271 22.244Z" fill="white"/>
<path d="M16.205 22.244L16.749 21.827L17.293 22.244L17.08 21.573L17.622 21.16H16.955L16.748 20.488L16.543 21.16H15.875L16.416 21.573L16.205 22.244Z" fill="white"/>
<path d="M20.16 22.244L20.6989 21.827L21.242 22.244L21.03 21.573L21.572 21.16H20.906L20.698 20.488L20.493 21.16H19.825L20.3659 21.573L20.16 22.244Z" fill="white"/>
<path d="M22.3869 20.488L22.9299 20.07L23.4739 20.488L23.2629 19.816L23.8029 19.405L23.1399 19.407L22.9289 18.731L22.7229 19.407L22.0499 19.405L22.5969 19.816L22.3869 20.488Z" fill="white"/>
<path d="M2.74494 24L3.28894 23.583L3.83194 24L3.62094 23.33L4.16194 22.918L3.49394 22.92L3.28694 22.244L3.08294 22.92L2.41394 22.918L2.95494 23.33L2.74494 24Z" fill="white"/>
<path d="M6.33989 24L6.88289 23.583L7.42689 24L7.21589 23.33L7.75589 22.918L7.08989 22.92L6.88189 22.244L6.67689 22.92L6.00989 22.918L6.54889 23.33L6.33989 24Z" fill="white"/>
<path d="M10.305 24L10.848 23.583L11.391 24L11.181 23.33L11.721 22.918L11.05 22.92L10.847 22.244L10.641 22.92L9.974 22.918L10.515 23.33L10.305 24Z" fill="white"/>
<path d="M14.2409 24L14.7829 23.583L15.3269 24L15.1199 23.33L15.6569 22.918L14.9889 22.92L14.7829 22.244L14.5769 22.92L13.9099 22.918L14.4499 23.33L14.2409 24Z" fill="white"/>
<path d="M18.19 24L18.734 23.583L19.277 24L19.07 23.33L19.607 22.918L18.939 22.92L18.733 22.244L18.528 22.92L17.86 22.918L18.4 23.33L18.19 24Z" fill="white"/>
<path d="M4.6579 25.756L5.2009 25.34L5.7439 25.756L5.5349 25.09L6.0739 24.676H5.4059L5.1999 24L4.9949 24.676H4.3269L4.8679 25.09L4.6579 25.756Z" fill="white"/>
<path d="M8.2529 25.756L8.7959 25.34L9.3389 25.756L9.1289 25.09L9.6689 24.676H8.9999L8.7949 24L8.5889 24.676H7.9209L8.4629 25.09L8.2529 25.756Z" fill="white"/>
<path d="M12.219 25.756L12.76 25.34L13.304 25.756L13.09 25.09L13.634 24.676H12.967L12.76 24L12.554 24.676H11.886L12.427 25.09L12.219 25.756Z" fill="white"/>
<path d="M16.1499 25.756L16.6959 25.34L17.2399 25.756L17.0299 25.09L17.5689 24.676H16.9019L16.6949 24L16.4899 24.676H15.8219L16.3629 25.09L16.1499 25.756Z" fill="white"/>
<path d="M20.1 25.756L20.646 25.34L21.19 25.756L20.979 25.09L21.521 24.676H20.854L20.646 24L20.44 24.676H19.772L20.313 25.09L20.1 25.756Z" fill="white"/>
<path d="M22.334 24L22.877 23.583L23.42 24L23.21 23.33L23.751 22.918L23.08 22.92L22.876 22.244L22.67 22.92L22 22.918L22.544 23.33L22.334 24Z" fill="white"/>
<path d="M2.74494 27.513L3.28894 27.1L3.83194 27.513L3.62094 26.842L4.16194 26.43L3.49394 26.432L3.28694 25.756L3.08294 26.432L2.41394 26.43L2.95494 26.842L2.74494 27.513Z" fill="white"/>
<path d="M6.33989 27.513L6.88289 27.1L7.42689 27.513L7.21589 26.842L7.75589 26.43L7.08989 26.432L6.88189 25.756L6.67689 26.432L6.00989 26.43L6.54889 26.842L6.33989 27.513Z" fill="white"/>
<path d="M10.305 27.513L10.848 27.1L11.391 27.513L11.181 26.842L11.721 26.43L11.05 26.432L10.847 25.756L10.641 26.432L9.974 26.43L10.515 26.842L10.305 27.513Z" fill="white"/>
<path d="M14.2409 27.513L14.7829 27.1L15.3269 27.513L15.1199 26.842L15.6569 26.43L14.9889 26.432L14.7829 25.756L14.5769 26.432L13.9099 26.43L14.4499 26.842L14.2409 27.513Z" fill="white"/>
<path d="M18.19 27.513L18.734 27.1L19.277 27.513L19.07 26.842L19.607 26.43L18.939 26.432L18.733 25.756L18.528 26.432L17.86 26.43L18.4 26.842L18.19 27.513Z" fill="white"/>
<path d="M4.6579 29.2701L5.2009 28.8521L5.7439 29.2701L5.5349 28.5981L6.0739 28.1901H5.4059L5.1999 27.5131L4.9949 28.1901H4.3269L4.8679 28.5981L4.6579 29.2701Z" fill="white"/>
<path d="M8.2529 29.2701L8.7959 28.8521L9.3389 29.2701L9.1289 28.5981L9.6689 28.1901H8.9999L8.7949 27.5131L8.5889 28.1901H7.9209L8.4629 28.5981L8.2529 29.2701Z" fill="white"/>
<path d="M12.219 29.2701L12.76 28.8521L13.304 29.2701L13.09 28.5981L13.634 28.1901H12.967L12.76 27.5131L12.554 28.1901H11.886L12.427 28.5981L12.219 29.2701Z" fill="white"/>
<path d="M16.1499 29.2701L16.6959 28.8521L17.2399 29.2701L17.0299 28.5981L17.5689 28.1901H16.9019L16.6949 27.5131L16.4899 28.1901H15.8219L16.3629 28.5981L16.1499 29.2701Z" fill="white"/>
<path d="M20.1 29.2701L20.646 28.8521L21.19 29.2701L20.979 28.5981L21.521 28.1901H20.854L20.646 27.5131L20.44 28.1901H19.772L20.313 28.5981L20.1 29.2701Z" fill="white"/>
<path d="M22.334 27.513L22.877 27.1L23.42 27.513L23.21 26.842L23.751 26.43L23.08 26.432L22.876 25.756L22.67 26.432L22 26.43L22.544 26.842L22.334 27.513Z" fill="white"/>
</svg>
