<svg width="22" height="18" viewBox="0 0 22 18" fill="none" xmlns="http://www.w3.org/2000/svg">
<path d="M6.578 7.059C7.2995 6.984 7.8575 7.1145 8.057 7.2135C8.14541 7.26117 8.24249 7.2906 8.34249 7.30005C8.44248 7.30949 8.54336 7.29874 8.63913 7.26846C8.73489 7.23817 8.8236 7.18896 8.89999 7.12374C8.97637 7.05851 9.03888 6.97861 9.0838 6.88878C9.12872 6.79894 9.15514 6.70099 9.16148 6.60075C9.16783 6.50051 9.15397 6.40001 9.12074 6.30523C9.08751 6.21044 9.03558 6.1233 8.96803 6.04896C8.90048 5.97463 8.81868 5.91462 8.7275 5.8725C8.201 5.6085 7.3355 5.472 6.422 5.568C4.982 5.718 3.5 6.969 3.5 9.0135C3.5 11.091 5.081 12.4635 6.95 12.4635C7.82 12.4635 8.6 12.0555 9.0455 11.634C9.4385 11.262 9.5 10.7685 9.5 10.4595V9.0135C9.5 8.81459 9.42098 8.62382 9.28033 8.48317C9.13968 8.34252 8.94891 8.2635 8.75 8.2635H7.5395C7.34059 8.2635 7.14982 8.34252 7.00917 8.48317C6.86852 8.62382 6.7895 8.81459 6.7895 9.0135C6.7895 9.21241 6.86852 9.40318 7.00917 9.54383C7.14982 9.68448 7.34059 9.7635 7.5395 9.7635H8V10.4595C7.99997 10.4952 7.99696 10.5308 7.991 10.566C7.69896 10.8124 7.33198 10.9526 6.95 10.9635C5.8535 10.9635 5 10.206 5 9.0135C5 7.7865 5.8505 7.1355 6.578 7.059ZM12.5 6.315C12.5 6.11609 12.421 5.92532 12.2803 5.78467C12.1397 5.64402 11.9489 5.565 11.75 5.565C11.5511 5.565 11.3603 5.64402 11.2197 5.78467C11.079 5.92532 11 6.11609 11 6.315V11.715C11 11.9139 11.079 12.1047 11.2197 12.2453C11.3603 12.386 11.5511 12.465 11.75 12.465C11.9489 12.465 12.1397 12.386 12.2803 12.2453C12.421 12.1047 12.5 11.9139 12.5 11.715V6.315ZM14.75 5.565C14.5511 5.565 14.3603 5.64402 14.2197 5.78467C14.079 5.92532 14 6.11609 14 6.315V11.715C14 11.9139 14.079 12.1047 14.2197 12.2453C14.3603 12.386 14.5511 12.465 14.75 12.465C14.9489 12.465 15.1397 12.386 15.2803 12.2453C15.421 12.1047 15.5 11.9139 15.5 11.715V9.759L17.0045 9.75C17.2034 9.74881 17.3937 9.66864 17.5335 9.52715C17.6733 9.38565 17.7512 9.19441 17.75 8.9955C17.7488 8.79659 17.6686 8.6063 17.5271 8.46649C17.3857 8.32668 17.1944 8.24881 16.9955 8.25L15.5 8.259V7.0635H17.75C17.9489 7.0635 18.1397 6.98448 18.2803 6.84383C18.421 6.70318 18.5 6.51241 18.5 6.3135C18.5 6.11459 18.421 5.92382 18.2803 5.78317C18.1397 5.64252 17.9489 5.5635 17.75 5.5635H14.75V5.565ZM4.25 0C3.25544 0 2.30161 0.395088 1.59835 1.09835C0.895088 1.80161 0.5 2.75544 0.5 3.75V14.25C0.5 15.2446 0.895088 16.1984 1.59835 16.9016C2.30161 17.6049 3.25544 18 4.25 18H17.75C18.7446 18 19.6984 17.6049 20.4016 16.9016C21.1049 16.1984 21.5 15.2446 21.5 14.25V3.75C21.5 2.75544 21.1049 1.80161 20.4016 1.09835C19.6984 0.395088 18.7446 0 17.75 0H4.25ZM2 3.75C2 3.15326 2.23705 2.58097 2.65901 2.15901C3.08097 1.73705 3.65326 1.5 4.25 1.5H17.75C18.3467 1.5 18.919 1.73705 19.341 2.15901C19.7629 2.58097 20 3.15326 20 3.75V14.25C20 14.8467 19.7629 15.419 19.341 15.841C18.919 16.2629 18.3467 16.5 17.75 16.5H4.25C3.65326 16.5 3.08097 16.2629 2.65901 15.841C2.23705 15.419 2 14.8467 2 14.25V3.75Z" fill="#0C0D0E"/>
</svg>
