<svg width="24" height="24" viewBox="0 0 24 24" fill="none" xmlns="http://www.w3.org/2000/svg">
<path d="M9.60194 5.41159C9.63843 5.39553 9.67837 5.38889 9.7181 5.3923C9.75783 5.3957 9.79606 5.40904 9.82929 5.43108C9.86251 5.45312 9.88967 5.48316 9.90825 5.51844C9.92684 5.55371 9.93626 5.59309 9.93565 5.63296V7.53775C9.93565 7.75682 10.0227 7.96692 10.1776 8.12183C10.3325 8.27674 10.5426 8.36376 10.7617 8.36376C11.8636 8.36376 14.0872 8.37202 16.2133 9.72173C17.8389 10.7526 19.5009 12.6293 20.5004 16.125C18.8153 14.501 16.8907 13.6205 15.2056 13.153C14.1699 12.8669 13.1054 12.6974 12.0321 12.6475C11.5927 12.6282 11.1526 12.6326 10.7137 12.6607H10.6923L10.684 12.6623H10.6824L10.7617 13.485L10.6791 12.6623C10.4752 12.6828 10.2862 12.7784 10.1488 12.9304C10.0114 13.0825 9.93544 13.2801 9.93565 13.485V15.3898C9.93565 15.5683 9.75392 15.6806 9.60194 15.6112L3.02026 10.7658C2.99792 10.7492 2.97476 10.7338 2.95087 10.7196C2.91495 10.698 2.88523 10.6675 2.86459 10.631C2.84396 10.5945 2.83311 10.5533 2.83311 10.5114C2.83311 10.4695 2.84396 10.4283 2.86459 10.3918C2.88523 10.3553 2.91495 10.3248 2.95087 10.3032C2.97477 10.289 2.99792 10.2736 3.02026 10.257L9.60194 5.41159ZM11.5877 14.2879C11.7 14.2879 11.8239 14.2929 11.9561 14.2978C12.6731 14.3309 13.6643 14.4399 14.7645 14.7455C16.9551 15.3535 19.5488 16.7313 21.2735 19.8338C21.3668 20.0013 21.5154 20.1311 21.6939 20.201C21.8724 20.2709 22.0696 20.2766 22.2518 20.217C22.434 20.1575 22.5898 20.0364 22.6926 19.8745C22.7953 19.7127 22.8385 19.5201 22.8148 19.3299C22.0483 13.2009 19.6991 9.97614 17.0988 8.32742C15.0421 7.02232 12.9242 6.77121 11.5877 6.7233V5.63296C11.5878 5.29276 11.4961 4.95882 11.3223 4.66638C11.1485 4.37395 10.8989 4.13386 10.6 3.97145C10.301 3.80904 9.96381 3.73033 9.62387 3.74363C9.28392 3.75693 8.95387 3.86175 8.66854 4.04702L2.07034 8.90398C1.79756 9.07425 1.5726 9.31114 1.41663 9.59235C1.26067 9.87356 1.17883 10.1898 1.17883 10.5114C1.17883 10.833 1.26067 11.1492 1.41663 11.4304C1.5726 11.7117 1.79756 11.9485 2.07034 12.1188L8.66854 16.9758C8.95387 17.1611 9.28392 17.2659 9.62387 17.2792C9.96381 17.2925 10.301 17.2138 10.6 17.0513C10.8989 16.8889 11.1485 16.6489 11.3223 16.3564C11.4961 16.064 11.5878 15.73 11.5877 15.3898V14.2879Z" fill="black"/>
</svg>
