<svg width="20" height="20" viewBox="0 0 20 20" fill="none" xmlns="http://www.w3.org/2000/svg">
<rect width="20" height="20" rx="3" transform="matrix(-1 0 0 1 20 0)" fill="#347AF6"/>
<path d="M5.82841 4.70703C6.28154 4.70703 6.65263 5.07031 6.65263 5.51172V9.78516C6.65263 9.97266 6.80888 10.125 7.00029 10.125C7.19169 10.125 7.34794 9.97266 7.34794 9.78516V3.48047C7.34794 3.03906 7.71904 2.67578 8.17216 2.67578C8.62529 2.67578 8.99638 3.03906 8.99638 3.48047V8.43359C8.99638 8.62109 9.15263 8.77344 9.34404 8.77344C9.53545 8.77344 9.6917 8.62109 9.6917 8.43359V2.80469C9.6917 2.36328 10.0628 2 10.5159 2C10.969 2 11.3401 2.36328 11.3401 2.80469V9.10938C11.3401 9.29688 11.4964 9.44922 11.6878 9.44922C11.8792 9.44922 12.0354 9.29688 12.0354 9.10938V4.15625C12.0354 3.71484 12.4065 3.35156 12.8597 3.35156C13.3128 3.35156 13.6839 3.71484 13.6839 4.15625V12.6836L14.7698 11.7617C15.7894 10.875 16.6526 10.4961 17.3558 11.1484C17.8284 11.6094 17.0862 12.3555 16.3089 13.2266C15.5589 14.0664 13.5745 16.8164 11.8831 17.8086C11.8831 17.8086 11.2308 18.2539 10.2972 18.2539H8.06279C6.262 18.2539 5.00028 16.7734 5.00028 14.6133V5.51172C5.00419 5.07031 5.37529 4.70703 5.82841 4.70703Z" fill="white"/>
</svg>
