<svg width="16" height="16" viewBox="0 0 16 16" fill="none" xmlns="http://www.w3.org/2000/svg">
<path d="M1.41351 7.57824L1.87433 8.00009L1.41351 7.57824ZM1.41351 7.57824C1.34154 7.65686 1.29088 7.75257 1.26633 7.85629C1.24177 7.96001 1.24415 8.06828 1.27324 8.17081C1.30232 8.27335 1.35715 8.36675 1.4325 8.44212L10.6965 1.05361C10.4899 0.847114 10.2378 0.691744 9.96046 0.599912C9.68209 0.507746 9.38599 0.482151 9.09594 0.525185C8.80589 0.568219 8.52997 0.678681 8.29036 0.847697C8.05074 1.01671 7.85411 1.23957 7.71625 1.49837L5.19125 6.23587L1.6775 7.40712C1.57635 7.44072 1.48548 7.49963 1.41351 7.57824ZM10.1323 1.62078L10.6977 2.18772L10.6984 2.18699L14.488 5.994C14.488 5.994 14.488 5.99401 14.488 5.99401C14.6062 6.11273 14.695 6.25743 14.7473 6.41655C14.7996 6.57568 14.8141 6.74484 14.7894 6.91053C14.7648 7.07622 14.7017 7.23386 14.6054 7.37087C14.509 7.50788 14.3819 7.62047 14.2343 7.69966L9.51104 10.2294L9.2305 10.3797L9.12983 10.6816L8.04793 13.9261L5.56582 11.4428L5.24769 11.1245L5.24775 11.1245L5.12391 11.0007L5.00013 10.8769L5.00007 10.8769L4.6818 10.5588L2.19855 8.07671L5.44423 6.99482L5.74708 6.89387L5.89723 6.61215L8.42223 1.87465L8.42232 1.87448C8.50136 1.72611 8.6141 1.59833 8.75148 1.50143C8.88886 1.40453 9.04705 1.3412 9.21334 1.31652C9.37964 1.29185 9.54941 1.30652 9.709 1.35937L9.95808 0.607101L9.709 1.35937C9.8686 1.41221 10.0136 1.50175 10.1323 1.62078Z" stroke="#5234AD" stroke-width="1.6"/>
</svg>
