<svg width="24" height="24" viewBox="0 0 24 24" fill="none" xmlns="http://www.w3.org/2000/svg">
<path opacity="0.4" d="M18.9707 10.7423C18.9012 10.7323 18.8316 10.7323 18.7621 10.7423C17.2222 10.6925 16.0002 9.4286 16.0002 7.8761C16.0002 6.29375 17.2818 5 18.8714 5C20.451 5 21.7425 6.28379 21.7425 7.8761C21.7326 9.4286 20.5106 10.6925 18.9707 10.7423Z" fill="url(#paint0_linear)"/>
<path opacity="0.4" d="M21.0648 18.9864C19.9132 19.7576 18.2988 20.0455 16.8078 19.8502C17.1985 19.007 17.4042 18.0713 17.4144 17.0841C17.4144 16.0558 17.1882 15.079 16.7563 14.2255C18.2782 14.0198 19.8926 14.3077 21.0546 15.079C22.6792 16.1484 22.6792 17.9067 21.0648 18.9864Z" fill="url(#paint1_linear)"/>
<path opacity="0.4" d="M5.77202 10.7423C5.84156 10.7323 5.91111 10.7323 5.98065 10.7423C7.52053 10.6925 8.7425 9.4286 8.7425 7.8761C8.7425 6.29375 7.46092 5 5.87137 5C4.29175 5 3.00024 6.28379 3.00024 7.8761C3.01018 9.4286 4.23214 10.6925 5.77202 10.7423Z" fill="url(#paint2_linear)"/>
<path opacity="0.4" d="M6.85837 17.0838C6.85837 18.0812 7.07431 19.0273 7.46506 19.8807C6.01518 20.035 4.50361 19.7265 3.39307 18.9964C1.76839 17.9167 1.76839 16.1584 3.39307 15.0787C4.49333 14.3383 6.04603 14.0401 7.50619 14.2046C7.08459 15.0684 6.85837 16.0453 6.85837 17.0838Z" fill="url(#paint3_linear)"/>
<path d="M12.179 11.7396C12.0702 11.726 11.9477 11.726 11.8252 11.7396C9.32097 11.658 7.32031 9.6029 7.32031 7.07146C7.32031 4.48558 9.40263 2.38965 12.0021 2.38965C14.588 2.38965 16.6839 4.48558 16.6839 7.07146C16.6839 9.6029 14.6969 11.658 12.179 11.7396Z" fill="url(#paint4_linear)"/>
<path d="M7.13497 13.938C4.71543 15.6454 4.71543 18.4515 7.13497 20.142C9.891 22.086 14.4096 22.086 17.1657 20.142C19.5852 18.4346 19.5852 15.6285 17.1657 13.938C14.4256 11.994 9.90703 11.994 7.13497 13.938Z" fill="url(#paint5_linear)"/>
<defs>
<linearGradient id="paint0_linear" x1="16.2395" y1="6.14845" x2="22.499" y2="7.01783" gradientUnits="userSpaceOnUse">
<stop stop-color="#352885"/>
<stop offset="1" stop-color="#7B61FF"/>
</linearGradient>
<linearGradient id="paint1_linear" x1="16.9863" y1="15.3108" x2="23.0103" y2="16.1139" gradientUnits="userSpaceOnUse">
<stop stop-color="#352885"/>
<stop offset="1" stop-color="#7B61FF"/>
</linearGradient>
<linearGradient id="paint2_linear" x1="3.2395" y1="6.14845" x2="9.49904" y2="7.01783" gradientUnits="userSpaceOnUse">
<stop stop-color="#352885"/>
<stop offset="1" stop-color="#7B61FF"/>
</linearGradient>
<linearGradient id="paint3_linear" x1="2.39671" y1="15.3124" x2="8.22439" y2="16.0618" gradientUnits="userSpaceOnUse">
<stop stop-color="#352885"/>
<stop offset="1" stop-color="#7B61FF"/>
</linearGradient>
<linearGradient id="paint4_linear" x1="7.71046" y1="4.25965" x2="17.917" y2="5.67929" gradientUnits="userSpaceOnUse">
<stop stop-color="#352885"/>
<stop offset="1" stop-color="#7B61FF"/>
</linearGradient>
<linearGradient id="paint5_linear" x1="5.88948" y1="14.304" x2="20.4377" y2="17.3304" gradientUnits="userSpaceOnUse">
<stop stop-color="#352885"/>
<stop offset="1" stop-color="#7B61FF"/>
</linearGradient>
</defs>
</svg>
