<svg width="25" height="24" viewBox="0 0 25 24" fill="none" xmlns="http://www.w3.org/2000/svg">
<path d="M4.20992 17.5991L4.20995 17.5991L4.20793 17.5938C3.97761 16.9822 4.04855 16.292 4.43777 15.6489L4.43837 15.6479L5.58837 13.7379L5.58877 13.7372C5.74153 13.4826 5.87113 13.1343 5.96209 12.804C6.05312 12.4733 6.12002 12.1076 6.12002 11.81V8.91999C6.12002 5.47614 8.92616 2.66999 12.37 2.66999C15.8139 2.66999 18.62 5.47614 18.62 8.91999V11.81C18.62 12.1029 18.6871 12.4687 18.7777 12.8005C18.8684 13.1328 18.9974 13.4845 19.1485 13.7426L19.1485 13.7426L19.1513 13.7472L20.2907 15.6464C20.2909 15.6466 20.291 15.6468 20.2911 15.647C20.643 16.2366 20.7089 16.9487 20.4706 17.5977C20.234 18.2424 19.7205 18.7322 19.0737 18.945L19.0706 18.9461C16.9236 19.6683 14.6476 20.03 12.37 20.03C10.0934 20.03 7.81785 19.6685 5.66098 18.9466C4.94578 18.699 4.43171 18.2091 4.20992 17.5991ZM4.87167 15.9021L4.87166 15.9021L4.87025 15.9045C4.59703 16.364 4.48397 16.9142 4.68153 17.4248C4.86721 17.9412 5.3078 18.2888 5.81845 18.4632L5.82123 18.4641C10.104 19.8985 14.6453 19.8986 18.9281 18.4643C19.4318 18.2964 19.8278 17.9152 20.0103 17.4098C20.1888 16.9155 20.1501 16.3671 19.8678 15.9011C19.8677 15.901 19.8677 15.9009 19.8676 15.9008L18.7201 13.995C18.385 13.4201 18.12 12.4391 18.12 11.8V8.91999C18.12 5.74385 15.5462 3.16999 12.37 3.16999C9.2045 3.16999 6.62002 5.74323 6.62002 8.91999V11.81C6.62002 12.4478 6.34572 13.4389 6.02019 13.9945L4.87167 15.9021Z" fill="#627286" stroke="#627286"/>
<path d="M14.1574 3.42923L14.1574 3.42921L14.153 3.428C13.8453 3.34313 13.5453 3.27866 13.2533 3.23539L13.2533 3.23531L13.2442 3.23413C12.3297 3.11578 11.4388 3.17945 10.5969 3.43091L10.5969 3.43081L10.587 3.43398C10.5024 3.46117 10.405 3.43548 10.3408 3.36454C10.275 3.29181 10.2582 3.19433 10.2931 3.10864L10.2931 3.10866L10.2958 3.10186C10.6312 2.24296 11.4468 1.67999 12.38 1.67999C13.3141 1.67999 14.1265 2.23322 14.4622 3.09643C14.4998 3.20082 14.4762 3.299 14.4222 3.36124C14.374 3.41069 14.3013 3.43999 14.23 3.43999C14.2083 3.43999 14.1845 3.43698 14.1574 3.42923Z" fill="#627286" stroke="#627286"/>
<path d="M12.37 22.81C11.38 22.81 10.42 22.41 9.72003 21.71C9.02003 21.01 8.62003 20.05 8.62003 19.06H10.12C10.12 19.65 10.36 20.23 10.78 20.65C11.2 21.07 11.78 21.31 12.37 21.31C13.61 21.31 14.62 20.3 14.62 19.06H16.12C16.12 21.13 14.44 22.81 12.37 22.81Z" fill="#627286"/>
</svg>
