<svg width="100" height="112" viewBox="0 0 100 112" fill="none" xmlns="http://www.w3.org/2000/svg">
<path d="M100 50C100 62.2237 95.6437 73.342 88.3615 82.0546C79.1938 93.0429 65.4096 100 49.935 100C35.1105 100 21.8466 93.5631 12.6788 83.355C4.81144 74.5124 0 62.8088 0 50C0 22.3667 22.3667 0 50 0C77.6333 0 100 22.3667 100 50Z" fill="#EAEEF9"/>
<path d="M88.4266 82.0547C79.2588 93.043 65.4747 100 50.0001 100C35.1756 100 21.9116 93.5631 12.7439 83.3551C14.3044 82.1197 16.2549 81.0144 18.6607 80.0391L20.4812 79.3239C23.9273 77.9584 28.4136 76.2679 34.4604 73.7322C35.8258 73.147 36.9312 72.1067 37.5163 70.7413C37.8414 70.0261 38.0365 69.1808 38.0365 68.3356V57.0872C37.8414 56.8271 37.6464 56.632 37.5163 56.372C36.541 54.9415 35.8908 53.251 35.6958 51.4305L34.7205 50.9753C31.7946 51.6906 31.9897 48.5696 31.2745 42.5878C30.9494 40.1171 31.3395 39.5969 32.4448 39.2068L33.3551 37.9714C27.7634 25.2926 30.5592 17.3603 36.0859 14.5644C34.2654 10.5332 34.1353 9.10278 34.1353 9.10278C34.1353 9.10278 45.9038 11.0534 50.0001 10.2731C55.1366 9.23282 63.069 10.4682 65.9949 17.2952C70.8713 19.2458 72.8219 22.3017 73.212 25.6828C73.9272 31.0144 70.8713 36.8661 70.2862 39.1418C70.3512 39.2718 70.4162 39.3369 70.4162 39.4019C71.1964 39.792 71.4565 40.4422 71.1964 42.5878C70.4812 48.2445 70.6763 51.7556 67.7504 50.9753L65.1496 55.5267C65.0196 56.0469 65.0196 56.2419 64.9546 56.632C64.8245 57.4773 64.8895 59.1678 64.8895 68.4656C64.8895 69.5709 65.2146 70.6112 65.7998 71.5865C66.45 72.5618 67.3603 73.4071 68.5306 73.8622C68.5306 73.8622 68.5956 73.8622 68.6607 73.9272C75.3577 76.7231 80.1691 78.5436 83.6802 79.909C85.5007 80.4942 87.0612 81.2744 88.4266 82.0547Z" fill="white"/>
<path d="M70.416 39.0768C70.6761 37.6463 70.0259 35.8908 69.5057 34.6554C69.4407 34.4604 69.3107 34.2653 69.2456 34.0053C66.97 29.4539 61.9635 27.6333 57.152 27.3733C44.8633 26.7231 43.758 29.0638 39.9219 25.5527C41.0922 27.3733 41.2222 30.1691 39.4017 33.6802C38.1013 36.1509 35.6306 37.2562 33.4849 37.9714C27.8932 25.2926 30.6891 17.3603 36.2157 14.5644C34.3952 10.5332 34.2652 9.10278 34.2652 9.10278C34.2652 9.10278 46.0337 11.0534 50.0649 10.2731C55.2014 9.23282 63.1338 10.4682 66.0597 17.2952C70.9362 19.2458 72.8217 22.3017 73.2769 25.6828C73.9921 30.9493 71.0012 36.7361 70.416 39.0768Z" fill="url(#paint0_linear_385_4310)"/>
<path d="M65.9296 71.4564V73.6671H37.5161V70.8062C37.8412 70.091 38.0363 69.2457 38.0363 68.4005V57.0871C37.8412 56.827 37.6462 56.632 37.5161 56.3719V55.7217C38.1013 56.762 38.8815 57.7373 39.8568 58.5175L48.7645 64.6944C50.8451 66.4499 53.836 66.5149 55.9816 64.8244L64.3041 57.3472C64.5642 57.0871 64.8893 56.827 65.1494 56.5669C65.0194 57.4122 65.0844 59.1027 65.0844 68.4005C65.0194 69.5058 65.3445 70.6112 65.9296 71.4564Z" fill="url(#paint1_linear_385_4310)"/>
<path d="M51.4671 111.133C60.7742 111.133 68.3191 103.588 68.3191 94.2805C68.3191 84.9734 60.7742 77.4285 51.4671 77.4285C42.1599 77.4285 34.615 84.9734 34.615 94.2805C34.615 103.588 42.1599 111.133 51.4671 111.133Z" fill="#989FB0"/>
<path fill-rule="evenodd" clip-rule="evenodd" d="M58.1219 90.4384L47.5183 100.947L44.813 98.2176L55.4165 87.7087L58.1219 90.4384Z" fill="white"/>
<path fill-rule="evenodd" clip-rule="evenodd" d="M47.5183 87.7087L58.1219 98.2176L55.4165 100.947L44.813 90.4384L47.5183 87.7087Z" fill="white"/>
<defs>
<linearGradient id="paint0_linear_385_4310" x1="30.4137" y1="24.093" x2="73.3945" y2="24.093" gradientUnits="userSpaceOnUse">
<stop stop-color="#B0BACC"/>
<stop offset="1" stop-color="#969EAE"/>
</linearGradient>
<linearGradient id="paint1_linear_385_4310" x1="51.7315" y1="73.7763" x2="51.7315" y2="63.8903" gradientUnits="userSpaceOnUse">
<stop stop-color="white"/>
<stop offset="1" stop-color="#E2E5EC"/>
</linearGradient>
</defs>
</svg>
