<svg width="24" height="24" viewBox="0 0 24 24" fill="none" xmlns="http://www.w3.org/2000/svg">
<path fill-rule="evenodd" clip-rule="evenodd" d="M20.6555 6.85718C20.4298 6.46629 20.1052 6.14168 19.7143 5.916V15.8571C19.7143 16.8801 19.3079 17.8612 18.5846 18.5846C17.8612 19.3079 16.8801 19.7143 15.8571 19.7143H5.916C6.14168 20.1052 6.46629 20.4298 6.85718 20.6555C7.24807 20.8812 7.69149 21 8.14286 21H15.8571C17.2211 21 18.5292 20.4582 19.4937 19.4937C20.4582 18.5292 21 17.2211 21 15.8571V8.14286C21 7.69149 20.8812 7.24807 20.6555 6.85718ZM17.6754 3.75315C18.1577 4.23539 18.4286 4.88944 18.4286 5.57143V15.8571C18.4286 16.5391 18.1577 17.1932 17.6754 17.6754C17.1932 18.1577 16.5391 18.4286 15.8571 18.4286H5.57143C4.88944 18.4286 4.23539 18.1577 3.75315 17.6754C3.27092 17.1932 3 16.5391 3 15.8571V5.57143C3 4.88944 3.27092 4.23539 3.75315 3.75315C4.23539 3.27092 4.88944 3 5.57143 3H15.8571C16.5391 3 17.1932 3.27092 17.6754 3.75315ZM12.2941 8.30409L9.60409 11.0041L8.71409 10.1041C8.52579 9.91579 8.27039 9.81 8.00409 9.81C7.73779 9.81 7.4824 9.91579 7.29409 10.1041C7.10579 10.2924 7 10.5478 7 10.8141C7 11.0804 7.10579 11.3358 7.29409 11.5241L8.89409 13.1241C8.98705 13.2178 9.09766 13.2922 9.21951 13.343C9.34137 13.3938 9.47208 13.4199 9.60409 13.4199C9.7361 13.4199 9.86681 13.3938 9.98867 13.343C10.1105 13.2922 10.2211 13.2178 10.3141 13.1241L13.7541 9.71409C13.9424 9.52579 14.0482 9.27039 14.0482 9.00409C14.0482 8.73779 13.9424 8.4824 13.7541 8.29409C13.5658 8.10579 13.3104 8 13.0441 8C12.7778 8 12.5224 8.10579 12.3341 8.29409L12.2941 8.30409Z" fill="#0C0D0E"/>
</svg>
