<svg width="25" height="24" viewBox="0 0 25 24" fill="none" xmlns="http://www.w3.org/2000/svg">
<path d="M12.7096 10.7995L12.7503 10.801L12.787 10.7948C12.7885 10.7947 12.7919 10.7944 12.7976 10.7941C12.809 10.7935 12.8247 10.793 12.8445 10.793C12.8841 10.793 12.9324 10.7948 12.9814 10.7986L13.0062 10.8005L13.0311 10.7994C15.0169 10.7082 16.5741 9.07669 16.5842 7.07678V7.07473C16.5842 5.01961 14.9052 3.34066 12.8501 3.34066C10.795 3.34066 9.11605 5.01961 9.11605 7.07473C9.11605 9.09745 10.6964 10.7287 12.7096 10.7995ZM12.9945 11.3424H12.9943H12.9942H12.994H12.9938H12.9937H12.9935H12.9934H12.9932H12.993H12.9929H12.9927H12.9926H12.9924H12.9923H12.9921H12.992H12.9918H12.9916H12.9915H12.9913H12.9912H12.991H12.9909H12.9907H12.9906H12.9904H12.9903H12.9901H12.99H12.9898H12.9896H12.9895H12.9893H12.9892H12.989H12.9889H12.9887H12.9886H12.9884H12.9883H12.9881H12.988H12.9878H12.9877H12.9875H12.9874H12.9872H12.9871H12.9869H12.9868H12.9866H12.9865H12.9863H12.9862H12.986H12.9859H12.9857H12.9856H12.9854H12.9853H12.9851H12.985H12.9849H12.9847H12.9846H12.9844H12.9843H12.9841H12.984H12.9838H12.9837H12.9835H12.9834H12.9832H12.9831H12.983H12.9828H12.9827H12.9825H12.9824H12.9822H12.9821H12.9819H12.9818H12.9817H12.9815H12.9814H12.9812H12.9811H12.9809H12.9808H12.9806H12.9805H12.9804H12.9802H12.9801H12.9799H12.9798H12.9797H12.9795H12.9794H12.9792H12.9791H12.9789H12.9788H12.9787H12.9785H12.9784H12.9782H12.9781H12.978H12.9778H12.9777H12.9775H12.9774H12.9773H12.9771H12.977H12.9768H12.9767H12.9766H12.9764H12.9763H12.9761H12.976H12.9759H12.9757H12.9756H12.9754H12.9753H12.9752H12.975H12.9749H12.9747H12.9746H12.9745H12.9743H12.9742H12.9741H12.9739H12.9738H12.9736H12.9735H12.9734H12.9732H12.9731H12.973H12.9728H12.9727H12.9726H12.9724H12.9723H12.9721H12.972H12.9719H12.9717H12.9716H12.9715H12.9713H12.9712H12.9711H12.9709H12.9708H12.9706H12.9705H12.9704H12.9702H12.9701H12.97H12.9698H12.9697H12.9696H12.9694H12.9693H12.9692H12.969H12.9689H12.9688H12.9686H12.9685H12.9684H12.9682H12.9681H12.9679H12.9678H12.9677H12.9675H12.9674H12.9673H12.9671H12.967H12.9669H12.9667H12.9666H12.9665H12.9663H12.9662H12.9661H12.9659H12.9658H12.9657H12.9655H12.9654H12.9653H12.9651H12.965H12.9649H12.9647H12.9646H12.9645H12.9643H12.9642H12.9641H12.9639H12.9638H12.9637H12.9635H12.9634H12.9633H12.9631H12.963H12.9629H12.9627H12.9626H12.9625H12.9624H12.9622H12.9621H12.962H12.9618H12.9617H12.9616H12.9614H12.9613H12.9612H12.961H12.9609H12.9608H12.9606H12.9605H12.9604H12.9602H12.9601H12.96H12.9598H12.9597H12.9596H12.9594H12.9593H12.9592H12.959H12.9589H12.9588H12.9586H12.9585H12.9584H12.9583H12.9581H12.958H12.9579H12.9577H12.9576H12.9575H12.9573H12.9572H12.9571H12.9569H12.9568H12.9567H12.9565H12.9564H12.9563H12.9561H12.956H12.9559H12.9557H12.9556H12.9555H12.9553H12.9552H12.9551H12.9549H12.9548H12.9547H12.9545H12.9544H12.9543H12.9541H12.954H12.9539H12.9538H12.9536C12.8822 11.3332 12.8075 11.3339 12.7398 11.3415C10.3564 11.251 8.57342 9.37774 8.57342 7.07473C8.57342 4.71851 10.4939 2.79803 12.8501 2.79803C15.2061 2.79803 17.1264 4.71803 17.1268 7.07384C17.1183 9.39076 15.3079 11.2651 13.0148 11.3424H13.0148H13.0147H13.0147H13.0146H13.0146H13.0145H13.0144H13.0144H13.0143H13.0143H13.0142H13.0142H13.0141H13.0141H13.014H13.014H13.0139H13.0139H13.0138H13.0138H13.0137H13.0137H13.0136H13.0135H13.0135H13.0134H13.0134H13.0133H13.0133H13.0132H13.0132H13.0131H13.0131H13.013H13.013H13.0129H13.0129H13.0128H13.0128H13.0127H13.0127H13.0126H13.0125H13.0125H13.0124H13.0124H13.0123H13.0123H13.0122H13.0122H13.0121H13.0121H13.012H13.012H13.0119H13.0119H13.0118H13.0118H13.0117H13.0116H13.0116H13.0115H13.0115H13.0114H13.0114H13.0113H13.0113H13.0112H13.0112H13.0111H13.0111H13.011H13.011H13.0109H13.0109H13.0108H13.0107H13.0107H13.0106H13.0106H13.0105H13.0105H13.0104H13.0104H13.0103H13.0103H13.0102H13.0102H13.0101H13.0101H13.01H13.01H13.0099H13.0098H13.0098H13.0097H13.0097H13.0096H13.0096H13.0095H13.0095H13.0094H13.0094H13.0093H13.0093H13.0092H13.0092H13.0091H13.0091H13.009H13.009H13.0089H13.0088H13.0088H13.0087H13.0087H13.0086H13.0086H13.0085H13.0085H13.0084H13.0084H13.0083H13.0083H13.0082H13.0082H13.0081H13.0081H13.008H13.0079H13.0079H13.0078H13.0078H13.0077H13.0077H13.0076H13.0076H13.0075H13.0075H13.0074H13.0074H13.0073H13.0073H13.0072H13.0072H13.0071H13.007H13.007H13.0069H13.0069H13.0068H13.0068H13.0067H13.0067H13.0066H13.0066H13.0065H13.0065H13.0064H13.0064H13.0063H13.0063H13.0062H13.0061H13.0061H13.006H13.006H13.0059H13.0059H13.0058H13.0058H13.0057H13.0057H13.0056H13.0056H13.0055H13.0055H13.0054H13.0054H13.0053H13.0053H13.0052H13.0051H13.0051H13.005H13.005H13.0049H13.0049H13.0048H13.0048H13.0047H13.0047H13.0046H13.0046H13.0045H13.0045H13.0044H13.0044H13.0043H13.0042H13.0042H13.0041H13.0041H13.004H13.004H13.0039H13.0039H13.0038H13.0038H13.0037H13.0037H13.0036H13.0036H13.0035H13.0035H13.0034H13.0033H13.0033H13.0032H13.0032H13.0031H13.0031H13.003H13.003H13.0029H13.0029H13.0028H13.0028H13.0027H13.0027H13.0026H13.0026H13.0025H13.0024H13.0024H13.0023H13.0023H13.0022H13.0022H13.0021H13.0021H13.002H13.002H13.0019H13.0019H13.0018H13.0018H13.0017H13.0017H13.0016H13.0016H13.0015H13.0014H13.0014H13.0013H13.0013H13.0012H13.0012H13.0011H13.0011H13.001H13.001H13.0009H13.0009H13.0008H13.0008H13.0007H13.0007H13.0006H13.0005H13.0005H13.0004H13.0004H13.0003H13.0003H13.0002H13.0002H13.0001H13.0001H13H13H12.9999H12.9999H12.9998H12.9998H12.9997H12.9996H12.9996H12.9995H12.9995H12.9994H12.9994H12.9993H12.9993H12.9992H12.9992H12.9991H12.9991H12.999H12.999H12.9989H12.9989H12.9988H12.9987H12.9987H12.9986H12.9986H12.9985H12.9985H12.9984H12.9984H12.9983H12.9983H12.9982H12.9982H12.9981H12.9981H12.998H12.998H12.9979H12.9979H12.9978H12.9977H12.9977H12.9976H12.9976H12.9975H12.9975H12.9974H12.9974H12.9973H12.9973H12.9972H12.9972H12.9971H12.9971H12.997H12.997H12.9969H12.9968H12.9968H12.9967H12.9967H12.9966H12.9966H12.9965H12.9965H12.9964H12.9964H12.9963H12.9963H12.9962H12.9962H12.9961H12.9961H12.996H12.9959H12.9959H12.9958H12.9958H12.9957H12.9957H12.9956H12.9956H12.9955H12.9955H12.9954H12.9954H12.9953H12.9953H12.9952H12.9952H12.9951H12.995H12.995H12.9949H12.9949H12.9948H12.9948H12.9947H12.9947H12.9946H12.9946H12.9945H12.9945Z" fill="#627286" stroke="#627286" stroke-width="0.810546"/>
<path d="M21.9987 9.30895C21.9987 10.7823 20.8512 11.9737 19.3851 12.0388L19.3445 12.0253L19.2587 12.0337C19.2128 12.0381 19.1583 12.0236 19.1151 11.9917C19.0733 11.9609 19.0614 11.9297 19.0596 11.9107C19.0538 11.8518 19.0699 11.8079 19.0885 11.7822C19.104 11.7609 19.1247 11.7461 19.1569 11.7409C19.2234 11.7359 19.2988 11.7357 19.3792 11.7357H19.3903L19.4014 11.7351C20.6933 11.6643 21.7026 10.6013 21.7026 9.30158C21.7026 7.95637 20.6138 6.86749 19.2686 6.86749V6.86737L19.2587 6.86761C19.1897 6.86929 19.1205 6.8075 19.1205 6.72683C19.1205 6.64818 19.1899 6.57879 19.2686 6.57879C20.7711 6.57879 21.9987 7.80645 21.9987 9.30895Z" fill="#627286" stroke="#627286" stroke-width="0.810546"/>
<path d="M13.0035 21.6077C11.2354 21.6077 9.4582 21.1566 8.11405 20.2545C6.86011 19.4246 6.1745 18.2879 6.1745 17.052C6.1745 15.8161 6.86011 14.6704 8.11405 13.8314C10.8204 12.0362 15.2047 12.0362 17.893 13.8314C19.1379 14.6614 19.8325 15.7981 19.8325 17.034C19.8325 18.2699 19.1469 19.4155 17.893 20.2545C16.5398 21.1566 14.7717 21.6077 13.0035 21.6077ZM8.8628 14.9681C7.99677 15.5455 7.52767 16.2852 7.52767 17.061C7.52767 17.8278 8.00579 18.5676 8.8628 19.1359C11.1091 20.6424 14.898 20.6424 17.1442 19.1359C18.0102 18.5585 18.4793 17.8188 18.4793 17.043C18.4793 16.2762 18.0012 15.5364 17.1442 14.9681C14.898 13.4706 11.1091 13.4706 8.8628 14.9681Z" fill="#627286"/>
<path d="M21.2322 13.5587L21.1447 13.9545C21.7284 14.0834 22.2254 14.3114 22.6226 14.6175L22.6226 14.6175L22.6263 14.6203C23.2247 15.0708 23.5418 15.6873 23.5418 16.3105C23.5418 16.9312 23.2197 17.5495 22.6167 18.0099L22.6167 18.0098L22.6145 18.0115C22.2107 18.3241 21.6945 18.5579 21.1167 18.6722L21.0915 18.6771L21.0854 18.6792L21.0772 18.6792C21.006 18.6792 20.9498 18.6328 20.9365 18.5645L20.9365 18.5642C20.9199 18.4796 20.9717 18.4008 21.0532 18.3812C21.5647 18.275 22.05 18.0693 22.4377 17.7684C22.9291 17.3968 23.2457 16.8899 23.2457 16.3105C23.2457 15.7323 22.9302 15.2248 22.4441 14.8593C22.0632 14.5656 21.6008 14.3686 21.0798 14.2483L21.0798 14.2483L21.0777 14.2478C20.9993 14.2302 20.9462 14.1504 20.9638 14.0672C20.982 13.9891 21.0621 13.9363 21.1453 13.9546L21.2322 13.5587ZM21.2322 13.5587C21.8666 13.6989 22.4199 13.9497 22.87 14.2965L20.9887 14.6432C20.6936 14.5768 20.5018 14.2817 20.5682 13.9793C20.6346 13.6842 20.9297 13.4923 21.2322 13.5587Z" fill="#627286" stroke="#627286" stroke-width="0.810546"/>
<path d="M3.70191 9.30895C3.70191 10.7823 4.84945 11.9737 6.31553 12.0388L6.35615 12.0253L6.44191 12.0337C6.48783 12.0381 6.54228 12.0236 6.58552 11.9917C6.62735 11.9609 6.63919 11.9297 6.64104 11.9107C6.64679 11.8518 6.63068 11.8079 6.61208 11.7822C6.59659 11.7609 6.57596 11.7461 6.54371 11.7409C6.47719 11.7359 6.40178 11.7357 6.32141 11.7357H6.31031L6.29923 11.7351C5.00728 11.6643 3.99798 10.6013 3.99798 9.30158C3.99798 7.95637 5.08686 6.86749 6.43207 6.86749V6.86737L6.44195 6.86761C6.51096 6.86929 6.58011 6.8075 6.58011 6.72683C6.58011 6.64818 6.51072 6.57879 6.43207 6.57879C4.92956 6.57879 3.70191 7.80645 3.70191 9.30895Z" fill="#627286" stroke="#627286" stroke-width="0.810546"/>
<path d="M4.62283 19.0845C4.88104 19.0845 5.10975 18.9074 5.16139 18.6418C5.22041 18.3394 5.02859 18.0516 4.73349 17.9852C4.26871 17.8893 3.84082 17.7049 3.50883 17.4467C3.08831 17.1295 2.85961 16.7311 2.85961 16.3105C2.85961 15.89 3.08831 15.4916 3.50145 15.1818C3.82606 14.931 4.23183 14.7539 4.71136 14.6432C5.00646 14.5768 5.19828 14.2817 5.13188 13.9793C5.06548 13.6842 4.77038 13.4923 4.46791 13.5587C3.83344 13.6989 3.28013 13.9497 2.8301 14.2965C2.14399 14.8129 1.75299 15.5433 1.75299 16.3105C1.75299 17.0778 2.15137 17.8082 2.83748 18.332C3.29488 18.6861 3.87033 18.9443 4.50479 19.0697C4.54906 19.0845 4.58594 19.0845 4.62283 19.0845Z" fill="#627286"/>
</svg>
