<svg width="24" height="24" viewBox="0 0 24 24" fill="none" xmlns="http://www.w3.org/2000/svg">
<path d="M19.7143 5.916C20.1052 6.14168 20.4298 6.46629 20.6555 6.85718C20.8812 7.24807 21 7.69149 21 8.14286V15.8571C21 17.2211 20.4582 18.5292 19.4937 19.4937C18.5292 20.4582 17.2211 21 15.8571 21H8.14286C7.69149 21 7.24807 20.8812 6.85718 20.6555C6.46629 20.4298 6.14168 20.1052 5.916 19.7143H15.8571C16.8801 19.7143 17.8612 19.3079 18.5846 18.5846C19.3079 17.8612 19.7143 16.8801 19.7143 15.8571V5.916ZM18.4286 5.57143C18.4286 4.88944 18.1577 4.23539 17.6754 3.75315C17.1932 3.27092 16.5391 3 15.8571 3H5.57143C4.88944 3 4.23539 3.27092 3.75315 3.75315C3.27092 4.23539 3 4.88944 3 5.57143V15.8571C3 16.5391 3.27092 17.1932 3.75315 17.6754C4.23539 18.1577 4.88944 18.4286 5.57143 18.4286H15.8571C16.5391 18.4286 17.1932 18.1577 17.6754 17.6754C18.1577 17.1932 18.4286 16.5391 18.4286 15.8571V5.57143ZM14.5714 10.7143C14.5714 10.8848 14.5037 11.0483 14.3831 11.1689C14.2626 11.2894 14.0991 11.3571 13.9286 11.3571H11.3571V13.9286C11.3571 14.0991 11.2894 14.2626 11.1689 14.3831C11.0483 14.5037 10.8848 14.5714 10.7143 14.5714C10.5438 14.5714 10.3803 14.5037 10.2597 14.3831C10.1392 14.2626 10.0714 14.0991 10.0714 13.9286V11.3571H7.5C7.3295 11.3571 7.16599 11.2894 7.04543 11.1689C6.92487 11.0483 6.85714 10.8848 6.85714 10.7143C6.85714 10.5438 6.92487 10.3803 7.04543 10.2597C7.16599 10.1392 7.3295 10.0714 7.5 10.0714H10.0714V7.5C10.0714 7.3295 10.1392 7.16599 10.2597 7.04543C10.3803 6.92487 10.5438 6.85714 10.7143 6.85714C10.8848 6.85714 11.0483 6.92487 11.1689 7.04543C11.2894 7.16599 11.3571 7.3295 11.3571 7.5V10.0714H13.9286C14.0991 10.0714 14.2626 10.1392 14.3831 10.2597C14.5037 10.3803 14.5714 10.5438 14.5714 10.7143Z" fill="#0C0D0E"/>
</svg>
