<svg width="24" height="24" viewBox="0 0 24 24" fill="none" xmlns="http://www.w3.org/2000/svg">
<path d="M12.1442 11.7475C12.1171 11.7475 12.0991 11.7475 12.072 11.7475C12.0269 11.7385 11.9638 11.7385 11.9096 11.7475C9.2935 11.6663 7.31787 9.6095 7.31787 7.07456C7.31787 4.49451 9.4198 2.39258 11.9998 2.39258C14.5799 2.39258 16.6818 4.49451 16.6818 7.07456C16.6728 9.6095 14.6882 11.6663 12.1712 11.7475C12.1622 11.7475 12.1532 11.7475 12.1442 11.7475ZM11.9998 3.74575C10.1686 3.74575 8.67104 5.24326 8.67104 7.07456C8.67104 8.87879 10.0783 10.3312 11.8736 10.3943C11.9277 10.3853 12.045 10.3853 12.1622 10.3943C13.9304 10.3131 15.3196 8.86074 15.3287 7.07456C15.3287 5.24326 13.8311 3.74575 11.9998 3.74575Z" fill="#828085"/>
<path d="M18.5143 12.4442C18.4922 12.4442 18.47 12.4442 18.4479 12.4368C18.1454 12.4663 17.8356 12.2524 17.8061 11.9499C17.7766 11.6474 17.961 11.3745 18.2635 11.3376C18.352 11.3302 18.4479 11.3302 18.5291 11.3302C19.6062 11.2712 20.4472 10.3859 20.4472 9.3014C20.4472 8.18002 19.5398 7.27259 18.4184 7.27259C18.1159 7.27996 17.8651 7.02913 17.8651 6.72665C17.8651 6.42417 18.1159 6.17334 18.4184 6.17334C20.1447 6.17334 21.5538 7.58244 21.5538 9.30878C21.5538 11.0056 20.2259 12.3778 18.5364 12.4442C18.5291 12.4442 18.5217 12.4442 18.5143 12.4442Z" fill="#828085"/>
<path d="M12.1532 21.6075C10.3851 21.6075 8.60792 21.1564 7.26377 20.2543C6.00983 19.4244 5.32422 18.2877 5.32422 17.0518C5.32422 15.8159 6.00983 14.6702 7.26377 13.8313C9.97011 12.0361 14.3544 12.0361 17.0427 13.8313C18.2876 14.6612 18.9822 15.7979 18.9822 17.0338C18.9822 18.2697 18.2966 19.4154 17.0427 20.2543C15.6895 21.1564 13.9214 21.6075 12.1532 21.6075ZM8.01252 14.9679C7.14649 15.5453 6.67739 16.285 6.67739 17.0608C6.67739 17.8276 7.15551 18.5674 8.01252 19.1357C10.2588 20.6422 14.0477 20.6422 16.2939 19.1357C17.16 18.5584 17.6291 17.8186 17.6291 17.0428C17.6291 16.276 17.1509 15.5363 16.2939 14.9679C14.0477 13.4704 10.2588 13.4704 8.01252 14.9679Z" fill="#828085"/>
<path d="M20.227 19.0843C19.9687 19.0843 19.74 18.9072 19.6884 18.6417C19.6294 18.3392 19.8212 18.0515 20.1163 17.9851C20.5811 17.8892 21.009 17.7047 21.341 17.4465C21.7615 17.1293 21.9902 16.7309 21.9902 16.3104C21.9902 15.8899 21.7615 15.4915 21.3483 15.1816C21.0237 14.9308 20.618 14.7537 20.1384 14.6431C19.8433 14.5767 19.6515 14.2816 19.7179 13.9791C19.7843 13.684 20.0794 13.4922 20.3819 13.5586C21.0164 13.6987 21.5697 13.9496 22.0197 14.2963C22.7058 14.8127 23.0968 15.5431 23.0968 16.3104C23.0968 17.0776 22.6984 17.808 22.0123 18.3318C21.5549 18.6859 20.9795 18.9441 20.345 19.0696C20.3007 19.0843 20.2638 19.0843 20.227 19.0843Z" fill="#828085"/>
<path d="M5.48594 12.4442C5.50807 12.4442 5.53021 12.4442 5.55234 12.4368C5.85482 12.4663 6.16467 12.2524 6.19418 11.9499C6.22369 11.6474 6.03925 11.3745 5.73678 11.3376C5.64825 11.3302 5.55234 11.3302 5.47119 11.3302C4.39407 11.2712 3.55304 10.3859 3.55304 9.3014C3.55304 8.18002 4.46047 7.27259 5.58185 7.27259C5.88433 7.27996 6.13516 7.02913 6.13516 6.72665C6.13516 6.42417 5.88433 6.17334 5.58185 6.17334C3.85551 6.17334 2.44641 7.58244 2.44641 9.30878C2.44641 11.0056 3.77436 12.3778 5.46381 12.4442C5.47119 12.4442 5.47856 12.4442 5.48594 12.4442Z" fill="#828085"/>
<path d="M3.7728 19.0843C4.03101 19.0843 4.25971 18.9072 4.31135 18.6417C4.37037 18.3392 4.17856 18.0515 3.88346 17.9851C3.41868 17.8892 2.99078 17.7047 2.65879 17.4465C2.23828 17.1293 2.00957 16.7309 2.00957 16.3104C2.00957 15.8899 2.23828 15.4915 2.65142 15.1816C2.97603 14.9308 3.38179 14.7537 3.86133 14.6431C4.15643 14.5767 4.34824 14.2816 4.28184 13.9791C4.21545 13.684 3.92035 13.4922 3.61787 13.5586C2.9834 13.6987 2.43009 13.9496 1.98006 14.2963C1.29396 14.8127 0.90295 15.5431 0.90295 16.3104C0.90295 17.0776 1.30133 17.808 1.98744 18.3318C2.44485 18.6859 3.02029 18.9441 3.65476 19.0696C3.69902 19.0843 3.73591 19.0843 3.7728 19.0843Z" fill="#828085"/>
</svg>
