<svg width="120" height="120" viewBox="0 0 120 120" fill="none" xmlns="http://www.w3.org/2000/svg">
<path d="M76.5476 92H42.7341C39.0088 92 36 88.9554 36 85.1859V37.777C36 24.5836 46.6025 14 59.4975 14C72.3925 14 82.9951 24.7286 82.9951 37.777V85.3309C83.1384 88.9554 80.1295 92 76.5476 92ZM49.4681 78.5167H69.8135V37.777C69.8135 32.1227 65.2287 27.4833 59.6408 27.4833C54.053 27.4833 49.4681 32.1227 49.4681 37.777V78.5167Z" fill="url(#paint0_linear_7041_256934)"/>
<path d="M90.3433 105H28.6567C24.4672 105 21 101.545 21 97.3702V56.6298C21 52.455 24.4672 49 28.6567 49H90.3433C94.5328 49 98 52.455 98 56.6298V97.3702C98 101.545 94.5328 105 90.3433 105Z" fill="url(#paint1_linear_7041_256934)"/>
<path d="M67 70.5892C67 73.5405 65.3333 76.0703 62.9722 77.3351V85.4865C62.9722 87.4541 61.4444 89 59.5 89C57.5556 89 56.0278 87.4541 56.0278 85.4865V77.3351C53.6667 76.0703 52 73.5405 52 70.5892C52 66.373 55.3333 63 59.5 63C63.6667 63 67 66.373 67 70.5892Z" fill="#EAEEF9"/>
<defs>
<linearGradient id="paint0_linear_7041_256934" x1="59.5" y1="19.7344" x2="59.5" y2="49.2187" gradientUnits="userSpaceOnUse">
<stop stop-color="#B0BACC"/>
<stop offset="1" stop-color="#969EAE"/>
</linearGradient>
<linearGradient id="paint1_linear_7041_256934" x1="20.9647" y1="77.0061" x2="98.014" y2="77.0061" gradientUnits="userSpaceOnUse">
<stop stop-color="#B0BACC"/>
<stop offset="1" stop-color="#969EAE"/>
</linearGradient>
</defs>
</svg>
