<svg width="64" height="64" viewBox="0 0 64 64" fill="none" xmlns="http://www.w3.org/2000/svg">
<path d="M54 55H10C3.373 55 0 50.075 0 44V33H64V44C64 50.075 60.627 55 54 55Z" fill="#E6E7E8"/>
<path d="M0 22C0 15.925 3.373 11 10 11H54C60.627 11 64 15.925 64 22V33H0V22Z" fill="#EC1C24"/>
<path d="M10.8259 22.12C10.8258 20.1017 11.606 18.1614 13.0035 16.7051C14.4009 15.2488 16.3073 14.3891 18.3239 14.306C17.0762 13.8697 15.7421 13.7386 14.4333 13.9237C13.1245 14.1087 11.8791 14.6045 10.8012 15.3695C9.72328 16.1346 8.8443 17.1467 8.23777 18.3212C7.63124 19.4956 7.3148 20.7982 7.31494 22.12C7.31468 23.2072 7.52858 24.2837 7.94442 25.2881C8.36026 26.2926 8.9699 27.2053 9.73851 27.9741C10.5071 28.7429 11.4197 29.3527 12.424 29.7688C13.4284 30.1849 14.5048 30.399 15.5919 30.399C16.5489 30.399 17.4699 30.238 18.3239 29.937C16.3068 29.8539 14.3999 28.9939 13.0024 27.5369C11.6049 26.0799 10.825 24.1389 10.8259 22.12" fill="white"/>
<path d="M21.93 16.752L20.387 16.754L19.907 15.192L19.432 16.754L17.886 16.752L19.14 17.703L18.652 19.255L19.909 18.291L21.17 19.255L20.681 17.703L21.93 16.752Z" fill="white"/>
<path d="M26.3379 20.03H24.7949L24.3149 18.467L23.8399 20.03H22.2939L23.5459 20.978L23.0599 22.529L24.3169 21.565L25.5749 22.529L25.0899 20.978L26.3379 20.03Z" fill="white"/>
<path d="M24.688 25.27H23.14L22.665 23.707L22.19 25.27H20.644L21.896 26.22L21.41 27.77L22.667 26.806L23.925 27.77L23.438 26.22L24.688 25.27Z" fill="white"/>
<path d="M19.16 25.27H17.621L17.14 23.707L16.666 25.27H15.12L16.372 26.22L15.887 27.77L17.14 26.806L18.401 27.77L17.915 26.22L19.16 25.27Z" fill="white"/>
<path d="M17.514 20.03H15.971L15.491 18.467L15.02 20.03H13.47L14.722 20.978L14.236 22.529L15.493 21.565L16.751 22.529L16.265 20.978L17.514 20.03Z" fill="white"/>
</svg>
