<svg width="20" height="20" viewBox="0 0 20 20" fill="none" xmlns="http://www.w3.org/2000/svg">
<rect width="20" height="20" rx="3" fill="white"/>
<path d="M10.1861 9.57425C10.1207 9.49925 10.0541 9.4255 9.99906 9.34508C9.94406 9.4255 9.8774 9.49967 9.81198 9.57425C9.87406 9.57842 9.93573 9.58342 9.99906 9.58342C10.0624 9.58342 10.1241 9.57842 10.1861 9.57425ZM9.70448 6.17008C9.81698 6.28258 9.91281 6.40466 9.99906 6.53091C10.0857 6.40466 10.1816 6.28258 10.2936 6.17008L12.3557 4.10758C12.3982 4.0655 12.4466 4.03591 12.4899 3.99758C12.4032 2.69633 11.3228 1.66675 9.99906 1.66675C8.67531 1.66675 7.5949 2.69633 7.50781 3.99758C7.55156 4.03591 7.60031 4.0655 7.6424 4.10758L9.70448 6.17008Z" fill="#FFB74D"/>
<path d="M9.8124 10.4255C9.87781 10.5009 9.94448 10.5742 9.99948 10.6551C10.0545 10.5751 10.1211 10.5009 10.1866 10.4255C10.1245 10.4217 10.0628 10.4167 9.99948 10.4167C9.93615 10.4167 9.87448 10.4217 9.8124 10.4255ZM10.2941 13.8297C10.1816 13.7172 10.0857 13.5955 9.99948 13.4692C9.91281 13.5963 9.81698 13.718 9.7049 13.8297L7.6424 15.8926C7.60031 15.9342 7.55198 15.9642 7.50781 16.0026C7.59531 17.3038 8.67573 18.3334 9.99948 18.3334C11.3232 18.3334 12.4036 17.3038 12.4907 16.0026C12.4474 15.9642 12.3982 15.9342 12.3566 15.8926L10.2941 13.8297Z" fill="#64B5F6"/>
<path d="M6.1713 10.2946C6.2838 10.1821 6.40547 10.0862 6.53214 9.99997C6.40589 9.9133 6.2838 9.81747 6.1713 9.70538L4.1088 7.64288C4.06672 7.6008 4.03714 7.55247 3.9988 7.5083C2.69755 7.5958 1.66797 8.67622 1.66797 9.99997C1.66797 11.3237 2.69755 12.4041 3.9988 12.4912C4.03714 12.4479 4.06672 12.3987 4.1088 12.3571L6.1713 10.2946ZM9.57547 9.81289C9.50047 9.8783 9.42672 9.94497 9.3463 9.99997C9.42672 10.055 9.50089 10.1216 9.57547 10.1871C9.57964 10.125 9.58464 10.0633 9.58464 9.99997C9.58464 9.93663 9.57964 9.87497 9.57547 9.81289Z" fill="#F48FB1"/>
<path d="M10.418 10C10.418 10.0634 10.423 10.125 10.4267 10.1871C10.5021 10.1217 10.5755 10.055 10.6563 10C10.5763 9.94504 10.5021 9.87837 10.4267 9.81296C10.423 9.87504 10.418 9.93671 10.418 10ZM18.3346 10C18.3346 8.67629 17.3051 7.59587 16.0038 7.50879C15.9655 7.55254 15.9355 7.60129 15.8938 7.64337L13.8309 9.70587C13.7184 9.81837 13.5963 9.91421 13.4705 10.0005C13.5976 10.0871 13.7192 10.183 13.8309 10.295L15.8938 12.3571C15.9355 12.3996 15.9655 12.448 16.0038 12.4917C17.3051 12.4042 18.3346 11.3238 18.3346 10Z" fill="#8BC34A"/>
<path d="M12.5004 7.08335C12.5004 7.24085 12.4842 7.3946 12.4567 7.54418C12.6058 7.51626 12.7592 7.50001 12.9171 7.50001H15.8338C15.8908 7.50001 15.9467 7.50501 16.0029 7.50876C16.8571 6.52668 16.8275 5.0421 15.8929 4.10751C14.9579 3.17335 13.4733 3.14335 12.4913 3.99751C12.4954 4.05376 12.5004 4.1096 12.5004 4.16668V7.08335ZM10.4258 9.81293C10.4333 9.72002 10.4446 9.62876 10.4608 9.53918C10.3713 9.55626 10.2796 9.5671 10.1875 9.57418C10.225 9.6171 10.2542 9.6646 10.295 9.70543C10.3358 9.74626 10.3833 9.77543 10.4258 9.81293Z" fill="#C0CA33"/>
<path d="M10.2946 6.17006C10.1821 6.28256 10.0862 6.40464 10 6.53089C10.5788 7.37798 10.5788 8.49839 10 9.34506C10.055 9.42548 10.1217 9.49964 10.1871 9.57423C10.28 9.56714 10.3708 9.55631 10.4604 9.53923C10.6492 8.52881 11.4446 7.73298 12.455 7.54464C12.4838 7.39464 12.5 7.24089 12.5 7.08339V4.16673C12.5 4.10964 12.495 4.05381 12.4913 3.99756C12.4479 4.03589 12.3987 4.06548 12.3571 4.10756L10.2946 6.17006Z" fill="#F9A825"/>
<path d="M12.9158 7.5C12.7579 7.5 12.6045 7.51625 12.4554 7.54417C12.2666 8.55458 11.4712 9.35042 10.4608 9.53875C10.4437 9.62833 10.4329 9.72 10.4258 9.8125C10.5008 9.87792 10.5741 9.94458 10.6549 9.99958C11.5016 9.42083 12.6229 9.42083 13.4691 9.99958C13.5958 9.91292 13.7179 9.81708 13.8299 9.705L15.892 7.6425C15.9341 7.60042 15.9637 7.55208 16.0024 7.50792C15.9454 7.505 15.8895 7.5 15.8324 7.5H12.9158Z" fill="#689F38"/>
<path d="M12.4555 7.54419C11.4447 7.73252 10.6489 8.52836 10.4609 9.53877C11.4705 9.35044 12.2664 8.55502 12.4555 7.54419Z" fill="#827717"/>
<path d="M7.49821 12.9166C7.49821 12.7587 7.51446 12.6053 7.54238 12.4562C7.39279 12.4837 7.23904 12.4999 7.08154 12.4999H4.16488C4.10779 12.4999 4.05196 12.4949 3.99571 12.4912C3.14154 13.4733 3.17113 14.9587 4.10571 15.8928C5.03988 16.8266 6.52446 16.8566 7.50696 16.0028C7.50321 15.9462 7.49821 15.8903 7.49821 15.8333V12.9166ZM9.57238 10.187C9.56529 10.2799 9.55446 10.3708 9.53738 10.4603C9.62696 10.4441 9.71863 10.4328 9.81113 10.4253C9.77363 10.3824 9.74446 10.3349 9.70363 10.2945C9.66279 10.2541 9.61529 10.2245 9.57238 10.187Z" fill="#BA68C8"/>
<path d="M9.70542 13.8297C9.81792 13.7172 9.91375 13.5955 10 13.4693C9.42125 12.623 9.42125 11.5022 10 10.6551C9.945 10.5751 9.87833 10.501 9.81292 10.4255C9.72 10.433 9.62875 10.4443 9.53917 10.4605C9.35083 11.4714 8.555 12.2672 7.54458 12.4551C7.51625 12.6055 7.5 12.7589 7.5 12.9168V15.8335C7.5 15.8905 7.505 15.9464 7.50875 16.0026C7.5525 15.9643 7.60125 15.9343 7.64333 15.8926L9.70542 13.8297Z" fill="#5C6BC0"/>
<path d="M7.08234 12.4999C7.23984 12.4999 7.39359 12.4837 7.54318 12.4562C7.73151 11.4453 8.52734 10.6495 9.53776 10.4616C9.55484 10.372 9.56568 10.2799 9.57276 10.1878C9.49776 10.1224 9.42401 10.0557 9.34359 10.0007C8.49693 10.5799 7.37651 10.5799 6.52943 10.0007C6.40276 10.0874 6.28109 10.1832 6.16859 10.2953L4.10609 12.3574C4.06401 12.3999 4.03443 12.4482 3.99609 12.492C4.05276 12.4949 4.10859 12.4999 4.16568 12.4999H7.08234Z" fill="#D81B60"/>
<path d="M7.54297 12.4563C8.55339 12.2675 9.34922 11.4721 9.53755 10.4617C8.52714 10.6496 7.73172 11.4454 7.54297 12.4563Z" fill="#880E4F"/>
<path d="M9.81113 9.57409C9.71821 9.567 9.62696 9.55617 9.53738 9.53909C9.55446 9.62867 9.56529 9.72034 9.57238 9.81284C9.61529 9.77534 9.66279 9.74617 9.70363 9.70534C9.74446 9.6645 9.77363 9.617 9.81113 9.57409ZM7.08154 7.49992C7.23904 7.49992 7.39279 7.51617 7.54238 7.54409C7.51446 7.3945 7.49821 7.24075 7.49821 7.08325V4.16658C7.49821 4.1095 7.50321 4.05367 7.50696 3.99742C6.52488 3.14325 5.04029 3.17283 4.10571 4.10742C3.17113 5.042 3.14154 6.52617 3.99571 7.50867C4.05196 7.50492 4.10779 7.49992 4.16488 7.49992H7.08154Z" fill="#FF5252"/>
<path d="M7.5 7.08332C7.5 7.24082 7.51625 7.39457 7.54417 7.54415C8.55458 7.73249 9.35042 8.52832 9.53875 9.53874C9.62833 9.55582 9.72 9.56665 9.8125 9.57374C9.87792 9.49874 9.94458 9.42499 9.99958 9.34457C9.42083 8.4979 9.42083 7.37749 9.99958 6.5304C9.91292 6.40415 9.81708 6.28207 9.705 6.16957L7.6425 4.10707C7.60042 4.06499 7.55208 4.0354 7.50792 3.99707C7.505 4.05374 7.5 4.10957 7.5 4.16665V7.08332Z" fill="#EF6C00"/>
<path d="M6.16859 9.70542C6.28109 9.81792 6.40318 9.91375 6.52943 10C7.37609 9.42125 8.49651 9.42125 9.34359 10C9.42401 9.945 9.49818 9.87833 9.57276 9.81292C9.56568 9.72 9.55484 9.62875 9.53776 9.53917C8.52734 9.35083 7.73151 8.555 7.54318 7.54458C7.39318 7.51625 7.23943 7.5 7.08193 7.5H4.16526C4.10818 7.5 4.05234 7.505 3.99609 7.50875C4.03443 7.5525 4.06401 7.60125 4.10609 7.64333L6.16859 9.70542Z" fill="#F44336"/>
<path d="M7.54297 7.54419C7.7313 8.55461 8.52714 9.35044 9.53755 9.53877C9.34922 8.52836 8.5538 7.73294 7.54297 7.54419Z" fill="#DD2C00"/>
<path d="M10.0005 6.53052C9.42172 7.3776 9.42172 8.49802 10.0005 9.34469C10.5792 8.49802 10.5792 7.3776 10.0005 6.53052Z" fill="#E65100"/>
<path d="M6.53125 9.99998C7.37833 10.5787 8.49875 10.5787 9.34542 9.99998C8.49875 9.42123 7.37833 9.42123 6.53125 9.99998Z" fill="#B71C1C"/>
<path d="M12.9171 12.4999C12.7592 12.4999 12.6058 12.4837 12.4567 12.4562C12.4842 12.6053 12.5004 12.7587 12.5004 12.9166V15.8333C12.5004 15.8903 12.4954 15.9462 12.4917 16.0024C13.4738 16.8566 14.9592 16.827 15.8933 15.8924C16.8271 14.9574 16.8571 13.4728 16.0033 12.4908C15.9467 12.4949 15.8908 12.4999 15.8338 12.4999H12.9171ZM10.1875 10.4253C10.2804 10.4328 10.3713 10.4441 10.4608 10.4603C10.4446 10.3708 10.4333 10.2791 10.4258 10.187C10.3829 10.2245 10.3354 10.2537 10.295 10.2945C10.2546 10.3353 10.225 10.3828 10.1875 10.4253Z" fill="#00ACC1"/>
<path d="M12.4992 12.9168C12.4992 12.7588 12.4829 12.6055 12.4554 12.4563C11.4446 12.2676 10.6488 11.4722 10.4608 10.4618C10.3713 10.4447 10.2792 10.4338 10.1871 10.4268C10.1217 10.5018 10.055 10.5751 10 10.6559C10.5792 11.5026 10.5792 12.6238 10 13.4701C10.0867 13.5972 10.1825 13.7188 10.2946 13.8309L12.3567 15.893C12.3992 15.9351 12.4475 15.9647 12.4913 16.0034C12.4942 15.9463 12.4992 15.8905 12.4992 15.8334V12.9168Z" fill="#0277BD"/>
<path d="M13.8299 10.2946C13.7174 10.1821 13.5958 10.0862 13.4695 10C12.6229 10.5788 11.5024 10.5788 10.6554 10C10.5754 10.055 10.5012 10.1217 10.4258 10.1871C10.4333 10.28 10.4445 10.3708 10.4608 10.4604C11.4716 10.6492 12.2674 11.4446 12.4554 12.455C12.6058 12.4838 12.7591 12.5 12.917 12.5H15.8337C15.8908 12.5 15.9466 12.495 16.0029 12.4913C15.9645 12.4479 15.9345 12.3987 15.8929 12.3571L13.8299 10.2946Z" fill="#00796B"/>
<path d="M12.4555 12.4563C12.2668 11.4454 11.4714 10.6496 10.4609 10.4617C10.6489 11.4713 11.4447 12.2671 12.4555 12.4563Z" fill="#006064"/>
<path d="M10.6562 9.99998C11.5033 10.5787 12.6238 10.5787 13.4704 9.99998C12.6242 9.42123 11.5033 9.42123 10.6562 9.99998Z" fill="#1B5E20"/>
<path d="M10.0005 13.4692C10.5792 12.6229 10.5792 11.5021 10.0005 10.655C9.42172 11.5021 9.42172 12.6229 10.0005 13.4692Z" fill="#0D47A1"/>
</svg>
