<svg width="20" height="20" viewBox="0 0 20 20" fill="none" xmlns="http://www.w3.org/2000/svg">
<rect width="20" height="20" rx="3" fill="#DCDBE0"/>
<path d="M0 0C6.66 0 13.33 0 20 0C20 6.66 20 13.33 20 20C13.34 20 6.67 20 0 20C0 13.34 0 6.67 0 0ZM18.6 10.03C18.65 5.34 14.77 1.47 10.1 1.42C5.31 1.37 1.38 5.29 1.4 10.04C1.42 14.86 5.2 18.67 10.01 18.67C14.67 18.67 18.58 15.02 18.6 10.03Z" fill="url(#paint0_linear_6415_249119)"/>
<path d="M18.5985 10.0299C18.5785 15.0199 14.6785 18.6799 10.0085 18.6699C5.19851 18.6699 1.41851 14.8499 1.39851 10.0399C1.37851 5.28991 5.30851 1.36991 10.0985 1.41991C14.7685 1.46991 18.6485 5.33991 18.5985 10.0299ZM3.27851 11.8599C3.40851 12.1899 3.40851 12.1899 3.07851 12.3799C2.90851 12.4799 2.72851 12.5699 2.55851 12.6699C2.56851 12.6999 2.57851 12.7299 2.59851 12.7599C2.84851 12.7099 3.08851 12.6499 3.33851 12.6199C3.42851 12.6099 3.55851 12.6699 3.60851 12.7399C3.69851 12.8499 3.67851 12.9899 3.53851 13.0799C3.37851 13.1799 3.21851 13.2899 3.06851 13.4099C3.01851 13.4399 2.99851 13.4999 2.96851 13.5499C3.24851 13.4999 3.48851 13.4099 3.72851 13.3399C3.78851 13.3199 3.89851 13.3499 3.93851 13.3999C4.06851 13.5499 4.11851 13.7099 3.90851 13.8499C3.76851 13.9399 3.64851 14.0599 3.52851 14.1699C3.47851 14.2199 3.44851 14.2799 3.40851 14.3399C3.65851 14.2799 3.85851 14.1799 4.06851 14.0799C4.19851 14.0199 4.31851 13.9999 4.43851 14.1499C4.54851 14.2899 4.50851 14.3899 4.40851 14.4999C4.25851 14.6699 4.11851 14.8399 3.96851 15.0099C3.98851 15.0299 3.99851 15.0499 4.01851 15.0799C4.26851 14.9299 4.52851 14.7799 4.77851 14.6299C5.10851 14.8999 5.10851 14.8999 4.89851 15.2199C4.80851 15.3699 4.70851 15.5099 4.60851 15.6499C4.62851 15.6699 4.65851 15.6899 4.67851 15.7199C4.82851 15.5999 4.99851 15.4899 5.13851 15.3499C5.28851 15.2099 5.39851 15.2299 5.54851 15.3399C5.71851 15.4599 5.65851 15.5699 5.57851 15.6999C5.47851 15.8899 5.37851 16.0799 5.26851 16.2699C5.28851 16.2899 5.30851 16.2999 5.33851 16.3199C5.51851 16.1399 5.68851 15.9599 5.87851 15.7999C5.92851 15.7599 6.05851 15.7499 6.12851 15.7799C6.38851 15.8899 6.30851 16.0799 6.22851 16.2799C6.15851 16.4599 6.09851 16.6399 6.02851 16.8199C6.04851 16.8299 6.07851 16.8299 6.09851 16.8399C6.22851 16.6699 6.35851 16.4999 6.47851 16.3199C6.59851 16.1499 6.72851 16.1199 6.91851 16.2399C7.10851 16.3599 7.02851 16.4899 6.99851 16.6299C6.94851 16.8299 6.88851 17.0199 6.83851 17.2099C6.85851 17.2199 6.87851 17.2299 6.89851 17.2399C7.00851 17.0699 7.13851 16.8999 7.23851 16.7099C7.38851 16.4499 7.49851 16.3999 7.70851 16.5999C7.78851 16.6799 7.76851 16.8899 7.76851 17.0399C7.76851 17.1899 7.72851 17.3399 7.69851 17.4999C7.71851 17.4999 7.74851 17.5099 7.76851 17.5099C7.87851 17.2999 7.96851 17.0799 8.08851 16.8699C8.12851 16.7999 8.25851 16.7099 8.29851 16.7299C8.41851 16.7799 8.60851 16.7599 8.58851 16.9999C8.56851 17.2399 8.58851 17.4699 8.58851 17.7099C8.60851 17.7099 8.63851 17.7199 8.65851 17.7199C8.72851 17.5199 8.83851 17.3199 8.86851 17.1099C8.89851 16.8699 9.04851 16.8899 9.20851 16.8899C9.39851 16.8899 9.44851 16.9999 9.44851 17.1699C9.44851 17.3899 9.44851 17.6099 9.44851 17.8299C9.47851 17.8299 9.50851 17.8399 9.53851 17.8399C9.56851 17.7299 9.60851 17.6199 9.62851 17.4999C9.65851 17.3699 9.67851 17.2399 9.70851 17.1099C9.73851 16.9599 9.82851 16.8899 9.99851 16.8999C10.1685 16.9099 10.2285 16.9999 10.2485 17.1499C10.2885 17.3599 10.3485 17.5699 10.3985 17.7699C10.4285 17.7699 10.4685 17.7699 10.4985 17.7699C10.5085 17.5699 10.5185 17.3799 10.5185 17.1799C10.5185 17.0099 10.5385 16.8799 10.7585 16.8799C10.9485 16.8799 11.0685 16.9099 11.1085 17.1399C11.1385 17.3499 11.2385 17.5399 11.2985 17.7499C11.3185 17.7399 11.3485 17.7399 11.3685 17.7299C11.3685 17.4799 11.3785 17.2399 11.3685 16.9899C11.3585 16.7599 11.5385 16.7599 11.6685 16.7299C11.7285 16.7099 11.8385 16.8099 11.8885 16.8799C11.9485 16.9499 11.9585 17.0499 11.9985 17.1299C12.0685 17.2599 12.1385 17.3799 12.2085 17.5099C12.2385 17.2499 12.2085 17.0099 12.1785 16.7799C12.1485 16.5999 12.2685 16.5399 12.3985 16.4999C12.5285 16.4499 12.6085 16.4999 12.6685 16.6299C12.7485 16.7899 12.8585 16.9399 12.9585 17.0899C12.9885 17.1399 13.0285 17.1799 13.0585 17.2199C13.0985 17.1599 13.0885 17.1299 13.0885 17.0999C13.0385 16.8799 12.9785 16.6699 12.9385 16.4499C12.8985 16.2499 13.0785 16.2199 13.1985 16.1699C13.2585 16.1499 13.3785 16.2199 13.4285 16.2799C13.5885 16.4599 13.7385 16.6499 13.8985 16.8399C13.9185 16.8299 13.9385 16.8199 13.9585 16.8099C13.8685 16.5899 13.7985 16.3499 13.6785 16.1499C13.5685 15.9599 13.6785 15.8999 13.7785 15.7999C13.8985 15.6999 14.0085 15.6699 14.1185 15.8099C14.2685 15.9999 14.4385 16.1799 14.5885 16.3699C14.6185 16.3399 14.6585 16.3199 14.6885 16.2899C14.5885 16.1099 14.4885 15.9299 14.3885 15.7399C14.3285 15.6099 14.2185 15.4799 14.4085 15.3399C14.5785 15.2099 14.6885 15.2599 14.8185 15.3699C14.9885 15.5099 15.1585 15.6299 15.3185 15.7699C15.3385 15.7499 15.3585 15.7299 15.3785 15.7099C15.2485 15.5199 15.1185 15.3199 14.9785 15.1299C14.8585 14.9799 14.9285 14.8799 15.0285 14.7599C15.1385 14.6199 15.2485 14.6599 15.3685 14.7399C15.5685 14.8699 15.7685 14.9999 15.9685 15.1199C15.9885 15.0999 15.9985 15.0799 16.0185 15.0599C15.9885 15.0199 15.9685 14.9699 15.9285 14.9299C15.7985 14.7799 15.6685 14.6299 15.5285 14.4899C15.4185 14.3799 15.4085 14.2499 15.5185 14.1699C15.5985 14.0999 15.7285 14.0599 15.8285 14.0699C15.9485 14.0799 16.0485 14.1799 16.1585 14.2299C16.2785 14.2799 16.3985 14.3299 16.5185 14.3799C16.5285 14.3599 16.5385 14.3399 16.5485 14.3199C16.3785 14.1599 16.1885 14.0099 16.0285 13.8399C15.9685 13.7699 15.8985 13.6299 15.9285 13.5599C15.9785 13.4299 16.0585 13.2999 16.2685 13.3799C16.4885 13.4699 16.7285 13.5299 16.9585 13.5999C16.9685 13.5799 16.9785 13.5599 16.9985 13.5499C16.9485 13.4999 16.9085 13.4499 16.8585 13.4099C16.7185 13.3099 16.5785 13.2099 16.4285 13.1199C16.2885 13.0299 16.2485 12.8999 16.3385 12.7799C16.3885 12.6999 16.5085 12.6499 16.6085 12.6399C16.7085 12.6299 16.8185 12.6899 16.9185 12.6999C17.0685 12.7199 17.2085 12.7299 17.3585 12.7499C17.3585 12.7299 17.3685 12.6999 17.3685 12.6799C17.1585 12.5599 16.9585 12.4399 16.7485 12.3299C16.6385 12.2699 16.5285 12.2299 16.5785 12.0799C16.6285 11.9399 16.6885 11.8099 16.8885 11.8399C17.0685 11.8699 17.2585 11.8599 17.4385 11.8699C17.4985 11.8699 17.5685 11.8599 17.6385 11.8499C17.6385 11.8299 17.6385 11.8099 17.6485 11.7899C17.4185 11.7099 17.1885 11.6199 16.9685 11.5399C16.7585 11.4599 16.7085 11.2599 16.8685 11.1099C16.9385 11.0499 17.0585 11.0199 17.1585 11.0099C17.3685 10.9999 17.5885 11.0099 17.7985 11.0099C17.7985 10.9799 17.7985 10.9499 17.7985 10.9099C17.5485 10.8299 17.2985 10.7299 17.0485 10.6699C16.8785 10.6299 16.8885 10.5399 16.8985 10.4199C16.8985 10.2799 16.9585 10.2199 17.1085 10.1999C17.3585 10.1699 17.6085 10.1199 17.8585 10.0799C17.8585 10.0499 17.8585 10.0099 17.8685 9.97991C17.6385 9.94991 17.3985 9.90991 17.1685 9.87991C16.9985 9.85991 16.9185 9.77991 16.9085 9.60991C16.8985 9.42991 16.9985 9.37991 17.1385 9.33991C17.2985 9.29991 17.4585 9.26991 17.6185 9.21991C17.6785 9.19991 17.7285 9.14991 17.7785 9.10991C17.7185 9.07991 17.6585 9.01991 17.5985 9.01991C17.4085 8.99991 17.2085 9.02991 17.0285 8.98991C16.9485 8.96991 16.8385 8.85991 16.8185 8.77991C16.7985 8.71991 16.8885 8.58991 16.9585 8.54991C17.1485 8.45991 17.3585 8.39991 17.5585 8.31991C17.6085 8.29991 17.6485 8.23991 17.6885 8.18991C17.6785 8.16991 17.6685 8.13991 17.6585 8.11991C17.3485 8.15991 17.0285 8.18991 16.7285 8.22991C16.6785 8.06991 16.6385 7.95991 16.5985 7.82991C16.7585 7.73991 16.9085 7.66991 17.0485 7.56991C17.1785 7.47991 17.4085 7.49991 17.4285 7.24991C17.3685 7.23991 17.3385 7.22991 17.3085 7.23991C17.0985 7.28991 16.8785 7.35991 16.6685 7.39991C16.5885 7.40991 16.4685 7.37991 16.4185 7.31991C16.3185 7.18991 16.3085 7.04991 16.4785 6.93991C16.6885 6.80991 16.8885 6.65991 17.0885 6.52991C17.0785 6.50991 17.0685 6.47991 17.0585 6.45991C16.9785 6.45991 16.8885 6.44991 16.8085 6.47991C16.6485 6.52991 16.4985 6.58991 16.3485 6.64991C16.2285 6.69991 16.1185 6.72991 16.0285 6.57991C15.9485 6.43991 15.9185 6.33991 16.0785 6.22991C16.2285 6.11991 16.3685 5.98991 16.4985 5.84991C16.5485 5.79991 16.5685 5.71991 16.5985 5.65991C16.2985 5.73991 16.0685 5.84991 15.8285 5.95991C15.7785 5.97991 15.6885 5.96991 15.6385 5.93991C15.4885 5.81991 15.4285 5.67991 15.6085 5.51991C15.7985 5.35991 15.9585 5.17991 16.1185 4.99991C16.0985 4.97991 16.0885 4.95991 16.0685 4.93991C15.7285 4.95991 15.5185 5.27991 15.1985 5.38991C15.1185 5.29991 15.0285 5.20991 14.9385 5.10991C15.1285 4.84991 15.3085 4.58991 15.4885 4.32991C15.3885 4.29991 15.2985 4.30991 15.2485 4.34991C15.0985 4.45991 14.9485 4.57991 14.8085 4.69991C14.6985 4.79991 14.5685 4.80991 14.4785 4.68991C14.4285 4.60991 14.3985 4.47991 14.4285 4.38991C14.4885 4.21991 14.6085 4.07991 14.6885 3.91991C14.7285 3.84991 14.7185 3.74991 14.7385 3.66991C14.7085 3.64991 14.6785 3.63991 14.6485 3.61991C14.4685 3.81991 14.2885 4.01991 14.0985 4.19991C14.0485 4.23991 13.9185 4.24991 13.8585 4.21991C13.6785 4.13991 13.7285 3.97991 13.7785 3.82991C13.8585 3.62991 13.9485 3.42991 14.0285 3.22991C14.0185 3.20991 13.9985 3.18991 13.9885 3.17991C13.9285 3.20991 13.8585 3.21991 13.8185 3.26991C13.6785 3.41991 13.5685 3.59991 13.4185 3.73991C13.3585 3.79991 13.2185 3.82991 13.1285 3.80991C12.9785 3.76991 12.9485 3.65991 13.0085 3.49991C13.0985 3.26991 13.1485 3.01991 13.2085 2.77991C13.1685 2.75991 13.1285 2.74991 13.0785 2.72991C12.9685 2.91991 12.8385 3.09991 12.7385 3.29991C12.6485 3.45991 12.5585 3.57991 12.3585 3.49991C12.1685 3.41991 12.1985 3.27991 12.2385 3.10991C12.2885 2.89991 12.2885 2.66991 12.3085 2.44991C12.2785 2.43991 12.2485 2.43991 12.2085 2.42991C12.0885 2.67991 11.9585 2.91991 11.8585 3.16991C11.7985 3.30991 11.7185 3.30991 11.6085 3.26991C11.4685 3.21991 11.4185 3.13991 11.4285 2.98991C11.4385 2.72991 11.4285 2.46991 11.4285 2.21991C11.3885 2.20991 11.3585 2.20991 11.3185 2.19991C11.2385 2.42991 11.1685 2.66991 11.0785 2.89991C11.0485 2.97991 10.9585 3.06991 10.8785 3.08991C10.7685 3.11991 10.6185 3.11991 10.6085 2.92991C10.5985 2.79991 10.5585 2.66991 10.5485 2.53991C10.5285 2.39991 10.5285 2.24991 10.5185 2.10991C10.4885 2.09991 10.4585 2.09991 10.4285 2.08991C10.3885 2.18991 10.3485 2.27991 10.3185 2.37991C10.2685 2.55991 10.2485 2.75991 10.1885 2.93991C10.1685 2.99991 10.0385 3.05991 9.96851 3.05991C9.90851 3.05991 9.79851 2.98991 9.77851 2.92991C9.73851 2.69991 9.70851 2.47991 9.65851 2.25991C9.64851 2.19991 9.57851 2.15991 9.53851 2.10991C9.50851 2.15991 9.45851 2.20991 9.45851 2.25991C9.43851 2.43991 9.43851 2.62991 9.44851 2.80991C9.45851 2.97991 9.39851 3.06991 9.20851 3.08991C9.02851 3.10991 8.94851 3.00991 8.90851 2.85991C8.86851 2.68991 8.83851 2.51991 8.77851 2.35991C8.75851 2.29991 8.67851 2.24991 8.62851 2.18991C8.57851 2.47991 8.55851 2.73991 8.57851 2.98991C8.59851 3.16991 8.48851 3.23991 8.35851 3.24991C8.28851 3.25991 8.18851 3.15991 8.13851 3.08991C8.07851 3.01991 8.05851 2.90991 8.00851 2.81991C7.93851 2.67991 7.85851 2.54991 7.77851 2.40991C7.74851 2.41991 7.72851 2.42991 7.69851 2.43991C7.69851 2.53991 7.68851 2.62991 7.69851 2.72991C7.72851 2.89991 7.78851 3.07991 7.78851 3.25991C7.78851 3.33991 7.67851 3.44991 7.58851 3.47991C7.52851 3.49991 7.39851 3.43991 7.35851 3.37991C7.23851 3.21991 7.14851 3.02991 7.03851 2.85991C6.99851 2.79991 6.91851 2.76991 6.86851 2.72991C6.82851 2.82991 6.81851 2.88991 6.83851 2.93991C6.89851 3.12991 6.95851 3.31991 7.01851 3.50991C7.07851 3.67991 6.97851 3.74991 6.84851 3.81991C6.71851 3.87991 6.64851 3.83991 6.56851 3.71991C6.43851 3.49991 6.26851 3.31991 6.10851 3.12991C6.08851 3.13991 6.05851 3.14991 6.03851 3.15991C6.05851 3.25991 6.05851 3.35991 6.08851 3.45991C6.13851 3.60991 6.18851 3.75991 6.26851 3.89991C6.36851 4.07991 6.24851 4.17991 6.12851 4.22991C6.05851 4.25991 5.92851 4.20991 5.86851 4.14991C5.67851 3.97991 5.50851 3.79991 5.32851 3.61991C5.30851 3.62991 5.28851 3.63991 5.25851 3.65991C5.26851 3.72991 5.26851 3.79991 5.29851 3.85991C5.37851 4.00991 5.46851 4.15991 5.54851 4.30991C5.61851 4.43991 5.65851 4.56991 5.50851 4.68991C5.38851 4.78991 5.27851 4.73991 5.16851 4.64991C5.05851 4.54991 4.93851 4.43991 4.81851 4.34991C4.74851 4.29991 4.64851 4.28991 4.55851 4.25991C4.65851 4.49991 4.77851 4.65991 4.89851 4.82991C5.10851 5.11991 5.09851 5.15991 4.76851 5.34991C4.50851 5.18991 4.25851 5.02991 3.99851 4.87991C3.97851 4.88991 3.95851 4.90991 3.93851 4.91991C3.96851 4.98991 3.98851 5.06991 4.02851 5.12991C4.14851 5.27991 4.26851 5.41991 4.40851 5.54991C4.51851 5.65991 4.51851 5.73991 4.41851 5.85991C4.29851 6.00991 4.18851 5.95991 4.06851 5.89991C3.84851 5.80991 3.64851 5.69991 3.43851 5.59991C3.41851 5.61991 3.39851 5.63991 3.37851 5.65991C3.41851 5.72991 3.44851 5.80991 3.50851 5.85991C3.65851 5.99991 3.81851 6.12991 3.97851 6.25991C4.16851 6.40991 3.95851 6.49991 3.92851 6.61991C3.91851 6.64991 3.78851 6.66991 3.72851 6.64991C3.47851 6.57991 3.23851 6.48991 2.98851 6.40991C2.97851 6.42991 2.95851 6.44991 2.94851 6.46991C2.98851 6.51991 3.01851 6.58991 3.06851 6.62991C3.20851 6.72991 3.34851 6.82991 3.48851 6.92991C3.61851 7.01991 3.68851 7.11991 3.59851 7.27991C3.52851 7.41991 3.43851 7.41991 3.29851 7.37991C3.05851 7.31991 2.80851 7.28991 2.56851 7.23991C2.55851 7.26991 2.54851 7.30991 2.53851 7.33991C2.82851 7.50991 3.11851 7.67991 3.40851 7.84991C3.37851 7.90991 3.35851 7.92991 3.34851 7.95991C3.30851 8.20991 3.17851 8.24991 2.94851 8.17991C2.74851 8.11991 2.52851 8.14991 2.31851 8.13991C2.31851 8.16991 2.30851 8.18991 2.29851 8.21991C2.36851 8.25991 2.43851 8.30991 2.51851 8.33991C2.66851 8.39991 2.81851 8.45991 2.97851 8.50991C3.10851 8.55991 3.22851 8.60991 3.16851 8.78991C3.12851 8.95991 3.03851 9.01991 2.86851 9.01991C2.63851 9.00991 2.39851 9.01991 2.15851 9.01991C2.15851 9.04991 2.14851 9.06991 2.14851 9.09991C2.19851 9.12991 2.23851 9.18991 2.28851 9.19991C2.47851 9.25991 2.67851 9.27991 2.85851 9.34991C2.93851 9.37991 3.04851 9.47991 3.04851 9.54991C3.04851 9.63991 2.97851 9.77991 2.90851 9.80991C2.71851 9.86991 2.49851 9.86991 2.29851 9.90991C2.22851 9.91991 2.16851 9.97991 2.09851 10.0099C2.38851 10.1099 2.64851 10.1399 2.88851 10.1999C2.95851 10.2199 3.04851 10.3299 3.05851 10.4099C3.06851 10.4799 3.00851 10.6099 2.94851 10.6399C2.78851 10.7099 2.61851 10.7199 2.44851 10.7699C2.34851 10.7999 2.24851 10.8499 2.15851 10.8999C2.16851 10.9299 2.16851 10.9599 2.17851 10.9899C2.41851 10.9899 2.65851 10.9699 2.88851 10.9999C2.98851 11.0099 3.10851 11.0799 3.15851 11.1599C3.25851 11.3199 3.16851 11.4499 2.93851 11.5399C2.72851 11.6199 2.52851 11.6999 2.31851 11.7799C2.36851 11.8499 2.38851 11.8699 2.41851 11.8699C2.69851 11.8599 2.96851 11.8599 3.27851 11.8599Z" fill="#2F2F31"/>
<path d="M3.27984 11.8601C2.96984 11.8601 2.69984 11.8601 2.42984 11.8601C2.39984 11.8601 2.36984 11.8401 2.32984 11.7701C2.53984 11.6901 2.73984 11.6101 2.94984 11.5301C3.17984 11.4401 3.26984 11.3201 3.16984 11.1501C3.10984 11.0801 2.97984 11.0101 2.88984 11.0001C2.64984 10.9801 2.40984 11.0001 2.16984 11.0001C2.15984 10.9701 2.15984 10.9401 2.14984 10.9101C2.24984 10.8701 2.33984 10.8101 2.43984 10.7801C2.60984 10.7301 2.77984 10.7101 2.93984 10.6501C2.99984 10.6201 3.05984 10.4901 3.04984 10.4201C3.03984 10.3401 2.94984 10.2301 2.87984 10.2101C2.62984 10.1501 2.37984 10.1201 2.08984 10.0201C2.15984 9.98008 2.21984 9.93008 2.28984 9.92008C2.48984 9.88008 2.70984 9.88008 2.89984 9.82008C2.96984 9.80008 3.04984 9.65008 3.03984 9.56008C3.03984 9.49008 2.92984 9.39008 2.84984 9.36008C2.67984 9.29008 2.47984 9.26008 2.28984 9.20008C2.23984 9.19008 2.19984 9.13008 2.14984 9.09008C2.14984 9.06008 2.15984 9.04008 2.15984 9.01008C2.39984 9.01008 2.62984 9.00008 2.86984 9.01008C3.03984 9.02008 3.12984 8.96008 3.17984 8.80008C3.22984 8.62008 3.11984 8.57008 2.98984 8.52008C2.82984 8.46008 2.66984 8.41008 2.51984 8.34008C2.44984 8.31008 2.37984 8.26008 2.29984 8.22008C2.30984 8.19008 2.30984 8.16008 2.31984 8.14008C2.52984 8.15008 2.74984 8.12008 2.93984 8.18008C3.17984 8.25008 3.29984 8.21008 3.34984 7.97008C3.35984 7.94008 3.37984 7.91008 3.40984 7.85008C3.11984 7.68008 2.82984 7.51008 2.53984 7.34008C2.54984 7.31008 2.55984 7.27008 2.56984 7.24008C2.80984 7.29008 3.05984 7.32008 3.29984 7.38008C3.43984 7.42008 3.53984 7.42008 3.60984 7.28008C3.69984 7.12008 3.62984 7.01008 3.49984 6.93008C3.35984 6.83008 3.20984 6.74008 3.07984 6.63008C3.01984 6.59008 2.98984 6.53008 2.94984 6.47008C2.96984 6.45008 2.97984 6.43008 2.99984 6.41008C3.24984 6.49008 3.48984 6.58008 3.73984 6.65008C3.79984 6.67008 3.92984 6.64008 3.93984 6.62008C3.95984 6.50008 4.16984 6.41008 3.97984 6.26008C3.81984 6.13008 3.65984 6.00008 3.50984 5.86008C3.44984 5.80008 3.41984 5.73008 3.37984 5.66008C3.39984 5.64008 3.41984 5.62008 3.43984 5.60008C3.64984 5.70008 3.84984 5.81008 4.06984 5.90008C4.18984 5.95008 4.30984 6.00008 4.41984 5.86008C4.51984 5.74008 4.52984 5.66008 4.40984 5.55008C4.27984 5.42008 4.14984 5.27008 4.02984 5.13008C3.98984 5.07008 3.96984 4.99008 3.93984 4.92008C3.95984 4.91008 3.97984 4.89008 3.99984 4.88008C4.25984 5.04008 4.50984 5.20008 4.76984 5.36008C5.09984 5.16008 5.10984 5.12008 4.89984 4.83008C4.77984 4.66008 4.65984 4.50008 4.55984 4.26008C4.64984 4.29008 4.74984 4.30008 4.81984 4.35008C4.94984 4.44008 5.05984 4.55008 5.16984 4.65008C5.27984 4.75008 5.38984 4.80008 5.51984 4.69008C5.66984 4.57008 5.62984 4.44008 5.55984 4.31008C5.47984 4.16008 5.37984 4.01008 5.30984 3.86008C5.27984 3.80008 5.27984 3.72008 5.25984 3.66008C5.27984 3.65008 5.29984 3.63008 5.31984 3.62008C5.50984 3.80008 5.67984 3.98008 5.86984 4.15008C5.92984 4.21008 6.05984 4.26008 6.12984 4.23008C6.24984 4.18008 6.36984 4.09008 6.26984 3.90008C6.18984 3.76008 6.13984 3.60008 6.08984 3.45008C6.05984 3.36008 6.05984 3.25008 6.03984 3.15008C6.05984 3.14008 6.08984 3.13008 6.10984 3.12008C6.26984 3.32008 6.43984 3.50008 6.57984 3.71008C6.65984 3.83008 6.72984 3.88008 6.85984 3.81008C6.98984 3.75008 7.08984 3.67008 7.02984 3.50008C6.95984 3.32008 6.89984 3.13008 6.83984 2.94008C6.81984 2.89008 6.81984 2.83008 6.86984 2.73008C6.91984 2.77008 6.99984 2.80008 7.03984 2.86008C7.14984 3.03008 7.23984 3.22008 7.35984 3.38008C7.40984 3.44008 7.53984 3.50008 7.58984 3.48008C7.67984 3.44008 7.78984 3.34008 7.78984 3.26008C7.78984 3.08008 7.72984 2.90008 7.70984 2.73008C7.69984 2.64008 7.70984 2.54008 7.70984 2.44008C7.72984 2.43008 7.75984 2.42008 7.77984 2.41008C7.85984 2.55008 7.93984 2.69008 8.01984 2.83008C8.06984 2.92008 8.08984 3.02008 8.13984 3.10008C8.18984 3.17008 8.28984 3.27008 8.35984 3.26008C8.48984 3.24008 8.59984 3.17008 8.57984 2.99008C8.55984 2.74008 8.56984 2.48008 8.62984 2.19008C8.67984 2.25008 8.75984 2.30008 8.77984 2.36008C8.83984 2.52008 8.86984 2.69008 8.90984 2.86008C8.94984 3.01008 9.01984 3.11008 9.20984 3.09008C9.38984 3.07008 9.44984 2.98008 9.44984 2.81008C9.43984 2.63008 9.44984 2.44008 9.45984 2.26008C9.45984 2.21008 9.51984 2.16008 9.53984 2.11008C9.57984 2.16008 9.63984 2.20008 9.65984 2.26008C9.70984 2.48008 9.73984 2.70008 9.79984 2.92008C9.81984 2.98008 9.91984 3.05008 9.98984 3.05008C10.0698 3.05008 10.1898 2.99008 10.2098 2.93008C10.2798 2.75008 10.2998 2.56008 10.3398 2.37008C10.3698 2.27008 10.4098 2.17008 10.4498 2.08008C10.4798 2.09008 10.5098 2.09008 10.5398 2.10008C10.5498 2.24008 10.5498 2.39008 10.5698 2.53008C10.5798 2.66008 10.6198 2.79008 10.6298 2.92008C10.6398 3.11008 10.7898 3.11008 10.8998 3.08008C10.9798 3.06008 11.0698 2.97008 11.0998 2.89008C11.1898 2.66008 11.2598 2.43008 11.3398 2.19008C11.3798 2.20008 11.4098 2.20008 11.4498 2.21008C11.4498 2.47008 11.4598 2.73008 11.4498 2.98008C11.4398 3.13008 11.4998 3.21008 11.6298 3.26008C11.7498 3.30008 11.8198 3.30008 11.8798 3.16008C11.9798 2.91008 12.1098 2.66008 12.2298 2.42008C12.2598 2.43008 12.2898 2.43008 12.3298 2.44008C12.3098 2.66008 12.3098 2.89008 12.2598 3.10008C12.2198 3.27008 12.1798 3.41008 12.3798 3.49008C12.5798 3.57008 12.6798 3.46008 12.7598 3.29008C12.8598 3.09008 12.9798 2.91008 13.0998 2.72008C13.1398 2.74008 13.1798 2.75008 13.2298 2.77008C13.1598 3.01008 13.1198 3.26008 13.0298 3.49008C12.9698 3.65008 12.9998 3.76008 13.1498 3.80008C13.2398 3.82008 13.3798 3.79008 13.4398 3.73008C13.5898 3.59008 13.6998 3.41008 13.8398 3.26008C13.8798 3.22008 13.9498 3.20008 14.0098 3.17008C14.0198 3.19008 14.0398 3.21008 14.0498 3.22008C13.9698 3.42008 13.8798 3.62008 13.7998 3.82008C13.7498 3.96008 13.6998 4.12008 13.8798 4.21008C13.9498 4.24008 14.0798 4.24008 14.1198 4.19008C14.3098 4.01008 14.4898 3.80008 14.6698 3.61008C14.6998 3.63008 14.7298 3.64008 14.7598 3.66008C14.7498 3.75008 14.7498 3.84008 14.7098 3.91008C14.6298 4.07008 14.5098 4.21008 14.4498 4.38008C14.4198 4.46008 14.4498 4.60008 14.4998 4.68008C14.5798 4.80008 14.7098 4.78008 14.8298 4.69008C14.9698 4.57008 15.1198 4.45008 15.2698 4.34008C15.3298 4.30008 15.4098 4.30008 15.5098 4.32008C15.3298 4.58008 15.1498 4.83008 14.9598 5.10008C15.0498 5.20008 15.1298 5.29008 15.2198 5.38008C15.5298 5.27008 15.7398 4.96008 16.0898 4.93008C16.0898 4.96008 16.0998 4.98008 16.1198 5.00008C15.9598 5.17008 15.7998 5.36008 15.6298 5.52008C15.4498 5.68008 15.4998 5.82008 15.6598 5.94008C15.6998 5.97008 15.7998 5.99008 15.8498 5.96008C16.0898 5.86008 16.3298 5.74008 16.6198 5.66008C16.5898 5.72008 16.5698 5.80008 16.5198 5.85008C16.3898 5.98008 16.2598 6.12008 16.0998 6.23008C15.9398 6.34008 15.9698 6.44008 16.0498 6.58008C16.1398 6.73008 16.2398 6.70008 16.3698 6.65008C16.5198 6.59008 16.6698 6.53008 16.8298 6.48008C16.9098 6.46008 16.9998 6.47008 17.0798 6.46008C17.0898 6.48008 17.0998 6.51008 17.1098 6.53008C16.9098 6.67008 16.6998 6.81008 16.4998 6.94008C16.3298 7.05008 16.3398 7.19008 16.4398 7.32008C16.4898 7.38008 16.6098 7.41008 16.6898 7.40008C16.9098 7.36008 17.1198 7.29008 17.3298 7.24008C17.3598 7.23008 17.3898 7.25008 17.4498 7.25008C17.4298 7.50008 17.1998 7.48008 17.0698 7.57008C16.9298 7.66008 16.7698 7.74008 16.6198 7.83008C16.6598 7.95008 16.6998 8.07008 16.7498 8.23008C17.0498 8.19008 17.3698 8.16008 17.6798 8.12008C17.6898 8.14008 17.6998 8.17008 17.7098 8.19008C17.6698 8.23008 17.6298 8.30008 17.5798 8.32008C17.3798 8.40008 17.1698 8.45008 16.9798 8.55008C16.9098 8.59008 16.8198 8.72008 16.8398 8.78008C16.8598 8.87008 16.9698 8.98008 17.0498 8.99008C17.2398 9.03008 17.4298 9.00008 17.6198 9.02008C17.6798 9.03008 17.7398 9.08008 17.7998 9.11008C17.7498 9.15008 17.6998 9.20008 17.6398 9.22008C17.4798 9.27008 17.3198 9.30008 17.1598 9.34008C17.0198 9.37008 16.9198 9.43008 16.9298 9.61008C16.9398 9.78008 17.0198 9.86008 17.1898 9.88008C17.4298 9.90008 17.6598 9.94008 17.8898 9.98008C17.8898 10.0101 17.8898 10.0501 17.8798 10.0801C17.6298 10.1201 17.3798 10.1701 17.1298 10.2001C16.9798 10.2201 16.9198 10.2801 16.9198 10.4201C16.9198 10.5401 16.8998 10.6401 17.0698 10.6701C17.3198 10.7301 17.5698 10.8201 17.8198 10.9101C17.8198 10.9401 17.8198 10.9701 17.8198 11.0101C17.6098 11.0101 17.3898 11.0001 17.1798 11.0101C17.0798 11.0201 16.9598 11.0401 16.8898 11.1101C16.7298 11.2601 16.7798 11.4601 16.9898 11.5401C17.2198 11.6301 17.4498 11.7101 17.6698 11.7901C17.6698 11.8101 17.6698 11.8301 17.6598 11.8501C17.5898 11.8601 17.5298 11.8701 17.4598 11.8701C17.2798 11.8701 17.0898 11.8701 16.9098 11.8401C16.7098 11.8101 16.6498 11.9401 16.5998 12.0801C16.5498 12.2301 16.6598 12.2701 16.7698 12.3301C16.9798 12.4301 17.1898 12.5601 17.3898 12.6801C17.3898 12.7001 17.3798 12.7301 17.3798 12.7501C17.2298 12.7401 17.0898 12.7301 16.9398 12.7001C16.8298 12.6801 16.7298 12.6201 16.6298 12.6401C16.5298 12.6501 16.4098 12.7001 16.3598 12.7801C16.2798 12.9001 16.3098 13.0301 16.4498 13.1201C16.5998 13.2101 16.7398 13.3101 16.8798 13.4101C16.9298 13.4501 16.9698 13.5001 17.0198 13.5501C17.0098 13.5701 16.9998 13.5901 16.9798 13.6001C16.7498 13.5301 16.5098 13.4701 16.2898 13.3801C16.0798 13.3001 15.9998 13.4301 15.9498 13.5601C15.9198 13.6301 15.9898 13.7701 16.0498 13.8401C16.2098 14.0101 16.3898 14.1601 16.5698 14.3201C16.5598 14.3401 16.5498 14.3601 16.5398 14.3801C16.4198 14.3301 16.2998 14.2901 16.1798 14.2301C16.0698 14.1801 15.9598 14.0901 15.8498 14.0701C15.7498 14.0601 15.6198 14.1001 15.5398 14.1701C15.4298 14.2601 15.4398 14.3801 15.5498 14.4901C15.6898 14.6301 15.8198 14.7801 15.9498 14.9301C15.9798 14.9701 16.0098 15.0101 16.0398 15.0601C16.0198 15.0801 16.0098 15.1001 15.9898 15.1201C15.7898 14.9901 15.5798 14.8701 15.3898 14.7401C15.2698 14.6601 15.1598 14.6201 15.0498 14.7601C14.9498 14.8801 14.8898 14.9801 14.9998 15.1301C15.1398 15.3201 15.2698 15.5101 15.3998 15.7101C15.3798 15.7301 15.3598 15.7501 15.3398 15.7701C15.1698 15.6401 14.9998 15.5101 14.8398 15.3701C14.7098 15.2601 14.5998 15.2101 14.4298 15.3401C14.2398 15.4901 14.3398 15.6101 14.4098 15.7401C14.4998 15.9301 14.6098 16.1101 14.7098 16.2901C14.6798 16.3201 14.6398 16.3401 14.6098 16.3701C14.4498 16.1801 14.2898 16.0001 14.1398 15.8101C14.0298 15.6701 13.9198 15.7001 13.7998 15.8001C13.6898 15.8901 13.5798 15.9601 13.6998 16.1501C13.8198 16.3501 13.8898 16.5901 13.9798 16.8101C13.9598 16.8201 13.9398 16.8301 13.9198 16.8401C13.7698 16.6501 13.6198 16.4601 13.4498 16.2801C13.3898 16.2201 13.2698 16.1501 13.2198 16.1701C13.0998 16.2101 12.9198 16.2401 12.9598 16.4501C13.0098 16.6701 13.0598 16.8901 13.1098 17.1001C13.1198 17.1301 13.1198 17.1601 13.0798 17.2201C13.0498 17.1801 13.0098 17.1401 12.9798 17.0901C12.8798 16.9401 12.7598 16.7901 12.6898 16.6301C12.6298 16.5001 12.5498 16.4501 12.4198 16.5001C12.2898 16.5501 12.1798 16.6101 12.1998 16.7801C12.2398 17.0101 12.2598 17.2501 12.2298 17.5101C12.1598 17.3901 12.0798 17.2601 12.0198 17.1301C11.9798 17.0501 11.9598 16.9501 11.9098 16.8801C11.8498 16.8101 11.7398 16.7101 11.6898 16.7301C11.5698 16.7601 11.3798 16.7601 11.3898 16.9901C11.4098 17.2301 11.3898 17.4801 11.3898 17.7301C11.3698 17.7401 11.3398 17.7401 11.3198 17.7501C11.2498 17.5501 11.1598 17.3501 11.1298 17.1401C11.0998 16.9101 10.9698 16.8801 10.7798 16.8801C10.5598 16.8801 10.5398 17.0101 10.5398 17.1801C10.5398 17.3801 10.5198 17.5701 10.5198 17.7701C10.4898 17.7701 10.4498 17.7701 10.4198 17.7701C10.3698 17.5601 10.2998 17.3601 10.2698 17.1501C10.2398 17.0001 10.1798 16.9101 10.0198 16.9001C9.84984 16.8901 9.76984 16.9601 9.72984 17.1101C9.69984 17.2401 9.67984 17.3701 9.64984 17.5001C9.61984 17.6101 9.58984 17.7201 9.55984 17.8401C9.52984 17.8401 9.49984 17.8301 9.46984 17.8301C9.46984 17.6101 9.46984 17.3901 9.46984 17.1701C9.46984 17.0101 9.41984 16.8901 9.22984 16.8901C9.06984 16.8901 8.91984 16.8601 8.88984 17.1101C8.85984 17.3201 8.74984 17.5201 8.67984 17.7201C8.65984 17.7201 8.62984 17.7101 8.60984 17.7101C8.60984 17.4701 8.58984 17.2301 8.60984 17.0001C8.62984 16.7701 8.43984 16.7801 8.31984 16.7301C8.26984 16.7101 8.14984 16.8001 8.10984 16.8701C7.98984 17.0701 7.88984 17.2901 7.78984 17.5101C7.76984 17.5101 7.73984 17.5001 7.71984 17.5001C7.73984 17.3501 7.78984 17.2001 7.78984 17.0401C7.78984 16.8901 7.81984 16.6801 7.72984 16.6001C7.51984 16.4001 7.39984 16.4501 7.25984 16.7101C7.15984 16.8901 7.03984 17.0601 6.91984 17.2401C6.89984 17.2301 6.87984 17.2201 6.85984 17.2101C6.91984 17.0201 6.97984 16.8201 7.01984 16.6301C7.04984 16.4901 7.13984 16.3601 6.93984 16.2401C6.74984 16.1201 6.61984 16.1501 6.49984 16.3201C6.37984 16.4901 6.24984 16.6601 6.11984 16.8401C6.09984 16.8301 6.06984 16.8301 6.04984 16.8201C6.10984 16.6401 6.16984 16.4601 6.24984 16.2801C6.32984 16.0901 6.40984 15.9001 6.14984 15.7801C6.07984 15.7501 5.95984 15.7501 5.89984 15.8001C5.70984 15.9601 5.53984 16.1401 5.35984 16.3201C5.33984 16.3001 5.31984 16.2901 5.28984 16.2701C5.38984 16.0801 5.48984 15.8901 5.59984 15.7001C5.66984 15.5701 5.72984 15.4601 5.56984 15.3401C5.41984 15.2301 5.29984 15.2101 5.15984 15.3501C5.01984 15.4901 4.84984 15.6001 4.69984 15.7201C4.67984 15.7001 4.64984 15.6801 4.62984 15.6501C4.72984 15.5101 4.81984 15.3601 4.91984 15.2201C5.12984 14.9001 5.12984 14.9001 4.79984 14.6301C4.54984 14.7801 4.28984 14.9301 4.03984 15.0801C3.99984 15.0601 3.98984 15.0401 3.96984 15.0101C4.11984 14.8401 4.25984 14.6701 4.40984 14.5001C4.49984 14.3901 4.54984 14.3001 4.43984 14.1501C4.31984 14.0001 4.19984 14.0201 4.06984 14.0801C3.85984 14.1701 3.65984 14.2801 3.40984 14.3401C3.44984 14.2801 3.47984 14.2101 3.52984 14.1701C3.64984 14.0601 3.76984 13.9401 3.90984 13.8501C4.11984 13.7101 4.06984 13.5501 3.93984 13.4001C3.89984 13.3501 3.78984 13.3201 3.72984 13.3401C3.48984 13.4101 3.24984 13.5001 2.96984 13.5501C2.99984 13.5001 3.01984 13.4401 3.06984 13.4101C3.21984 13.3001 3.37984 13.1901 3.53984 13.0801C3.67984 12.9901 3.69984 12.8501 3.60984 12.7401C3.55984 12.6701 3.41984 12.6101 3.33984 12.6201C3.08984 12.6501 2.84984 12.7101 2.59984 12.7601C2.58984 12.7301 2.57984 12.7001 2.55984 12.6701C2.72984 12.5701 2.90984 12.4801 3.07984 12.3801C3.40984 12.1901 3.40984 12.1901 3.27984 11.8601ZM8.02984 14.3201C7.99984 14.3101 7.97984 14.3001 7.94984 14.2901C7.91984 14.3501 7.89984 14.4001 7.86984 14.4601C7.61984 14.9501 7.61984 15.4101 8.11984 15.7401C8.40984 15.9301 8.74984 16.1101 9.08984 16.1401C9.97984 16.2301 10.8698 16.2501 11.7498 15.9701C12.5698 15.7001 13.3098 15.3101 13.9798 14.7601C14.7498 14.1301 15.3098 13.3401 15.6898 12.4301C15.8398 12.0601 15.9798 11.6901 15.9498 11.2801C15.9198 10.7001 15.2598 10.2701 14.7498 10.5301C14.8698 10.5501 14.9798 10.5701 15.0898 10.5901C15.0898 10.6101 15.0898 10.6301 15.0898 10.6501C14.9698 10.6501 14.8498 10.6301 14.7298 10.6601C14.6598 10.6701 14.5398 10.7401 14.5398 10.8001C14.5298 10.8701 14.5998 10.9701 14.6598 11.0201C14.7398 11.0901 14.8498 11.1201 14.9498 11.1601C14.8298 11.2101 14.7098 11.2001 14.6098 11.2201C14.5398 11.2301 14.4398 11.2901 14.4298 11.3301C14.4198 11.4001 14.4598 11.5101 14.5198 11.5501C14.6398 11.6501 14.7898 11.7201 14.9298 11.8001C14.7598 11.8101 14.6098 11.7701 14.4598 11.7601C14.3798 11.7601 14.2998 11.8401 14.2198 11.8801C14.2598 11.9501 14.2898 12.0401 14.3498 12.0901C14.4298 12.1701 14.5398 12.2301 14.6398 12.3101C14.4798 12.3301 14.3598 12.2801 14.2398 12.2601C14.1698 12.2501 14.0598 12.2701 14.0198 12.3201C13.9898 12.3601 14.0198 12.4801 14.0598 12.5301C14.1398 12.6301 14.2398 12.7001 14.3398 12.7901C14.3298 12.8101 14.3098 12.8301 14.2998 12.8501C14.1798 12.8101 14.0698 12.7501 13.9498 12.7301C13.8698 12.7201 13.7798 12.7601 13.6998 12.7701C13.7198 12.8501 13.7298 12.9401 13.7698 13.0101C13.8498 13.1301 13.9498 13.2301 14.0398 13.3301C14.0298 13.3501 14.0098 13.3601 13.9998 13.3801C13.8298 13.2801 13.6598 13.1801 13.4898 13.0901C13.1098 13.3201 13.5698 13.5101 13.5098 13.7601C13.3998 13.6701 13.3198 13.5901 13.2298 13.5501C13.1598 13.5201 13.0498 13.5101 12.9898 13.5501C12.9498 13.5801 12.9498 13.7001 12.9698 13.7701C13.0098 13.8901 13.0798 14.0001 13.1298 14.1201C13.0998 14.1401 13.0698 14.1601 13.0298 14.1901C12.9498 14.1001 12.8898 13.9801 12.7998 13.9101C12.7398 13.8601 12.6298 13.8701 12.5398 13.8601C12.5298 13.9401 12.4998 14.0301 12.5198 14.1001C12.5398 14.2201 12.5998 14.3401 12.6398 14.4501C12.6198 14.4601 12.6098 14.4701 12.5898 14.4801C12.4598 14.3401 12.3298 14.2001 12.2098 14.0701C11.7898 14.2801 12.1998 14.5701 12.0898 14.8401C11.9998 14.7001 11.9398 14.5801 11.8598 14.4901C11.7998 14.4201 11.6998 14.3301 11.6298 14.3401C11.4698 14.3701 11.4798 14.5101 11.5098 14.6401C11.5398 14.7601 11.5598 14.8801 11.5798 15.0001C11.5598 15.0001 11.5398 15.0101 11.5198 15.0101C11.4498 14.8801 11.3998 14.7401 11.3198 14.6201C11.2698 14.5601 11.1598 14.5101 11.0798 14.5101C11.0398 14.5101 10.9798 14.6401 10.9698 14.7101C10.9498 14.8101 10.9698 14.9201 10.9698 15.0201C10.9398 15.0201 10.9198 15.0301 10.8898 15.0301C10.8598 14.9501 10.8498 14.8501 10.8098 14.7901C10.7598 14.7101 10.6698 14.6601 10.5898 14.5901C10.5298 14.6701 10.4498 14.7501 10.4198 14.8401C10.3798 14.9401 10.3898 15.0601 10.3698 15.1701C10.2898 15.0301 10.2798 14.9001 10.2298 14.7801C10.1998 14.7101 10.0998 14.6601 10.0298 14.6001C9.96984 14.6701 9.88984 14.7301 9.85984 14.8101C9.81984 14.9101 9.81984 15.0301 9.79984 15.1401C9.71984 15.0101 9.70984 14.8901 9.66984 14.7701C9.63984 14.7001 9.55984 14.5801 9.51984 14.5901C9.43984 14.6101 9.35984 14.6801 9.30984 14.7501C9.24984 14.8401 9.21984 14.9601 9.16984 15.0601C9.14984 15.0501 9.11984 15.0401 9.09984 15.0401C9.10984 14.9301 9.12984 14.8301 9.11984 14.7201C9.10984 14.6401 9.04984 14.5601 9.01984 14.4801C8.92984 14.5301 8.82984 14.5601 8.76984 14.6301C8.68984 14.7301 8.64984 14.8601 8.58984 14.9801C8.49984 15.0001 8.47984 15.0001 8.45984 14.9901C8.48984 14.8501 8.53984 14.7001 8.52984 14.5601C8.52984 14.4801 8.45984 14.3901 8.38984 14.3301C8.36984 14.3101 8.24984 14.3701 8.19984 14.4201C8.10984 14.5201 8.04984 14.6501 7.96984 14.7601C7.94984 14.7501 7.92984 14.7501 7.90984 14.7401C7.92984 14.6701 7.93984 14.6001 7.95984 14.5301C7.98984 14.4601 8.00984 14.3901 8.02984 14.3201ZM6.05984 6.75008C6.06984 6.74008 6.07984 6.72008 6.08984 6.70008C6.14984 6.73008 6.20984 6.76008 6.25984 6.78008C6.38984 6.84008 6.49984 7.04008 6.65984 6.88008C6.81984 6.72008 6.62984 6.60008 6.55984 6.47008C6.53984 6.41008 6.50984 6.36008 6.47984 6.30008C6.49984 6.29008 6.50984 6.28008 6.52984 6.27008C6.67984 6.37008 6.81984 6.48008 6.95984 6.58008C7.13984 6.48008 7.20984 6.38008 7.05984 6.20008C6.99984 6.13008 6.97984 6.03008 6.91984 5.87008C7.05984 5.98008 7.12984 6.04008 7.21984 6.12008C7.22984 6.06008 7.24984 6.02008 7.23984 6.00008C6.88984 5.47008 6.48984 5.21008 5.89984 5.55008C5.29984 5.90008 4.92984 6.47008 4.60984 7.07008C4.25984 7.71008 4.03984 8.38008 3.91984 9.11008C3.78984 9.88008 3.82984 10.6401 3.98984 11.3801C4.14984 12.1001 4.42984 12.8001 4.85984 13.4201C5.16984 13.8701 5.47984 14.3301 5.99984 14.5601C6.49984 14.7801 7.10984 14.5501 7.23984 13.9501C7.13984 14.0201 7.04984 14.0801 6.96984 14.1401C6.97984 14.0001 7.03984 13.8901 7.06984 13.7801C7.08984 13.7101 7.06984 13.6301 7.06984 13.5501C6.97984 13.5501 6.87984 13.5301 6.79984 13.5701C6.66984 13.6301 6.56984 13.7301 6.44984 13.8101C6.49984 13.6401 6.59984 13.5301 6.66984 13.3901C6.69984 13.3301 6.68984 13.2201 6.64984 13.1801C6.61984 13.1401 6.50984 13.1301 6.44984 13.1501C6.32984 13.2001 6.20984 13.2801 6.08984 13.3401C6.06984 13.3201 6.05984 13.3101 6.03984 13.2901C6.12984 13.1801 6.22984 13.0801 6.29984 12.9701C6.32984 12.9201 6.33984 12.8101 6.30984 12.7601C6.28984 12.7201 6.17984 12.7101 6.11984 12.7301C5.98984 12.7601 5.86984 12.8101 5.73984 12.8501C5.72984 12.8301 5.70984 12.8101 5.69984 12.7801C5.79984 12.7001 5.90984 12.6201 5.98984 12.5201C6.02984 12.4601 6.04984 12.3501 6.00984 12.2901C5.97984 12.2401 5.86984 12.2101 5.79984 12.2301C5.65984 12.2601 5.52984 12.3301 5.38984 12.3801C5.47984 12.2401 5.60984 12.1501 5.72984 12.0401C5.76984 12.0001 5.80984 11.9001 5.78984 11.8501C5.76984 11.8001 5.67984 11.7501 5.61984 11.7501C5.46984 11.7501 5.31984 11.7801 5.16984 11.8001C5.25984 11.6901 5.39984 11.6301 5.49984 11.5501C5.55984 11.5001 5.59984 11.3901 5.59984 11.3101C5.59984 11.2801 5.47984 11.2201 5.41984 11.2101C5.28984 11.1901 5.15984 11.2101 5.02984 11.2101C5.12984 11.1101 5.22984 11.0601 5.32984 11.0301C5.45984 11.0001 5.55984 10.9301 5.49984 10.7901C5.46984 10.7201 5.33984 10.6801 5.24984 10.6601C5.12984 10.6301 5.00984 10.6401 4.88984 10.6301C5.01984 10.5401 5.14984 10.5201 5.25984 10.4501C5.32984 10.4101 5.36984 10.3201 5.41984 10.2601C5.34984 10.2101 5.28984 10.1401 5.20984 10.1101C5.09984 10.0801 4.99984 10.0901 4.89984 10.0801C4.89984 10.0601 4.89984 10.0301 4.89984 10.0101C4.99984 9.97008 5.11984 9.95008 5.21984 9.90008C5.28984 9.87008 5.33984 9.80008 5.40984 9.74008C5.34984 9.68008 5.28984 9.60008 5.21984 9.56008C5.11984 9.50008 4.99984 9.47008 4.87984 9.43008C4.88984 9.40008 4.89984 9.38008 4.89984 9.36008C5.01984 9.36008 5.14984 9.38008 5.26984 9.35008C5.34984 9.34008 5.41984 9.27008 5.49984 9.22008C5.43984 9.15008 5.39984 9.05008 5.31984 9.01008C5.21984 8.94008 5.08984 8.91008 4.97984 8.86008C5.12984 8.81008 5.25984 8.82008 5.39984 8.81008C5.46984 8.80008 5.52984 8.75008 5.59984 8.71008C5.55984 8.63008 5.53984 8.53008 5.47984 8.47008C5.38984 8.40008 5.27984 8.36008 5.17984 8.30008C5.17984 8.28008 5.18984 8.26008 5.19984 8.25008C5.31984 8.26008 5.43984 8.29008 5.55984 8.28008C5.63984 8.28008 5.71984 8.23008 5.80984 8.20008C5.76984 8.12008 5.75984 8.03008 5.69984 7.98008C5.60984 7.89008 5.49984 7.83008 5.39984 7.76008C5.40984 7.74008 5.41984 7.71008 5.43984 7.69008C5.53984 7.72008 5.62984 7.77008 5.72984 7.78008C5.82984 7.79008 5.92984 7.76008 6.02984 7.74008C5.99984 7.65008 5.98984 7.54008 5.93984 7.47008C5.85984 7.36008 5.74984 7.29008 5.64984 7.20008C5.65984 7.18008 5.66984 7.16008 5.67984 7.14008C5.80984 7.20008 5.93984 7.27008 6.07984 7.30008C6.14984 7.33008 6.25984 7.30008 6.31984 7.26008C6.34984 7.24008 6.31984 7.10008 6.27984 7.04008C6.22984 6.93008 6.13984 6.84008 6.05984 6.75008ZM13.0098 5.82008C13.0398 5.85008 13.0798 5.88008 13.1098 5.91008C13.0498 6.02008 12.9898 6.13008 12.9498 6.25008C12.9198 6.33008 12.9098 6.43008 12.9398 6.50008C13.0198 6.64008 13.1198 6.56008 13.2098 6.49008C13.3098 6.42008 13.3998 6.34008 13.4898 6.27008C13.5098 6.28008 13.5198 6.30008 13.5398 6.31008C13.4798 6.41008 13.3998 6.50008 13.3698 6.61008C13.3398 6.70008 13.3498 6.80008 13.3498 6.90008C13.4398 6.89008 13.5398 6.91008 13.6198 6.88008C13.7298 6.84008 13.8198 6.77008 13.9198 6.72008C13.9298 6.74008 13.9398 6.75008 13.9598 6.77008C13.8798 6.86008 13.7998 6.95008 13.7398 7.05008C13.6998 7.10008 13.6998 7.19008 13.6798 7.27008C13.7698 7.29008 13.8698 7.33008 13.9498 7.31008C14.0798 7.28008 14.2098 7.21008 14.3298 7.16008C14.2698 7.29008 14.1698 7.35008 14.1098 7.44008C14.0398 7.53008 14.0098 7.64008 13.9598 7.74008C14.0798 7.75008 14.2098 7.78008 14.3298 7.77008C14.4098 7.77008 14.4798 7.72008 14.5598 7.70008C14.5698 7.72008 14.5798 7.74008 14.5898 7.76008C14.4998 7.83008 14.3898 7.90008 14.3098 7.98008C14.2598 8.04008 14.1898 8.15008 14.2098 8.21008C14.2498 8.33008 14.3498 8.37008 14.4898 8.31008C14.5798 8.26008 14.6998 8.28008 14.8098 8.26008C14.6998 8.39008 14.5798 8.44008 14.4798 8.52008C14.4298 8.56008 14.3898 8.66008 14.3998 8.73008C14.3998 8.76008 14.5098 8.81008 14.5698 8.82008C14.7198 8.83008 14.8698 8.82008 15.0198 8.82008C14.8998 8.93008 14.7598 8.96008 14.6498 9.03008C14.5798 9.07008 14.5498 9.18008 14.4998 9.25008C14.5598 9.29008 14.6198 9.35008 14.6898 9.36008C14.8198 9.38008 14.9498 9.36008 15.0798 9.36008C15.0898 9.39008 15.0898 9.42008 15.0998 9.45008C14.9498 9.50008 14.8098 9.55008 14.6198 9.62008C14.6998 9.64008 14.7298 9.66008 14.7698 9.66008C15.5798 9.74008 16.0798 9.18008 15.8998 8.37008C15.7198 7.55008 15.3298 6.82008 14.7998 6.18008C14.1298 5.38008 13.3298 4.74008 12.3398 4.34008C11.6498 4.07008 10.9498 3.92008 10.2298 3.86008C9.89984 3.84008 9.54984 3.93008 9.19984 3.94008C8.81984 3.95008 8.48984 4.09008 8.14984 4.27008C7.60984 4.55008 7.57984 5.26008 8.00984 5.68008C7.97984 5.54008 7.95984 5.41008 7.92984 5.29008C7.94984 5.28008 7.96984 5.28008 7.98984 5.27008C8.04984 5.36008 8.09984 5.45008 8.15984 5.54008C8.22984 5.64008 8.31984 5.78008 8.44984 5.69008C8.51984 5.64008 8.52984 5.48008 8.53984 5.37008C8.53984 5.28008 8.49984 5.18008 8.47984 5.09008C8.49984 5.08008 8.51984 5.08008 8.53984 5.07008C8.63984 5.24008 8.73984 5.42008 8.87984 5.67008C8.96984 5.53008 9.04984 5.44008 9.07984 5.34008C9.10984 5.23008 9.08984 5.11008 9.08984 4.99008C9.10984 4.99008 9.13984 4.98008 9.15984 4.98008C9.19984 5.09008 9.21984 5.20008 9.27984 5.29008C9.32984 5.37008 9.40984 5.42008 9.47984 5.48008C9.52984 5.40008 9.60984 5.31008 9.64984 5.21008C9.68984 5.11008 9.67984 4.99008 9.68984 4.88008C9.70984 4.88008 9.72984 4.88008 9.75984 4.88008C9.77984 4.97008 9.76984 5.08008 9.80984 5.16008C9.85984 5.26008 9.94984 5.33008 10.0198 5.42008C10.0798 5.33008 10.1598 5.26008 10.2098 5.16008C10.2498 5.09008 10.2398 4.99008 10.2498 4.91008C10.3398 5.03008 10.3498 5.17008 10.3898 5.28008C10.4198 5.36008 10.5098 5.42008 10.5698 5.49008C10.6298 5.42008 10.7098 5.36008 10.7498 5.28008C10.7998 5.19008 10.8298 5.09008 10.8698 4.99008C10.8998 4.99008 10.9298 5.00008 10.9498 5.01008C10.9398 5.11008 10.9098 5.22008 10.9298 5.32008C10.9498 5.41008 11.0198 5.50008 11.0698 5.58008C11.1398 5.53008 11.2398 5.49008 11.2898 5.42008C11.3698 5.31008 11.4098 5.19008 11.4698 5.07008C11.4898 5.08008 11.5198 5.09008 11.5398 5.10008C11.5198 5.22008 11.4698 5.33008 11.4698 5.45008C11.4698 5.54008 11.5198 5.62008 11.5398 5.71008C11.6298 5.67008 11.7398 5.66008 11.8098 5.60008C11.8998 5.52008 11.9498 5.40008 12.0198 5.29008C12.0398 5.30008 12.0598 5.31008 12.0898 5.32008C12.0498 5.44008 11.9998 5.56008 11.9898 5.68008C11.9798 5.76008 12.0398 5.85008 12.0698 5.93008C12.1498 5.89008 12.2498 5.87008 12.3098 5.82008C12.4098 5.73008 12.4898 5.61008 12.5798 5.51008C12.5998 5.52008 12.6198 5.54008 12.6298 5.55008C12.5698 5.68008 12.5098 5.82008 12.4698 5.96008C12.4498 6.03008 12.4698 6.15008 12.5098 6.17008C12.5698 6.20008 12.6998 6.20008 12.7498 6.15008C12.8598 6.06008 12.9298 5.93008 13.0098 5.82008ZM13.7198 9.64008C13.3498 6.65008 10.1698 5.63008 8.49984 6.65008C8.59984 6.82008 8.70984 6.98008 8.79984 7.15008C9.15984 7.78008 9.49984 8.41008 9.87984 9.02008C10.1398 9.44008 10.5498 9.67008 11.0598 9.66008C11.8398 9.66008 12.6298 9.66008 13.4098 9.66008C13.5098 9.67008 13.6098 9.65008 13.7198 9.64008ZM6.23984 10.1201C6.26984 10.2801 6.30984 10.5301 6.35984 10.7801C6.51984 11.6201 6.94984 12.3001 7.57984 12.8501C7.80984 13.0501 7.84984 13.0401 7.99984 12.7801C8.40984 12.0701 8.81984 11.3701 9.20984 10.6501C9.40984 10.2801 9.44984 9.86008 9.24984 9.48008C8.81984 8.68008 8.34984 7.90008 7.89984 7.11008C7.82984 7.00008 7.75984 7.03008 7.65984 7.11008C6.73984 7.86008 6.30984 8.85008 6.23984 10.1201ZM13.7298 10.4701C13.6398 10.4601 13.5398 10.4401 13.4398 10.4401C12.5998 10.4401 11.7598 10.4301 10.9198 10.4501C10.7198 10.4501 10.4998 10.5301 10.3098 10.6001C9.94984 10.7501 9.79984 11.0801 9.61984 11.4001C9.28984 11.9901 8.93984 12.5601 8.58984 13.1401C8.43984 13.4001 8.45984 13.4501 8.73984 13.5301C8.76984 13.5401 8.79984 13.5501 8.83984 13.5601C9.68984 13.8701 10.5498 13.8301 11.3698 13.4901C12.6998 12.9401 13.4598 11.9001 13.7298 10.4701ZM10.3398 10.0101C10.3398 9.85008 10.1498 9.67008 9.99984 9.68008C9.83984 9.68008 9.64984 9.89008 9.66984 10.0501C9.69984 10.2501 9.81984 10.3601 10.0198 10.3501C10.2098 10.3401 10.3498 10.1901 10.3398 10.0101Z" fill="url(#paint1_linear_6415_249119)"/>
<path d="M8.02874 14.32C8.00874 14.39 7.98874 14.47 7.96874 14.54C7.94874 14.61 7.93874 14.68 7.91874 14.75C7.93874 14.76 7.95874 14.76 7.97874 14.77C8.04874 14.65 8.11874 14.53 8.20874 14.43C8.24874 14.38 8.37874 14.32 8.39874 14.34C8.45874 14.4 8.53874 14.49 8.53874 14.57C8.53874 14.71 8.48874 14.86 8.46874 15C8.47874 15 8.49874 15 8.52874 15.01C8.58874 14.89 8.62874 14.76 8.70874 14.66C8.76874 14.59 8.86874 14.56 8.95874 14.51C8.99874 14.59 9.04875 14.67 9.05875 14.75C9.06875 14.85 9.04874 14.96 9.03874 15.07C9.05874 15.08 9.08874 15.09 9.10874 15.09C9.14874 14.99 9.18874 14.87 9.24874 14.78C9.29874 14.71 9.37874 14.63 9.45874 14.62C9.49874 14.61 9.58874 14.72 9.60874 14.8C9.64874 14.91 9.65874 15.04 9.73874 15.17C9.75874 15.06 9.75874 14.94 9.79874 14.84C9.82874 14.76 9.90875 14.7 9.96874 14.63C10.0387 14.69 10.1387 14.74 10.1687 14.81C10.2187 14.93 10.2187 15.07 10.3087 15.2C10.3187 15.09 10.3187 14.97 10.3587 14.87C10.3887 14.78 10.4687 14.7 10.5287 14.62C10.5987 14.69 10.6887 14.74 10.7487 14.82C10.7987 14.89 10.8087 14.98 10.8287 15.06C10.8587 15.06 10.8787 15.05 10.9087 15.05C10.9087 14.94 10.8987 14.84 10.9087 14.74C10.9187 14.66 10.9787 14.54 11.0187 14.54C11.0987 14.54 11.2087 14.59 11.2587 14.65C11.3487 14.77 11.3987 14.91 11.4587 15.04C11.4787 15.04 11.4987 15.03 11.5187 15.03C11.4987 14.91 11.4687 14.79 11.4487 14.67C11.4187 14.54 11.4187 14.4 11.5687 14.37C11.6387 14.36 11.7387 14.45 11.7987 14.52C11.8787 14.62 11.9387 14.73 12.0287 14.87C12.1387 14.6 11.7187 14.31 12.1487 14.1C12.2687 14.23 12.3987 14.37 12.5287 14.51C12.5487 14.5 12.5587 14.49 12.5787 14.48C12.5387 14.36 12.4787 14.25 12.4587 14.13C12.4387 14.05 12.4687 13.97 12.4787 13.89C12.5687 13.91 12.6787 13.89 12.7387 13.94C12.8287 14.01 12.8987 14.12 12.9687 14.22C12.9987 14.2 13.0287 14.18 13.0687 14.15C13.0087 14.04 12.9487 13.93 12.9087 13.8C12.8887 13.73 12.8887 13.6 12.9287 13.58C12.9887 13.54 13.0987 13.55 13.1687 13.58C13.2687 13.62 13.3387 13.71 13.4487 13.79C13.5187 13.53 13.0487 13.35 13.4287 13.12C13.5987 13.21 13.7687 13.31 13.9387 13.41C13.9487 13.39 13.9687 13.38 13.9787 13.36C13.8887 13.25 13.7887 13.15 13.7087 13.04C13.6687 12.97 13.6587 12.88 13.6387 12.8C13.7187 12.78 13.8087 12.74 13.8887 12.76C14.0087 12.78 14.1287 12.84 14.2387 12.88C14.2487 12.86 14.2687 12.84 14.2787 12.82C14.1887 12.73 14.0787 12.66 13.9987 12.56C13.9587 12.51 13.9287 12.39 13.9587 12.35C13.9987 12.3 14.1087 12.28 14.1787 12.29C14.3087 12.31 14.4287 12.35 14.5787 12.34C14.4787 12.27 14.3787 12.21 14.2887 12.12C14.2287 12.06 14.1987 11.98 14.1587 11.91C14.2387 11.87 14.3187 11.79 14.3987 11.79C14.5487 11.79 14.6987 11.84 14.8687 11.83C14.7287 11.75 14.5887 11.68 14.4587 11.58C14.3987 11.54 14.3587 11.43 14.3687 11.36C14.3787 11.31 14.4787 11.26 14.5487 11.25C14.6587 11.23 14.7687 11.24 14.8887 11.19C14.7887 11.14 14.6787 11.11 14.5987 11.05C14.5387 11 14.4687 10.9 14.4787 10.83C14.4887 10.77 14.5987 10.71 14.6687 10.69C14.7887 10.67 14.9087 10.68 15.0287 10.68C15.0287 10.66 15.0287 10.64 15.0287 10.62C14.9187 10.6 14.8187 10.58 14.6887 10.56C15.1987 10.29 15.8487 10.72 15.8887 11.31C15.9087 11.72 15.7787 12.1 15.6287 12.46C15.2487 13.37 14.6787 14.16 13.9187 14.79C13.2587 15.34 12.5087 15.73 11.6887 16C10.8087 16.29 9.91874 16.26 9.02874 16.17C8.69874 16.14 8.34875 15.96 8.05875 15.77C7.55875 15.44 7.55874 14.98 7.80874 14.49C7.83874 14.43 7.85874 14.38 7.88874 14.32C7.97874 14.3 7.99874 14.31 8.02874 14.32Z" fill="#2F2F31"/>
<path d="M6.05927 6.75002C6.13927 6.84002 6.22927 6.93002 6.28927 7.03002C6.32927 7.09002 6.35927 7.23002 6.32927 7.25002C6.25927 7.30002 6.14927 7.33002 6.07927 7.31002C5.93927 7.28002 5.80927 7.20002 5.67927 7.14002C5.66927 7.16002 5.65927 7.18002 5.64927 7.20002C5.74927 7.29002 5.85927 7.36002 5.93927 7.46002C5.98927 7.54002 5.99927 7.65002 6.02927 7.74002C5.92927 7.75002 5.82927 7.79002 5.72927 7.78002C5.62927 7.77002 5.53927 7.72002 5.43927 7.69002C5.42927 7.71002 5.41927 7.73002 5.40927 7.75002C5.50927 7.82002 5.61927 7.88002 5.70927 7.97002C5.75927 8.03002 5.76927 8.12002 5.79927 8.20002C5.71927 8.23002 5.63927 8.27002 5.55927 8.28002C5.43927 8.28002 5.31927 8.26002 5.19927 8.25002C5.18927 8.26002 5.17927 8.28002 5.17927 8.30002C5.27927 8.35002 5.39927 8.39002 5.47927 8.47002C5.53927 8.53002 5.55927 8.63002 5.59927 8.71002C5.52927 8.75002 5.46927 8.80002 5.39927 8.81002C5.25927 8.82002 5.12927 8.81002 4.97927 8.87002C5.08927 8.92002 5.21927 8.95002 5.31927 9.02002C5.38927 9.06002 5.43927 9.15002 5.49927 9.22002C5.41927 9.27002 5.34927 9.34002 5.26927 9.35002C5.14927 9.37002 5.02927 9.36002 4.89927 9.36002C4.89927 9.38002 4.88927 9.40002 4.87927 9.43002C4.99927 9.47002 5.11927 9.50002 5.21927 9.56002C5.28927 9.60002 5.34927 9.68002 5.40927 9.74002C5.33927 9.80002 5.28927 9.87002 5.21927 9.90002C5.11927 9.95002 4.99927 9.97002 4.89927 10.01C4.89927 10.03 4.89927 10.06 4.89927 10.08C4.99927 10.09 5.09927 10.08 5.18927 10.11C5.26927 10.14 5.32927 10.21 5.39927 10.26C5.34927 10.33 5.30927 10.42 5.23927 10.45C5.12927 10.52 4.99927 10.55 4.86927 10.63C4.98927 10.64 5.10927 10.63 5.22927 10.66C5.31927 10.68 5.44927 10.72 5.47927 10.79C5.54927 10.92 5.43927 10.99 5.30927 11.03C5.20927 11.06 5.10927 11.11 5.00927 11.21C5.13927 11.21 5.26927 11.2 5.39927 11.21C5.46927 11.22 5.58927 11.28 5.57927 11.31C5.57927 11.39 5.53927 11.5 5.47927 11.55C5.37927 11.64 5.24927 11.69 5.14927 11.8C5.29927 11.78 5.44927 11.75 5.59927 11.75C5.65927 11.75 5.74927 11.8 5.76927 11.85C5.80927 11.9 5.76927 12 5.72927 12.04C5.61927 12.15 5.48927 12.24 5.38927 12.38C5.51927 12.33 5.65927 12.26 5.79927 12.23C5.86927 12.22 5.97927 12.25 6.00927 12.29C6.03927 12.35 6.02927 12.47 5.98927 12.52C5.90927 12.62 5.79927 12.69 5.69927 12.78C5.70927 12.8 5.72927 12.82 5.73927 12.85C5.86927 12.81 5.98927 12.76 6.11927 12.73C6.17927 12.72 6.28927 12.73 6.30927 12.76C6.33927 12.81 6.33927 12.92 6.29927 12.97C6.22927 13.09 6.12927 13.19 6.03927 13.29C6.05927 13.31 6.06927 13.32 6.08927 13.34C6.20927 13.27 6.31927 13.19 6.44927 13.15C6.50927 13.13 6.61927 13.14 6.64927 13.18C6.68927 13.23 6.69927 13.34 6.66927 13.39C6.59927 13.53 6.49927 13.64 6.44927 13.81C6.56927 13.73 6.66927 13.63 6.79927 13.57C6.86927 13.53 6.97927 13.56 7.06927 13.55C7.06927 13.63 7.08927 13.71 7.06927 13.78C7.02927 13.9 6.96927 14 6.95927 14.14C7.04927 14.08 7.12927 14.02 7.22927 13.95C7.09927 14.55 6.48927 14.79 5.98927 14.56C5.45927 14.33 5.15927 13.87 4.84927 13.42C4.41927 12.8 4.13927 12.11 3.97927 11.38C3.81927 10.64 3.78927 9.88002 3.90927 9.11002C4.02927 8.38002 4.24927 7.70002 4.59927 7.06002C4.92927 6.47002 5.29927 5.90002 5.89927 5.55002C6.48927 5.21002 6.88927 5.47002 7.23927 6.00002C7.24927 6.02002 7.22927 6.06002 7.22927 6.12002C7.13927 6.04002 7.05927 5.98002 6.92927 5.87002C6.97927 6.03002 6.99927 6.13002 7.05927 6.20002C7.20927 6.37002 7.13927 6.48002 6.95927 6.58002C6.81927 6.48002 6.67927 6.38002 6.52927 6.27002C6.50927 6.28002 6.49927 6.29002 6.47927 6.30002C6.50927 6.36002 6.52927 6.41002 6.55927 6.47002C6.61927 6.60002 6.80927 6.72002 6.65927 6.88002C6.49927 7.04002 6.38927 6.84002 6.26927 6.79002C6.20927 6.76002 6.14927 6.73002 6.08927 6.70002C6.07927 6.72002 6.06927 6.74002 6.05927 6.75002Z" fill="#2F2F31"/>
<path d="M13.0114 5.82011C12.9314 5.93011 12.8614 6.06011 12.7614 6.15011C12.7114 6.19011 12.5814 6.20011 12.5214 6.17011C12.4814 6.15011 12.4614 6.02011 12.4814 5.96011C12.5214 5.82011 12.5914 5.69011 12.6414 5.55011C12.6214 5.54011 12.6014 5.52011 12.5914 5.51011C12.5014 5.62011 12.4214 5.73011 12.3214 5.82011C12.2614 5.88011 12.1614 5.90011 12.0814 5.93011C12.0514 5.85011 11.9914 5.76011 12.0014 5.68011C12.0114 5.56011 12.0714 5.44011 12.1014 5.32011C12.0814 5.31011 12.0614 5.30011 12.0314 5.29011C11.9614 5.39011 11.9114 5.51011 11.8214 5.60011C11.7514 5.66011 11.6414 5.68011 11.5514 5.71011C11.5214 5.62011 11.4814 5.54011 11.4814 5.45011C11.4814 5.33011 11.5214 5.22011 11.5514 5.10011C11.5314 5.09011 11.5014 5.08011 11.4814 5.07011C11.4214 5.19011 11.3714 5.32011 11.3014 5.42011C11.2514 5.49011 11.1614 5.53011 11.0814 5.58011C11.0314 5.49011 10.9614 5.41011 10.9414 5.32011C10.9214 5.22011 10.9514 5.11011 10.9614 5.01011C10.9314 5.00011 10.9014 4.99011 10.8714 4.98011C10.8314 5.08011 10.8114 5.18011 10.7514 5.27011C10.7014 5.35011 10.6314 5.41011 10.5714 5.48011C10.5114 5.41011 10.4314 5.35011 10.3914 5.27011C10.3414 5.15011 10.3314 5.02011 10.2514 4.90011C10.2414 4.99011 10.2414 5.08011 10.2114 5.15011C10.1614 5.24011 10.0914 5.32011 10.0214 5.41011C9.95139 5.33011 9.86139 5.25011 9.81139 5.16011C9.76139 5.08011 9.77139 4.97011 9.75139 4.88011C9.73139 4.88011 9.71139 4.88011 9.68139 4.88011C9.67139 4.99011 9.68139 5.11011 9.64139 5.21011C9.61139 5.31011 9.53139 5.40011 9.47139 5.48011C9.40139 5.42011 9.32139 5.36011 9.27139 5.29011C9.22139 5.20011 9.20139 5.09011 9.16139 4.98011C9.14139 4.98011 9.11139 4.99011 9.09139 4.99011C9.09139 5.11011 9.11139 5.23011 9.08139 5.34011C9.05139 5.44011 8.97139 5.53011 8.88139 5.67011C8.74139 5.42011 8.64139 5.25011 8.54139 5.07011C8.52139 5.08011 8.50139 5.08011 8.48139 5.09011C8.50139 5.19011 8.54139 5.28011 8.53139 5.38011C8.53139 5.49011 8.52139 5.64011 8.45139 5.69011C8.32139 5.78011 8.23139 5.65011 8.16139 5.54011C8.10139 5.45011 8.05139 5.36011 7.99139 5.27011C7.97139 5.28011 7.95139 5.29011 7.93139 5.29011C7.95139 5.41011 7.98139 5.53011 8.01139 5.68011C7.58139 5.26011 7.61139 4.55011 8.15139 4.27011C8.49139 4.09011 8.82139 3.95011 9.20139 3.94011C9.55139 3.93011 9.90139 3.84011 10.2414 3.87011C10.9614 3.93011 11.6714 4.08011 12.3514 4.35011C13.3414 4.75011 14.1414 5.38011 14.8114 6.19011C15.3414 6.83011 15.7314 7.56011 15.9114 8.38011C16.0914 9.19011 15.5914 9.75011 14.7814 9.67011C14.7414 9.67011 14.7114 9.65011 14.6314 9.63011C14.8214 9.57011 14.9614 9.51011 15.1114 9.46011C15.1014 9.43011 15.1014 9.40011 15.0914 9.37011C14.9614 9.37011 14.8314 9.38011 14.7014 9.37011C14.6314 9.36011 14.5714 9.30011 14.5114 9.26011C14.5614 9.18011 14.5914 9.08011 14.6614 9.04011C14.7714 8.97011 14.9114 8.94011 15.0314 8.83011C14.8814 8.83011 14.7314 8.84011 14.5814 8.83011C14.5214 8.82011 14.4114 8.78011 14.4114 8.74011C14.4014 8.67011 14.4414 8.58011 14.4914 8.53011C14.5914 8.45011 14.7114 8.40011 14.8214 8.27011C14.7114 8.28011 14.5914 8.27011 14.5014 8.32011C14.3614 8.39011 14.2614 8.35011 14.2214 8.22011C14.2014 8.16011 14.2714 8.05011 14.3214 7.99011C14.4014 7.90011 14.5014 7.84011 14.6014 7.77011C14.5914 7.75011 14.5814 7.73011 14.5714 7.71011C14.4914 7.74011 14.4214 7.78011 14.3414 7.78011C14.2214 7.78011 14.0914 7.76011 13.9714 7.75011C14.0214 7.65011 14.0514 7.54011 14.1214 7.45011C14.1914 7.36011 14.2814 7.29011 14.3414 7.17011C14.2114 7.22011 14.0914 7.29011 13.9614 7.32011C13.8814 7.34011 13.7814 7.30011 13.6914 7.28011C13.7114 7.20011 13.7114 7.12011 13.7414 7.05011C13.8014 6.95011 13.8914 6.86011 13.9614 6.77011C13.9514 6.75011 13.9414 6.74011 13.9214 6.72011C13.8214 6.78011 13.7214 6.85011 13.6214 6.88011C13.5414 6.91011 13.4414 6.90011 13.3514 6.90011C13.3614 6.80011 13.3414 6.70011 13.3714 6.61011C13.4114 6.50011 13.4814 6.41011 13.5414 6.31011C13.5214 6.30011 13.5114 6.28011 13.4914 6.27011C13.4014 6.34011 13.3014 6.42011 13.2114 6.49011C13.1214 6.56011 13.0214 6.63011 12.9414 6.50011C12.9114 6.44011 12.9214 6.33011 12.9514 6.25011C12.9914 6.13011 13.0614 6.02011 13.1114 5.91011C13.0814 5.88011 13.0414 5.85011 13.0114 5.82011Z" fill="#2F2F31"/>
<path d="M13.72 9.63992C13.62 9.64992 13.51 9.66992 13.41 9.66992C12.63 9.66992 11.84 9.66992 11.06 9.66992C10.55 9.66992 10.14 9.43992 9.88 9.02992C9.49 8.41992 9.16 7.77992 8.8 7.15992C8.7 6.98992 8.6 6.81992 8.5 6.65992C10.16 5.62992 13.35 6.64992 13.72 9.63992Z" fill="#2F2F31"/>
<path d="M6.23828 10.12C6.30828 8.85002 6.73828 7.86002 7.65828 7.11002C7.75828 7.03002 7.82828 7.00002 7.89828 7.11002C8.34828 7.90002 8.81828 8.68002 9.24828 9.48002C9.44828 9.86002 9.41828 10.27 9.20828 10.65C8.81828 11.37 8.40828 12.07 7.99828 12.78C7.84828 13.05 7.80828 13.05 7.57828 12.85C6.93828 12.3 6.51828 11.62 6.35828 10.78C6.30828 10.53 6.26828 10.28 6.23828 10.12Z" fill="#2F2F31"/>
<path d="M13.7292 10.47C13.4592 11.9 12.6992 12.94 11.3692 13.49C10.5492 13.83 9.68916 13.87 8.83916 13.56C8.80916 13.55 8.77916 13.54 8.73916 13.53C8.45916 13.46 8.42916 13.4 8.58916 13.14C8.92916 12.56 9.28916 11.99 9.61916 11.4C9.79916 11.08 9.94916 10.75 10.3092 10.6C10.4992 10.52 10.7092 10.45 10.9192 10.45C11.7592 10.43 12.5992 10.44 13.4392 10.44C13.5392 10.44 13.6392 10.46 13.7292 10.47Z" fill="black"/>
<path d="M10.3394 10.0101C10.3494 10.2001 10.2094 10.3401 10.0194 10.3501C9.80942 10.3601 9.69942 10.2401 9.66942 10.0501C9.64942 9.89009 9.83942 9.68009 9.99942 9.68009C10.1494 9.67009 10.3394 9.85009 10.3394 10.0101Z" fill="black"/>
<defs>
<linearGradient id="paint0_linear_6415_249119" x1="4.5" y1="20" x2="4.5" y2="3.68806e-08" gradientUnits="userSpaceOnUse">
<stop stop-color="#97969C"/>
<stop offset="1" stop-color="#E4E3E9"/>
</linearGradient>
<linearGradient id="paint1_linear_6415_249119" x1="10" y1="16.5" x2="10" y2="2" gradientUnits="userSpaceOnUse">
<stop stop-color="#9D9DA0"/>
<stop offset="1" stop-color="#E3E1EB"/>
</linearGradient>
</defs>
</svg>
