<svg width="25" height="24" viewBox="0 0 25 24" fill="none" xmlns="http://www.w3.org/2000/svg">
<path d="M18.25 13.18V13.5336L18.5833 13.6514C19.0696 13.8233 19.4908 14.1415 19.7892 14.5622C20.0875 14.9827 20.2484 15.4852 20.25 16.0008V18C20.25 18.1326 20.1973 18.2598 20.1036 18.3536C20.0098 18.4473 19.8826 18.5 19.75 18.5H16.61H16.2277L16.1275 18.8689C15.926 19.6103 15.4861 20.2649 14.8757 20.7315C14.2653 21.1982 13.5183 21.451 12.75 21.451C11.9817 21.451 11.2347 21.1982 10.6243 20.7315C10.0139 20.2649 9.574 19.6103 9.3725 18.8689L9.27225 18.5H8.89H5.75C5.61739 18.5 5.49021 18.4473 5.39645 18.3536C5.30268 18.2598 5.25 18.1326 5.25 18V16.0007C5.25159 15.4852 5.41253 14.9827 5.71078 14.5622C6.00916 14.1415 6.43037 13.8233 6.91666 13.6514L7.25 13.5336V13.18L7.25 10.0005C7.25 10.0004 7.25 10.0004 7.25 10.0003C7.25137 8.70155 7.71228 7.44521 8.5511 6.45372C9.38998 5.46216 10.5527 4.79947 11.8333 4.58301L12.25 4.51258V4.09V3C12.25 2.86739 12.3027 2.74021 12.3964 2.64645C12.4902 2.55268 12.6174 2.5 12.75 2.5C12.8826 2.5 13.0098 2.55268 13.1036 2.64645C13.1973 2.74021 13.25 2.86739 13.25 3V4.09V4.51258L13.6667 4.58301C14.9473 4.79947 16.11 5.46216 16.9489 6.45372C17.7878 7.44527 18.2487 8.7017 18.25 10.0005V13.18ZM16.75 13.5H17.25V13V10C17.25 8.80653 16.7759 7.66193 15.932 6.81802C15.0881 5.97411 13.9435 5.5 12.75 5.5C11.5565 5.5 10.4119 5.97411 9.56802 6.81802C8.72411 7.66193 8.25 8.80653 8.25 10V13V13.5H8.75H16.75ZM12.747 20.5V20.5L12.753 20.5C13.1893 20.4974 13.6173 20.3806 13.9945 20.1613C14.3717 19.942 14.6849 19.6278 14.903 19.25L15.336 18.5H14.47H11.03H10.164L10.597 19.25C10.8151 19.6278 11.1283 19.942 11.5055 20.1613C11.8827 20.3806 12.3107 20.4974 12.747 20.5ZM18.75 17.5H19.25V17V16C19.25 15.6022 19.092 15.2206 18.8107 14.9393C18.5294 14.658 18.1478 14.5 17.75 14.5H7.75C7.35217 14.5 6.97064 14.658 6.68934 14.9393C6.40804 15.2206 6.25 15.6022 6.25 16V17V17.5H6.75H18.75Z" fill="#7843DD" stroke="#7843DD"/>
</svg>
