<svg width="24" height="24" viewBox="0 0 24 24" fill="none" xmlns="http://www.w3.org/2000/svg">
<path fill-rule="evenodd" clip-rule="evenodd" d="M14.3209 3.86544C14.2212 3.76557 14.0992 3.6903 13.9648 3.64584C13.8304 3.60139 13.6873 3.58903 13.5471 3.6098C13.407 3.63056 13.2738 3.68386 13.1583 3.76525C13.0427 3.84664 12.9481 3.95383 12.8818 4.07807L9.2091 10.9605L5.08828 12.3323L11.681 18.9169L13.0553 14.8006L19.9241 11.1264C20.0483 11.0598 20.1551 10.9653 20.2359 10.8505C20.3168 10.7357 20.3696 10.6037 20.3902 10.4652C20.4108 10.3266 20.3988 10.1852 20.3549 10.052C20.3111 9.91892 20.2367 9.7977 20.1374 9.6981L14.3209 3.86544ZM15.5 2.78181L15.4548 2.73324L18.3627 5.65093L21.2707 8.56862C21.546 8.84482 21.7528 9.18145 21.8747 9.55165C21.9966 9.92185 22.0302 10.3154 21.9728 10.7008C21.9153 11.0863 21.7685 11.453 21.5441 11.7718C21.3196 12.0905 21.0236 12.3525 20.6798 12.5367L14.3714 15.9112L12.8072 20.5962C12.7623 20.7311 12.6837 20.8523 12.5787 20.9483C12.4737 21.0443 12.3459 21.1119 12.2074 21.1446C12.0689 21.1773 11.9243 21.1742 11.7873 21.1354C11.6504 21.0966 11.5257 21.0235 11.425 20.923L7.84299 17.3437L3.42393 21.7566L2 22L2.24372 20.5778L6.66243 16.1646L3.07838 12.5867C2.97776 12.4862 2.90454 12.3616 2.8657 12.2248C2.82686 12.0881 2.82368 11.9437 2.85647 11.8053C2.88925 11.667 2.95692 11.5393 3.05302 11.4345C3.14913 11.3296 3.27049 11.251 3.40557 11.2062L8.09805 9.644L11.4701 3.32512C11.6542 2.97993 11.9168 2.68268 12.2368 2.45725C12.5568 2.23181 12.9253 2.08448 13.3126 2.02708C13.7 1.96968 14.0954 2.00382 14.4671 2.12675C14.8388 2.24964 15.2235 2.50501 15.5 2.78181Z" fill="#0C0D0E" stroke="#0C0D0E" stroke-width="0.6"/>
</svg>
