<svg width="16" height="16" viewBox="0 0 16 16" fill="none" xmlns="http://www.w3.org/2000/svg">
<path fill-rule="evenodd" clip-rule="evenodd" d="M8 10.625C6.54485 10.625 5.00183 9.80749 3.87043 8C5.00183 6.19251 6.54485 5.375 8 5.375C9.45515 5.375 10.9982 6.19251 12.1296 8C10.9982 9.80749 9.45515 10.625 8 10.625ZM13.6556 7.63577C12.3013 5.19801 10.2005 3.875 8 3.875C5.79953 3.875 3.69869 5.19801 2.34438 7.63577C2.21854 7.86228 2.21854 8.13771 2.34438 8.36423C3.69869 10.802 5.79953 12.125 8 12.125C10.2005 12.125 12.3013 10.802 13.6556 8.36423C13.7815 8.13771 13.7815 7.86228 13.6556 7.63577ZM8 10C9.10457 10 10 9.10457 10 8C10 6.89543 9.10457 6 8 6C6.89543 6 6 6.89543 6 8C6 9.10457 6.89543 10 8 10Z" fill="#828085"/>
</svg>
