<svg width="36" height="36" viewBox="0 0 36 36" fill="none" xmlns="http://www.w3.org/2000/svg">
<path d="M0 4C0 2.11438 0 1.17157 0.585786 0.585786C1.17157 0 2.11438 0 4 0H32C33.8856 0 34.8284 0 35.4142 0.585786C36 1.17157 36 2.11438 36 4V32C36 33.8856 36 34.8284 35.4142 35.4142C34.8284 36 33.8856 36 32 36H4C2.11438 36 1.17157 36 0.585786 35.4142C0 34.8284 0 33.8856 0 32V4Z" fill="#5B22B8"/>
<path fill-rule="evenodd" clip-rule="evenodd" d="M5.44922 22.381H7.04328V21.3107L7.30728 21.5738C8.62525 22.8873 10.9824 22.79 12.2599 21.3693C13.7853 19.6729 13.5888 16.5156 11.8756 15.1945C10.4843 14.1217 8.36497 14.2524 7.23465 15.4807L7.04328 15.6886V11.9531H5.44922V22.381ZM17.273 14.4902C15.3332 14.681 14.0593 16.1284 13.9663 18.2473C13.8734 20.3647 14.9932 21.9737 16.8634 22.4098C17.2693 22.5044 18.3111 22.5034 18.7267 22.4079C19.9145 22.1352 20.9468 21.2063 21.2849 20.1064L21.3136 20.0129H19.5522L19.4652 20.1864C18.9092 21.2941 17.0416 21.418 16.1647 20.4054C15.8958 20.0949 15.6311 19.4771 15.6273 19.1512C15.6268 19.1105 16.25 19.0972 18.539 19.0888L21.4512 19.0782L21.4869 18.7042C21.7026 16.4479 20.3308 14.6959 18.1834 14.4845C17.7695 14.4438 17.7437 14.4439 17.273 14.4902ZM28.2749 14.4908C27.657 14.5643 27.0408 14.8416 26.6224 15.2346L26.4173 15.4272V14.5705H24.8232V22.381H26.4115L26.4272 19.961C26.4447 17.2925 26.4424 17.3179 26.7117 16.8043C27.3621 15.5642 29.4008 15.6047 29.989 16.8695C30.2084 17.3414 30.2171 17.4614 30.2178 20.0233L30.2185 22.381H31.8164L31.8027 19.6702C31.7892 16.996 31.7878 16.9552 31.6968 16.6522C31.3111 15.3664 30.4164 14.6294 29.0706 14.489C28.843 14.4653 28.6356 14.4483 28.6099 14.4512C28.5842 14.4542 28.4334 14.472 28.2749 14.4908ZM21.8037 15.6775L22.3154 18.9773C22.8381 22.3481 22.8602 22.4544 23.0154 22.3551C23.0867 22.3094 23.0917 22.2796 23.9748 16.5912L24.1157 15.6831L23.7213 15.069H22.2176L21.8037 15.6775ZM18.2737 15.921C19.0823 16.1147 19.7195 16.7868 19.7844 17.5143L19.8072 17.7695H15.6676L15.6684 17.6552C15.6689 17.5924 15.7123 17.4173 15.7647 17.2662C16.1301 16.2142 17.1702 15.6565 18.2737 15.921ZM9.85934 15.9638C11.3725 16.3264 12.1059 18.1875 11.3527 19.7534C10.4637 21.6017 7.89091 21.4314 7.22435 19.4802C6.54458 17.4903 8.01889 15.5228 9.85934 15.9638Z" fill="white"/>
<path d="M24.194 13.5141C24.194 14.2189 23.634 14.7903 22.9433 14.7903C22.2525 14.7903 21.6926 14.2189 21.6926 13.5141C21.6926 12.8093 22.2525 12.2379 22.9433 12.2379C23.634 12.2379 24.194 12.8093 24.194 13.5141Z" fill="white"/>
</svg>
