<svg width="20" height="20" viewBox="0 0 20 20" fill="none" xmlns="http://www.w3.org/2000/svg">
<rect width="20" height="20" rx="3" fill="white"/>
<path d="M12.268 7.32508L8.69297 10.9084L7.31797 9.53341C7.24327 9.44618 7.15133 9.37533 7.04795 9.32531C6.94456 9.27529 6.83195 9.24718 6.71718 9.24275C6.60242 9.23832 6.48797 9.25766 6.38104 9.29955C6.2741 9.34145 6.17698 9.40499 6.09576 9.48621C6.01455 9.56742 5.951 9.66454 5.90911 9.77148C5.86721 9.87842 5.84787 9.99286 5.85231 10.1076C5.85674 10.2224 5.88485 10.335 5.93487 10.4384C5.98489 10.5418 6.05574 10.6337 6.14297 10.7084L8.10131 12.6751C8.17917 12.7523 8.27152 12.8134 8.37305 12.8549C8.47458 12.8964 8.5833 12.9174 8.69297 12.9167C8.91159 12.9158 9.12109 12.829 9.27631 12.6751L13.443 8.50842C13.5211 8.43095 13.5831 8.33878 13.6254 8.23723C13.6677 8.13568 13.6895 8.02676 13.6895 7.91675C13.6895 7.80674 13.6677 7.69782 13.6254 7.59627C13.5831 7.49472 13.5211 7.40255 13.443 7.32508C13.2868 7.16987 13.0756 7.08275 12.8555 7.08275C12.6353 7.08275 12.4241 7.16987 12.268 7.32508ZM10.0013 1.66675C8.35313 1.66675 6.74196 2.15549 5.37155 3.07117C4.00114 3.98685 2.93304 5.28834 2.30231 6.81105C1.67158 8.33377 1.50655 10.0093 1.8281 11.6258C2.14964 13.2423 2.94331 14.7272 4.10875 15.8926C5.27419 17.0581 6.75905 17.8517 8.37555 18.1733C9.99206 18.4948 11.6676 18.3298 13.1903 17.6991C14.7131 17.0683 16.0145 16.0002 16.9302 14.6298C17.8459 13.2594 18.3346 11.6483 18.3346 10.0001C18.3346 8.90573 18.1191 7.8221 17.7003 6.81105C17.2815 5.80001 16.6677 4.88135 15.8939 4.10752C15.12 3.3337 14.2014 2.71987 13.1903 2.30109C12.1793 1.8823 11.0957 1.66675 10.0013 1.66675ZM10.0013 16.6667C8.68276 16.6667 7.39383 16.2758 6.2975 15.5432C5.20118 14.8107 4.34669 13.7695 3.84211 12.5513C3.33752 11.3331 3.2055 9.99269 3.46274 8.69948C3.71997 7.40627 4.35491 6.21839 5.28726 5.28604C6.21961 4.35369 7.4075 3.71875 8.7007 3.46151C9.99391 3.20428 11.3344 3.3363 12.5525 3.84088C13.7707 4.34547 14.8119 5.19995 15.5444 6.29628C16.277 7.39261 16.668 8.68154 16.668 10.0001C16.668 11.7682 15.9656 13.4639 14.7154 14.7141C13.4651 15.9644 11.7694 16.6667 10.0013 16.6667Z" fill="#00A64D"/>
</svg>
