<svg width="24" height="24" viewBox="0 0 24 24" fill="none" xmlns="http://www.w3.org/2000/svg">
<path fill-rule="evenodd" clip-rule="evenodd" d="M12.2499 6.01904C12.2499 5.60483 12.5857 5.26904 12.9999 5.26904L19.0387 5.26904C19.4529 5.26904 19.7887 5.60483 19.7887 6.01904C19.7887 6.43326 19.4529 6.76905 19.0387 6.76905L12.9999 6.76905C12.5857 6.76905 12.2499 6.43326 12.2499 6.01904Z" fill="url(#paint0_linear)"/>
<path fill-rule="evenodd" clip-rule="evenodd" d="M12.2499 9.23047C12.2499 8.81626 12.5857 8.48047 12.9999 8.48047L19.0386 8.48047C19.4529 8.48047 19.7886 8.81626 19.7886 9.23047C19.7886 9.64468 19.4529 9.98047 19.0386 9.98047L12.9999 9.98047C12.5857 9.98047 12.2499 9.64468 12.2499 9.23047Z" fill="url(#paint1_linear)"/>
<path fill-rule="evenodd" clip-rule="evenodd" d="M3.09467 3.09418C4.42914 1.75971 6.42603 1.24951 9 1.24951H15C17.574 1.24951 19.5709 1.75971 20.9053 3.09418C22.2398 4.42865 22.75 6.42554 22.75 8.99951V14.9995C22.75 17.5735 22.2398 19.5704 20.9053 20.9048C19.5709 22.2393 17.574 22.7495 15 22.7495H9C6.42603 22.7495 4.42914 22.2393 3.09467 20.9048C1.7602 19.5704 1.25 17.5735 1.25 14.9995V8.99951C1.25 6.42554 1.7602 4.42865 3.09467 3.09418ZM4.15533 4.15484C3.2398 5.07037 2.75 6.57348 2.75 8.99951V12.7501V14.9995C2.75 17.4255 3.2398 18.9287 4.15533 19.8442C5.07086 20.7597 6.57397 21.2495 9 21.2495H15C17.426 21.2495 18.9291 20.7597 19.8447 19.8442C20.7602 18.9287 21.25 17.4255 21.25 14.9995V12.7501V8.99951C21.25 6.57348 20.7602 5.07037 19.8447 4.15484C18.9291 3.23931 17.426 2.74951 15 2.74951H9C6.57397 2.74951 5.07086 3.23931 4.15533 4.15484Z" fill="url(#paint2_linear)"/>
<path fill-rule="evenodd" clip-rule="evenodd" d="M1.25002 12.0001C1.25002 11.5859 1.58581 11.2501 2.00002 11.2501H22C22.4142 11.2501 22.75 11.5859 22.75 12.0001C22.75 12.4144 22.4142 12.7501 22 12.7501H21.25H2.75H2.00002C1.58581 12.7501 1.25002 12.4144 1.25002 12.0001Z" fill="url(#paint3_linear)"/>
<path d="M2.75 12.7501V14.9995C2.75 17.4255 3.2398 18.9287 4.15533 19.8442C5.07086 20.7597 6.57397 21.2495 9 21.2495H15C17.426 21.2495 18.9291 20.7597 19.8447 19.8442C20.7602 18.9287 21.25 17.4255 21.25 14.9995V12.7501H2.75Z" fill="url(#paint4_linear)"/>
<ellipse cx="7.41209" cy="7.41206" rx="2.41209" ry="2.41206" fill="url(#paint5_linear)"/>
<defs>
<linearGradient id="paint0_linear" x1="12.9252" y1="6.66505" x2="17.9905" y2="2.83514" gradientUnits="userSpaceOnUse">
<stop stop-color="#352885"/>
<stop offset="1" stop-color="#7B61FF"/>
</linearGradient>
<linearGradient id="paint1_linear" x1="12.9252" y1="9.87647" x2="17.9905" y2="6.04658" gradientUnits="userSpaceOnUse">
<stop stop-color="#352885"/>
<stop offset="1" stop-color="#7B61FF"/>
</linearGradient>
<linearGradient id="paint2_linear" x1="2.14583" y1="5.54951" x2="25.5826" y2="8.80462" gradientUnits="userSpaceOnUse">
<stop stop-color="#352885"/>
<stop offset="1" stop-color="#7B61FF"/>
</linearGradient>
<linearGradient id="paint3_linear" x1="2.14583" y1="5.54951" x2="25.5826" y2="8.80462" gradientUnits="userSpaceOnUse">
<stop stop-color="#352885"/>
<stop offset="1" stop-color="#7B61FF"/>
</linearGradient>
<linearGradient id="paint4_linear" x1="2.14583" y1="5.54951" x2="25.5826" y2="8.80462" gradientUnits="userSpaceOnUse">
<stop stop-color="#352885"/>
<stop offset="1" stop-color="#7B61FF"/>
</linearGradient>
<linearGradient id="paint5_linear" x1="5.20101" y1="5.96482" x2="10.4598" y2="6.69522" gradientUnits="userSpaceOnUse">
<stop stop-color="#352885"/>
<stop offset="1" stop-color="#7B61FF"/>
</linearGradient>
</defs>
</svg>
