<svg width="25" height="24" viewBox="0 0 25 24" fill="none" xmlns="http://www.w3.org/2000/svg">
<path d="M10.625 5C10.4272 5 10.2339 5.05865 10.0694 5.16853C9.90498 5.27841 9.77681 5.43459 9.70112 5.61732C9.62543 5.80004 9.60563 6.00111 9.64421 6.19509C9.6828 6.38907 9.77804 6.56725 9.91789 6.70711C10.0577 6.84696 10.2359 6.9422 10.4299 6.98079C10.6239 7.01937 10.825 6.99957 11.0077 6.92388C11.1904 6.84819 11.3466 6.72002 11.4565 6.55557C11.5664 6.39112 11.625 6.19778 11.625 6C11.625 5.73478 11.5196 5.48043 11.3321 5.29289C11.1446 5.10536 10.8902 5 10.625 5ZM6.625 5C6.42722 5 6.23388 5.05865 6.06943 5.16853C5.90498 5.27841 5.77681 5.43459 5.70112 5.61732C5.62543 5.80004 5.60563 6.00111 5.64421 6.19509C5.6828 6.38907 5.77804 6.56725 5.91789 6.70711C6.05775 6.84696 6.23593 6.9422 6.42991 6.98079C6.62389 7.01937 6.82496 6.99957 7.00768 6.92388C7.19041 6.84819 7.34659 6.72002 7.45647 6.55557C7.56635 6.39112 7.625 6.19778 7.625 6C7.625 5.73478 7.51964 5.48043 7.33211 5.29289C7.14457 5.10536 6.89022 5 6.625 5ZM14.625 5C14.4272 5 14.2339 5.05865 14.0694 5.16853C13.905 5.27841 13.7768 5.43459 13.7011 5.61732C13.6254 5.80004 13.6056 6.00111 13.6442 6.19509C13.6828 6.38907 13.778 6.56725 13.9179 6.70711C14.0577 6.84696 14.2359 6.9422 14.4299 6.98079C14.6239 7.01937 14.825 6.99957 15.0077 6.92388C15.1904 6.84819 15.3466 6.72002 15.4565 6.55557C15.5664 6.39112 15.625 6.19778 15.625 6C15.625 5.73478 15.5196 5.48043 15.3321 5.29289C15.1446 5.10536 14.8902 5 14.625 5ZM20.625 1H4.625C3.82935 1 3.06629 1.31607 2.50368 1.87868C1.94107 2.44129 1.625 3.20435 1.625 4V20C1.625 20.7956 1.94107 21.5587 2.50368 22.1213C3.06629 22.6839 3.82935 23 4.625 23H20.625C21.4206 23 22.1837 22.6839 22.7463 22.1213C23.3089 21.5587 23.625 20.7956 23.625 20V4C23.625 3.20435 23.3089 2.44129 22.7463 1.87868C22.1837 1.31607 21.4206 1 20.625 1ZM21.625 20C21.625 20.2652 21.5196 20.5196 21.3321 20.7071C21.1446 20.8946 20.8902 21 20.625 21H4.625C4.35978 21 4.10543 20.8946 3.91789 20.7071C3.73036 20.5196 3.625 20.2652 3.625 20V11H21.625V20ZM21.625 9H3.625V4C3.625 3.73478 3.73036 3.48043 3.91789 3.29289C4.10543 3.10536 4.35978 3 4.625 3H20.625C20.8902 3 21.1446 3.10536 21.3321 3.29289C21.5196 3.48043 21.625 3.73478 21.625 4V9Z" fill="#505E71"/>
</svg>
