<svg width="25" height="24" viewBox="0 0 25 24" fill="none" xmlns="http://www.w3.org/2000/svg">
<path d="M10.5 5C10.3022 5 10.1089 5.05865 9.94443 5.16853C9.77998 5.27841 9.65181 5.43459 9.57612 5.61732C9.50043 5.80004 9.48063 6.00111 9.51921 6.19509C9.5578 6.38907 9.65304 6.56725 9.79289 6.70711C9.93275 6.84696 10.1109 6.9422 10.3049 6.98079C10.4989 7.01937 10.7 6.99957 10.8827 6.92388C11.0654 6.84819 11.2216 6.72002 11.3315 6.55557C11.4414 6.39112 11.5 6.19778 11.5 6C11.5 5.73478 11.3946 5.48043 11.2071 5.29289C11.0196 5.10536 10.7652 5 10.5 5ZM6.5 5C6.30222 5 6.10888 5.05865 5.94443 5.16853C5.77998 5.27841 5.65181 5.43459 5.57612 5.61732C5.50043 5.80004 5.48063 6.00111 5.51921 6.19509C5.5578 6.38907 5.65304 6.56725 5.79289 6.70711C5.93275 6.84696 6.11093 6.9422 6.30491 6.98079C6.49889 7.01937 6.69996 6.99957 6.88268 6.92388C7.06541 6.84819 7.22159 6.72002 7.33147 6.55557C7.44135 6.39112 7.5 6.19778 7.5 6C7.5 5.73478 7.39464 5.48043 7.20711 5.29289C7.01957 5.10536 6.76522 5 6.5 5ZM14.5 5C14.3022 5 14.1089 5.05865 13.9444 5.16853C13.78 5.27841 13.6518 5.43459 13.5761 5.61732C13.5004 5.80004 13.4806 6.00111 13.5192 6.19509C13.5578 6.38907 13.653 6.56725 13.7929 6.70711C13.9327 6.84696 14.1109 6.9422 14.3049 6.98079C14.4989 7.01937 14.7 6.99957 14.8827 6.92388C15.0654 6.84819 15.2216 6.72002 15.3315 6.55557C15.4414 6.39112 15.5 6.19778 15.5 6C15.5 5.73478 15.3946 5.48043 15.2071 5.29289C15.0196 5.10536 14.7652 5 14.5 5ZM20.5 1H4.5C3.70435 1 2.94129 1.31607 2.37868 1.87868C1.81607 2.44129 1.5 3.20435 1.5 4V20C1.5 20.7956 1.81607 21.5587 2.37868 22.1213C2.94129 22.6839 3.70435 23 4.5 23H20.5C21.2956 23 22.0587 22.6839 22.6213 22.1213C23.1839 21.5587 23.5 20.7956 23.5 20V4C23.5 3.20435 23.1839 2.44129 22.6213 1.87868C22.0587 1.31607 21.2956 1 20.5 1ZM21.5 20C21.5 20.2652 21.3946 20.5196 21.2071 20.7071C21.0196 20.8946 20.7652 21 20.5 21H4.5C4.23478 21 3.98043 20.8946 3.79289 20.7071C3.60536 20.5196 3.5 20.2652 3.5 20V11H21.5V20ZM21.5 9H3.5V4C3.5 3.73478 3.60536 3.48043 3.79289 3.29289C3.98043 3.10536 4.23478 3 4.5 3H20.5C20.7652 3 21.0196 3.10536 21.2071 3.29289C21.3946 3.48043 21.5 3.73478 21.5 4V9Z" fill="none"/>
</svg>
