<svg width="16" height="16" viewBox="0 0 16 16" fill="none" xmlns="http://www.w3.org/2000/svg">
<path fill-rule="evenodd" clip-rule="evenodd" d="M14.6132 6.85966V6.89105L14.6386 6.96672C14.6515 7.0049 14.6609 7.04413 14.6668 7.08395V12.4722C14.6668 13.0544 14.4356 13.6127 14.0239 14.0244C13.6122 14.436 13.0539 14.6673 12.4717 14.6673H3.52862C2.94644 14.6673 2.3881 14.436 1.97643 14.0244C1.56477 13.6127 1.3335 13.0544 1.3335 12.4722V3.52911C1.3335 2.94692 1.56477 2.38859 1.97643 1.97692C2.3881 1.56526 2.94644 1.33398 3.52862 1.33398H8.89341C8.92875 1.34374 8.96294 1.35739 8.99534 1.37472L9.10313 1.43236H9.18587C9.19999 1.44265 9.21354 1.45374 9.22645 1.46558L14.58 6.81908C14.5918 6.83199 14.6029 6.84554 14.6132 6.85966ZM10.6831 6.69984C10.3165 6.69984 9.96498 6.55422 9.70579 6.29503C9.44659 6.03583 9.30098 5.68428 9.30098 5.31772V2.71811L13.2827 6.69984H10.6831ZM8.48797 5.31772C8.48797 5.89991 8.71924 6.45825 9.1309 6.86991C9.54257 7.28158 10.1009 7.51285 10.6831 7.51285H13.8538V12.4722C13.8538 12.8388 13.7082 13.1903 13.449 13.4495C13.1898 13.7087 12.8383 13.8543 12.4717 13.8543H3.52862C3.16206 13.8543 2.81051 13.7087 2.55132 13.4495C2.29212 13.1903 2.1465 12.8388 2.1465 12.4722V3.52911C2.1465 3.16255 2.29212 2.811 2.55132 2.5518C2.81051 2.29261 3.16206 2.14699 3.52862 2.14699H8.48797V5.31772Z" fill="white"/>
<path fill-rule="evenodd" clip-rule="evenodd" d="M3.52829 1.49935C2.99031 1.49935 2.47437 1.71306 2.09396 2.09347C1.71355 2.47388 1.49984 2.98982 1.49984 3.5278V12.4709C1.49984 13.0089 1.71355 13.5248 2.09396 13.9052C2.47437 14.2856 2.99031 14.4993 3.52829 14.4993H12.4714C13.0094 14.4993 13.5253 14.2856 13.9057 13.9052C14.2861 13.5248 14.4998 13.0089 14.4998 12.4709V7.09586C14.4953 7.06963 14.4888 7.04379 14.4803 7.01855L14.4477 6.92156L9.12387 1.59772H9.06104L8.91642 1.52039C8.90089 1.51209 8.88475 1.50505 8.86815 1.49935H3.52829ZM1.85826 1.85777C2.30118 1.41485 2.90191 1.16602 3.52829 1.16602H8.91566L8.93742 1.17202C8.98463 1.18505 9.03031 1.20329 9.0736 1.22644L9.14457 1.26439H9.23987L9.28376 1.2964C9.30289 1.31035 9.32125 1.32538 9.33874 1.34142L9.34408 1.34631L14.7026 6.70506C14.7186 6.72254 14.7335 6.74101 14.7475 6.76015L14.7795 6.80403V6.86247L14.7963 6.91229C14.8122 6.95978 14.824 7.00857 14.8314 7.0581L14.8332 7.07031V12.4709C14.8332 13.0973 14.5843 13.698 14.1414 14.1409C13.6985 14.5839 13.0978 14.8327 12.4714 14.8327H3.52829C2.90191 14.8327 2.30118 14.5839 1.85826 14.1409C1.41533 13.698 1.1665 13.0973 1.1665 12.4709V3.5278C1.1665 2.90142 1.41533 2.30069 1.85826 1.85777ZM2.43314 2.43265C2.72359 2.1422 3.11753 1.97902 3.52829 1.97902H8.65431V5.31642C8.65431 5.8544 8.86802 6.37035 9.24843 6.75076C9.62884 7.13117 10.1448 7.34488 10.6828 7.34488H14.0202V12.4709C14.0202 12.8817 13.857 13.2756 13.5665 13.566C13.2761 13.8565 12.8821 14.0197 12.4714 14.0197H3.52829C3.11753 14.0197 2.72359 13.8565 2.43314 13.566C2.14269 13.2756 1.97951 12.8817 1.97951 12.4709V3.5278C1.97951 3.11704 2.14269 2.7231 2.43314 2.43265ZM3.52829 2.31236C3.20594 2.31236 2.89678 2.44041 2.66884 2.66835C2.4409 2.89629 2.31285 3.20545 2.31285 3.5278V12.4709C2.31285 12.7933 2.4409 13.1024 2.66884 13.3303C2.89678 13.5583 3.20594 13.6863 3.52829 13.6863H12.4714C12.7937 13.6863 13.1029 13.5583 13.3308 13.3303C13.5588 13.1024 13.6868 12.7932 13.6868 12.4709V7.67821H10.6828C10.0564 7.67821 9.45565 7.42938 9.01273 6.98646C8.56981 6.54354 8.32098 5.94281 8.32098 5.31642V2.31236H3.52829ZM9.13398 2.31444L13.6847 6.8652H10.6828C10.272 6.8652 9.87806 6.70203 9.58761 6.41157C9.29716 6.12112 9.13398 5.72718 9.13398 5.31642V2.31444ZM9.46732 3.11917V5.31642C9.46732 5.63878 9.59537 5.94793 9.82331 6.17587C10.0513 6.40381 10.3604 6.53187 10.6828 6.53187H12.88L9.46732 3.11917Z" fill="white"/>
<path d="M14.4803 7.01855C14.4888 7.04379 14.4953 7.06964 14.4998 7.09586V12.4709C14.4998 13.0089 14.2861 13.5248 13.9057 13.9052C13.5253 14.2856 13.0094 14.4993 12.4714 14.4993H3.52829C2.99031 14.4993 2.47437 14.2856 2.09396 13.9052C1.71355 13.5248 1.49984 13.0089 1.49984 12.4709V3.5278C1.49984 2.98982 1.71355 2.47388 2.09396 2.09347C2.47437 1.71306 2.99031 1.49935 3.52829 1.49935H8.86815C8.88475 1.50505 8.90089 1.51209 8.91642 1.52039L9.06104 1.59772H9.12387L14.4477 6.92156L14.4803 7.01855ZM14.4803 7.01855L14.6383 6.96542M3.52829 1.16602C2.90191 1.16602 2.30118 1.41485 1.85826 1.85777C1.41533 2.30069 1.1665 2.90142 1.1665 3.5278V12.4709C1.1665 13.0973 1.41533 13.698 1.85826 14.1409C2.30118 14.5839 2.90191 14.8327 3.52829 14.8327H12.4714C13.0978 14.8327 13.6985 14.5839 14.1414 14.1409C14.5843 13.698 14.8332 13.0973 14.8332 12.4709V7.07031L14.8314 7.0581C14.824 7.00857 14.8122 6.95978 14.7963 6.91229L14.7795 6.86247V6.80403L14.7475 6.76015C14.7335 6.74101 14.7186 6.72254 14.7026 6.70506L9.34408 1.34631L9.33874 1.34142C9.32125 1.32538 9.30289 1.31035 9.28376 1.2964L9.23987 1.26439H9.14457L9.0736 1.22644C9.03031 1.20329 8.98463 1.18505 8.93742 1.17202L8.91566 1.16602H3.52829ZM3.52829 1.97902C3.11753 1.97902 2.72359 2.1422 2.43314 2.43265C2.14269 2.7231 1.97951 3.11704 1.97951 3.5278V12.4709C1.97951 12.8817 2.14269 13.2756 2.43314 13.566C2.72359 13.8565 3.11753 14.0197 3.52829 14.0197H12.4714C12.8821 14.0197 13.2761 13.8565 13.5665 13.566C13.857 13.2756 14.0202 12.8817 14.0202 12.4709V7.34488H10.6828C10.1448 7.34488 9.62884 7.13117 9.24843 6.75076C8.86802 6.37035 8.65431 5.8544 8.65431 5.31642V1.97902H3.52829ZM2.66884 2.66835C2.89678 2.44041 3.20594 2.31236 3.52829 2.31236H8.32098V5.31642C8.32098 5.94281 8.56981 6.54354 9.01273 6.98646C9.45565 7.42938 10.0564 7.67821 10.6828 7.67821H13.6868V12.4709C13.6868 12.7932 13.5588 13.1024 13.3308 13.3303C13.1029 13.5583 12.7937 13.6863 12.4714 13.6863H3.52829C3.20594 13.6863 2.89678 13.5583 2.66884 13.3303C2.4409 13.1024 2.31285 12.7933 2.31285 12.4709V3.5278C2.31285 3.20545 2.4409 2.89629 2.66884 2.66835ZM9.13398 2.31444L13.6847 6.8652H10.6828C10.272 6.8652 9.87806 6.70203 9.58761 6.41158C9.29716 6.12112 9.13398 5.72718 9.13398 5.31642V2.31444ZM9.46732 5.31642V3.11917L12.88 6.53187H10.6828C10.3604 6.53187 10.0513 6.40381 9.82331 6.17587C9.59537 5.94793 9.46732 5.63878 9.46732 5.31642Z" stroke="white" stroke-width="0.32"/>
<path d="M6.45068 10.0754C6.8799 10.0754 7.29618 9.9285 7.63031 9.6591C7.73239 9.57426 7.86399 9.53344 7.99616 9.54563C8.06161 9.55166 8.12522 9.57053 8.18338 9.60115C8.24153 9.63177 8.29308 9.67354 8.33509 9.72408C8.41994 9.82616 8.46075 9.95776 8.44857 10.0899C8.43638 10.2221 8.37219 10.344 8.27011 10.4289C7.75961 10.855 7.11569 11.0885 6.45068 11.0885C5.78567 11.0885 5.14176 10.855 4.63125 10.4289C4.52918 10.344 4.46498 10.2221 4.4528 10.0899C4.44061 9.95776 4.48143 9.82616 4.56627 9.72408C4.65112 9.62201 4.77303 9.55781 4.90521 9.54563C5.03738 9.53344 5.16898 9.57426 5.27105 9.6591C5.60519 9.9285 6.02147 10.0754 6.45068 10.0754Z" fill="white"/>
<path d="M5.22885 7.96037C5.14665 8.01529 5.05001 8.04461 4.95115 8.04461C4.81859 8.04461 4.69145 7.99195 4.59771 7.89821C4.50397 7.80447 4.45131 7.67733 4.45131 7.54477C4.45131 7.44591 4.48062 7.34927 4.53555 7.26707C4.59047 7.18487 4.66854 7.1208 4.75987 7.08297C4.85121 7.04514 4.95171 7.03524 5.04867 7.05453C5.14563 7.07381 5.23469 7.12142 5.3046 7.19132C5.3745 7.26123 5.42211 7.35029 5.44139 7.44725C5.46068 7.54421 5.45078 7.64471 5.41295 7.73605C5.37512 7.82738 5.31105 7.90545 5.22885 7.96037Z" fill="white"/>
<path d="M7.67252 7.12916C7.75471 7.07424 7.85135 7.04492 7.95021 7.04492C8.08278 7.04492 8.20992 7.09758 8.30366 7.19132C8.3974 7.28506 8.45006 7.4122 8.45006 7.54477C8.45006 7.64363 8.42074 7.74027 8.36582 7.82246C8.3109 7.90466 8.23283 7.96873 8.1415 8.00656C8.05016 8.04439 7.94966 8.05429 7.8527 8.035C7.75574 8.01572 7.66668 7.96811 7.59677 7.89821C7.52687 7.8283 7.47926 7.73924 7.45998 7.64228C7.44069 7.54532 7.45059 7.44482 7.48842 7.35348C7.52625 7.26215 7.59032 7.18408 7.67252 7.12916Z" fill="white"/>
<path d="M6.45068 10.0754C6.8799 10.0754 7.29618 9.9285 7.63031 9.6591C7.73239 9.57426 7.86399 9.53344 7.99616 9.54563C8.06161 9.55166 8.12522 9.57053 8.18338 9.60115C8.24153 9.63177 8.29308 9.67354 8.33509 9.72408C8.41994 9.82616 8.46075 9.95776 8.44857 10.0899C8.43638 10.2221 8.37219 10.344 8.27011 10.4289C7.75961 10.855 7.11569 11.0885 6.45068 11.0885C5.78567 11.0885 5.14176 10.855 4.63125 10.4289C4.52918 10.344 4.46498 10.2221 4.4528 10.0899C4.44061 9.95776 4.48143 9.82616 4.56627 9.72408C4.65112 9.62201 4.77303 9.55781 4.90521 9.54563C5.03738 9.53344 5.16898 9.57426 5.27105 9.6591C5.60519 9.9285 6.02147 10.0754 6.45068 10.0754Z" stroke="white" stroke-width="0.32"/>
<path d="M5.22885 7.96037C5.14665 8.01529 5.05001 8.04461 4.95115 8.04461C4.81859 8.04461 4.69145 7.99195 4.59771 7.89821C4.50397 7.80447 4.45131 7.67733 4.45131 7.54477C4.45131 7.44591 4.48062 7.34927 4.53555 7.26707C4.59047 7.18487 4.66854 7.1208 4.75987 7.08297C4.85121 7.04514 4.95171 7.03524 5.04867 7.05453C5.14563 7.07381 5.23469 7.12142 5.3046 7.19132C5.3745 7.26123 5.42211 7.35029 5.44139 7.44725C5.46068 7.54421 5.45078 7.64471 5.41295 7.73605C5.37512 7.82738 5.31105 7.90545 5.22885 7.96037Z" stroke="white" stroke-width="0.32"/>
<path d="M7.67252 7.12916C7.75471 7.07424 7.85135 7.04492 7.95021 7.04492C8.08278 7.04492 8.20992 7.09758 8.30366 7.19132C8.3974 7.28506 8.45006 7.4122 8.45006 7.54477C8.45006 7.64363 8.42074 7.74027 8.36582 7.82246C8.3109 7.90466 8.23283 7.96873 8.1415 8.00656C8.05016 8.04439 7.94966 8.05429 7.8527 8.035C7.75574 8.01572 7.66668 7.96811 7.59677 7.89821C7.52687 7.8283 7.47926 7.73924 7.45998 7.64228C7.44069 7.54532 7.45059 7.44482 7.48842 7.35348C7.52625 7.26215 7.59032 7.18408 7.67252 7.12916Z" stroke="white" stroke-width="0.32"/>
</svg>
