<svg width="24" height="24" viewBox="0 0 24 24" fill="none" xmlns="http://www.w3.org/2000/svg">
<path d="M21.7099 20.29L17.9999 16.61C19.44 14.8144 20.1374 12.5353 19.9487 10.2413C19.7601 7.94733 18.6996 5.81281 16.9855 4.27667C15.2713 2.74053 13.0337 1.91954 10.7329 1.9825C8.43198 2.04546 6.24266 2.98759 4.61508 4.61517C2.9875 6.24275 2.04537 8.43207 1.98241 10.7329C1.91945 13.0338 2.74044 15.2714 4.27658 16.9855C5.81272 18.6997 7.94724 19.7601 10.2412 19.9488C12.5352 20.1375 14.8143 19.4401 16.6099 18L20.2899 21.68C20.3829 21.7738 20.4935 21.8482 20.6154 21.8989C20.7372 21.9497 20.8679 21.9758 20.9999 21.9758C21.132 21.9758 21.2627 21.9497 21.3845 21.8989C21.5064 21.8482 21.617 21.7738 21.7099 21.68C21.8902 21.4936 21.9909 21.2444 21.9909 20.985C21.9909 20.7257 21.8902 20.4765 21.7099 20.29ZM10.9999 18C9.61547 18 8.26209 17.5895 7.11095 16.8203C5.9598 16.0511 5.0626 14.9579 4.53278 13.6788C4.00297 12.3997 3.86435 10.9923 4.13444 9.63439C4.40454 8.27653 5.07122 7.02925 6.05019 6.05028C7.02916 5.07131 8.27644 4.40463 9.63431 4.13453C10.9922 3.86443 12.3996 4.00306 13.6787 4.53287C14.9578 5.06268 16.0511 5.95989 16.8202 7.11103C17.5894 8.26218 17.9999 9.61556 17.9999 11C17.9999 12.8565 17.2624 14.637 15.9497 15.9498C14.6369 17.2625 12.8565 18 10.9999 18Z" fill="#2F3945"/>
</svg>
