<svg width="25" height="24" viewBox="0 0 25 24" fill="none" xmlns="http://www.w3.org/2000/svg">
<path opacity="0.4" d="M19.59 14.49L18.59 12.83C18.38 12.46 18.19 11.76 18.19 11.35V8.82C18.19 5.56 15.54 2.9 12.27 2.9C9 2.9 6.35 5.56 6.35 8.82V11.35C6.35 11.76 6.16 12.46 5.95 12.82L4.94 14.49C4.54 15.16 4.45 15.9 4.7 16.58C4.94 17.25 5.51 17.77 6.25 18.02C8.19 18.68 10.23 19 12.27 19C14.31 19 16.35 18.68 18.29 18.03C18.99 17.8 19.53 17.27 19.79 16.58C20.05 15.89 19.98 15.13 19.59 14.49Z" fill="#7843DD"/>
<path d="M14.5 3.32C13.81 3.05 13.06 2.9 12.27 2.9C11.49 2.9 10.74 3.04 10.05 3.32C10.48 2.51 11.33 2 12.27 2C13.22 2 14.06 2.51 14.5 3.32Z" fill="#7843DD"/>
<path d="M15.08 20.01C14.66 21.17 13.55 22 12.25 22C11.46 22 10.68 21.68 10.13 21.11C9.80999 20.81 9.56999 20.41 9.42999 20C9.55999 20.02 9.68999 20.03 9.82999 20.05C10.06 20.08 10.3 20.11 10.54 20.13C11.11 20.18 11.69 20.21 12.27 20.21C12.84 20.21 13.41 20.18 13.97 20.13C14.18 20.11 14.39 20.1 14.59 20.07C14.75 20.05 14.91 20.03 15.08 20.01Z" fill="#7843DD"/>
</svg>
