<svg width="16" height="15" viewBox="0 0 16 15" fill="none" xmlns="http://www.w3.org/2000/svg">
<path d="M7.23605 1.05136C7.47651 0.316214 8.52349 0.316213 8.76395 1.05136L10.11 5.16666C10.1423 5.26529 10.2348 5.33207 10.3392 5.33207H14.6952C15.4733 5.33207 15.7969 6.3212 15.1673 6.77554L11.6433 9.31894C11.5588 9.3799 11.5235 9.48794 11.5557 9.58657L12.9018 13.7019C13.1423 14.437 12.2952 15.0483 11.6657 14.594L8.14164 12.0506C8.05718 11.9896 7.94282 11.9896 7.85836 12.0506L4.33429 14.594C3.70476 15.0483 2.85773 14.437 3.09819 13.7019L4.44427 9.58658C4.47653 9.48795 4.44118 9.3799 4.35672 9.31894L0.832657 6.77554C0.203128 6.3212 0.526663 5.33207 1.3048 5.33207H5.66079C5.76519 5.33207 5.85771 5.26529 5.88998 5.16666L7.23605 1.05136Z" fill="#0C0D0E"/>
</svg>
