<svg width="18" height="18" viewBox="0 0 18 18" fill="none" xmlns="http://www.w3.org/2000/svg">
<path fill-rule="evenodd" clip-rule="evenodd" d="M9.00008 15.6666C7.68154 15.6666 6.39261 15.2756 5.29628 14.5431C4.19996 13.8105 3.34547 12.7694 2.84089 11.5512C2.3363 10.333 2.20428 8.99256 2.46152 7.69936C2.71875 6.40615 3.35369 5.21826 4.28604 4.28591C5.21839 3.35356 6.40628 2.71863 7.69948 2.46139C8.99269 2.20416 10.3331 2.33618 11.5513 2.84076C12.7695 3.34535 13.8107 4.19983 14.5432 5.29616C15.2758 6.39249 15.6668 7.68142 15.6668 8.99996C15.6668 10.7681 14.9644 12.4638 13.7141 13.714C12.4639 14.9642 10.7682 15.6666 9.00008 15.6666ZM9.00008 11.5524C9.71566 11.5524 10.4097 11.3074 10.9668 10.8583C11.1369 10.7168 11.3563 10.6488 11.5767 10.6691C11.6858 10.6792 11.7919 10.7106 11.8888 10.7617C11.9858 10.8127 12.0717 10.8824 12.1418 10.9666C12.2832 11.1368 12.3513 11.3562 12.3309 11.5766C12.3106 11.7969 12.2036 12.0002 12.0334 12.1416C11.1823 12.8521 10.1088 13.2413 9.00008 13.2413C7.89139 13.2413 6.81787 12.8521 5.96675 12.1416C5.79657 12.0002 5.68955 11.7969 5.66923 11.5766C5.64892 11.3562 5.71697 11.1368 5.85842 10.9666C5.99987 10.7964 6.20313 10.6894 6.42348 10.6691C6.64384 10.6488 6.86324 10.7168 7.03342 10.8583C7.59049 11.3074 8.28451 11.5524 9.00008 11.5524ZM6.96306 8.02618C6.82602 8.11775 6.6649 8.16663 6.50008 8.16663C6.27907 8.16663 6.06711 8.07883 5.91083 7.92255C5.75455 7.76627 5.66675 7.55431 5.66675 7.33329C5.66675 7.16848 5.71563 7.00736 5.80719 6.87032C5.89876 6.73328 6.02891 6.62647 6.18118 6.56339C6.33345 6.50032 6.50101 6.48382 6.66266 6.51597C6.82431 6.54813 6.9728 6.62749 7.08934 6.74404C7.20588 6.86058 7.28525 7.00907 7.31741 7.17072C7.34956 7.33237 7.33306 7.49992 7.26998 7.6522C7.20691 7.80447 7.1001 7.93462 6.96306 8.02618ZM11.0371 6.6404C11.1742 6.54883 11.3353 6.49996 11.5001 6.49996C11.7211 6.49996 11.9331 6.58776 12.0893 6.74404C12.2456 6.90032 12.3334 7.11228 12.3334 7.33329C12.3334 7.49811 12.2845 7.65923 12.193 7.79627C12.1014 7.93331 11.9713 8.04012 11.819 8.10319C11.6667 8.16627 11.4992 8.18277 11.3375 8.15061C11.1759 8.11846 11.0274 8.03909 10.9108 7.92255C10.7943 7.806 10.7149 7.65752 10.6828 7.49587C10.6506 7.33422 10.6671 7.16666 10.7302 7.01439C10.7933 6.86212 10.9001 6.73197 11.0371 6.6404Z" fill="#5234AD"/>
<path fill-rule="evenodd" clip-rule="evenodd" d="M4.37033 2.07105C5.74074 1.15537 7.35191 0.666626 9.00008 0.666626C10.0944 0.666626 11.1781 0.882174 12.1891 1.30096C13.2002 1.71975 14.1188 2.33358 14.8926 3.1074C15.6665 3.88122 16.2803 4.79988 16.6991 5.81093C17.1179 6.82198 17.3334 7.90561 17.3334 8.99996C17.3334 10.6481 16.8447 12.2593 15.929 13.6297C15.0133 15.0001 13.7118 16.0682 12.1891 16.699C10.6664 17.3297 8.99084 17.4947 7.37433 17.1732C5.75782 16.8516 4.27297 16.058 3.10753 14.8925C1.94209 13.7271 1.14842 12.2422 0.826874 10.6257C0.505331 9.0092 0.670359 7.33365 1.30109 5.81093C1.93182 4.28821 2.99992 2.98672 4.37033 2.07105ZM5.29628 14.5431C6.39261 15.2756 7.68154 15.6666 9.00008 15.6666C10.7682 15.6666 12.4639 14.9642 13.7141 13.714C14.9644 12.4638 15.6668 10.7681 15.6668 8.99996C15.6668 7.68142 15.2758 6.39249 14.5432 5.29616C13.8107 4.19983 12.7695 3.34535 11.5513 2.84076C10.3331 2.33618 8.99269 2.20416 7.69948 2.46139C6.40628 2.71863 5.21839 3.35356 4.28604 4.28591C3.35369 5.21826 2.71875 6.40615 2.46152 7.69936C2.20428 8.99256 2.3363 10.333 2.84089 11.5512C3.34547 12.7694 4.19996 13.8105 5.29628 14.5431Z" fill="#5234AD"/>
</svg>
