<svg width="22" height="22" viewBox="0 0 22 22" fill="none" xmlns="http://www.w3.org/2000/svg">
<path d="M1 7C1 3.68629 3.68629 1 7 1H15C18.3137 1 21 3.68629 21 7V15C21 18.3137 18.3137 21 15 21H7C3.68629 21 1 18.3137 1 15V7Z" fill="#FAFAFA"/>
<path d="M7 1.5H15V0.5H7V1.5ZM20.5 7V15H21.5V7H20.5ZM15 20.5H7V21.5H15V20.5ZM1.5 15V7H0.5V15H1.5ZM7 20.5C3.96243 20.5 1.5 18.0376 1.5 15H0.5C0.5 18.5899 3.41015 21.5 7 21.5V20.5ZM20.5 15C20.5 18.0376 18.0376 20.5 15 20.5V21.5C18.5899 21.5 21.5 18.5899 21.5 15H20.5ZM15 1.5C18.0376 1.5 20.5 3.96243 20.5 7H21.5C21.5 3.41015 18.5899 0.5 15 0.5V1.5ZM7 0.5C3.41015 0.5 0.5 3.41015 0.5 7H1.5C1.5 3.96243 3.96243 1.5 7 1.5V0.5Z" fill="#828282"/>
</svg>