<svg width="25" height="24" viewBox="0 0 25 24" fill="none" xmlns="http://www.w3.org/2000/svg">
<path d="M18.23 10.79V14.79C18.23 15.05 18.22 15.3 18.19 15.54C17.96 18.24 16.37 19.58 13.44 19.58H13.04C12.79 19.58 12.55 19.7 12.4 19.9L11.2 21.5C10.67 22.21 9.81 22.21 9.28 21.5L8.07999 19.9C7.94999 19.73 7.66 19.58 7.44 19.58H7.04001C3.85001 19.58 2.25 18.79 2.25 14.79V10.79C2.25 7.86001 3.60001 6.27001 6.29001 6.04001C6.53001 6.01001 6.78001 6 7.04001 6H13.44C16.63 6 18.23 7.60001 18.23 10.79Z" stroke="#5234AD" stroke-width="1.5" stroke-miterlimit="10" stroke-linecap="round" stroke-linejoin="round"/>
<path d="M22.23 6.79001V10.79C22.23 13.73 20.88 15.31 18.19 15.54C18.22 15.3 18.23 15.05 18.23 14.79V10.79C18.23 7.60001 16.63 6 13.44 6H7.04004C6.78004 6 6.53004 6.01001 6.29004 6.04001C6.52004 3.35001 8.11004 2 11.04 2H17.44C20.63 2 22.23 3.60001 22.23 6.79001Z" stroke="#5234AD" stroke-width="1.5" stroke-miterlimit="10" stroke-linecap="round" stroke-linejoin="round"/>
<path d="M13.7455 13.25H13.7545" stroke="#5234AD" stroke-width="2" stroke-linecap="round" stroke-linejoin="round"/>
<path d="M10.2455 13.25H10.2545" stroke="#5234AD" stroke-width="2" stroke-linecap="round" stroke-linejoin="round"/>
<path d="M6.7455 13.25H6.7545" stroke="#5234AD" stroke-width="2" stroke-linecap="round" stroke-linejoin="round"/>
</svg>
