<svg width="18" height="16" viewBox="0 0 18 16" fill="none" xmlns="http://www.w3.org/2000/svg">
<path d="M13.584 7.79167C14.3126 7.79183 15.0271 7.99312 15.6487 8.37336C16.2703 8.75359 16.7748 9.29803 17.1068 9.94667C17.4388 10.5953 17.5852 11.323 17.5301 12.0496C17.4749 12.7761 17.2203 13.4734 16.7942 14.0645C16.3682 14.6556 15.7872 15.1177 15.1154 15.3997C14.4435 15.6818 13.7069 15.7729 12.9865 15.6631C12.2662 15.5533 11.5902 15.2468 11.0329 14.7773C10.4756 14.3079 10.0587 13.6937 9.82815 13.0025H8.17315C7.87438 13.8926 7.26904 14.6477 6.46515 15.1328C5.66126 15.618 4.71114 15.8017 3.78433 15.6512C2.85752 15.5008 2.01434 15.0259 1.40524 14.3113C0.796149 13.5967 0.460781 12.6889 0.458986 11.75C0.458195 10.7358 0.846752 9.75992 1.54448 9.02382C2.24221 8.28772 3.19588 7.84754 4.2087 7.79408C5.22153 7.74063 6.21623 8.07799 6.98756 8.73656C7.7589 9.39513 8.24801 10.3247 8.35399 11.3333H9.64732C9.75024 10.361 10.2094 9.46123 10.9362 8.8073C11.6631 8.15337 12.6063 7.79159 13.584 7.79167ZM4.41732 9.45833C3.80953 9.45833 3.22664 9.69978 2.79687 10.1295C2.36709 10.5593 2.12565 11.1422 2.12565 11.75C2.12565 12.3578 2.36709 12.9407 2.79687 13.3705C3.22664 13.8002 3.80953 14.0417 4.41732 14.0417C5.02511 14.0417 5.608 13.8002 6.03777 13.3705C6.46754 12.9407 6.70898 12.3578 6.70898 11.75C6.70898 11.1422 6.46754 10.5593 6.03777 10.1295C5.608 9.69978 5.02511 9.45833 4.41732 9.45833ZM13.584 9.45833C12.9762 9.45833 12.3933 9.69978 11.9635 10.1295C11.5338 10.5593 11.2923 11.1422 11.2923 11.75C11.2923 12.3578 11.5338 12.9407 11.9635 13.3705C12.3933 13.8002 12.9762 14.0417 13.584 14.0417C14.1918 14.0417 14.7747 13.8002 15.2044 13.3705C15.6342 12.9407 15.8757 12.3578 15.8757 11.75C15.8757 11.1422 15.6342 10.5593 15.2044 10.1295C14.7747 9.69978 14.1918 9.45833 13.584 9.45833ZM11.9273 0.5C12.4202 0.500015 12.8999 0.658926 13.2953 0.953153C13.6907 1.24738 13.9807 1.66124 14.1223 2.13333L14.9607 4.925C15.6215 5.03583 16.2673 5.165 16.8998 5.31417C17.009 5.33657 17.1126 5.38064 17.2044 5.44377C17.2963 5.50691 17.3745 5.58783 17.4345 5.68175C17.4946 5.77567 17.5351 5.88067 17.5538 5.99054C17.5726 6.10041 17.5691 6.21292 17.5435 6.32141C17.518 6.4299 17.471 6.53217 17.4052 6.62216C17.3394 6.71215 17.2563 6.78804 17.1607 6.84532C17.0651 6.90261 16.959 6.94014 16.8486 6.95569C16.7382 6.97123 16.6259 6.96448 16.5182 6.93583C14.2215 6.39583 11.7165 6.125 9.00065 6.125C6.28482 6.125 3.77982 6.39583 1.48315 6.93583C1.27072 6.97941 1.04967 6.93846 0.866938 6.82169C0.684209 6.70491 0.554199 6.5215 0.504518 6.31041C0.454838 6.09932 0.4894 5.87718 0.600864 5.69116C0.712329 5.50515 0.891915 5.36991 1.10149 5.31417C1.74314 5.16339 2.3896 5.03388 3.03982 4.92583L3.87899 2.13333C4.02057 1.66124 4.31058 1.24738 4.70599 0.953153C5.10139 0.658926 5.58112 0.500015 6.07399 0.5H11.9273Z" fill="#3F4B5B"/>
</svg>
