<svg width="24" height="24" viewBox="0 0 24 24" fill="none" xmlns="http://www.w3.org/2000/svg">
<path fill-rule="evenodd" clip-rule="evenodd" d="M19.63 3.64836C19.5138 3.55438 19.3781 3.48763 19.2327 3.45302C19.0873 3.41841 18.9361 3.41681 18.79 3.44836C17.7214 3.6723 16.6183 3.67515 15.5486 3.45674C14.4789 3.23833 13.4653 2.80327 12.57 2.17836C12.4026 2.06223 12.2037 2 12 2C11.7963 2 11.5974 2.06223 11.43 2.17836C10.5348 2.80327 9.52108 3.23833 8.45137 3.45674C7.38166 3.67515 6.27857 3.6723 5.21001 3.44836C5.06394 3.41681 4.91267 3.41841 4.76731 3.45302C4.62194 3.48763 4.48618 3.55438 4.37001 3.64836C4.25399 3.74247 4.16053 3.86139 4.0965 3.99637C4.03247 4.13135 3.9995 4.27896 4.00001 4.42836V11.8784C3.99912 13.3121 4.34078 14.7253 4.99654 16.0003C5.6523 17.2753 6.60319 18.3752 7.77001 19.2084L11.42 21.8084C11.5894 21.9289 11.7921 21.9937 12 21.9937C12.2079 21.9937 12.4106 21.9289 12.58 21.8084L16.23 19.2084C17.3968 18.3752 18.3477 17.2753 19.0035 16.0003C19.6592 14.7253 20.0009 13.3121 20 11.8784V4.42836C20.0005 4.27896 19.9675 4.13135 19.9035 3.99637C19.8395 3.86139 19.746 3.74247 19.63 3.64836ZM15.8545 9.8327C15.9155 9.88245 15.9614 9.94966 15.9866 10.0262C16.006 10.1027 16.0043 10.1834 15.9817 10.2589C15.9591 10.3344 15.9164 10.4017 15.8588 10.4529L14.209 12.1261L14.6085 14.5022C14.6227 14.5806 14.6152 14.6617 14.5869 14.7358C14.5586 14.8099 14.5106 14.874 14.4487 14.9205C14.3801 14.9725 14.2976 15.0003 14.213 15C14.1486 15.0002 14.0853 14.9829 14.0292 14.9498L11.992 13.8287L9.9468 14.9456C9.8812 14.982 9.8072 14.9986 9.73311 14.9934C9.65902 14.9883 9.58778 14.9616 9.52737 14.9163C9.4654 14.8698 9.41742 14.8057 9.38911 14.7316C9.3608 14.6575 9.35333 14.5764 9.36759 14.498L9.76705 12.122L8.11729 10.4487C8.06595 10.395 8.02952 10.3277 8.01193 10.254C7.99433 10.1803 7.99624 10.103 8.01743 10.0304C8.04058 9.95601 8.08317 9.88995 8.14036 9.83967C8.19755 9.78939 8.26706 9.7569 8.34099 9.7459L10.6139 9.39451L11.6325 7.23598C11.6652 7.16525 11.7163 7.10561 11.7799 7.06387C11.8435 7.02214 11.917 7 11.992 7C12.0671 7 12.1406 7.02214 12.2042 7.06387C12.2677 7.10561 12.3188 7.16525 12.3515 7.23598L13.3701 9.39869L15.643 9.7459C15.7201 9.7528 15.7935 9.78295 15.8545 9.8327Z" fill="#0C0D0E"/>
</svg>
