<svg width="25" height="24" viewBox="0 0 25 24" fill="none" xmlns="http://www.w3.org/2000/svg">
<path d="M18.8903 16.9903L19.1708 17.1563L19.4359 16.9667C19.8566 16.6658 20.3602 16.5027 20.8773 16.5C21.4008 16.4981 21.9117 16.6606 22.3379 16.9645C22.7642 17.2685 23.0843 17.6988 23.253 18.1945C23.4218 18.6902 23.4306 19.2263 23.2782 19.7273C23.1259 20.2283 22.8201 20.6688 22.404 20.9867C21.9879 21.3045 21.4824 21.4837 20.959 21.4989C20.4356 21.5141 19.9207 21.3646 19.4868 21.0715C19.0529 20.7783 18.722 20.3563 18.5408 19.8651C18.3596 19.3738 18.3373 18.838 18.4769 18.3333L18.5786 17.9657L18.2509 17.7704L15.9509 16.4004L15.6176 16.2019L15.3425 16.4754C14.6867 17.1273 13.7997 17.4932 12.875 17.4932C11.9504 17.4932 11.0633 17.1273 10.4075 16.4754L10.1324 16.2019L9.79913 16.4004L7.49913 17.7704L7.16653 17.9686L7.27505 18.3402C7.33801 18.5558 7.37163 18.7788 7.375 19.0034C7.37433 19.4967 7.22775 19.9788 6.95368 20.3889C6.67897 20.8001 6.28852 21.1205 5.83171 21.3097C5.3749 21.4989 4.87223 21.5484 4.38728 21.452C3.90232 21.3555 3.45687 21.1174 3.10723 20.7678C2.7576 20.4181 2.5195 19.9727 2.42304 19.4877C2.32658 19.0028 2.37608 18.5001 2.5653 18.0433C2.75452 17.5865 3.07495 17.196 3.48608 16.9213C3.89684 16.6469 4.37971 16.5003 4.87372 16.5C5.39053 16.5029 5.89374 16.666 6.31409 16.9667L6.57918 17.1563L6.85966 16.9903L9.30966 15.5403L9.65339 15.3369L9.53091 14.9567C9.4311 14.6469 9.37855 14.3238 9.37501 13.9983C9.37825 13.2255 9.63719 12.4754 10.1115 11.8652C10.5864 11.2541 11.2506 10.8176 12 10.6241L12.375 10.5273V10.14V7.82V7.46645L12.0417 7.3486C11.4857 7.15202 11.017 6.76521 10.7186 6.25653C10.4202 5.74786 10.3113 5.15007 10.411 4.56882L9.91821 4.48427L10.411 4.56882C10.5107 3.98758 10.8127 3.4603 11.2636 3.08018C11.7145 2.70006 12.2853 2.49158 12.875 2.49158C13.4647 2.49158 14.0355 2.70006 14.4864 3.08018C14.9373 3.4603 15.2393 3.98758 15.339 4.56882C15.4387 5.15007 15.3298 5.74786 15.0314 6.25653C14.733 6.76521 14.2643 7.15202 13.7083 7.3486L13.375 7.46645V7.82V10.14V10.5273L13.75 10.6241C14.4994 10.8176 15.1636 11.2541 15.6385 11.8652C16.1128 12.4754 16.3717 13.2255 16.375 13.9983C16.3715 14.3238 16.3189 14.6469 16.2191 14.9567L16.0966 15.3369L16.4403 15.5403L18.8903 16.9903ZM4.04164 20.2472C4.28832 20.412 4.57833 20.5 4.875 20.5C5.27283 20.5 5.65436 20.342 5.93566 20.0607C6.21697 19.7794 6.375 19.3978 6.375 19C6.375 18.7033 6.28703 18.4133 6.12221 18.1666C5.95738 17.92 5.72311 17.7277 5.44903 17.6142C5.17494 17.5007 4.87334 17.4709 4.58236 17.5288C4.2914 17.5867 4.02412 17.7296 3.81434 17.9393C3.60456 18.1491 3.4617 18.4164 3.40382 18.7074C3.34595 18.9983 3.37565 19.2999 3.48918 19.574C3.60271 19.8481 3.79497 20.0824 4.04164 20.2472ZM13.7084 3.7528C13.4617 3.58798 13.1717 3.5 12.875 3.5C12.4772 3.5 12.0956 3.65804 11.8143 3.93934C11.533 4.22065 11.375 4.60218 11.375 5C11.375 5.29668 11.463 5.58669 11.6278 5.83336C11.7926 6.08003 12.0269 6.27229 12.301 6.38582C12.5751 6.49935 12.8767 6.52906 13.1676 6.47118C13.4586 6.4133 13.7259 6.27044 13.9357 6.06066C14.1454 5.85089 14.2883 5.58361 14.3462 5.29264C14.4041 5.00167 14.3744 4.70007 14.2608 4.42598C14.1473 4.15189 13.955 3.91762 13.7084 3.7528ZM11.4861 16.0787C11.8972 16.3534 12.3805 16.5 12.875 16.5C13.538 16.5 14.1739 16.2366 14.6428 15.7678C15.1116 15.2989 15.375 14.663 15.375 14C15.375 13.5056 15.2284 13.0222 14.9537 12.6111C14.679 12.2 14.2885 11.8795 13.8317 11.6903C13.3749 11.5011 12.8722 11.4516 12.3873 11.548C11.9023 11.6445 11.4569 11.8826 11.1072 12.2322C10.7576 12.5819 10.5195 13.0273 10.423 13.5123C10.3266 13.9972 10.3761 14.4999 10.5653 14.9567C10.7545 15.4135 11.075 15.804 11.4861 16.0787ZM20.0416 20.2472C20.2883 20.412 20.5783 20.5 20.875 20.5C21.2728 20.5 21.6544 20.342 21.9357 20.0607C22.217 19.7794 22.375 19.3978 22.375 19C22.375 18.7033 22.287 18.4133 22.1222 18.1666C21.9574 17.92 21.7231 17.7277 21.449 17.6142C21.1749 17.5007 20.8733 17.4709 20.5824 17.5288C20.2914 17.5867 20.0241 17.7296 19.8143 17.9393C19.6046 18.1491 19.4617 18.4164 19.4038 18.7074C19.3459 18.9983 19.3757 19.2999 19.4892 19.574C19.6027 19.8481 19.795 20.0824 20.0416 20.2472Z" fill="#7843DD" stroke="#7843DD"/>
</svg>
