<svg width="25" height="18" viewBox="0 0 25 18" fill="none" xmlns="http://www.w3.org/2000/svg">
<path d="M4.1 7.85284C5.42375 7.85284 6.5 6.76871 6.5 5.43526C6.5 4.10181 5.42375 3.01768 4.1 3.01768C2.77625 3.01768 1.7 4.10181 1.7 5.43526C1.7 6.76871 2.77625 7.85284 4.1 7.85284ZM20.9 7.85284C22.2238 7.85284 23.3 6.76871 23.3 5.43526C23.3 4.10181 22.2238 3.01768 20.9 3.01768C19.5763 3.01768 18.5 4.10181 18.5 5.43526C18.5 6.76871 19.5763 7.85284 20.9 7.85284ZM22.1 9.06164H19.7C19.04 9.06164 18.4438 9.32984 18.0088 9.76425C19.52 10.5991 20.5925 12.1063 20.825 13.8968H23.3C23.9638 13.8968 24.5 13.3566 24.5 12.688V11.4792C24.5 10.1458 23.4238 9.06164 22.1 9.06164ZM12.5 9.06164C14.8213 9.06164 16.7 7.16912 16.7 4.83087C16.7 2.49261 14.8213 0.600098 12.5 0.600098C10.1788 0.600098 8.3 2.49261 8.3 4.83087C8.3 7.16912 10.1788 9.06164 12.5 9.06164ZM15.38 10.2704H15.0688C14.2888 10.6482 13.4225 10.8748 12.5 10.8748C11.5775 10.8748 10.715 10.6482 9.93125 10.2704H9.62C7.235 10.2704 5.3 12.2196 5.3 14.6221V15.71C5.3 16.711 6.10625 17.5232 7.1 17.5232H17.9C18.8938 17.5232 19.7 16.711 19.7 15.71V14.6221C19.7 12.2196 17.765 10.2704 15.38 10.2704ZM6.99125 9.76425C6.55625 9.32984 5.96 9.06164 5.3 9.06164H2.9C1.57625 9.06164 0.5 10.1458 0.5 11.4792V12.688C0.5 13.3566 1.03625 13.8968 1.7 13.8968H4.17125C4.4075 12.1063 5.48 10.5991 6.99125 9.76425Z" fill="none"/>
</svg>
