<svg width="133" height="101" viewBox="0 0 133 101" fill="none" xmlns="http://www.w3.org/2000/svg">
<path d="M64.6235 85.2759C87.7292 85.2759 106.461 66.9622 106.461 44.2918C106.461 21.6215 87.6466 3.30774 64.6235 3.30774C41.5178 3.30774 22.7856 21.6215 22.7856 44.2918C22.7856 66.9622 41.5178 85.2759 64.6235 85.2759Z" fill="#EAEEF9"/>
<path d="M103.738 17.4262C105.607 17.4262 107.121 15.9453 107.121 14.1184C107.121 12.2916 105.607 10.8107 103.738 10.8107C101.87 10.8107 100.355 12.2916 100.355 14.1184C100.355 15.9453 101.87 17.4262 103.738 17.4262Z" fill="#EAEEF9"/>
<path d="M108.689 4.51793C109.966 4.51793 111 3.50656 111 2.25897C111 1.01137 109.966 0 108.689 0C107.413 0 106.379 1.01137 106.379 2.25897C106.379 3.50656 107.413 4.51793 108.689 4.51793Z" fill="#EAEEF9"/>
<path d="M25.0135 17.3457C26.2895 17.3457 27.324 16.3343 27.324 15.0867C27.324 13.8391 26.2895 12.8278 25.0135 12.8278C23.7374 12.8278 22.7029 13.8391 22.7029 15.0867C22.7029 16.3343 23.7374 17.3457 25.0135 17.3457Z" fill="#EAEEF9"/>
<path d="M15.2911 66.178C17.6609 66.178 19.5821 64.2998 19.5821 61.9828C19.5821 59.6659 17.6609 57.7876 15.2911 57.7876C12.9212 57.7876 11 59.6659 11 61.9828C11 64.2998 12.9212 66.178 15.2911 66.178Z" fill="#EAEEF9"/>
<g filter="url(#filter0_d_1841_22089)">
<path d="M109.15 62.5484H96.4574C95.8571 62.5484 95.3425 62.1711 95.171 61.668C93.9275 58.0627 91.1831 57.1823 84.5367 54.625C84.1508 54.4573 84.1079 53.9543 84.4938 53.7447C86.4234 52.8224 86.0804 52.0258 86.0804 46.4921C85.9946 46.4082 85.9089 46.2824 85.866 46.1986C85.4372 45.5698 85.137 44.8152 85.0513 44.0605L84.6225 43.8509C83.336 44.1444 83.4218 42.8029 83.0788 40.2037C82.9501 39.1137 83.1216 38.9041 83.5933 38.7364L84.0221 38.1914C81.4922 32.6576 82.7786 29.178 85.2657 27.9204C84.4509 26.1596 84.4081 25.5308 84.4081 25.5308C84.4081 25.5308 89.6823 26.4111 91.4833 26.0338C93.7988 25.5727 97.315 26.1177 98.6443 29.0942C100.831 29.9326 101.689 31.3161 101.903 32.7414C102.203 35.0891 100.874 37.6464 100.617 38.6525C100.66 38.6945 100.66 38.7364 100.703 38.7783C101.046 38.946 101.174 39.2394 101.046 40.1617C100.745 42.6352 100.788 44.1863 99.5019 43.809L98.3441 45.7794C98.3013 46.0309 98.2584 46.1148 98.2584 46.2405C98.2155 46.6178 98.2155 47.3305 98.2155 51.4389C98.2155 51.942 98.3441 52.4031 98.6014 52.7804C98.8587 53.2416 99.2875 53.577 99.8021 53.7866H99.845C102.847 55.0023 104.991 55.7989 106.577 56.4277C110.093 57.8112 110.694 58.1885 110.994 60.4942C111.08 61.6261 110.265 62.5484 109.15 62.5484Z" fill="white"/>
</g>
<path d="M100.53 38.61C100.659 37.9812 100.358 37.2266 100.101 36.6816C100.058 36.5978 100.015 36.5139 99.9725 36.3882C98.9862 34.4178 96.7136 33.5793 94.5695 33.4955C89.0809 33.202 88.5663 34.2501 86.8511 32.699C87.3657 33.4955 87.4514 34.7112 86.5938 36.2624C86.0364 37.3524 84.9215 37.8135 83.9352 38.1489C81.4482 32.6151 82.6917 29.1355 85.1788 27.8779C84.3641 26.1171 84.3212 25.4883 84.3212 25.4883C84.3212 25.4883 89.5954 26.3687 91.3964 25.9914C93.7119 25.5302 97.2281 26.0752 98.5574 29.0517C100.744 29.8902 101.602 31.2736 101.816 32.699C102.159 35.0466 100.787 37.6039 100.53 38.61Z" fill="url(#paint0_linear_1841_22089)"/>
<path opacity="0.1" d="M107.82 62.5478C109.149 60.5355 108.634 58.649 106.49 56.4271C110.006 57.8106 110.607 58.1879 110.907 60.4936C111.078 61.5417 110.221 62.5059 109.106 62.5059H107.82V62.5478Z" fill="#9AA2B2"/>
<path d="M98.5145 52.8216V53.7859H85.7791V52.5282C86.0792 51.8574 85.9935 51.8994 85.9935 46.4913C85.9077 46.4075 85.8219 46.2817 85.7791 46.1979V45.9044C86.0363 46.3656 86.4223 46.7848 86.8082 47.1202L90.796 49.8451C91.7394 50.5998 93.0687 50.6417 94.0121 49.8871L97.7427 46.6171C97.8713 46.4913 97.9999 46.4075 98.1286 46.2817C98.0857 46.659 98.0857 47.3717 98.0857 51.4801C98.1286 51.9413 98.2572 52.4024 98.5145 52.8216Z" fill="url(#paint1_linear_1841_22089)"/>
<g filter="url(#filter1_d_1841_22089)">
<path d="M43.5421 53.199C41.4838 53.1571 41.2694 52.7798 41.2694 52.7798V49.426C43.4563 47.6652 45.3001 45.611 45.8147 42.928C47.1869 42.6345 48.0445 41.4188 47.9158 40.0773C47.873 39.4903 47.487 38.9453 47.4442 38.3165C47.4442 38.023 47.4442 37.7296 47.4442 37.4361C47.4442 37.2265 47.4442 37.0588 47.4013 36.8492C47.4013 36.6396 47.3584 36.43 47.3584 36.2204C47.2298 35.2142 46.9725 34.1662 46.2864 32.9504C44.5712 29.8062 41.1836 27.7101 37.3673 27.7101C36.5955 27.7101 35.8236 27.7939 35.0946 27.9616C33.7225 28.2551 32.4789 28.842 31.3641 29.6804C31.1497 29.8481 30.9353 30.0158 30.7209 30.1835C30.678 30.2254 30.6351 30.2674 30.5493 30.3093C29.3487 31.3993 28.4053 32.7827 27.8908 34.3339C27.3762 35.885 27.2476 37.478 27.462 39.0711C27.462 39.113 27.462 39.155 27.462 39.1969C27.462 39.2388 27.462 39.2807 27.462 39.3226C27.5048 39.6161 27.5906 39.5742 27.3762 39.8257C27.3333 39.9096 27.2476 39.9934 27.2047 40.1192C26.9474 40.5803 26.733 41.2092 27.0332 41.9638C27.5477 43.3891 28.5768 43.1795 29.5202 43.9761C29.4773 44.018 29.3916 44.0599 29.3487 44.0599H29.3058L28.2338 44.3953C21.8018 46.3656 21.0728 53.0313 27.6764 54.2471C27.2047 54.289 26.7759 54.5405 26.4757 54.7502C24.3746 56.3432 23.0453 58.7747 22.7022 61.1643C22.5736 61.877 23.1739 62.5478 23.9458 62.5478H34.1513C34.3657 62.5478 34.5801 62.3801 34.6658 62.1705C35.6092 58.8167 37.7532 57.6428 42.2128 55.8821L44.7856 54.8759C45.2144 54.7082 45.6861 54.5405 46.2006 54.3309C46.6723 54.1632 46.6294 53.4925 46.1149 53.3667C45.6003 53.2409 45.0857 53.199 44.5712 53.1571C44.1424 53.199 43.7993 53.199 43.5421 53.199ZM30.4636 48.9229C30.4636 48.5037 30.7637 48.0425 31.4069 47.5395C31.6642 47.8749 32.0073 48.2522 32.3932 48.5875C32.6933 48.8391 32.9935 49.0906 33.3366 49.3421C33.551 49.4679 33.7654 49.6356 33.9798 49.8033C34.0226 49.8452 34.0655 49.8871 34.1084 49.8871C34.1513 49.9291 34.237 49.971 34.2799 50.0129V52.0671C34.237 52.0252 34.1942 51.9833 34.1513 51.9833C33.9369 51.8156 33.7654 51.6479 33.5938 51.5221C33.2937 51.3125 32.9935 51.1448 32.6933 50.9771C32.5647 50.8933 32.4789 50.8514 32.3932 50.7675C31.4069 50.1387 30.5065 49.5518 30.4636 48.9229Z" fill="white"/>
</g>
<path d="M43.5418 53.1991C43.1988 54.4149 42.8129 55.1695 42.8129 55.1695L31.7498 53.4506L32.393 50.7676C32.4787 50.8514 32.6074 50.8934 32.6931 50.9353C32.9933 51.103 33.3363 51.3126 33.5936 51.5222C33.7651 51.648 33.9795 51.7737 34.151 51.9834C34.1939 52.0253 34.2368 52.0672 34.2368 52.0672V50.013C34.151 49.9711 34.1082 49.9292 34.0653 49.8872C35.8663 50.7676 38.096 51.2287 41.3121 49.3842C41.2692 49.3842 41.2692 49.4261 41.2263 49.4261V52.7799C41.2263 52.7799 41.4836 53.1572 43.5418 53.1991Z" fill="url(#paint2_linear_1841_22089)"/>
<path d="M47.3583 36.8492C45.5144 37.478 43.5419 37.7295 41.5695 37.5618C38.4821 37.3103 35.4805 36.0946 33.1649 34.0823C32.3931 36.2622 30.4635 37.8972 28.2766 38.8614C27.9764 38.9872 27.6762 39.113 27.3761 39.1968C27.3761 39.1549 27.3761 39.113 27.3761 39.113C27.1617 37.5199 27.2903 35.9269 27.8049 34.3757C28.3195 32.8246 29.2628 31.4411 30.4635 30.3512C30.5063 30.3092 30.5492 30.2673 30.635 30.2254C30.8494 30.0577 31.0638 29.89 31.2782 29.7223C32.3931 28.9258 33.6795 28.3389 35.0088 28.0035C35.7806 27.8358 36.5096 27.752 37.2814 27.752C41.0978 27.752 44.4853 29.8481 46.2005 32.9923C46.8437 34.208 47.1439 35.2561 47.2725 36.2203C47.3583 36.4299 47.3583 36.6395 47.3583 36.8492Z" fill="url(#paint3_linear_1841_22089)"/>
<path d="M31.5356 47.6653C31.7929 48.0007 32.0931 48.2941 32.3504 48.5456C32.0502 48.2941 31.75 48.0007 31.5356 47.6653Z" fill="#3973F4"/>
<path d="M35.5664 58.2717C34.7517 59.2778 33.208 59.3198 31.9216 59.2778C33.2937 57.9782 32.5219 53.7441 27.7193 54.2471H27.6764C21.0729 53.0314 21.8018 46.3657 28.191 44.3953L29.263 44.0599C29.3487 44.1019 29.3916 44.1438 29.4345 44.2276C29.9491 45.5272 30.6352 46.6172 31.3641 47.4976C28.7484 49.6356 32.3932 50.3064 34.1513 51.9414C35.695 52.8218 36.9814 56.5109 35.5664 58.2717Z" fill="url(#paint4_linear_1841_22089)"/>
<path d="M31.4927 47.6653C31.4499 47.6234 31.407 47.5815 31.407 47.5396C31.407 47.5396 31.4499 47.6234 31.4927 47.6653Z" fill="#3973F4"/>
<g filter="url(#filter2_d_1841_22089)">
<path d="M92.7256 64.4763C92.94 66.0274 91.6964 67.4528 90.067 67.4528H39.8113C38.1819 67.4528 36.9384 66.0274 37.1528 64.4763C37.6244 61.2482 38.3534 60.5775 43.2418 58.649L44.4424 58.1879C46.7151 57.3075 49.6738 56.2175 53.6617 54.5825C54.5621 54.2052 55.2911 53.5345 55.677 52.6541C55.8914 52.193 56.0201 51.648 56.0201 51.103V43.7665C55.8914 43.5988 55.7628 43.4731 55.677 43.3054C55.0338 42.3831 54.605 41.2931 54.4764 40.1192L53.8332 39.8258C51.9036 40.2869 52.0751 38.2747 51.5605 34.4178C51.3461 32.8247 51.6034 32.4893 52.3324 32.2378L52.9327 31.4413C49.245 23.2664 51.0888 18.1518 54.7337 16.3491C53.6188 13.7499 53.533 12.8276 53.533 12.8276C53.533 12.8276 61.2943 14.0853 63.9529 13.5822C67.3405 12.9115 72.5718 13.708 74.5015 18.1099C77.7175 19.3676 78.961 21.3379 79.2612 23.5179C79.7329 26.9556 77.7175 30.7286 77.3316 32.1959C77.3744 32.2797 77.3744 32.3216 77.4173 32.3636C77.9319 32.6151 78.1034 33.0343 77.9319 34.4178C77.4602 38.065 77.5888 40.3289 75.6592 39.8258L73.944 42.7604C73.8583 43.0957 73.8583 43.2215 73.8154 43.4731C73.7296 44.018 73.7725 45.108 73.7725 51.103C73.7725 51.8157 73.9869 52.5283 74.3728 53.0733C74.8016 53.7022 75.4019 54.2472 76.1309 54.5406C76.1738 54.5406 76.1738 54.5406 76.2167 54.5825C80.6333 56.3852 83.8065 57.559 86.122 58.4394C91.3963 60.4517 92.211 61.0805 92.7256 64.4763Z" fill="white"/>
</g>
<path d="M77.3744 32.1959C77.5459 31.2736 77.1171 30.1417 76.774 29.3451C76.7312 29.2194 76.6454 29.0936 76.6025 28.9259C75.1017 25.9913 71.7999 24.8175 68.6268 24.6498C60.5224 24.2306 59.7935 25.7398 57.2635 23.476C58.0354 24.6498 58.1211 26.4525 56.9205 28.7163C56.0629 30.3094 54.4334 31.022 53.0184 31.4832C49.3307 23.3083 51.1745 18.1937 54.8193 16.3911C53.6187 13.7499 53.5329 12.8276 53.5329 12.8276C53.5329 12.8276 61.2943 14.0853 63.9528 13.5822C67.3404 12.9115 72.5718 13.708 74.5014 18.1099C77.7174 19.3676 78.9609 21.3379 79.2611 23.5179C79.7757 26.9136 77.7603 30.6867 77.3744 32.1959Z" fill="url(#paint5_linear_1841_22089)"/>
<path opacity="0.1" d="M88.1805 67.4109C90.153 64.4763 89.3811 61.7094 86.208 58.4395C91.3965 60.4517 92.2541 61.0806 92.7258 64.4344C92.9402 65.9855 91.6967 67.4109 90.0672 67.4109H88.1805Z" fill="#9AA2B2"/>
<path d="M74.416 53.0733V54.4987H55.7202V52.6541C55.9346 52.1929 56.0633 51.6479 56.0633 51.1029V43.7665C55.9346 43.5988 55.806 43.473 55.7202 43.3053V42.8861C56.1061 43.5569 56.6207 44.1857 57.2639 44.6888L63.1385 48.7133C64.5107 49.8453 66.4832 49.8872 67.8982 48.7972L73.3869 43.9761C73.5584 43.8084 73.7728 43.6407 73.9443 43.473C73.8586 44.018 73.9014 45.108 73.9014 51.1029C73.8586 51.8156 74.073 52.4864 74.416 53.0733Z" fill="url(#paint6_linear_1841_22089)"/>
<path d="M97.0476 68.3459L81.2993 52.9615L84.9096 49.4319L100.645 64.8284L97.0476 68.3459Z" fill="#858B9B"/>
<path d="M102.522 73.759L90.446 61.953C89.4376 60.9671 89.4376 59.3605 90.446 58.3747C91.4544 57.3888 93.0977 57.3888 94.1061 58.3747L106.182 70.1807C107.19 71.1665 107.19 72.7731 106.182 73.759C105.173 74.7449 103.53 74.7449 102.522 73.759Z" fill="#858B9B"/>
<path d="M101.663 74.5137L86.1262 59.3241C85.7652 58.9711 85.7652 58.3991 86.1262 58.0339L90.0975 54.1513C90.4586 53.7984 91.0437 53.7984 91.4172 54.1513L106.954 69.3409C107.315 69.6939 107.315 70.2659 106.954 70.6311L102.982 74.5137C102.609 74.8666 102.024 74.8666 101.663 74.5137Z" fill="url(#paint7_linear_1841_22089)"/>
<path d="M63.4719 3.38843C46.9891 3.38843 33.6311 16.4481 33.6311 32.5627C33.6311 48.6652 46.9891 61.737 63.4594 61.737C79.9422 61.737 93.3002 48.6773 93.3002 32.5627C93.3002 16.4481 79.9422 3.38843 63.4719 3.38843ZM63.4719 56.333C50.2383 56.333 39.5196 45.6832 39.5196 32.5505C39.5196 19.4179 50.2383 8.78025 63.4719 8.78025C76.7054 8.78025 87.4241 19.43 87.4241 32.5627C87.4241 45.6954 76.6929 56.333 63.4719 56.333Z" fill="url(#paint8_linear_1841_22089)"/>
<path d="M63.8321 38.7308C63.7654 38.4702 63.7654 38.2096 63.7654 37.8839C63.7654 36.7766 64.2318 35.7995 65.4311 34.9527L66.4305 34.2361C67.0302 33.7802 67.2967 33.259 67.2967 32.6076C67.2967 31.6957 66.6304 30.7837 65.2312 30.7837C63.7654 30.7837 63.0992 31.9562 63.0992 33.0636C63.0992 33.3242 63.0992 33.5196 63.1658 33.715L60.5007 33.6499C60.4341 33.3893 60.3674 33.0636 60.3674 32.7379C60.3674 30.5232 62.0331 28.4387 65.1646 28.4387C68.3627 28.4387 70.0951 30.458 70.0951 32.4774C70.0951 34.1059 69.2289 35.2132 68.0296 36.06L67.1634 36.6463C66.4305 37.1674 66.0308 37.8188 66.0308 38.6005V38.7308H63.8321ZM64.9647 40.0335C65.8975 40.0335 66.6304 40.7501 66.6304 41.662C66.6304 42.574 65.8975 43.2905 64.9647 43.2905C64.0319 43.2905 63.299 42.574 63.299 41.662C63.3657 40.8152 64.0319 40.0335 64.9647 40.0335Z" fill="#989FB0"/>
<defs>
<filter id="filter0_d_1841_22089" x="60.6477" y="14.5308" width="72.3523" height="81.0177" filterUnits="userSpaceOnUse" color-interpolation-filters="sRGB">
<feFlood flood-opacity="0" result="BackgroundImageFix"/>
<feColorMatrix in="SourceAlpha" type="matrix" values="0 0 0 0 0 0 0 0 0 0 0 0 0 0 0 0 0 0 127 0" result="hardAlpha"/>
<feOffset dy="11"/>
<feGaussianBlur stdDeviation="11"/>
<feColorMatrix type="matrix" values="0 0 0 0 0.397708 0 0 0 0 0.47749 0 0 0 0 0.575 0 0 0 0.27 0"/>
<feBlend mode="normal" in2="BackgroundImageFix" result="effect1_dropShadow_1841_22089"/>
<feBlend mode="normal" in="SourceGraphic" in2="effect1_dropShadow_1841_22089" result="shape"/>
</filter>
<filter id="filter1_d_1841_22089" x="0.684814" y="16.7101" width="69.2437" height="78.8376" filterUnits="userSpaceOnUse" color-interpolation-filters="sRGB">
<feFlood flood-opacity="0" result="BackgroundImageFix"/>
<feColorMatrix in="SourceAlpha" type="matrix" values="0 0 0 0 0 0 0 0 0 0 0 0 0 0 0 0 0 0 127 0" result="hardAlpha"/>
<feOffset dy="11"/>
<feGaussianBlur stdDeviation="11"/>
<feColorMatrix type="matrix" values="0 0 0 0 0.397708 0 0 0 0 0.47749 0 0 0 0 0.575 0 0 0 0.27 0"/>
<feBlend mode="normal" in2="BackgroundImageFix" result="effect1_dropShadow_1841_22089"/>
<feBlend mode="normal" in="SourceGraphic" in2="effect1_dropShadow_1841_22089" result="shape"/>
</filter>
<filter id="filter2_d_1841_22089" x="15.1287" y="1.82764" width="99.6211" height="98.6251" filterUnits="userSpaceOnUse" color-interpolation-filters="sRGB">
<feFlood flood-opacity="0" result="BackgroundImageFix"/>
<feColorMatrix in="SourceAlpha" type="matrix" values="0 0 0 0 0 0 0 0 0 0 0 0 0 0 0 0 0 0 127 0" result="hardAlpha"/>
<feOffset dy="11"/>
<feGaussianBlur stdDeviation="11"/>
<feColorMatrix type="matrix" values="0 0 0 0 0.397708 0 0 0 0 0.47749 0 0 0 0 0.575 0 0 0 0.27 0"/>
<feBlend mode="normal" in2="BackgroundImageFix" result="effect1_dropShadow_1841_22089"/>
<feBlend mode="normal" in="SourceGraphic" in2="effect1_dropShadow_1841_22089" result="shape"/>
</filter>
<linearGradient id="paint0_linear_1841_22089" x1="82.5708" y1="32.0506" x2="101.875" y2="32.0506" gradientUnits="userSpaceOnUse">
<stop stop-color="#B0BACC"/>
<stop offset="1" stop-color="#969EAE"/>
</linearGradient>
<linearGradient id="paint1_linear_1841_22089" x1="92.1506" y1="53.8338" x2="92.1506" y2="49.492" gradientUnits="userSpaceOnUse">
<stop stop-color="white"/>
<stop offset="1" stop-color="#E2E5EC"/>
</linearGradient>
<linearGradient id="paint2_linear_1841_22089" x1="37.6494" y1="55.2047" x2="37.6494" y2="52.0176" gradientUnits="userSpaceOnUse">
<stop stop-color="white"/>
<stop offset="1" stop-color="#E2E5EC"/>
</linearGradient>
<linearGradient id="paint3_linear_1841_22089" x1="27.2677" y1="33.4756" x2="47.362" y2="33.4756" gradientUnits="userSpaceOnUse">
<stop stop-color="#B0BACC"/>
<stop offset="1" stop-color="#969EAE"/>
</linearGradient>
<linearGradient id="paint4_linear_1841_22089" x1="23.0443" y1="51.6757" x2="36.179" y2="51.6757" gradientUnits="userSpaceOnUse">
<stop stop-color="#B0BACC"/>
<stop offset="1" stop-color="#969EAE"/>
</linearGradient>
<linearGradient id="paint5_linear_1841_22089" x1="50.9929" y1="22.5139" x2="79.3498" y2="22.5139" gradientUnits="userSpaceOnUse">
<stop stop-color="#B0BACC"/>
<stop offset="1" stop-color="#969EAE"/>
</linearGradient>
<linearGradient id="paint6_linear_1841_22089" x1="65.0738" y1="54.5693" x2="65.0738" y2="48.172" gradientUnits="userSpaceOnUse">
<stop stop-color="white"/>
<stop offset="1" stop-color="#E2E5EC"/>
</linearGradient>
<linearGradient id="paint7_linear_1841_22089" x1="85.8457" y1="64.3348" x2="107.228" y2="64.3348" gradientUnits="userSpaceOnUse">
<stop stop-color="#B0BACC"/>
<stop offset="1" stop-color="#969EAE"/>
</linearGradient>
<linearGradient id="paint8_linear_1841_22089" x1="33.6038" y1="32.5691" x2="93.311" y2="32.5691" gradientUnits="userSpaceOnUse">
<stop stop-color="#B0BACC"/>
<stop offset="1" stop-color="#969EAE"/>
</linearGradient>
</defs>
</svg>
