<svg width="18" height="16" viewBox="0 0 18 16" fill="none" xmlns="http://www.w3.org/2000/svg">
<path d="M10.1526 11.594V14.2928C10.1526 14.5552 10.0683 14.7707 9.8996 14.9394C9.73092 15.1081 9.51539 15.1924 9.25301 15.1924C8.99063 15.1924 8.7751 15.1081 8.60643 14.9394C8.43775 14.7707 8.35341 14.5552 8.35341 14.2928V11.594H10.1526Z" fill="#353E6E"/>
<path d="M9.79317 10.6969H4.749C4.44913 10.6969 4.20549 10.5751 4.01807 10.3315C3.8494 10.0691 3.81191 9.79734 3.90562 9.51621L3.93373 9.43187C4.24868 8.51566 4.75499 7.77988 5.45267 7.22453L9.79317 10.6969Z" fill="#353E6E"/>
<path d="M4.75502 1.69843C4.75502 1.43605 4.83936 1.22052 5.00803 1.05184C5.17671 0.883167 5.39224 0.798828 5.65462 0.798828H12.8514C13.1138 0.798828 13.3293 0.883167 13.498 1.05184C13.6667 1.22052 13.751 1.43605 13.751 1.69843C13.751 1.96081 13.6667 2.17634 13.498 2.34501C13.3293 2.51369 13.1138 2.59803 12.8514 2.59803H12.0361L12.3454 6.75867C13.4137 7.33966 14.1539 8.22989 14.5663 9.42935L14.5944 9.51369C14.6881 9.79481 14.6412 10.0666 14.4538 10.329C14.2851 10.5726 14.0509 10.6944 13.751 10.6944H13.5159L17.743 13.9876C18.0428 14.2687 18.0803 14.5873 17.8554 14.9434C17.5743 15.2433 17.2557 15.2808 16.8996 15.0559L6.83198 7.16503L6.16961 6.64806L6.16978 6.646L0.257028 2.01168C-0.042838 1.73056 -0.0803213 1.41195 0.144578 1.05586C0.425703 0.755992 0.744311 0.718508 1.1004 0.943408L4.33333 3.47353L6.30144 5.0222L6.49799 2.59803H5.65462C5.39224 2.59803 5.17671 2.51369 5.00803 2.34501C4.83936 2.17634 4.75502 1.96081 4.75502 1.69843Z" fill="#353E6E"/>
</svg>
